<svg width="233" height="113" viewBox="0 0 233 113" fill="none" xmlns="http://www.w3.org/2000/svg">
<g filter="url(#filter0_d_6004_17007)">
<rect x="4" width="225" height="105" rx="16" fill="#E0F6EB" shape-rendering="crispEdges"/>
<rect x="4.5" y="0.5" width="224" height="104" rx="15.5" stroke="#BED9CB" shape-rendering="crispEdges"/>
<path d="M19.756 21.278C19.6067 21.278 19.476 21.2267 19.364 21.124C19.2613 21.0213 19.21 20.8907 19.21 20.732C19.21 20.5733 19.2613 20.4473 19.364 20.354C19.476 20.2513 19.6067 20.2 19.756 20.2H25.762C25.9207 20.2 26.0513 20.2513 26.154 20.354C26.2567 20.4473 26.308 20.5733 26.308 20.732C26.308 20.8907 26.2567 21.0213 26.154 21.124C26.0513 21.2267 25.9207 21.278 25.762 21.278H19.756ZM22.752 30.14C22.5933 30.14 22.458 30.084 22.346 29.972C22.2433 29.86 22.192 29.7247 22.192 29.566V20.802H23.34V29.566C23.34 29.7247 23.284 29.86 23.172 29.972C23.0693 30.084 22.9293 30.14 22.752 30.14ZM29.084 30.21C28.4307 30.21 27.8567 30.0513 27.362 29.734C26.8767 29.4073 26.494 28.9547 26.214 28.376C25.9434 27.7973 25.808 27.13 25.808 26.374C25.808 25.618 25.9434 24.9553 26.214 24.386C26.494 23.8167 26.8767 23.3733 27.362 23.056C27.8567 22.7387 28.4307 22.58 29.084 22.58C29.7467 22.58 30.3254 22.7387 30.82 23.056C31.324 23.3733 31.716 23.8167 31.996 24.386C32.276 24.9553 32.416 25.618 32.416 26.374C32.416 27.13 32.276 27.7973 31.996 28.376C31.716 28.9547 31.324 29.4073 30.82 29.734C30.3254 30.0513 29.7467 30.21 29.084 30.21ZM29.084 29.16C29.7747 29.16 30.3114 28.9127 30.694 28.418C31.0767 27.9233 31.268 27.242 31.268 26.374C31.268 25.5247 31.0767 24.8527 30.694 24.358C30.3114 23.8633 29.7747 23.616 29.084 23.616C28.4027 23.616 27.8754 23.8633 27.502 24.358C27.1287 24.8527 26.942 25.5247 26.942 26.374C26.942 27.242 27.1287 27.9233 27.502 28.418C27.8754 28.9127 28.4027 29.16 29.084 29.16ZM35.9127 30.14C35.5953 30.14 35.32 30.07 35.0867 29.93C34.8627 29.7807 34.69 29.5753 34.5687 29.314C34.4473 29.0433 34.3867 28.7353 34.3867 28.39V21.81C34.3867 21.6513 34.438 21.5207 34.5407 21.418C34.6527 21.306 34.788 21.25 34.9467 21.25C35.1053 21.25 35.236 21.306 35.3387 21.418C35.4507 21.5207 35.5067 21.6513 35.5067 21.81V28.376C35.5067 28.5533 35.5347 28.7073 35.5907 28.838C35.6467 28.9593 35.7633 29.02 35.9407 29.02C36.062 29.02 36.1507 28.992 36.2067 28.936C36.272 28.88 36.3373 28.8287 36.4027 28.782C36.468 28.726 36.5613 28.698 36.6827 28.698C36.8507 28.698 36.986 28.754 37.0887 28.866C37.1913 28.9687 37.2427 29.0993 37.2427 29.258C37.2427 29.426 37.1773 29.58 37.0467 29.72C36.9253 29.8507 36.762 29.9533 36.5567 30.028C36.3607 30.1027 36.146 30.14 35.9127 30.14ZM33.9387 23.812C33.7893 23.812 33.6587 23.7653 33.5467 23.672C33.444 23.5693 33.3927 23.4433 33.3927 23.294C33.3927 23.154 33.444 23.0373 33.5467 22.944C33.6587 22.8413 33.7893 22.79 33.9387 22.79H36.8927C37.042 22.79 37.168 22.8413 37.2707 22.944C37.3827 23.0373 37.4387 23.154 37.4387 23.294C37.4387 23.4433 37.3827 23.5693 37.2707 23.672C37.168 23.7653 37.042 23.812 36.8927 23.812H33.9387ZM41.0839 30.21C40.5612 30.21 40.1086 30.1167 39.7259 29.93C39.3526 29.734 39.0632 29.4727 38.8579 29.146C38.6619 28.8193 38.5639 28.4553 38.5639 28.054C38.5639 27.4753 38.7786 26.9807 39.2079 26.57C39.6466 26.15 40.3466 25.884 41.3079 25.772C41.7092 25.7253 42.0546 25.674 42.3439 25.618C42.6332 25.562 42.8572 25.4687 43.0159 25.338C43.1839 25.2073 43.2679 25.016 43.2679 24.764C43.2679 24.568 43.2166 24.386 43.1139 24.218C43.0206 24.0407 42.8619 23.896 42.6379 23.784C42.4232 23.672 42.1339 23.616 41.7699 23.616C41.2846 23.616 40.9206 23.714 40.6779 23.91C40.4352 24.0967 40.2672 24.2833 40.1739 24.47C40.1086 24.5913 40.0292 24.6847 39.9359 24.75C39.8426 24.8153 39.7306 24.848 39.5999 24.848C39.4412 24.848 39.3199 24.8013 39.2359 24.708C39.1519 24.6053 39.1099 24.4793 39.1099 24.33C39.1099 24.1527 39.1706 23.966 39.2919 23.77C39.4132 23.5647 39.5906 23.3733 39.8239 23.196C40.0666 23.0093 40.3559 22.86 40.6919 22.748C41.0372 22.636 41.4292 22.58 41.8679 22.58C42.5026 22.58 43.0019 22.7013 43.3659 22.944C43.7392 23.1773 44.0052 23.4993 44.1639 23.91C44.3226 24.3113 44.4019 24.7593 44.4019 25.254V28.74C44.4019 28.8333 44.4112 28.9033 44.4299 28.95C44.4579 28.9967 44.5046 29.0247 44.5699 29.034C44.7006 29.0433 44.8126 29.0993 44.9059 29.202C44.9992 29.2953 45.0459 29.4167 45.0459 29.566C45.0459 29.7247 44.9806 29.86 44.8499 29.972C44.7286 30.084 44.5559 30.14 44.3319 30.14C44.0519 30.14 43.8326 30.0607 43.6739 29.902C43.5246 29.734 43.4499 29.5287 43.4499 29.286V29.048H43.4079C43.1746 29.3933 42.8666 29.6733 42.4839 29.888C42.1106 30.1027 41.6439 30.21 41.0839 30.21ZM41.0979 29.174C41.5179 29.174 41.8912 29.0853 42.2179 28.908C42.5539 28.7307 42.8152 28.4927 43.0019 28.194C43.1979 27.8953 43.2959 27.564 43.2959 27.2V26.248C43.2959 26.2293 43.2866 26.22 43.2679 26.22C43.2586 26.2107 43.2399 26.2247 43.2119 26.262C43.0719 26.374 42.8806 26.4627 42.6379 26.528C42.4046 26.584 42.1666 26.6307 41.9239 26.668C41.6812 26.7053 41.4806 26.738 41.3219 26.766C40.8366 26.8407 40.4399 26.9713 40.1319 27.158C39.8332 27.3447 39.6839 27.6247 39.6839 27.998C39.6839 28.278 39.7912 28.544 40.0059 28.796C40.2206 29.048 40.5846 29.174 41.0979 29.174ZM46.9677 30.14C46.8091 30.14 46.6737 30.084 46.5617 29.972C46.4591 29.8507 46.4077 29.7107 46.4077 29.552V20.354C46.4077 20.1953 46.4591 20.06 46.5617 19.948C46.6737 19.836 46.8091 19.78 46.9677 19.78C47.1264 19.78 47.2617 19.836 47.3737 19.948C47.4857 20.06 47.5417 20.1953 47.5417 20.354V29.552C47.5417 29.7107 47.4857 29.8507 47.3737 29.972C47.2617 30.084 47.1264 30.14 46.9677 30.14ZM56.503 30.224C55.7377 30.224 55.0937 30.0887 54.571 29.818C54.0484 29.5473 53.6564 29.2207 53.395 28.838C53.1337 28.446 53.003 28.0633 53.003 27.69C53.003 27.5127 53.0497 27.368 53.143 27.256C53.2364 27.1347 53.3717 27.074 53.549 27.074C53.745 27.074 53.885 27.1393 53.969 27.27C54.0624 27.3913 54.1324 27.5407 54.179 27.718C54.291 28.0913 54.5244 28.4273 54.879 28.726C55.243 29.0153 55.7657 29.16 56.447 29.16C56.839 29.16 57.203 29.104 57.539 28.992C57.875 28.8707 58.1457 28.6793 58.351 28.418C58.5564 28.1567 58.659 27.8113 58.659 27.382C58.659 27.074 58.5937 26.822 58.463 26.626C58.3324 26.43 58.1037 26.2433 57.777 26.066C57.4504 25.8887 56.9977 25.6833 56.419 25.45C56.0644 25.31 55.7097 25.17 55.355 25.03C55.0097 24.8807 54.6924 24.708 54.403 24.512C54.123 24.316 53.8944 24.064 53.717 23.756C53.549 23.448 53.465 23.0607 53.465 22.594C53.465 22.0153 53.5957 21.5347 53.857 21.152C54.1277 20.7693 54.4824 20.48 54.921 20.284C55.3597 20.088 55.845 19.99 56.377 19.99C56.825 19.99 57.231 20.0553 57.595 20.186C57.9684 20.3167 58.2904 20.494 58.561 20.718C58.841 20.9327 59.0604 21.1753 59.219 21.446C59.3777 21.7073 59.471 21.9733 59.499 22.244C59.5177 22.4213 59.4757 22.5707 59.373 22.692C59.2797 22.804 59.1397 22.86 58.953 22.86C58.757 22.86 58.631 22.804 58.575 22.692C58.519 22.58 58.4584 22.44 58.393 22.272C58.225 21.8613 57.9777 21.5533 57.651 21.348C57.3337 21.1427 56.937 21.04 56.461 21.04C56.097 21.04 55.775 21.1007 55.495 21.222C55.215 21.3433 54.9957 21.516 54.837 21.74C54.6877 21.9547 54.613 22.2207 54.613 22.538C54.613 22.9113 54.7204 23.2053 54.935 23.42C55.1497 23.6347 55.4297 23.812 55.775 23.952C56.1297 24.092 56.503 24.2413 56.895 24.4C57.4457 24.624 57.9077 24.8387 58.281 25.044C58.6544 25.2493 58.953 25.464 59.177 25.688C59.401 25.912 59.5597 26.1547 59.653 26.416C59.7557 26.6773 59.807 26.976 59.807 27.312C59.8164 27.8813 59.695 28.3853 59.443 28.824C59.191 29.2627 58.8177 29.608 58.323 29.86C57.8284 30.1027 57.2217 30.224 56.503 30.224ZM63.5195 30.21C62.9968 30.21 62.5441 30.1167 62.1615 29.93C61.7881 29.734 61.4988 29.4727 61.2935 29.146C61.0975 28.8193 60.9995 28.4553 60.9995 28.054C60.9995 27.4753 61.2141 26.9807 61.6435 26.57C62.0821 26.15 62.7821 25.884 63.7435 25.772C64.1448 25.7253 64.4901 25.674 64.7795 25.618C65.0688 25.562 65.2928 25.4687 65.4515 25.338C65.6195 25.2073 65.7035 25.016 65.7035 24.764C65.7035 24.568 65.6521 24.386 65.5495 24.218C65.4561 24.0407 65.2975 23.896 65.0735 23.784C64.8588 23.672 64.5695 23.616 64.2055 23.616C63.7201 23.616 63.3561 23.714 63.1135 23.91C62.8708 24.0967 62.7028 24.2833 62.6095 24.47C62.5441 24.5913 62.4648 24.6847 62.3715 24.75C62.2781 24.8153 62.1661 24.848 62.0355 24.848C61.8768 24.848 61.7555 24.8013 61.6715 24.708C61.5875 24.6053 61.5455 24.4793 61.5455 24.33C61.5455 24.1527 61.6061 23.966 61.7275 23.77C61.8488 23.5647 62.0261 23.3733 62.2595 23.196C62.5021 23.0093 62.7915 22.86 63.1275 22.748C63.4728 22.636 63.8648 22.58 64.3035 22.58C64.9381 22.58 65.4375 22.7013 65.8015 22.944C66.1748 23.1773 66.4408 23.4993 66.5995 23.91C66.7581 24.3113 66.8375 24.7593 66.8375 25.254V28.74C66.8375 28.8333 66.8468 28.9033 66.8655 28.95C66.8935 28.9967 66.9401 29.0247 67.0055 29.034C67.1361 29.0433 67.2481 29.0993 67.3415 29.202C67.4348 29.2953 67.4815 29.4167 67.4815 29.566C67.4815 29.7247 67.4161 29.86 67.2855 29.972C67.1641 30.084 66.9915 30.14 66.7675 30.14C66.4875 30.14 66.2681 30.0607 66.1095 29.902C65.9601 29.734 65.8855 29.5287 65.8855 29.286V29.048H65.8435C65.6101 29.3933 65.3021 29.6733 64.9195 29.888C64.5461 30.1027 64.0795 30.21 63.5195 30.21ZM63.5335 29.174C63.9535 29.174 64.3268 29.0853 64.6535 28.908C64.9895 28.7307 65.2508 28.4927 65.4375 28.194C65.6335 27.8953 65.7315 27.564 65.7315 27.2V26.248C65.7315 26.2293 65.7221 26.22 65.7035 26.22C65.6941 26.2107 65.6755 26.2247 65.6475 26.262C65.5075 26.374 65.3161 26.4627 65.0735 26.528C64.8401 26.584 64.6021 26.6307 64.3595 26.668C64.1168 26.7053 63.9161 26.738 63.7575 26.766C63.2721 26.8407 62.8755 26.9713 62.5675 27.158C62.2688 27.3447 62.1195 27.6247 62.1195 27.998C62.1195 28.278 62.2268 28.544 62.4415 28.796C62.6561 29.048 63.0201 29.174 63.5335 29.174ZM69.4033 30.14C69.2446 30.14 69.1093 30.084 68.9973 29.972C68.8946 29.8507 68.8433 29.7107 68.8433 29.552V20.354C68.8433 20.1953 68.8946 20.06 68.9973 19.948C69.1093 19.836 69.2446 19.78 69.4033 19.78C69.5619 19.78 69.6973 19.836 69.8093 19.948C69.9213 20.06 69.9773 20.1953 69.9773 20.354V29.552C69.9773 29.7107 69.9213 29.8507 69.8093 29.972C69.6973 30.084 69.5619 30.14 69.4033 30.14ZM74.8731 30.21C74.2571 30.21 73.6925 30.07 73.1791 29.79C72.6751 29.51 72.2691 29.09 71.9611 28.53C71.6625 27.97 71.5131 27.2793 71.5131 26.458C71.5131 25.674 71.6531 24.9927 71.9331 24.414C72.2131 23.8353 72.5911 23.3873 73.0671 23.07C73.5525 22.7433 74.1031 22.58 74.7191 22.58C75.1951 22.58 75.6245 22.6733 76.0071 22.86C76.3898 23.0373 76.7118 23.2847 76.9731 23.602C77.2438 23.91 77.4491 24.26 77.5891 24.652C77.7385 25.0347 77.8131 25.436 77.8131 25.856C77.8131 26.1267 77.7618 26.346 77.6591 26.514C77.5565 26.6727 77.3465 26.752 77.0291 26.752H72.6611C72.6985 27.3213 72.8198 27.7833 73.0251 28.138C73.2305 28.4927 73.4871 28.754 73.7951 28.922C74.1125 29.0807 74.4578 29.16 74.8311 29.16C75.3351 29.16 75.7365 29.0433 76.0351 28.81C76.3338 28.5767 76.5391 28.3013 76.6511 27.984C76.6978 27.872 76.7585 27.7787 76.8331 27.704C76.9171 27.62 77.0291 27.578 77.1691 27.578C77.3278 27.578 77.4538 27.6387 77.5471 27.76C77.6405 27.872 77.6825 28.0213 77.6731 28.208C77.6638 28.3947 77.5985 28.6047 77.4771 28.838C77.3558 29.062 77.1785 29.2813 76.9451 29.496C76.7211 29.7013 76.4365 29.8693 76.0911 30C75.7458 30.14 75.3398 30.21 74.8731 30.21ZM72.6751 25.786H76.7351C76.6698 25.1513 76.4645 24.6333 76.1191 24.232C75.7738 23.8213 75.3025 23.616 74.7051 23.616C74.1731 23.616 73.7205 23.798 73.3471 24.162C72.9831 24.526 72.7591 25.0673 72.6751 25.786ZM81.821 30.252C81.1863 30.252 80.659 30.14 80.239 29.916C79.819 29.6827 79.5016 29.412 79.287 29.104C79.0723 28.7867 78.9556 28.502 78.937 28.25C78.9276 28.054 78.9696 27.9047 79.063 27.802C79.1656 27.69 79.2916 27.634 79.441 27.634C79.581 27.634 79.693 27.676 79.777 27.76C79.861 27.8347 79.9216 27.9233 79.959 28.026C80.071 28.3433 80.2763 28.6233 80.575 28.866C80.8736 29.0993 81.2936 29.216 81.835 29.216C82.3296 29.216 82.7076 29.1133 82.969 28.908C83.2303 28.6933 83.361 28.418 83.361 28.082C83.361 27.8207 83.2816 27.6153 83.123 27.466C82.9736 27.3073 82.7636 27.1813 82.493 27.088C82.2223 26.9947 81.9096 26.9013 81.555 26.808C81.2936 26.7333 81.023 26.654 80.743 26.57C80.463 26.4767 80.2016 26.3553 79.959 26.206C79.7163 26.0567 79.5203 25.8653 79.371 25.632C79.2216 25.3987 79.147 25.1047 79.147 24.75C79.147 24.358 79.2496 23.9987 79.455 23.672C79.6603 23.336 79.959 23.07 80.351 22.874C80.743 22.6687 81.2096 22.566 81.751 22.566C82.3016 22.566 82.7636 22.6593 83.137 22.846C83.5103 23.0327 83.795 23.2613 83.991 23.532C84.1963 23.7933 84.3036 24.0453 84.313 24.288C84.3223 24.4653 84.285 24.6053 84.201 24.708C84.117 24.8107 83.9956 24.862 83.837 24.862C83.7343 24.862 83.6316 24.834 83.529 24.778C83.4263 24.722 83.3376 24.6333 83.263 24.512C83.1976 24.3813 83.109 24.246 82.997 24.106C82.8943 23.9567 82.745 23.8353 82.549 23.742C82.353 23.6393 82.0823 23.588 81.737 23.588C81.2983 23.588 80.939 23.686 80.659 23.882C80.379 24.0687 80.239 24.3253 80.239 24.652C80.239 24.904 80.3183 25.1 80.477 25.24C80.645 25.38 80.8596 25.492 81.121 25.576C81.3916 25.66 81.6856 25.7487 82.003 25.842C82.3016 25.926 82.5956 26.0193 82.885 26.122C83.1743 26.2153 83.4356 26.3413 83.669 26.5C83.9116 26.6493 84.103 26.8407 84.243 27.074C84.3923 27.3073 84.467 27.5967 84.467 27.942C84.467 28.2873 84.3783 28.642 84.201 29.006C84.033 29.3607 83.753 29.6593 83.361 29.902C82.9783 30.1353 82.465 30.252 81.821 30.252Z" fill="#2E2C28"/>
<path d="M26.2 61C24.952 61 23.856 60.808 22.912 60.424C21.984 60.024 21.256 59.52 20.728 58.912C20.216 58.288 19.96 57.648 19.96 56.992C19.96 56.592 20.08 56.264 20.32 56.008C20.576 55.736 20.912 55.6 21.328 55.6C21.728 55.6 22.016 55.712 22.192 55.936C22.384 56.144 22.56 56.4 22.72 56.704C22.944 57.152 23.32 57.552 23.848 57.904C24.392 58.256 25.144 58.432 26.104 58.432C26.648 58.432 27.152 58.368 27.616 58.24C28.08 58.096 28.448 57.872 28.72 57.568C29.008 57.264 29.152 56.856 29.152 56.344C29.152 55.896 29.024 55.536 28.768 55.264C28.528 54.976 28.16 54.72 27.664 54.496C27.168 54.256 26.544 54 25.792 53.728C25.216 53.52 24.632 53.304 24.04 53.08C23.448 52.84 22.912 52.544 22.432 52.192C21.952 51.84 21.56 51.392 21.256 50.848C20.968 50.304 20.824 49.616 20.824 48.784C20.824 47.808 21.056 46.992 21.52 46.336C21.984 45.68 22.608 45.184 23.392 44.848C24.192 44.512 25.088 44.344 26.08 44.344C26.816 44.344 27.496 44.44 28.12 44.632C28.76 44.808 29.312 45.056 29.776 45.376C30.24 45.68 30.608 46.04 30.88 46.456C31.152 46.856 31.304 47.28 31.336 47.728C31.352 48.128 31.24 48.464 31 48.736C30.76 48.992 30.432 49.12 30.016 49.12C29.664 49.12 29.408 49.056 29.248 48.928C29.104 48.784 28.944 48.56 28.768 48.256C28.56 47.84 28.24 47.512 27.808 47.272C27.392 47.032 26.84 46.912 26.152 46.912C25.672 46.912 25.24 46.984 24.856 47.128C24.488 47.256 24.2 47.456 23.992 47.728C23.784 47.984 23.68 48.296 23.68 48.664C23.68 49.16 23.84 49.56 24.16 49.864C24.48 50.168 24.904 50.432 25.432 50.656C25.96 50.864 26.52 51.08 27.112 51.304C27.864 51.576 28.536 51.856 29.128 52.144C29.736 52.432 30.248 52.76 30.664 53.128C31.096 53.48 31.424 53.912 31.648 54.424C31.888 54.92 32.008 55.512 32.008 56.2C32.008 57.224 31.768 58.096 31.288 58.816C30.808 59.52 30.128 60.064 29.248 60.448C28.384 60.816 27.368 61 26.2 61ZM26.272 63.376C26 63.376 25.76 63.272 25.552 63.064C25.36 62.872 25.264 62.64 25.264 62.368V43.072C25.264 42.784 25.36 42.544 25.552 42.352C25.76 42.16 26 42.064 26.272 42.064C26.56 42.064 26.8 42.16 26.992 42.352C27.184 42.544 27.28 42.784 27.28 43.072V62.368C27.28 62.64 27.184 62.872 26.992 63.064C26.8 63.272 26.56 63.376 26.272 63.376ZM36.0168 61C35.5208 61 35.0968 60.856 34.7448 60.568C34.4088 60.264 34.2408 59.824 34.2408 59.248C34.2408 58.416 34.3848 57.664 34.6728 56.992C34.9768 56.32 35.3768 55.712 35.8728 55.168C36.3848 54.624 36.9368 54.128 37.5288 53.68C38.1368 53.216 38.7288 52.776 39.3047 52.36C39.9128 51.944 40.4728 51.536 40.9848 51.136C41.5128 50.72 41.9368 50.296 42.2568 49.864C42.5768 49.416 42.7368 48.944 42.7368 48.448C42.7368 48.016 42.6248 47.648 42.4008 47.344C42.1768 47.04 41.8648 46.808 41.4648 46.648C41.0648 46.472 40.5848 46.384 40.0247 46.384C39.4168 46.384 38.9048 46.472 38.4888 46.648C38.0888 46.824 37.7608 47.064 37.5048 47.368C37.2648 47.672 37.0728 48.016 36.9288 48.4C36.8008 48.736 36.6328 48.992 36.4248 49.168C36.2168 49.328 35.9608 49.408 35.6568 49.408C35.2888 49.408 34.9848 49.28 34.7448 49.024C34.5048 48.768 34.3848 48.448 34.3848 48.064C34.4008 47.536 34.5608 47.024 34.8648 46.528C35.1688 46.032 35.5848 45.584 36.1128 45.184C36.6408 44.784 37.2568 44.464 37.9608 44.224C38.6808 43.984 39.4568 43.864 40.2888 43.864C41.2968 43.864 42.1928 44.056 42.9768 44.44C43.7608 44.808 44.3768 45.336 44.8248 46.024C45.2888 46.712 45.5288 47.512 45.5448 48.424C45.5608 49.16 45.4328 49.824 45.1608 50.416C44.9048 50.992 44.5528 51.528 44.1048 52.024C43.6568 52.504 43.1608 52.952 42.6168 53.368C42.0728 53.768 41.5208 54.152 40.9608 54.52C40.4008 54.904 39.8568 55.296 39.3288 55.696C38.8008 56.08 38.3608 56.48 38.0088 56.896C37.6728 57.312 37.5048 57.784 37.5048 58.312V58.36L44.5848 58.336C44.9688 58.336 45.2888 58.472 45.5448 58.744C45.8008 59 45.9288 59.312 45.9288 59.68C45.9288 60.048 45.8008 60.36 45.5448 60.616C45.2888 60.872 44.9688 61 44.5848 61H36.0168ZM53.5866 61.384C52.4186 61.384 51.3946 61.168 50.5146 60.736C49.6506 60.304 48.9706 59.768 48.4746 59.128C47.9786 58.472 47.6986 57.816 47.6346 57.16C47.6186 56.76 47.7306 56.44 47.9706 56.2C48.2106 55.96 48.5226 55.84 48.9066 55.84C49.2106 55.84 49.4506 55.928 49.6266 56.104C49.8186 56.264 49.9866 56.464 50.1306 56.704C50.4506 57.344 50.8906 57.856 51.4506 58.24C52.0106 58.624 52.6826 58.816 53.4666 58.816C54.1706 58.816 54.7866 58.664 55.3146 58.36C55.8586 58.04 56.2746 57.608 56.5626 57.064C56.8666 56.504 57.0186 55.888 57.0186 55.216C57.0186 54.528 56.8666 53.92 56.5626 53.392C56.2746 52.848 55.8586 52.424 55.3146 52.12C54.7866 51.8 54.1546 51.64 53.4186 51.64C52.9546 51.64 52.5626 51.704 52.2426 51.832C51.9386 51.96 51.6666 52.104 51.4266 52.264C51.2026 52.408 50.9786 52.544 50.7546 52.672C50.5306 52.784 50.2746 52.84 49.9866 52.84C49.5866 52.84 49.2826 52.728 49.0746 52.504C48.8666 52.264 48.7866 51.928 48.8346 51.496L49.5066 45.64C49.5546 45.176 49.7466 44.824 50.0826 44.584C50.4186 44.328 50.7786 44.2 51.1626 44.2H57.1386C57.5226 44.2 57.8426 44.336 58.0986 44.608C58.3706 44.864 58.5066 45.176 58.5066 45.544C58.5066 45.896 58.3706 46.216 58.0986 46.504C57.8266 46.776 57.4586 46.904 56.9946 46.888L50.7066 46.768L52.2186 45.832L51.5226 51.4L49.8186 51.04C50.4586 50.496 51.1066 50.088 51.7626 49.816C52.4346 49.544 53.1706 49.408 53.9706 49.408C55.1066 49.408 56.1066 49.648 56.9706 50.128C57.8506 50.608 58.5386 51.288 59.0346 52.168C59.5306 53.032 59.7786 54.048 59.7786 55.216C59.7786 56.384 59.5226 57.44 59.0106 58.384C58.4986 59.312 57.7786 60.048 56.8506 60.592C55.9386 61.12 54.8506 61.384 53.5866 61.384ZM67.8674 61.336C67.1314 61.336 66.4354 61.224 65.7794 61C65.1394 60.76 64.5714 60.448 64.0754 60.064C63.5794 59.68 63.1874 59.264 62.8994 58.816C62.6274 58.368 62.4834 57.944 62.4674 57.544C62.4674 57.176 62.5714 56.864 62.7794 56.608C63.0034 56.352 63.3154 56.224 63.7154 56.224C64.0354 56.224 64.2914 56.304 64.4834 56.464C64.6754 56.624 64.8354 56.816 64.9634 57.04C65.2354 57.552 65.6194 57.968 66.1154 58.288C66.6274 58.608 67.1874 58.768 67.7954 58.768C68.5154 58.768 69.1474 58.568 69.6914 58.168C70.2354 57.752 70.6754 57.152 71.0114 56.368C71.3634 55.584 71.5874 54.624 71.6834 53.488C71.0754 53.968 70.4114 54.352 69.6914 54.64C68.9714 54.912 68.2274 55.048 67.4594 55.048C66.4834 55.048 65.5714 54.824 64.7234 54.376C63.8914 53.912 63.2194 53.272 62.7074 52.456C62.2114 51.624 61.9634 50.656 61.9634 49.552C61.9634 48.528 62.2034 47.592 62.6834 46.744C63.1794 45.88 63.8674 45.184 64.7474 44.656C65.6434 44.128 66.6754 43.864 67.8434 43.864C69.2514 43.864 70.4434 44.2 71.4194 44.872C72.4114 45.544 73.1634 46.504 73.6754 47.752C74.1874 49 74.4434 50.504 74.4434 52.264C74.4434 54.104 74.1714 55.704 73.6274 57.064C73.0834 58.424 72.3154 59.48 71.3234 60.232C70.3474 60.968 69.1954 61.336 67.8674 61.336ZM64.7234 49.624C64.7234 50.232 64.8594 50.76 65.1314 51.208C65.4034 51.64 65.7634 51.976 66.2114 52.216C66.6594 52.44 67.1554 52.552 67.6994 52.552C68.3714 52.552 69.0354 52.376 69.6914 52.024C70.3474 51.672 70.9794 51.176 71.5874 50.536C71.4114 49.16 71.0034 48.128 70.3634 47.44C69.7394 46.752 68.9154 46.408 67.8914 46.408C67.2674 46.408 66.7154 46.552 66.2354 46.84C65.7714 47.128 65.4034 47.52 65.1314 48.016C64.8594 48.496 64.7234 49.032 64.7234 49.624ZM83.473 61.36C82.161 61.36 80.985 60.992 79.945 60.256C78.921 59.52 78.113 58.496 77.521 57.184C76.945 55.872 76.657 54.352 76.657 52.624C76.657 50.88 76.953 49.352 77.545 48.04C78.137 46.728 78.953 45.704 79.993 44.968C81.033 44.216 82.201 43.84 83.497 43.84C84.793 43.84 85.953 44.216 86.977 44.968C88.017 45.704 88.833 46.728 89.425 48.04C90.017 49.352 90.313 50.88 90.313 52.624C90.313 54.352 90.017 55.872 89.425 57.184C88.849 58.496 88.041 59.52 87.001 60.256C85.977 60.992 84.801 61.36 83.473 61.36ZM83.473 58.768C84.321 58.768 85.041 58.52 85.633 58.024C86.241 57.528 86.713 56.816 87.049 55.888C87.385 54.96 87.553 53.872 87.553 52.624C87.553 51.36 87.385 50.264 87.049 49.336C86.713 48.408 86.241 47.688 85.633 47.176C85.041 46.664 84.321 46.408 83.473 46.408C82.657 46.408 81.937 46.664 81.313 47.176C80.705 47.688 80.233 48.408 79.897 49.336C79.577 50.264 79.417 51.36 79.417 52.624C79.417 53.872 79.577 54.96 79.897 55.888C80.233 56.816 80.705 57.528 81.313 58.024C81.937 58.52 82.657 58.768 83.473 58.768Z" fill="#267F53"/>
<rect x="19" y="70" width="40" height="20" rx="5" fill="#267F53"/>
<g clip-path="url(#clip0_6004_17007)">
<path d="M32.3078 76.0176L24.3105 82.9379L24.3082 82.9402C24.0533 83.1765 23.9513 83.4781 24.0221 83.788C24.094 84.1056 24.3478 84.3791 24.6538 84.4679C24.7276 84.4894 24.8014 84.5 24.8741 84.5C25.096 84.5 25.3095 84.4018 25.4925 84.2117L32.6236 76.2906L32.3078 76.0176Z" fill="white"/>
<path d="M32.6876 76.2182C32.7134 76.0003 32.5285 75.8254 32.3177 75.8598C30.6105 76.138 28.7413 76.0484 27.1483 75.5034C26.7472 75.4623 26.394 75.7957 26.4173 76.2272C26.4359 76.5695 26.7183 76.8367 27.0501 76.8688C28.3314 76.9932 30.5009 76.9603 31.6121 76.9326C31.5828 78.0812 31.5471 80.3205 31.6681 81.6374C31.6993 81.9785 31.9592 82.2688 32.2922 82.288C32.7119 82.3118 33.0362 81.9488 32.9962 81.5364C32.4159 79.3151 32.5783 77.1258 32.6872 76.2182H32.6876Z" fill="white"/>
</g>
<path d="M40.312 84.192C39.728 84.192 39.232 84.08 38.824 83.856C38.416 83.624 38.092 83.344 37.852 83.016C37.612 82.68 37.452 82.356 37.372 82.044C37.34 81.892 37.368 81.768 37.456 81.672C37.552 81.568 37.676 81.516 37.828 81.516C37.956 81.516 38.052 81.556 38.116 81.636C38.18 81.708 38.236 81.792 38.284 81.888C38.46 82.28 38.708 82.612 39.028 82.884C39.356 83.148 39.776 83.28 40.288 83.28C40.696 83.28 41.056 83.188 41.368 83.004C41.68 82.82 41.92 82.568 42.088 82.248C42.264 81.928 42.352 81.568 42.352 81.168C42.352 80.768 42.264 80.412 42.088 80.1C41.92 79.788 41.68 79.544 41.368 79.368C41.064 79.184 40.704 79.092 40.288 79.092C39.992 79.092 39.748 79.132 39.556 79.212C39.364 79.292 39.204 79.384 39.076 79.488C38.956 79.584 38.844 79.672 38.74 79.752C38.644 79.832 38.532 79.872 38.404 79.872C38.252 79.872 38.132 79.824 38.044 79.728C37.964 79.624 37.932 79.508 37.948 79.38L38.356 76.236C38.38 76.028 38.456 75.872 38.584 75.768C38.712 75.656 38.868 75.6 39.052 75.6H42.052C42.188 75.6 42.3 75.648 42.388 75.744C42.484 75.832 42.532 75.944 42.532 76.08C42.532 76.208 42.484 76.32 42.388 76.416C42.292 76.504 42.176 76.548 42.04 76.548L38.824 76.536L39.304 76.14L38.92 79.032L38.596 78.792C38.86 78.6 39.14 78.456 39.436 78.36C39.732 78.264 40.044 78.216 40.372 78.216C40.94 78.216 41.444 78.344 41.884 78.6C42.332 78.848 42.68 79.192 42.928 79.632C43.184 80.072 43.312 80.58 43.312 81.156C43.312 81.724 43.188 82.24 42.94 82.704C42.692 83.16 42.344 83.524 41.896 83.796C41.448 84.06 40.92 84.192 40.312 84.192ZM45.9195 84.18C45.7995 84.18 45.6955 84.14 45.6075 84.06C45.5275 83.988 45.4795 83.896 45.4635 83.784C45.4475 83.672 45.4755 83.564 45.5475 83.46L51.0435 75.672C51.0835 75.608 51.1355 75.556 51.1995 75.516C51.2715 75.476 51.3475 75.456 51.4275 75.456C51.5555 75.456 51.6595 75.496 51.7395 75.576C51.8195 75.648 51.8675 75.74 51.8835 75.852C51.8995 75.964 51.8715 76.076 51.7995 76.188L46.3035 83.976C46.2635 84.032 46.2075 84.08 46.1355 84.12C46.0715 84.16 45.9995 84.18 45.9195 84.18ZM46.1955 79.536C45.8275 79.536 45.4875 79.444 45.1755 79.26C44.8635 79.068 44.6155 78.816 44.4315 78.504C44.2475 78.192 44.1555 77.852 44.1555 77.484C44.1555 77.108 44.2475 76.764 44.4315 76.452C44.6155 76.14 44.8635 75.892 45.1755 75.708C45.4875 75.524 45.8275 75.432 46.1955 75.432C46.5715 75.432 46.9155 75.524 47.2275 75.708C47.5395 75.892 47.7875 76.14 47.9715 76.452C48.1555 76.764 48.2475 77.108 48.2475 77.484C48.2475 77.852 48.1555 78.192 47.9715 78.504C47.7875 78.816 47.5395 79.068 47.2275 79.26C46.9155 79.444 46.5715 79.536 46.1955 79.536ZM46.1955 78.66C46.4195 78.66 46.6155 78.608 46.7835 78.504C46.9515 78.392 47.0835 78.248 47.1795 78.072C47.2755 77.896 47.3235 77.7 47.3235 77.484C47.3235 77.156 47.2195 76.88 47.0115 76.656C46.8035 76.432 46.5315 76.32 46.1955 76.32C45.9875 76.32 45.7955 76.372 45.6195 76.476C45.4515 76.58 45.3195 76.72 45.2235 76.896C45.1275 77.064 45.0795 77.26 45.0795 77.484C45.0795 77.7 45.1275 77.896 45.2235 78.072C45.3195 78.248 45.4515 78.392 45.6195 78.504C45.7955 78.608 45.9875 78.66 46.1955 78.66ZM51.2115 84.168C50.8435 84.168 50.5035 84.076 50.1915 83.892C49.8795 83.7 49.6315 83.448 49.4475 83.136C49.2635 82.816 49.1715 82.472 49.1715 82.104C49.1715 81.728 49.2635 81.384 49.4475 81.072C49.6315 80.76 49.8795 80.512 50.1915 80.328C50.5035 80.144 50.8435 80.052 51.2115 80.052C51.5875 80.052 51.9315 80.144 52.2435 80.328C52.5555 80.512 52.8035 80.76 52.9875 81.072C53.1715 81.384 53.2635 81.728 53.2635 82.104C53.2635 82.472 53.1715 82.816 52.9875 83.136C52.8035 83.448 52.5555 83.7 52.2435 83.892C51.9315 84.076 51.5875 84.168 51.2115 84.168ZM51.2115 83.268C51.4355 83.268 51.6315 83.216 51.7995 83.112C51.9675 83.008 52.0995 82.868 52.1955 82.692C52.2915 82.516 52.3395 82.32 52.3395 82.104C52.3395 81.776 52.2355 81.5 52.0275 81.276C51.8195 81.052 51.5475 80.94 51.2115 80.94C51.0035 80.94 50.8115 80.992 50.6355 81.096C50.4675 81.2 50.3355 81.34 50.2395 81.516C50.1435 81.684 50.0955 81.88 50.0955 82.104C50.0955 82.32 50.1435 82.516 50.2395 82.692C50.3355 82.868 50.4675 83.008 50.6355 83.112C50.8115 83.216 51.0035 83.268 51.2115 83.268Z" fill="white"/>
<path d="M67.78 85.21C67.1267 85.21 66.5573 85.0467 66.072 84.72C65.5867 84.384 65.2133 83.9267 64.952 83.348C64.6907 82.7693 64.56 82.116 64.56 81.388C64.56 80.6507 64.6907 79.9973 64.952 79.428C65.2227 78.8587 65.6007 78.4107 66.086 78.084C66.5713 77.748 67.1407 77.58 67.794 77.58C68.3353 77.58 68.7927 77.6827 69.166 77.888C69.5487 78.084 69.8427 78.3173 70.048 78.588C70.2533 78.8587 70.3653 79.1107 70.384 79.344C70.412 79.54 70.37 79.6893 70.258 79.792C70.1553 79.8947 70.0293 79.946 69.88 79.946C69.7307 79.946 69.6187 79.9087 69.544 79.834C69.4693 79.7593 69.4087 79.6753 69.362 79.582C69.2407 79.33 69.054 79.106 68.802 78.91C68.55 78.7047 68.2093 78.602 67.78 78.602C67.332 78.602 66.954 78.7233 66.646 78.966C66.338 79.1993 66.1 79.526 65.932 79.946C65.7733 80.366 65.694 80.842 65.694 81.374C65.694 82.2233 65.8807 82.9 66.254 83.404C66.6367 83.908 67.15 84.16 67.794 84.16C68.2887 84.16 68.6713 84.0293 68.942 83.768C69.222 83.5067 69.418 83.2127 69.53 82.886C69.5767 82.7553 69.642 82.648 69.726 82.564C69.81 82.48 69.922 82.438 70.062 82.438C70.2207 82.438 70.3467 82.494 70.44 82.606C70.5427 82.718 70.5847 82.872 70.566 83.068C70.5567 83.2453 70.4867 83.4553 70.356 83.698C70.2347 83.9407 70.0573 84.1787 69.824 84.412C69.6 84.6453 69.3153 84.8367 68.97 84.986C68.634 85.1353 68.2373 85.21 67.78 85.21ZM74.8907 85.21C74.2374 85.21 73.6634 85.0513 73.1687 84.734C72.6834 84.4073 72.3007 83.9547 72.0207 83.376C71.75 82.7973 71.6147 82.13 71.6147 81.374C71.6147 80.618 71.75 79.9553 72.0207 79.386C72.3007 78.8167 72.6834 78.3733 73.1687 78.056C73.6634 77.7387 74.2374 77.58 74.8907 77.58C75.5534 77.58 76.132 77.7387 76.6267 78.056C77.1307 78.3733 77.5227 78.8167 77.8027 79.386C78.0827 79.9553 78.2227 80.618 78.2227 81.374C78.2227 82.13 78.0827 82.7973 77.8027 83.376C77.5227 83.9547 77.1307 84.4073 76.6267 84.734C76.132 85.0513 75.5534 85.21 74.8907 85.21ZM74.8907 84.16C75.5814 84.16 76.118 83.9127 76.5007 83.418C76.8834 82.9233 77.0747 82.242 77.0747 81.374C77.0747 80.5247 76.8834 79.8527 76.5007 79.358C76.118 78.8633 75.5814 78.616 74.8907 78.616C74.2094 78.616 73.682 78.8633 73.3087 79.358C72.9354 79.8527 72.7487 80.5247 72.7487 81.374C72.7487 82.242 72.9354 82.9233 73.3087 83.418C73.682 83.9127 74.2094 84.16 74.8907 84.16ZM80.3193 85.14C80.1606 85.14 80.0253 85.084 79.9133 84.972C79.8106 84.86 79.7593 84.72 79.7593 84.552V78.224C79.7593 78.056 79.8106 77.9207 79.9133 77.818C80.0253 77.706 80.1606 77.65 80.3193 77.65C80.4873 77.65 80.6226 77.706 80.7253 77.818C80.8373 77.9207 80.8933 78.056 80.8933 78.224V79.078L80.6553 78.882C80.8513 78.574 81.0706 78.3267 81.3133 78.14C81.5653 77.944 81.836 77.804 82.1253 77.72C82.4146 77.6267 82.7086 77.58 83.0073 77.58C83.5486 77.58 84.0246 77.7107 84.4353 77.972C84.8553 78.2333 85.1633 78.6113 85.3593 79.106L84.9533 79.162C85.196 78.7513 85.462 78.434 85.7513 78.21C86.0406 77.9767 86.3346 77.8133 86.6333 77.72C86.9413 77.6267 87.2446 77.58 87.5433 77.58C88.038 77.58 88.4813 77.6873 88.8733 77.902C89.2653 78.1073 89.5733 78.4107 89.7973 78.812C90.0213 79.204 90.1333 79.68 90.1333 80.24V84.552C90.1333 84.72 90.082 84.86 89.9793 84.972C89.8766 85.084 89.746 85.14 89.5873 85.14C89.4193 85.14 89.2793 85.084 89.1673 84.972C89.0646 84.86 89.0133 84.72 89.0133 84.552V80.282C89.0133 79.7593 88.8593 79.3533 88.5513 79.064C88.2526 78.7747 87.856 78.63 87.3613 78.63C87.044 78.63 86.75 78.6953 86.4793 78.826C86.2086 78.9473 85.994 79.1293 85.8353 79.372C85.6766 79.6053 85.5973 79.8947 85.5973 80.24V84.552C85.5973 84.72 85.5413 84.86 85.4293 84.972C85.3266 85.084 85.196 85.14 85.0373 85.14C84.8693 85.14 84.7293 85.084 84.6173 84.972C84.5146 84.86 84.4633 84.72 84.4633 84.552V80.282C84.4633 79.7593 84.314 79.3533 84.0153 79.064C83.7166 78.7653 83.32 78.616 82.8253 78.616C82.4893 78.616 82.172 78.686 81.8733 78.826C81.584 78.9567 81.346 79.148 81.1593 79.4C80.982 79.6427 80.8933 79.932 80.8933 80.268V84.552C80.8933 84.72 80.8373 84.86 80.7253 84.972C80.6226 85.084 80.4873 85.14 80.3193 85.14ZM95.341 85.21C94.921 85.21 94.5616 85.1447 94.263 85.014C93.9736 84.8833 93.731 84.72 93.535 84.524C93.339 84.328 93.185 84.1367 93.073 83.95L93.157 83.894V87.366C93.157 87.5247 93.101 87.66 92.989 87.772C92.877 87.884 92.7416 87.94 92.583 87.94C92.4336 87.94 92.303 87.884 92.191 87.772C92.079 87.66 92.023 87.5247 92.023 87.366V78.252C92.023 78.0933 92.079 77.9533 92.191 77.832C92.303 77.7107 92.4336 77.65 92.583 77.65C92.7416 77.65 92.877 77.706 92.989 77.818C93.101 77.9207 93.157 78.0607 93.157 78.238L93.143 78.868L93.087 78.854C93.2456 78.5367 93.5256 78.2473 93.927 77.986C94.3283 77.7153 94.8183 77.58 95.397 77.58C95.8636 77.58 96.2836 77.678 96.657 77.874C97.0303 78.0607 97.3476 78.3267 97.609 78.672C97.8703 79.008 98.071 79.4093 98.211 79.876C98.351 80.3333 98.421 80.8327 98.421 81.374C98.421 81.9153 98.351 82.4193 98.211 82.886C98.0803 83.3433 97.8796 83.7493 97.609 84.104C97.3476 84.4493 97.0256 84.72 96.643 84.916C96.2696 85.112 95.8356 85.21 95.341 85.21ZM95.187 84.174C95.8403 84.174 96.3536 83.9267 96.727 83.432C97.1003 82.928 97.287 82.242 97.287 81.374C97.287 80.8047 97.203 80.3147 97.035 79.904C96.8763 79.4933 96.6383 79.176 96.321 78.952C96.013 78.728 95.6303 78.616 95.173 78.616C94.501 78.616 93.983 78.8587 93.619 79.344C93.255 79.8293 93.073 80.5013 93.073 81.36C93.073 82.228 93.2596 82.914 93.633 83.418C94.0063 83.922 94.5243 84.174 95.187 84.174ZM102.066 85.21C101.544 85.21 101.091 85.1167 100.708 84.93C100.335 84.734 100.046 84.4727 99.8403 84.146C99.6443 83.8193 99.5463 83.4553 99.5463 83.054C99.5463 82.4753 99.761 81.9807 100.19 81.57C100.629 81.15 101.329 80.884 102.29 80.772C102.692 80.7253 103.037 80.674 103.326 80.618C103.616 80.562 103.84 80.4687 103.998 80.338C104.166 80.2073 104.25 80.016 104.25 79.764C104.25 79.568 104.199 79.386 104.096 79.218C104.003 79.0407 103.844 78.896 103.62 78.784C103.406 78.672 103.116 78.616 102.752 78.616C102.267 78.616 101.903 78.714 101.66 78.91C101.418 79.0967 101.25 79.2833 101.156 79.47C101.091 79.5913 101.012 79.6847 100.918 79.75C100.825 79.8153 100.713 79.848 100.582 79.848C100.424 79.848 100.302 79.8013 100.218 79.708C100.134 79.6053 100.092 79.4793 100.092 79.33C100.092 79.1527 100.153 78.966 100.274 78.77C100.396 78.5647 100.573 78.3733 100.806 78.196C101.049 78.0093 101.338 77.86 101.674 77.748C102.02 77.636 102.412 77.58 102.85 77.58C103.485 77.58 103.984 77.7013 104.348 77.944C104.722 78.1773 104.988 78.4993 105.146 78.91C105.305 79.3113 105.384 79.7593 105.384 80.254V83.74C105.384 83.8333 105.394 83.9033 105.412 83.95C105.44 83.9967 105.487 84.0247 105.552 84.034C105.683 84.0433 105.795 84.0993 105.888 84.202C105.982 84.2953 106.028 84.4167 106.028 84.566C106.028 84.7247 105.963 84.86 105.832 84.972C105.711 85.084 105.538 85.14 105.314 85.14C105.034 85.14 104.815 85.0607 104.656 84.902C104.507 84.734 104.432 84.5287 104.432 84.286V84.048H104.39C104.157 84.3933 103.849 84.6733 103.466 84.888C103.093 85.1027 102.626 85.21 102.066 85.21ZM102.08 84.174C102.5 84.174 102.874 84.0853 103.2 83.908C103.536 83.7307 103.798 83.4927 103.984 83.194C104.18 82.8953 104.278 82.564 104.278 82.2V81.248C104.278 81.2293 104.269 81.22 104.25 81.22C104.241 81.2107 104.222 81.2247 104.194 81.262C104.054 81.374 103.863 81.4627 103.62 81.528C103.387 81.584 103.149 81.6307 102.906 81.668C102.664 81.7053 102.463 81.738 102.304 81.766C101.819 81.8407 101.422 81.9713 101.114 82.158C100.816 82.3447 100.666 82.6247 100.666 82.998C100.666 83.278 100.774 83.544 100.988 83.796C101.203 84.048 101.567 84.174 102.08 84.174ZM107.95 85.14C107.791 85.14 107.656 85.084 107.544 84.972C107.441 84.8507 107.39 84.7107 107.39 84.552V78.224C107.39 78.0653 107.441 77.93 107.544 77.818C107.656 77.706 107.791 77.65 107.95 77.65C108.109 77.65 108.244 77.706 108.356 77.818C108.468 77.93 108.524 78.0653 108.524 78.224V79.176L108.384 78.896C108.477 78.7 108.617 78.4993 108.804 78.294C109 78.0887 109.233 77.9207 109.504 77.79C109.784 77.65 110.106 77.58 110.47 77.58C110.666 77.58 110.82 77.6313 110.932 77.734C111.053 77.8367 111.114 77.9673 111.114 78.126C111.114 78.2847 111.058 78.42 110.946 78.532C110.834 78.644 110.694 78.7 110.526 78.7C110.134 78.7 109.789 78.784 109.49 78.952C109.191 79.1107 108.953 79.3207 108.776 79.582C108.608 79.834 108.524 80.1 108.524 80.38V84.552C108.524 84.7107 108.468 84.8507 108.356 84.972C108.244 85.084 108.109 85.14 107.95 85.14ZM114.897 85.21C114.281 85.21 113.716 85.07 113.203 84.79C112.699 84.51 112.293 84.09 111.985 83.53C111.686 82.97 111.537 82.2793 111.537 81.458C111.537 80.674 111.677 79.9927 111.957 79.414C112.237 78.8353 112.615 78.3873 113.091 78.07C113.576 77.7433 114.127 77.58 114.743 77.58C115.219 77.58 115.648 77.6733 116.031 77.86C116.413 78.0373 116.735 78.2847 116.997 78.602C117.267 78.91 117.473 79.26 117.613 79.652C117.762 80.0347 117.837 80.436 117.837 80.856C117.837 81.1267 117.785 81.346 117.683 81.514C117.58 81.6727 117.37 81.752 117.053 81.752H112.685C112.722 82.3213 112.843 82.7833 113.049 83.138C113.254 83.4927 113.511 83.754 113.819 83.922C114.136 84.0807 114.481 84.16 114.855 84.16C115.359 84.16 115.76 84.0433 116.059 83.81C116.357 83.5767 116.563 83.3013 116.675 82.984C116.721 82.872 116.782 82.7787 116.857 82.704C116.941 82.62 117.053 82.578 117.193 82.578C117.351 82.578 117.477 82.6387 117.571 82.76C117.664 82.872 117.706 83.0213 117.697 83.208C117.687 83.3947 117.622 83.6047 117.501 83.838C117.379 84.062 117.202 84.2813 116.969 84.496C116.745 84.7013 116.46 84.8693 116.115 85C115.769 85.14 115.363 85.21 114.897 85.21ZM112.699 80.786H116.759C116.693 80.1513 116.488 79.6333 116.143 79.232C115.797 78.8213 115.326 78.616 114.729 78.616C114.197 78.616 113.744 78.798 113.371 79.162C113.007 79.526 112.783 80.0673 112.699 80.786ZM122.012 85.21C121.34 85.21 120.776 85.0327 120.318 84.678C119.87 84.3233 119.53 83.8567 119.296 83.278C119.072 82.6993 118.96 82.0787 118.96 81.416C118.96 80.716 119.082 80.0767 119.324 79.498C119.567 78.9193 119.922 78.4573 120.388 78.112C120.864 77.7573 121.438 77.58 122.11 77.58C122.502 77.58 122.843 77.6407 123.132 77.762C123.431 77.874 123.683 78.0233 123.888 78.21C124.094 78.3873 124.252 78.5787 124.364 78.784L124.252 78.812V75.354C124.252 75.1953 124.304 75.06 124.406 74.948C124.518 74.836 124.654 74.78 124.812 74.78C124.971 74.78 125.102 74.836 125.204 74.948C125.316 75.06 125.372 75.1953 125.372 75.354V84.524C125.372 84.692 125.316 84.8367 125.204 84.958C125.102 85.07 124.971 85.126 124.812 85.126C124.654 85.126 124.518 85.07 124.406 84.958C124.304 84.8367 124.252 84.692 124.252 84.524V83.866L124.35 83.88C124.248 84.1133 124.084 84.3327 123.86 84.538C123.646 84.734 123.38 84.8927 123.062 85.014C122.754 85.1447 122.404 85.21 122.012 85.21ZM122.236 84.16C122.899 84.1413 123.408 83.8847 123.762 83.39C124.126 82.8953 124.308 82.2373 124.308 81.416C124.308 80.5573 124.122 79.876 123.748 79.372C123.384 78.868 122.866 78.616 122.194 78.616C121.541 78.616 121.023 78.868 120.64 79.372C120.267 79.8667 120.08 80.5433 120.08 81.402C120.08 82.2607 120.267 82.9373 120.64 83.432C121.023 83.9267 121.555 84.1693 122.236 84.16ZM133.153 85.14C132.836 85.14 132.56 85.07 132.327 84.93C132.103 84.7807 131.93 84.5753 131.809 84.314C131.688 84.0433 131.627 83.7353 131.627 83.39V76.81C131.627 76.6513 131.678 76.5207 131.781 76.418C131.893 76.306 132.028 76.25 132.187 76.25C132.346 76.25 132.476 76.306 132.579 76.418C132.691 76.5207 132.747 76.6513 132.747 76.81V83.376C132.747 83.5533 132.775 83.7073 132.831 83.838C132.887 83.9593 133.004 84.02 133.181 84.02C133.302 84.02 133.391 83.992 133.447 83.936C133.512 83.88 133.578 83.8287 133.643 83.782C133.708 83.726 133.802 83.698 133.923 83.698C134.091 83.698 134.226 83.754 134.329 83.866C134.432 83.9687 134.483 84.0993 134.483 84.258C134.483 84.426 134.418 84.58 134.287 84.72C134.166 84.8507 134.002 84.9533 133.797 85.028C133.601 85.1027 133.386 85.14 133.153 85.14ZM131.179 78.812C131.03 78.812 130.899 78.7653 130.787 78.672C130.684 78.5693 130.633 78.4433 130.633 78.294C130.633 78.154 130.684 78.0373 130.787 77.944C130.899 77.8413 131.03 77.79 131.179 77.79H134.133C134.282 77.79 134.408 77.8413 134.511 77.944C134.623 78.0373 134.679 78.154 134.679 78.294C134.679 78.4433 134.623 78.5693 134.511 78.672C134.408 78.7653 134.282 78.812 134.133 78.812H131.179ZM139.08 85.21C138.427 85.21 137.853 85.0513 137.358 84.734C136.873 84.4073 136.49 83.9547 136.21 83.376C135.939 82.7973 135.804 82.13 135.804 81.374C135.804 80.618 135.939 79.9553 136.21 79.386C136.49 78.8167 136.873 78.3733 137.358 78.056C137.853 77.7387 138.427 77.58 139.08 77.58C139.743 77.58 140.321 77.7387 140.816 78.056C141.32 78.3733 141.712 78.8167 141.992 79.386C142.272 79.9553 142.412 80.618 142.412 81.374C142.412 82.13 142.272 82.7973 141.992 83.376C141.712 83.9547 141.32 84.4073 140.816 84.734C140.321 85.0513 139.743 85.21 139.08 85.21ZM139.08 84.16C139.771 84.16 140.307 83.9127 140.69 83.418C141.073 82.9233 141.264 82.242 141.264 81.374C141.264 80.5247 141.073 79.8527 140.69 79.358C140.307 78.8633 139.771 78.616 139.08 78.616C138.399 78.616 137.871 78.8633 137.498 79.358C137.125 79.8527 136.938 80.5247 136.938 81.374C136.938 82.242 137.125 82.9233 137.498 83.418C137.871 83.9127 138.399 84.16 139.08 84.16ZM148.364 85.14C148.206 85.14 148.07 85.084 147.958 84.972C147.856 84.8507 147.804 84.7107 147.804 84.552V75.354C147.804 75.1953 147.856 75.06 147.958 74.948C148.07 74.836 148.206 74.78 148.364 74.78C148.523 74.78 148.658 74.836 148.77 74.948C148.882 75.06 148.938 75.1953 148.938 75.354V84.552C148.938 84.7107 148.882 84.8507 148.77 84.972C148.658 85.084 148.523 85.14 148.364 85.14ZM152.994 85.21C152.471 85.21 152.019 85.1167 151.636 84.93C151.263 84.734 150.973 84.4727 150.768 84.146C150.572 83.8193 150.474 83.4553 150.474 83.054C150.474 82.4753 150.689 81.9807 151.118 81.57C151.557 81.15 152.257 80.884 153.218 80.772C153.619 80.7253 153.965 80.674 154.254 80.618C154.543 80.562 154.767 80.4687 154.926 80.338C155.094 80.2073 155.178 80.016 155.178 79.764C155.178 79.568 155.127 79.386 155.024 79.218C154.931 79.0407 154.772 78.896 154.548 78.784C154.333 78.672 154.044 78.616 153.68 78.616C153.195 78.616 152.831 78.714 152.588 78.91C152.345 79.0967 152.177 79.2833 152.084 79.47C152.019 79.5913 151.939 79.6847 151.846 79.75C151.753 79.8153 151.641 79.848 151.51 79.848C151.351 79.848 151.23 79.8013 151.146 79.708C151.062 79.6053 151.02 79.4793 151.02 79.33C151.02 79.1527 151.081 78.966 151.202 78.77C151.323 78.5647 151.501 78.3733 151.734 78.196C151.977 78.0093 152.266 77.86 152.602 77.748C152.947 77.636 153.339 77.58 153.778 77.58C154.413 77.58 154.912 77.7013 155.276 77.944C155.649 78.1773 155.915 78.4993 156.074 78.91C156.233 79.3113 156.312 79.7593 156.312 80.254V83.74C156.312 83.8333 156.321 83.9033 156.34 83.95C156.368 83.9967 156.415 84.0247 156.48 84.034C156.611 84.0433 156.723 84.0993 156.816 84.202C156.909 84.2953 156.956 84.4167 156.956 84.566C156.956 84.7247 156.891 84.86 156.76 84.972C156.639 85.084 156.466 85.14 156.242 85.14C155.962 85.14 155.743 85.0607 155.584 84.902C155.435 84.734 155.36 84.5287 155.36 84.286V84.048H155.318C155.085 84.3933 154.777 84.6733 154.394 84.888C154.021 85.1027 153.554 85.21 152.994 85.21ZM153.008 84.174C153.428 84.174 153.801 84.0853 154.128 83.908C154.464 83.7307 154.725 83.4927 154.912 83.194C155.108 82.8953 155.206 82.564 155.206 82.2V81.248C155.206 81.2293 155.197 81.22 155.178 81.22C155.169 81.2107 155.15 81.2247 155.122 81.262C154.982 81.374 154.791 81.4627 154.548 81.528C154.315 81.584 154.077 81.6307 153.834 81.668C153.591 81.7053 153.391 81.738 153.232 81.766C152.747 81.8407 152.35 81.9713 152.042 82.158C151.743 82.3447 151.594 82.6247 151.594 82.998C151.594 83.278 151.701 83.544 151.916 83.796C152.131 84.048 152.495 84.174 153.008 84.174ZM160.782 85.252C160.147 85.252 159.62 85.14 159.2 84.916C158.78 84.6827 158.463 84.412 158.248 84.104C158.033 83.7867 157.917 83.502 157.898 83.25C157.889 83.054 157.931 82.9047 158.024 82.802C158.127 82.69 158.253 82.634 158.402 82.634C158.542 82.634 158.654 82.676 158.738 82.76C158.822 82.8347 158.883 82.9233 158.92 83.026C159.032 83.3433 159.237 83.6233 159.536 83.866C159.835 84.0993 160.255 84.216 160.796 84.216C161.291 84.216 161.669 84.1133 161.93 83.908C162.191 83.6933 162.322 83.418 162.322 83.082C162.322 82.8207 162.243 82.6153 162.084 82.466C161.935 82.3073 161.725 82.1813 161.454 82.088C161.183 81.9947 160.871 81.9013 160.516 81.808C160.255 81.7333 159.984 81.654 159.704 81.57C159.424 81.4767 159.163 81.3553 158.92 81.206C158.677 81.0567 158.481 80.8653 158.332 80.632C158.183 80.3987 158.108 80.1047 158.108 79.75C158.108 79.358 158.211 78.9987 158.416 78.672C158.621 78.336 158.92 78.07 159.312 77.874C159.704 77.6687 160.171 77.566 160.712 77.566C161.263 77.566 161.725 77.6593 162.098 77.846C162.471 78.0327 162.756 78.2613 162.952 78.532C163.157 78.7933 163.265 79.0453 163.274 79.288C163.283 79.4653 163.246 79.6053 163.162 79.708C163.078 79.8107 162.957 79.862 162.798 79.862C162.695 79.862 162.593 79.834 162.49 79.778C162.387 79.722 162.299 79.6333 162.224 79.512C162.159 79.3813 162.07 79.246 161.958 79.106C161.855 78.9567 161.706 78.8353 161.51 78.742C161.314 78.6393 161.043 78.588 160.698 78.588C160.259 78.588 159.9 78.686 159.62 78.882C159.34 79.0687 159.2 79.3253 159.2 79.652C159.2 79.904 159.279 80.1 159.438 80.24C159.606 80.38 159.821 80.492 160.082 80.576C160.353 80.66 160.647 80.7487 160.964 80.842C161.263 80.926 161.557 81.0193 161.846 81.122C162.135 81.2153 162.397 81.3413 162.63 81.5C162.873 81.6493 163.064 81.8407 163.204 82.074C163.353 82.3073 163.428 82.5967 163.428 82.942C163.428 83.2873 163.339 83.642 163.162 84.006C162.994 84.3607 162.714 84.6593 162.322 84.902C161.939 85.1353 161.426 85.252 160.782 85.252ZM166.922 85.14C166.605 85.14 166.33 85.07 166.096 84.93C165.872 84.7807 165.7 84.5753 165.578 84.314C165.457 84.0433 165.396 83.7353 165.396 83.39V76.81C165.396 76.6513 165.448 76.5207 165.55 76.418C165.662 76.306 165.798 76.25 165.956 76.25C166.115 76.25 166.246 76.306 166.348 76.418C166.46 76.5207 166.516 76.6513 166.516 76.81V83.376C166.516 83.5533 166.544 83.7073 166.6 83.838C166.656 83.9593 166.773 84.02 166.95 84.02C167.072 84.02 167.16 83.992 167.216 83.936C167.282 83.88 167.347 83.8287 167.412 83.782C167.478 83.726 167.571 83.698 167.692 83.698C167.86 83.698 167.996 83.754 168.098 83.866C168.201 83.9687 168.252 84.0993 168.252 84.258C168.252 84.426 168.187 84.58 168.056 84.72C167.935 84.8507 167.772 84.9533 167.566 85.028C167.37 85.1027 167.156 85.14 166.922 85.14ZM164.948 78.812C164.799 78.812 164.668 78.7653 164.556 78.672C164.454 78.5693 164.402 78.4433 164.402 78.294C164.402 78.154 164.454 78.0373 164.556 77.944C164.668 77.8413 164.799 77.79 164.948 77.79H167.902C168.052 77.79 168.178 77.8413 168.28 77.944C168.392 78.0373 168.448 78.154 168.448 78.294C168.448 78.4433 168.392 78.5693 168.28 78.672C168.178 78.7653 168.052 78.812 167.902 78.812H164.948ZM174.409 85.14C174.25 85.14 174.115 85.084 174.003 84.972C173.9 84.86 173.849 84.72 173.849 84.552V78.224C173.849 78.056 173.9 77.9207 174.003 77.818C174.115 77.706 174.25 77.65 174.409 77.65C174.577 77.65 174.712 77.706 174.815 77.818C174.927 77.9207 174.983 78.056 174.983 78.224V79.078L174.745 78.882C174.941 78.574 175.16 78.3267 175.403 78.14C175.655 77.944 175.926 77.804 176.215 77.72C176.504 77.6267 176.798 77.58 177.097 77.58C177.638 77.58 178.114 77.7107 178.525 77.972C178.945 78.2333 179.253 78.6113 179.449 79.106L179.043 79.162C179.286 78.7513 179.552 78.434 179.841 78.21C180.13 77.9767 180.424 77.8133 180.723 77.72C181.031 77.6267 181.334 77.58 181.633 77.58C182.128 77.58 182.571 77.6873 182.963 77.902C183.355 78.1073 183.663 78.4107 183.887 78.812C184.111 79.204 184.223 79.68 184.223 80.24V84.552C184.223 84.72 184.172 84.86 184.069 84.972C183.966 85.084 183.836 85.14 183.677 85.14C183.509 85.14 183.369 85.084 183.257 84.972C183.154 84.86 183.103 84.72 183.103 84.552V80.282C183.103 79.7593 182.949 79.3533 182.641 79.064C182.342 78.7747 181.946 78.63 181.451 78.63C181.134 78.63 180.84 78.6953 180.569 78.826C180.298 78.9473 180.084 79.1293 179.925 79.372C179.766 79.6053 179.687 79.8947 179.687 80.24V84.552C179.687 84.72 179.631 84.86 179.519 84.972C179.416 85.084 179.286 85.14 179.127 85.14C178.959 85.14 178.819 85.084 178.707 84.972C178.604 84.86 178.553 84.72 178.553 84.552V80.282C178.553 79.7593 178.404 79.3533 178.105 79.064C177.806 78.7653 177.41 78.616 176.915 78.616C176.579 78.616 176.262 78.686 175.963 78.826C175.674 78.9567 175.436 79.148 175.249 79.4C175.072 79.6427 174.983 79.932 174.983 80.268V84.552C174.983 84.72 174.927 84.86 174.815 84.972C174.712 85.084 174.577 85.14 174.409 85.14ZM188.969 85.21C188.315 85.21 187.741 85.0513 187.247 84.734C186.761 84.4073 186.379 83.9547 186.099 83.376C185.828 82.7973 185.693 82.13 185.693 81.374C185.693 80.618 185.828 79.9553 186.099 79.386C186.379 78.8167 186.761 78.3733 187.247 78.056C187.741 77.7387 188.315 77.58 188.969 77.58C189.631 77.58 190.21 77.7387 190.705 78.056C191.209 78.3733 191.601 78.8167 191.881 79.386C192.161 79.9553 192.301 80.618 192.301 81.374C192.301 82.13 192.161 82.7973 191.881 83.376C191.601 83.9547 191.209 84.4073 190.705 84.734C190.21 85.0513 189.631 85.21 188.969 85.21ZM188.969 84.16C189.659 84.16 190.196 83.9127 190.579 83.418C190.961 82.9233 191.153 82.242 191.153 81.374C191.153 80.5247 190.961 79.8527 190.579 79.358C190.196 78.8633 189.659 78.616 188.969 78.616C188.287 78.616 187.76 78.8633 187.387 79.358C187.013 79.8527 186.827 80.5247 186.827 81.374C186.827 82.242 187.013 82.9233 187.387 83.418C187.76 83.9127 188.287 84.16 188.969 84.16ZM194.397 85.14C194.239 85.14 194.103 85.084 193.991 84.972C193.889 84.86 193.837 84.72 193.837 84.552V78.224C193.837 78.056 193.889 77.9207 193.991 77.818C194.103 77.706 194.239 77.65 194.397 77.65C194.565 77.65 194.701 77.706 194.803 77.818C194.915 77.9207 194.971 78.056 194.971 78.224V79.162L194.733 78.91C195.032 78.4527 195.387 78.1167 195.797 77.902C196.217 77.6873 196.665 77.58 197.141 77.58C197.645 77.58 198.098 77.6873 198.499 77.902C198.901 78.1073 199.213 78.4107 199.437 78.812C199.671 79.204 199.787 79.6893 199.787 80.268V84.552C199.787 84.72 199.736 84.86 199.633 84.972C199.531 85.084 199.395 85.14 199.227 85.14C199.05 85.14 198.91 85.084 198.807 84.972C198.705 84.86 198.653 84.72 198.653 84.552V80.31C198.653 79.778 198.495 79.3627 198.177 79.064C197.869 78.7653 197.459 78.616 196.945 78.616C196.6 78.616 196.278 78.686 195.979 78.826C195.681 78.966 195.438 79.1667 195.251 79.428C195.065 79.68 194.971 79.9833 194.971 80.338V84.552C194.971 84.72 194.915 84.86 194.803 84.972C194.701 85.084 194.565 85.14 194.397 85.14ZM203.631 85.14C203.314 85.14 203.039 85.07 202.805 84.93C202.581 84.7807 202.409 84.5753 202.287 84.314C202.166 84.0433 202.105 83.7353 202.105 83.39V76.81C202.105 76.6513 202.157 76.5207 202.259 76.418C202.371 76.306 202.507 76.25 202.665 76.25C202.824 76.25 202.955 76.306 203.057 76.418C203.169 76.5207 203.225 76.6513 203.225 76.81V83.376C203.225 83.5533 203.253 83.7073 203.309 83.838C203.365 83.9593 203.482 84.02 203.659 84.02C203.781 84.02 203.869 83.992 203.925 83.936C203.991 83.88 204.056 83.8287 204.121 83.782C204.187 83.726 204.28 83.698 204.401 83.698C204.569 83.698 204.705 83.754 204.807 83.866C204.91 83.9687 204.961 84.0993 204.961 84.258C204.961 84.426 204.896 84.58 204.765 84.72C204.644 84.8507 204.481 84.9533 204.275 85.028C204.079 85.1027 203.865 85.14 203.631 85.14ZM201.657 78.812C201.508 78.812 201.377 78.7653 201.265 78.672C201.163 78.5693 201.111 78.4433 201.111 78.294C201.111 78.154 201.163 78.0373 201.265 77.944C201.377 77.8413 201.508 77.79 201.657 77.79H204.611C204.761 77.79 204.887 77.8413 204.989 77.944C205.101 78.0373 205.157 78.154 205.157 78.294C205.157 78.4433 205.101 78.5693 204.989 78.672C204.887 78.7653 204.761 78.812 204.611 78.812H201.657ZM207.263 85.14C207.104 85.14 206.969 85.084 206.857 84.972C206.754 84.86 206.703 84.72 206.703 84.552V75.354C206.703 75.186 206.754 75.0507 206.857 74.948C206.969 74.836 207.104 74.78 207.263 74.78C207.431 74.78 207.566 74.836 207.669 74.948C207.781 75.0507 207.837 75.186 207.837 75.354V79.162L207.599 78.91C207.897 78.4527 208.247 78.1167 208.649 77.902C209.059 77.6873 209.503 77.58 209.979 77.58C210.473 77.58 210.917 77.6873 211.309 77.902C211.71 78.1073 212.023 78.4107 212.247 78.812C212.48 79.204 212.597 79.6893 212.597 80.268V84.552C212.597 84.72 212.545 84.86 212.443 84.972C212.34 85.084 212.205 85.14 212.037 85.14C211.878 85.14 211.743 85.084 211.631 84.972C211.528 84.86 211.477 84.72 211.477 84.552V80.31C211.477 79.778 211.323 79.3627 211.015 79.064C210.707 78.7653 210.305 78.616 209.811 78.616C209.465 78.616 209.139 78.686 208.831 78.826C208.532 78.966 208.289 79.1667 208.103 79.428C207.925 79.68 207.837 79.9833 207.837 80.338V84.552C207.837 84.72 207.781 84.86 207.669 84.972C207.566 85.084 207.431 85.14 207.263 85.14Z" fill="#2E2C28"/>
</g>
<defs>
<filter id="filter0_d_6004_17007" x="0" y="0" width="233" height="113" filterUnits="userSpaceOnUse" color-interpolation-filters="sRGB">
<feFlood flood-opacity="0" result="BackgroundImageFix"/>
<feColorMatrix in="SourceAlpha" type="matrix" values="0 0 0 0 0 0 0 0 0 0 0 0 0 0 0 0 0 0 127 0" result="hardAlpha"/>
<feOffset dy="4"/>
<feGaussianBlur stdDeviation="2"/>
<feComposite in2="hardAlpha" operator="out"/>
<feColorMatrix type="matrix" values="0 0 0 0 0 0 0 0 0 0 0 0 0 0 0 0 0 0 0.15 0"/>
<feBlend mode="normal" in2="BackgroundImageFix" result="effect1_dropShadow_6004_17007"/>
<feBlend mode="normal" in="SourceGraphic" in2="effect1_dropShadow_6004_17007" result="shape"/>
</filter>
<clipPath id="clip0_6004_17007">
<rect width="9" height="9" fill="white" transform="translate(24 75.5)"/>
</clipPath>
</defs>
</svg>
