<svg width="233" height="113" viewBox="0 0 233 113" fill="none" xmlns="http://www.w3.org/2000/svg">
<g filter="url(#filter0_d_6004_17008)">
<rect x="4" width="225" height="105" rx="16" fill="#E0F6EB" shape-rendering="crispEdges"/>
<rect x="4.5" y="0.5" width="224" height="104" rx="15.5" stroke="#BED9CB" shape-rendering="crispEdges"/>
<path d="M19.756 21.278C19.6067 21.278 19.476 21.2267 19.364 21.124C19.2613 21.0213 19.21 20.8907 19.21 20.732C19.21 20.5733 19.2613 20.4473 19.364 20.354C19.476 20.2513 19.6067 20.2 19.756 20.2H25.762C25.9207 20.2 26.0513 20.2513 26.154 20.354C26.2567 20.4473 26.308 20.5733 26.308 20.732C26.308 20.8907 26.2567 21.0213 26.154 21.124C26.0513 21.2267 25.9207 21.278 25.762 21.278H19.756ZM22.752 30.14C22.5933 30.14 22.458 30.084 22.346 29.972C22.2433 29.86 22.192 29.7247 22.192 29.566V20.802H23.34V29.566C23.34 29.7247 23.284 29.86 23.172 29.972C23.0693 30.084 22.9293 30.14 22.752 30.14ZM29.084 30.21C28.4307 30.21 27.8567 30.0513 27.362 29.734C26.8767 29.4073 26.494 28.9547 26.214 28.376C25.9434 27.7973 25.808 27.13 25.808 26.374C25.808 25.618 25.9434 24.9553 26.214 24.386C26.494 23.8167 26.8767 23.3733 27.362 23.056C27.8567 22.7387 28.4307 22.58 29.084 22.58C29.7467 22.58 30.3254 22.7387 30.82 23.056C31.324 23.3733 31.716 23.8167 31.996 24.386C32.276 24.9553 32.416 25.618 32.416 26.374C32.416 27.13 32.276 27.7973 31.996 28.376C31.716 28.9547 31.324 29.4073 30.82 29.734C30.3254 30.0513 29.7467 30.21 29.084 30.21ZM29.084 29.16C29.7747 29.16 30.3114 28.9127 30.694 28.418C31.0767 27.9233 31.268 27.242 31.268 26.374C31.268 25.5247 31.0767 24.8527 30.694 24.358C30.3114 23.8633 29.7747 23.616 29.084 23.616C28.4027 23.616 27.8754 23.8633 27.502 24.358C27.1287 24.8527 26.942 25.5247 26.942 26.374C26.942 27.242 27.1287 27.9233 27.502 28.418C27.8754 28.9127 28.4027 29.16 29.084 29.16ZM35.9127 30.14C35.5953 30.14 35.32 30.07 35.0867 29.93C34.8627 29.7807 34.69 29.5753 34.5687 29.314C34.4473 29.0433 34.3867 28.7353 34.3867 28.39V21.81C34.3867 21.6513 34.438 21.5207 34.5407 21.418C34.6527 21.306 34.788 21.25 34.9467 21.25C35.1053 21.25 35.236 21.306 35.3387 21.418C35.4507 21.5207 35.5067 21.6513 35.5067 21.81V28.376C35.5067 28.5533 35.5347 28.7073 35.5907 28.838C35.6467 28.9593 35.7633 29.02 35.9407 29.02C36.062 29.02 36.1507 28.992 36.2067 28.936C36.272 28.88 36.3373 28.8287 36.4027 28.782C36.468 28.726 36.5613 28.698 36.6827 28.698C36.8507 28.698 36.986 28.754 37.0887 28.866C37.1913 28.9687 37.2427 29.0993 37.2427 29.258C37.2427 29.426 37.1773 29.58 37.0467 29.72C36.9253 29.8507 36.762 29.9533 36.5567 30.028C36.3607 30.1027 36.146 30.14 35.9127 30.14ZM33.9387 23.812C33.7893 23.812 33.6587 23.7653 33.5467 23.672C33.444 23.5693 33.3927 23.4433 33.3927 23.294C33.3927 23.154 33.444 23.0373 33.5467 22.944C33.6587 22.8413 33.7893 22.79 33.9387 22.79H36.8927C37.042 22.79 37.168 22.8413 37.2707 22.944C37.3827 23.0373 37.4387 23.154 37.4387 23.294C37.4387 23.4433 37.3827 23.5693 37.2707 23.672C37.168 23.7653 37.042 23.812 36.8927 23.812H33.9387ZM41.0839 30.21C40.5612 30.21 40.1086 30.1167 39.7259 29.93C39.3526 29.734 39.0632 29.4727 38.8579 29.146C38.6619 28.8193 38.5639 28.4553 38.5639 28.054C38.5639 27.4753 38.7786 26.9807 39.2079 26.57C39.6466 26.15 40.3466 25.884 41.3079 25.772C41.7092 25.7253 42.0546 25.674 42.3439 25.618C42.6332 25.562 42.8572 25.4687 43.0159 25.338C43.1839 25.2073 43.2679 25.016 43.2679 24.764C43.2679 24.568 43.2166 24.386 43.1139 24.218C43.0206 24.0407 42.8619 23.896 42.6379 23.784C42.4232 23.672 42.1339 23.616 41.7699 23.616C41.2846 23.616 40.9206 23.714 40.6779 23.91C40.4352 24.0967 40.2672 24.2833 40.1739 24.47C40.1086 24.5913 40.0292 24.6847 39.9359 24.75C39.8426 24.8153 39.7306 24.848 39.5999 24.848C39.4412 24.848 39.3199 24.8013 39.2359 24.708C39.1519 24.6053 39.1099 24.4793 39.1099 24.33C39.1099 24.1527 39.1706 23.966 39.2919 23.77C39.4132 23.5647 39.5906 23.3733 39.8239 23.196C40.0666 23.0093 40.3559 22.86 40.6919 22.748C41.0372 22.636 41.4292 22.58 41.8679 22.58C42.5026 22.58 43.0019 22.7013 43.3659 22.944C43.7392 23.1773 44.0052 23.4993 44.1639 23.91C44.3226 24.3113 44.4019 24.7593 44.4019 25.254V28.74C44.4019 28.8333 44.4112 28.9033 44.4299 28.95C44.4579 28.9967 44.5046 29.0247 44.5699 29.034C44.7006 29.0433 44.8126 29.0993 44.9059 29.202C44.9992 29.2953 45.0459 29.4167 45.0459 29.566C45.0459 29.7247 44.9806 29.86 44.8499 29.972C44.7286 30.084 44.5559 30.14 44.3319 30.14C44.0519 30.14 43.8326 30.0607 43.6739 29.902C43.5246 29.734 43.4499 29.5287 43.4499 29.286V29.048H43.4079C43.1746 29.3933 42.8666 29.6733 42.4839 29.888C42.1106 30.1027 41.6439 30.21 41.0839 30.21ZM41.0979 29.174C41.5179 29.174 41.8912 29.0853 42.2179 28.908C42.5539 28.7307 42.8152 28.4927 43.0019 28.194C43.1979 27.8953 43.2959 27.564 43.2959 27.2V26.248C43.2959 26.2293 43.2866 26.22 43.2679 26.22C43.2586 26.2107 43.2399 26.2247 43.2119 26.262C43.0719 26.374 42.8806 26.4627 42.6379 26.528C42.4046 26.584 42.1666 26.6307 41.9239 26.668C41.6812 26.7053 41.4806 26.738 41.3219 26.766C40.8366 26.8407 40.4399 26.9713 40.1319 27.158C39.8332 27.3447 39.6839 27.6247 39.6839 27.998C39.6839 28.278 39.7912 28.544 40.0059 28.796C40.2206 29.048 40.5846 29.174 41.0979 29.174ZM46.9677 30.14C46.8091 30.14 46.6737 30.084 46.5617 29.972C46.4591 29.8507 46.4077 29.7107 46.4077 29.552V20.354C46.4077 20.1953 46.4591 20.06 46.5617 19.948C46.6737 19.836 46.8091 19.78 46.9677 19.78C47.1264 19.78 47.2617 19.836 47.3737 19.948C47.4857 20.06 47.5417 20.1953 47.5417 20.354V29.552C47.5417 29.7107 47.4857 29.8507 47.3737 29.972C47.2617 30.084 47.1264 30.14 46.9677 30.14ZM54.067 30.14C53.9084 30.14 53.773 30.084 53.661 29.972C53.549 29.86 53.493 29.7247 53.493 29.566V20.774C53.493 20.6153 53.549 20.48 53.661 20.368C53.773 20.256 53.9084 20.2 54.067 20.2H54.641V29.566C54.641 29.7247 54.585 29.86 54.473 29.972C54.3704 30.084 54.235 30.14 54.067 30.14ZM54.165 25.968V24.904H57.273C57.637 24.904 57.9497 24.8293 58.211 24.68C58.4817 24.5213 58.687 24.3067 58.827 24.036C58.9764 23.756 59.051 23.4387 59.051 23.084C59.051 22.7293 58.9764 22.4167 58.827 22.146C58.687 21.8753 58.4817 21.6653 58.211 21.516C57.9497 21.3573 57.6417 21.278 57.287 21.278H54.165V20.2H57.315C57.8657 20.2 58.3604 20.326 58.799 20.578C59.2377 20.83 59.583 21.1707 59.835 21.6C60.087 22.0293 60.213 22.5193 60.213 23.07C60.213 23.63 60.087 24.1293 59.835 24.568C59.5924 24.9973 59.261 25.338 58.841 25.59C58.4304 25.842 57.9684 25.968 57.455 25.968H54.165ZM61.8974 30.14C61.7388 30.14 61.6034 30.084 61.4914 29.972C61.3888 29.8507 61.3374 29.7107 61.3374 29.552V23.224C61.3374 23.0653 61.3888 22.93 61.4914 22.818C61.6034 22.706 61.7388 22.65 61.8974 22.65C62.0561 22.65 62.1914 22.706 62.3034 22.818C62.4154 22.93 62.4714 23.0653 62.4714 23.224V24.176L62.3314 23.896C62.4248 23.7 62.5648 23.4993 62.7514 23.294C62.9474 23.0887 63.1808 22.9207 63.4514 22.79C63.7314 22.65 64.0534 22.58 64.4174 22.58C64.6134 22.58 64.7674 22.6313 64.8794 22.734C65.0008 22.8367 65.0614 22.9673 65.0614 23.126C65.0614 23.2847 65.0054 23.42 64.8934 23.532C64.7814 23.644 64.6414 23.7 64.4734 23.7C64.0814 23.7 63.7361 23.784 63.4374 23.952C63.1388 24.1107 62.9008 24.3207 62.7234 24.582C62.5554 24.834 62.4714 25.1 62.4714 25.38V29.552C62.4714 29.7107 62.4154 29.8507 62.3034 29.972C62.1914 30.084 62.0561 30.14 61.8974 30.14ZM68.7598 30.21C68.1065 30.21 67.5325 30.0513 67.0378 29.734C66.5525 29.4073 66.1698 28.9547 65.8898 28.376C65.6192 27.7973 65.4838 27.13 65.4838 26.374C65.4838 25.618 65.6192 24.9553 65.8898 24.386C66.1698 23.8167 66.5525 23.3733 67.0378 23.056C67.5325 22.7387 68.1065 22.58 68.7598 22.58C69.4225 22.58 70.0012 22.7387 70.4958 23.056C70.9998 23.3733 71.3918 23.8167 71.6718 24.386C71.9518 24.9553 72.0918 25.618 72.0918 26.374C72.0918 27.13 71.9518 27.7973 71.6718 28.376C71.3918 28.9547 70.9998 29.4073 70.4958 29.734C70.0012 30.0513 69.4225 30.21 68.7598 30.21ZM68.7598 29.16C69.4505 29.16 69.9872 28.9127 70.3698 28.418C70.7525 27.9233 70.9438 27.242 70.9438 26.374C70.9438 25.5247 70.7525 24.8527 70.3698 24.358C69.9872 23.8633 69.4505 23.616 68.7598 23.616C68.0785 23.616 67.5512 23.8633 67.1778 24.358C66.8045 24.8527 66.6178 25.5247 66.6178 26.374C66.6178 27.242 66.8045 27.9233 67.1778 28.418C67.5512 28.9127 68.0785 29.16 68.7598 29.16ZM76.2604 30.21C75.5884 30.21 75.0238 30.0327 74.5664 29.678C74.1184 29.3233 73.7778 28.8567 73.5444 28.278C73.3204 27.6993 73.2084 27.0787 73.2084 26.416C73.2084 25.716 73.3298 25.0767 73.5724 24.498C73.8151 23.9193 74.1698 23.4573 74.6364 23.112C75.1124 22.7573 75.6864 22.58 76.3584 22.58C76.7504 22.58 77.0911 22.6407 77.3804 22.762C77.6791 22.874 77.9311 23.0233 78.1364 23.21C78.3418 23.3873 78.5004 23.5787 78.6124 23.784L78.5004 23.812V20.354C78.5004 20.1953 78.5518 20.06 78.6544 19.948C78.7664 19.836 78.9018 19.78 79.0604 19.78C79.2191 19.78 79.3498 19.836 79.4524 19.948C79.5644 20.06 79.6204 20.1953 79.6204 20.354V29.524C79.6204 29.692 79.5644 29.8367 79.4524 29.958C79.3498 30.07 79.2191 30.126 79.0604 30.126C78.9018 30.126 78.7664 30.07 78.6544 29.958C78.5518 29.8367 78.5004 29.692 78.5004 29.524V28.866L78.5984 28.88C78.4958 29.1133 78.3324 29.3327 78.1084 29.538C77.8938 29.734 77.6278 29.8927 77.3104 30.014C77.0024 30.1447 76.6524 30.21 76.2604 30.21ZM76.4844 29.16C77.1471 29.1413 77.6558 28.8847 78.0104 28.39C78.3744 27.8953 78.5564 27.2373 78.5564 26.416C78.5564 25.5573 78.3698 24.876 77.9964 24.372C77.6324 23.868 77.1144 23.616 76.4424 23.616C75.7891 23.616 75.2711 23.868 74.8884 24.372C74.5151 24.8667 74.3284 25.5433 74.3284 26.402C74.3284 27.2607 74.5151 27.9373 74.8884 28.432C75.2711 28.9267 75.8031 29.1693 76.4844 29.16ZM84.1475 30.14C83.5595 30.14 83.0695 30.042 82.6775 29.846C82.2855 29.65 81.9915 29.356 81.7955 28.964C81.6088 28.5627 81.5155 28.0587 81.5155 27.452V23.154C81.5155 22.9953 81.5668 22.86 81.6695 22.748C81.7721 22.636 81.9028 22.58 82.0615 22.58C82.2295 22.58 82.3648 22.636 82.4675 22.748C82.5701 22.86 82.6215 22.9953 82.6215 23.154V27.466C82.6215 28.0633 82.7755 28.4833 83.0835 28.726C83.3915 28.9687 83.8021 29.09 84.3155 29.09C84.6701 29.09 84.9968 29.02 85.2955 28.88C85.6035 28.74 85.8508 28.544 86.0375 28.292C86.2241 28.0307 86.3175 27.7227 86.3175 27.368V23.154C86.3175 22.9953 86.3688 22.86 86.4715 22.748C86.5835 22.636 86.7235 22.58 86.8915 22.58C87.0501 22.58 87.1808 22.636 87.2835 22.748C87.3955 22.86 87.4515 22.9953 87.4515 23.154V29.566C87.4515 29.7247 87.3955 29.86 87.2835 29.972C87.1808 30.084 87.0501 30.14 86.8915 30.14C86.7235 30.14 86.5835 30.084 86.4715 29.972C86.3688 29.86 86.3175 29.7247 86.3175 29.566V28.558L86.5555 28.796C86.2568 29.2533 85.8975 29.594 85.4775 29.818C85.0668 30.0327 84.6235 30.14 84.1475 30.14ZM92.2058 30.21C91.5524 30.21 90.9831 30.0467 90.4978 29.72C90.0124 29.384 89.6391 28.9267 89.3778 28.348C89.1164 27.7693 88.9858 27.116 88.9858 26.388C88.9858 25.6507 89.1164 24.9973 89.3778 24.428C89.6484 23.8587 90.0264 23.4107 90.5118 23.084C90.9971 22.748 91.5664 22.58 92.2198 22.58C92.7611 22.58 93.2184 22.6827 93.5918 22.888C93.9744 23.084 94.2684 23.3173 94.4738 23.588C94.6791 23.8587 94.7911 24.1107 94.8098 24.344C94.8378 24.54 94.7958 24.6893 94.6838 24.792C94.5811 24.8947 94.4551 24.946 94.3058 24.946C94.1564 24.946 94.0444 24.9087 93.9698 24.834C93.8951 24.7593 93.8344 24.6753 93.7878 24.582C93.6664 24.33 93.4798 24.106 93.2278 23.91C92.9758 23.7047 92.6351 23.602 92.2058 23.602C91.7578 23.602 91.3798 23.7233 91.0718 23.966C90.7638 24.1993 90.5258 24.526 90.3578 24.946C90.1991 25.366 90.1198 25.842 90.1198 26.374C90.1198 27.2233 90.3064 27.9 90.6798 28.404C91.0624 28.908 91.5758 29.16 92.2198 29.16C92.7144 29.16 93.0971 29.0293 93.3678 28.768C93.6478 28.5067 93.8438 28.2127 93.9558 27.886C94.0024 27.7553 94.0678 27.648 94.1518 27.564C94.2358 27.48 94.3478 27.438 94.4878 27.438C94.6464 27.438 94.7724 27.494 94.8658 27.606C94.9684 27.718 95.0104 27.872 94.9918 28.068C94.9824 28.2453 94.9124 28.4553 94.7818 28.698C94.6604 28.9407 94.4831 29.1787 94.2498 29.412C94.0258 29.6453 93.7411 29.8367 93.3958 29.986C93.0598 30.1353 92.6631 30.21 92.2058 30.21ZM98.4205 30.14C98.1031 30.14 97.8278 30.07 97.5945 29.93C97.3705 29.7807 97.1978 29.5753 97.0765 29.314C96.9551 29.0433 96.8945 28.7353 96.8945 28.39V21.81C96.8945 21.6513 96.9458 21.5207 97.0485 21.418C97.1605 21.306 97.2958 21.25 97.4545 21.25C97.6131 21.25 97.7438 21.306 97.8465 21.418C97.9585 21.5207 98.0145 21.6513 98.0145 21.81V28.376C98.0145 28.5533 98.0425 28.7073 98.0985 28.838C98.1545 28.9593 98.2711 29.02 98.4485 29.02C98.5698 29.02 98.6585 28.992 98.7145 28.936C98.7798 28.88 98.8451 28.8287 98.9105 28.782C98.9758 28.726 99.0691 28.698 99.1905 28.698C99.3585 28.698 99.4938 28.754 99.5965 28.866C99.6991 28.9687 99.7505 29.0993 99.7505 29.258C99.7505 29.426 99.6851 29.58 99.5545 29.72C99.4331 29.8507 99.2698 29.9533 99.0645 30.028C98.8685 30.1027 98.6538 30.14 98.4205 30.14ZM96.4465 23.812C96.2971 23.812 96.1665 23.7653 96.0545 23.672C95.9518 23.5693 95.9005 23.4433 95.9005 23.294C95.9005 23.154 95.9518 23.0373 96.0545 22.944C96.1665 22.8413 96.2971 22.79 96.4465 22.79H99.4005C99.5498 22.79 99.6758 22.8413 99.7785 22.944C99.8905 23.0373 99.9465 23.154 99.9465 23.294C99.9465 23.4433 99.8905 23.5693 99.7785 23.672C99.6758 23.7653 99.5498 23.812 99.4005 23.812H96.4465ZM103.956 30.252C103.321 30.252 102.794 30.14 102.374 29.916C101.954 29.6827 101.636 29.412 101.422 29.104C101.207 28.7867 101.09 28.502 101.072 28.25C101.062 28.054 101.104 27.9047 101.198 27.802C101.3 27.69 101.426 27.634 101.576 27.634C101.716 27.634 101.828 27.676 101.912 27.76C101.996 27.8347 102.056 27.9233 102.094 28.026C102.206 28.3433 102.411 28.6233 102.71 28.866C103.008 29.0993 103.428 29.216 103.97 29.216C104.464 29.216 104.842 29.1133 105.104 28.908C105.365 28.6933 105.496 28.418 105.496 28.082C105.496 27.8207 105.416 27.6153 105.258 27.466C105.108 27.3073 104.898 27.1813 104.628 27.088C104.357 26.9947 104.044 26.9013 103.69 26.808C103.428 26.7333 103.158 26.654 102.878 26.57C102.598 26.4767 102.336 26.3553 102.094 26.206C101.851 26.0567 101.655 25.8653 101.506 25.632C101.356 25.3987 101.282 25.1047 101.282 24.75C101.282 24.358 101.384 23.9987 101.59 23.672C101.795 23.336 102.094 23.07 102.486 22.874C102.878 22.6687 103.344 22.566 103.886 22.566C104.436 22.566 104.898 22.6593 105.272 22.846C105.645 23.0327 105.93 23.2613 106.126 23.532C106.331 23.7933 106.438 24.0453 106.448 24.288C106.457 24.4653 106.42 24.6053 106.336 24.708C106.252 24.8107 106.13 24.862 105.972 24.862C105.869 24.862 105.766 24.834 105.664 24.778C105.561 24.722 105.472 24.6333 105.398 24.512C105.332 24.3813 105.244 24.246 105.132 24.106C105.029 23.9567 104.88 23.8353 104.684 23.742C104.488 23.6393 104.217 23.588 103.872 23.588C103.433 23.588 103.074 23.686 102.794 23.882C102.514 24.0687 102.374 24.3253 102.374 24.652C102.374 24.904 102.453 25.1 102.612 25.24C102.78 25.38 102.994 25.492 103.256 25.576C103.526 25.66 103.82 25.7487 104.138 25.842C104.436 25.926 104.73 26.0193 105.02 26.122C105.309 26.2153 105.57 26.3413 105.804 26.5C106.046 26.6493 106.238 26.8407 106.378 27.074C106.527 27.3073 106.602 27.5967 106.602 27.942C106.602 28.2873 106.513 28.642 106.336 29.006C106.168 29.3607 105.888 29.6593 105.496 29.902C105.113 30.1353 104.6 30.252 103.956 30.252ZM115.142 30.224C114.376 30.224 113.732 30.0887 113.21 29.818C112.687 29.5473 112.295 29.2207 112.034 28.838C111.772 28.446 111.642 28.0633 111.642 27.69C111.642 27.5127 111.688 27.368 111.782 27.256C111.875 27.1347 112.01 27.074 112.188 27.074C112.384 27.074 112.524 27.1393 112.608 27.27C112.701 27.3913 112.771 27.5407 112.818 27.718C112.93 28.0913 113.163 28.4273 113.518 28.726C113.882 29.0153 114.404 29.16 115.086 29.16C115.478 29.16 115.842 29.104 116.178 28.992C116.514 28.8707 116.784 28.6793 116.99 28.418C117.195 28.1567 117.298 27.8113 117.298 27.382C117.298 27.074 117.232 26.822 117.102 26.626C116.971 26.43 116.742 26.2433 116.416 26.066C116.089 25.8887 115.636 25.6833 115.058 25.45C114.703 25.31 114.348 25.17 113.994 25.03C113.648 24.8807 113.331 24.708 113.042 24.512C112.762 24.316 112.533 24.064 112.356 23.756C112.188 23.448 112.104 23.0607 112.104 22.594C112.104 22.0153 112.234 21.5347 112.496 21.152C112.766 20.7693 113.121 20.48 113.56 20.284C113.998 20.088 114.484 19.99 115.016 19.99C115.464 19.99 115.87 20.0553 116.234 20.186C116.607 20.3167 116.929 20.494 117.2 20.718C117.48 20.9327 117.699 21.1753 117.858 21.446C118.016 21.7073 118.11 21.9733 118.138 22.244C118.156 22.4213 118.114 22.5707 118.012 22.692C117.918 22.804 117.778 22.86 117.592 22.86C117.396 22.86 117.27 22.804 117.214 22.692C117.158 22.58 117.097 22.44 117.032 22.272C116.864 21.8613 116.616 21.5533 116.29 21.348C115.972 21.1427 115.576 21.04 115.1 21.04C114.736 21.04 114.414 21.1007 114.134 21.222C113.854 21.3433 113.634 21.516 113.476 21.74C113.326 21.9547 113.252 22.2207 113.252 22.538C113.252 22.9113 113.359 23.2053 113.574 23.42C113.788 23.6347 114.068 23.812 114.414 23.952C114.768 24.092 115.142 24.2413 115.534 24.4C116.084 24.624 116.546 24.8387 116.92 25.044C117.293 25.2493 117.592 25.464 117.816 25.688C118.04 25.912 118.198 26.1547 118.292 26.416C118.394 26.6773 118.446 26.976 118.446 27.312C118.455 27.8813 118.334 28.3853 118.082 28.824C117.83 29.2627 117.456 29.608 116.962 29.86C116.467 30.1027 115.86 30.224 115.142 30.224ZM122.914 30.21C122.261 30.21 121.687 30.0513 121.192 29.734C120.707 29.4073 120.324 28.9547 120.044 28.376C119.773 27.7973 119.638 27.13 119.638 26.374C119.638 25.618 119.773 24.9553 120.044 24.386C120.324 23.8167 120.707 23.3733 121.192 23.056C121.687 22.7387 122.261 22.58 122.914 22.58C123.577 22.58 124.155 22.7387 124.65 23.056C125.154 23.3733 125.546 23.8167 125.826 24.386C126.106 24.9553 126.246 25.618 126.246 26.374C126.246 27.13 126.106 27.7973 125.826 28.376C125.546 28.9547 125.154 29.4073 124.65 29.734C124.155 30.0513 123.577 30.21 122.914 30.21ZM122.914 29.16C123.605 29.16 124.141 28.9127 124.524 28.418C124.907 27.9233 125.098 27.242 125.098 26.374C125.098 25.5247 124.907 24.8527 124.524 24.358C124.141 23.8633 123.605 23.616 122.914 23.616C122.233 23.616 121.705 23.8633 121.332 24.358C120.959 24.8527 120.772 25.5247 120.772 26.374C120.772 27.242 120.959 27.9233 121.332 28.418C121.705 28.9127 122.233 29.16 122.914 29.16ZM128.343 30.14C128.184 30.14 128.049 30.084 127.937 29.972C127.834 29.8507 127.783 29.7107 127.783 29.552V20.354C127.783 20.1953 127.834 20.06 127.937 19.948C128.049 19.836 128.184 19.78 128.343 19.78C128.501 19.78 128.637 19.836 128.749 19.948C128.861 20.06 128.917 20.1953 128.917 20.354V29.552C128.917 29.7107 128.861 29.8507 128.749 29.972C128.637 30.084 128.501 30.14 128.343 30.14ZM133.505 30.21C132.833 30.21 132.268 30.0327 131.811 29.678C131.363 29.3233 131.022 28.8567 130.789 28.278C130.565 27.6993 130.453 27.0787 130.453 26.416C130.453 25.716 130.574 25.0767 130.817 24.498C131.059 23.9193 131.414 23.4573 131.881 23.112C132.357 22.7573 132.931 22.58 133.603 22.58C133.995 22.58 134.335 22.6407 134.625 22.762C134.923 22.874 135.175 23.0233 135.381 23.21C135.586 23.3873 135.745 23.5787 135.857 23.784L135.745 23.812V20.354C135.745 20.1953 135.796 20.06 135.899 19.948C136.011 19.836 136.146 19.78 136.305 19.78C136.463 19.78 136.594 19.836 136.697 19.948C136.809 20.06 136.865 20.1953 136.865 20.354V29.524C136.865 29.692 136.809 29.8367 136.697 29.958C136.594 30.07 136.463 30.126 136.305 30.126C136.146 30.126 136.011 30.07 135.899 29.958C135.796 29.8367 135.745 29.692 135.745 29.524V28.866L135.843 28.88C135.74 29.1133 135.577 29.3327 135.353 29.538C135.138 29.734 134.872 29.8927 134.555 30.014C134.247 30.1447 133.897 30.21 133.505 30.21ZM133.729 29.16C134.391 29.1413 134.9 28.8847 135.255 28.39C135.619 27.8953 135.801 27.2373 135.801 26.416C135.801 25.5573 135.614 24.876 135.241 24.372C134.877 23.868 134.359 23.616 133.687 23.616C133.033 23.616 132.515 23.868 132.133 24.372C131.759 24.8667 131.573 25.5433 131.573 26.402C131.573 27.2607 131.759 27.9373 132.133 28.432C132.515 28.9267 133.047 29.1693 133.729 29.16Z" fill="#2E2C28"/>
<path d="M25.696 61.384C24.528 61.384 23.504 61.168 22.624 60.736C21.76 60.304 21.08 59.768 20.584 59.128C20.088 58.472 19.808 57.816 19.744 57.16C19.728 56.76 19.84 56.44 20.08 56.2C20.32 55.96 20.632 55.84 21.016 55.84C21.32 55.84 21.56 55.928 21.736 56.104C21.928 56.264 22.096 56.464 22.24 56.704C22.56 57.344 23 57.856 23.56 58.24C24.12 58.624 24.792 58.816 25.576 58.816C26.28 58.816 26.896 58.664 27.424 58.36C27.968 58.04 28.384 57.608 28.672 57.064C28.976 56.504 29.128 55.888 29.128 55.216C29.128 54.528 28.976 53.92 28.672 53.392C28.384 52.848 27.968 52.424 27.424 52.12C26.896 51.8 26.264 51.64 25.528 51.64C25.064 51.64 24.672 51.704 24.352 51.832C24.048 51.96 23.776 52.104 23.536 52.264C23.312 52.408 23.088 52.544 22.864 52.672C22.64 52.784 22.384 52.84 22.096 52.84C21.696 52.84 21.392 52.728 21.184 52.504C20.976 52.264 20.896 51.928 20.944 51.496L21.616 45.64C21.664 45.176 21.856 44.824 22.192 44.584C22.528 44.328 22.888 44.2 23.272 44.2H29.248C29.632 44.2 29.952 44.336 30.208 44.608C30.48 44.864 30.616 45.176 30.616 45.544C30.616 45.896 30.48 46.216 30.208 46.504C29.936 46.776 29.568 46.904 29.104 46.888L22.816 46.768L24.328 45.832L23.632 51.4L21.928 51.04C22.568 50.496 23.216 50.088 23.872 49.816C24.544 49.544 25.28 49.408 26.08 49.408C27.216 49.408 28.216 49.648 29.08 50.128C29.96 50.608 30.648 51.288 31.144 52.168C31.64 53.032 31.888 54.048 31.888 55.216C31.888 56.384 31.632 57.44 31.12 58.384C30.608 59.312 29.888 60.048 28.96 60.592C28.048 61.12 26.96 61.384 25.696 61.384ZM38.3688 61.24C38.0008 61.24 37.6728 61.104 37.3848 60.832C37.1128 60.56 36.9768 60.232 36.9768 59.848C36.9768 58.52 37.0728 57.216 37.2648 55.936C37.4728 54.64 37.7608 53.4 38.1288 52.216C38.4968 51.032 38.9368 49.944 39.4488 48.952C39.9608 47.944 40.5208 47.072 41.1288 46.336L41.9448 46.912H35.0568C34.6888 46.912 34.3688 46.776 34.0968 46.504C33.8248 46.232 33.6888 45.912 33.6888 45.544C33.6888 45.16 33.8248 44.84 34.0968 44.584C34.3688 44.312 34.6888 44.176 35.0568 44.176H43.9848C44.3688 44.176 44.6808 44.304 44.9208 44.56C45.1768 44.8 45.3047 45.072 45.3047 45.376C45.3047 45.616 45.2728 45.824 45.2088 46C45.1448 46.176 45.0248 46.352 44.8488 46.528C44.6728 46.704 44.4328 46.92 44.1288 47.176C43.5048 47.672 42.9208 48.344 42.3768 49.192C41.8488 50.04 41.3848 51.024 40.9848 52.144C40.6008 53.248 40.2968 54.456 40.0728 55.768C39.8648 57.064 39.7608 58.424 39.7608 59.848C39.7608 60.232 39.6248 60.56 39.3528 60.832C39.0968 61.104 38.7688 61.24 38.3688 61.24ZM55.9928 61.24C55.5768 61.24 55.2328 61.104 54.9608 60.832C54.6888 60.56 54.5528 60.216 54.5528 59.8V45.376C54.5528 44.96 54.6888 44.624 54.9608 44.368C55.2328 44.096 55.5768 43.96 55.9928 43.96C56.4088 43.96 56.7448 44.096 57.0008 44.368C57.2728 44.624 57.4088 44.96 57.4088 45.376V59.8C57.4088 60.216 57.2728 60.56 57.0008 60.832C56.7448 61.104 56.4088 61.24 55.9928 61.24ZM65.0719 61.24C64.3679 61.24 63.7759 61.088 63.2959 60.784C62.8159 60.48 62.4479 60.072 62.1919 59.56C61.9519 59.048 61.8319 58.48 61.8319 57.856V47.368C61.8319 46.984 61.9679 46.664 62.2399 46.408C62.5119 46.136 62.8399 46 63.2239 46C63.6079 46 63.9279 46.136 64.1839 46.408C64.4559 46.664 64.5919 46.984 64.5919 47.368V57.712C64.5919 57.952 64.6239 58.144 64.6879 58.288C64.7679 58.432 64.9119 58.504 65.1199 58.504C65.2799 58.504 65.4159 58.464 65.5279 58.384C65.6559 58.288 65.7919 58.2 65.9359 58.12C66.0799 58.04 66.2559 58 66.4639 58C66.8639 58 67.1919 58.136 67.4479 58.408C67.7199 58.68 67.8559 59.008 67.8559 59.392C67.8559 59.792 67.7119 60.128 67.4239 60.4C67.1519 60.672 66.7999 60.88 66.3679 61.024C65.9519 61.168 65.5199 61.24 65.0719 61.24ZM61.3039 51.064C60.9679 51.064 60.6719 50.952 60.4159 50.728C60.1759 50.488 60.0559 50.192 60.0559 49.84C60.0559 49.504 60.1759 49.224 60.4159 49C60.6719 48.76 60.9679 48.64 61.3039 48.64H66.8479C67.1999 48.64 67.4959 48.76 67.7359 49C67.9759 49.224 68.0959 49.504 68.0959 49.84C68.0959 50.192 67.9759 50.488 67.7359 50.728C67.4959 50.952 67.1999 51.064 66.8479 51.064H61.3039ZM75.9505 61.36C74.8305 61.36 73.8225 61.104 72.9265 60.592C72.0305 60.064 71.3185 59.32 70.7905 58.36C70.2785 57.384 70.0225 56.224 70.0225 54.88C70.0225 53.616 70.2625 52.488 70.7425 51.496C71.2225 50.504 71.8865 49.72 72.7345 49.144C73.5985 48.568 74.5985 48.28 75.7345 48.28C76.6145 48.28 77.3985 48.448 78.0865 48.784C78.7745 49.104 79.3585 49.536 79.8385 50.08C80.3345 50.608 80.7105 51.2 80.9665 51.856C81.2225 52.496 81.3505 53.144 81.3505 53.8C81.3505 54.376 81.2145 54.832 80.9425 55.168C80.6865 55.488 80.2465 55.648 79.6225 55.648H72.9025C72.9985 56.4 73.1985 57.016 73.5025 57.496C73.8065 57.96 74.1825 58.304 74.6305 58.528C75.0945 58.736 75.5905 58.84 76.1185 58.84C76.7585 58.84 77.2705 58.712 77.6545 58.456C78.0545 58.184 78.3665 57.856 78.5905 57.472C78.7345 57.312 78.8945 57.168 79.0705 57.04C79.2465 56.896 79.4785 56.824 79.7665 56.824C80.1345 56.824 80.4385 56.944 80.6785 57.184C80.9185 57.424 81.0305 57.752 81.0145 58.168C81.0145 58.52 80.8865 58.888 80.6305 59.272C80.3905 59.64 80.0465 59.984 79.5985 60.304C79.1665 60.608 78.6385 60.856 78.0145 61.048C77.4065 61.256 76.7185 61.36 75.9505 61.36ZM72.9025 53.608H78.5905C78.4785 52.712 78.1745 52.016 77.6785 51.52C77.1985 51.008 76.5585 50.752 75.7585 50.752C75.0065 50.752 74.3745 50.992 73.8625 51.472C73.3505 51.936 73.0305 52.648 72.9025 53.608ZM85.3767 61.24C84.9927 61.24 84.6647 61.104 84.3927 60.832C84.1207 60.56 83.9847 60.224 83.9847 59.824V49.792C83.9847 49.392 84.1207 49.064 84.3927 48.808C84.6647 48.536 84.9927 48.4 85.3767 48.4C85.7767 48.4 86.1047 48.536 86.3607 48.808C86.6167 49.064 86.7447 49.376 86.7447 49.744L86.7687 50.968L86.1927 50.8C86.5127 50.208 86.8887 49.728 87.3207 49.36C87.7527 48.992 88.2167 48.72 88.7127 48.544C89.2087 48.368 89.7047 48.28 90.2007 48.28C91.1447 48.28 91.9847 48.528 92.7207 49.024C93.4567 49.504 93.9927 50.192 94.3287 51.088L93.3687 51.28C93.8007 50.48 94.2567 49.864 94.7367 49.432C95.2327 49 95.7447 48.704 96.2727 48.544C96.8167 48.368 97.3687 48.28 97.9287 48.28C98.8087 48.28 99.5927 48.464 100.281 48.832C100.969 49.2 101.505 49.744 101.889 50.464C102.273 51.184 102.465 52.056 102.465 53.08V59.824C102.465 60.224 102.329 60.56 102.057 60.832C101.801 61.104 101.481 61.24 101.097 61.24C100.713 61.24 100.385 61.104 100.113 60.832C99.8407 60.56 99.7047 60.224 99.7047 59.824V53.416C99.7047 52.568 99.4887 51.936 99.0567 51.52C98.6247 51.088 98.0327 50.872 97.2807 50.872C96.7847 50.872 96.3447 50.968 95.9607 51.16C95.5767 51.352 95.2807 51.64 95.0727 52.024C94.8647 52.392 94.7607 52.848 94.7607 53.392L94.7367 59.824C94.7367 60.224 94.6007 60.56 94.3287 60.832C94.0727 61.104 93.7527 61.24 93.3687 61.24C92.9687 61.24 92.6327 61.104 92.3607 60.832C92.1047 60.56 91.9767 60.224 91.9767 59.824V53.416C91.9767 52.6 91.7607 51.968 91.3287 51.52C90.8967 51.072 90.3047 50.848 89.5527 50.848C89.0247 50.848 88.5447 50.952 88.1127 51.16C87.6967 51.368 87.3687 51.672 87.1287 52.072C86.8887 52.472 86.7687 52.96 86.7687 53.536V59.824C86.7687 60.224 86.6327 60.56 86.3607 60.832C86.0887 61.104 85.7607 61.24 85.3767 61.24ZM110.127 61.432C109.055 61.432 108.135 61.256 107.367 60.904C106.615 60.536 106.031 60.104 105.615 59.608C105.215 59.096 105.007 58.616 104.991 58.168C104.991 57.816 105.103 57.512 105.327 57.256C105.551 56.984 105.871 56.848 106.287 56.848C106.607 56.848 106.863 56.92 107.055 57.064C107.263 57.208 107.415 57.352 107.511 57.496C107.831 57.96 108.215 58.336 108.663 58.624C109.111 58.896 109.655 59.032 110.295 59.032C110.935 59.032 111.407 58.904 111.711 58.648C112.015 58.392 112.167 58.072 112.167 57.688C112.167 57.368 112.063 57.104 111.855 56.896C111.647 56.672 111.343 56.488 110.943 56.344C110.559 56.184 110.095 56.024 109.551 55.864C109.039 55.704 108.535 55.536 108.039 55.36C107.559 55.168 107.119 54.936 106.719 54.664C106.319 54.376 105.999 54.024 105.759 53.608C105.519 53.192 105.399 52.672 105.399 52.048C105.399 51.344 105.591 50.704 105.975 50.128C106.359 49.552 106.895 49.096 107.583 48.76C108.271 48.408 109.079 48.232 110.007 48.232C110.903 48.232 111.679 48.384 112.335 48.688C113.007 48.992 113.527 49.376 113.895 49.84C114.263 50.288 114.447 50.752 114.447 51.232C114.463 51.584 114.375 51.88 114.183 52.12C113.991 52.344 113.703 52.456 113.319 52.456C113.031 52.456 112.775 52.392 112.551 52.264C112.327 52.12 112.143 51.96 111.999 51.784C111.887 51.608 111.751 51.432 111.591 51.256C111.431 51.08 111.215 50.928 110.943 50.8C110.687 50.672 110.343 50.608 109.911 50.608C109.351 50.608 108.911 50.728 108.591 50.968C108.287 51.208 108.135 51.512 108.135 51.88C108.135 52.216 108.255 52.48 108.495 52.672C108.735 52.864 109.071 53.04 109.503 53.2C109.951 53.344 110.495 53.528 111.135 53.752C111.679 53.928 112.175 54.12 112.623 54.328C113.087 54.536 113.487 54.784 113.823 55.072C114.175 55.344 114.447 55.672 114.639 56.056C114.831 56.424 114.927 56.872 114.927 57.4C114.927 58.12 114.751 58.792 114.399 59.416C114.047 60.024 113.511 60.512 112.791 60.88C112.087 61.248 111.199 61.432 110.127 61.432Z" fill="#267F53"/>
<rect x="19" y="70" width="40" height="20" rx="5" fill="#267F53"/>
<g clip-path="url(#clip0_6004_17008)">
<path d="M32.3078 76.0176L24.3105 82.9379L24.3082 82.9402C24.0533 83.1765 23.9513 83.4781 24.0221 83.788C24.094 84.1056 24.3478 84.3791 24.6538 84.4679C24.7276 84.4894 24.8014 84.5 24.8741 84.5C25.096 84.5 25.3095 84.4018 25.4925 84.2117L32.6236 76.2906L32.3078 76.0176Z" fill="white"/>
<path d="M32.6876 76.2182C32.7134 76.0003 32.5285 75.8254 32.3177 75.8598C30.6105 76.138 28.7413 76.0484 27.1483 75.5034C26.7472 75.4623 26.394 75.7957 26.4173 76.2272C26.4359 76.5695 26.7183 76.8367 27.0501 76.8688C28.3314 76.9932 30.5009 76.9603 31.6121 76.9326C31.5828 78.0812 31.5471 80.3205 31.6681 81.6374C31.6993 81.9785 31.9592 82.2688 32.2922 82.288C32.7119 82.3118 33.0362 81.9488 32.9962 81.5364C32.4159 79.3151 32.5783 77.1258 32.6872 76.2182H32.6876Z" fill="white"/>
</g>
<path d="M40.48 84.18C40.072 84.18 39.704 84.108 39.376 83.964C39.056 83.82 38.78 83.644 38.548 83.436C38.316 83.22 38.136 83.004 38.008 82.788C37.88 82.564 37.812 82.38 37.804 82.236C37.796 82.1 37.836 81.988 37.924 81.9C38.012 81.812 38.12 81.768 38.248 81.768C38.352 81.768 38.44 81.8 38.512 81.864C38.592 81.92 38.652 81.992 38.692 82.08C38.852 82.456 39.092 82.748 39.412 82.956C39.74 83.156 40.096 83.256 40.48 83.256C40.896 83.256 41.26 83.132 41.572 82.884C41.884 82.636 42.136 82.28 42.328 81.816C42.528 81.352 42.648 80.796 42.688 80.148C42.36 80.436 42 80.668 41.608 80.844C41.224 81.02 40.804 81.108 40.348 81.108C39.852 81.108 39.392 80.996 38.968 80.772C38.544 80.548 38.204 80.232 37.948 79.824C37.692 79.408 37.564 78.916 37.564 78.348C37.564 77.812 37.684 77.324 37.924 76.884C38.172 76.444 38.516 76.092 38.956 75.828C39.396 75.564 39.908 75.432 40.492 75.432C41.156 75.432 41.724 75.6 42.196 75.936C42.668 76.272 43.032 76.752 43.288 77.376C43.544 78 43.672 78.744 43.672 79.608C43.672 80.504 43.54 81.296 43.276 81.984C43.012 82.672 42.64 83.212 42.16 83.604C41.688 83.988 41.128 84.18 40.48 84.18ZM38.524 78.372C38.524 78.74 38.604 79.06 38.764 79.332C38.924 79.604 39.14 79.816 39.412 79.968C39.692 80.12 40.004 80.196 40.348 80.196C40.804 80.196 41.22 80.076 41.596 79.836C41.98 79.588 42.344 79.28 42.688 78.912C42.6 78.088 42.368 77.456 41.992 77.016C41.616 76.568 41.12 76.344 40.504 76.344C40.096 76.344 39.744 76.44 39.448 76.632C39.152 76.816 38.924 77.06 38.764 77.364C38.604 77.668 38.524 78.004 38.524 78.372ZM46.3062 84.18C46.1862 84.18 46.0822 84.14 45.9942 84.06C45.9142 83.988 45.8662 83.896 45.8502 83.784C45.8342 83.672 45.8622 83.564 45.9342 83.46L51.4302 75.672C51.4702 75.608 51.5222 75.556 51.5862 75.516C51.6582 75.476 51.7342 75.456 51.8142 75.456C51.9422 75.456 52.0462 75.496 52.1262 75.576C52.2062 75.648 52.2542 75.74 52.2702 75.852C52.2862 75.964 52.2582 76.076 52.1862 76.188L46.6902 83.976C46.6502 84.032 46.5942 84.08 46.5222 84.12C46.4582 84.16 46.3862 84.18 46.3062 84.18ZM46.5822 79.536C46.2142 79.536 45.8742 79.444 45.5622 79.26C45.2502 79.068 45.0022 78.816 44.8182 78.504C44.6342 78.192 44.5422 77.852 44.5422 77.484C44.5422 77.108 44.6342 76.764 44.8182 76.452C45.0022 76.14 45.2502 75.892 45.5622 75.708C45.8742 75.524 46.2142 75.432 46.5822 75.432C46.9582 75.432 47.3022 75.524 47.6142 75.708C47.9262 75.892 48.1742 76.14 48.3582 76.452C48.5422 76.764 48.6342 77.108 48.6342 77.484C48.6342 77.852 48.5422 78.192 48.3582 78.504C48.1742 78.816 47.9262 79.068 47.6142 79.26C47.3022 79.444 46.9582 79.536 46.5822 79.536ZM46.5822 78.66C46.8062 78.66 47.0022 78.608 47.1702 78.504C47.3382 78.392 47.4702 78.248 47.5662 78.072C47.6622 77.896 47.7102 77.7 47.7102 77.484C47.7102 77.156 47.6062 76.88 47.3982 76.656C47.1902 76.432 46.9182 76.32 46.5822 76.32C46.3742 76.32 46.1822 76.372 46.0062 76.476C45.8382 76.58 45.7062 76.72 45.6102 76.896C45.5142 77.064 45.4662 77.26 45.4662 77.484C45.4662 77.7 45.5142 77.896 45.6102 78.072C45.7062 78.248 45.8382 78.392 46.0062 78.504C46.1822 78.608 46.3742 78.66 46.5822 78.66ZM51.5982 84.168C51.2302 84.168 50.8902 84.076 50.5782 83.892C50.2662 83.7 50.0182 83.448 49.8342 83.136C49.6502 82.816 49.5582 82.472 49.5582 82.104C49.5582 81.728 49.6502 81.384 49.8342 81.072C50.0182 80.76 50.2662 80.512 50.5782 80.328C50.8902 80.144 51.2302 80.052 51.5982 80.052C51.9742 80.052 52.3182 80.144 52.6302 80.328C52.9422 80.512 53.1902 80.76 53.3742 81.072C53.5582 81.384 53.6502 81.728 53.6502 82.104C53.6502 82.472 53.5582 82.816 53.3742 83.136C53.1902 83.448 52.9422 83.7 52.6302 83.892C52.3182 84.076 51.9742 84.168 51.5982 84.168ZM51.5982 83.268C51.8222 83.268 52.0182 83.216 52.1862 83.112C52.3542 83.008 52.4862 82.868 52.5822 82.692C52.6782 82.516 52.7262 82.32 52.7262 82.104C52.7262 81.776 52.6222 81.5 52.4142 81.276C52.2062 81.052 51.9342 80.94 51.5982 80.94C51.3902 80.94 51.1982 80.992 51.0222 81.096C50.8542 81.2 50.7222 81.34 50.6262 81.516C50.5302 81.684 50.4822 81.88 50.4822 82.104C50.4822 82.32 50.5302 82.516 50.6262 82.692C50.7222 82.868 50.8542 83.008 51.0222 83.112C51.1982 83.216 51.3902 83.268 51.5982 83.268Z" fill="white"/>
<path d="M67.78 85.21C67.1267 85.21 66.5573 85.0467 66.072 84.72C65.5867 84.384 65.2133 83.9267 64.952 83.348C64.6907 82.7693 64.56 82.116 64.56 81.388C64.56 80.6507 64.6907 79.9973 64.952 79.428C65.2227 78.8587 65.6007 78.4107 66.086 78.084C66.5713 77.748 67.1407 77.58 67.794 77.58C68.3353 77.58 68.7927 77.6827 69.166 77.888C69.5487 78.084 69.8427 78.3173 70.048 78.588C70.2533 78.8587 70.3653 79.1107 70.384 79.344C70.412 79.54 70.37 79.6893 70.258 79.792C70.1553 79.8947 70.0293 79.946 69.88 79.946C69.7307 79.946 69.6187 79.9087 69.544 79.834C69.4693 79.7593 69.4087 79.6753 69.362 79.582C69.2407 79.33 69.054 79.106 68.802 78.91C68.55 78.7047 68.2093 78.602 67.78 78.602C67.332 78.602 66.954 78.7233 66.646 78.966C66.338 79.1993 66.1 79.526 65.932 79.946C65.7733 80.366 65.694 80.842 65.694 81.374C65.694 82.2233 65.8807 82.9 66.254 83.404C66.6367 83.908 67.15 84.16 67.794 84.16C68.2887 84.16 68.6713 84.0293 68.942 83.768C69.222 83.5067 69.418 83.2127 69.53 82.886C69.5767 82.7553 69.642 82.648 69.726 82.564C69.81 82.48 69.922 82.438 70.062 82.438C70.2207 82.438 70.3467 82.494 70.44 82.606C70.5427 82.718 70.5847 82.872 70.566 83.068C70.5567 83.2453 70.4867 83.4553 70.356 83.698C70.2347 83.9407 70.0573 84.1787 69.824 84.412C69.6 84.6453 69.3153 84.8367 68.97 84.986C68.634 85.1353 68.2373 85.21 67.78 85.21ZM74.8907 85.21C74.2374 85.21 73.6634 85.0513 73.1687 84.734C72.6834 84.4073 72.3007 83.9547 72.0207 83.376C71.75 82.7973 71.6147 82.13 71.6147 81.374C71.6147 80.618 71.75 79.9553 72.0207 79.386C72.3007 78.8167 72.6834 78.3733 73.1687 78.056C73.6634 77.7387 74.2374 77.58 74.8907 77.58C75.5534 77.58 76.132 77.7387 76.6267 78.056C77.1307 78.3733 77.5227 78.8167 77.8027 79.386C78.0827 79.9553 78.2227 80.618 78.2227 81.374C78.2227 82.13 78.0827 82.7973 77.8027 83.376C77.5227 83.9547 77.1307 84.4073 76.6267 84.734C76.132 85.0513 75.5534 85.21 74.8907 85.21ZM74.8907 84.16C75.5814 84.16 76.118 83.9127 76.5007 83.418C76.8834 82.9233 77.0747 82.242 77.0747 81.374C77.0747 80.5247 76.8834 79.8527 76.5007 79.358C76.118 78.8633 75.5814 78.616 74.8907 78.616C74.2094 78.616 73.682 78.8633 73.3087 79.358C72.9354 79.8527 72.7487 80.5247 72.7487 81.374C72.7487 82.242 72.9354 82.9233 73.3087 83.418C73.682 83.9127 74.2094 84.16 74.8907 84.16ZM80.3193 85.14C80.1606 85.14 80.0253 85.084 79.9133 84.972C79.8106 84.86 79.7593 84.72 79.7593 84.552V78.224C79.7593 78.056 79.8106 77.9207 79.9133 77.818C80.0253 77.706 80.1606 77.65 80.3193 77.65C80.4873 77.65 80.6226 77.706 80.7253 77.818C80.8373 77.9207 80.8933 78.056 80.8933 78.224V79.078L80.6553 78.882C80.8513 78.574 81.0706 78.3267 81.3133 78.14C81.5653 77.944 81.836 77.804 82.1253 77.72C82.4146 77.6267 82.7086 77.58 83.0073 77.58C83.5486 77.58 84.0246 77.7107 84.4353 77.972C84.8553 78.2333 85.1633 78.6113 85.3593 79.106L84.9533 79.162C85.196 78.7513 85.462 78.434 85.7513 78.21C86.0406 77.9767 86.3346 77.8133 86.6333 77.72C86.9413 77.6267 87.2446 77.58 87.5433 77.58C88.038 77.58 88.4813 77.6873 88.8733 77.902C89.2653 78.1073 89.5733 78.4107 89.7973 78.812C90.0213 79.204 90.1333 79.68 90.1333 80.24V84.552C90.1333 84.72 90.082 84.86 89.9793 84.972C89.8766 85.084 89.746 85.14 89.5873 85.14C89.4193 85.14 89.2793 85.084 89.1673 84.972C89.0646 84.86 89.0133 84.72 89.0133 84.552V80.282C89.0133 79.7593 88.8593 79.3533 88.5513 79.064C88.2526 78.7747 87.856 78.63 87.3613 78.63C87.044 78.63 86.75 78.6953 86.4793 78.826C86.2086 78.9473 85.994 79.1293 85.8353 79.372C85.6766 79.6053 85.5973 79.8947 85.5973 80.24V84.552C85.5973 84.72 85.5413 84.86 85.4293 84.972C85.3266 85.084 85.196 85.14 85.0373 85.14C84.8693 85.14 84.7293 85.084 84.6173 84.972C84.5146 84.86 84.4633 84.72 84.4633 84.552V80.282C84.4633 79.7593 84.314 79.3533 84.0153 79.064C83.7166 78.7653 83.32 78.616 82.8253 78.616C82.4893 78.616 82.172 78.686 81.8733 78.826C81.584 78.9567 81.346 79.148 81.1593 79.4C80.982 79.6427 80.8933 79.932 80.8933 80.268V84.552C80.8933 84.72 80.8373 84.86 80.7253 84.972C80.6226 85.084 80.4873 85.14 80.3193 85.14ZM95.341 85.21C94.921 85.21 94.5616 85.1447 94.263 85.014C93.9736 84.8833 93.731 84.72 93.535 84.524C93.339 84.328 93.185 84.1367 93.073 83.95L93.157 83.894V87.366C93.157 87.5247 93.101 87.66 92.989 87.772C92.877 87.884 92.7416 87.94 92.583 87.94C92.4336 87.94 92.303 87.884 92.191 87.772C92.079 87.66 92.023 87.5247 92.023 87.366V78.252C92.023 78.0933 92.079 77.9533 92.191 77.832C92.303 77.7107 92.4336 77.65 92.583 77.65C92.7416 77.65 92.877 77.706 92.989 77.818C93.101 77.9207 93.157 78.0607 93.157 78.238L93.143 78.868L93.087 78.854C93.2456 78.5367 93.5256 78.2473 93.927 77.986C94.3283 77.7153 94.8183 77.58 95.397 77.58C95.8636 77.58 96.2836 77.678 96.657 77.874C97.0303 78.0607 97.3476 78.3267 97.609 78.672C97.8703 79.008 98.071 79.4093 98.211 79.876C98.351 80.3333 98.421 80.8327 98.421 81.374C98.421 81.9153 98.351 82.4193 98.211 82.886C98.0803 83.3433 97.8796 83.7493 97.609 84.104C97.3476 84.4493 97.0256 84.72 96.643 84.916C96.2696 85.112 95.8356 85.21 95.341 85.21ZM95.187 84.174C95.8403 84.174 96.3536 83.9267 96.727 83.432C97.1003 82.928 97.287 82.242 97.287 81.374C97.287 80.8047 97.203 80.3147 97.035 79.904C96.8763 79.4933 96.6383 79.176 96.321 78.952C96.013 78.728 95.6303 78.616 95.173 78.616C94.501 78.616 93.983 78.8587 93.619 79.344C93.255 79.8293 93.073 80.5013 93.073 81.36C93.073 82.228 93.2596 82.914 93.633 83.418C94.0063 83.922 94.5243 84.174 95.187 84.174ZM102.066 85.21C101.544 85.21 101.091 85.1167 100.708 84.93C100.335 84.734 100.046 84.4727 99.8403 84.146C99.6443 83.8193 99.5463 83.4553 99.5463 83.054C99.5463 82.4753 99.761 81.9807 100.19 81.57C100.629 81.15 101.329 80.884 102.29 80.772C102.692 80.7253 103.037 80.674 103.326 80.618C103.616 80.562 103.84 80.4687 103.998 80.338C104.166 80.2073 104.25 80.016 104.25 79.764C104.25 79.568 104.199 79.386 104.096 79.218C104.003 79.0407 103.844 78.896 103.62 78.784C103.406 78.672 103.116 78.616 102.752 78.616C102.267 78.616 101.903 78.714 101.66 78.91C101.418 79.0967 101.25 79.2833 101.156 79.47C101.091 79.5913 101.012 79.6847 100.918 79.75C100.825 79.8153 100.713 79.848 100.582 79.848C100.424 79.848 100.302 79.8013 100.218 79.708C100.134 79.6053 100.092 79.4793 100.092 79.33C100.092 79.1527 100.153 78.966 100.274 78.77C100.396 78.5647 100.573 78.3733 100.806 78.196C101.049 78.0093 101.338 77.86 101.674 77.748C102.02 77.636 102.412 77.58 102.85 77.58C103.485 77.58 103.984 77.7013 104.348 77.944C104.722 78.1773 104.988 78.4993 105.146 78.91C105.305 79.3113 105.384 79.7593 105.384 80.254V83.74C105.384 83.8333 105.394 83.9033 105.412 83.95C105.44 83.9967 105.487 84.0247 105.552 84.034C105.683 84.0433 105.795 84.0993 105.888 84.202C105.982 84.2953 106.028 84.4167 106.028 84.566C106.028 84.7247 105.963 84.86 105.832 84.972C105.711 85.084 105.538 85.14 105.314 85.14C105.034 85.14 104.815 85.0607 104.656 84.902C104.507 84.734 104.432 84.5287 104.432 84.286V84.048H104.39C104.157 84.3933 103.849 84.6733 103.466 84.888C103.093 85.1027 102.626 85.21 102.066 85.21ZM102.08 84.174C102.5 84.174 102.874 84.0853 103.2 83.908C103.536 83.7307 103.798 83.4927 103.984 83.194C104.18 82.8953 104.278 82.564 104.278 82.2V81.248C104.278 81.2293 104.269 81.22 104.25 81.22C104.241 81.2107 104.222 81.2247 104.194 81.262C104.054 81.374 103.863 81.4627 103.62 81.528C103.387 81.584 103.149 81.6307 102.906 81.668C102.664 81.7053 102.463 81.738 102.304 81.766C101.819 81.8407 101.422 81.9713 101.114 82.158C100.816 82.3447 100.666 82.6247 100.666 82.998C100.666 83.278 100.774 83.544 100.988 83.796C101.203 84.048 101.567 84.174 102.08 84.174ZM107.95 85.14C107.791 85.14 107.656 85.084 107.544 84.972C107.441 84.8507 107.39 84.7107 107.39 84.552V78.224C107.39 78.0653 107.441 77.93 107.544 77.818C107.656 77.706 107.791 77.65 107.95 77.65C108.109 77.65 108.244 77.706 108.356 77.818C108.468 77.93 108.524 78.0653 108.524 78.224V79.176L108.384 78.896C108.477 78.7 108.617 78.4993 108.804 78.294C109 78.0887 109.233 77.9207 109.504 77.79C109.784 77.65 110.106 77.58 110.47 77.58C110.666 77.58 110.82 77.6313 110.932 77.734C111.053 77.8367 111.114 77.9673 111.114 78.126C111.114 78.2847 111.058 78.42 110.946 78.532C110.834 78.644 110.694 78.7 110.526 78.7C110.134 78.7 109.789 78.784 109.49 78.952C109.191 79.1107 108.953 79.3207 108.776 79.582C108.608 79.834 108.524 80.1 108.524 80.38V84.552C108.524 84.7107 108.468 84.8507 108.356 84.972C108.244 85.084 108.109 85.14 107.95 85.14ZM114.897 85.21C114.281 85.21 113.716 85.07 113.203 84.79C112.699 84.51 112.293 84.09 111.985 83.53C111.686 82.97 111.537 82.2793 111.537 81.458C111.537 80.674 111.677 79.9927 111.957 79.414C112.237 78.8353 112.615 78.3873 113.091 78.07C113.576 77.7433 114.127 77.58 114.743 77.58C115.219 77.58 115.648 77.6733 116.031 77.86C116.413 78.0373 116.735 78.2847 116.997 78.602C117.267 78.91 117.473 79.26 117.613 79.652C117.762 80.0347 117.837 80.436 117.837 80.856C117.837 81.1267 117.785 81.346 117.683 81.514C117.58 81.6727 117.37 81.752 117.053 81.752H112.685C112.722 82.3213 112.843 82.7833 113.049 83.138C113.254 83.4927 113.511 83.754 113.819 83.922C114.136 84.0807 114.481 84.16 114.855 84.16C115.359 84.16 115.76 84.0433 116.059 83.81C116.357 83.5767 116.563 83.3013 116.675 82.984C116.721 82.872 116.782 82.7787 116.857 82.704C116.941 82.62 117.053 82.578 117.193 82.578C117.351 82.578 117.477 82.6387 117.571 82.76C117.664 82.872 117.706 83.0213 117.697 83.208C117.687 83.3947 117.622 83.6047 117.501 83.838C117.379 84.062 117.202 84.2813 116.969 84.496C116.745 84.7013 116.46 84.8693 116.115 85C115.769 85.14 115.363 85.21 114.897 85.21ZM112.699 80.786H116.759C116.693 80.1513 116.488 79.6333 116.143 79.232C115.797 78.8213 115.326 78.616 114.729 78.616C114.197 78.616 113.744 78.798 113.371 79.162C113.007 79.526 112.783 80.0673 112.699 80.786ZM122.012 85.21C121.34 85.21 120.776 85.0327 120.318 84.678C119.87 84.3233 119.53 83.8567 119.296 83.278C119.072 82.6993 118.96 82.0787 118.96 81.416C118.96 80.716 119.082 80.0767 119.324 79.498C119.567 78.9193 119.922 78.4573 120.388 78.112C120.864 77.7573 121.438 77.58 122.11 77.58C122.502 77.58 122.843 77.6407 123.132 77.762C123.431 77.874 123.683 78.0233 123.888 78.21C124.094 78.3873 124.252 78.5787 124.364 78.784L124.252 78.812V75.354C124.252 75.1953 124.304 75.06 124.406 74.948C124.518 74.836 124.654 74.78 124.812 74.78C124.971 74.78 125.102 74.836 125.204 74.948C125.316 75.06 125.372 75.1953 125.372 75.354V84.524C125.372 84.692 125.316 84.8367 125.204 84.958C125.102 85.07 124.971 85.126 124.812 85.126C124.654 85.126 124.518 85.07 124.406 84.958C124.304 84.8367 124.252 84.692 124.252 84.524V83.866L124.35 83.88C124.248 84.1133 124.084 84.3327 123.86 84.538C123.646 84.734 123.38 84.8927 123.062 85.014C122.754 85.1447 122.404 85.21 122.012 85.21ZM122.236 84.16C122.899 84.1413 123.408 83.8847 123.762 83.39C124.126 82.8953 124.308 82.2373 124.308 81.416C124.308 80.5573 124.122 79.876 123.748 79.372C123.384 78.868 122.866 78.616 122.194 78.616C121.541 78.616 121.023 78.868 120.64 79.372C120.267 79.8667 120.08 80.5433 120.08 81.402C120.08 82.2607 120.267 82.9373 120.64 83.432C121.023 83.9267 121.555 84.1693 122.236 84.16ZM133.153 85.14C132.836 85.14 132.56 85.07 132.327 84.93C132.103 84.7807 131.93 84.5753 131.809 84.314C131.688 84.0433 131.627 83.7353 131.627 83.39V76.81C131.627 76.6513 131.678 76.5207 131.781 76.418C131.893 76.306 132.028 76.25 132.187 76.25C132.346 76.25 132.476 76.306 132.579 76.418C132.691 76.5207 132.747 76.6513 132.747 76.81V83.376C132.747 83.5533 132.775 83.7073 132.831 83.838C132.887 83.9593 133.004 84.02 133.181 84.02C133.302 84.02 133.391 83.992 133.447 83.936C133.512 83.88 133.578 83.8287 133.643 83.782C133.708 83.726 133.802 83.698 133.923 83.698C134.091 83.698 134.226 83.754 134.329 83.866C134.432 83.9687 134.483 84.0993 134.483 84.258C134.483 84.426 134.418 84.58 134.287 84.72C134.166 84.8507 134.002 84.9533 133.797 85.028C133.601 85.1027 133.386 85.14 133.153 85.14ZM131.179 78.812C131.03 78.812 130.899 78.7653 130.787 78.672C130.684 78.5693 130.633 78.4433 130.633 78.294C130.633 78.154 130.684 78.0373 130.787 77.944C130.899 77.8413 131.03 77.79 131.179 77.79H134.133C134.282 77.79 134.408 77.8413 134.511 77.944C134.623 78.0373 134.679 78.154 134.679 78.294C134.679 78.4433 134.623 78.5693 134.511 78.672C134.408 78.7653 134.282 78.812 134.133 78.812H131.179ZM139.08 85.21C138.427 85.21 137.853 85.0513 137.358 84.734C136.873 84.4073 136.49 83.9547 136.21 83.376C135.939 82.7973 135.804 82.13 135.804 81.374C135.804 80.618 135.939 79.9553 136.21 79.386C136.49 78.8167 136.873 78.3733 137.358 78.056C137.853 77.7387 138.427 77.58 139.08 77.58C139.743 77.58 140.321 77.7387 140.816 78.056C141.32 78.3733 141.712 78.8167 141.992 79.386C142.272 79.9553 142.412 80.618 142.412 81.374C142.412 82.13 142.272 82.7973 141.992 83.376C141.712 83.9547 141.32 84.4073 140.816 84.734C140.321 85.0513 139.743 85.21 139.08 85.21ZM139.08 84.16C139.771 84.16 140.307 83.9127 140.69 83.418C141.073 82.9233 141.264 82.242 141.264 81.374C141.264 80.5247 141.073 79.8527 140.69 79.358C140.307 78.8633 139.771 78.616 139.08 78.616C138.399 78.616 137.871 78.8633 137.498 79.358C137.125 79.8527 136.938 80.5247 136.938 81.374C136.938 82.242 137.125 82.9233 137.498 83.418C137.871 83.9127 138.399 84.16 139.08 84.16ZM148.364 85.14C148.206 85.14 148.07 85.084 147.958 84.972C147.856 84.8507 147.804 84.7107 147.804 84.552V75.354C147.804 75.1953 147.856 75.06 147.958 74.948C148.07 74.836 148.206 74.78 148.364 74.78C148.523 74.78 148.658 74.836 148.77 74.948C148.882 75.06 148.938 75.1953 148.938 75.354V84.552C148.938 84.7107 148.882 84.8507 148.77 84.972C148.658 85.084 148.523 85.14 148.364 85.14ZM152.994 85.21C152.471 85.21 152.019 85.1167 151.636 84.93C151.263 84.734 150.973 84.4727 150.768 84.146C150.572 83.8193 150.474 83.4553 150.474 83.054C150.474 82.4753 150.689 81.9807 151.118 81.57C151.557 81.15 152.257 80.884 153.218 80.772C153.619 80.7253 153.965 80.674 154.254 80.618C154.543 80.562 154.767 80.4687 154.926 80.338C155.094 80.2073 155.178 80.016 155.178 79.764C155.178 79.568 155.127 79.386 155.024 79.218C154.931 79.0407 154.772 78.896 154.548 78.784C154.333 78.672 154.044 78.616 153.68 78.616C153.195 78.616 152.831 78.714 152.588 78.91C152.345 79.0967 152.177 79.2833 152.084 79.47C152.019 79.5913 151.939 79.6847 151.846 79.75C151.753 79.8153 151.641 79.848 151.51 79.848C151.351 79.848 151.23 79.8013 151.146 79.708C151.062 79.6053 151.02 79.4793 151.02 79.33C151.02 79.1527 151.081 78.966 151.202 78.77C151.323 78.5647 151.501 78.3733 151.734 78.196C151.977 78.0093 152.266 77.86 152.602 77.748C152.947 77.636 153.339 77.58 153.778 77.58C154.413 77.58 154.912 77.7013 155.276 77.944C155.649 78.1773 155.915 78.4993 156.074 78.91C156.233 79.3113 156.312 79.7593 156.312 80.254V83.74C156.312 83.8333 156.321 83.9033 156.34 83.95C156.368 83.9967 156.415 84.0247 156.48 84.034C156.611 84.0433 156.723 84.0993 156.816 84.202C156.909 84.2953 156.956 84.4167 156.956 84.566C156.956 84.7247 156.891 84.86 156.76 84.972C156.639 85.084 156.466 85.14 156.242 85.14C155.962 85.14 155.743 85.0607 155.584 84.902C155.435 84.734 155.36 84.5287 155.36 84.286V84.048H155.318C155.085 84.3933 154.777 84.6733 154.394 84.888C154.021 85.1027 153.554 85.21 152.994 85.21ZM153.008 84.174C153.428 84.174 153.801 84.0853 154.128 83.908C154.464 83.7307 154.725 83.4927 154.912 83.194C155.108 82.8953 155.206 82.564 155.206 82.2V81.248C155.206 81.2293 155.197 81.22 155.178 81.22C155.169 81.2107 155.15 81.2247 155.122 81.262C154.982 81.374 154.791 81.4627 154.548 81.528C154.315 81.584 154.077 81.6307 153.834 81.668C153.591 81.7053 153.391 81.738 153.232 81.766C152.747 81.8407 152.35 81.9713 152.042 82.158C151.743 82.3447 151.594 82.6247 151.594 82.998C151.594 83.278 151.701 83.544 151.916 83.796C152.131 84.048 152.495 84.174 153.008 84.174ZM160.782 85.252C160.147 85.252 159.62 85.14 159.2 84.916C158.78 84.6827 158.463 84.412 158.248 84.104C158.033 83.7867 157.917 83.502 157.898 83.25C157.889 83.054 157.931 82.9047 158.024 82.802C158.127 82.69 158.253 82.634 158.402 82.634C158.542 82.634 158.654 82.676 158.738 82.76C158.822 82.8347 158.883 82.9233 158.92 83.026C159.032 83.3433 159.237 83.6233 159.536 83.866C159.835 84.0993 160.255 84.216 160.796 84.216C161.291 84.216 161.669 84.1133 161.93 83.908C162.191 83.6933 162.322 83.418 162.322 83.082C162.322 82.8207 162.243 82.6153 162.084 82.466C161.935 82.3073 161.725 82.1813 161.454 82.088C161.183 81.9947 160.871 81.9013 160.516 81.808C160.255 81.7333 159.984 81.654 159.704 81.57C159.424 81.4767 159.163 81.3553 158.92 81.206C158.677 81.0567 158.481 80.8653 158.332 80.632C158.183 80.3987 158.108 80.1047 158.108 79.75C158.108 79.358 158.211 78.9987 158.416 78.672C158.621 78.336 158.92 78.07 159.312 77.874C159.704 77.6687 160.171 77.566 160.712 77.566C161.263 77.566 161.725 77.6593 162.098 77.846C162.471 78.0327 162.756 78.2613 162.952 78.532C163.157 78.7933 163.265 79.0453 163.274 79.288C163.283 79.4653 163.246 79.6053 163.162 79.708C163.078 79.8107 162.957 79.862 162.798 79.862C162.695 79.862 162.593 79.834 162.49 79.778C162.387 79.722 162.299 79.6333 162.224 79.512C162.159 79.3813 162.07 79.246 161.958 79.106C161.855 78.9567 161.706 78.8353 161.51 78.742C161.314 78.6393 161.043 78.588 160.698 78.588C160.259 78.588 159.9 78.686 159.62 78.882C159.34 79.0687 159.2 79.3253 159.2 79.652C159.2 79.904 159.279 80.1 159.438 80.24C159.606 80.38 159.821 80.492 160.082 80.576C160.353 80.66 160.647 80.7487 160.964 80.842C161.263 80.926 161.557 81.0193 161.846 81.122C162.135 81.2153 162.397 81.3413 162.63 81.5C162.873 81.6493 163.064 81.8407 163.204 82.074C163.353 82.3073 163.428 82.5967 163.428 82.942C163.428 83.2873 163.339 83.642 163.162 84.006C162.994 84.3607 162.714 84.6593 162.322 84.902C161.939 85.1353 161.426 85.252 160.782 85.252ZM166.922 85.14C166.605 85.14 166.33 85.07 166.096 84.93C165.872 84.7807 165.7 84.5753 165.578 84.314C165.457 84.0433 165.396 83.7353 165.396 83.39V76.81C165.396 76.6513 165.448 76.5207 165.55 76.418C165.662 76.306 165.798 76.25 165.956 76.25C166.115 76.25 166.246 76.306 166.348 76.418C166.46 76.5207 166.516 76.6513 166.516 76.81V83.376C166.516 83.5533 166.544 83.7073 166.6 83.838C166.656 83.9593 166.773 84.02 166.95 84.02C167.072 84.02 167.16 83.992 167.216 83.936C167.282 83.88 167.347 83.8287 167.412 83.782C167.478 83.726 167.571 83.698 167.692 83.698C167.86 83.698 167.996 83.754 168.098 83.866C168.201 83.9687 168.252 84.0993 168.252 84.258C168.252 84.426 168.187 84.58 168.056 84.72C167.935 84.8507 167.772 84.9533 167.566 85.028C167.37 85.1027 167.156 85.14 166.922 85.14ZM164.948 78.812C164.799 78.812 164.668 78.7653 164.556 78.672C164.454 78.5693 164.402 78.4433 164.402 78.294C164.402 78.154 164.454 78.0373 164.556 77.944C164.668 77.8413 164.799 77.79 164.948 77.79H167.902C168.052 77.79 168.178 77.8413 168.28 77.944C168.392 78.0373 168.448 78.154 168.448 78.294C168.448 78.4433 168.392 78.5693 168.28 78.672C168.178 78.7653 168.052 78.812 167.902 78.812H164.948ZM174.409 85.14C174.25 85.14 174.115 85.084 174.003 84.972C173.9 84.86 173.849 84.72 173.849 84.552V78.224C173.849 78.056 173.9 77.9207 174.003 77.818C174.115 77.706 174.25 77.65 174.409 77.65C174.577 77.65 174.712 77.706 174.815 77.818C174.927 77.9207 174.983 78.056 174.983 78.224V79.078L174.745 78.882C174.941 78.574 175.16 78.3267 175.403 78.14C175.655 77.944 175.926 77.804 176.215 77.72C176.504 77.6267 176.798 77.58 177.097 77.58C177.638 77.58 178.114 77.7107 178.525 77.972C178.945 78.2333 179.253 78.6113 179.449 79.106L179.043 79.162C179.286 78.7513 179.552 78.434 179.841 78.21C180.13 77.9767 180.424 77.8133 180.723 77.72C181.031 77.6267 181.334 77.58 181.633 77.58C182.128 77.58 182.571 77.6873 182.963 77.902C183.355 78.1073 183.663 78.4107 183.887 78.812C184.111 79.204 184.223 79.68 184.223 80.24V84.552C184.223 84.72 184.172 84.86 184.069 84.972C183.966 85.084 183.836 85.14 183.677 85.14C183.509 85.14 183.369 85.084 183.257 84.972C183.154 84.86 183.103 84.72 183.103 84.552V80.282C183.103 79.7593 182.949 79.3533 182.641 79.064C182.342 78.7747 181.946 78.63 181.451 78.63C181.134 78.63 180.84 78.6953 180.569 78.826C180.298 78.9473 180.084 79.1293 179.925 79.372C179.766 79.6053 179.687 79.8947 179.687 80.24V84.552C179.687 84.72 179.631 84.86 179.519 84.972C179.416 85.084 179.286 85.14 179.127 85.14C178.959 85.14 178.819 85.084 178.707 84.972C178.604 84.86 178.553 84.72 178.553 84.552V80.282C178.553 79.7593 178.404 79.3533 178.105 79.064C177.806 78.7653 177.41 78.616 176.915 78.616C176.579 78.616 176.262 78.686 175.963 78.826C175.674 78.9567 175.436 79.148 175.249 79.4C175.072 79.6427 174.983 79.932 174.983 80.268V84.552C174.983 84.72 174.927 84.86 174.815 84.972C174.712 85.084 174.577 85.14 174.409 85.14ZM188.969 85.21C188.315 85.21 187.741 85.0513 187.247 84.734C186.761 84.4073 186.379 83.9547 186.099 83.376C185.828 82.7973 185.693 82.13 185.693 81.374C185.693 80.618 185.828 79.9553 186.099 79.386C186.379 78.8167 186.761 78.3733 187.247 78.056C187.741 77.7387 188.315 77.58 188.969 77.58C189.631 77.58 190.21 77.7387 190.705 78.056C191.209 78.3733 191.601 78.8167 191.881 79.386C192.161 79.9553 192.301 80.618 192.301 81.374C192.301 82.13 192.161 82.7973 191.881 83.376C191.601 83.9547 191.209 84.4073 190.705 84.734C190.21 85.0513 189.631 85.21 188.969 85.21ZM188.969 84.16C189.659 84.16 190.196 83.9127 190.579 83.418C190.961 82.9233 191.153 82.242 191.153 81.374C191.153 80.5247 190.961 79.8527 190.579 79.358C190.196 78.8633 189.659 78.616 188.969 78.616C188.287 78.616 187.76 78.8633 187.387 79.358C187.013 79.8527 186.827 80.5247 186.827 81.374C186.827 82.242 187.013 82.9233 187.387 83.418C187.76 83.9127 188.287 84.16 188.969 84.16ZM194.397 85.14C194.239 85.14 194.103 85.084 193.991 84.972C193.889 84.86 193.837 84.72 193.837 84.552V78.224C193.837 78.056 193.889 77.9207 193.991 77.818C194.103 77.706 194.239 77.65 194.397 77.65C194.565 77.65 194.701 77.706 194.803 77.818C194.915 77.9207 194.971 78.056 194.971 78.224V79.162L194.733 78.91C195.032 78.4527 195.387 78.1167 195.797 77.902C196.217 77.6873 196.665 77.58 197.141 77.58C197.645 77.58 198.098 77.6873 198.499 77.902C198.901 78.1073 199.213 78.4107 199.437 78.812C199.671 79.204 199.787 79.6893 199.787 80.268V84.552C199.787 84.72 199.736 84.86 199.633 84.972C199.531 85.084 199.395 85.14 199.227 85.14C199.05 85.14 198.91 85.084 198.807 84.972C198.705 84.86 198.653 84.72 198.653 84.552V80.31C198.653 79.778 198.495 79.3627 198.177 79.064C197.869 78.7653 197.459 78.616 196.945 78.616C196.6 78.616 196.278 78.686 195.979 78.826C195.681 78.966 195.438 79.1667 195.251 79.428C195.065 79.68 194.971 79.9833 194.971 80.338V84.552C194.971 84.72 194.915 84.86 194.803 84.972C194.701 85.084 194.565 85.14 194.397 85.14ZM203.631 85.14C203.314 85.14 203.039 85.07 202.805 84.93C202.581 84.7807 202.409 84.5753 202.287 84.314C202.166 84.0433 202.105 83.7353 202.105 83.39V76.81C202.105 76.6513 202.157 76.5207 202.259 76.418C202.371 76.306 202.507 76.25 202.665 76.25C202.824 76.25 202.955 76.306 203.057 76.418C203.169 76.5207 203.225 76.6513 203.225 76.81V83.376C203.225 83.5533 203.253 83.7073 203.309 83.838C203.365 83.9593 203.482 84.02 203.659 84.02C203.781 84.02 203.869 83.992 203.925 83.936C203.991 83.88 204.056 83.8287 204.121 83.782C204.187 83.726 204.28 83.698 204.401 83.698C204.569 83.698 204.705 83.754 204.807 83.866C204.91 83.9687 204.961 84.0993 204.961 84.258C204.961 84.426 204.896 84.58 204.765 84.72C204.644 84.8507 204.481 84.9533 204.275 85.028C204.079 85.1027 203.865 85.14 203.631 85.14ZM201.657 78.812C201.508 78.812 201.377 78.7653 201.265 78.672C201.163 78.5693 201.111 78.4433 201.111 78.294C201.111 78.154 201.163 78.0373 201.265 77.944C201.377 77.8413 201.508 77.79 201.657 77.79H204.611C204.761 77.79 204.887 77.8413 204.989 77.944C205.101 78.0373 205.157 78.154 205.157 78.294C205.157 78.4433 205.101 78.5693 204.989 78.672C204.887 78.7653 204.761 78.812 204.611 78.812H201.657ZM207.263 85.14C207.104 85.14 206.969 85.084 206.857 84.972C206.754 84.86 206.703 84.72 206.703 84.552V75.354C206.703 75.186 206.754 75.0507 206.857 74.948C206.969 74.836 207.104 74.78 207.263 74.78C207.431 74.78 207.566 74.836 207.669 74.948C207.781 75.0507 207.837 75.186 207.837 75.354V79.162L207.599 78.91C207.897 78.4527 208.247 78.1167 208.649 77.902C209.059 77.6873 209.503 77.58 209.979 77.58C210.473 77.58 210.917 77.6873 211.309 77.902C211.71 78.1073 212.023 78.4107 212.247 78.812C212.48 79.204 212.597 79.6893 212.597 80.268V84.552C212.597 84.72 212.545 84.86 212.443 84.972C212.34 85.084 212.205 85.14 212.037 85.14C211.878 85.14 211.743 85.084 211.631 84.972C211.528 84.86 211.477 84.72 211.477 84.552V80.31C211.477 79.778 211.323 79.3627 211.015 79.064C210.707 78.7653 210.305 78.616 209.811 78.616C209.465 78.616 209.139 78.686 208.831 78.826C208.532 78.966 208.289 79.1667 208.103 79.428C207.925 79.68 207.837 79.9833 207.837 80.338V84.552C207.837 84.72 207.781 84.86 207.669 84.972C207.566 85.084 207.431 85.14 207.263 85.14Z" fill="#2E2C28"/>
</g>
<defs>
<filter id="filter0_d_6004_17008" x="0" y="0" width="233" height="113" filterUnits="userSpaceOnUse" color-interpolation-filters="sRGB">
<feFlood flood-opacity="0" result="BackgroundImageFix"/>
<feColorMatrix in="SourceAlpha" type="matrix" values="0 0 0 0 0 0 0 0 0 0 0 0 0 0 0 0 0 0 127 0" result="hardAlpha"/>
<feOffset dy="4"/>
<feGaussianBlur stdDeviation="2"/>
<feComposite in2="hardAlpha" operator="out"/>
<feColorMatrix type="matrix" values="0 0 0 0 0 0 0 0 0 0 0 0 0 0 0 0 0 0 0.15 0"/>
<feBlend mode="normal" in2="BackgroundImageFix" result="effect1_dropShadow_6004_17008"/>
<feBlend mode="normal" in="SourceGraphic" in2="effect1_dropShadow_6004_17008" result="shape"/>
</filter>
<clipPath id="clip0_6004_17008">
<rect width="9" height="9" fill="white" transform="translate(24 75.5)"/>
</clipPath>
</defs>
</svg>
