<svg width="240" height="113" viewBox="0 0 240 113" fill="none" xmlns="http://www.w3.org/2000/svg">
<g filter="url(#filter0_d_6004_17006)">
<rect x="4" width="232" height="105" rx="16" fill="#E0F6EB" shape-rendering="crispEdges"/>
<rect x="4.5" y="0.5" width="231" height="104" rx="15.5" stroke="#BED9CB" shape-rendering="crispEdges"/>
<path d="M19.756 21.278C19.6067 21.278 19.476 21.2267 19.364 21.124C19.2613 21.0213 19.21 20.8907 19.21 20.732C19.21 20.5733 19.2613 20.4473 19.364 20.354C19.476 20.2513 19.6067 20.2 19.756 20.2H25.762C25.9207 20.2 26.0513 20.2513 26.154 20.354C26.2567 20.4473 26.308 20.5733 26.308 20.732C26.308 20.8907 26.2567 21.0213 26.154 21.124C26.0513 21.2267 25.9207 21.278 25.762 21.278H19.756ZM22.752 30.14C22.5933 30.14 22.458 30.084 22.346 29.972C22.2433 29.86 22.192 29.7247 22.192 29.566V20.802H23.34V29.566C23.34 29.7247 23.284 29.86 23.172 29.972C23.0693 30.084 22.9293 30.14 22.752 30.14ZM29.084 30.21C28.4307 30.21 27.8567 30.0513 27.362 29.734C26.8767 29.4073 26.494 28.9547 26.214 28.376C25.9434 27.7973 25.808 27.13 25.808 26.374C25.808 25.618 25.9434 24.9553 26.214 24.386C26.494 23.8167 26.8767 23.3733 27.362 23.056C27.8567 22.7387 28.4307 22.58 29.084 22.58C29.7467 22.58 30.3254 22.7387 30.82 23.056C31.324 23.3733 31.716 23.8167 31.996 24.386C32.276 24.9553 32.416 25.618 32.416 26.374C32.416 27.13 32.276 27.7973 31.996 28.376C31.716 28.9547 31.324 29.4073 30.82 29.734C30.3254 30.0513 29.7467 30.21 29.084 30.21ZM29.084 29.16C29.7747 29.16 30.3114 28.9127 30.694 28.418C31.0767 27.9233 31.268 27.242 31.268 26.374C31.268 25.5247 31.0767 24.8527 30.694 24.358C30.3114 23.8633 29.7747 23.616 29.084 23.616C28.4027 23.616 27.8754 23.8633 27.502 24.358C27.1287 24.8527 26.942 25.5247 26.942 26.374C26.942 27.242 27.1287 27.9233 27.502 28.418C27.8754 28.9127 28.4027 29.16 29.084 29.16ZM35.9127 30.14C35.5953 30.14 35.32 30.07 35.0867 29.93C34.8627 29.7807 34.69 29.5753 34.5687 29.314C34.4473 29.0433 34.3867 28.7353 34.3867 28.39V21.81C34.3867 21.6513 34.438 21.5207 34.5407 21.418C34.6527 21.306 34.788 21.25 34.9467 21.25C35.1053 21.25 35.236 21.306 35.3387 21.418C35.4507 21.5207 35.5067 21.6513 35.5067 21.81V28.376C35.5067 28.5533 35.5347 28.7073 35.5907 28.838C35.6467 28.9593 35.7633 29.02 35.9407 29.02C36.062 29.02 36.1507 28.992 36.2067 28.936C36.272 28.88 36.3373 28.8287 36.4027 28.782C36.468 28.726 36.5613 28.698 36.6827 28.698C36.8507 28.698 36.986 28.754 37.0887 28.866C37.1913 28.9687 37.2427 29.0993 37.2427 29.258C37.2427 29.426 37.1773 29.58 37.0467 29.72C36.9253 29.8507 36.762 29.9533 36.5567 30.028C36.3607 30.1027 36.146 30.14 35.9127 30.14ZM33.9387 23.812C33.7893 23.812 33.6587 23.7653 33.5467 23.672C33.444 23.5693 33.3927 23.4433 33.3927 23.294C33.3927 23.154 33.444 23.0373 33.5467 22.944C33.6587 22.8413 33.7893 22.79 33.9387 22.79H36.8927C37.042 22.79 37.168 22.8413 37.2707 22.944C37.3827 23.0373 37.4387 23.154 37.4387 23.294C37.4387 23.4433 37.3827 23.5693 37.2707 23.672C37.168 23.7653 37.042 23.812 36.8927 23.812H33.9387ZM41.0839 30.21C40.5612 30.21 40.1086 30.1167 39.7259 29.93C39.3526 29.734 39.0632 29.4727 38.8579 29.146C38.6619 28.8193 38.5639 28.4553 38.5639 28.054C38.5639 27.4753 38.7786 26.9807 39.2079 26.57C39.6466 26.15 40.3466 25.884 41.3079 25.772C41.7092 25.7253 42.0546 25.674 42.3439 25.618C42.6332 25.562 42.8572 25.4687 43.0159 25.338C43.1839 25.2073 43.2679 25.016 43.2679 24.764C43.2679 24.568 43.2166 24.386 43.1139 24.218C43.0206 24.0407 42.8619 23.896 42.6379 23.784C42.4232 23.672 42.1339 23.616 41.7699 23.616C41.2846 23.616 40.9206 23.714 40.6779 23.91C40.4352 24.0967 40.2672 24.2833 40.1739 24.47C40.1086 24.5913 40.0292 24.6847 39.9359 24.75C39.8426 24.8153 39.7306 24.848 39.5999 24.848C39.4412 24.848 39.3199 24.8013 39.2359 24.708C39.1519 24.6053 39.1099 24.4793 39.1099 24.33C39.1099 24.1527 39.1706 23.966 39.2919 23.77C39.4132 23.5647 39.5906 23.3733 39.8239 23.196C40.0666 23.0093 40.3559 22.86 40.6919 22.748C41.0372 22.636 41.4292 22.58 41.8679 22.58C42.5026 22.58 43.0019 22.7013 43.3659 22.944C43.7392 23.1773 44.0052 23.4993 44.1639 23.91C44.3226 24.3113 44.4019 24.7593 44.4019 25.254V28.74C44.4019 28.8333 44.4112 28.9033 44.4299 28.95C44.4579 28.9967 44.5046 29.0247 44.5699 29.034C44.7006 29.0433 44.8126 29.0993 44.9059 29.202C44.9992 29.2953 45.0459 29.4167 45.0459 29.566C45.0459 29.7247 44.9806 29.86 44.8499 29.972C44.7286 30.084 44.5559 30.14 44.3319 30.14C44.0519 30.14 43.8326 30.0607 43.6739 29.902C43.5246 29.734 43.4499 29.5287 43.4499 29.286V29.048H43.4079C43.1746 29.3933 42.8666 29.6733 42.4839 29.888C42.1106 30.1027 41.6439 30.21 41.0839 30.21ZM41.0979 29.174C41.5179 29.174 41.8912 29.0853 42.2179 28.908C42.5539 28.7307 42.8152 28.4927 43.0019 28.194C43.1979 27.8953 43.2959 27.564 43.2959 27.2V26.248C43.2959 26.2293 43.2866 26.22 43.2679 26.22C43.2586 26.2107 43.2399 26.2247 43.2119 26.262C43.0719 26.374 42.8806 26.4627 42.6379 26.528C42.4046 26.584 42.1666 26.6307 41.9239 26.668C41.6812 26.7053 41.4806 26.738 41.3219 26.766C40.8366 26.8407 40.4399 26.9713 40.1319 27.158C39.8332 27.3447 39.6839 27.6247 39.6839 27.998C39.6839 28.278 39.7912 28.544 40.0059 28.796C40.2206 29.048 40.5846 29.174 41.0979 29.174ZM46.9677 30.14C46.8091 30.14 46.6737 30.084 46.5617 29.972C46.4591 29.8507 46.4077 29.7107 46.4077 29.552V20.354C46.4077 20.1953 46.4591 20.06 46.5617 19.948C46.6737 19.836 46.8091 19.78 46.9677 19.78C47.1264 19.78 47.2617 19.836 47.3737 19.948C47.4857 20.06 47.5417 20.1953 47.5417 20.354V29.552C47.5417 29.7107 47.4857 29.8507 47.3737 29.972C47.2617 30.084 47.1264 30.14 46.9677 30.14ZM54.067 30.14C53.9084 30.14 53.773 30.084 53.661 29.972C53.549 29.86 53.493 29.7247 53.493 29.566V20.774C53.493 20.6153 53.549 20.48 53.661 20.368C53.773 20.256 53.9084 20.2 54.067 20.2H54.641V29.566C54.641 29.7247 54.585 29.86 54.473 29.972C54.3704 30.084 54.235 30.14 54.067 30.14ZM54.165 25.968V24.904H57.273C57.637 24.904 57.9497 24.8293 58.211 24.68C58.4817 24.5213 58.687 24.3067 58.827 24.036C58.9764 23.756 59.051 23.4387 59.051 23.084C59.051 22.7293 58.9764 22.4167 58.827 22.146C58.687 21.8753 58.4817 21.6653 58.211 21.516C57.9497 21.3573 57.6417 21.278 57.287 21.278H54.165V20.2H57.315C57.8657 20.2 58.3604 20.326 58.799 20.578C59.2377 20.83 59.583 21.1707 59.835 21.6C60.087 22.0293 60.213 22.5193 60.213 23.07C60.213 23.63 60.087 24.1293 59.835 24.568C59.5924 24.9973 59.261 25.338 58.841 25.59C58.4304 25.842 57.9684 25.968 57.455 25.968H54.165ZM61.8974 30.14C61.7388 30.14 61.6034 30.084 61.4914 29.972C61.3888 29.8507 61.3374 29.7107 61.3374 29.552V23.224C61.3374 23.0653 61.3888 22.93 61.4914 22.818C61.6034 22.706 61.7388 22.65 61.8974 22.65C62.0561 22.65 62.1914 22.706 62.3034 22.818C62.4154 22.93 62.4714 23.0653 62.4714 23.224V24.176L62.3314 23.896C62.4248 23.7 62.5648 23.4993 62.7514 23.294C62.9474 23.0887 63.1808 22.9207 63.4514 22.79C63.7314 22.65 64.0534 22.58 64.4174 22.58C64.6134 22.58 64.7674 22.6313 64.8794 22.734C65.0008 22.8367 65.0614 22.9673 65.0614 23.126C65.0614 23.2847 65.0054 23.42 64.8934 23.532C64.7814 23.644 64.6414 23.7 64.4734 23.7C64.0814 23.7 63.7361 23.784 63.4374 23.952C63.1388 24.1107 62.9008 24.3207 62.7234 24.582C62.5554 24.834 62.4714 25.1 62.4714 25.38V29.552C62.4714 29.7107 62.4154 29.8507 62.3034 29.972C62.1914 30.084 62.0561 30.14 61.8974 30.14ZM68.7598 30.21C68.1065 30.21 67.5325 30.0513 67.0378 29.734C66.5525 29.4073 66.1698 28.9547 65.8898 28.376C65.6192 27.7973 65.4838 27.13 65.4838 26.374C65.4838 25.618 65.6192 24.9553 65.8898 24.386C66.1698 23.8167 66.5525 23.3733 67.0378 23.056C67.5325 22.7387 68.1065 22.58 68.7598 22.58C69.4225 22.58 70.0012 22.7387 70.4958 23.056C70.9998 23.3733 71.3918 23.8167 71.6718 24.386C71.9518 24.9553 72.0918 25.618 72.0918 26.374C72.0918 27.13 71.9518 27.7973 71.6718 28.376C71.3918 28.9547 70.9998 29.4073 70.4958 29.734C70.0012 30.0513 69.4225 30.21 68.7598 30.21ZM68.7598 29.16C69.4505 29.16 69.9872 28.9127 70.3698 28.418C70.7525 27.9233 70.9438 27.242 70.9438 26.374C70.9438 25.5247 70.7525 24.8527 70.3698 24.358C69.9872 23.8633 69.4505 23.616 68.7598 23.616C68.0785 23.616 67.5512 23.8633 67.1778 24.358C66.8045 24.8527 66.6178 25.5247 66.6178 26.374C66.6178 27.242 66.8045 27.9233 67.1778 28.418C67.5512 28.9127 68.0785 29.16 68.7598 29.16ZM74.3704 30.14C74.2211 30.14 74.0858 30.084 73.9644 29.972C73.8524 29.86 73.7964 29.7293 73.7964 29.58V21.712C73.7964 21.2733 73.8664 20.9093 74.0064 20.62C74.1464 20.3213 74.3378 20.0973 74.5804 19.948C74.8324 19.7893 75.1124 19.71 75.4204 19.71C75.6444 19.71 75.8544 19.752 76.0504 19.836C76.2558 19.9107 76.4238 20.0133 76.5544 20.144C76.6851 20.2747 76.7504 20.424 76.7504 20.592C76.7504 20.7413 76.6991 20.8673 76.5964 20.97C76.5031 21.0727 76.3724 21.124 76.2044 21.124C76.0924 21.124 76.0038 21.1007 75.9384 21.054C75.8731 20.998 75.8078 20.9467 75.7424 20.9C75.6771 20.8533 75.5791 20.83 75.4484 20.83C75.2618 20.83 75.1264 20.9093 75.0424 21.068C74.9678 21.2173 74.9304 21.4413 74.9304 21.74V29.58C74.9304 29.7293 74.8744 29.86 74.7624 29.972C74.6598 30.084 74.5291 30.14 74.3704 30.14ZM73.3624 23.812C73.2131 23.812 73.0824 23.7653 72.9704 23.672C72.8678 23.5693 72.8164 23.448 72.8164 23.308C72.8164 23.1587 72.8678 23.0373 72.9704 22.944C73.0824 22.8413 73.2131 22.79 73.3624 22.79H76.1624C76.3118 22.79 76.4378 22.8413 76.5404 22.944C76.6524 23.0467 76.7084 23.168 76.7084 23.308C76.7084 23.448 76.6524 23.5693 76.5404 23.672C76.4378 23.7653 76.3118 23.812 76.1624 23.812H73.3624ZM78.3324 30.14C78.1644 30.14 78.0244 30.0887 77.9124 29.986C77.8098 29.874 77.7584 29.7387 77.7584 29.58V23.21C77.7584 23.0513 77.8098 22.9207 77.9124 22.818C78.0244 22.706 78.1644 22.65 78.3324 22.65C78.4911 22.65 78.6218 22.706 78.7244 22.818C78.8364 22.9207 78.8924 23.0513 78.8924 23.21V29.58C78.8924 29.7387 78.8364 29.874 78.7244 29.986C78.6218 30.0887 78.4911 30.14 78.3324 30.14ZM78.3184 21.796C78.1131 21.796 77.9451 21.7307 77.8144 21.6C77.6838 21.46 77.6184 21.2593 77.6184 20.998C77.6184 20.7553 77.6838 20.564 77.8144 20.424C77.9451 20.284 78.1131 20.214 78.3184 20.214C78.5331 20.214 78.7058 20.284 78.8364 20.424C78.9671 20.564 79.0324 20.7553 79.0324 20.998C79.0324 21.2593 78.9671 21.46 78.8364 21.6C78.7058 21.7307 78.5331 21.796 78.3184 21.796ZM82.8072 30.14C82.4899 30.14 82.2145 30.07 81.9812 29.93C81.7572 29.7807 81.5845 29.5753 81.4632 29.314C81.3419 29.0433 81.2812 28.7353 81.2812 28.39V21.81C81.2812 21.6513 81.3325 21.5207 81.4352 21.418C81.5472 21.306 81.6825 21.25 81.8412 21.25C81.9999 21.25 82.1305 21.306 82.2332 21.418C82.3452 21.5207 82.4012 21.6513 82.4012 21.81V28.376C82.4012 28.5533 82.4292 28.7073 82.4852 28.838C82.5412 28.9593 82.6579 29.02 82.8352 29.02C82.9565 29.02 83.0452 28.992 83.1012 28.936C83.1665 28.88 83.2319 28.8287 83.2972 28.782C83.3625 28.726 83.4559 28.698 83.5772 28.698C83.7452 28.698 83.8805 28.754 83.9832 28.866C84.0859 28.9687 84.1372 29.0993 84.1372 29.258C84.1372 29.426 84.0719 29.58 83.9412 29.72C83.8199 29.8507 83.6565 29.9533 83.4512 30.028C83.2552 30.1027 83.0405 30.14 82.8072 30.14ZM80.8332 23.812C80.6839 23.812 80.5532 23.7653 80.4412 23.672C80.3385 23.5693 80.2872 23.4433 80.2872 23.294C80.2872 23.154 80.3385 23.0373 80.4412 22.944C80.5532 22.8413 80.6839 22.79 80.8332 22.79H83.7872C83.9365 22.79 84.0625 22.8413 84.1652 22.944C84.2772 23.0373 84.3332 23.154 84.3332 23.294C84.3332 23.4433 84.2772 23.5693 84.1652 23.672C84.0625 23.7653 83.9365 23.812 83.7872 23.812H80.8332Z" fill="#2E2C28"/>
<path d="M26.2 61C24.952 61 23.856 60.808 22.912 60.424C21.984 60.024 21.256 59.52 20.728 58.912C20.216 58.288 19.96 57.648 19.96 56.992C19.96 56.592 20.08 56.264 20.32 56.008C20.576 55.736 20.912 55.6 21.328 55.6C21.728 55.6 22.016 55.712 22.192 55.936C22.384 56.144 22.56 56.4 22.72 56.704C22.944 57.152 23.32 57.552 23.848 57.904C24.392 58.256 25.144 58.432 26.104 58.432C26.648 58.432 27.152 58.368 27.616 58.24C28.08 58.096 28.448 57.872 28.72 57.568C29.008 57.264 29.152 56.856 29.152 56.344C29.152 55.896 29.024 55.536 28.768 55.264C28.528 54.976 28.16 54.72 27.664 54.496C27.168 54.256 26.544 54 25.792 53.728C25.216 53.52 24.632 53.304 24.04 53.08C23.448 52.84 22.912 52.544 22.432 52.192C21.952 51.84 21.56 51.392 21.256 50.848C20.968 50.304 20.824 49.616 20.824 48.784C20.824 47.808 21.056 46.992 21.52 46.336C21.984 45.68 22.608 45.184 23.392 44.848C24.192 44.512 25.088 44.344 26.08 44.344C26.816 44.344 27.496 44.44 28.12 44.632C28.76 44.808 29.312 45.056 29.776 45.376C30.24 45.68 30.608 46.04 30.88 46.456C31.152 46.856 31.304 47.28 31.336 47.728C31.352 48.128 31.24 48.464 31 48.736C30.76 48.992 30.432 49.12 30.016 49.12C29.664 49.12 29.408 49.056 29.248 48.928C29.104 48.784 28.944 48.56 28.768 48.256C28.56 47.84 28.24 47.512 27.808 47.272C27.392 47.032 26.84 46.912 26.152 46.912C25.672 46.912 25.24 46.984 24.856 47.128C24.488 47.256 24.2 47.456 23.992 47.728C23.784 47.984 23.68 48.296 23.68 48.664C23.68 49.16 23.84 49.56 24.16 49.864C24.48 50.168 24.904 50.432 25.432 50.656C25.96 50.864 26.52 51.08 27.112 51.304C27.864 51.576 28.536 51.856 29.128 52.144C29.736 52.432 30.248 52.76 30.664 53.128C31.096 53.48 31.424 53.912 31.648 54.424C31.888 54.92 32.008 55.512 32.008 56.2C32.008 57.224 31.768 58.096 31.288 58.816C30.808 59.52 30.128 60.064 29.248 60.448C28.384 60.816 27.368 61 26.2 61ZM26.272 63.376C26 63.376 25.76 63.272 25.552 63.064C25.36 62.872 25.264 62.64 25.264 62.368V43.072C25.264 42.784 25.36 42.544 25.552 42.352C25.76 42.16 26 42.064 26.272 42.064C26.56 42.064 26.8 42.16 26.992 42.352C27.184 42.544 27.28 42.784 27.28 43.072V62.368C27.28 62.64 27.184 62.872 26.992 63.064C26.8 63.272 26.56 63.376 26.272 63.376ZM38.0088 59.464L38.1048 46.888L39.3528 46.672L37.0728 49.072C36.8168 49.328 36.5768 49.504 36.3528 49.6C36.1448 49.696 35.9448 49.744 35.7528 49.744C35.3848 49.744 35.0728 49.616 34.8168 49.36C34.5608 49.088 34.4328 48.776 34.4328 48.424C34.4328 48.024 34.5768 47.696 34.8648 47.44L38.0808 44.512C38.2568 44.368 38.4408 44.24 38.6328 44.128C38.8408 44.016 39.0728 43.96 39.3288 43.96C39.7608 43.944 40.1128 44.064 40.3848 44.32C40.6568 44.56 40.7928 44.904 40.7928 45.352L40.8168 59.464H38.0088ZM35.6568 61C35.2728 61 34.9528 60.872 34.6968 60.616C34.4568 60.344 34.3368 60.032 34.3368 59.68C34.3368 59.312 34.4568 59 34.6968 58.744C34.9528 58.488 35.2728 58.36 35.6568 58.36H42.7608C43.1448 58.36 43.4568 58.488 43.6968 58.744C43.9528 59 44.0808 59.312 44.0808 59.68C44.0808 60.032 43.9528 60.344 43.6968 60.616C43.4568 60.872 43.1448 61 42.7608 61H35.6568ZM55.4791 61.24C55.0951 61.24 54.7671 61.104 54.4951 60.832C54.2231 60.56 54.0871 60.232 54.0871 59.848L54.3271 45.664L56.0791 45.856L48.2071 55.168L47.1511 53.92L58.0711 53.824C58.4551 53.824 58.7751 53.944 59.0311 54.184C59.3031 54.424 59.4391 54.728 59.4391 55.096C59.4391 55.48 59.3031 55.808 59.0311 56.08C58.7751 56.352 58.4551 56.488 58.0711 56.488H47.3191C46.9031 56.488 46.5271 56.344 46.1911 56.056C45.8711 55.752 45.7111 55.376 45.7111 54.928C45.7111 54.704 45.7591 54.472 45.8551 54.232C45.9671 53.992 46.0951 53.776 46.2391 53.584L53.5591 44.728C53.8311 44.408 54.1031 44.2 54.3751 44.104C54.6471 43.992 54.9191 43.936 55.1911 43.936C55.7831 43.936 56.2071 44.088 56.4631 44.392C56.7351 44.696 56.8711 45.032 56.8711 45.4V59.848C56.8711 60.232 56.7351 60.56 56.4631 60.832C56.1911 61.104 55.8631 61.24 55.4791 61.24ZM66.9694 61.384C65.8014 61.384 64.7774 61.168 63.8974 60.736C63.0334 60.304 62.3534 59.768 61.8574 59.128C61.3614 58.472 61.0814 57.816 61.0174 57.16C61.0014 56.76 61.1134 56.44 61.3534 56.2C61.5934 55.96 61.9054 55.84 62.2894 55.84C62.5934 55.84 62.8334 55.928 63.0094 56.104C63.2014 56.264 63.3694 56.464 63.5134 56.704C63.8334 57.344 64.2734 57.856 64.8334 58.24C65.3934 58.624 66.0654 58.816 66.8494 58.816C67.5534 58.816 68.1694 58.664 68.6974 58.36C69.2414 58.04 69.6574 57.608 69.9454 57.064C70.2494 56.504 70.4014 55.888 70.4014 55.216C70.4014 54.528 70.2494 53.92 69.9454 53.392C69.6574 52.848 69.2414 52.424 68.6974 52.12C68.1694 51.8 67.5374 51.64 66.8014 51.64C66.3374 51.64 65.9454 51.704 65.6254 51.832C65.3214 51.96 65.0494 52.104 64.8094 52.264C64.5854 52.408 64.3614 52.544 64.1374 52.672C63.9134 52.784 63.6574 52.84 63.3694 52.84C62.9694 52.84 62.6654 52.728 62.4574 52.504C62.2494 52.264 62.1694 51.928 62.2174 51.496L62.8894 45.64C62.9374 45.176 63.1294 44.824 63.4654 44.584C63.8014 44.328 64.1614 44.2 64.5454 44.2H70.5214C70.9054 44.2 71.2254 44.336 71.4814 44.608C71.7534 44.864 71.8894 45.176 71.8894 45.544C71.8894 45.896 71.7534 46.216 71.4814 46.504C71.2094 46.776 70.8414 46.904 70.3774 46.888L64.0894 46.768L65.6014 45.832L64.9054 51.4L63.2014 51.04C63.8414 50.496 64.4894 50.088 65.1454 49.816C65.8174 49.544 66.5534 49.408 67.3534 49.408C68.4894 49.408 69.4894 49.648 70.3534 50.128C71.2334 50.608 71.9214 51.288 72.4174 52.168C72.9134 53.032 73.1614 54.048 73.1614 55.216C73.1614 56.384 72.9054 57.44 72.3934 58.384C71.8814 59.312 71.1614 60.048 70.2334 60.592C69.3214 61.12 68.2334 61.384 66.9694 61.384ZM81.8502 61.336C80.5062 61.336 79.3542 61 78.3942 60.328C77.4502 59.656 76.7222 58.704 76.2102 57.472C75.6982 56.224 75.4422 54.752 75.4422 53.056C75.4422 51.248 75.7222 49.656 76.2822 48.28C76.8582 46.888 77.6422 45.808 78.6342 45.04C79.6422 44.256 80.8022 43.864 82.1142 43.864C82.8342 43.864 83.5062 43.976 84.1302 44.2C84.7702 44.424 85.3302 44.728 85.8102 45.112C86.2902 45.48 86.6582 45.88 86.9142 46.312C87.1862 46.744 87.3302 47.176 87.3462 47.608C87.3622 47.976 87.2502 48.296 87.0102 48.568C86.7862 48.824 86.4822 48.952 86.0982 48.952C85.7622 48.952 85.4902 48.872 85.2822 48.712C85.0902 48.536 84.9302 48.344 84.8022 48.136C84.5622 47.64 84.2182 47.232 83.7702 46.912C83.3382 46.576 82.7942 46.408 82.1382 46.408C81.4502 46.408 80.8342 46.608 80.2902 47.008C79.7462 47.392 79.3062 47.952 78.9702 48.688C78.6342 49.408 78.4182 50.288 78.3222 51.328C78.8982 50.88 79.5142 50.528 80.1702 50.272C80.8262 50 81.5062 49.864 82.2102 49.864C83.2502 49.864 84.1942 50.096 85.0422 50.56C85.8902 51.024 86.5702 51.68 87.0822 52.528C87.5942 53.376 87.8502 54.376 87.8502 55.528C87.8502 56.584 87.6102 57.552 87.1302 58.432C86.6662 59.312 85.9862 60.016 85.0902 60.544C84.2102 61.072 83.1302 61.336 81.8502 61.336ZM78.3222 54.376C78.4822 55.784 78.8662 56.872 79.4742 57.64C80.0822 58.392 80.8662 58.768 81.8262 58.768C82.4662 58.768 83.0342 58.616 83.5302 58.312C84.0422 58.008 84.4342 57.6 84.7062 57.088C84.9942 56.576 85.1382 56.016 85.1382 55.408C85.1382 54.8 85.0022 54.272 84.7302 53.824C84.4582 53.36 84.0822 53 83.6022 52.744C83.1382 52.472 82.6182 52.336 82.0422 52.336C81.6262 52.336 81.2102 52.416 80.7942 52.576C80.3942 52.736 79.9862 52.968 79.5702 53.272C79.1702 53.56 78.7542 53.928 78.3222 54.376Z" fill="#267F53"/>
<rect x="19" y="70" width="47" height="20" rx="5" fill="#267F53"/>
<g clip-path="url(#clip0_6004_17006)">
<path d="M32.3078 76.0176L24.3105 82.9379L24.3082 82.9402C24.0533 83.1765 23.9513 83.4781 24.0221 83.788C24.094 84.1056 24.3478 84.3791 24.6538 84.4679C24.7276 84.4894 24.8014 84.5 24.8741 84.5C25.096 84.5 25.3095 84.4018 25.4925 84.2117L32.6236 76.2906L32.3078 76.0176Z" fill="white"/>
<path d="M32.6876 76.2182C32.7134 76.0003 32.5285 75.8254 32.3177 75.8598C30.6105 76.138 28.7413 76.0484 27.1483 75.5034C26.7472 75.4623 26.394 75.7957 26.4173 76.2272C26.4359 76.5695 26.7183 76.8367 27.0501 76.8688C28.3314 76.9932 30.5009 76.9603 31.6121 76.9326C31.5828 78.0812 31.5471 80.3205 31.6681 81.6374C31.6993 81.9785 31.9592 82.2688 32.2922 82.288C32.7119 82.3118 33.0362 81.9488 32.9962 81.5364C32.4159 79.3151 32.5783 77.1258 32.6872 76.2182H32.6876Z" fill="white"/>
</g>
<path d="M40.336 82.416C40.2 82.416 40.084 82.376 39.988 82.296C39.892 82.208 39.844 82.1 39.844 81.972V77.424C39.844 77.296 39.892 77.188 39.988 77.1C40.084 77.012 40.2 76.968 40.336 76.968C40.472 76.968 40.584 77.012 40.672 77.1C40.768 77.188 40.816 77.296 40.816 77.424V81.972C40.816 82.1 40.768 82.208 40.672 82.296C40.584 82.376 40.472 82.416 40.336 82.416ZM38.176 80.136C38.048 80.136 37.94 80.092 37.852 80.004C37.764 79.916 37.72 79.812 37.72 79.692C37.72 79.564 37.764 79.456 37.852 79.368C37.94 79.28 38.048 79.236 38.176 79.236H42.484C42.612 79.236 42.72 79.28 42.808 79.368C42.896 79.456 42.94 79.564 42.94 79.692C42.94 79.812 42.896 79.916 42.808 80.004C42.72 80.092 42.612 80.136 42.484 80.136H38.176ZM47.2923 84.18C46.9003 84.18 46.5243 84.12 46.1643 84C45.8043 83.888 45.4803 83.72 45.1923 83.496C44.9043 83.272 44.6763 82.996 44.5083 82.668C44.3403 82.34 44.2563 81.964 44.2563 81.54C44.2563 81.212 44.3083 80.924 44.4123 80.676C44.5163 80.42 44.6483 80.192 44.8083 79.992C44.9763 79.792 45.1563 79.62 45.3483 79.476C45.1163 79.316 44.9203 79.108 44.7603 78.852C44.6083 78.596 44.5323 78.264 44.5323 77.856C44.5323 77.304 44.6683 76.848 44.9403 76.488C45.2123 76.128 45.5603 75.86 45.9843 75.684C46.4163 75.508 46.8603 75.42 47.3163 75.42C47.6283 75.42 47.9403 75.464 48.2523 75.552C48.5723 75.632 48.8683 75.76 49.1403 75.936C49.4123 76.112 49.6283 76.34 49.7883 76.62C49.9563 76.892 50.0403 77.224 50.0403 77.616C50.0403 78.056 49.9363 78.44 49.7283 78.768C49.5283 79.096 49.2843 79.38 48.9963 79.62C49.3323 79.796 49.6203 80.044 49.8603 80.364C50.1003 80.684 50.2203 81.1 50.2203 81.612C50.2203 82.148 50.0843 82.608 49.8123 82.992C49.5403 83.376 49.1803 83.672 48.7323 83.88C48.2923 84.08 47.8123 84.18 47.2923 84.18ZM47.2923 83.268C47.6443 83.268 47.9683 83.204 48.2643 83.076C48.5683 82.94 48.8083 82.748 48.9843 82.5C49.1683 82.252 49.2603 81.956 49.2603 81.612C49.2603 81.268 49.1563 80.984 48.9483 80.76C48.7483 80.536 48.4283 80.356 47.9883 80.22C47.5563 80.076 46.9843 79.952 46.2723 79.848C46.0883 79.968 45.9163 80.108 45.7563 80.268C45.5963 80.42 45.4643 80.596 45.3603 80.796C45.2643 80.996 45.2163 81.228 45.2163 81.492C45.2163 81.844 45.3083 82.156 45.4923 82.428C45.6843 82.692 45.9363 82.9 46.2483 83.052C46.5683 83.196 46.9163 83.268 47.2923 83.268ZM48.0603 79.26C48.3723 79.052 48.6203 78.816 48.8043 78.552C48.9883 78.288 49.0803 78.004 49.0803 77.7C49.0803 77.388 48.9923 77.132 48.8163 76.932C48.6403 76.724 48.4123 76.572 48.1323 76.476C47.8603 76.38 47.5723 76.332 47.2683 76.332C46.9563 76.332 46.6643 76.384 46.3923 76.488C46.1203 76.592 45.9003 76.752 45.7323 76.968C45.5723 77.184 45.4923 77.46 45.4923 77.796C45.4923 78.084 45.5683 78.32 45.7203 78.504C45.8723 78.68 46.1363 78.824 46.5123 78.936C46.8883 79.048 47.4043 79.156 48.0603 79.26ZM52.8804 84.18C52.7604 84.18 52.6564 84.14 52.5684 84.06C52.4884 83.988 52.4404 83.896 52.4244 83.784C52.4084 83.672 52.4364 83.564 52.5084 83.46L58.0044 75.672C58.0444 75.608 58.0964 75.556 58.1604 75.516C58.2324 75.476 58.3084 75.456 58.3884 75.456C58.5164 75.456 58.6204 75.496 58.7004 75.576C58.7804 75.648 58.8284 75.74 58.8444 75.852C58.8604 75.964 58.8324 76.076 58.7604 76.188L53.2644 83.976C53.2244 84.032 53.1684 84.08 53.0964 84.12C53.0324 84.16 52.9604 84.18 52.8804 84.18ZM53.1564 79.536C52.7884 79.536 52.4484 79.444 52.1364 79.26C51.8244 79.068 51.5764 78.816 51.3924 78.504C51.2084 78.192 51.1164 77.852 51.1164 77.484C51.1164 77.108 51.2084 76.764 51.3924 76.452C51.5764 76.14 51.8244 75.892 52.1364 75.708C52.4484 75.524 52.7884 75.432 53.1564 75.432C53.5324 75.432 53.8764 75.524 54.1884 75.708C54.5004 75.892 54.7484 76.14 54.9324 76.452C55.1164 76.764 55.2084 77.108 55.2084 77.484C55.2084 77.852 55.1164 78.192 54.9324 78.504C54.7484 78.816 54.5004 79.068 54.1884 79.26C53.8764 79.444 53.5324 79.536 53.1564 79.536ZM53.1564 78.66C53.3804 78.66 53.5764 78.608 53.7444 78.504C53.9124 78.392 54.0444 78.248 54.1404 78.072C54.2364 77.896 54.2844 77.7 54.2844 77.484C54.2844 77.156 54.1804 76.88 53.9724 76.656C53.7644 76.432 53.4924 76.32 53.1564 76.32C52.9484 76.32 52.7564 76.372 52.5804 76.476C52.4124 76.58 52.2804 76.72 52.1844 76.896C52.0884 77.064 52.0404 77.26 52.0404 77.484C52.0404 77.7 52.0884 77.896 52.1844 78.072C52.2804 78.248 52.4124 78.392 52.5804 78.504C52.7564 78.608 52.9484 78.66 53.1564 78.66ZM58.1724 84.168C57.8044 84.168 57.4644 84.076 57.1524 83.892C56.8404 83.7 56.5924 83.448 56.4084 83.136C56.2244 82.816 56.1324 82.472 56.1324 82.104C56.1324 81.728 56.2244 81.384 56.4084 81.072C56.5924 80.76 56.8404 80.512 57.1524 80.328C57.4644 80.144 57.8044 80.052 58.1724 80.052C58.5484 80.052 58.8924 80.144 59.2044 80.328C59.5164 80.512 59.7644 80.76 59.9484 81.072C60.1324 81.384 60.2244 81.728 60.2244 82.104C60.2244 82.472 60.1324 82.816 59.9484 83.136C59.7644 83.448 59.5164 83.7 59.2044 83.892C58.8924 84.076 58.5484 84.168 58.1724 84.168ZM58.1724 83.268C58.3964 83.268 58.5924 83.216 58.7604 83.112C58.9284 83.008 59.0604 82.868 59.1564 82.692C59.2524 82.516 59.3004 82.32 59.3004 82.104C59.3004 81.776 59.1964 81.5 58.9884 81.276C58.7804 81.052 58.5084 80.94 58.1724 80.94C57.9644 80.94 57.7724 80.992 57.5964 81.096C57.4284 81.2 57.2964 81.34 57.2004 81.516C57.1044 81.684 57.0564 81.88 57.0564 82.104C57.0564 82.32 57.1044 82.516 57.2004 82.692C57.2964 82.868 57.4284 83.008 57.5964 83.112C57.7724 83.216 57.9644 83.268 58.1724 83.268Z" fill="white"/>
<path d="M74.78 85.21C74.1267 85.21 73.5573 85.0467 73.072 84.72C72.5867 84.384 72.2133 83.9267 71.952 83.348C71.6907 82.7693 71.56 82.116 71.56 81.388C71.56 80.6507 71.6907 79.9973 71.952 79.428C72.2227 78.8587 72.6007 78.4107 73.086 78.084C73.5713 77.748 74.1407 77.58 74.794 77.58C75.3353 77.58 75.7927 77.6827 76.166 77.888C76.5487 78.084 76.8427 78.3173 77.048 78.588C77.2533 78.8587 77.3653 79.1107 77.384 79.344C77.412 79.54 77.37 79.6893 77.258 79.792C77.1553 79.8947 77.0293 79.946 76.88 79.946C76.7307 79.946 76.6187 79.9087 76.544 79.834C76.4693 79.7593 76.4087 79.6753 76.362 79.582C76.2407 79.33 76.054 79.106 75.802 78.91C75.55 78.7047 75.2093 78.602 74.78 78.602C74.332 78.602 73.954 78.7233 73.646 78.966C73.338 79.1993 73.1 79.526 72.932 79.946C72.7733 80.366 72.694 80.842 72.694 81.374C72.694 82.2233 72.8807 82.9 73.254 83.404C73.6367 83.908 74.15 84.16 74.794 84.16C75.2887 84.16 75.6713 84.0293 75.942 83.768C76.222 83.5067 76.418 83.2127 76.53 82.886C76.5767 82.7553 76.642 82.648 76.726 82.564C76.81 82.48 76.922 82.438 77.062 82.438C77.2207 82.438 77.3467 82.494 77.44 82.606C77.5427 82.718 77.5847 82.872 77.566 83.068C77.5567 83.2453 77.4867 83.4553 77.356 83.698C77.2347 83.9407 77.0573 84.1787 76.824 84.412C76.6 84.6453 76.3153 84.8367 75.97 84.986C75.634 85.1353 75.2373 85.21 74.78 85.21ZM81.8907 85.21C81.2374 85.21 80.6634 85.0513 80.1687 84.734C79.6834 84.4073 79.3007 83.9547 79.0207 83.376C78.75 82.7973 78.6147 82.13 78.6147 81.374C78.6147 80.618 78.75 79.9553 79.0207 79.386C79.3007 78.8167 79.6834 78.3733 80.1687 78.056C80.6634 77.7387 81.2374 77.58 81.8907 77.58C82.5534 77.58 83.132 77.7387 83.6267 78.056C84.1307 78.3733 84.5227 78.8167 84.8027 79.386C85.0827 79.9553 85.2227 80.618 85.2227 81.374C85.2227 82.13 85.0827 82.7973 84.8027 83.376C84.5227 83.9547 84.1307 84.4073 83.6267 84.734C83.132 85.0513 82.5534 85.21 81.8907 85.21ZM81.8907 84.16C82.5814 84.16 83.118 83.9127 83.5007 83.418C83.8834 82.9233 84.0747 82.242 84.0747 81.374C84.0747 80.5247 83.8834 79.8527 83.5007 79.358C83.118 78.8633 82.5814 78.616 81.8907 78.616C81.2094 78.616 80.682 78.8633 80.3087 79.358C79.9354 79.8527 79.7487 80.5247 79.7487 81.374C79.7487 82.242 79.9354 82.9233 80.3087 83.418C80.682 83.9127 81.2094 84.16 81.8907 84.16ZM87.3193 85.14C87.1606 85.14 87.0253 85.084 86.9133 84.972C86.8106 84.86 86.7593 84.72 86.7593 84.552V78.224C86.7593 78.056 86.8106 77.9207 86.9133 77.818C87.0253 77.706 87.1606 77.65 87.3193 77.65C87.4873 77.65 87.6226 77.706 87.7253 77.818C87.8373 77.9207 87.8933 78.056 87.8933 78.224V79.078L87.6553 78.882C87.8513 78.574 88.0706 78.3267 88.3133 78.14C88.5653 77.944 88.836 77.804 89.1253 77.72C89.4146 77.6267 89.7086 77.58 90.0073 77.58C90.5486 77.58 91.0246 77.7107 91.4353 77.972C91.8553 78.2333 92.1633 78.6113 92.3593 79.106L91.9533 79.162C92.196 78.7513 92.462 78.434 92.7513 78.21C93.0406 77.9767 93.3346 77.8133 93.6333 77.72C93.9413 77.6267 94.2446 77.58 94.5433 77.58C95.038 77.58 95.4813 77.6873 95.8733 77.902C96.2653 78.1073 96.5733 78.4107 96.7973 78.812C97.0213 79.204 97.1333 79.68 97.1333 80.24V84.552C97.1333 84.72 97.082 84.86 96.9793 84.972C96.8766 85.084 96.746 85.14 96.5873 85.14C96.4193 85.14 96.2793 85.084 96.1673 84.972C96.0646 84.86 96.0133 84.72 96.0133 84.552V80.282C96.0133 79.7593 95.8593 79.3533 95.5513 79.064C95.2526 78.7747 94.856 78.63 94.3613 78.63C94.044 78.63 93.75 78.6953 93.4793 78.826C93.2086 78.9473 92.994 79.1293 92.8353 79.372C92.6766 79.6053 92.5973 79.8947 92.5973 80.24V84.552C92.5973 84.72 92.5413 84.86 92.4293 84.972C92.3266 85.084 92.196 85.14 92.0373 85.14C91.8693 85.14 91.7293 85.084 91.6173 84.972C91.5146 84.86 91.4633 84.72 91.4633 84.552V80.282C91.4633 79.7593 91.314 79.3533 91.0153 79.064C90.7166 78.7653 90.32 78.616 89.8253 78.616C89.4893 78.616 89.172 78.686 88.8733 78.826C88.584 78.9567 88.346 79.148 88.1593 79.4C87.982 79.6427 87.8933 79.932 87.8933 80.268V84.552C87.8933 84.72 87.8373 84.86 87.7253 84.972C87.6226 85.084 87.4873 85.14 87.3193 85.14ZM102.341 85.21C101.921 85.21 101.562 85.1447 101.263 85.014C100.974 84.8833 100.731 84.72 100.535 84.524C100.339 84.328 100.185 84.1367 100.073 83.95L100.157 83.894V87.366C100.157 87.5247 100.101 87.66 99.989 87.772C99.877 87.884 99.7416 87.94 99.583 87.94C99.4336 87.94 99.303 87.884 99.191 87.772C99.079 87.66 99.023 87.5247 99.023 87.366V78.252C99.023 78.0933 99.079 77.9533 99.191 77.832C99.303 77.7107 99.4336 77.65 99.583 77.65C99.7416 77.65 99.877 77.706 99.989 77.818C100.101 77.9207 100.157 78.0607 100.157 78.238L100.143 78.868L100.087 78.854C100.246 78.5367 100.526 78.2473 100.927 77.986C101.328 77.7153 101.818 77.58 102.397 77.58C102.864 77.58 103.284 77.678 103.657 77.874C104.03 78.0607 104.348 78.3267 104.609 78.672C104.87 79.008 105.071 79.4093 105.211 79.876C105.351 80.3333 105.421 80.8327 105.421 81.374C105.421 81.9153 105.351 82.4193 105.211 82.886C105.08 83.3433 104.88 83.7493 104.609 84.104C104.348 84.4493 104.026 84.72 103.643 84.916C103.27 85.112 102.836 85.21 102.341 85.21ZM102.187 84.174C102.84 84.174 103.354 83.9267 103.727 83.432C104.1 82.928 104.287 82.242 104.287 81.374C104.287 80.8047 104.203 80.3147 104.035 79.904C103.876 79.4933 103.638 79.176 103.321 78.952C103.013 78.728 102.63 78.616 102.173 78.616C101.501 78.616 100.983 78.8587 100.619 79.344C100.255 79.8293 100.073 80.5013 100.073 81.36C100.073 82.228 100.26 82.914 100.633 83.418C101.006 83.922 101.524 84.174 102.187 84.174ZM109.066 85.21C108.544 85.21 108.091 85.1167 107.708 84.93C107.335 84.734 107.046 84.4727 106.84 84.146C106.644 83.8193 106.546 83.4553 106.546 83.054C106.546 82.4753 106.761 81.9807 107.19 81.57C107.629 81.15 108.329 80.884 109.29 80.772C109.692 80.7253 110.037 80.674 110.326 80.618C110.616 80.562 110.84 80.4687 110.998 80.338C111.166 80.2073 111.25 80.016 111.25 79.764C111.25 79.568 111.199 79.386 111.096 79.218C111.003 79.0407 110.844 78.896 110.62 78.784C110.406 78.672 110.116 78.616 109.752 78.616C109.267 78.616 108.903 78.714 108.66 78.91C108.418 79.0967 108.25 79.2833 108.156 79.47C108.091 79.5913 108.012 79.6847 107.918 79.75C107.825 79.8153 107.713 79.848 107.582 79.848C107.424 79.848 107.302 79.8013 107.218 79.708C107.134 79.6053 107.092 79.4793 107.092 79.33C107.092 79.1527 107.153 78.966 107.274 78.77C107.396 78.5647 107.573 78.3733 107.806 78.196C108.049 78.0093 108.338 77.86 108.674 77.748C109.02 77.636 109.412 77.58 109.85 77.58C110.485 77.58 110.984 77.7013 111.348 77.944C111.722 78.1773 111.988 78.4993 112.146 78.91C112.305 79.3113 112.384 79.7593 112.384 80.254V83.74C112.384 83.8333 112.394 83.9033 112.412 83.95C112.44 83.9967 112.487 84.0247 112.552 84.034C112.683 84.0433 112.795 84.0993 112.888 84.202C112.982 84.2953 113.028 84.4167 113.028 84.566C113.028 84.7247 112.963 84.86 112.832 84.972C112.711 85.084 112.538 85.14 112.314 85.14C112.034 85.14 111.815 85.0607 111.656 84.902C111.507 84.734 111.432 84.5287 111.432 84.286V84.048H111.39C111.157 84.3933 110.849 84.6733 110.466 84.888C110.093 85.1027 109.626 85.21 109.066 85.21ZM109.08 84.174C109.5 84.174 109.874 84.0853 110.2 83.908C110.536 83.7307 110.798 83.4927 110.984 83.194C111.18 82.8953 111.278 82.564 111.278 82.2V81.248C111.278 81.2293 111.269 81.22 111.25 81.22C111.241 81.2107 111.222 81.2247 111.194 81.262C111.054 81.374 110.863 81.4627 110.62 81.528C110.387 81.584 110.149 81.6307 109.906 81.668C109.664 81.7053 109.463 81.738 109.304 81.766C108.819 81.8407 108.422 81.9713 108.114 82.158C107.816 82.3447 107.666 82.6247 107.666 82.998C107.666 83.278 107.774 83.544 107.988 83.796C108.203 84.048 108.567 84.174 109.08 84.174ZM114.95 85.14C114.791 85.14 114.656 85.084 114.544 84.972C114.441 84.8507 114.39 84.7107 114.39 84.552V78.224C114.39 78.0653 114.441 77.93 114.544 77.818C114.656 77.706 114.791 77.65 114.95 77.65C115.109 77.65 115.244 77.706 115.356 77.818C115.468 77.93 115.524 78.0653 115.524 78.224V79.176L115.384 78.896C115.477 78.7 115.617 78.4993 115.804 78.294C116 78.0887 116.233 77.9207 116.504 77.79C116.784 77.65 117.106 77.58 117.47 77.58C117.666 77.58 117.82 77.6313 117.932 77.734C118.053 77.8367 118.114 77.9673 118.114 78.126C118.114 78.2847 118.058 78.42 117.946 78.532C117.834 78.644 117.694 78.7 117.526 78.7C117.134 78.7 116.789 78.784 116.49 78.952C116.191 79.1107 115.953 79.3207 115.776 79.582C115.608 79.834 115.524 80.1 115.524 80.38V84.552C115.524 84.7107 115.468 84.8507 115.356 84.972C115.244 85.084 115.109 85.14 114.95 85.14ZM121.897 85.21C121.281 85.21 120.716 85.07 120.203 84.79C119.699 84.51 119.293 84.09 118.985 83.53C118.686 82.97 118.537 82.2793 118.537 81.458C118.537 80.674 118.677 79.9927 118.957 79.414C119.237 78.8353 119.615 78.3873 120.091 78.07C120.576 77.7433 121.127 77.58 121.743 77.58C122.219 77.58 122.648 77.6733 123.031 77.86C123.413 78.0373 123.735 78.2847 123.997 78.602C124.267 78.91 124.473 79.26 124.613 79.652C124.762 80.0347 124.837 80.436 124.837 80.856C124.837 81.1267 124.785 81.346 124.683 81.514C124.58 81.6727 124.37 81.752 124.053 81.752H119.685C119.722 82.3213 119.843 82.7833 120.049 83.138C120.254 83.4927 120.511 83.754 120.819 83.922C121.136 84.0807 121.481 84.16 121.855 84.16C122.359 84.16 122.76 84.0433 123.059 83.81C123.357 83.5767 123.563 83.3013 123.675 82.984C123.721 82.872 123.782 82.7787 123.857 82.704C123.941 82.62 124.053 82.578 124.193 82.578C124.351 82.578 124.477 82.6387 124.571 82.76C124.664 82.872 124.706 83.0213 124.697 83.208C124.687 83.3947 124.622 83.6047 124.501 83.838C124.379 84.062 124.202 84.2813 123.969 84.496C123.745 84.7013 123.46 84.8693 123.115 85C122.769 85.14 122.363 85.21 121.897 85.21ZM119.699 80.786H123.759C123.693 80.1513 123.488 79.6333 123.143 79.232C122.797 78.8213 122.326 78.616 121.729 78.616C121.197 78.616 120.744 78.798 120.371 79.162C120.007 79.526 119.783 80.0673 119.699 80.786ZM129.012 85.21C128.34 85.21 127.776 85.0327 127.318 84.678C126.87 84.3233 126.53 83.8567 126.296 83.278C126.072 82.6993 125.96 82.0787 125.96 81.416C125.96 80.716 126.082 80.0767 126.324 79.498C126.567 78.9193 126.922 78.4573 127.388 78.112C127.864 77.7573 128.438 77.58 129.11 77.58C129.502 77.58 129.843 77.6407 130.132 77.762C130.431 77.874 130.683 78.0233 130.888 78.21C131.094 78.3873 131.252 78.5787 131.364 78.784L131.252 78.812V75.354C131.252 75.1953 131.304 75.06 131.406 74.948C131.518 74.836 131.654 74.78 131.812 74.78C131.971 74.78 132.102 74.836 132.204 74.948C132.316 75.06 132.372 75.1953 132.372 75.354V84.524C132.372 84.692 132.316 84.8367 132.204 84.958C132.102 85.07 131.971 85.126 131.812 85.126C131.654 85.126 131.518 85.07 131.406 84.958C131.304 84.8367 131.252 84.692 131.252 84.524V83.866L131.35 83.88C131.248 84.1133 131.084 84.3327 130.86 84.538C130.646 84.734 130.38 84.8927 130.062 85.014C129.754 85.1447 129.404 85.21 129.012 85.21ZM129.236 84.16C129.899 84.1413 130.408 83.8847 130.762 83.39C131.126 82.8953 131.308 82.2373 131.308 81.416C131.308 80.5573 131.122 79.876 130.748 79.372C130.384 78.868 129.866 78.616 129.194 78.616C128.541 78.616 128.023 78.868 127.64 79.372C127.267 79.8667 127.08 80.5433 127.08 81.402C127.08 82.2607 127.267 82.9373 127.64 83.432C128.023 83.9267 128.555 84.1693 129.236 84.16ZM140.153 85.14C139.836 85.14 139.56 85.07 139.327 84.93C139.103 84.7807 138.93 84.5753 138.809 84.314C138.688 84.0433 138.627 83.7353 138.627 83.39V76.81C138.627 76.6513 138.678 76.5207 138.781 76.418C138.893 76.306 139.028 76.25 139.187 76.25C139.346 76.25 139.476 76.306 139.579 76.418C139.691 76.5207 139.747 76.6513 139.747 76.81V83.376C139.747 83.5533 139.775 83.7073 139.831 83.838C139.887 83.9593 140.004 84.02 140.181 84.02C140.302 84.02 140.391 83.992 140.447 83.936C140.512 83.88 140.578 83.8287 140.643 83.782C140.708 83.726 140.802 83.698 140.923 83.698C141.091 83.698 141.226 83.754 141.329 83.866C141.432 83.9687 141.483 84.0993 141.483 84.258C141.483 84.426 141.418 84.58 141.287 84.72C141.166 84.8507 141.002 84.9533 140.797 85.028C140.601 85.1027 140.386 85.14 140.153 85.14ZM138.179 78.812C138.03 78.812 137.899 78.7653 137.787 78.672C137.684 78.5693 137.633 78.4433 137.633 78.294C137.633 78.154 137.684 78.0373 137.787 77.944C137.899 77.8413 138.03 77.79 138.179 77.79H141.133C141.282 77.79 141.408 77.8413 141.511 77.944C141.623 78.0373 141.679 78.154 141.679 78.294C141.679 78.4433 141.623 78.5693 141.511 78.672C141.408 78.7653 141.282 78.812 141.133 78.812H138.179ZM146.08 85.21C145.427 85.21 144.853 85.0513 144.358 84.734C143.873 84.4073 143.49 83.9547 143.21 83.376C142.939 82.7973 142.804 82.13 142.804 81.374C142.804 80.618 142.939 79.9553 143.21 79.386C143.49 78.8167 143.873 78.3733 144.358 78.056C144.853 77.7387 145.427 77.58 146.08 77.58C146.743 77.58 147.321 77.7387 147.816 78.056C148.32 78.3733 148.712 78.8167 148.992 79.386C149.272 79.9553 149.412 80.618 149.412 81.374C149.412 82.13 149.272 82.7973 148.992 83.376C148.712 83.9547 148.32 84.4073 147.816 84.734C147.321 85.0513 146.743 85.21 146.08 85.21ZM146.08 84.16C146.771 84.16 147.307 83.9127 147.69 83.418C148.073 82.9233 148.264 82.242 148.264 81.374C148.264 80.5247 148.073 79.8527 147.69 79.358C147.307 78.8633 146.771 78.616 146.08 78.616C145.399 78.616 144.871 78.8633 144.498 79.358C144.125 79.8527 143.938 80.5247 143.938 81.374C143.938 82.242 144.125 82.9233 144.498 83.418C144.871 83.9127 145.399 84.16 146.08 84.16ZM155.364 85.14C155.206 85.14 155.07 85.084 154.958 84.972C154.856 84.8507 154.804 84.7107 154.804 84.552V75.354C154.804 75.1953 154.856 75.06 154.958 74.948C155.07 74.836 155.206 74.78 155.364 74.78C155.523 74.78 155.658 74.836 155.77 74.948C155.882 75.06 155.938 75.1953 155.938 75.354V84.552C155.938 84.7107 155.882 84.8507 155.77 84.972C155.658 85.084 155.523 85.14 155.364 85.14ZM159.994 85.21C159.471 85.21 159.019 85.1167 158.636 84.93C158.263 84.734 157.973 84.4727 157.768 84.146C157.572 83.8193 157.474 83.4553 157.474 83.054C157.474 82.4753 157.689 81.9807 158.118 81.57C158.557 81.15 159.257 80.884 160.218 80.772C160.619 80.7253 160.965 80.674 161.254 80.618C161.543 80.562 161.767 80.4687 161.926 80.338C162.094 80.2073 162.178 80.016 162.178 79.764C162.178 79.568 162.127 79.386 162.024 79.218C161.931 79.0407 161.772 78.896 161.548 78.784C161.333 78.672 161.044 78.616 160.68 78.616C160.195 78.616 159.831 78.714 159.588 78.91C159.345 79.0967 159.177 79.2833 159.084 79.47C159.019 79.5913 158.939 79.6847 158.846 79.75C158.753 79.8153 158.641 79.848 158.51 79.848C158.351 79.848 158.23 79.8013 158.146 79.708C158.062 79.6053 158.02 79.4793 158.02 79.33C158.02 79.1527 158.081 78.966 158.202 78.77C158.323 78.5647 158.501 78.3733 158.734 78.196C158.977 78.0093 159.266 77.86 159.602 77.748C159.947 77.636 160.339 77.58 160.778 77.58C161.413 77.58 161.912 77.7013 162.276 77.944C162.649 78.1773 162.915 78.4993 163.074 78.91C163.233 79.3113 163.312 79.7593 163.312 80.254V83.74C163.312 83.8333 163.321 83.9033 163.34 83.95C163.368 83.9967 163.415 84.0247 163.48 84.034C163.611 84.0433 163.723 84.0993 163.816 84.202C163.909 84.2953 163.956 84.4167 163.956 84.566C163.956 84.7247 163.891 84.86 163.76 84.972C163.639 85.084 163.466 85.14 163.242 85.14C162.962 85.14 162.743 85.0607 162.584 84.902C162.435 84.734 162.36 84.5287 162.36 84.286V84.048H162.318C162.085 84.3933 161.777 84.6733 161.394 84.888C161.021 85.1027 160.554 85.21 159.994 85.21ZM160.008 84.174C160.428 84.174 160.801 84.0853 161.128 83.908C161.464 83.7307 161.725 83.4927 161.912 83.194C162.108 82.8953 162.206 82.564 162.206 82.2V81.248C162.206 81.2293 162.197 81.22 162.178 81.22C162.169 81.2107 162.15 81.2247 162.122 81.262C161.982 81.374 161.791 81.4627 161.548 81.528C161.315 81.584 161.077 81.6307 160.834 81.668C160.591 81.7053 160.391 81.738 160.232 81.766C159.747 81.8407 159.35 81.9713 159.042 82.158C158.743 82.3447 158.594 82.6247 158.594 82.998C158.594 83.278 158.701 83.544 158.916 83.796C159.131 84.048 159.495 84.174 160.008 84.174ZM167.782 85.252C167.147 85.252 166.62 85.14 166.2 84.916C165.78 84.6827 165.463 84.412 165.248 84.104C165.033 83.7867 164.917 83.502 164.898 83.25C164.889 83.054 164.931 82.9047 165.024 82.802C165.127 82.69 165.253 82.634 165.402 82.634C165.542 82.634 165.654 82.676 165.738 82.76C165.822 82.8347 165.883 82.9233 165.92 83.026C166.032 83.3433 166.237 83.6233 166.536 83.866C166.835 84.0993 167.255 84.216 167.796 84.216C168.291 84.216 168.669 84.1133 168.93 83.908C169.191 83.6933 169.322 83.418 169.322 83.082C169.322 82.8207 169.243 82.6153 169.084 82.466C168.935 82.3073 168.725 82.1813 168.454 82.088C168.183 81.9947 167.871 81.9013 167.516 81.808C167.255 81.7333 166.984 81.654 166.704 81.57C166.424 81.4767 166.163 81.3553 165.92 81.206C165.677 81.0567 165.481 80.8653 165.332 80.632C165.183 80.3987 165.108 80.1047 165.108 79.75C165.108 79.358 165.211 78.9987 165.416 78.672C165.621 78.336 165.92 78.07 166.312 77.874C166.704 77.6687 167.171 77.566 167.712 77.566C168.263 77.566 168.725 77.6593 169.098 77.846C169.471 78.0327 169.756 78.2613 169.952 78.532C170.157 78.7933 170.265 79.0453 170.274 79.288C170.283 79.4653 170.246 79.6053 170.162 79.708C170.078 79.8107 169.957 79.862 169.798 79.862C169.695 79.862 169.593 79.834 169.49 79.778C169.387 79.722 169.299 79.6333 169.224 79.512C169.159 79.3813 169.07 79.246 168.958 79.106C168.855 78.9567 168.706 78.8353 168.51 78.742C168.314 78.6393 168.043 78.588 167.698 78.588C167.259 78.588 166.9 78.686 166.62 78.882C166.34 79.0687 166.2 79.3253 166.2 79.652C166.2 79.904 166.279 80.1 166.438 80.24C166.606 80.38 166.821 80.492 167.082 80.576C167.353 80.66 167.647 80.7487 167.964 80.842C168.263 80.926 168.557 81.0193 168.846 81.122C169.135 81.2153 169.397 81.3413 169.63 81.5C169.873 81.6493 170.064 81.8407 170.204 82.074C170.353 82.3073 170.428 82.5967 170.428 82.942C170.428 83.2873 170.339 83.642 170.162 84.006C169.994 84.3607 169.714 84.6593 169.322 84.902C168.939 85.1353 168.426 85.252 167.782 85.252ZM173.922 85.14C173.605 85.14 173.33 85.07 173.096 84.93C172.872 84.7807 172.7 84.5753 172.578 84.314C172.457 84.0433 172.396 83.7353 172.396 83.39V76.81C172.396 76.6513 172.448 76.5207 172.55 76.418C172.662 76.306 172.798 76.25 172.956 76.25C173.115 76.25 173.246 76.306 173.348 76.418C173.46 76.5207 173.516 76.6513 173.516 76.81V83.376C173.516 83.5533 173.544 83.7073 173.6 83.838C173.656 83.9593 173.773 84.02 173.95 84.02C174.072 84.02 174.16 83.992 174.216 83.936C174.282 83.88 174.347 83.8287 174.412 83.782C174.478 83.726 174.571 83.698 174.692 83.698C174.86 83.698 174.996 83.754 175.098 83.866C175.201 83.9687 175.252 84.0993 175.252 84.258C175.252 84.426 175.187 84.58 175.056 84.72C174.935 84.8507 174.772 84.9533 174.566 85.028C174.37 85.1027 174.156 85.14 173.922 85.14ZM171.948 78.812C171.799 78.812 171.668 78.7653 171.556 78.672C171.454 78.5693 171.402 78.4433 171.402 78.294C171.402 78.154 171.454 78.0373 171.556 77.944C171.668 77.8413 171.799 77.79 171.948 77.79H174.902C175.052 77.79 175.178 77.8413 175.28 77.944C175.392 78.0373 175.448 78.154 175.448 78.294C175.448 78.4433 175.392 78.5693 175.28 78.672C175.178 78.7653 175.052 78.812 174.902 78.812H171.948ZM181.409 85.14C181.25 85.14 181.115 85.084 181.003 84.972C180.9 84.86 180.849 84.72 180.849 84.552V78.224C180.849 78.056 180.9 77.9207 181.003 77.818C181.115 77.706 181.25 77.65 181.409 77.65C181.577 77.65 181.712 77.706 181.815 77.818C181.927 77.9207 181.983 78.056 181.983 78.224V79.078L181.745 78.882C181.941 78.574 182.16 78.3267 182.403 78.14C182.655 77.944 182.926 77.804 183.215 77.72C183.504 77.6267 183.798 77.58 184.097 77.58C184.638 77.58 185.114 77.7107 185.525 77.972C185.945 78.2333 186.253 78.6113 186.449 79.106L186.043 79.162C186.286 78.7513 186.552 78.434 186.841 78.21C187.13 77.9767 187.424 77.8133 187.723 77.72C188.031 77.6267 188.334 77.58 188.633 77.58C189.128 77.58 189.571 77.6873 189.963 77.902C190.355 78.1073 190.663 78.4107 190.887 78.812C191.111 79.204 191.223 79.68 191.223 80.24V84.552C191.223 84.72 191.172 84.86 191.069 84.972C190.966 85.084 190.836 85.14 190.677 85.14C190.509 85.14 190.369 85.084 190.257 84.972C190.154 84.86 190.103 84.72 190.103 84.552V80.282C190.103 79.7593 189.949 79.3533 189.641 79.064C189.342 78.7747 188.946 78.63 188.451 78.63C188.134 78.63 187.84 78.6953 187.569 78.826C187.298 78.9473 187.084 79.1293 186.925 79.372C186.766 79.6053 186.687 79.8947 186.687 80.24V84.552C186.687 84.72 186.631 84.86 186.519 84.972C186.416 85.084 186.286 85.14 186.127 85.14C185.959 85.14 185.819 85.084 185.707 84.972C185.604 84.86 185.553 84.72 185.553 84.552V80.282C185.553 79.7593 185.404 79.3533 185.105 79.064C184.806 78.7653 184.41 78.616 183.915 78.616C183.579 78.616 183.262 78.686 182.963 78.826C182.674 78.9567 182.436 79.148 182.249 79.4C182.072 79.6427 181.983 79.932 181.983 80.268V84.552C181.983 84.72 181.927 84.86 181.815 84.972C181.712 85.084 181.577 85.14 181.409 85.14ZM195.969 85.21C195.315 85.21 194.741 85.0513 194.247 84.734C193.761 84.4073 193.379 83.9547 193.099 83.376C192.828 82.7973 192.693 82.13 192.693 81.374C192.693 80.618 192.828 79.9553 193.099 79.386C193.379 78.8167 193.761 78.3733 194.247 78.056C194.741 77.7387 195.315 77.58 195.969 77.58C196.631 77.58 197.21 77.7387 197.705 78.056C198.209 78.3733 198.601 78.8167 198.881 79.386C199.161 79.9553 199.301 80.618 199.301 81.374C199.301 82.13 199.161 82.7973 198.881 83.376C198.601 83.9547 198.209 84.4073 197.705 84.734C197.21 85.0513 196.631 85.21 195.969 85.21ZM195.969 84.16C196.659 84.16 197.196 83.9127 197.579 83.418C197.961 82.9233 198.153 82.242 198.153 81.374C198.153 80.5247 197.961 79.8527 197.579 79.358C197.196 78.8633 196.659 78.616 195.969 78.616C195.287 78.616 194.76 78.8633 194.387 79.358C194.013 79.8527 193.827 80.5247 193.827 81.374C193.827 82.242 194.013 82.9233 194.387 83.418C194.76 83.9127 195.287 84.16 195.969 84.16ZM201.397 85.14C201.239 85.14 201.103 85.084 200.991 84.972C200.889 84.86 200.837 84.72 200.837 84.552V78.224C200.837 78.056 200.889 77.9207 200.991 77.818C201.103 77.706 201.239 77.65 201.397 77.65C201.565 77.65 201.701 77.706 201.803 77.818C201.915 77.9207 201.971 78.056 201.971 78.224V79.162L201.733 78.91C202.032 78.4527 202.387 78.1167 202.797 77.902C203.217 77.6873 203.665 77.58 204.141 77.58C204.645 77.58 205.098 77.6873 205.499 77.902C205.901 78.1073 206.213 78.4107 206.437 78.812C206.671 79.204 206.787 79.6893 206.787 80.268V84.552C206.787 84.72 206.736 84.86 206.633 84.972C206.531 85.084 206.395 85.14 206.227 85.14C206.05 85.14 205.91 85.084 205.807 84.972C205.705 84.86 205.653 84.72 205.653 84.552V80.31C205.653 79.778 205.495 79.3627 205.177 79.064C204.869 78.7653 204.459 78.616 203.945 78.616C203.6 78.616 203.278 78.686 202.979 78.826C202.681 78.966 202.438 79.1667 202.251 79.428C202.065 79.68 201.971 79.9833 201.971 80.338V84.552C201.971 84.72 201.915 84.86 201.803 84.972C201.701 85.084 201.565 85.14 201.397 85.14ZM210.631 85.14C210.314 85.14 210.039 85.07 209.805 84.93C209.581 84.7807 209.409 84.5753 209.287 84.314C209.166 84.0433 209.105 83.7353 209.105 83.39V76.81C209.105 76.6513 209.157 76.5207 209.259 76.418C209.371 76.306 209.507 76.25 209.665 76.25C209.824 76.25 209.955 76.306 210.057 76.418C210.169 76.5207 210.225 76.6513 210.225 76.81V83.376C210.225 83.5533 210.253 83.7073 210.309 83.838C210.365 83.9593 210.482 84.02 210.659 84.02C210.781 84.02 210.869 83.992 210.925 83.936C210.991 83.88 211.056 83.8287 211.121 83.782C211.187 83.726 211.28 83.698 211.401 83.698C211.569 83.698 211.705 83.754 211.807 83.866C211.91 83.9687 211.961 84.0993 211.961 84.258C211.961 84.426 211.896 84.58 211.765 84.72C211.644 84.8507 211.481 84.9533 211.275 85.028C211.079 85.1027 210.865 85.14 210.631 85.14ZM208.657 78.812C208.508 78.812 208.377 78.7653 208.265 78.672C208.163 78.5693 208.111 78.4433 208.111 78.294C208.111 78.154 208.163 78.0373 208.265 77.944C208.377 77.8413 208.508 77.79 208.657 77.79H211.611C211.761 77.79 211.887 77.8413 211.989 77.944C212.101 78.0373 212.157 78.154 212.157 78.294C212.157 78.4433 212.101 78.5693 211.989 78.672C211.887 78.7653 211.761 78.812 211.611 78.812H208.657ZM214.263 85.14C214.104 85.14 213.969 85.084 213.857 84.972C213.754 84.86 213.703 84.72 213.703 84.552V75.354C213.703 75.186 213.754 75.0507 213.857 74.948C213.969 74.836 214.104 74.78 214.263 74.78C214.431 74.78 214.566 74.836 214.669 74.948C214.781 75.0507 214.837 75.186 214.837 75.354V79.162L214.599 78.91C214.897 78.4527 215.247 78.1167 215.649 77.902C216.059 77.6873 216.503 77.58 216.979 77.58C217.473 77.58 217.917 77.6873 218.309 77.902C218.71 78.1073 219.023 78.4107 219.247 78.812C219.48 79.204 219.597 79.6893 219.597 80.268V84.552C219.597 84.72 219.545 84.86 219.443 84.972C219.34 85.084 219.205 85.14 219.037 85.14C218.878 85.14 218.743 85.084 218.631 84.972C218.528 84.86 218.477 84.72 218.477 84.552V80.31C218.477 79.778 218.323 79.3627 218.015 79.064C217.707 78.7653 217.305 78.616 216.811 78.616C216.465 78.616 216.139 78.686 215.831 78.826C215.532 78.966 215.289 79.1667 215.103 79.428C214.925 79.68 214.837 79.9833 214.837 80.338V84.552C214.837 84.72 214.781 84.86 214.669 84.972C214.566 85.084 214.431 85.14 214.263 85.14Z" fill="#2E2C28"/>
</g>
<defs>
<filter id="filter0_d_6004_17006" x="0" y="0" width="240" height="113" filterUnits="userSpaceOnUse" color-interpolation-filters="sRGB">
<feFlood flood-opacity="0" result="BackgroundImageFix"/>
<feColorMatrix in="SourceAlpha" type="matrix" values="0 0 0 0 0 0 0 0 0 0 0 0 0 0 0 0 0 0 127 0" result="hardAlpha"/>
<feOffset dy="4"/>
<feGaussianBlur stdDeviation="2"/>
<feComposite in2="hardAlpha" operator="out"/>
<feColorMatrix type="matrix" values="0 0 0 0 0 0 0 0 0 0 0 0 0 0 0 0 0 0 0.15 0"/>
<feBlend mode="normal" in2="BackgroundImageFix" result="effect1_dropShadow_6004_17006"/>
<feBlend mode="normal" in="SourceGraphic" in2="effect1_dropShadow_6004_17006" result="shape"/>
</filter>
<clipPath id="clip0_6004_17006">
<rect width="9" height="9" fill="white" transform="translate(24 75.5)"/>
</clipPath>
</defs>
</svg>
