<svg width="221" height="101" viewBox="0 0 221 101" fill="none" xmlns="http://www.w3.org/2000/svg">
<g filter="url(#filter0_d_6007_18056)">
<rect x="4" width="213" height="93" rx="16" fill="#E0F6EB" shape-rendering="crispEdges"/>
<rect x="4.5" y="0.5" width="212" height="92" rx="15.5" stroke="#BED9CB" shape-rendering="crispEdges"/>
<path d="M17.68 25.12C17.472 25.12 17.3 25.052 17.164 24.916C17.028 24.78 16.96 24.608 16.96 24.4L16.996 17.26C16.996 17.012 17.064 16.82 17.2 16.684C17.344 16.548 17.528 16.48 17.752 16.48C17.952 16.48 18.116 16.524 18.244 16.612C18.372 16.7 18.464 16.812 18.52 16.948L21.136 23.152L23.692 16.948C23.748 16.812 23.84 16.7 23.968 16.612C24.096 16.524 24.26 16.48 24.46 16.48C24.684 16.48 24.864 16.548 25 16.684C25.144 16.82 25.216 17.012 25.216 17.26L25.252 24.4C25.252 24.608 25.184 24.78 25.048 24.916C24.912 25.052 24.74 25.12 24.532 25.12C24.324 25.12 24.152 25.052 24.016 24.916C23.88 24.78 23.816 24.608 23.824 24.4L23.896 19.816L21.952 24.448C21.856 24.696 21.736 24.872 21.592 24.976C21.456 25.072 21.304 25.12 21.136 25.12C20.96 25.12 20.804 25.072 20.668 24.976C20.532 24.872 20.412 24.696 20.308 24.448L18.316 19.804L18.4 24.4C18.4 24.608 18.332 24.78 18.196 24.916C18.068 25.052 17.896 25.12 17.68 25.12ZM29.639 25.18C29.055 25.18 28.539 25.04 28.091 24.76C27.651 24.472 27.307 24.08 27.059 23.584C26.811 23.088 26.687 22.524 26.687 21.892C26.687 21.26 26.811 20.7 27.059 20.212C27.307 19.724 27.651 19.34 28.091 19.06C28.539 18.78 29.055 18.64 29.639 18.64C30.239 18.64 30.759 18.78 31.199 19.06C31.647 19.34 31.995 19.724 32.243 20.212C32.491 20.7 32.615 21.26 32.615 21.892C32.615 22.524 32.491 23.088 32.243 23.584C31.995 24.08 31.647 24.472 31.199 24.76C30.759 25.04 30.239 25.18 29.639 25.18ZM29.639 23.908C30.135 23.908 30.519 23.736 30.791 23.392C31.063 23.04 31.199 22.54 31.199 21.892C31.199 21.26 31.063 20.772 30.791 20.428C30.519 20.076 30.135 19.9 29.639 19.9C29.151 19.9 28.771 20.076 28.499 20.428C28.235 20.772 28.103 21.26 28.103 21.892C28.103 22.54 28.235 23.04 28.499 23.392C28.771 23.736 29.151 23.908 29.639 23.908ZM36.1457 25.216C35.6097 25.216 35.1497 25.128 34.7657 24.952C34.3897 24.768 34.0977 24.552 33.8897 24.304C33.6897 24.048 33.5857 23.808 33.5777 23.584C33.5777 23.408 33.6337 23.256 33.7457 23.128C33.8577 22.992 34.0177 22.924 34.2257 22.924C34.3857 22.924 34.5137 22.96 34.6097 23.032C34.7137 23.104 34.7897 23.176 34.8377 23.248C34.9977 23.48 35.1897 23.668 35.4137 23.812C35.6377 23.948 35.9097 24.016 36.2297 24.016C36.5497 24.016 36.7857 23.952 36.9377 23.824C37.0897 23.696 37.1657 23.536 37.1657 23.344C37.1657 23.184 37.1137 23.052 37.0097 22.948C36.9057 22.836 36.7537 22.744 36.5537 22.672C36.3617 22.592 36.1297 22.512 35.8577 22.432C35.6017 22.352 35.3497 22.268 35.1017 22.18C34.8617 22.084 34.6417 21.968 34.4417 21.832C34.2417 21.688 34.0817 21.512 33.9617 21.304C33.8417 21.096 33.7817 20.836 33.7817 20.524C33.7817 20.172 33.8777 19.852 34.0697 19.564C34.2617 19.276 34.5297 19.048 34.8737 18.88C35.2177 18.704 35.6217 18.616 36.0857 18.616C36.5337 18.616 36.9217 18.692 37.2497 18.844C37.5857 18.996 37.8457 19.188 38.0297 19.42C38.2137 19.644 38.3057 19.876 38.3057 20.116C38.3137 20.292 38.2697 20.44 38.1737 20.56C38.0777 20.672 37.9337 20.728 37.7417 20.728C37.5977 20.728 37.4697 20.696 37.3577 20.632C37.2457 20.56 37.1537 20.48 37.0817 20.392C37.0257 20.304 36.9577 20.216 36.8777 20.128C36.7977 20.04 36.6897 19.964 36.5537 19.9C36.4257 19.836 36.2537 19.804 36.0377 19.804C35.7577 19.804 35.5377 19.864 35.3777 19.984C35.2257 20.104 35.1497 20.256 35.1497 20.44C35.1497 20.608 35.2097 20.74 35.3297 20.836C35.4497 20.932 35.6177 21.02 35.8337 21.1C36.0577 21.172 36.3297 21.264 36.6497 21.376C36.9217 21.464 37.1697 21.56 37.3937 21.664C37.6257 21.768 37.8257 21.892 37.9937 22.036C38.1697 22.172 38.3057 22.336 38.4017 22.528C38.4977 22.712 38.5457 22.936 38.5457 23.2C38.5457 23.56 38.4577 23.896 38.2817 24.208C38.1057 24.512 37.8377 24.756 37.4777 24.94C37.1257 25.124 36.6817 25.216 36.1457 25.216ZM41.8368 25.12C41.4848 25.12 41.1888 25.044 40.9488 24.892C40.7088 24.74 40.5248 24.536 40.3968 24.28C40.2768 24.024 40.2168 23.74 40.2168 23.428V18.184C40.2168 17.992 40.2848 17.832 40.4208 17.704C40.5568 17.568 40.7208 17.5 40.9128 17.5C41.1048 17.5 41.2648 17.568 41.3928 17.704C41.5288 17.832 41.5968 17.992 41.5968 18.184V23.356C41.5968 23.476 41.6128 23.572 41.6448 23.644C41.6848 23.716 41.7568 23.752 41.8608 23.752C41.9408 23.752 42.0088 23.732 42.0648 23.692C42.1288 23.644 42.1968 23.6 42.2688 23.56C42.3408 23.52 42.4288 23.5 42.5328 23.5C42.7328 23.5 42.8968 23.568 43.0248 23.704C43.1608 23.84 43.2288 24.004 43.2288 24.196C43.2288 24.396 43.1568 24.564 43.0128 24.7C42.8768 24.836 42.7008 24.94 42.4848 25.012C42.2768 25.084 42.0608 25.12 41.8368 25.12ZM39.9528 20.032C39.7848 20.032 39.6368 19.976 39.5088 19.864C39.3888 19.744 39.3288 19.596 39.3288 19.42C39.3288 19.252 39.3888 19.112 39.5088 19C39.6368 18.88 39.7848 18.82 39.9528 18.82H42.7248C42.9008 18.82 43.0488 18.88 43.1688 19C43.2888 19.112 43.3488 19.252 43.3488 19.42C43.3488 19.596 43.2888 19.744 43.1688 19.864C43.0488 19.976 42.9008 20.032 42.7248 20.032H39.9528ZM51.2647 25.18C50.8087 25.18 50.3847 25.1 49.9927 24.94C49.6007 24.772 49.2567 24.54 48.9607 24.244C48.6727 23.948 48.4447 23.604 48.2767 23.212C48.1167 22.82 48.0367 22.4 48.0367 21.952V17.188C48.0367 16.98 48.1047 16.812 48.2407 16.684C48.3767 16.548 48.5487 16.48 48.7567 16.48C48.9647 16.48 49.1367 16.548 49.2727 16.684C49.4087 16.812 49.4767 16.98 49.4767 17.188V22.012C49.4767 22.364 49.5527 22.68 49.7047 22.96C49.8567 23.232 50.0687 23.448 50.3407 23.608C50.6127 23.768 50.9207 23.848 51.2647 23.848C51.6087 23.848 51.9167 23.768 52.1887 23.608C52.4607 23.448 52.6727 23.232 52.8247 22.96C52.9767 22.68 53.0527 22.364 53.0527 22.012V17.188C53.0527 16.98 53.1207 16.812 53.2567 16.684C53.3927 16.548 53.5647 16.48 53.7727 16.48C53.9807 16.48 54.1527 16.548 54.2887 16.684C54.4247 16.812 54.4927 16.98 54.4927 17.188V21.952C54.4927 22.4 54.4087 22.82 54.2407 23.212C54.0807 23.604 53.8527 23.948 53.5567 24.244C53.2687 24.54 52.9287 24.772 52.5367 24.94C52.1447 25.1 51.7207 25.18 51.2647 25.18ZM58.423 25.216C57.887 25.216 57.427 25.128 57.043 24.952C56.667 24.768 56.375 24.552 56.167 24.304C55.967 24.048 55.863 23.808 55.855 23.584C55.855 23.408 55.911 23.256 56.023 23.128C56.135 22.992 56.295 22.924 56.503 22.924C56.663 22.924 56.791 22.96 56.887 23.032C56.991 23.104 57.067 23.176 57.115 23.248C57.275 23.48 57.467 23.668 57.691 23.812C57.915 23.948 58.187 24.016 58.507 24.016C58.827 24.016 59.063 23.952 59.215 23.824C59.367 23.696 59.443 23.536 59.443 23.344C59.443 23.184 59.391 23.052 59.287 22.948C59.183 22.836 59.031 22.744 58.831 22.672C58.639 22.592 58.407 22.512 58.135 22.432C57.879 22.352 57.627 22.268 57.379 22.18C57.139 22.084 56.919 21.968 56.719 21.832C56.519 21.688 56.359 21.512 56.239 21.304C56.119 21.096 56.059 20.836 56.059 20.524C56.059 20.172 56.155 19.852 56.347 19.564C56.539 19.276 56.807 19.048 57.151 18.88C57.495 18.704 57.899 18.616 58.363 18.616C58.811 18.616 59.199 18.692 59.527 18.844C59.863 18.996 60.123 19.188 60.307 19.42C60.491 19.644 60.583 19.876 60.583 20.116C60.591 20.292 60.547 20.44 60.451 20.56C60.355 20.672 60.211 20.728 60.019 20.728C59.875 20.728 59.747 20.696 59.635 20.632C59.523 20.56 59.431 20.48 59.359 20.392C59.303 20.304 59.235 20.216 59.155 20.128C59.075 20.04 58.967 19.964 58.831 19.9C58.703 19.836 58.531 19.804 58.315 19.804C58.035 19.804 57.815 19.864 57.655 19.984C57.503 20.104 57.427 20.256 57.427 20.44C57.427 20.608 57.487 20.74 57.607 20.836C57.727 20.932 57.895 21.02 58.111 21.1C58.335 21.172 58.607 21.264 58.927 21.376C59.199 21.464 59.447 21.56 59.671 21.664C59.903 21.768 60.103 21.892 60.271 22.036C60.447 22.172 60.583 22.336 60.679 22.528C60.775 22.712 60.823 22.936 60.823 23.2C60.823 23.56 60.735 23.896 60.559 24.208C60.383 24.512 60.115 24.756 59.755 24.94C59.403 25.124 58.959 25.216 58.423 25.216ZM64.7487 25.18C64.1887 25.18 63.6847 25.052 63.2367 24.796C62.7887 24.532 62.4327 24.16 62.1687 23.68C61.9127 23.192 61.7847 22.612 61.7847 21.94C61.7847 21.308 61.9047 20.744 62.1447 20.248C62.3847 19.752 62.7167 19.36 63.1407 19.072C63.5727 18.784 64.0727 18.64 64.6407 18.64C65.0807 18.64 65.4727 18.724 65.8167 18.892C66.1607 19.052 66.4527 19.268 66.6927 19.54C66.9407 19.804 67.1287 20.1 67.2567 20.428C67.3847 20.748 67.4487 21.072 67.4487 21.4C67.4487 21.688 67.3807 21.916 67.2447 22.084C67.1167 22.244 66.8967 22.324 66.5847 22.324H63.2247C63.2727 22.7 63.3727 23.008 63.5247 23.248C63.6767 23.48 63.8647 23.652 64.0887 23.764C64.3207 23.868 64.5687 23.92 64.8327 23.92C65.1527 23.92 65.4087 23.856 65.6007 23.728C65.8007 23.592 65.9567 23.428 66.0687 23.236C66.1407 23.156 66.2207 23.084 66.3087 23.02C66.3967 22.948 66.5127 22.912 66.6567 22.912C66.8407 22.912 66.9927 22.972 67.1127 23.092C67.2327 23.212 67.2887 23.376 67.2807 23.584C67.2807 23.76 67.2167 23.944 67.0887 24.136C66.9687 24.32 66.7967 24.492 66.5727 24.652C66.3567 24.804 66.0927 24.928 65.7807 25.024C65.4767 25.128 65.1327 25.18 64.7487 25.18ZM63.2247 21.304H66.0687C66.0127 20.856 65.8607 20.508 65.6127 20.26C65.3727 20.004 65.0527 19.876 64.6527 19.876C64.2767 19.876 63.9607 19.996 63.7047 20.236C63.4487 20.468 63.2887 20.824 63.2247 21.304ZM71.0698 25.18C70.5258 25.18 70.0538 25.04 69.6538 24.76C69.2538 24.472 68.9458 24.08 68.7298 23.584C68.5138 23.088 68.4058 22.528 68.4058 21.904C68.4058 21.28 68.5178 20.724 68.7418 20.236C68.9658 19.74 69.2778 19.352 69.6778 19.072C70.0858 18.784 70.5578 18.64 71.0938 18.64C71.4058 18.64 71.6818 18.684 71.9218 18.772C72.1698 18.86 72.3858 18.984 72.5698 19.144C72.7538 19.304 72.9138 19.492 73.0498 19.708L72.8458 19.792V16.936C72.8458 16.736 72.9098 16.572 73.0378 16.444C73.1738 16.308 73.3418 16.24 73.5418 16.24C73.7338 16.24 73.8938 16.308 74.0218 16.444C74.1578 16.572 74.2258 16.736 74.2258 16.936V24.4C74.2258 24.6 74.1578 24.768 74.0218 24.904C73.8938 25.04 73.7338 25.108 73.5418 25.108C73.3418 25.108 73.1738 25.032 73.0378 24.88C72.9098 24.72 72.8458 24.524 72.8458 24.292L72.8578 23.836H73.0618C72.9818 24.06 72.8498 24.276 72.6658 24.484C72.4818 24.684 72.2538 24.852 71.9818 24.988C71.7178 25.116 71.4138 25.18 71.0698 25.18ZM71.3818 23.92C71.8458 23.912 72.2138 23.732 72.4858 23.38C72.7578 23.02 72.8938 22.532 72.8938 21.916C72.8938 21.3 72.7578 20.808 72.4858 20.44C72.2218 20.072 71.8458 19.888 71.3578 19.888C70.8858 19.888 70.5098 20.072 70.2298 20.44C69.9578 20.8 69.8218 21.296 69.8218 21.928C69.8218 22.552 69.9578 23.04 70.2298 23.392C70.5018 23.744 70.8858 23.92 71.3818 23.92ZM80.0472 25.12C79.8392 25.12 79.6672 25.052 79.5312 24.916C79.3952 24.78 79.3272 24.608 79.3272 24.4L79.3632 17.26C79.3632 17.012 79.4312 16.82 79.5672 16.684C79.7112 16.548 79.8952 16.48 80.1192 16.48C80.3192 16.48 80.4832 16.524 80.6112 16.612C80.7392 16.7 80.8312 16.812 80.8872 16.948L83.5032 23.152L86.0592 16.948C86.1152 16.812 86.2072 16.7 86.3352 16.612C86.4632 16.524 86.6272 16.48 86.8272 16.48C87.0512 16.48 87.2312 16.548 87.3672 16.684C87.5112 16.82 87.5832 17.012 87.5832 17.26L87.6192 24.4C87.6192 24.608 87.5512 24.78 87.4152 24.916C87.2792 25.052 87.1072 25.12 86.8992 25.12C86.6912 25.12 86.5192 25.052 86.3832 24.916C86.2472 24.78 86.1832 24.608 86.1912 24.4L86.2632 19.816L84.3192 24.448C84.2232 24.696 84.1032 24.872 83.9592 24.976C83.8232 25.072 83.6712 25.12 83.5032 25.12C83.3272 25.12 83.1712 25.072 83.0352 24.976C82.8992 24.872 82.7792 24.696 82.6752 24.448L80.6832 19.804L80.7672 24.4C80.7672 24.608 80.6992 24.78 80.5632 24.916C80.4352 25.052 80.2632 25.12 80.0472 25.12ZM91.2022 25.18C90.8022 25.18 90.4382 25.104 90.1102 24.952C89.7902 24.8 89.5342 24.588 89.3422 24.316C89.1502 24.036 89.0542 23.704 89.0542 23.32C89.0542 22.76 89.2422 22.312 89.6182 21.976C89.9942 21.632 90.6062 21.404 91.4542 21.292C91.7422 21.252 91.9982 21.212 92.2222 21.172C92.4542 21.132 92.6382 21.068 92.7742 20.98C92.9102 20.884 92.9782 20.748 92.9782 20.572C92.9782 20.428 92.9422 20.3 92.8702 20.188C92.7982 20.076 92.6862 19.988 92.5342 19.924C92.3902 19.86 92.2022 19.828 91.9702 19.828C91.6582 19.828 91.4142 19.888 91.2382 20.008C91.0702 20.12 90.9342 20.248 90.8302 20.392C90.7502 20.496 90.6502 20.58 90.5302 20.644C90.4182 20.708 90.2902 20.74 90.1462 20.74C89.9542 20.74 89.8022 20.688 89.6902 20.584C89.5782 20.48 89.5222 20.34 89.5222 20.164C89.5222 19.98 89.5822 19.8 89.7022 19.624C89.8222 19.44 89.9902 19.276 90.2062 19.132C90.4222 18.98 90.6822 18.86 90.9862 18.772C91.2902 18.684 91.6222 18.64 91.9822 18.64C92.5262 18.64 92.9702 18.74 93.3142 18.94C93.6662 19.14 93.9262 19.416 94.0942 19.768C94.2702 20.12 94.3582 20.52 94.3582 20.968V23.548C94.3582 23.636 94.3662 23.7 94.3822 23.74C94.4062 23.78 94.4542 23.808 94.5262 23.824C94.6462 23.856 94.7582 23.924 94.8622 24.028C94.9662 24.132 95.0182 24.272 95.0182 24.448C95.0182 24.632 94.9462 24.792 94.8022 24.928C94.6582 25.056 94.4582 25.12 94.2022 25.12C93.8982 25.112 93.6622 25.032 93.4942 24.88C93.3342 24.728 93.2382 24.536 93.2062 24.304V24.172H93.1702C92.9542 24.492 92.6942 24.74 92.3902 24.916C92.0862 25.092 91.6902 25.18 91.2022 25.18ZM91.4422 23.98C91.7302 23.98 91.9902 23.92 92.2222 23.8C92.4542 23.68 92.6382 23.512 92.7742 23.296C92.9182 23.08 92.9902 22.836 92.9902 22.564V22C92.9902 21.984 92.9822 21.976 92.9662 21.976C92.9582 21.968 92.9382 21.976 92.9062 22C92.8022 22.072 92.6702 22.128 92.5102 22.168C92.3582 22.208 92.1982 22.24 92.0302 22.264C91.8622 22.288 91.7022 22.316 91.5502 22.348C91.1742 22.42 90.8942 22.524 90.7102 22.66C90.5342 22.796 90.4462 22.976 90.4462 23.2C90.4462 23.416 90.5222 23.6 90.6742 23.752C90.8342 23.904 91.0902 23.98 91.4422 23.98ZM98.1571 25.12C97.8051 25.12 97.5091 25.044 97.2691 24.892C97.0291 24.74 96.8451 24.536 96.7171 24.28C96.5971 24.024 96.5371 23.74 96.5371 23.428V18.184C96.5371 17.992 96.6051 17.832 96.7411 17.704C96.8771 17.568 97.0411 17.5 97.2331 17.5C97.4251 17.5 97.5851 17.568 97.7131 17.704C97.8491 17.832 97.9171 17.992 97.9171 18.184V23.356C97.9171 23.476 97.9331 23.572 97.9651 23.644C98.0051 23.716 98.0771 23.752 98.1811 23.752C98.2611 23.752 98.3291 23.732 98.3851 23.692C98.4491 23.644 98.5171 23.6 98.5891 23.56C98.6611 23.52 98.7491 23.5 98.8531 23.5C99.0531 23.5 99.2171 23.568 99.3451 23.704C99.4811 23.84 99.5491 24.004 99.5491 24.196C99.5491 24.396 99.4771 24.564 99.3331 24.7C99.1971 24.836 99.0211 24.94 98.8051 25.012C98.5971 25.084 98.3811 25.12 98.1571 25.12ZM96.2731 20.032C96.1051 20.032 95.9571 19.976 95.8291 19.864C95.7091 19.744 95.6491 19.596 95.6491 19.42C95.6491 19.252 95.7091 19.112 95.8291 19C95.9571 18.88 96.1051 18.82 96.2731 18.82H99.0451C99.2211 18.82 99.3691 18.88 99.4891 19C99.6091 19.112 99.6691 19.252 99.6691 19.42C99.6691 19.596 99.6091 19.744 99.4891 19.864C99.3691 19.976 99.2211 20.032 99.0451 20.032H96.2731ZM103.596 25.18C103.036 25.18 102.532 25.052 102.084 24.796C101.636 24.532 101.28 24.16 101.016 23.68C100.76 23.192 100.632 22.612 100.632 21.94C100.632 21.308 100.752 20.744 100.992 20.248C101.232 19.752 101.564 19.36 101.988 19.072C102.42 18.784 102.92 18.64 103.488 18.64C103.928 18.64 104.32 18.724 104.664 18.892C105.008 19.052 105.3 19.268 105.54 19.54C105.788 19.804 105.976 20.1 106.104 20.428C106.232 20.748 106.296 21.072 106.296 21.4C106.296 21.688 106.228 21.916 106.092 22.084C105.964 22.244 105.744 22.324 105.432 22.324H102.072C102.12 22.7 102.22 23.008 102.372 23.248C102.524 23.48 102.712 23.652 102.936 23.764C103.168 23.868 103.416 23.92 103.68 23.92C104 23.92 104.256 23.856 104.448 23.728C104.648 23.592 104.804 23.428 104.916 23.236C104.988 23.156 105.068 23.084 105.156 23.02C105.244 22.948 105.36 22.912 105.504 22.912C105.688 22.912 105.84 22.972 105.96 23.092C106.08 23.212 106.136 23.376 106.128 23.584C106.128 23.76 106.064 23.944 105.936 24.136C105.816 24.32 105.644 24.492 105.42 24.652C105.204 24.804 104.94 24.928 104.628 25.024C104.324 25.128 103.98 25.18 103.596 25.18ZM102.072 21.304H104.916C104.86 20.856 104.708 20.508 104.46 20.26C104.22 20.004 103.9 19.876 103.5 19.876C103.124 19.876 102.808 19.996 102.552 20.236C102.296 20.468 102.136 20.824 102.072 21.304ZM108.309 25.12C108.117 25.12 107.953 25.052 107.817 24.916C107.681 24.772 107.613 24.604 107.613 24.412V19.396C107.613 19.204 107.681 19.04 107.817 18.904C107.953 18.768 108.121 18.7 108.321 18.7C108.529 18.7 108.693 18.768 108.813 18.904C108.941 19.04 109.005 19.204 109.005 19.396V20.044L108.813 19.864C108.893 19.68 109.009 19.496 109.161 19.312C109.313 19.12 109.497 18.96 109.713 18.832C109.929 18.704 110.173 18.64 110.445 18.64C110.669 18.64 110.849 18.704 110.985 18.832C111.129 18.952 111.201 19.116 111.201 19.324C111.201 19.516 111.129 19.68 110.985 19.816C110.849 19.952 110.669 20.02 110.445 20.02C110.133 20.02 109.869 20.08 109.653 20.2C109.437 20.32 109.273 20.484 109.161 20.692C109.057 20.892 109.005 21.12 109.005 21.376V24.412C109.005 24.604 108.937 24.772 108.801 24.916C108.665 25.052 108.501 25.12 108.309 25.12ZM112.974 25.12C112.782 25.12 112.618 25.052 112.482 24.916C112.346 24.78 112.278 24.616 112.278 24.424V19.384C112.278 19.192 112.346 19.032 112.482 18.904C112.618 18.768 112.782 18.7 112.974 18.7C113.166 18.7 113.33 18.768 113.466 18.904C113.602 19.032 113.67 19.192 113.67 19.384V24.424C113.67 24.616 113.602 24.78 113.466 24.916C113.33 25.052 113.166 25.12 112.974 25.12ZM112.962 18.052C112.738 18.052 112.554 17.98 112.41 17.836C112.266 17.684 112.194 17.472 112.194 17.2C112.194 16.936 112.266 16.732 112.41 16.588C112.554 16.436 112.738 16.36 112.962 16.36C113.202 16.36 113.394 16.436 113.538 16.588C113.682 16.732 113.754 16.936 113.754 17.2C113.754 17.472 113.682 17.684 113.538 17.836C113.394 17.98 113.202 18.052 112.962 18.052ZM117.136 25.18C116.736 25.18 116.372 25.104 116.044 24.952C115.724 24.8 115.468 24.588 115.276 24.316C115.084 24.036 114.988 23.704 114.988 23.32C114.988 22.76 115.176 22.312 115.552 21.976C115.928 21.632 116.54 21.404 117.388 21.292C117.676 21.252 117.932 21.212 118.156 21.172C118.388 21.132 118.572 21.068 118.708 20.98C118.844 20.884 118.912 20.748 118.912 20.572C118.912 20.428 118.876 20.3 118.804 20.188C118.732 20.076 118.62 19.988 118.468 19.924C118.324 19.86 118.136 19.828 117.904 19.828C117.592 19.828 117.348 19.888 117.172 20.008C117.004 20.12 116.868 20.248 116.764 20.392C116.684 20.496 116.584 20.58 116.464 20.644C116.352 20.708 116.224 20.74 116.08 20.74C115.888 20.74 115.736 20.688 115.624 20.584C115.512 20.48 115.456 20.34 115.456 20.164C115.456 19.98 115.516 19.8 115.636 19.624C115.756 19.44 115.924 19.276 116.14 19.132C116.356 18.98 116.616 18.86 116.92 18.772C117.224 18.684 117.556 18.64 117.916 18.64C118.46 18.64 118.904 18.74 119.248 18.94C119.6 19.14 119.86 19.416 120.028 19.768C120.204 20.12 120.292 20.52 120.292 20.968V23.548C120.292 23.636 120.3 23.7 120.316 23.74C120.34 23.78 120.388 23.808 120.46 23.824C120.58 23.856 120.692 23.924 120.796 24.028C120.9 24.132 120.952 24.272 120.952 24.448C120.952 24.632 120.88 24.792 120.736 24.928C120.592 25.056 120.392 25.12 120.136 25.12C119.832 25.112 119.596 25.032 119.428 24.88C119.268 24.728 119.172 24.536 119.14 24.304V24.172H119.104C118.888 24.492 118.628 24.74 118.324 24.916C118.02 25.092 117.624 25.18 117.136 25.18ZM117.376 23.98C117.664 23.98 117.924 23.92 118.156 23.8C118.388 23.68 118.572 23.512 118.708 23.296C118.852 23.08 118.924 22.836 118.924 22.564V22C118.924 21.984 118.916 21.976 118.9 21.976C118.892 21.968 118.872 21.976 118.84 22C118.736 22.072 118.604 22.128 118.444 22.168C118.292 22.208 118.132 22.24 117.964 22.264C117.796 22.288 117.636 22.316 117.484 22.348C117.108 22.42 116.828 22.524 116.644 22.66C116.468 22.796 116.38 22.976 116.38 23.2C116.38 23.416 116.456 23.6 116.608 23.752C116.768 23.904 117.024 23.98 117.376 23.98ZM122.759 25.12C122.559 25.12 122.391 25.052 122.255 24.916C122.127 24.772 122.063 24.604 122.063 24.412V16.936C122.063 16.736 122.127 16.572 122.255 16.444C122.391 16.308 122.559 16.24 122.759 16.24C122.951 16.24 123.115 16.308 123.251 16.444C123.387 16.572 123.455 16.736 123.455 16.936V24.412C123.455 24.604 123.387 24.772 123.251 24.916C123.115 25.052 122.951 25.12 122.759 25.12Z" fill="#2E2C28"/>
<path d="M22.9 53.3C21.9667 53.3 21.14 53.1067 20.42 52.72C19.7 52.3333 19.0933 51.8067 18.6 51.14C18.1067 50.4733 17.7333 49.7 17.48 48.82C17.2267 47.9267 17.1 46.98 17.1 45.98C17.1 44.5667 17.34 43.3133 17.82 42.22C18.3133 41.1267 18.9933 40.2667 19.86 39.64C20.74 39.0133 21.7533 38.7 22.9 38.7C23.4733 38.7 24.02 38.7867 24.54 38.96C25.0733 39.12 25.5533 39.3467 25.98 39.64C26.4067 39.92 26.7467 40.2533 27 40.64C27.2533 41.0133 27.3867 41.4133 27.4 41.84C27.4133 42.16 27.3267 42.4333 27.14 42.66C26.9533 42.8867 26.6867 43 26.34 43C26.0733 43 25.8533 42.94 25.68 42.82C25.52 42.6867 25.3867 42.52 25.28 42.32C25.12 41.92 24.8733 41.5733 24.54 41.28C24.22 40.9867 23.7333 40.84 23.08 40.84C22.3333 40.84 21.6933 41.06 21.16 41.5C20.6267 41.94 20.2133 42.5467 19.92 43.32C19.64 44.0933 19.5 44.9933 19.5 46.02C19.5 47.0467 19.6467 47.9467 19.94 48.72C20.2333 49.48 20.64 50.0733 21.16 50.5C21.68 50.9267 22.3 51.14 23.02 51.14C23.62 51.14 24.1133 50.9867 24.5 50.68C24.9 50.36 25.18 49.9067 25.34 49.32C25.42 49.04 25.56 48.82 25.76 48.66C25.96 48.4867 26.1933 48.4 26.46 48.4C26.78 48.4 27.0467 48.5133 27.26 48.74C27.4867 48.9533 27.6 49.2533 27.6 49.64C27.5867 50.08 27.46 50.52 27.22 50.96C26.9933 51.3867 26.6733 51.78 26.26 52.14C25.8467 52.4867 25.3533 52.7667 24.78 52.98C24.22 53.1933 23.5933 53.3 22.9 53.3ZM34.1814 53.3C33.2481 53.3 32.4081 53.0867 31.6614 52.66C30.9147 52.22 30.3214 51.6 29.8814 50.8C29.4547 49.9867 29.2414 49.02 29.2414 47.9C29.2414 46.8467 29.4414 45.9067 29.8414 45.08C30.2414 44.2533 30.7947 43.6 31.5014 43.12C32.2214 42.64 33.0547 42.4 34.0014 42.4C34.7347 42.4 35.3881 42.54 35.9614 42.82C36.5347 43.0867 37.0214 43.4467 37.4214 43.9C37.8347 44.34 38.1481 44.8333 38.3614 45.38C38.5747 45.9133 38.6814 46.4533 38.6814 47C38.6814 47.48 38.5681 47.86 38.3414 48.14C38.1281 48.4067 37.7614 48.54 37.2414 48.54H31.6414C31.7214 49.1667 31.8881 49.68 32.1414 50.08C32.3947 50.4667 32.7081 50.7533 33.0814 50.94C33.4681 51.1133 33.8814 51.2 34.3214 51.2C34.8547 51.2 35.2814 51.0933 35.6014 50.88C35.9347 50.6533 36.1947 50.38 36.3814 50.06C36.5014 49.9267 36.6347 49.8067 36.7814 49.7C36.9281 49.58 37.1214 49.52 37.3614 49.52C37.6681 49.52 37.9214 49.62 38.1214 49.82C38.3214 50.02 38.4147 50.2933 38.4014 50.64C38.4014 50.9333 38.2947 51.24 38.0814 51.56C37.8814 51.8667 37.5947 52.1533 37.2214 52.42C36.8614 52.6733 36.4214 52.88 35.9014 53.04C35.3947 53.2133 34.8214 53.3 34.1814 53.3ZM31.6414 46.84H36.3814C36.2881 46.0933 36.0347 45.5133 35.6214 45.1C35.2214 44.6733 34.6881 44.46 34.0214 44.46C33.3947 44.46 32.8681 44.66 32.4414 45.06C32.0147 45.4467 31.7481 46.04 31.6414 46.84ZM42.0366 53.2C41.7032 53.2 41.4232 53.0867 41.1966 52.86C40.9832 52.62 40.8766 52.34 40.8766 52.02V39.56C40.8766 39.2267 40.9832 38.9533 41.1966 38.74C41.4232 38.5133 41.7032 38.4 42.0366 38.4C42.3566 38.4 42.6299 38.5133 42.8566 38.74C43.0832 38.9533 43.1966 39.2267 43.1966 39.56V52.02C43.1966 52.34 43.0832 52.62 42.8566 52.86C42.6299 53.0867 42.3566 53.2 42.0366 53.2ZM48.9738 53.3C48.3071 53.3 47.7004 53.1733 47.1538 52.92C46.6204 52.6667 46.1938 52.3133 45.8738 51.86C45.5538 51.3933 45.3938 50.84 45.3938 50.2C45.3938 49.2667 45.7071 48.52 46.3338 47.96C46.9604 47.3867 47.9804 47.0067 49.3938 46.82C49.8738 46.7533 50.3004 46.6867 50.6738 46.62C51.0604 46.5533 51.3671 46.4467 51.5938 46.3C51.8204 46.14 51.9338 45.9133 51.9338 45.62C51.9338 45.38 51.8738 45.1667 51.7538 44.98C51.6338 44.7933 51.4471 44.6467 51.1938 44.54C50.9538 44.4333 50.6404 44.38 50.2538 44.38C49.7338 44.38 49.3271 44.48 49.0338 44.68C48.7538 44.8667 48.5271 45.08 48.3538 45.32C48.2204 45.4933 48.0538 45.6333 47.8538 45.74C47.6671 45.8467 47.4538 45.9 47.2138 45.9C46.8938 45.9 46.6404 45.8133 46.4538 45.64C46.2671 45.4667 46.1738 45.2333 46.1738 44.94C46.1738 44.6333 46.2738 44.3333 46.4738 44.04C46.6738 43.7333 46.9538 43.46 47.3138 43.22C47.6738 42.9667 48.1071 42.7667 48.6138 42.62C49.1204 42.4733 49.6738 42.4 50.2738 42.4C51.1804 42.4 51.9204 42.5667 52.4938 42.9C53.0804 43.2333 53.5138 43.6933 53.7938 44.28C54.0871 44.8667 54.2338 45.5333 54.2338 46.28V50.58C54.2338 50.7267 54.2471 50.8333 54.2738 50.9C54.3138 50.9667 54.3938 51.0133 54.5138 51.04C54.7138 51.0933 54.9004 51.2067 55.0738 51.38C55.2471 51.5533 55.3338 51.7867 55.3338 52.08C55.3338 52.3867 55.2138 52.6533 54.9738 52.88C54.7338 53.0933 54.4004 53.2 53.9738 53.2C53.4671 53.1867 53.0738 53.0533 52.7938 52.8C52.5271 52.5467 52.3671 52.2267 52.3138 51.84V51.62H52.2538C51.8938 52.1533 51.4604 52.5667 50.9538 52.86C50.4471 53.1533 49.7871 53.3 48.9738 53.3ZM49.3738 51.3C49.8538 51.3 50.2871 51.2 50.6738 51C51.0604 50.8 51.3671 50.52 51.5938 50.16C51.8338 49.8 51.9538 49.3933 51.9538 48.94V48C51.9538 47.9733 51.9404 47.96 51.9138 47.96C51.9004 47.9467 51.8671 47.96 51.8138 48C51.6404 48.12 51.4204 48.2133 51.1538 48.28C50.9004 48.3467 50.6338 48.4 50.3538 48.44C50.0738 48.48 49.8071 48.5267 49.5538 48.58C48.9271 48.7 48.4604 48.8733 48.1538 49.1C47.8604 49.3267 47.7138 49.6267 47.7138 50C47.7138 50.36 47.8404 50.6667 48.0938 50.92C48.3604 51.1733 48.7871 51.3 49.3738 51.3ZM61.0252 53.3C60.1185 53.3 59.3318 53.0667 58.6652 52.6C57.9985 52.12 57.4852 51.4667 57.1252 50.64C56.7652 49.8133 56.5852 48.88 56.5852 47.84C56.5852 46.8 56.7718 45.8733 57.1452 45.06C57.5185 44.2333 58.0385 43.5867 58.7052 43.12C59.3852 42.64 60.1718 42.4 61.0652 42.4C61.5852 42.4 62.0452 42.4733 62.4452 42.62C62.8585 42.7667 63.2185 42.9733 63.5252 43.24C63.8318 43.5067 64.0985 43.82 64.3252 44.18L63.9852 44.32V39.56C63.9852 39.2267 64.0918 38.9533 64.3052 38.74C64.5318 38.5133 64.8118 38.4 65.1452 38.4C65.4652 38.4 65.7318 38.5133 65.9452 38.74C66.1718 38.9533 66.2852 39.2267 66.2852 39.56V52C66.2852 52.3333 66.1718 52.6133 65.9452 52.84C65.7318 53.0667 65.4652 53.18 65.1452 53.18C64.8118 53.18 64.5318 53.0533 64.3052 52.8C64.0918 52.5333 63.9852 52.2067 63.9852 51.82L64.0052 51.06H64.3452C64.2118 51.4333 63.9918 51.7933 63.6852 52.14C63.3785 52.4733 62.9985 52.7533 62.5452 52.98C62.1052 53.1933 61.5985 53.3 61.0252 53.3ZM61.5452 51.2C62.3185 51.1867 62.9318 50.8867 63.3852 50.3C63.8385 49.7 64.0652 48.8867 64.0652 47.86C64.0652 46.8333 63.8385 46.0133 63.3852 45.4C62.9452 44.7867 62.3185 44.48 61.5052 44.48C60.7185 44.48 60.0918 44.7867 59.6252 45.4C59.1718 46 58.9452 46.8267 58.9452 47.88C58.9452 48.92 59.1718 49.7333 59.6252 50.32C60.0785 50.9067 60.7185 51.2 61.5452 51.2ZM73.3997 53.3C72.4264 53.3 71.5664 53.0667 70.8197 52.6C70.0864 52.12 69.513 51.4667 69.0997 50.64C68.6864 49.8133 68.4797 48.8733 68.4797 47.82C68.4797 46.7667 68.6864 45.8333 69.0997 45.02C69.513 44.2067 70.0864 43.5667 70.8197 43.1C71.5664 42.6333 72.4264 42.4 73.3997 42.4C74.3997 42.4 75.2664 42.6333 75.9997 43.1C76.7464 43.5667 77.3264 44.2067 77.7397 45.02C78.153 45.8333 78.3597 46.7667 78.3597 47.82C78.3597 48.8733 78.153 49.8133 77.7397 50.64C77.3264 51.4667 76.7464 52.12 75.9997 52.6C75.2664 53.0667 74.3997 53.3 73.3997 53.3ZM73.3997 51.18C74.2264 51.18 74.8664 50.8933 75.3197 50.32C75.773 49.7333 75.9997 48.9 75.9997 47.82C75.9997 46.7667 75.773 45.9533 75.3197 45.38C74.8664 44.7933 74.2264 44.5 73.3997 44.5C72.5864 44.5 71.953 44.7933 71.4997 45.38C71.0597 45.9533 70.8397 46.7667 70.8397 47.82C70.8397 48.9 71.0597 49.7333 71.4997 50.32C71.953 50.8933 72.5864 51.18 73.3997 51.18ZM81.7241 53.2C81.3907 53.2 81.1107 53.0867 80.8841 52.86C80.6707 52.6333 80.5641 52.3533 80.5641 52.02V43.66C80.5641 43.3267 80.6707 43.0533 80.8841 42.84C81.1107 42.6133 81.3907 42.5 81.7241 42.5C82.0441 42.5 82.3174 42.6133 82.5441 42.84C82.7707 43.0533 82.8841 43.3267 82.8841 43.66V44.92L82.4041 44.62C82.8307 43.8733 83.3307 43.32 83.9041 42.96C84.4907 42.5867 85.1574 42.4 85.9041 42.4C86.6241 42.4 87.2707 42.5533 87.8441 42.86C88.4174 43.1667 88.8641 43.62 89.1841 44.22C89.5041 44.82 89.6641 45.5533 89.6641 46.42V52.02C89.6641 52.3533 89.5574 52.6333 89.3441 52.86C89.1307 53.0867 88.8574 53.2 88.5241 53.2C88.1774 53.2 87.8974 53.0867 87.6841 52.86C87.4707 52.6333 87.3641 52.3533 87.3641 52.02V46.74C87.3641 46.06 87.1774 45.5267 86.8041 45.14C86.4307 44.74 85.9174 44.54 85.2641 44.54C84.7974 44.54 84.3841 44.64 84.0241 44.84C83.6641 45.04 83.3841 45.3133 83.1841 45.66C82.9841 45.9933 82.8841 46.38 82.8841 46.82V52.02C82.8841 52.3533 82.7707 52.6333 82.5441 52.86C82.3307 53.0867 82.0574 53.2 81.7241 53.2ZM99.2688 53.2C98.9221 53.2 98.6354 53.0867 98.4088 52.86C98.1821 52.6333 98.0688 52.3467 98.0688 52V40.18C98.0688 39.8467 98.1821 39.5667 98.4088 39.34C98.6488 39.1133 98.9288 39 99.2488 39H100.449V52C100.449 52.3467 100.335 52.6333 100.109 52.86C99.8954 53.0867 99.6154 53.2 99.2688 53.2ZM99.6688 41.16V39H105.309C105.629 39 105.889 39.1 106.089 39.3C106.289 39.5 106.389 39.76 106.389 40.08C106.389 40.3867 106.289 40.6467 106.089 40.86C105.889 41.06 105.629 41.16 105.309 41.16H99.6688ZM99.5688 47.06V44.9H104.929C105.235 44.9 105.489 45.0067 105.689 45.22C105.902 45.42 106.009 45.6733 106.009 45.98C106.009 46.3133 105.902 46.58 105.689 46.78C105.489 46.9667 105.235 47.06 104.929 47.06H99.5688ZM112.306 53.3C111.333 53.3 110.473 53.0667 109.726 52.6C108.993 52.12 108.419 51.4667 108.006 50.64C107.593 49.8133 107.386 48.8733 107.386 47.82C107.386 46.7667 107.593 45.8333 108.006 45.02C108.419 44.2067 108.993 43.5667 109.726 43.1C110.473 42.6333 111.333 42.4 112.306 42.4C113.306 42.4 114.173 42.6333 114.906 43.1C115.653 43.5667 116.233 44.2067 116.646 45.02C117.059 45.8333 117.266 46.7667 117.266 47.82C117.266 48.8733 117.059 49.8133 116.646 50.64C116.233 51.4667 115.653 52.12 114.906 52.6C114.173 53.0667 113.306 53.3 112.306 53.3ZM112.306 51.18C113.133 51.18 113.773 50.8933 114.226 50.32C114.679 49.7333 114.906 48.9 114.906 47.82C114.906 46.7667 114.679 45.9533 114.226 45.38C113.773 44.7933 113.133 44.5 112.306 44.5C111.493 44.5 110.859 44.7933 110.406 45.38C109.966 45.9533 109.746 46.7667 109.746 47.82C109.746 48.9 109.966 49.7333 110.406 50.32C110.859 50.8933 111.493 51.18 112.306 51.18ZM123.31 53.14C122.364 53.14 121.557 52.9 120.89 52.42C120.237 51.9267 119.737 51.28 119.39 50.48C119.044 49.68 118.87 48.8 118.87 47.84C118.87 47.1333 118.97 46.4533 119.17 45.8C119.37 45.1467 119.657 44.5667 120.03 44.06C120.417 43.54 120.89 43.1333 121.45 42.84C122.01 42.5467 122.65 42.4 123.37 42.4C124.09 42.4 124.704 42.54 125.21 42.82C125.717 43.0867 126.11 43.4333 126.39 43.86V43.48C126.39 43.1867 126.497 42.9467 126.71 42.76C126.937 42.56 127.21 42.46 127.53 42.46C127.85 42.46 128.117 42.5733 128.33 42.8C128.557 43.0133 128.67 43.2867 128.67 43.62V52.48C128.67 53.5067 128.464 54.38 128.05 55.1C127.637 55.82 127.064 56.3667 126.33 56.74C125.597 57.1133 124.744 57.3 123.77 57.3C123.264 57.3 122.77 57.24 122.29 57.12C121.81 57.0133 121.377 56.8667 120.99 56.68C120.617 56.4933 120.31 56.2867 120.07 56.06C119.884 55.8733 119.764 55.68 119.71 55.48C119.657 55.2933 119.664 55.0933 119.73 54.88C119.784 54.6267 119.917 54.42 120.13 54.26C120.344 54.1 120.604 54.06 120.91 54.14C121.124 54.2067 121.317 54.2933 121.49 54.4C121.664 54.52 121.85 54.6333 122.05 54.74C122.25 54.86 122.484 54.96 122.75 55.04C123.017 55.1333 123.344 55.18 123.73 55.18C124.664 55.18 125.344 54.94 125.77 54.46C126.197 53.98 126.41 53.32 126.41 52.48V51.62C126.037 52.1133 125.59 52.4933 125.07 52.76C124.55 53.0133 123.964 53.14 123.31 53.14ZM123.79 51.06C124.617 51.06 125.257 50.7667 125.71 50.18C126.164 49.5933 126.39 48.78 126.39 47.74C126.39 46.7133 126.157 45.9133 125.69 45.34C125.237 44.7667 124.61 44.48 123.81 44.48C123.264 44.48 122.797 44.6133 122.41 44.88C122.024 45.1467 121.73 45.5267 121.53 46.02C121.33 46.5 121.23 47.0867 121.23 47.78C121.23 48.8333 121.457 49.6467 121.91 50.22C122.377 50.78 123.004 51.06 123.79 51.06Z" fill="#267F53"/>
<rect x="16" y="61" width="55" height="20" rx="5" fill="#267F53"/>
<g clip-path="url(#clip0_6007_18056)">
<path d="M28.5023 67.7651L22.3559 73.4073L22.3539 73.409C22.1582 73.6015 22.0845 73.8416 22.1463 74.0852C22.2096 74.3346 22.4149 74.5447 22.6574 74.6083C22.7159 74.6237 22.7741 74.6304 22.8315 74.6289C23.0058 74.624 23.1718 74.5418 23.3121 74.3874L28.7566 67.9739L28.5023 67.7651Z" fill="white"/>
<path d="M28.8996 67.9385C28.9202 67.7664 28.7745 67.6282 28.6085 67.6552C27.2653 67.8752 25.7943 67.8044 24.5411 67.3736C24.2255 67.341 23.9477 67.6047 23.9659 67.9455C23.9806 68.2161 24.2028 68.4271 24.464 68.4524C25.4723 68.5505 27.1792 68.5247 28.0536 68.5029C28.0306 69.4105 28.0024 71.18 28.0975 72.2202C28.1223 72.4899 28.3267 72.7193 28.5888 72.7344C28.919 72.7532 29.1744 72.4664 29.1429 72.1407C28.6864 70.3857 28.8141 68.6556 28.8996 67.9385Z" fill="white"/>
</g>
<path d="M37.336 73.416C37.2 73.416 37.084 73.376 36.988 73.296C36.892 73.208 36.844 73.1 36.844 72.972V68.424C36.844 68.296 36.892 68.188 36.988 68.1C37.084 68.012 37.2 67.968 37.336 67.968C37.472 67.968 37.584 68.012 37.672 68.1C37.768 68.188 37.816 68.296 37.816 68.424V72.972C37.816 73.1 37.768 73.208 37.672 73.296C37.584 73.376 37.472 73.416 37.336 73.416ZM35.176 71.136C35.048 71.136 34.94 71.092 34.852 71.004C34.764 70.916 34.72 70.812 34.72 70.692C34.72 70.564 34.764 70.456 34.852 70.368C34.94 70.28 35.048 70.236 35.176 70.236H39.484C39.612 70.236 39.72 70.28 39.808 70.368C39.896 70.456 39.94 70.564 39.94 70.692C39.94 70.812 39.896 70.916 39.808 71.004C39.72 71.092 39.612 71.136 39.484 71.136H35.176ZM44.2923 75.18C43.9003 75.18 43.5243 75.12 43.1643 75C42.8043 74.888 42.4803 74.72 42.1923 74.496C41.9043 74.272 41.6763 73.996 41.5083 73.668C41.3403 73.34 41.2563 72.964 41.2563 72.54C41.2563 72.212 41.3083 71.924 41.4123 71.676C41.5163 71.42 41.6483 71.192 41.8083 70.992C41.9763 70.792 42.1563 70.62 42.3483 70.476C42.1163 70.316 41.9203 70.108 41.7603 69.852C41.6083 69.596 41.5323 69.264 41.5323 68.856C41.5323 68.304 41.6683 67.848 41.9403 67.488C42.2123 67.128 42.5603 66.86 42.9843 66.684C43.4163 66.508 43.8603 66.42 44.3163 66.42C44.6283 66.42 44.9403 66.464 45.2523 66.552C45.5723 66.632 45.8683 66.76 46.1403 66.936C46.4123 67.112 46.6283 67.34 46.7883 67.62C46.9563 67.892 47.0403 68.224 47.0403 68.616C47.0403 69.056 46.9363 69.44 46.7283 69.768C46.5283 70.096 46.2843 70.38 45.9963 70.62C46.3323 70.796 46.6203 71.044 46.8603 71.364C47.1003 71.684 47.2203 72.1 47.2203 72.612C47.2203 73.148 47.0843 73.608 46.8123 73.992C46.5403 74.376 46.1803 74.672 45.7323 74.88C45.2923 75.08 44.8123 75.18 44.2923 75.18ZM44.2923 74.268C44.6443 74.268 44.9683 74.204 45.2643 74.076C45.5683 73.94 45.8083 73.748 45.9843 73.5C46.1683 73.252 46.2603 72.956 46.2603 72.612C46.2603 72.268 46.1563 71.984 45.9483 71.76C45.7483 71.536 45.4283 71.356 44.9883 71.22C44.5563 71.076 43.9843 70.952 43.2723 70.848C43.0883 70.968 42.9163 71.108 42.7563 71.268C42.5963 71.42 42.4643 71.596 42.3603 71.796C42.2643 71.996 42.2163 72.228 42.2163 72.492C42.2163 72.844 42.3083 73.156 42.4923 73.428C42.6843 73.692 42.9363 73.9 43.2483 74.052C43.5683 74.196 43.9163 74.268 44.2923 74.268ZM45.0603 70.26C45.3723 70.052 45.6203 69.816 45.8043 69.552C45.9883 69.288 46.0803 69.004 46.0803 68.7C46.0803 68.388 45.9923 68.132 45.8163 67.932C45.6403 67.724 45.4123 67.572 45.1323 67.476C44.8603 67.38 44.5723 67.332 44.2683 67.332C43.9563 67.332 43.6643 67.384 43.3923 67.488C43.1203 67.592 42.9003 67.752 42.7323 67.968C42.5723 68.184 42.4923 68.46 42.4923 68.796C42.4923 69.084 42.5683 69.32 42.7203 69.504C42.8723 69.68 43.1363 69.824 43.5123 69.936C43.8883 70.048 44.4043 70.156 45.0603 70.26ZM51.5844 75.18C50.9364 75.18 50.3644 75 49.8684 74.64C49.3724 74.272 48.9844 73.76 48.7044 73.104C48.4324 72.448 48.2964 71.684 48.2964 70.812C48.2964 69.94 48.4364 69.176 48.7164 68.52C49.0044 67.864 49.3964 67.352 49.8924 66.984C50.3964 66.608 50.9644 66.42 51.5964 66.42C52.2364 66.42 52.8044 66.608 53.3004 66.984C53.7964 67.352 54.1844 67.864 54.4644 68.52C54.7444 69.176 54.8844 69.94 54.8844 70.812C54.8844 71.684 54.7444 72.448 54.4644 73.104C54.1924 73.76 53.8084 74.272 53.3124 74.64C52.8164 75 52.2404 75.18 51.5844 75.18ZM51.5844 74.28C52.0484 74.28 52.4524 74.136 52.7964 73.848C53.1404 73.56 53.4084 73.156 53.6004 72.636C53.8004 72.108 53.9004 71.5 53.9004 70.812C53.9004 70.132 53.8004 69.532 53.6004 69.012C53.4084 68.484 53.1404 68.072 52.7964 67.776C52.4524 67.472 52.0484 67.32 51.5844 67.32C51.1284 67.32 50.7244 67.472 50.3724 67.776C50.0284 68.072 49.7604 68.484 49.5684 69.012C49.3764 69.532 49.2804 70.132 49.2804 70.812C49.2804 71.5 49.3764 72.108 49.5684 72.636C49.7604 73.156 50.0284 73.56 50.3724 73.848C50.7244 74.136 51.1284 74.28 51.5844 74.28ZM57.4273 75.18C57.3073 75.18 57.2033 75.14 57.1153 75.06C57.0353 74.988 56.9873 74.896 56.9713 74.784C56.9553 74.672 56.9833 74.564 57.0553 74.46L62.5513 66.672C62.5913 66.608 62.6433 66.556 62.7073 66.516C62.7793 66.476 62.8553 66.456 62.9353 66.456C63.0633 66.456 63.1673 66.496 63.2473 66.576C63.3273 66.648 63.3753 66.74 63.3913 66.852C63.4073 66.964 63.3793 67.076 63.3073 67.188L57.8113 74.976C57.7713 75.032 57.7153 75.08 57.6433 75.12C57.5793 75.16 57.5073 75.18 57.4273 75.18ZM57.7033 70.536C57.3353 70.536 56.9953 70.444 56.6833 70.26C56.3713 70.068 56.1233 69.816 55.9393 69.504C55.7553 69.192 55.6633 68.852 55.6633 68.484C55.6633 68.108 55.7553 67.764 55.9393 67.452C56.1233 67.14 56.3713 66.892 56.6833 66.708C56.9953 66.524 57.3353 66.432 57.7033 66.432C58.0793 66.432 58.4233 66.524 58.7353 66.708C59.0473 66.892 59.2953 67.14 59.4793 67.452C59.6633 67.764 59.7553 68.108 59.7553 68.484C59.7553 68.852 59.6633 69.192 59.4793 69.504C59.2953 69.816 59.0473 70.068 58.7353 70.26C58.4233 70.444 58.0793 70.536 57.7033 70.536ZM57.7033 69.66C57.9273 69.66 58.1233 69.608 58.2913 69.504C58.4593 69.392 58.5913 69.248 58.6873 69.072C58.7833 68.896 58.8313 68.7 58.8313 68.484C58.8313 68.156 58.7273 67.88 58.5193 67.656C58.3113 67.432 58.0393 67.32 57.7033 67.32C57.4953 67.32 57.3033 67.372 57.1273 67.476C56.9593 67.58 56.8273 67.72 56.7313 67.896C56.6353 68.064 56.5873 68.26 56.5873 68.484C56.5873 68.7 56.6353 68.896 56.7313 69.072C56.8273 69.248 56.9593 69.392 57.1273 69.504C57.3033 69.608 57.4953 69.66 57.7033 69.66ZM62.7193 75.168C62.3513 75.168 62.0113 75.076 61.6993 74.892C61.3873 74.7 61.1393 74.448 60.9553 74.136C60.7713 73.816 60.6793 73.472 60.6793 73.104C60.6793 72.728 60.7713 72.384 60.9553 72.072C61.1393 71.76 61.3873 71.512 61.6993 71.328C62.0113 71.144 62.3513 71.052 62.7193 71.052C63.0953 71.052 63.4393 71.144 63.7513 71.328C64.0633 71.512 64.3113 71.76 64.4953 72.072C64.6793 72.384 64.7713 72.728 64.7713 73.104C64.7713 73.472 64.6793 73.816 64.4953 74.136C64.3113 74.448 64.0633 74.7 63.7513 74.892C63.4393 75.076 63.0953 75.168 62.7193 75.168ZM62.7193 74.268C62.9433 74.268 63.1393 74.216 63.3073 74.112C63.4753 74.008 63.6073 73.868 63.7033 73.692C63.7993 73.516 63.8473 73.32 63.8473 73.104C63.8473 72.776 63.7433 72.5 63.5353 72.276C63.3273 72.052 63.0553 71.94 62.7193 71.94C62.5113 71.94 62.3193 71.992 62.1433 72.096C61.9753 72.2 61.8433 72.34 61.7473 72.516C61.6513 72.684 61.6033 72.88 61.6033 73.104C61.6033 73.32 61.6513 73.516 61.7473 73.692C61.8433 73.868 61.9753 74.008 62.1433 74.112C62.3193 74.216 62.5113 74.268 62.7193 74.268Z" fill="white"/>
<path d="M79.24 74.18C78.68 74.18 78.192 74.04 77.776 73.76C77.36 73.472 77.04 73.08 76.816 72.584C76.592 72.088 76.48 71.528 76.48 70.904C76.48 70.272 76.592 69.712 76.816 69.224C77.048 68.736 77.372 68.352 77.788 68.072C78.204 67.784 78.692 67.64 79.252 67.64C79.716 67.64 80.108 67.728 80.428 67.904C80.756 68.072 81.008 68.272 81.184 68.504C81.36 68.736 81.456 68.952 81.472 69.152C81.496 69.32 81.46 69.448 81.364 69.536C81.276 69.624 81.168 69.668 81.04 69.668C80.912 69.668 80.816 69.636 80.752 69.572C80.688 69.508 80.636 69.436 80.596 69.356C80.492 69.14 80.332 68.948 80.116 68.78C79.9 68.604 79.608 68.516 79.24 68.516C78.856 68.516 78.532 68.62 78.268 68.828C78.004 69.028 77.8 69.308 77.656 69.668C77.52 70.028 77.452 70.436 77.452 70.892C77.452 71.62 77.612 72.2 77.932 72.632C78.26 73.064 78.7 73.28 79.252 73.28C79.676 73.28 80.004 73.168 80.236 72.944C80.476 72.72 80.644 72.468 80.74 72.188C80.78 72.076 80.836 71.984 80.908 71.912C80.98 71.84 81.076 71.804 81.196 71.804C81.332 71.804 81.44 71.852 81.52 71.948C81.608 72.044 81.644 72.176 81.628 72.344C81.62 72.496 81.56 72.676 81.448 72.884C81.344 73.092 81.192 73.296 80.992 73.496C80.8 73.696 80.556 73.86 80.26 73.988C79.972 74.116 79.632 74.18 79.24 74.18ZM85.3349 74.18C84.7749 74.18 84.2829 74.044 83.8589 73.772C83.4429 73.492 83.1149 73.104 82.8749 72.608C82.6429 72.112 82.5269 71.54 82.5269 70.892C82.5269 70.244 82.6429 69.676 82.8749 69.188C83.1149 68.7 83.4429 68.32 83.8589 68.048C84.2829 67.776 84.7749 67.64 85.3349 67.64C85.9029 67.64 86.3989 67.776 86.8229 68.048C87.2549 68.32 87.5909 68.7 87.8309 69.188C88.0709 69.676 88.1909 70.244 88.1909 70.892C88.1909 71.54 88.0709 72.112 87.8309 72.608C87.5909 73.104 87.2549 73.492 86.8229 73.772C86.3989 74.044 85.9029 74.18 85.3349 74.18ZM85.3349 73.28C85.9269 73.28 86.3869 73.068 86.7149 72.644C87.0429 72.22 87.2069 71.636 87.2069 70.892C87.2069 70.164 87.0429 69.588 86.7149 69.164C86.3869 68.74 85.9269 68.528 85.3349 68.528C84.7509 68.528 84.2989 68.74 83.9789 69.164C83.6589 69.588 83.4989 70.164 83.4989 70.892C83.4989 71.636 83.6589 72.22 83.9789 72.644C84.2989 73.068 84.7509 73.28 85.3349 73.28ZM89.988 74.12C89.852 74.12 89.736 74.072 89.64 73.976C89.552 73.88 89.508 73.76 89.508 73.616V68.192C89.508 68.048 89.552 67.932 89.64 67.844C89.736 67.748 89.852 67.7 89.988 67.7C90.132 67.7 90.248 67.748 90.336 67.844C90.432 67.932 90.48 68.048 90.48 68.192V68.924L90.276 68.756C90.444 68.492 90.632 68.28 90.84 68.12C91.056 67.952 91.288 67.832 91.536 67.76C91.784 67.68 92.036 67.64 92.292 67.64C92.756 67.64 93.164 67.752 93.516 67.976C93.876 68.2 94.14 68.524 94.308 68.948L93.96 68.996C94.168 68.644 94.396 68.372 94.644 68.18C94.892 67.98 95.144 67.84 95.4 67.76C95.664 67.68 95.924 67.64 96.18 67.64C96.604 67.64 96.984 67.732 97.32 67.916C97.656 68.092 97.92 68.352 98.112 68.696C98.304 69.032 98.4 69.44 98.4 69.92V73.616C98.4 73.76 98.356 73.88 98.268 73.976C98.18 74.072 98.068 74.12 97.932 74.12C97.788 74.12 97.668 74.072 97.572 73.976C97.484 73.88 97.44 73.76 97.44 73.616V69.956C97.44 69.508 97.308 69.16 97.044 68.912C96.788 68.664 96.448 68.54 96.024 68.54C95.752 68.54 95.5 68.596 95.268 68.708C95.036 68.812 94.852 68.968 94.716 69.176C94.58 69.376 94.512 69.624 94.512 69.92V73.616C94.512 73.76 94.464 73.88 94.368 73.976C94.28 74.072 94.168 74.12 94.032 74.12C93.888 74.12 93.768 74.072 93.672 73.976C93.584 73.88 93.54 73.76 93.54 73.616V69.956C93.54 69.508 93.412 69.16 93.156 68.912C92.9 68.656 92.56 68.528 92.136 68.528C91.848 68.528 91.576 68.588 91.32 68.708C91.072 68.82 90.868 68.984 90.708 69.2C90.556 69.408 90.48 69.656 90.48 69.944V73.616C90.48 73.76 90.432 73.88 90.336 73.976C90.248 74.072 90.132 74.12 89.988 74.12ZM102.864 74.18C102.504 74.18 102.196 74.124 101.94 74.012C101.692 73.9 101.484 73.76 101.316 73.592C101.148 73.424 101.016 73.26 100.92 73.1L100.992 73.052V76.028C100.992 76.164 100.944 76.28 100.848 76.376C100.752 76.472 100.636 76.52 100.5 76.52C100.372 76.52 100.26 76.472 100.164 76.376C100.068 76.28 100.02 76.164 100.02 76.028V68.216C100.02 68.08 100.068 67.96 100.164 67.856C100.26 67.752 100.372 67.7 100.5 67.7C100.636 67.7 100.752 67.748 100.848 67.844C100.944 67.932 100.992 68.052 100.992 68.204L100.98 68.744L100.932 68.732C101.068 68.46 101.308 68.212 101.652 67.988C101.996 67.756 102.416 67.64 102.912 67.64C103.312 67.64 103.672 67.724 103.992 67.892C104.312 68.052 104.584 68.28 104.808 68.576C105.032 68.864 105.204 69.208 105.324 69.608C105.444 70 105.504 70.428 105.504 70.892C105.504 71.356 105.444 71.788 105.324 72.188C105.212 72.58 105.04 72.928 104.808 73.232C104.584 73.528 104.308 73.76 103.98 73.928C103.66 74.096 103.288 74.18 102.864 74.18ZM102.732 73.292C103.292 73.292 103.732 73.08 104.052 72.656C104.372 72.224 104.532 71.636 104.532 70.892C104.532 70.404 104.46 69.984 104.316 69.632C104.18 69.28 103.976 69.008 103.704 68.816C103.44 68.624 103.112 68.528 102.72 68.528C102.144 68.528 101.7 68.736 101.388 69.152C101.076 69.568 100.92 70.144 100.92 70.88C100.92 71.624 101.08 72.212 101.4 72.644C101.72 73.076 102.164 73.292 102.732 73.292ZM108.628 74.18C108.18 74.18 107.792 74.1 107.464 73.94C107.144 73.772 106.896 73.548 106.72 73.268C106.552 72.988 106.468 72.676 106.468 72.332C106.468 71.836 106.652 71.412 107.02 71.06C107.396 70.7 107.996 70.472 108.82 70.376C109.164 70.336 109.46 70.292 109.708 70.244C109.956 70.196 110.148 70.116 110.284 70.004C110.428 69.892 110.5 69.728 110.5 69.512C110.5 69.344 110.456 69.188 110.368 69.044C110.288 68.892 110.152 68.768 109.96 68.672C109.776 68.576 109.528 68.528 109.216 68.528C108.8 68.528 108.488 68.612 108.28 68.78C108.072 68.94 107.928 69.1 107.848 69.26C107.792 69.364 107.724 69.444 107.644 69.5C107.564 69.556 107.468 69.584 107.356 69.584C107.22 69.584 107.116 69.544 107.044 69.464C106.972 69.376 106.936 69.268 106.936 69.14C106.936 68.988 106.988 68.828 107.092 68.66C107.196 68.484 107.348 68.32 107.548 68.168C107.756 68.008 108.004 67.88 108.292 67.784C108.588 67.688 108.924 67.64 109.3 67.64C109.844 67.64 110.272 67.744 110.584 67.952C110.904 68.152 111.132 68.428 111.268 68.78C111.404 69.124 111.472 69.508 111.472 69.932V72.92C111.472 73 111.48 73.06 111.496 73.1C111.52 73.14 111.56 73.164 111.616 73.172C111.728 73.18 111.824 73.228 111.904 73.316C111.984 73.396 112.024 73.5 112.024 73.628C112.024 73.764 111.968 73.88 111.856 73.976C111.752 74.072 111.604 74.12 111.412 74.12C111.172 74.12 110.984 74.052 110.848 73.916C110.72 73.772 110.656 73.596 110.656 73.388V73.184H110.62C110.42 73.48 110.156 73.72 109.828 73.904C109.508 74.088 109.108 74.18 108.628 74.18ZM108.64 73.292C109 73.292 109.32 73.216 109.6 73.064C109.888 72.912 110.112 72.708 110.272 72.452C110.44 72.196 110.524 71.912 110.524 71.6V70.784C110.524 70.768 110.516 70.76 110.5 70.76C110.492 70.752 110.476 70.764 110.452 70.796C110.332 70.892 110.168 70.968 109.96 71.024C109.76 71.072 109.556 71.112 109.348 71.144C109.14 71.176 108.968 71.204 108.832 71.228C108.416 71.292 108.076 71.404 107.812 71.564C107.556 71.724 107.428 71.964 107.428 72.284C107.428 72.524 107.52 72.752 107.704 72.968C107.888 73.184 108.2 73.292 108.64 73.292ZM113.672 74.12C113.536 74.12 113.42 74.072 113.324 73.976C113.236 73.872 113.192 73.752 113.192 73.616V68.192C113.192 68.056 113.236 67.94 113.324 67.844C113.42 67.748 113.536 67.7 113.672 67.7C113.808 67.7 113.924 67.748 114.02 67.844C114.116 67.94 114.164 68.056 114.164 68.192V69.008L114.044 68.768C114.124 68.6 114.244 68.428 114.404 68.252C114.572 68.076 114.772 67.932 115.004 67.82C115.244 67.7 115.52 67.64 115.832 67.64C116 67.64 116.132 67.684 116.228 67.772C116.332 67.86 116.384 67.972 116.384 68.108C116.384 68.244 116.336 68.36 116.24 68.456C116.144 68.552 116.024 68.6 115.88 68.6C115.544 68.6 115.248 68.672 114.992 68.816C114.736 68.952 114.532 69.132 114.38 69.356C114.236 69.572 114.164 69.8 114.164 70.04V73.616C114.164 73.752 114.116 73.872 114.02 73.976C113.924 74.072 113.808 74.12 113.672 74.12ZM119.626 74.18C119.098 74.18 118.614 74.06 118.174 73.82C117.742 73.58 117.394 73.22 117.13 72.74C116.874 72.26 116.746 71.668 116.746 70.964C116.746 70.292 116.866 69.708 117.106 69.212C117.346 68.716 117.67 68.332 118.078 68.06C118.494 67.78 118.966 67.64 119.494 67.64C119.902 67.64 120.27 67.72 120.598 67.88C120.926 68.032 121.202 68.244 121.426 68.516C121.658 68.78 121.834 69.08 121.954 69.416C122.082 69.744 122.146 70.088 122.146 70.448C122.146 70.68 122.102 70.868 122.014 71.012C121.926 71.148 121.746 71.216 121.474 71.216H117.73C117.762 71.704 117.866 72.1 118.042 72.404C118.218 72.708 118.438 72.932 118.702 73.076C118.974 73.212 119.27 73.28 119.59 73.28C120.022 73.28 120.366 73.18 120.622 72.98C120.878 72.78 121.054 72.544 121.15 72.272C121.19 72.176 121.242 72.096 121.306 72.032C121.378 71.96 121.474 71.924 121.594 71.924C121.73 71.924 121.838 71.976 121.918 72.08C121.998 72.176 122.034 72.304 122.026 72.464C122.018 72.624 121.962 72.804 121.858 73.004C121.754 73.196 121.602 73.384 121.402 73.568C121.21 73.744 120.966 73.888 120.67 74C120.374 74.12 120.026 74.18 119.626 74.18ZM117.742 70.388H121.222C121.166 69.844 120.99 69.4 120.694 69.056C120.398 68.704 119.994 68.528 119.482 68.528C119.026 68.528 118.638 68.684 118.318 68.996C118.006 69.308 117.814 69.772 117.742 70.388ZM125.725 74.18C125.149 74.18 124.665 74.028 124.273 73.724C123.889 73.42 123.597 73.02 123.397 72.524C123.205 72.028 123.109 71.496 123.109 70.928C123.109 70.328 123.213 69.78 123.421 69.284C123.629 68.788 123.933 68.392 124.333 68.096C124.741 67.792 125.233 67.64 125.809 67.64C126.145 67.64 126.437 67.692 126.685 67.796C126.941 67.892 127.157 68.02 127.333 68.18C127.509 68.332 127.645 68.496 127.741 68.672L127.645 68.696V65.732C127.645 65.596 127.689 65.48 127.777 65.384C127.873 65.288 127.989 65.24 128.125 65.24C128.261 65.24 128.373 65.288 128.461 65.384C128.557 65.48 128.605 65.596 128.605 65.732V73.592C128.605 73.736 128.557 73.86 128.461 73.964C128.373 74.06 128.261 74.108 128.125 74.108C127.989 74.108 127.873 74.06 127.777 73.964C127.689 73.86 127.645 73.736 127.645 73.592V73.028L127.729 73.04C127.641 73.24 127.501 73.428 127.309 73.604C127.125 73.772 126.897 73.908 126.625 74.012C126.361 74.124 126.061 74.18 125.725 74.18ZM125.917 73.28C126.485 73.264 126.921 73.044 127.225 72.62C127.537 72.196 127.693 71.632 127.693 70.928C127.693 70.192 127.533 69.608 127.213 69.176C126.901 68.744 126.457 68.528 125.881 68.528C125.321 68.528 124.877 68.744 124.549 69.176C124.229 69.6 124.069 70.18 124.069 70.916C124.069 71.652 124.229 72.232 124.549 72.656C124.877 73.08 125.333 73.288 125.917 73.28ZM135.274 74.12C135.002 74.12 134.766 74.06 134.566 73.94C134.374 73.812 134.226 73.636 134.122 73.412C134.018 73.18 133.966 72.916 133.966 72.62V66.98C133.966 66.844 134.01 66.732 134.098 66.644C134.194 66.548 134.31 66.5 134.446 66.5C134.582 66.5 134.694 66.548 134.782 66.644C134.878 66.732 134.926 66.844 134.926 66.98V72.608C134.926 72.76 134.95 72.892 134.998 73.004C135.046 73.108 135.146 73.16 135.298 73.16C135.402 73.16 135.478 73.136 135.526 73.088C135.582 73.04 135.638 72.996 135.694 72.956C135.75 72.908 135.83 72.884 135.934 72.884C136.078 72.884 136.194 72.932 136.282 73.028C136.37 73.116 136.414 73.228 136.414 73.364C136.414 73.508 136.358 73.64 136.246 73.76C136.142 73.872 136.002 73.96 135.826 74.024C135.658 74.088 135.474 74.12 135.274 74.12ZM133.582 68.696C133.454 68.696 133.342 68.656 133.246 68.576C133.158 68.488 133.114 68.38 133.114 68.252C133.114 68.132 133.158 68.032 133.246 67.952C133.342 67.864 133.454 67.82 133.582 67.82H136.114C136.242 67.82 136.35 67.864 136.438 67.952C136.534 68.032 136.582 68.132 136.582 68.252C136.582 68.38 136.534 68.488 136.438 68.576C136.35 68.656 136.242 68.696 136.114 68.696H133.582ZM140.354 74.18C139.794 74.18 139.302 74.044 138.878 73.772C138.462 73.492 138.134 73.104 137.894 72.608C137.662 72.112 137.546 71.54 137.546 70.892C137.546 70.244 137.662 69.676 137.894 69.188C138.134 68.7 138.462 68.32 138.878 68.048C139.302 67.776 139.794 67.64 140.354 67.64C140.922 67.64 141.418 67.776 141.842 68.048C142.274 68.32 142.61 68.7 142.85 69.188C143.09 69.676 143.21 70.244 143.21 70.892C143.21 71.54 143.09 72.112 142.85 72.608C142.61 73.104 142.274 73.492 141.842 73.772C141.418 74.044 140.922 74.18 140.354 74.18ZM140.354 73.28C140.946 73.28 141.406 73.068 141.734 72.644C142.062 72.22 142.226 71.636 142.226 70.892C142.226 70.164 142.062 69.588 141.734 69.164C141.406 68.74 140.946 68.528 140.354 68.528C139.77 68.528 139.318 68.74 138.998 69.164C138.678 69.588 138.518 70.164 138.518 70.892C138.518 71.636 138.678 72.22 138.998 72.644C139.318 73.068 139.77 73.28 140.354 73.28ZM148.312 74.12C148.176 74.12 148.06 74.072 147.964 73.976C147.876 73.872 147.832 73.752 147.832 73.616V65.732C147.832 65.596 147.876 65.48 147.964 65.384C148.06 65.288 148.176 65.24 148.312 65.24C148.448 65.24 148.564 65.288 148.66 65.384C148.756 65.48 148.804 65.596 148.804 65.732V73.616C148.804 73.752 148.756 73.872 148.66 73.976C148.564 74.072 148.448 74.12 148.312 74.12ZM152.281 74.18C151.833 74.18 151.445 74.1 151.117 73.94C150.797 73.772 150.549 73.548 150.373 73.268C150.205 72.988 150.121 72.676 150.121 72.332C150.121 71.836 150.305 71.412 150.673 71.06C151.049 70.7 151.649 70.472 152.473 70.376C152.817 70.336 153.113 70.292 153.361 70.244C153.609 70.196 153.801 70.116 153.937 70.004C154.081 69.892 154.153 69.728 154.153 69.512C154.153 69.344 154.109 69.188 154.021 69.044C153.941 68.892 153.805 68.768 153.613 68.672C153.429 68.576 153.181 68.528 152.869 68.528C152.453 68.528 152.141 68.612 151.933 68.78C151.725 68.94 151.581 69.1 151.501 69.26C151.445 69.364 151.377 69.444 151.297 69.5C151.217 69.556 151.121 69.584 151.009 69.584C150.873 69.584 150.769 69.544 150.697 69.464C150.625 69.376 150.589 69.268 150.589 69.14C150.589 68.988 150.641 68.828 150.745 68.66C150.849 68.484 151.001 68.32 151.201 68.168C151.409 68.008 151.657 67.88 151.945 67.784C152.241 67.688 152.577 67.64 152.953 67.64C153.497 67.64 153.925 67.744 154.237 67.952C154.557 68.152 154.785 68.428 154.921 68.78C155.057 69.124 155.125 69.508 155.125 69.932V72.92C155.125 73 155.133 73.06 155.149 73.1C155.173 73.14 155.213 73.164 155.269 73.172C155.381 73.18 155.477 73.228 155.557 73.316C155.637 73.396 155.677 73.5 155.677 73.628C155.677 73.764 155.621 73.88 155.509 73.976C155.405 74.072 155.257 74.12 155.065 74.12C154.825 74.12 154.637 74.052 154.501 73.916C154.373 73.772 154.309 73.596 154.309 73.388V73.184H154.273C154.073 73.48 153.809 73.72 153.481 73.904C153.161 74.088 152.761 74.18 152.281 74.18ZM152.293 73.292C152.653 73.292 152.973 73.216 153.253 73.064C153.541 72.912 153.765 72.708 153.925 72.452C154.093 72.196 154.177 71.912 154.177 71.6V70.784C154.177 70.768 154.169 70.76 154.153 70.76C154.145 70.752 154.129 70.764 154.105 70.796C153.985 70.892 153.821 70.968 153.613 71.024C153.413 71.072 153.209 71.112 153.001 71.144C152.793 71.176 152.621 71.204 152.485 71.228C152.069 71.292 151.729 71.404 151.465 71.564C151.209 71.724 151.081 71.964 151.081 72.284C151.081 72.524 151.173 72.752 151.357 72.968C151.541 73.184 151.853 73.292 152.293 73.292ZM158.956 74.216C158.412 74.216 157.96 74.12 157.6 73.928C157.24 73.728 156.968 73.496 156.784 73.232C156.6 72.96 156.5 72.716 156.484 72.5C156.476 72.332 156.512 72.204 156.592 72.116C156.68 72.02 156.788 71.972 156.916 71.972C157.036 71.972 157.132 72.008 157.204 72.08C157.276 72.144 157.328 72.22 157.36 72.308C157.456 72.58 157.632 72.82 157.888 73.028C158.144 73.228 158.504 73.328 158.968 73.328C159.392 73.328 159.716 73.24 159.94 73.064C160.164 72.88 160.276 72.644 160.276 72.356C160.276 72.132 160.208 71.956 160.072 71.828C159.944 71.692 159.764 71.584 159.532 71.504C159.3 71.424 159.032 71.344 158.728 71.264C158.504 71.2 158.272 71.132 158.032 71.06C157.792 70.98 157.568 70.876 157.36 70.748C157.152 70.62 156.984 70.456 156.856 70.256C156.728 70.056 156.664 69.804 156.664 69.5C156.664 69.164 156.752 68.856 156.928 68.576C157.104 68.288 157.36 68.06 157.696 67.892C158.032 67.716 158.432 67.628 158.896 67.628C159.368 67.628 159.764 67.708 160.084 67.868C160.404 68.028 160.648 68.224 160.816 68.456C160.992 68.68 161.084 68.896 161.092 69.104C161.1 69.256 161.068 69.376 160.996 69.464C160.924 69.552 160.82 69.596 160.684 69.596C160.596 69.596 160.508 69.572 160.42 69.524C160.332 69.476 160.256 69.4 160.192 69.296C160.136 69.184 160.06 69.068 159.964 68.948C159.876 68.82 159.748 68.716 159.58 68.636C159.412 68.548 159.18 68.504 158.884 68.504C158.508 68.504 158.2 68.588 157.96 68.756C157.72 68.916 157.6 69.136 157.6 69.416C157.6 69.632 157.668 69.8 157.804 69.92C157.948 70.04 158.132 70.136 158.356 70.208C158.588 70.28 158.84 70.356 159.112 70.436C159.368 70.508 159.62 70.588 159.868 70.676C160.116 70.756 160.34 70.864 160.54 71C160.748 71.128 160.912 71.292 161.032 71.492C161.16 71.692 161.224 71.94 161.224 72.236C161.224 72.532 161.148 72.836 160.996 73.148C160.852 73.452 160.612 73.708 160.276 73.916C159.948 74.116 159.508 74.216 158.956 74.216ZM164.219 74.12C163.947 74.12 163.711 74.06 163.511 73.94C163.319 73.812 163.171 73.636 163.067 73.412C162.963 73.18 162.911 72.916 162.911 72.62V66.98C162.911 66.844 162.955 66.732 163.043 66.644C163.139 66.548 163.255 66.5 163.391 66.5C163.527 66.5 163.639 66.548 163.727 66.644C163.823 66.732 163.871 66.844 163.871 66.98V72.608C163.871 72.76 163.895 72.892 163.943 73.004C163.991 73.108 164.091 73.16 164.243 73.16C164.347 73.16 164.423 73.136 164.471 73.088C164.527 73.04 164.583 72.996 164.639 72.956C164.695 72.908 164.775 72.884 164.879 72.884C165.023 72.884 165.139 72.932 165.227 73.028C165.315 73.116 165.359 73.228 165.359 73.364C165.359 73.508 165.303 73.64 165.191 73.76C165.087 73.872 164.947 73.96 164.771 74.024C164.603 74.088 164.419 74.12 164.219 74.12ZM162.527 68.696C162.399 68.696 162.287 68.656 162.191 68.576C162.103 68.488 162.059 68.38 162.059 68.252C162.059 68.132 162.103 68.032 162.191 67.952C162.287 67.864 162.399 67.82 162.527 67.82H165.059C165.187 67.82 165.295 67.864 165.383 67.952C165.479 68.032 165.527 68.132 165.527 68.252C165.527 68.38 165.479 68.488 165.383 68.576C165.295 68.656 165.187 68.696 165.059 68.696H162.527ZM170.636 74.12C170.5 74.12 170.384 74.072 170.288 73.976C170.2 73.88 170.156 73.76 170.156 73.616V68.192C170.156 68.048 170.2 67.932 170.288 67.844C170.384 67.748 170.5 67.7 170.636 67.7C170.78 67.7 170.896 67.748 170.984 67.844C171.08 67.932 171.128 68.048 171.128 68.192V68.924L170.924 68.756C171.092 68.492 171.28 68.28 171.488 68.12C171.704 67.952 171.936 67.832 172.184 67.76C172.432 67.68 172.684 67.64 172.94 67.64C173.404 67.64 173.812 67.752 174.164 67.976C174.524 68.2 174.788 68.524 174.956 68.948L174.608 68.996C174.816 68.644 175.044 68.372 175.292 68.18C175.54 67.98 175.792 67.84 176.048 67.76C176.312 67.68 176.572 67.64 176.828 67.64C177.252 67.64 177.632 67.732 177.968 67.916C178.304 68.092 178.568 68.352 178.76 68.696C178.952 69.032 179.048 69.44 179.048 69.92V73.616C179.048 73.76 179.004 73.88 178.916 73.976C178.828 74.072 178.716 74.12 178.58 74.12C178.436 74.12 178.316 74.072 178.22 73.976C178.132 73.88 178.088 73.76 178.088 73.616V69.956C178.088 69.508 177.956 69.16 177.692 68.912C177.436 68.664 177.096 68.54 176.672 68.54C176.4 68.54 176.148 68.596 175.916 68.708C175.684 68.812 175.5 68.968 175.364 69.176C175.228 69.376 175.16 69.624 175.16 69.92V73.616C175.16 73.76 175.112 73.88 175.016 73.976C174.928 74.072 174.816 74.12 174.68 74.12C174.536 74.12 174.416 74.072 174.32 73.976C174.232 73.88 174.188 73.76 174.188 73.616V69.956C174.188 69.508 174.06 69.16 173.804 68.912C173.548 68.656 173.208 68.528 172.784 68.528C172.496 68.528 172.224 68.588 171.968 68.708C171.72 68.82 171.516 68.984 171.356 69.2C171.204 69.408 171.128 69.656 171.128 69.944V73.616C171.128 73.76 171.08 73.88 170.984 73.976C170.896 74.072 170.78 74.12 170.636 74.12ZM183.116 74.18C182.556 74.18 182.064 74.044 181.64 73.772C181.224 73.492 180.896 73.104 180.656 72.608C180.424 72.112 180.308 71.54 180.308 70.892C180.308 70.244 180.424 69.676 180.656 69.188C180.896 68.7 181.224 68.32 181.64 68.048C182.064 67.776 182.556 67.64 183.116 67.64C183.684 67.64 184.18 67.776 184.604 68.048C185.036 68.32 185.372 68.7 185.612 69.188C185.852 69.676 185.972 70.244 185.972 70.892C185.972 71.54 185.852 72.112 185.612 72.608C185.372 73.104 185.036 73.492 184.604 73.772C184.18 74.044 183.684 74.18 183.116 74.18ZM183.116 73.28C183.708 73.28 184.168 73.068 184.496 72.644C184.824 72.22 184.988 71.636 184.988 70.892C184.988 70.164 184.824 69.588 184.496 69.164C184.168 68.74 183.708 68.528 183.116 68.528C182.532 68.528 182.08 68.74 181.76 69.164C181.44 69.588 181.28 70.164 181.28 70.892C181.28 71.636 181.44 72.22 181.76 72.644C182.08 73.068 182.532 73.28 183.116 73.28ZM187.769 74.12C187.633 74.12 187.517 74.072 187.421 73.976C187.333 73.88 187.289 73.76 187.289 73.616V68.192C187.289 68.048 187.333 67.932 187.421 67.844C187.517 67.748 187.633 67.7 187.769 67.7C187.913 67.7 188.029 67.748 188.117 67.844C188.213 67.932 188.261 68.048 188.261 68.192V68.996L188.057 68.78C188.313 68.388 188.617 68.1 188.969 67.916C189.329 67.732 189.713 67.64 190.121 67.64C190.553 67.64 190.941 67.732 191.285 67.916C191.629 68.092 191.897 68.352 192.089 68.696C192.289 69.032 192.389 69.448 192.389 69.944V73.616C192.389 73.76 192.345 73.88 192.257 73.976C192.169 74.072 192.053 74.12 191.909 74.12C191.757 74.12 191.637 74.072 191.549 73.976C191.461 73.88 191.417 73.76 191.417 73.616V69.98C191.417 69.524 191.281 69.168 191.009 68.912C190.745 68.656 190.393 68.528 189.953 68.528C189.657 68.528 189.381 68.588 189.125 68.708C188.869 68.828 188.661 69 188.501 69.224C188.341 69.44 188.261 69.7 188.261 70.004V73.616C188.261 73.76 188.213 73.88 188.117 73.976C188.029 74.072 187.913 74.12 187.769 74.12ZM195.684 74.12C195.412 74.12 195.176 74.06 194.976 73.94C194.784 73.812 194.636 73.636 194.532 73.412C194.428 73.18 194.376 72.916 194.376 72.62V66.98C194.376 66.844 194.42 66.732 194.508 66.644C194.604 66.548 194.72 66.5 194.856 66.5C194.992 66.5 195.104 66.548 195.192 66.644C195.288 66.732 195.336 66.844 195.336 66.98V72.608C195.336 72.76 195.36 72.892 195.408 73.004C195.456 73.108 195.556 73.16 195.708 73.16C195.812 73.16 195.888 73.136 195.936 73.088C195.992 73.04 196.048 72.996 196.104 72.956C196.16 72.908 196.24 72.884 196.344 72.884C196.488 72.884 196.604 72.932 196.692 73.028C196.78 73.116 196.824 73.228 196.824 73.364C196.824 73.508 196.768 73.64 196.656 73.76C196.552 73.872 196.412 73.96 196.236 74.024C196.068 74.088 195.884 74.12 195.684 74.12ZM193.992 68.696C193.864 68.696 193.752 68.656 193.656 68.576C193.568 68.488 193.524 68.38 193.524 68.252C193.524 68.132 193.568 68.032 193.656 67.952C193.752 67.864 193.864 67.82 193.992 67.82H196.524C196.652 67.82 196.76 67.864 196.848 67.952C196.944 68.032 196.992 68.132 196.992 68.252C196.992 68.38 196.944 68.488 196.848 68.576C196.76 68.656 196.652 68.696 196.524 68.696H193.992ZM198.797 74.12C198.661 74.12 198.545 74.072 198.449 73.976C198.361 73.88 198.317 73.76 198.317 73.616V65.732C198.317 65.588 198.361 65.472 198.449 65.384C198.545 65.288 198.661 65.24 198.797 65.24C198.941 65.24 199.057 65.288 199.145 65.384C199.241 65.472 199.289 65.588 199.289 65.732V68.996L199.085 68.78C199.341 68.388 199.641 68.1 199.985 67.916C200.337 67.732 200.717 67.64 201.125 67.64C201.549 67.64 201.929 67.732 202.265 67.916C202.609 68.092 202.877 68.352 203.069 68.696C203.269 69.032 203.369 69.448 203.369 69.944V73.616C203.369 73.76 203.325 73.88 203.237 73.976C203.149 74.072 203.033 74.12 202.889 74.12C202.753 74.12 202.637 74.072 202.541 73.976C202.453 73.88 202.409 73.76 202.409 73.616V69.98C202.409 69.524 202.277 69.168 202.013 68.912C201.749 68.656 201.405 68.528 200.981 68.528C200.685 68.528 200.405 68.588 200.141 68.708C199.885 68.828 199.677 69 199.517 69.224C199.365 69.44 199.289 69.7 199.289 70.004V73.616C199.289 73.76 199.241 73.88 199.145 73.976C199.057 74.072 198.941 74.12 198.797 74.12Z" fill="#2E2C28"/>
</g>
<defs>
<filter id="filter0_d_6007_18056" x="0" y="0" width="221" height="101" filterUnits="userSpaceOnUse" color-interpolation-filters="sRGB">
<feFlood flood-opacity="0" result="BackgroundImageFix"/>
<feColorMatrix in="SourceAlpha" type="matrix" values="0 0 0 0 0 0 0 0 0 0 0 0 0 0 0 0 0 0 127 0" result="hardAlpha"/>
<feOffset dy="4"/>
<feGaussianBlur stdDeviation="2"/>
<feComposite in2="hardAlpha" operator="out"/>
<feColorMatrix type="matrix" values="0 0 0 0 0 0 0 0 0 0 0 0 0 0 0 0 0 0 0.15 0"/>
<feBlend mode="normal" in2="BackgroundImageFix" result="effect1_dropShadow_6007_18056"/>
<feBlend mode="normal" in="SourceGraphic" in2="effect1_dropShadow_6007_18056" result="shape"/>
</filter>
<clipPath id="clip0_6007_18056">
<rect width="7.02056" height="7.25806" fill="white" transform="translate(22.125 67.3708)"/>
</clipPath>
</defs>
</svg>
