<svg width="247" height="113" viewBox="0 0 247 113" fill="none" xmlns="http://www.w3.org/2000/svg">
<g filter="url(#filter0_d_6288_16948)">
<rect x="4" width="239" height="105" rx="16" fill="#F7F8FD" shape-rendering="crispEdges"/>
<rect x="4.5" y="0.5" width="238" height="104" rx="15.5" stroke="#7A88E1" shape-rendering="crispEdges"/>
<path d="M19.756 21.278C19.6067 21.278 19.476 21.2267 19.364 21.124C19.2613 21.0213 19.21 20.8907 19.21 20.732C19.21 20.5733 19.2613 20.4473 19.364 20.354C19.476 20.2513 19.6067 20.2 19.756 20.2H25.762C25.9207 20.2 26.0513 20.2513 26.154 20.354C26.2567 20.4473 26.308 20.5733 26.308 20.732C26.308 20.8907 26.2567 21.0213 26.154 21.124C26.0513 21.2267 25.9207 21.278 25.762 21.278H19.756ZM22.752 30.14C22.5933 30.14 22.458 30.084 22.346 29.972C22.2433 29.86 22.192 29.7247 22.192 29.566V20.802H23.34V29.566C23.34 29.7247 23.284 29.86 23.172 29.972C23.0693 30.084 22.9293 30.14 22.752 30.14ZM29.084 30.21C28.4307 30.21 27.8567 30.0513 27.362 29.734C26.8767 29.4073 26.494 28.9547 26.214 28.376C25.9434 27.7973 25.808 27.13 25.808 26.374C25.808 25.618 25.9434 24.9553 26.214 24.386C26.494 23.8167 26.8767 23.3733 27.362 23.056C27.8567 22.7387 28.4307 22.58 29.084 22.58C29.7467 22.58 30.3254 22.7387 30.82 23.056C31.324 23.3733 31.716 23.8167 31.996 24.386C32.276 24.9553 32.416 25.618 32.416 26.374C32.416 27.13 32.276 27.7973 31.996 28.376C31.716 28.9547 31.324 29.4073 30.82 29.734C30.3254 30.0513 29.7467 30.21 29.084 30.21ZM29.084 29.16C29.7747 29.16 30.3114 28.9127 30.694 28.418C31.0767 27.9233 31.268 27.242 31.268 26.374C31.268 25.5247 31.0767 24.8527 30.694 24.358C30.3114 23.8633 29.7747 23.616 29.084 23.616C28.4027 23.616 27.8754 23.8633 27.502 24.358C27.1287 24.8527 26.942 25.5247 26.942 26.374C26.942 27.242 27.1287 27.9233 27.502 28.418C27.8754 28.9127 28.4027 29.16 29.084 29.16ZM35.9127 30.14C35.5953 30.14 35.32 30.07 35.0867 29.93C34.8627 29.7807 34.69 29.5753 34.5687 29.314C34.4473 29.0433 34.3867 28.7353 34.3867 28.39V21.81C34.3867 21.6513 34.438 21.5207 34.5407 21.418C34.6527 21.306 34.788 21.25 34.9467 21.25C35.1053 21.25 35.236 21.306 35.3387 21.418C35.4507 21.5207 35.5067 21.6513 35.5067 21.81V28.376C35.5067 28.5533 35.5347 28.7073 35.5907 28.838C35.6467 28.9593 35.7633 29.02 35.9407 29.02C36.062 29.02 36.1507 28.992 36.2067 28.936C36.272 28.88 36.3373 28.8287 36.4027 28.782C36.468 28.726 36.5613 28.698 36.6827 28.698C36.8507 28.698 36.986 28.754 37.0887 28.866C37.1913 28.9687 37.2427 29.0993 37.2427 29.258C37.2427 29.426 37.1773 29.58 37.0467 29.72C36.9253 29.8507 36.762 29.9533 36.5567 30.028C36.3607 30.1027 36.146 30.14 35.9127 30.14ZM33.9387 23.812C33.7893 23.812 33.6587 23.7653 33.5467 23.672C33.444 23.5693 33.3927 23.4433 33.3927 23.294C33.3927 23.154 33.444 23.0373 33.5467 22.944C33.6587 22.8413 33.7893 22.79 33.9387 22.79H36.8927C37.042 22.79 37.168 22.8413 37.2707 22.944C37.3827 23.0373 37.4387 23.154 37.4387 23.294C37.4387 23.4433 37.3827 23.5693 37.2707 23.672C37.168 23.7653 37.042 23.812 36.8927 23.812H33.9387ZM41.0839 30.21C40.5612 30.21 40.1086 30.1167 39.7259 29.93C39.3526 29.734 39.0632 29.4727 38.8579 29.146C38.6619 28.8193 38.5639 28.4553 38.5639 28.054C38.5639 27.4753 38.7786 26.9807 39.2079 26.57C39.6466 26.15 40.3466 25.884 41.3079 25.772C41.7092 25.7253 42.0546 25.674 42.3439 25.618C42.6332 25.562 42.8572 25.4687 43.0159 25.338C43.1839 25.2073 43.2679 25.016 43.2679 24.764C43.2679 24.568 43.2166 24.386 43.1139 24.218C43.0206 24.0407 42.8619 23.896 42.6379 23.784C42.4232 23.672 42.1339 23.616 41.7699 23.616C41.2846 23.616 40.9206 23.714 40.6779 23.91C40.4352 24.0967 40.2672 24.2833 40.1739 24.47C40.1086 24.5913 40.0292 24.6847 39.9359 24.75C39.8426 24.8153 39.7306 24.848 39.5999 24.848C39.4412 24.848 39.3199 24.8013 39.2359 24.708C39.1519 24.6053 39.1099 24.4793 39.1099 24.33C39.1099 24.1527 39.1706 23.966 39.2919 23.77C39.4132 23.5647 39.5906 23.3733 39.8239 23.196C40.0666 23.0093 40.3559 22.86 40.6919 22.748C41.0372 22.636 41.4292 22.58 41.8679 22.58C42.5026 22.58 43.0019 22.7013 43.3659 22.944C43.7392 23.1773 44.0052 23.4993 44.1639 23.91C44.3226 24.3113 44.4019 24.7593 44.4019 25.254V28.74C44.4019 28.8333 44.4112 28.9033 44.4299 28.95C44.4579 28.9967 44.5046 29.0247 44.5699 29.034C44.7006 29.0433 44.8126 29.0993 44.9059 29.202C44.9992 29.2953 45.0459 29.4167 45.0459 29.566C45.0459 29.7247 44.9806 29.86 44.8499 29.972C44.7286 30.084 44.5559 30.14 44.3319 30.14C44.0519 30.14 43.8326 30.0607 43.6739 29.902C43.5246 29.734 43.4499 29.5287 43.4499 29.286V29.048H43.4079C43.1746 29.3933 42.8666 29.6733 42.4839 29.888C42.1106 30.1027 41.6439 30.21 41.0839 30.21ZM41.0979 29.174C41.5179 29.174 41.8912 29.0853 42.2179 28.908C42.5539 28.7307 42.8152 28.4927 43.0019 28.194C43.1979 27.8953 43.2959 27.564 43.2959 27.2V26.248C43.2959 26.2293 43.2866 26.22 43.2679 26.22C43.2586 26.2107 43.2399 26.2247 43.2119 26.262C43.0719 26.374 42.8806 26.4627 42.6379 26.528C42.4046 26.584 42.1666 26.6307 41.9239 26.668C41.6812 26.7053 41.4806 26.738 41.3219 26.766C40.8366 26.8407 40.4399 26.9713 40.1319 27.158C39.8332 27.3447 39.6839 27.6247 39.6839 27.998C39.6839 28.278 39.7912 28.544 40.0059 28.796C40.2206 29.048 40.5846 29.174 41.0979 29.174ZM46.9677 30.14C46.8091 30.14 46.6737 30.084 46.5617 29.972C46.4591 29.8507 46.4077 29.7107 46.4077 29.552V20.354C46.4077 20.1953 46.4591 20.06 46.5617 19.948C46.6737 19.836 46.8091 19.78 46.9677 19.78C47.1264 19.78 47.2617 19.836 47.3737 19.948C47.4857 20.06 47.5417 20.1953 47.5417 20.354V29.552C47.5417 29.7107 47.4857 29.8507 47.3737 29.972C47.2617 30.084 47.1264 30.14 46.9677 30.14ZM53.927 30.14C53.759 30.14 53.619 30.0887 53.507 29.986C53.4044 29.874 53.353 29.7387 53.353 29.58V23.21C53.353 23.0513 53.4044 22.9207 53.507 22.818C53.619 22.706 53.759 22.65 53.927 22.65C54.0857 22.65 54.2164 22.706 54.319 22.818C54.431 22.9207 54.487 23.0513 54.487 23.21V29.58C54.487 29.7387 54.431 29.874 54.319 29.986C54.2164 30.0887 54.0857 30.14 53.927 30.14ZM53.913 21.796C53.7077 21.796 53.5397 21.7307 53.409 21.6C53.2784 21.46 53.213 21.2593 53.213 20.998C53.213 20.7553 53.2784 20.564 53.409 20.424C53.5397 20.284 53.7077 20.214 53.913 20.214C54.1277 20.214 54.3004 20.284 54.431 20.424C54.5617 20.564 54.627 20.7553 54.627 20.998C54.627 21.2593 54.5617 21.46 54.431 21.6C54.3004 21.7307 54.1277 21.796 53.913 21.796ZM57.0029 30.14C56.8442 30.14 56.7089 30.084 56.5969 29.972C56.4942 29.86 56.4429 29.72 56.4429 29.552V23.224C56.4429 23.056 56.4942 22.9207 56.5969 22.818C56.7089 22.706 56.8442 22.65 57.0029 22.65C57.1709 22.65 57.3062 22.706 57.4089 22.818C57.5209 22.9207 57.5769 23.056 57.5769 23.224V24.162L57.3389 23.91C57.6376 23.4527 57.9922 23.1167 58.4029 22.902C58.8229 22.6873 59.2709 22.58 59.7469 22.58C60.2509 22.58 60.7036 22.6873 61.1049 22.902C61.5062 23.1073 61.8189 23.4107 62.0429 23.812C62.2762 24.204 62.3929 24.6893 62.3929 25.268V29.552C62.3929 29.72 62.3416 29.86 62.2389 29.972C62.1362 30.084 62.0009 30.14 61.8329 30.14C61.6556 30.14 61.5156 30.084 61.4129 29.972C61.3102 29.86 61.2589 29.72 61.2589 29.552V25.31C61.2589 24.778 61.1002 24.3627 60.7829 24.064C60.4749 23.7653 60.0642 23.616 59.5509 23.616C59.2056 23.616 58.8836 23.686 58.5849 23.826C58.2862 23.966 58.0436 24.1667 57.8569 24.428C57.6702 24.68 57.5769 24.9833 57.5769 25.338V29.552C57.5769 29.72 57.5209 29.86 57.4089 29.972C57.3062 30.084 57.1709 30.14 57.0029 30.14ZM66.5762 30.14C66.4642 30.14 66.3522 30.1073 66.2402 30.042C66.1375 29.9767 66.0582 29.8693 66.0022 29.72L63.6222 23.434C63.5755 23.3127 63.5662 23.196 63.5942 23.084C63.6222 22.9627 63.6828 22.86 63.7762 22.776C63.8695 22.692 63.9862 22.65 64.1262 22.65C64.2568 22.65 64.3688 22.6827 64.4622 22.748C64.5555 22.8133 64.6208 22.902 64.6582 23.014L66.8702 28.908L66.3102 29.062L68.6342 23.014C68.6808 22.902 68.7508 22.8133 68.8442 22.748C68.9375 22.6827 69.0448 22.65 69.1662 22.65C69.2968 22.65 69.4042 22.692 69.4882 22.776C69.5722 22.8507 69.6282 22.9487 69.6562 23.07C69.6935 23.182 69.6888 23.3033 69.6422 23.434L67.1642 29.706C67.1175 29.846 67.0382 29.9533 66.9262 30.028C66.8142 30.1027 66.6975 30.14 66.5762 30.14ZM73.752 30.21C73.136 30.21 72.5714 30.07 72.058 29.79C71.554 29.51 71.148 29.09 70.84 28.53C70.5414 27.97 70.392 27.2793 70.392 26.458C70.392 25.674 70.532 24.9927 70.812 24.414C71.092 23.8353 71.47 23.3873 71.946 23.07C72.4314 22.7433 72.982 22.58 73.598 22.58C74.074 22.58 74.5034 22.6733 74.886 22.86C75.2687 23.0373 75.5907 23.2847 75.852 23.602C76.1227 23.91 76.328 24.26 76.468 24.652C76.6174 25.0347 76.692 25.436 76.692 25.856C76.692 26.1267 76.6407 26.346 76.538 26.514C76.4354 26.6727 76.2254 26.752 75.908 26.752H71.54C71.5774 27.3213 71.6987 27.7833 71.904 28.138C72.1094 28.4927 72.366 28.754 72.674 28.922C72.9914 29.0807 73.3367 29.16 73.71 29.16C74.214 29.16 74.6154 29.0433 74.914 28.81C75.2127 28.5767 75.418 28.3013 75.53 27.984C75.5767 27.872 75.6374 27.7787 75.712 27.704C75.796 27.62 75.908 27.578 76.048 27.578C76.2067 27.578 76.3327 27.6387 76.426 27.76C76.5194 27.872 76.5614 28.0213 76.552 28.208C76.5427 28.3947 76.4774 28.6047 76.356 28.838C76.2347 29.062 76.0574 29.2813 75.824 29.496C75.6 29.7013 75.3154 29.8693 74.97 30C74.6247 30.14 74.2187 30.21 73.752 30.21ZM71.554 25.786H75.614C75.5487 25.1513 75.3434 24.6333 74.998 24.232C74.6527 23.8213 74.1814 23.616 73.584 23.616C73.052 23.616 72.5994 23.798 72.226 24.162C71.862 24.526 71.638 25.0673 71.554 25.786ZM78.7959 30.14C78.6372 30.14 78.5019 30.084 78.3899 29.972C78.2872 29.86 78.2359 29.72 78.2359 29.552V23.224C78.2359 23.056 78.2872 22.9207 78.3899 22.818C78.5019 22.706 78.6372 22.65 78.7959 22.65C78.9639 22.65 79.0992 22.706 79.2019 22.818C79.3139 22.9207 79.3699 23.056 79.3699 23.224V24.162L79.1319 23.91C79.4305 23.4527 79.7852 23.1167 80.1959 22.902C80.6159 22.6873 81.0639 22.58 81.5399 22.58C82.0439 22.58 82.4965 22.6873 82.8979 22.902C83.2992 23.1073 83.6119 23.4107 83.8359 23.812C84.0692 24.204 84.1859 24.6893 84.1859 25.268V29.552C84.1859 29.72 84.1345 29.86 84.0319 29.972C83.9292 30.084 83.7939 30.14 83.6259 30.14C83.4485 30.14 83.3085 30.084 83.2059 29.972C83.1032 29.86 83.0519 29.72 83.0519 29.552V25.31C83.0519 24.778 82.8932 24.3627 82.5759 24.064C82.2679 23.7653 81.8572 23.616 81.3439 23.616C80.9985 23.616 80.6765 23.686 80.3779 23.826C80.0792 23.966 79.8365 24.1667 79.6499 24.428C79.4632 24.68 79.3699 24.9833 79.3699 25.338V29.552C79.3699 29.72 79.3139 29.86 79.2019 29.972C79.0992 30.084 78.9639 30.14 78.7959 30.14ZM88.0298 30.14C87.7125 30.14 87.4372 30.07 87.2038 29.93C86.9798 29.7807 86.8072 29.5753 86.6858 29.314C86.5645 29.0433 86.5038 28.7353 86.5038 28.39V21.81C86.5038 21.6513 86.5552 21.5207 86.6578 21.418C86.7698 21.306 86.9052 21.25 87.0638 21.25C87.2225 21.25 87.3532 21.306 87.4558 21.418C87.5678 21.5207 87.6238 21.6513 87.6238 21.81V28.376C87.6238 28.5533 87.6518 28.7073 87.7078 28.838C87.7638 28.9593 87.8805 29.02 88.0578 29.02C88.1792 29.02 88.2678 28.992 88.3238 28.936C88.3892 28.88 88.4545 28.8287 88.5198 28.782C88.5852 28.726 88.6785 28.698 88.7998 28.698C88.9678 28.698 89.1032 28.754 89.2058 28.866C89.3085 28.9687 89.3598 29.0993 89.3598 29.258C89.3598 29.426 89.2945 29.58 89.1638 29.72C89.0425 29.8507 88.8792 29.9533 88.6738 30.028C88.4778 30.1027 88.2632 30.14 88.0298 30.14ZM86.0558 23.812C85.9065 23.812 85.7758 23.7653 85.6638 23.672C85.5612 23.5693 85.5098 23.4433 85.5098 23.294C85.5098 23.154 85.5612 23.0373 85.6638 22.944C85.7758 22.8413 85.9065 22.79 86.0558 22.79H89.0098C89.1592 22.79 89.2852 22.8413 89.3878 22.944C89.4998 23.0373 89.5558 23.154 89.5558 23.294C89.5558 23.4433 89.4998 23.5693 89.3878 23.672C89.2852 23.7653 89.1592 23.812 89.0098 23.812H86.0558ZM93.9571 30.21C93.3038 30.21 92.7298 30.0513 92.2351 29.734C91.7498 29.4073 91.3671 28.9547 91.0871 28.376C90.8164 27.7973 90.6811 27.13 90.6811 26.374C90.6811 25.618 90.8164 24.9553 91.0871 24.386C91.3671 23.8167 91.7498 23.3733 92.2351 23.056C92.7298 22.7387 93.3038 22.58 93.9571 22.58C94.6198 22.58 95.1984 22.7387 95.6931 23.056C96.1971 23.3733 96.5891 23.8167 96.8691 24.386C97.1491 24.9553 97.2891 25.618 97.2891 26.374C97.2891 27.13 97.1491 27.7973 96.8691 28.376C96.5891 28.9547 96.1971 29.4073 95.6931 29.734C95.1984 30.0513 94.6198 30.21 93.9571 30.21ZM93.9571 29.16C94.6478 29.16 95.1844 28.9127 95.5671 28.418C95.9498 27.9233 96.1411 27.242 96.1411 26.374C96.1411 25.5247 95.9498 24.8527 95.5671 24.358C95.1844 23.8633 94.6478 23.616 93.9571 23.616C93.2758 23.616 92.7484 23.8633 92.3751 24.358C92.0018 24.8527 91.8151 25.5247 91.8151 26.374C91.8151 27.242 92.0018 27.9233 92.3751 28.418C92.7484 28.9127 93.2758 29.16 93.9571 29.16ZM99.3857 30.14C99.227 30.14 99.0917 30.084 98.9797 29.972C98.877 29.8507 98.8257 29.7107 98.8257 29.552V23.224C98.8257 23.0653 98.877 22.93 98.9797 22.818C99.0917 22.706 99.227 22.65 99.3857 22.65C99.5444 22.65 99.6797 22.706 99.7917 22.818C99.9037 22.93 99.9597 23.0653 99.9597 23.224V24.176L99.8197 23.896C99.913 23.7 100.053 23.4993 100.24 23.294C100.436 23.0887 100.669 22.9207 100.94 22.79C101.22 22.65 101.542 22.58 101.906 22.58C102.102 22.58 102.256 22.6313 102.368 22.734C102.489 22.8367 102.55 22.9673 102.55 23.126C102.55 23.2847 102.494 23.42 102.382 23.532C102.27 23.644 102.13 23.7 101.962 23.7C101.57 23.7 101.224 23.784 100.926 23.952C100.627 24.1107 100.389 24.3207 100.212 24.582C100.044 24.834 99.9597 25.1 99.9597 25.38V29.552C99.9597 29.7107 99.9037 29.8507 99.7917 29.972C99.6797 30.084 99.5444 30.14 99.3857 30.14ZM104.67 33.01C104.427 33.01 104.199 32.9633 103.984 32.87C103.769 32.7767 103.592 32.6507 103.452 32.492C103.321 32.3427 103.256 32.1887 103.256 32.03C103.256 31.8807 103.307 31.7547 103.41 31.652C103.522 31.5587 103.653 31.512 103.802 31.512C103.905 31.512 103.989 31.5307 104.054 31.568C104.119 31.6147 104.185 31.6707 104.25 31.736C104.306 31.7827 104.362 31.8247 104.418 31.862C104.483 31.8993 104.558 31.918 104.642 31.918C104.773 31.918 104.885 31.8667 104.978 31.764C105.081 31.6613 105.165 31.5213 105.23 31.344L105.776 29.748L103.34 23.406C103.303 23.294 103.298 23.182 103.326 23.07C103.354 22.9487 103.415 22.8507 103.508 22.776C103.601 22.692 103.718 22.65 103.858 22.65C103.989 22.65 104.096 22.6827 104.18 22.748C104.273 22.8133 104.339 22.902 104.376 23.014L106.56 29.006L105.958 29.37L108.184 23C108.221 22.8973 108.287 22.8133 108.38 22.748C108.473 22.6827 108.59 22.65 108.73 22.65C108.87 22.65 108.982 22.6873 109.066 22.762C109.15 22.8367 109.206 22.93 109.234 23.042C109.262 23.154 109.253 23.2753 109.206 23.406L106.252 31.596C106.075 32.1 105.846 32.4593 105.566 32.674C105.295 32.898 104.997 33.01 104.67 33.01ZM116.943 30.14C116.831 30.14 116.719 30.1073 116.607 30.042C116.505 29.9767 116.425 29.8693 116.369 29.72L113.989 23.434C113.943 23.3127 113.933 23.196 113.961 23.084C113.989 22.9627 114.05 22.86 114.143 22.776C114.237 22.692 114.353 22.65 114.493 22.65C114.624 22.65 114.736 22.6827 114.829 22.748C114.923 22.8133 114.988 22.902 115.025 23.014L117.237 28.908L116.677 29.062L119.001 23.014C119.048 22.902 119.118 22.8133 119.211 22.748C119.305 22.6827 119.412 22.65 119.533 22.65C119.664 22.65 119.771 22.692 119.855 22.776C119.939 22.8507 119.995 22.9487 120.023 23.07C120.061 23.182 120.056 23.3033 120.009 23.434L117.531 29.706C117.485 29.846 117.405 29.9533 117.293 30.028C117.181 30.1027 117.065 30.14 116.943 30.14ZM123.279 30.21C122.757 30.21 122.304 30.1167 121.921 29.93C121.548 29.734 121.259 29.4727 121.053 29.146C120.857 28.8193 120.759 28.4553 120.759 28.054C120.759 27.4753 120.974 26.9807 121.403 26.57C121.842 26.15 122.542 25.884 123.503 25.772C123.905 25.7253 124.25 25.674 124.539 25.618C124.829 25.562 125.053 25.4687 125.211 25.338C125.379 25.2073 125.463 25.016 125.463 24.764C125.463 24.568 125.412 24.386 125.309 24.218C125.216 24.0407 125.057 23.896 124.833 23.784C124.619 23.672 124.329 23.616 123.965 23.616C123.48 23.616 123.116 23.714 122.873 23.91C122.631 24.0967 122.463 24.2833 122.369 24.47C122.304 24.5913 122.225 24.6847 122.131 24.75C122.038 24.8153 121.926 24.848 121.795 24.848C121.637 24.848 121.515 24.8013 121.431 24.708C121.347 24.6053 121.305 24.4793 121.305 24.33C121.305 24.1527 121.366 23.966 121.487 23.77C121.609 23.5647 121.786 23.3733 122.019 23.196C122.262 23.0093 122.551 22.86 122.887 22.748C123.233 22.636 123.625 22.58 124.063 22.58C124.698 22.58 125.197 22.7013 125.561 22.944C125.935 23.1773 126.201 23.4993 126.359 23.91C126.518 24.3113 126.597 24.7593 126.597 25.254V28.74C126.597 28.8333 126.607 28.9033 126.625 28.95C126.653 28.9967 126.7 29.0247 126.765 29.034C126.896 29.0433 127.008 29.0993 127.101 29.202C127.195 29.2953 127.241 29.4167 127.241 29.566C127.241 29.7247 127.176 29.86 127.045 29.972C126.924 30.084 126.751 30.14 126.527 30.14C126.247 30.14 126.028 30.0607 125.869 29.902C125.72 29.734 125.645 29.5287 125.645 29.286V29.048H125.603C125.37 29.3933 125.062 29.6733 124.679 29.888C124.306 30.1027 123.839 30.21 123.279 30.21ZM123.293 29.174C123.713 29.174 124.087 29.0853 124.413 28.908C124.749 28.7307 125.011 28.4927 125.197 28.194C125.393 27.8953 125.491 27.564 125.491 27.2V26.248C125.491 26.2293 125.482 26.22 125.463 26.22C125.454 26.2107 125.435 26.2247 125.407 26.262C125.267 26.374 125.076 26.4627 124.833 26.528C124.6 26.584 124.362 26.6307 124.119 26.668C123.877 26.7053 123.676 26.738 123.517 26.766C123.032 26.8407 122.635 26.9713 122.327 27.158C122.029 27.3447 121.879 27.6247 121.879 27.998C121.879 28.278 121.987 28.544 122.201 28.796C122.416 29.048 122.78 29.174 123.293 29.174ZM129.163 30.14C129.004 30.14 128.869 30.084 128.757 29.972C128.654 29.8507 128.603 29.7107 128.603 29.552V20.354C128.603 20.1953 128.654 20.06 128.757 19.948C128.869 19.836 129.004 19.78 129.163 19.78C129.322 19.78 129.457 19.836 129.569 19.948C129.681 20.06 129.737 20.1953 129.737 20.354V29.552C129.737 29.7107 129.681 29.8507 129.569 29.972C129.457 30.084 129.322 30.14 129.163 30.14ZM134.255 30.14C133.667 30.14 133.177 30.042 132.785 29.846C132.393 29.65 132.099 29.356 131.903 28.964C131.716 28.5627 131.623 28.0587 131.623 27.452V23.154C131.623 22.9953 131.674 22.86 131.777 22.748C131.88 22.636 132.01 22.58 132.169 22.58C132.337 22.58 132.472 22.636 132.575 22.748C132.678 22.86 132.729 22.9953 132.729 23.154V27.466C132.729 28.0633 132.883 28.4833 133.191 28.726C133.499 28.9687 133.91 29.09 134.423 29.09C134.778 29.09 135.104 29.02 135.403 28.88C135.711 28.74 135.958 28.544 136.145 28.292C136.332 28.0307 136.425 27.7227 136.425 27.368V23.154C136.425 22.9953 136.476 22.86 136.579 22.748C136.691 22.636 136.831 22.58 136.999 22.58C137.158 22.58 137.288 22.636 137.391 22.748C137.503 22.86 137.559 22.9953 137.559 23.154V29.566C137.559 29.7247 137.503 29.86 137.391 29.972C137.288 30.084 137.158 30.14 136.999 30.14C136.831 30.14 136.691 30.084 136.579 29.972C136.476 29.86 136.425 29.7247 136.425 29.566V28.558L136.663 28.796C136.364 29.2533 136.005 29.594 135.585 29.818C135.174 30.0327 134.731 30.14 134.255 30.14ZM142.453 30.21C141.837 30.21 141.273 30.07 140.759 29.79C140.255 29.51 139.849 29.09 139.541 28.53C139.243 27.97 139.093 27.2793 139.093 26.458C139.093 25.674 139.233 24.9927 139.513 24.414C139.793 23.8353 140.171 23.3873 140.647 23.07C141.133 22.7433 141.683 22.58 142.299 22.58C142.775 22.58 143.205 22.6733 143.587 22.86C143.97 23.0373 144.292 23.2847 144.553 23.602C144.824 23.91 145.029 24.26 145.169 24.652C145.319 25.0347 145.393 25.436 145.393 25.856C145.393 26.1267 145.342 26.346 145.239 26.514C145.137 26.6727 144.927 26.752 144.609 26.752H140.241C140.279 27.3213 140.4 27.7833 140.605 28.138C140.811 28.4927 141.067 28.754 141.375 28.922C141.693 29.0807 142.038 29.16 142.411 29.16C142.915 29.16 143.317 29.0433 143.615 28.81C143.914 28.5767 144.119 28.3013 144.231 27.984C144.278 27.872 144.339 27.7787 144.413 27.704C144.497 27.62 144.609 27.578 144.749 27.578C144.908 27.578 145.034 27.6387 145.127 27.76C145.221 27.872 145.263 28.0213 145.253 28.208C145.244 28.3947 145.179 28.6047 145.057 28.838C144.936 29.062 144.759 29.2813 144.525 29.496C144.301 29.7013 144.017 29.8693 143.671 30C143.326 30.14 142.92 30.21 142.453 30.21ZM140.255 25.786H144.315C144.25 25.1513 144.045 24.6333 143.699 24.232C143.354 23.8213 142.883 23.616 142.285 23.616C141.753 23.616 141.301 23.798 140.927 24.162C140.563 24.526 140.339 25.0673 140.255 25.786Z" fill="#2E2C28"/>
<path d="M26.2 61C24.952 61 23.856 60.808 22.912 60.424C21.984 60.024 21.256 59.52 20.728 58.912C20.216 58.288 19.96 57.648 19.96 56.992C19.96 56.592 20.08 56.264 20.32 56.008C20.576 55.736 20.912 55.6 21.328 55.6C21.728 55.6 22.016 55.712 22.192 55.936C22.384 56.144 22.56 56.4 22.72 56.704C22.944 57.152 23.32 57.552 23.848 57.904C24.392 58.256 25.144 58.432 26.104 58.432C26.648 58.432 27.152 58.368 27.616 58.24C28.08 58.096 28.448 57.872 28.72 57.568C29.008 57.264 29.152 56.856 29.152 56.344C29.152 55.896 29.024 55.536 28.768 55.264C28.528 54.976 28.16 54.72 27.664 54.496C27.168 54.256 26.544 54 25.792 53.728C25.216 53.52 24.632 53.304 24.04 53.08C23.448 52.84 22.912 52.544 22.432 52.192C21.952 51.84 21.56 51.392 21.256 50.848C20.968 50.304 20.824 49.616 20.824 48.784C20.824 47.808 21.056 46.992 21.52 46.336C21.984 45.68 22.608 45.184 23.392 44.848C24.192 44.512 25.088 44.344 26.08 44.344C26.816 44.344 27.496 44.44 28.12 44.632C28.76 44.808 29.312 45.056 29.776 45.376C30.24 45.68 30.608 46.04 30.88 46.456C31.152 46.856 31.304 47.28 31.336 47.728C31.352 48.128 31.24 48.464 31 48.736C30.76 48.992 30.432 49.12 30.016 49.12C29.664 49.12 29.408 49.056 29.248 48.928C29.104 48.784 28.944 48.56 28.768 48.256C28.56 47.84 28.24 47.512 27.808 47.272C27.392 47.032 26.84 46.912 26.152 46.912C25.672 46.912 25.24 46.984 24.856 47.128C24.488 47.256 24.2 47.456 23.992 47.728C23.784 47.984 23.68 48.296 23.68 48.664C23.68 49.16 23.84 49.56 24.16 49.864C24.48 50.168 24.904 50.432 25.432 50.656C25.96 50.864 26.52 51.08 27.112 51.304C27.864 51.576 28.536 51.856 29.128 52.144C29.736 52.432 30.248 52.76 30.664 53.128C31.096 53.48 31.424 53.912 31.648 54.424C31.888 54.92 32.008 55.512 32.008 56.2C32.008 57.224 31.768 58.096 31.288 58.816C30.808 59.52 30.128 60.064 29.248 60.448C28.384 60.816 27.368 61 26.2 61ZM26.272 63.376C26 63.376 25.76 63.272 25.552 63.064C25.36 62.872 25.264 62.64 25.264 62.368V43.072C25.264 42.784 25.36 42.544 25.552 42.352C25.76 42.16 26 42.064 26.272 42.064C26.56 42.064 26.8 42.16 26.992 42.352C27.184 42.544 27.28 42.784 27.28 43.072V62.368C27.28 62.64 27.184 62.872 26.992 63.064C26.8 63.272 26.56 63.376 26.272 63.376ZM42.6261 61C42.1301 61 41.7061 60.856 41.3541 60.568C41.0181 60.264 40.8501 59.824 40.8501 59.248C40.8501 58.416 40.9941 57.664 41.2821 56.992C41.5861 56.32 41.9861 55.712 42.4821 55.168C42.9941 54.624 43.5461 54.128 44.1381 53.68C44.7461 53.216 45.3381 52.776 45.9141 52.36C46.5221 51.944 47.0821 51.536 47.5941 51.136C48.1221 50.72 48.5461 50.296 48.8661 49.864C49.1861 49.416 49.3461 48.944 49.3461 48.448C49.3461 48.016 49.2341 47.648 49.0101 47.344C48.7861 47.04 48.4741 46.808 48.0741 46.648C47.6741 46.472 47.1941 46.384 46.6341 46.384C46.0261 46.384 45.5141 46.472 45.0981 46.648C44.6981 46.824 44.3701 47.064 44.1141 47.368C43.8741 47.672 43.6821 48.016 43.5381 48.4C43.4101 48.736 43.2421 48.992 43.0341 49.168C42.8261 49.328 42.5701 49.408 42.2661 49.408C41.8981 49.408 41.5941 49.28 41.3541 49.024C41.1141 48.768 40.9941 48.448 40.9941 48.064C41.0101 47.536 41.1701 47.024 41.4741 46.528C41.7781 46.032 42.1941 45.584 42.7221 45.184C43.2501 44.784 43.8661 44.464 44.5701 44.224C45.2901 43.984 46.0661 43.864 46.8981 43.864C47.9061 43.864 48.8021 44.056 49.5861 44.44C50.3701 44.808 50.9861 45.336 51.4341 46.024C51.8981 46.712 52.1381 47.512 52.1541 48.424C52.1701 49.16 52.0421 49.824 51.7701 50.416C51.5141 50.992 51.1621 51.528 50.7141 52.024C50.2661 52.504 49.7701 52.952 49.2261 53.368C48.6821 53.768 48.1301 54.152 47.5701 54.52C47.0101 54.904 46.4661 55.296 45.9381 55.696C45.4101 56.08 44.9701 56.48 44.6181 56.896C44.2821 57.312 44.1141 57.784 44.1141 58.312V58.36L51.1941 58.336C51.5781 58.336 51.8981 58.472 52.1541 58.744C52.4101 59 52.5381 59.312 52.5381 59.68C52.5381 60.048 52.4101 60.36 52.1541 60.616C51.8981 60.872 51.5781 61 51.1941 61H42.6261ZM56.668 61.288C56.156 61.288 55.74 61.128 55.42 60.808C55.1 60.488 54.94 60.024 54.94 59.416C54.94 58.824 55.1 58.368 55.42 58.048C55.74 57.712 56.156 57.544 56.668 57.544C57.18 57.544 57.596 57.712 57.916 58.048C58.236 58.368 58.396 58.824 58.396 59.416C58.396 60.024 58.236 60.488 57.916 60.808C57.596 61.128 57.18 61.288 56.668 61.288ZM70.2681 61.24C69.8841 61.24 69.5561 61.104 69.2841 60.832C69.0121 60.56 68.8761 60.232 68.8761 59.848L69.1161 45.664L70.8681 45.856L62.9961 55.168L61.9401 53.92L72.8601 53.824C73.2441 53.824 73.5641 53.944 73.8201 54.184C74.0921 54.424 74.2281 54.728 74.2281 55.096C74.2281 55.48 74.0921 55.808 73.8201 56.08C73.5641 56.352 73.2441 56.488 72.8601 56.488H62.1081C61.6921 56.488 61.3161 56.344 60.9801 56.056C60.6601 55.752 60.5001 55.376 60.5001 54.928C60.5001 54.704 60.5481 54.472 60.6441 54.232C60.7561 53.992 60.8841 53.776 61.0281 53.584L68.3481 44.728C68.6201 44.408 68.8921 44.2 69.1641 44.104C69.4361 43.992 69.7081 43.936 69.9801 43.936C70.5721 43.936 70.9961 44.088 71.2521 44.392C71.5241 44.696 71.6601 45.032 71.6601 45.4V59.848C71.6601 60.232 71.5241 60.56 71.2521 60.832C70.9801 61.104 70.6521 61.24 70.2681 61.24ZM82.6705 61.336C81.3265 61.336 80.1745 61 79.2145 60.328C78.2705 59.656 77.5425 58.704 77.0305 57.472C76.5185 56.224 76.2625 54.752 76.2625 53.056C76.2625 51.248 76.5425 49.656 77.1025 48.28C77.6785 46.888 78.4625 45.808 79.4545 45.04C80.4625 44.256 81.6225 43.864 82.9345 43.864C83.6545 43.864 84.3265 43.976 84.9505 44.2C85.5905 44.424 86.1505 44.728 86.6305 45.112C87.1105 45.48 87.4785 45.88 87.7345 46.312C88.0065 46.744 88.1505 47.176 88.1665 47.608C88.1825 47.976 88.0705 48.296 87.8305 48.568C87.6065 48.824 87.3025 48.952 86.9185 48.952C86.5825 48.952 86.3105 48.872 86.1025 48.712C85.9105 48.536 85.7505 48.344 85.6225 48.136C85.3825 47.64 85.0385 47.232 84.5905 46.912C84.1585 46.576 83.6145 46.408 82.9585 46.408C82.2705 46.408 81.6545 46.608 81.1105 47.008C80.5665 47.392 80.1265 47.952 79.7905 48.688C79.4545 49.408 79.2385 50.288 79.1425 51.328C79.7185 50.88 80.3345 50.528 80.9905 50.272C81.6465 50 82.3265 49.864 83.0305 49.864C84.0705 49.864 85.0145 50.096 85.8625 50.56C86.7105 51.024 87.3905 51.68 87.9025 52.528C88.4145 53.376 88.6705 54.376 88.6705 55.528C88.6705 56.584 88.4305 57.552 87.9505 58.432C87.4865 59.312 86.8065 60.016 85.9105 60.544C85.0305 61.072 83.9505 61.336 82.6705 61.336ZM79.1425 54.376C79.3025 55.784 79.6865 56.872 80.2945 57.64C80.9025 58.392 81.6865 58.768 82.6465 58.768C83.2865 58.768 83.8545 58.616 84.3505 58.312C84.8625 58.008 85.2545 57.6 85.5265 57.088C85.8145 56.576 85.9585 56.016 85.9585 55.408C85.9585 54.8 85.8225 54.272 85.5505 53.824C85.2785 53.36 84.9025 53 84.4225 52.744C83.9585 52.472 83.4385 52.336 82.8625 52.336C82.4465 52.336 82.0305 52.416 81.6145 52.576C81.2145 52.736 80.8065 52.968 80.3905 53.272C79.9905 53.56 79.5745 53.928 79.1425 54.376ZM97.1978 61.36C96.3338 61.36 95.5258 61.232 94.7738 60.976C94.0218 60.704 93.3578 60.328 92.7818 59.848C92.2218 59.368 91.7738 58.8 91.4378 58.144C91.1178 57.488 90.9578 56.768 90.9578 55.984C90.9578 55.408 91.0458 54.888 91.2218 54.424C91.4138 53.944 91.6538 53.512 91.9418 53.128C92.2298 52.728 92.5578 52.384 92.9258 52.096C92.5098 51.76 92.1738 51.336 91.9178 50.824C91.6618 50.296 91.5498 49.64 91.5818 48.856C91.6138 47.736 91.9018 46.816 92.4458 46.096C93.0058 45.36 93.7018 44.816 94.5338 44.464C95.3818 44.096 96.2698 43.912 97.1978 43.912C97.8698 43.912 98.5258 44.008 99.1658 44.2C99.8218 44.392 100.414 44.688 100.942 45.088C101.486 45.472 101.918 45.952 102.238 46.528C102.558 47.104 102.718 47.784 102.718 48.568C102.718 49.352 102.55 50.04 102.214 50.632C101.894 51.224 101.478 51.744 100.966 52.192C101.59 52.544 102.11 53.032 102.526 53.656C102.942 54.264 103.15 55.056 103.15 56.032C103.15 57.104 102.886 58.04 102.358 58.84C101.83 59.64 101.118 60.264 100.222 60.712C99.3258 61.144 98.3178 61.36 97.1978 61.36ZM97.1738 58.792C97.7978 58.792 98.3578 58.672 98.8538 58.432C99.3498 58.176 99.7338 57.832 100.006 57.4C100.294 56.968 100.422 56.472 100.39 55.912C100.374 55.416 100.198 54.992 99.8618 54.64C99.5418 54.272 99.0058 53.968 98.2538 53.728C97.5018 53.472 96.4938 53.28 95.2298 53.152C94.9418 53.344 94.6778 53.56 94.4378 53.8C94.1978 54.04 94.0058 54.312 93.8618 54.616C93.7178 54.92 93.6458 55.28 93.6458 55.696C93.6458 56.304 93.7978 56.84 94.1018 57.304C94.4218 57.768 94.8458 58.136 95.3738 58.408C95.9178 58.664 96.5178 58.792 97.1738 58.792ZM98.4458 51.232C98.9418 50.848 99.3178 50.44 99.5738 50.008C99.8298 49.576 99.9578 49.136 99.9578 48.688C99.9578 48.192 99.8298 47.784 99.5738 47.464C99.3178 47.128 98.9738 46.88 98.5418 46.72C98.1098 46.544 97.6378 46.456 97.1258 46.456C96.6138 46.456 96.1418 46.544 95.7098 46.72C95.2938 46.88 94.9578 47.136 94.7018 47.488C94.4618 47.84 94.3418 48.28 94.3418 48.808C94.3418 49.304 94.4698 49.704 94.7258 50.008C94.9818 50.312 95.4058 50.552 95.9978 50.728C96.6058 50.904 97.4218 51.072 98.4458 51.232Z" fill="#2D42C9"/>
<rect x="19" y="70" width="54" height="20" rx="5" fill="#2D42C9"/>
<g clip-path="url(#clip0_6288_16948)">
<path d="M31.5023 76.7651L25.3559 82.4073L25.3539 82.409C25.1582 82.6015 25.0845 82.8416 25.1464 83.0852C25.2097 83.3346 25.415 83.5447 25.6574 83.6083C25.7159 83.6237 25.7741 83.6304 25.8315 83.6289C26.0059 83.624 26.1718 83.5418 26.3122 83.3874L31.7566 76.9739L31.5023 76.7651Z" fill="white"/>
<path d="M31.8998 76.9385C31.9203 76.7664 31.7746 76.6282 31.6087 76.6552C30.2654 76.8752 28.7945 76.8044 27.5412 76.3736C27.2257 76.341 26.9478 76.6047 26.9661 76.9455C26.9807 77.2161 27.2029 77.4271 27.4642 77.4524C28.4724 77.5505 30.1793 77.5247 31.0538 77.5029C31.0307 78.4105 31.0026 80.18 31.0976 81.2202C31.1224 81.4899 31.3268 81.7193 31.589 81.7344C31.9192 81.7532 32.1745 81.4664 32.143 81.1407C31.6866 79.3857 31.8143 77.6556 31.8998 76.9385Z" fill="white"/>
</g>
<path d="M40.336 82.416C40.2 82.416 40.084 82.376 39.988 82.296C39.892 82.208 39.844 82.1 39.844 81.972V77.424C39.844 77.296 39.892 77.188 39.988 77.1C40.084 77.012 40.2 76.968 40.336 76.968C40.472 76.968 40.584 77.012 40.672 77.1C40.768 77.188 40.816 77.296 40.816 77.424V81.972C40.816 82.1 40.768 82.208 40.672 82.296C40.584 82.376 40.472 82.416 40.336 82.416ZM38.176 80.136C38.048 80.136 37.94 80.092 37.852 80.004C37.764 79.916 37.72 79.812 37.72 79.692C37.72 79.564 37.764 79.456 37.852 79.368C37.94 79.28 38.048 79.236 38.176 79.236H42.484C42.612 79.236 42.72 79.28 42.808 79.368C42.896 79.456 42.94 79.564 42.94 79.692C42.94 79.812 42.896 79.916 42.808 80.004C42.72 80.092 42.612 80.136 42.484 80.136H38.176ZM46.1643 83.496L46.1763 76.26L46.6562 76.392L45.3243 77.844C45.2603 77.916 45.1923 77.968 45.1203 78C45.0483 78.024 44.9763 78.036 44.9043 78.036C44.7763 78.036 44.6683 77.992 44.5803 77.904C44.4923 77.808 44.4482 77.692 44.4482 77.556C44.4482 77.428 44.4963 77.316 44.5923 77.22L46.0443 75.756C46.1483 75.66 46.2403 75.592 46.3203 75.552C46.4003 75.504 46.4923 75.48 46.5963 75.48C46.7563 75.48 46.8843 75.528 46.9803 75.624C47.0843 75.72 47.1363 75.84 47.1363 75.984V83.496H46.1643ZM44.7963 84C44.6683 84 44.5563 83.952 44.4603 83.856C44.3643 83.76 44.3163 83.648 44.3163 83.52C44.3163 83.392 44.3643 83.284 44.4603 83.196C44.5563 83.1 44.6683 83.052 44.7963 83.052H48.3243C48.4603 83.052 48.5723 83.1 48.6603 83.196C48.7563 83.284 48.8043 83.392 48.8043 83.52C48.8043 83.648 48.7563 83.76 48.6603 83.856C48.5723 83.952 48.4603 84 48.3243 84H44.7963ZM50.6733 84.12C50.4733 84.12 50.3093 84.056 50.1813 83.928C50.0613 83.8 50.0013 83.612 50.0013 83.364C50.0013 83.132 50.0613 82.952 50.1813 82.824C50.3093 82.688 50.4733 82.62 50.6733 82.62C50.8733 82.62 51.0333 82.688 51.1533 82.824C51.2813 82.952 51.3453 83.132 51.3453 83.364C51.3453 83.612 51.2813 83.8 51.1533 83.928C51.0333 84.056 50.8733 84.12 50.6733 84.12ZM54.5783 83.496L54.5903 76.26L55.0703 76.392L53.7383 77.844C53.6743 77.916 53.6063 77.968 53.5343 78C53.4623 78.024 53.3903 78.036 53.3183 78.036C53.1903 78.036 53.0823 77.992 52.9943 77.904C52.9063 77.808 52.8623 77.692 52.8623 77.556C52.8623 77.428 52.9103 77.316 53.0063 77.22L54.4583 75.756C54.5623 75.66 54.6543 75.592 54.7343 75.552C54.8143 75.504 54.9063 75.48 55.0103 75.48C55.1703 75.48 55.2983 75.528 55.3943 75.624C55.4983 75.72 55.5503 75.84 55.5503 75.984V83.496H54.5783ZM53.2103 84C53.0823 84 52.9703 83.952 52.8743 83.856C52.7783 83.76 52.7303 83.648 52.7303 83.52C52.7303 83.392 52.7783 83.284 52.8743 83.196C52.9703 83.1 53.0823 83.052 53.2103 83.052H56.7383C56.8743 83.052 56.9863 83.1 57.0743 83.196C57.1703 83.284 57.2183 83.392 57.2183 83.52C57.2183 83.648 57.1703 83.76 57.0743 83.856C56.9863 83.952 56.8743 84 56.7383 84H53.2103ZM59.7593 84.18C59.6393 84.18 59.5353 84.14 59.4473 84.06C59.3673 83.988 59.3193 83.896 59.3033 83.784C59.2873 83.672 59.3153 83.564 59.3873 83.46L64.8833 75.672C64.9233 75.608 64.9753 75.556 65.0393 75.516C65.1113 75.476 65.1873 75.456 65.2673 75.456C65.3953 75.456 65.4993 75.496 65.5793 75.576C65.6593 75.648 65.7073 75.74 65.7233 75.852C65.7393 75.964 65.7113 76.076 65.6393 76.188L60.1433 83.976C60.1033 84.032 60.0473 84.08 59.9753 84.12C59.9113 84.16 59.8393 84.18 59.7593 84.18ZM60.0353 79.536C59.6673 79.536 59.3273 79.444 59.0153 79.26C58.7033 79.068 58.4553 78.816 58.2713 78.504C58.0873 78.192 57.9953 77.852 57.9953 77.484C57.9953 77.108 58.0873 76.764 58.2713 76.452C58.4553 76.14 58.7033 75.892 59.0153 75.708C59.3273 75.524 59.6673 75.432 60.0353 75.432C60.4113 75.432 60.7553 75.524 61.0673 75.708C61.3793 75.892 61.6273 76.14 61.8113 76.452C61.9953 76.764 62.0873 77.108 62.0873 77.484C62.0873 77.852 61.9953 78.192 61.8113 78.504C61.6273 78.816 61.3793 79.068 61.0673 79.26C60.7553 79.444 60.4113 79.536 60.0353 79.536ZM60.0353 78.66C60.2593 78.66 60.4553 78.608 60.6233 78.504C60.7913 78.392 60.9233 78.248 61.0193 78.072C61.1153 77.896 61.1633 77.7 61.1633 77.484C61.1633 77.156 61.0593 76.88 60.8513 76.656C60.6433 76.432 60.3713 76.32 60.0353 76.32C59.8273 76.32 59.6353 76.372 59.4593 76.476C59.2913 76.58 59.1593 76.72 59.0633 76.896C58.9673 77.064 58.9193 77.26 58.9193 77.484C58.9193 77.7 58.9673 77.896 59.0633 78.072C59.1593 78.248 59.2913 78.392 59.4593 78.504C59.6353 78.608 59.8273 78.66 60.0353 78.66ZM65.0513 84.168C64.6833 84.168 64.3433 84.076 64.0313 83.892C63.7193 83.7 63.4713 83.448 63.2873 83.136C63.1033 82.816 63.0113 82.472 63.0113 82.104C63.0113 81.728 63.1033 81.384 63.2873 81.072C63.4713 80.76 63.7193 80.512 64.0313 80.328C64.3433 80.144 64.6833 80.052 65.0513 80.052C65.4273 80.052 65.7713 80.144 66.0833 80.328C66.3953 80.512 66.6433 80.76 66.8273 81.072C67.0113 81.384 67.1033 81.728 67.1033 82.104C67.1033 82.472 67.0113 82.816 66.8273 83.136C66.6433 83.448 66.3953 83.7 66.0833 83.892C65.7713 84.076 65.4273 84.168 65.0513 84.168ZM65.0513 83.268C65.2753 83.268 65.4713 83.216 65.6393 83.112C65.8073 83.008 65.9393 82.868 66.0353 82.692C66.1313 82.516 66.1793 82.32 66.1793 82.104C66.1793 81.776 66.0753 81.5 65.8673 81.276C65.6593 81.052 65.3873 80.94 65.0513 80.94C64.8433 80.94 64.6513 80.992 64.4753 81.096C64.3073 81.2 64.1753 81.34 64.0793 81.516C63.9833 81.684 63.9353 81.88 63.9353 82.104C63.9353 82.32 63.9833 82.516 64.0793 82.692C64.1753 82.868 64.3073 83.008 64.4753 83.112C64.6513 83.216 64.8433 83.268 65.0513 83.268Z" fill="white"/>
<path d="M81.78 85.21C81.1267 85.21 80.5573 85.0467 80.072 84.72C79.5867 84.384 79.2133 83.9267 78.952 83.348C78.6907 82.7693 78.56 82.116 78.56 81.388C78.56 80.6507 78.6907 79.9973 78.952 79.428C79.2227 78.8587 79.6007 78.4107 80.086 78.084C80.5713 77.748 81.1407 77.58 81.794 77.58C82.3353 77.58 82.7927 77.6827 83.166 77.888C83.5487 78.084 83.8427 78.3173 84.048 78.588C84.2533 78.8587 84.3653 79.1107 84.384 79.344C84.412 79.54 84.37 79.6893 84.258 79.792C84.1553 79.8947 84.0293 79.946 83.88 79.946C83.7307 79.946 83.6187 79.9087 83.544 79.834C83.4693 79.7593 83.4087 79.6753 83.362 79.582C83.2407 79.33 83.054 79.106 82.802 78.91C82.55 78.7047 82.2093 78.602 81.78 78.602C81.332 78.602 80.954 78.7233 80.646 78.966C80.338 79.1993 80.1 79.526 79.932 79.946C79.7733 80.366 79.694 80.842 79.694 81.374C79.694 82.2233 79.8807 82.9 80.254 83.404C80.6367 83.908 81.15 84.16 81.794 84.16C82.2887 84.16 82.6713 84.0293 82.942 83.768C83.222 83.5067 83.418 83.2127 83.53 82.886C83.5767 82.7553 83.642 82.648 83.726 82.564C83.81 82.48 83.922 82.438 84.062 82.438C84.2207 82.438 84.3467 82.494 84.44 82.606C84.5427 82.718 84.5847 82.872 84.566 83.068C84.5567 83.2453 84.4867 83.4553 84.356 83.698C84.2347 83.9407 84.0573 84.1787 83.824 84.412C83.6 84.6453 83.3153 84.8367 82.97 84.986C82.634 85.1353 82.2373 85.21 81.78 85.21ZM88.8907 85.21C88.2374 85.21 87.6634 85.0513 87.1687 84.734C86.6834 84.4073 86.3007 83.9547 86.0207 83.376C85.75 82.7973 85.6147 82.13 85.6147 81.374C85.6147 80.618 85.75 79.9553 86.0207 79.386C86.3007 78.8167 86.6834 78.3733 87.1687 78.056C87.6634 77.7387 88.2374 77.58 88.8907 77.58C89.5534 77.58 90.132 77.7387 90.6267 78.056C91.1307 78.3733 91.5227 78.8167 91.8027 79.386C92.0827 79.9553 92.2227 80.618 92.2227 81.374C92.2227 82.13 92.0827 82.7973 91.8027 83.376C91.5227 83.9547 91.1307 84.4073 90.6267 84.734C90.132 85.0513 89.5534 85.21 88.8907 85.21ZM88.8907 84.16C89.5814 84.16 90.118 83.9127 90.5007 83.418C90.8834 82.9233 91.0747 82.242 91.0747 81.374C91.0747 80.5247 90.8834 79.8527 90.5007 79.358C90.118 78.8633 89.5814 78.616 88.8907 78.616C88.2094 78.616 87.682 78.8633 87.3087 79.358C86.9354 79.8527 86.7487 80.5247 86.7487 81.374C86.7487 82.242 86.9354 82.9233 87.3087 83.418C87.682 83.9127 88.2094 84.16 88.8907 84.16ZM94.3193 85.14C94.1606 85.14 94.0253 85.084 93.9133 84.972C93.8106 84.86 93.7593 84.72 93.7593 84.552V78.224C93.7593 78.056 93.8106 77.9207 93.9133 77.818C94.0253 77.706 94.1606 77.65 94.3193 77.65C94.4873 77.65 94.6226 77.706 94.7253 77.818C94.8373 77.9207 94.8933 78.056 94.8933 78.224V79.078L94.6553 78.882C94.8513 78.574 95.0706 78.3267 95.3133 78.14C95.5653 77.944 95.836 77.804 96.1253 77.72C96.4146 77.6267 96.7086 77.58 97.0073 77.58C97.5486 77.58 98.0246 77.7107 98.4353 77.972C98.8553 78.2333 99.1633 78.6113 99.3593 79.106L98.9533 79.162C99.196 78.7513 99.462 78.434 99.7513 78.21C100.041 77.9767 100.335 77.8133 100.633 77.72C100.941 77.6267 101.245 77.58 101.543 77.58C102.038 77.58 102.481 77.6873 102.873 77.902C103.265 78.1073 103.573 78.4107 103.797 78.812C104.021 79.204 104.133 79.68 104.133 80.24V84.552C104.133 84.72 104.082 84.86 103.979 84.972C103.877 85.084 103.746 85.14 103.587 85.14C103.419 85.14 103.279 85.084 103.167 84.972C103.065 84.86 103.013 84.72 103.013 84.552V80.282C103.013 79.7593 102.859 79.3533 102.551 79.064C102.253 78.7747 101.856 78.63 101.361 78.63C101.044 78.63 100.75 78.6953 100.479 78.826C100.209 78.9473 99.994 79.1293 99.8353 79.372C99.6766 79.6053 99.5973 79.8947 99.5973 80.24V84.552C99.5973 84.72 99.5413 84.86 99.4293 84.972C99.3266 85.084 99.196 85.14 99.0373 85.14C98.8693 85.14 98.7293 85.084 98.6173 84.972C98.5146 84.86 98.4633 84.72 98.4633 84.552V80.282C98.4633 79.7593 98.314 79.3533 98.0153 79.064C97.7166 78.7653 97.32 78.616 96.8253 78.616C96.4893 78.616 96.172 78.686 95.8733 78.826C95.584 78.9567 95.346 79.148 95.1593 79.4C94.982 79.6427 94.8933 79.932 94.8933 80.268V84.552C94.8933 84.72 94.8373 84.86 94.7253 84.972C94.6226 85.084 94.4873 85.14 94.3193 85.14ZM109.341 85.21C108.921 85.21 108.562 85.1447 108.263 85.014C107.974 84.8833 107.731 84.72 107.535 84.524C107.339 84.328 107.185 84.1367 107.073 83.95L107.157 83.894V87.366C107.157 87.5247 107.101 87.66 106.989 87.772C106.877 87.884 106.742 87.94 106.583 87.94C106.434 87.94 106.303 87.884 106.191 87.772C106.079 87.66 106.023 87.5247 106.023 87.366V78.252C106.023 78.0933 106.079 77.9533 106.191 77.832C106.303 77.7107 106.434 77.65 106.583 77.65C106.742 77.65 106.877 77.706 106.989 77.818C107.101 77.9207 107.157 78.0607 107.157 78.238L107.143 78.868L107.087 78.854C107.246 78.5367 107.526 78.2473 107.927 77.986C108.328 77.7153 108.818 77.58 109.397 77.58C109.864 77.58 110.284 77.678 110.657 77.874C111.03 78.0607 111.348 78.3267 111.609 78.672C111.87 79.008 112.071 79.4093 112.211 79.876C112.351 80.3333 112.421 80.8327 112.421 81.374C112.421 81.9153 112.351 82.4193 112.211 82.886C112.08 83.3433 111.88 83.7493 111.609 84.104C111.348 84.4493 111.026 84.72 110.643 84.916C110.27 85.112 109.836 85.21 109.341 85.21ZM109.187 84.174C109.84 84.174 110.354 83.9267 110.727 83.432C111.1 82.928 111.287 82.242 111.287 81.374C111.287 80.8047 111.203 80.3147 111.035 79.904C110.876 79.4933 110.638 79.176 110.321 78.952C110.013 78.728 109.63 78.616 109.173 78.616C108.501 78.616 107.983 78.8587 107.619 79.344C107.255 79.8293 107.073 80.5013 107.073 81.36C107.073 82.228 107.26 82.914 107.633 83.418C108.006 83.922 108.524 84.174 109.187 84.174ZM116.066 85.21C115.544 85.21 115.091 85.1167 114.708 84.93C114.335 84.734 114.046 84.4727 113.84 84.146C113.644 83.8193 113.546 83.4553 113.546 83.054C113.546 82.4753 113.761 81.9807 114.19 81.57C114.629 81.15 115.329 80.884 116.29 80.772C116.692 80.7253 117.037 80.674 117.326 80.618C117.616 80.562 117.84 80.4687 117.998 80.338C118.166 80.2073 118.25 80.016 118.25 79.764C118.25 79.568 118.199 79.386 118.096 79.218C118.003 79.0407 117.844 78.896 117.62 78.784C117.406 78.672 117.116 78.616 116.752 78.616C116.267 78.616 115.903 78.714 115.66 78.91C115.418 79.0967 115.25 79.2833 115.156 79.47C115.091 79.5913 115.012 79.6847 114.918 79.75C114.825 79.8153 114.713 79.848 114.582 79.848C114.424 79.848 114.302 79.8013 114.218 79.708C114.134 79.6053 114.092 79.4793 114.092 79.33C114.092 79.1527 114.153 78.966 114.274 78.77C114.396 78.5647 114.573 78.3733 114.806 78.196C115.049 78.0093 115.338 77.86 115.674 77.748C116.02 77.636 116.412 77.58 116.85 77.58C117.485 77.58 117.984 77.7013 118.348 77.944C118.722 78.1773 118.988 78.4993 119.146 78.91C119.305 79.3113 119.384 79.7593 119.384 80.254V83.74C119.384 83.8333 119.394 83.9033 119.412 83.95C119.44 83.9967 119.487 84.0247 119.552 84.034C119.683 84.0433 119.795 84.0993 119.888 84.202C119.982 84.2953 120.028 84.4167 120.028 84.566C120.028 84.7247 119.963 84.86 119.832 84.972C119.711 85.084 119.538 85.14 119.314 85.14C119.034 85.14 118.815 85.0607 118.656 84.902C118.507 84.734 118.432 84.5287 118.432 84.286V84.048H118.39C118.157 84.3933 117.849 84.6733 117.466 84.888C117.093 85.1027 116.626 85.21 116.066 85.21ZM116.08 84.174C116.5 84.174 116.874 84.0853 117.2 83.908C117.536 83.7307 117.798 83.4927 117.984 83.194C118.18 82.8953 118.278 82.564 118.278 82.2V81.248C118.278 81.2293 118.269 81.22 118.25 81.22C118.241 81.2107 118.222 81.2247 118.194 81.262C118.054 81.374 117.863 81.4627 117.62 81.528C117.387 81.584 117.149 81.6307 116.906 81.668C116.664 81.7053 116.463 81.738 116.304 81.766C115.819 81.8407 115.422 81.9713 115.114 82.158C114.816 82.3447 114.666 82.6247 114.666 82.998C114.666 83.278 114.774 83.544 114.988 83.796C115.203 84.048 115.567 84.174 116.08 84.174ZM121.95 85.14C121.791 85.14 121.656 85.084 121.544 84.972C121.441 84.8507 121.39 84.7107 121.39 84.552V78.224C121.39 78.0653 121.441 77.93 121.544 77.818C121.656 77.706 121.791 77.65 121.95 77.65C122.109 77.65 122.244 77.706 122.356 77.818C122.468 77.93 122.524 78.0653 122.524 78.224V79.176L122.384 78.896C122.477 78.7 122.617 78.4993 122.804 78.294C123 78.0887 123.233 77.9207 123.504 77.79C123.784 77.65 124.106 77.58 124.47 77.58C124.666 77.58 124.82 77.6313 124.932 77.734C125.053 77.8367 125.114 77.9673 125.114 78.126C125.114 78.2847 125.058 78.42 124.946 78.532C124.834 78.644 124.694 78.7 124.526 78.7C124.134 78.7 123.789 78.784 123.49 78.952C123.191 79.1107 122.953 79.3207 122.776 79.582C122.608 79.834 122.524 80.1 122.524 80.38V84.552C122.524 84.7107 122.468 84.8507 122.356 84.972C122.244 85.084 122.109 85.14 121.95 85.14ZM128.897 85.21C128.281 85.21 127.716 85.07 127.203 84.79C126.699 84.51 126.293 84.09 125.985 83.53C125.686 82.97 125.537 82.2793 125.537 81.458C125.537 80.674 125.677 79.9927 125.957 79.414C126.237 78.8353 126.615 78.3873 127.091 78.07C127.576 77.7433 128.127 77.58 128.743 77.58C129.219 77.58 129.648 77.6733 130.031 77.86C130.413 78.0373 130.735 78.2847 130.997 78.602C131.267 78.91 131.473 79.26 131.613 79.652C131.762 80.0347 131.837 80.436 131.837 80.856C131.837 81.1267 131.785 81.346 131.683 81.514C131.58 81.6727 131.37 81.752 131.053 81.752H126.685C126.722 82.3213 126.843 82.7833 127.049 83.138C127.254 83.4927 127.511 83.754 127.819 83.922C128.136 84.0807 128.481 84.16 128.855 84.16C129.359 84.16 129.76 84.0433 130.059 83.81C130.357 83.5767 130.563 83.3013 130.675 82.984C130.721 82.872 130.782 82.7787 130.857 82.704C130.941 82.62 131.053 82.578 131.193 82.578C131.351 82.578 131.477 82.6387 131.571 82.76C131.664 82.872 131.706 83.0213 131.697 83.208C131.687 83.3947 131.622 83.6047 131.501 83.838C131.379 84.062 131.202 84.2813 130.969 84.496C130.745 84.7013 130.46 84.8693 130.115 85C129.769 85.14 129.363 85.21 128.897 85.21ZM126.699 80.786H130.759C130.693 80.1513 130.488 79.6333 130.143 79.232C129.797 78.8213 129.326 78.616 128.729 78.616C128.197 78.616 127.744 78.798 127.371 79.162C127.007 79.526 126.783 80.0673 126.699 80.786ZM136.012 85.21C135.34 85.21 134.776 85.0327 134.318 84.678C133.87 84.3233 133.53 83.8567 133.296 83.278C133.072 82.6993 132.96 82.0787 132.96 81.416C132.96 80.716 133.082 80.0767 133.324 79.498C133.567 78.9193 133.922 78.4573 134.388 78.112C134.864 77.7573 135.438 77.58 136.11 77.58C136.502 77.58 136.843 77.6407 137.132 77.762C137.431 77.874 137.683 78.0233 137.888 78.21C138.094 78.3873 138.252 78.5787 138.364 78.784L138.252 78.812V75.354C138.252 75.1953 138.304 75.06 138.406 74.948C138.518 74.836 138.654 74.78 138.812 74.78C138.971 74.78 139.102 74.836 139.204 74.948C139.316 75.06 139.372 75.1953 139.372 75.354V84.524C139.372 84.692 139.316 84.8367 139.204 84.958C139.102 85.07 138.971 85.126 138.812 85.126C138.654 85.126 138.518 85.07 138.406 84.958C138.304 84.8367 138.252 84.692 138.252 84.524V83.866L138.35 83.88C138.248 84.1133 138.084 84.3327 137.86 84.538C137.646 84.734 137.38 84.8927 137.062 85.014C136.754 85.1447 136.404 85.21 136.012 85.21ZM136.236 84.16C136.899 84.1413 137.408 83.8847 137.762 83.39C138.126 82.8953 138.308 82.2373 138.308 81.416C138.308 80.5573 138.122 79.876 137.748 79.372C137.384 78.868 136.866 78.616 136.194 78.616C135.541 78.616 135.023 78.868 134.64 79.372C134.267 79.8667 134.08 80.5433 134.08 81.402C134.08 82.2607 134.267 82.9373 134.64 83.432C135.023 83.9267 135.555 84.1693 136.236 84.16ZM147.153 85.14C146.836 85.14 146.56 85.07 146.327 84.93C146.103 84.7807 145.93 84.5753 145.809 84.314C145.688 84.0433 145.627 83.7353 145.627 83.39V76.81C145.627 76.6513 145.678 76.5207 145.781 76.418C145.893 76.306 146.028 76.25 146.187 76.25C146.346 76.25 146.476 76.306 146.579 76.418C146.691 76.5207 146.747 76.6513 146.747 76.81V83.376C146.747 83.5533 146.775 83.7073 146.831 83.838C146.887 83.9593 147.004 84.02 147.181 84.02C147.302 84.02 147.391 83.992 147.447 83.936C147.512 83.88 147.578 83.8287 147.643 83.782C147.708 83.726 147.802 83.698 147.923 83.698C148.091 83.698 148.226 83.754 148.329 83.866C148.432 83.9687 148.483 84.0993 148.483 84.258C148.483 84.426 148.418 84.58 148.287 84.72C148.166 84.8507 148.002 84.9533 147.797 85.028C147.601 85.1027 147.386 85.14 147.153 85.14ZM145.179 78.812C145.03 78.812 144.899 78.7653 144.787 78.672C144.684 78.5693 144.633 78.4433 144.633 78.294C144.633 78.154 144.684 78.0373 144.787 77.944C144.899 77.8413 145.03 77.79 145.179 77.79H148.133C148.282 77.79 148.408 77.8413 148.511 77.944C148.623 78.0373 148.679 78.154 148.679 78.294C148.679 78.4433 148.623 78.5693 148.511 78.672C148.408 78.7653 148.282 78.812 148.133 78.812H145.179ZM153.08 85.21C152.427 85.21 151.853 85.0513 151.358 84.734C150.873 84.4073 150.49 83.9547 150.21 83.376C149.939 82.7973 149.804 82.13 149.804 81.374C149.804 80.618 149.939 79.9553 150.21 79.386C150.49 78.8167 150.873 78.3733 151.358 78.056C151.853 77.7387 152.427 77.58 153.08 77.58C153.743 77.58 154.321 77.7387 154.816 78.056C155.32 78.3733 155.712 78.8167 155.992 79.386C156.272 79.9553 156.412 80.618 156.412 81.374C156.412 82.13 156.272 82.7973 155.992 83.376C155.712 83.9547 155.32 84.4073 154.816 84.734C154.321 85.0513 153.743 85.21 153.08 85.21ZM153.08 84.16C153.771 84.16 154.307 83.9127 154.69 83.418C155.073 82.9233 155.264 82.242 155.264 81.374C155.264 80.5247 155.073 79.8527 154.69 79.358C154.307 78.8633 153.771 78.616 153.08 78.616C152.399 78.616 151.871 78.8633 151.498 79.358C151.125 79.8527 150.938 80.5247 150.938 81.374C150.938 82.242 151.125 82.9233 151.498 83.418C151.871 83.9127 152.399 84.16 153.08 84.16ZM162.364 85.14C162.206 85.14 162.07 85.084 161.958 84.972C161.856 84.8507 161.804 84.7107 161.804 84.552V75.354C161.804 75.1953 161.856 75.06 161.958 74.948C162.07 74.836 162.206 74.78 162.364 74.78C162.523 74.78 162.658 74.836 162.77 74.948C162.882 75.06 162.938 75.1953 162.938 75.354V84.552C162.938 84.7107 162.882 84.8507 162.77 84.972C162.658 85.084 162.523 85.14 162.364 85.14ZM166.994 85.21C166.471 85.21 166.019 85.1167 165.636 84.93C165.263 84.734 164.973 84.4727 164.768 84.146C164.572 83.8193 164.474 83.4553 164.474 83.054C164.474 82.4753 164.689 81.9807 165.118 81.57C165.557 81.15 166.257 80.884 167.218 80.772C167.619 80.7253 167.965 80.674 168.254 80.618C168.543 80.562 168.767 80.4687 168.926 80.338C169.094 80.2073 169.178 80.016 169.178 79.764C169.178 79.568 169.127 79.386 169.024 79.218C168.931 79.0407 168.772 78.896 168.548 78.784C168.333 78.672 168.044 78.616 167.68 78.616C167.195 78.616 166.831 78.714 166.588 78.91C166.345 79.0967 166.177 79.2833 166.084 79.47C166.019 79.5913 165.939 79.6847 165.846 79.75C165.753 79.8153 165.641 79.848 165.51 79.848C165.351 79.848 165.23 79.8013 165.146 79.708C165.062 79.6053 165.02 79.4793 165.02 79.33C165.02 79.1527 165.081 78.966 165.202 78.77C165.323 78.5647 165.501 78.3733 165.734 78.196C165.977 78.0093 166.266 77.86 166.602 77.748C166.947 77.636 167.339 77.58 167.778 77.58C168.413 77.58 168.912 77.7013 169.276 77.944C169.649 78.1773 169.915 78.4993 170.074 78.91C170.233 79.3113 170.312 79.7593 170.312 80.254V83.74C170.312 83.8333 170.321 83.9033 170.34 83.95C170.368 83.9967 170.415 84.0247 170.48 84.034C170.611 84.0433 170.723 84.0993 170.816 84.202C170.909 84.2953 170.956 84.4167 170.956 84.566C170.956 84.7247 170.891 84.86 170.76 84.972C170.639 85.084 170.466 85.14 170.242 85.14C169.962 85.14 169.743 85.0607 169.584 84.902C169.435 84.734 169.36 84.5287 169.36 84.286V84.048H169.318C169.085 84.3933 168.777 84.6733 168.394 84.888C168.021 85.1027 167.554 85.21 166.994 85.21ZM167.008 84.174C167.428 84.174 167.801 84.0853 168.128 83.908C168.464 83.7307 168.725 83.4927 168.912 83.194C169.108 82.8953 169.206 82.564 169.206 82.2V81.248C169.206 81.2293 169.197 81.22 169.178 81.22C169.169 81.2107 169.15 81.2247 169.122 81.262C168.982 81.374 168.791 81.4627 168.548 81.528C168.315 81.584 168.077 81.6307 167.834 81.668C167.591 81.7053 167.391 81.738 167.232 81.766C166.747 81.8407 166.35 81.9713 166.042 82.158C165.743 82.3447 165.594 82.6247 165.594 82.998C165.594 83.278 165.701 83.544 165.916 83.796C166.131 84.048 166.495 84.174 167.008 84.174ZM174.782 85.252C174.147 85.252 173.62 85.14 173.2 84.916C172.78 84.6827 172.463 84.412 172.248 84.104C172.033 83.7867 171.917 83.502 171.898 83.25C171.889 83.054 171.931 82.9047 172.024 82.802C172.127 82.69 172.253 82.634 172.402 82.634C172.542 82.634 172.654 82.676 172.738 82.76C172.822 82.8347 172.883 82.9233 172.92 83.026C173.032 83.3433 173.237 83.6233 173.536 83.866C173.835 84.0993 174.255 84.216 174.796 84.216C175.291 84.216 175.669 84.1133 175.93 83.908C176.191 83.6933 176.322 83.418 176.322 83.082C176.322 82.8207 176.243 82.6153 176.084 82.466C175.935 82.3073 175.725 82.1813 175.454 82.088C175.183 81.9947 174.871 81.9013 174.516 81.808C174.255 81.7333 173.984 81.654 173.704 81.57C173.424 81.4767 173.163 81.3553 172.92 81.206C172.677 81.0567 172.481 80.8653 172.332 80.632C172.183 80.3987 172.108 80.1047 172.108 79.75C172.108 79.358 172.211 78.9987 172.416 78.672C172.621 78.336 172.92 78.07 173.312 77.874C173.704 77.6687 174.171 77.566 174.712 77.566C175.263 77.566 175.725 77.6593 176.098 77.846C176.471 78.0327 176.756 78.2613 176.952 78.532C177.157 78.7933 177.265 79.0453 177.274 79.288C177.283 79.4653 177.246 79.6053 177.162 79.708C177.078 79.8107 176.957 79.862 176.798 79.862C176.695 79.862 176.593 79.834 176.49 79.778C176.387 79.722 176.299 79.6333 176.224 79.512C176.159 79.3813 176.07 79.246 175.958 79.106C175.855 78.9567 175.706 78.8353 175.51 78.742C175.314 78.6393 175.043 78.588 174.698 78.588C174.259 78.588 173.9 78.686 173.62 78.882C173.34 79.0687 173.2 79.3253 173.2 79.652C173.2 79.904 173.279 80.1 173.438 80.24C173.606 80.38 173.821 80.492 174.082 80.576C174.353 80.66 174.647 80.7487 174.964 80.842C175.263 80.926 175.557 81.0193 175.846 81.122C176.135 81.2153 176.397 81.3413 176.63 81.5C176.873 81.6493 177.064 81.8407 177.204 82.074C177.353 82.3073 177.428 82.5967 177.428 82.942C177.428 83.2873 177.339 83.642 177.162 84.006C176.994 84.3607 176.714 84.6593 176.322 84.902C175.939 85.1353 175.426 85.252 174.782 85.252ZM180.922 85.14C180.605 85.14 180.33 85.07 180.096 84.93C179.872 84.7807 179.7 84.5753 179.578 84.314C179.457 84.0433 179.396 83.7353 179.396 83.39V76.81C179.396 76.6513 179.448 76.5207 179.55 76.418C179.662 76.306 179.798 76.25 179.956 76.25C180.115 76.25 180.246 76.306 180.348 76.418C180.46 76.5207 180.516 76.6513 180.516 76.81V83.376C180.516 83.5533 180.544 83.7073 180.6 83.838C180.656 83.9593 180.773 84.02 180.95 84.02C181.072 84.02 181.16 83.992 181.216 83.936C181.282 83.88 181.347 83.8287 181.412 83.782C181.478 83.726 181.571 83.698 181.692 83.698C181.86 83.698 181.996 83.754 182.098 83.866C182.201 83.9687 182.252 84.0993 182.252 84.258C182.252 84.426 182.187 84.58 182.056 84.72C181.935 84.8507 181.772 84.9533 181.566 85.028C181.37 85.1027 181.156 85.14 180.922 85.14ZM178.948 78.812C178.799 78.812 178.668 78.7653 178.556 78.672C178.454 78.5693 178.402 78.4433 178.402 78.294C178.402 78.154 178.454 78.0373 178.556 77.944C178.668 77.8413 178.799 77.79 178.948 77.79H181.902C182.052 77.79 182.178 77.8413 182.28 77.944C182.392 78.0373 182.448 78.154 182.448 78.294C182.448 78.4433 182.392 78.5693 182.28 78.672C182.178 78.7653 182.052 78.812 181.902 78.812H178.948ZM188.409 85.14C188.25 85.14 188.115 85.084 188.003 84.972C187.9 84.86 187.849 84.72 187.849 84.552V78.224C187.849 78.056 187.9 77.9207 188.003 77.818C188.115 77.706 188.25 77.65 188.409 77.65C188.577 77.65 188.712 77.706 188.815 77.818C188.927 77.9207 188.983 78.056 188.983 78.224V79.078L188.745 78.882C188.941 78.574 189.16 78.3267 189.403 78.14C189.655 77.944 189.926 77.804 190.215 77.72C190.504 77.6267 190.798 77.58 191.097 77.58C191.638 77.58 192.114 77.7107 192.525 77.972C192.945 78.2333 193.253 78.6113 193.449 79.106L193.043 79.162C193.286 78.7513 193.552 78.434 193.841 78.21C194.13 77.9767 194.424 77.8133 194.723 77.72C195.031 77.6267 195.334 77.58 195.633 77.58C196.128 77.58 196.571 77.6873 196.963 77.902C197.355 78.1073 197.663 78.4107 197.887 78.812C198.111 79.204 198.223 79.68 198.223 80.24V84.552C198.223 84.72 198.172 84.86 198.069 84.972C197.966 85.084 197.836 85.14 197.677 85.14C197.509 85.14 197.369 85.084 197.257 84.972C197.154 84.86 197.103 84.72 197.103 84.552V80.282C197.103 79.7593 196.949 79.3533 196.641 79.064C196.342 78.7747 195.946 78.63 195.451 78.63C195.134 78.63 194.84 78.6953 194.569 78.826C194.298 78.9473 194.084 79.1293 193.925 79.372C193.766 79.6053 193.687 79.8947 193.687 80.24V84.552C193.687 84.72 193.631 84.86 193.519 84.972C193.416 85.084 193.286 85.14 193.127 85.14C192.959 85.14 192.819 85.084 192.707 84.972C192.604 84.86 192.553 84.72 192.553 84.552V80.282C192.553 79.7593 192.404 79.3533 192.105 79.064C191.806 78.7653 191.41 78.616 190.915 78.616C190.579 78.616 190.262 78.686 189.963 78.826C189.674 78.9567 189.436 79.148 189.249 79.4C189.072 79.6427 188.983 79.932 188.983 80.268V84.552C188.983 84.72 188.927 84.86 188.815 84.972C188.712 85.084 188.577 85.14 188.409 85.14ZM202.969 85.21C202.315 85.21 201.741 85.0513 201.247 84.734C200.761 84.4073 200.379 83.9547 200.099 83.376C199.828 82.7973 199.693 82.13 199.693 81.374C199.693 80.618 199.828 79.9553 200.099 79.386C200.379 78.8167 200.761 78.3733 201.247 78.056C201.741 77.7387 202.315 77.58 202.969 77.58C203.631 77.58 204.21 77.7387 204.705 78.056C205.209 78.3733 205.601 78.8167 205.881 79.386C206.161 79.9553 206.301 80.618 206.301 81.374C206.301 82.13 206.161 82.7973 205.881 83.376C205.601 83.9547 205.209 84.4073 204.705 84.734C204.21 85.0513 203.631 85.21 202.969 85.21ZM202.969 84.16C203.659 84.16 204.196 83.9127 204.579 83.418C204.961 82.9233 205.153 82.242 205.153 81.374C205.153 80.5247 204.961 79.8527 204.579 79.358C204.196 78.8633 203.659 78.616 202.969 78.616C202.287 78.616 201.76 78.8633 201.387 79.358C201.013 79.8527 200.827 80.5247 200.827 81.374C200.827 82.242 201.013 82.9233 201.387 83.418C201.76 83.9127 202.287 84.16 202.969 84.16ZM208.397 85.14C208.239 85.14 208.103 85.084 207.991 84.972C207.889 84.86 207.837 84.72 207.837 84.552V78.224C207.837 78.056 207.889 77.9207 207.991 77.818C208.103 77.706 208.239 77.65 208.397 77.65C208.565 77.65 208.701 77.706 208.803 77.818C208.915 77.9207 208.971 78.056 208.971 78.224V79.162L208.733 78.91C209.032 78.4527 209.387 78.1167 209.797 77.902C210.217 77.6873 210.665 77.58 211.141 77.58C211.645 77.58 212.098 77.6873 212.499 77.902C212.901 78.1073 213.213 78.4107 213.437 78.812C213.671 79.204 213.787 79.6893 213.787 80.268V84.552C213.787 84.72 213.736 84.86 213.633 84.972C213.531 85.084 213.395 85.14 213.227 85.14C213.05 85.14 212.91 85.084 212.807 84.972C212.705 84.86 212.653 84.72 212.653 84.552V80.31C212.653 79.778 212.495 79.3627 212.177 79.064C211.869 78.7653 211.459 78.616 210.945 78.616C210.6 78.616 210.278 78.686 209.979 78.826C209.681 78.966 209.438 79.1667 209.251 79.428C209.065 79.68 208.971 79.9833 208.971 80.338V84.552C208.971 84.72 208.915 84.86 208.803 84.972C208.701 85.084 208.565 85.14 208.397 85.14ZM217.631 85.14C217.314 85.14 217.039 85.07 216.805 84.93C216.581 84.7807 216.409 84.5753 216.287 84.314C216.166 84.0433 216.105 83.7353 216.105 83.39V76.81C216.105 76.6513 216.157 76.5207 216.259 76.418C216.371 76.306 216.507 76.25 216.665 76.25C216.824 76.25 216.955 76.306 217.057 76.418C217.169 76.5207 217.225 76.6513 217.225 76.81V83.376C217.225 83.5533 217.253 83.7073 217.309 83.838C217.365 83.9593 217.482 84.02 217.659 84.02C217.781 84.02 217.869 83.992 217.925 83.936C217.991 83.88 218.056 83.8287 218.121 83.782C218.187 83.726 218.28 83.698 218.401 83.698C218.569 83.698 218.705 83.754 218.807 83.866C218.91 83.9687 218.961 84.0993 218.961 84.258C218.961 84.426 218.896 84.58 218.765 84.72C218.644 84.8507 218.481 84.9533 218.275 85.028C218.079 85.1027 217.865 85.14 217.631 85.14ZM215.657 78.812C215.508 78.812 215.377 78.7653 215.265 78.672C215.163 78.5693 215.111 78.4433 215.111 78.294C215.111 78.154 215.163 78.0373 215.265 77.944C215.377 77.8413 215.508 77.79 215.657 77.79H218.611C218.761 77.79 218.887 77.8413 218.989 77.944C219.101 78.0373 219.157 78.154 219.157 78.294C219.157 78.4433 219.101 78.5693 218.989 78.672C218.887 78.7653 218.761 78.812 218.611 78.812H215.657ZM221.263 85.14C221.104 85.14 220.969 85.084 220.857 84.972C220.754 84.86 220.703 84.72 220.703 84.552V75.354C220.703 75.186 220.754 75.0507 220.857 74.948C220.969 74.836 221.104 74.78 221.263 74.78C221.431 74.78 221.566 74.836 221.669 74.948C221.781 75.0507 221.837 75.186 221.837 75.354V79.162L221.599 78.91C221.897 78.4527 222.247 78.1167 222.649 77.902C223.059 77.6873 223.503 77.58 223.979 77.58C224.473 77.58 224.917 77.6873 225.309 77.902C225.71 78.1073 226.023 78.4107 226.247 78.812C226.48 79.204 226.597 79.6893 226.597 80.268V84.552C226.597 84.72 226.545 84.86 226.443 84.972C226.34 85.084 226.205 85.14 226.037 85.14C225.878 85.14 225.743 85.084 225.631 84.972C225.528 84.86 225.477 84.72 225.477 84.552V80.31C225.477 79.778 225.323 79.3627 225.015 79.064C224.707 78.7653 224.305 78.616 223.811 78.616C223.465 78.616 223.139 78.686 222.831 78.826C222.532 78.966 222.289 79.1667 222.103 79.428C221.925 79.68 221.837 79.9833 221.837 80.338V84.552C221.837 84.72 221.781 84.86 221.669 84.972C221.566 85.084 221.431 85.14 221.263 85.14Z" fill="#2E2C28"/>
</g>
<defs>
<filter id="filter0_d_6288_16948" x="0" y="0" width="247" height="113" filterUnits="userSpaceOnUse" color-interpolation-filters="sRGB">
<feFlood flood-opacity="0" result="BackgroundImageFix"/>
<feColorMatrix in="SourceAlpha" type="matrix" values="0 0 0 0 0 0 0 0 0 0 0 0 0 0 0 0 0 0 127 0" result="hardAlpha"/>
<feOffset dy="4"/>
<feGaussianBlur stdDeviation="2"/>
<feComposite in2="hardAlpha" operator="out"/>
<feColorMatrix type="matrix" values="0 0 0 0 0 0 0 0 0 0 0 0 0 0 0 0 0 0 0.25 0"/>
<feBlend mode="normal" in2="BackgroundImageFix" result="effect1_dropShadow_6288_16948"/>
<feBlend mode="normal" in="SourceGraphic" in2="effect1_dropShadow_6288_16948" result="shape"/>
</filter>
<clipPath id="clip0_6288_16948">
<rect width="7.02056" height="7.25806" fill="white" transform="translate(25.125 76.3708)"/>
</clipPath>
</defs>
</svg>
