<svg width="191" height="113" viewBox="0 0 191 113" fill="none" xmlns="http://www.w3.org/2000/svg">
<g filter="url(#filter0_d_6007_18134)">
<rect x="4" width="183" height="105" rx="16" fill="#FFF4D9" shape-rendering="crispEdges"/>
<rect x="4.5" y="0.5" width="182" height="104" rx="15.5" stroke="#FCE3D5" shape-rendering="crispEdges"/>
<path d="M20.008 21.782C19.784 21.782 19.5927 21.7073 19.434 21.558C19.2847 21.4087 19.21 21.2173 19.21 20.984C19.21 20.76 19.2847 20.5733 19.434 20.424C19.5927 20.2747 19.784 20.2 20.008 20.2H26.014C26.238 20.2 26.4247 20.2747 26.574 20.424C26.7327 20.5733 26.812 20.76 26.812 20.984C26.812 21.2173 26.7327 21.4087 26.574 21.558C26.4247 21.7073 26.238 21.782 26.014 21.782H20.008ZM23.004 30.14C22.7707 30.14 22.5747 30.0607 22.416 29.902C22.2573 29.7433 22.178 29.5427 22.178 29.3V21.04H23.844V29.3C23.844 29.5427 23.7647 29.7433 23.606 29.902C23.4567 30.0607 23.256 30.14 23.004 30.14ZM29.8263 30.21C29.1449 30.21 28.5429 30.0467 28.0203 29.72C27.5069 29.384 27.1056 28.9267 26.8163 28.348C26.5269 27.7693 26.3823 27.1113 26.3823 26.374C26.3823 25.6367 26.5269 24.9833 26.8163 24.414C27.1056 23.8447 27.5069 23.3967 28.0203 23.07C28.5429 22.7433 29.1449 22.58 29.8263 22.58C30.5263 22.58 31.1329 22.7433 31.6463 23.07C32.1689 23.3967 32.5749 23.8447 32.8643 24.414C33.1536 24.9833 33.2983 25.6367 33.2983 26.374C33.2983 27.1113 33.1536 27.7693 32.8643 28.348C32.5749 28.9267 32.1689 29.384 31.6463 29.72C31.1329 30.0467 30.5263 30.21 29.8263 30.21ZM29.8263 28.726C30.4049 28.726 30.8529 28.5253 31.1703 28.124C31.4876 27.7133 31.6463 27.13 31.6463 26.374C31.6463 25.6367 31.4876 25.0673 31.1703 24.666C30.8529 24.2553 30.4049 24.05 29.8263 24.05C29.2569 24.05 28.8136 24.2553 28.4963 24.666C28.1883 25.0673 28.0343 25.6367 28.0343 26.374C28.0343 27.13 28.1883 27.7133 28.4963 28.124C28.8136 28.5253 29.2569 28.726 29.8263 28.726ZM37.139 30.14C36.7283 30.14 36.383 30.0513 36.103 29.874C35.823 29.6967 35.6083 29.4587 35.459 29.16C35.319 28.8613 35.249 28.53 35.249 28.166V22.048C35.249 21.824 35.3283 21.6373 35.487 21.488C35.6456 21.3293 35.837 21.25 36.061 21.25C36.285 21.25 36.4716 21.3293 36.621 21.488C36.7796 21.6373 36.859 21.824 36.859 22.048V28.082C36.859 28.222 36.8776 28.334 36.915 28.418C36.9616 28.502 37.0456 28.544 37.167 28.544C37.2603 28.544 37.3396 28.5207 37.405 28.474C37.4796 28.418 37.559 28.3667 37.643 28.32C37.727 28.2733 37.8296 28.25 37.951 28.25C38.1843 28.25 38.3756 28.3293 38.525 28.488C38.6836 28.6467 38.763 28.838 38.763 29.062C38.763 29.2953 38.679 29.4913 38.511 29.65C38.3523 29.8087 38.147 29.93 37.895 30.014C37.6523 30.098 37.4003 30.14 37.139 30.14ZM34.941 24.204C34.745 24.204 34.5723 24.1387 34.423 24.008C34.283 23.868 34.213 23.6953 34.213 23.49C34.213 23.294 34.283 23.1307 34.423 23C34.5723 22.86 34.745 22.79 34.941 22.79H38.175C38.3803 22.79 38.553 22.86 38.693 23C38.833 23.1307 38.903 23.294 38.903 23.49C38.903 23.6953 38.833 23.868 38.693 24.008C38.553 24.1387 38.3803 24.204 38.175 24.204H34.941ZM42.5328 30.21C42.0661 30.21 41.6415 30.1213 41.2588 29.944C40.8855 29.7667 40.5868 29.5193 40.3628 29.202C40.1388 28.8753 40.0268 28.488 40.0268 28.04C40.0268 27.3867 40.2461 26.864 40.6848 26.472C41.1235 26.0707 41.8375 25.8047 42.8268 25.674C43.1628 25.6273 43.4615 25.5807 43.7228 25.534C43.9935 25.4873 44.2081 25.4127 44.3668 25.31C44.5255 25.198 44.6048 25.0393 44.6048 24.834C44.6048 24.666 44.5628 24.5167 44.4788 24.386C44.3948 24.2553 44.2641 24.1527 44.0868 24.078C43.9188 24.0033 43.6995 23.966 43.4288 23.966C43.0648 23.966 42.7801 24.036 42.5748 24.176C42.3788 24.3067 42.2201 24.456 42.0988 24.624C42.0055 24.7453 41.8888 24.8433 41.7488 24.918C41.6181 24.9927 41.4688 25.03 41.3008 25.03C41.0768 25.03 40.8995 24.9693 40.7688 24.848C40.6381 24.7267 40.5728 24.5633 40.5728 24.358C40.5728 24.1433 40.6428 23.9333 40.7828 23.728C40.9228 23.5133 41.1188 23.322 41.3708 23.154C41.6228 22.9767 41.9261 22.8367 42.2808 22.734C42.6355 22.6313 43.0228 22.58 43.4428 22.58C44.0775 22.58 44.5955 22.6967 44.9968 22.93C45.4075 23.1633 45.7108 23.4853 45.9068 23.896C46.1121 24.3067 46.2148 24.7733 46.2148 25.296V28.306C46.2148 28.4087 46.2241 28.4833 46.2428 28.53C46.2708 28.5767 46.3268 28.6093 46.4108 28.628C46.5508 28.6653 46.6815 28.7447 46.8028 28.866C46.9241 28.9873 46.9848 29.1507 46.9848 29.356C46.9848 29.5707 46.9008 29.7573 46.7328 29.916C46.5648 30.0653 46.3315 30.14 46.0328 30.14C45.6781 30.1307 45.4028 30.0373 45.2068 29.86C45.0201 29.6827 44.9081 29.4587 44.8708 29.188V29.034H44.8288C44.5768 29.4073 44.2735 29.6967 43.9188 29.902C43.5641 30.1073 43.1021 30.21 42.5328 30.21ZM42.8128 28.81C43.1488 28.81 43.4521 28.74 43.7228 28.6C43.9935 28.46 44.2081 28.264 44.3668 28.012C44.5348 27.76 44.6188 27.4753 44.6188 27.158V26.5C44.6188 26.4813 44.6095 26.472 44.5908 26.472C44.5815 26.4627 44.5581 26.472 44.5208 26.5C44.3995 26.584 44.2455 26.6493 44.0588 26.696C43.8815 26.7427 43.6948 26.78 43.4988 26.808C43.3028 26.836 43.1161 26.8687 42.9388 26.906C42.5001 26.99 42.1735 27.1113 41.9588 27.27C41.7535 27.4287 41.6508 27.6387 41.6508 27.9C41.6508 28.152 41.7395 28.3667 41.9168 28.544C42.1035 28.7213 42.4021 28.81 42.8128 28.81ZM49.0928 30.14C48.8594 30.14 48.6634 30.0607 48.5048 29.902C48.3554 29.734 48.2808 29.538 48.2808 29.314V20.592C48.2808 20.3587 48.3554 20.1673 48.5048 20.018C48.6634 19.8593 48.8594 19.78 49.0928 19.78C49.3168 19.78 49.5081 19.8593 49.6668 20.018C49.8254 20.1673 49.9048 20.3587 49.9048 20.592V29.314C49.9048 29.538 49.8254 29.734 49.6668 29.902C49.5081 30.0607 49.3168 30.14 49.0928 30.14ZM56.6983 30.14C56.4556 30.14 56.2549 30.0607 56.0963 29.902C55.9376 29.7433 55.8583 29.5427 55.8583 29.3V20.886C55.8583 20.6433 55.9376 20.4473 56.0963 20.298C56.2549 20.1393 56.4556 20.06 56.6983 20.06C56.9409 20.06 57.1369 20.1393 57.2863 20.298C57.4449 20.4473 57.5243 20.6433 57.5243 20.886V29.3C57.5243 29.5427 57.4449 29.7433 57.2863 29.902C57.1369 30.0607 56.9409 30.14 56.6983 30.14ZM60.4404 30.14C60.2071 30.14 60.0111 30.0607 59.8524 29.902C59.7031 29.7433 59.6284 29.5473 59.6284 29.314V23.462C59.6284 23.2287 59.7031 23.0373 59.8524 22.888C60.0111 22.7293 60.2071 22.65 60.4404 22.65C60.6644 22.65 60.8558 22.7293 61.0144 22.888C61.1731 23.0373 61.2524 23.2287 61.2524 23.462V24.344L60.9164 24.134C61.2151 23.6113 61.5651 23.224 61.9664 22.972C62.3771 22.7107 62.8438 22.58 63.3664 22.58C63.8704 22.58 64.3231 22.6873 64.7244 22.902C65.1258 23.1167 65.4384 23.434 65.6624 23.854C65.8864 24.274 65.9984 24.7873 65.9984 25.394V29.314C65.9984 29.5473 65.9238 29.7433 65.7744 29.902C65.6251 30.0607 65.4338 30.14 65.2004 30.14C64.9578 30.14 64.7618 30.0607 64.6124 29.902C64.4631 29.7433 64.3884 29.5473 64.3884 29.314V25.618C64.3884 25.142 64.2578 24.7687 63.9964 24.498C63.7351 24.218 63.3758 24.078 62.9184 24.078C62.5918 24.078 62.3024 24.148 62.0504 24.288C61.7984 24.428 61.6024 24.6193 61.4624 24.862C61.3224 25.0953 61.2524 25.366 61.2524 25.674V29.314C61.2524 29.5473 61.1731 29.7433 61.0144 29.902C60.8651 30.0607 60.6738 30.14 60.4404 30.14ZM70.2152 30.14C70.0565 30.14 69.9025 30.0933 69.7532 30C69.6038 29.9067 69.4872 29.762 69.4032 29.566L67.1772 23.756C67.1212 23.5973 67.1118 23.434 67.1492 23.266C67.1865 23.098 67.2705 22.9533 67.4012 22.832C67.5318 22.7107 67.6998 22.65 67.9052 22.65C68.0918 22.65 68.2505 22.7013 68.3812 22.804C68.5212 22.8973 68.6192 23.0187 68.6752 23.168L70.5092 27.97L70.0752 28.054L71.9792 23.168C72.0445 23.0093 72.1425 22.8833 72.2732 22.79C72.4038 22.6967 72.5532 22.65 72.7212 22.65C72.8985 22.65 73.0478 22.7107 73.1692 22.832C73.2905 22.944 73.3745 23.084 73.4212 23.252C73.4678 23.42 73.4585 23.588 73.3932 23.756L71.0272 29.566C70.9525 29.7527 70.8405 29.8973 70.6912 30C70.5418 30.0933 70.3832 30.14 70.2152 30.14ZM77.6098 30.21C76.9565 30.21 76.3685 30.0607 75.8458 29.762C75.3231 29.454 74.9078 29.02 74.5998 28.46C74.3011 27.8907 74.1518 27.214 74.1518 26.43C74.1518 25.6927 74.2918 25.0347 74.5718 24.456C74.8518 23.8773 75.2391 23.42 75.7338 23.084C76.2378 22.748 76.8211 22.58 77.4838 22.58C77.9971 22.58 78.4545 22.678 78.8558 22.874C79.2571 23.0607 79.5978 23.3127 79.8778 23.63C80.1671 23.938 80.3865 24.2833 80.5358 24.666C80.6851 25.0393 80.7598 25.4173 80.7598 25.8C80.7598 26.136 80.6805 26.402 80.5218 26.598C80.3725 26.7847 80.1158 26.878 79.7518 26.878H75.8318C75.8878 27.3167 76.0045 27.676 76.1818 27.956C76.3591 28.2267 76.5785 28.4273 76.8398 28.558C77.1105 28.6793 77.3998 28.74 77.7078 28.74C78.0811 28.74 78.3798 28.6653 78.6038 28.516C78.8371 28.3573 79.0191 28.166 79.1498 27.942C79.2338 27.8487 79.3271 27.7647 79.4298 27.69C79.5325 27.606 79.6678 27.564 79.8358 27.564C80.0505 27.564 80.2278 27.634 80.3678 27.774C80.5078 27.914 80.5731 28.1053 80.5638 28.348C80.5638 28.5533 80.4891 28.768 80.3398 28.992C80.1998 29.2067 79.9991 29.4073 79.7378 29.594C79.4858 29.7713 79.1778 29.916 78.8138 30.028C78.4591 30.1493 78.0578 30.21 77.6098 30.21ZM75.8318 25.688H79.1498C79.0845 25.1653 78.9071 24.7593 78.6178 24.47C78.3378 24.1713 77.9645 24.022 77.4978 24.022C77.0591 24.022 76.6905 24.162 76.3918 24.442C76.0931 24.7127 75.9065 25.128 75.8318 25.688ZM83.1084 30.14C82.8751 30.14 82.6791 30.0607 82.5204 29.902C82.3711 29.7433 82.2964 29.5473 82.2964 29.314V23.462C82.2964 23.2287 82.3711 23.0373 82.5204 22.888C82.6791 22.7293 82.8751 22.65 83.1084 22.65C83.3324 22.65 83.5237 22.7293 83.6824 22.888C83.8411 23.0373 83.9204 23.2287 83.9204 23.462V24.344L83.5844 24.134C83.8831 23.6113 84.2331 23.224 84.6344 22.972C85.0451 22.7107 85.5117 22.58 86.0344 22.58C86.5384 22.58 86.9911 22.6873 87.3924 22.902C87.7937 23.1167 88.1064 23.434 88.3304 23.854C88.5544 24.274 88.6664 24.7873 88.6664 25.394V29.314C88.6664 29.5473 88.5917 29.7433 88.4424 29.902C88.2931 30.0607 88.1017 30.14 87.8684 30.14C87.6257 30.14 87.4297 30.0607 87.2804 29.902C87.1311 29.7433 87.0564 29.5473 87.0564 29.314V25.618C87.0564 25.142 86.9257 24.7687 86.6644 24.498C86.4031 24.218 86.0437 24.078 85.5864 24.078C85.2597 24.078 84.9704 24.148 84.7184 24.288C84.4664 24.428 84.2704 24.6193 84.1304 24.862C83.9904 25.0953 83.9204 25.366 83.9204 25.674V29.314C83.9204 29.5473 83.8411 29.7433 83.6824 29.902C83.5331 30.0607 83.3417 30.14 83.1084 30.14ZM92.9202 30.14C92.5096 30.14 92.1642 30.0513 91.8842 29.874C91.6042 29.6967 91.3896 29.4587 91.2402 29.16C91.1002 28.8613 91.0302 28.53 91.0302 28.166V22.048C91.0302 21.824 91.1096 21.6373 91.2682 21.488C91.4269 21.3293 91.6182 21.25 91.8422 21.25C92.0662 21.25 92.2529 21.3293 92.4022 21.488C92.5609 21.6373 92.6402 21.824 92.6402 22.048V28.082C92.6402 28.222 92.6589 28.334 92.6962 28.418C92.7429 28.502 92.8269 28.544 92.9482 28.544C93.0416 28.544 93.1209 28.5207 93.1862 28.474C93.2609 28.418 93.3402 28.3667 93.4242 28.32C93.5082 28.2733 93.6109 28.25 93.7322 28.25C93.9656 28.25 94.1569 28.3293 94.3062 28.488C94.4649 28.6467 94.5442 28.838 94.5442 29.062C94.5442 29.2953 94.4602 29.4913 94.2922 29.65C94.1336 29.8087 93.9282 29.93 93.6762 30.014C93.4336 30.098 93.1816 30.14 92.9202 30.14ZM90.7222 24.204C90.5262 24.204 90.3536 24.1387 90.2042 24.008C90.0642 23.868 89.9942 23.6953 89.9942 23.49C89.9942 23.294 90.0642 23.1307 90.2042 23C90.3536 22.86 90.5262 22.79 90.7222 22.79H93.9562C94.1616 22.79 94.3342 22.86 94.4742 23C94.6142 23.1307 94.6842 23.294 94.6842 23.49C94.6842 23.6953 94.6142 23.868 94.4742 24.008C94.3342 24.1387 94.1616 24.204 93.9562 24.204H90.7222ZM99.252 30.21C98.5707 30.21 97.9687 30.0467 97.446 29.72C96.9327 29.384 96.5314 28.9267 96.242 28.348C95.9527 27.7693 95.808 27.1113 95.808 26.374C95.808 25.6367 95.9527 24.9833 96.242 24.414C96.5314 23.8447 96.9327 23.3967 97.446 23.07C97.9687 22.7433 98.5707 22.58 99.252 22.58C99.952 22.58 100.559 22.7433 101.072 23.07C101.595 23.3967 102.001 23.8447 102.29 24.414C102.579 24.9833 102.724 25.6367 102.724 26.374C102.724 27.1113 102.579 27.7693 102.29 28.348C102.001 28.9267 101.595 29.384 101.072 29.72C100.559 30.0467 99.952 30.21 99.252 30.21ZM99.252 28.726C99.8307 28.726 100.279 28.5253 100.596 28.124C100.913 27.7133 101.072 27.13 101.072 26.374C101.072 25.6367 100.913 25.0673 100.596 24.666C100.279 24.2553 99.8307 24.05 99.252 24.05C98.6827 24.05 98.2394 24.2553 97.922 24.666C97.614 25.0673 97.46 25.6367 97.46 26.374C97.46 27.13 97.614 27.7133 97.922 28.124C98.2394 28.5253 98.6827 28.726 99.252 28.726ZM105.079 30.14C104.855 30.14 104.664 30.0607 104.505 29.902C104.346 29.734 104.267 29.538 104.267 29.314V23.462C104.267 23.238 104.346 23.0467 104.505 22.888C104.664 22.7293 104.86 22.65 105.093 22.65C105.336 22.65 105.527 22.7293 105.667 22.888C105.816 23.0467 105.891 23.238 105.891 23.462V24.218L105.667 24.008C105.76 23.7933 105.896 23.5787 106.073 23.364C106.25 23.14 106.465 22.9533 106.717 22.804C106.969 22.6547 107.254 22.58 107.571 22.58C107.832 22.58 108.042 22.6547 108.201 22.804C108.369 22.944 108.453 23.1353 108.453 23.378C108.453 23.602 108.369 23.7933 108.201 23.952C108.042 24.1107 107.832 24.19 107.571 24.19C107.207 24.19 106.899 24.26 106.647 24.4C106.395 24.54 106.204 24.7313 106.073 24.974C105.952 25.2073 105.891 25.4733 105.891 25.772V29.314C105.891 29.538 105.812 29.734 105.653 29.902C105.494 30.0607 105.303 30.14 105.079 30.14ZM110.955 32.996C110.6 32.996 110.287 32.9307 110.017 32.8C109.746 32.6787 109.531 32.5153 109.373 32.31C109.223 32.1047 109.149 31.8947 109.149 31.68C109.149 31.4747 109.219 31.302 109.359 31.162C109.499 31.0313 109.681 30.966 109.905 30.966C110.082 30.966 110.213 30.9987 110.297 31.064C110.381 31.1387 110.455 31.2087 110.521 31.274C110.577 31.33 110.633 31.3767 110.689 31.414C110.745 31.4513 110.805 31.47 110.871 31.47C110.955 31.47 111.025 31.4373 111.081 31.372C111.137 31.3067 111.183 31.218 111.221 31.106L111.725 29.748L109.373 23.77C109.317 23.6113 109.307 23.448 109.345 23.28C109.391 23.1027 109.48 22.9533 109.611 22.832C109.751 22.7107 109.919 22.65 110.115 22.65C110.301 22.65 110.46 22.706 110.591 22.818C110.721 22.9207 110.815 23.0513 110.871 23.21L112.817 28.306L112.271 28.488L114.231 23.154C114.287 23.0047 114.38 22.8833 114.511 22.79C114.651 22.6967 114.814 22.65 115.001 22.65C115.206 22.65 115.369 22.7107 115.491 22.832C115.621 22.944 115.705 23.084 115.743 23.252C115.789 23.4107 115.78 23.574 115.715 23.742L112.789 31.4C112.574 31.96 112.322 32.366 112.033 32.618C111.753 32.87 111.393 32.996 110.955 32.996ZM124.235 30.21C124.02 30.21 123.843 30.126 123.703 29.958C123.563 29.79 123.446 29.5893 123.353 29.356L120.385 21.152C120.329 20.9933 120.319 20.83 120.357 20.662C120.403 20.494 120.492 20.354 120.623 20.242C120.763 20.1207 120.945 20.06 121.169 20.06C121.355 20.06 121.519 20.1113 121.659 20.214C121.799 20.3167 121.897 20.4473 121.953 20.606L124.529 28.208H123.955L126.545 20.606C126.601 20.4473 126.699 20.3167 126.839 20.214C126.979 20.1113 127.142 20.06 127.329 20.06C127.543 20.06 127.721 20.1207 127.861 20.242C128.001 20.354 128.094 20.494 128.141 20.662C128.187 20.83 128.178 20.9933 128.113 21.152L125.131 29.356C125.047 29.5893 124.93 29.79 124.781 29.958C124.641 30.126 124.459 30.21 124.235 30.21ZM130.976 30.21C130.509 30.21 130.085 30.1213 129.702 29.944C129.329 29.7667 129.03 29.5193 128.806 29.202C128.582 28.8753 128.47 28.488 128.47 28.04C128.47 27.3867 128.689 26.864 129.128 26.472C129.567 26.0707 130.281 25.8047 131.27 25.674C131.606 25.6273 131.905 25.5807 132.166 25.534C132.437 25.4873 132.651 25.4127 132.81 25.31C132.969 25.198 133.048 25.0393 133.048 24.834C133.048 24.666 133.006 24.5167 132.922 24.386C132.838 24.2553 132.707 24.1527 132.53 24.078C132.362 24.0033 132.143 23.966 131.872 23.966C131.508 23.966 131.223 24.036 131.018 24.176C130.822 24.3067 130.663 24.456 130.542 24.624C130.449 24.7453 130.332 24.8433 130.192 24.918C130.061 24.9927 129.912 25.03 129.744 25.03C129.52 25.03 129.343 24.9693 129.212 24.848C129.081 24.7267 129.016 24.5633 129.016 24.358C129.016 24.1433 129.086 23.9333 129.226 23.728C129.366 23.5133 129.562 23.322 129.814 23.154C130.066 22.9767 130.369 22.8367 130.724 22.734C131.079 22.6313 131.466 22.58 131.886 22.58C132.521 22.58 133.039 22.6967 133.44 22.93C133.851 23.1633 134.154 23.4853 134.35 23.896C134.555 24.3067 134.658 24.7733 134.658 25.296V28.306C134.658 28.4087 134.667 28.4833 134.686 28.53C134.714 28.5767 134.77 28.6093 134.854 28.628C134.994 28.6653 135.125 28.7447 135.246 28.866C135.367 28.9873 135.428 29.1507 135.428 29.356C135.428 29.5707 135.344 29.7573 135.176 29.916C135.008 30.0653 134.775 30.14 134.476 30.14C134.121 30.1307 133.846 30.0373 133.65 29.86C133.463 29.6827 133.351 29.4587 133.314 29.188V29.034H133.272C133.02 29.4073 132.717 29.6967 132.362 29.902C132.007 30.1073 131.545 30.21 130.976 30.21ZM131.256 28.81C131.592 28.81 131.895 28.74 132.166 28.6C132.437 28.46 132.651 28.264 132.81 28.012C132.978 27.76 133.062 27.4753 133.062 27.158V26.5C133.062 26.4813 133.053 26.472 133.034 26.472C133.025 26.4627 133.001 26.472 132.964 26.5C132.843 26.584 132.689 26.6493 132.502 26.696C132.325 26.7427 132.138 26.78 131.942 26.808C131.746 26.836 131.559 26.8687 131.382 26.906C130.943 26.99 130.617 27.1113 130.402 27.27C130.197 27.4287 130.094 27.6387 130.094 27.9C130.094 28.152 130.183 28.3667 130.36 28.544C130.547 28.7213 130.845 28.81 131.256 28.81ZM137.536 30.14C137.303 30.14 137.107 30.0607 136.948 29.902C136.799 29.734 136.724 29.538 136.724 29.314V20.592C136.724 20.3587 136.799 20.1673 136.948 20.018C137.107 19.8593 137.303 19.78 137.536 19.78C137.76 19.78 137.951 19.8593 138.11 20.018C138.269 20.1673 138.348 20.3587 138.348 20.592V29.314C138.348 29.538 138.269 29.734 138.11 29.902C137.951 30.0607 137.76 30.14 137.536 30.14ZM142.868 30.14C142.28 30.14 141.79 30.0373 141.398 29.832C141.006 29.6173 140.712 29.3047 140.516 28.894C140.33 28.4833 140.236 27.984 140.236 27.396V23.392C140.236 23.168 140.311 22.9767 140.46 22.818C140.619 22.6593 140.81 22.58 141.034 22.58C141.268 22.58 141.459 22.6593 141.608 22.818C141.767 22.9767 141.846 23.168 141.846 23.392V27.2C141.846 27.7413 141.977 28.1147 142.238 28.32C142.509 28.5253 142.864 28.628 143.302 28.628C143.638 28.628 143.932 28.558 144.184 28.418C144.436 28.278 144.632 28.0913 144.772 27.858C144.912 27.6153 144.982 27.34 144.982 27.032V23.392C144.982 23.168 145.062 22.9767 145.22 22.818C145.379 22.6593 145.57 22.58 145.794 22.58C146.028 22.58 146.219 22.6593 146.368 22.818C146.527 22.9767 146.606 23.168 146.606 23.392V29.314C146.606 29.538 146.527 29.7293 146.368 29.888C146.219 30.0467 146.028 30.126 145.794 30.126C145.57 30.126 145.379 30.0467 145.22 29.888C145.062 29.7293 144.982 29.538 144.982 29.314V28.376L145.318 28.572C145.02 29.0947 144.665 29.4867 144.254 29.748C143.853 30.0093 143.391 30.14 142.868 30.14ZM151.602 30.21C150.949 30.21 150.361 30.0607 149.838 29.762C149.315 29.454 148.9 29.02 148.592 28.46C148.293 27.8907 148.144 27.214 148.144 26.43C148.144 25.6927 148.284 25.0347 148.564 24.456C148.844 23.8773 149.231 23.42 149.726 23.084C150.23 22.748 150.813 22.58 151.476 22.58C151.989 22.58 152.447 22.678 152.848 22.874C153.249 23.0607 153.59 23.3127 153.87 23.63C154.159 23.938 154.379 24.2833 154.528 24.666C154.677 25.0393 154.752 25.4173 154.752 25.8C154.752 26.136 154.673 26.402 154.514 26.598C154.365 26.7847 154.108 26.878 153.744 26.878H149.824C149.88 27.3167 149.997 27.676 150.174 27.956C150.351 28.2267 150.571 28.4273 150.832 28.558C151.103 28.6793 151.392 28.74 151.7 28.74C152.073 28.74 152.372 28.6653 152.596 28.516C152.829 28.3573 153.011 28.166 153.142 27.942C153.226 27.8487 153.319 27.7647 153.422 27.69C153.525 27.606 153.66 27.564 153.828 27.564C154.043 27.564 154.22 27.634 154.36 27.774C154.5 27.914 154.565 28.1053 154.556 28.348C154.556 28.5533 154.481 28.768 154.332 28.992C154.192 29.2067 153.991 29.4073 153.73 29.594C153.478 29.7713 153.17 29.916 152.806 30.028C152.451 30.1493 152.05 30.21 151.602 30.21ZM149.824 25.688H153.142C153.077 25.1653 152.899 24.7593 152.61 24.47C152.33 24.1713 151.957 24.022 151.49 24.022C151.051 24.022 150.683 24.162 150.384 24.442C150.085 24.7127 149.899 25.128 149.824 25.688Z" fill="#2E2C28"/>
<path d="M26.2 61C24.952 61 23.856 60.808 22.912 60.424C21.984 60.024 21.256 59.52 20.728 58.912C20.216 58.288 19.96 57.648 19.96 56.992C19.96 56.592 20.08 56.264 20.32 56.008C20.576 55.736 20.912 55.6 21.328 55.6C21.728 55.6 22.016 55.712 22.192 55.936C22.384 56.144 22.56 56.4 22.72 56.704C22.944 57.152 23.32 57.552 23.848 57.904C24.392 58.256 25.144 58.432 26.104 58.432C26.648 58.432 27.152 58.368 27.616 58.24C28.08 58.096 28.448 57.872 28.72 57.568C29.008 57.264 29.152 56.856 29.152 56.344C29.152 55.896 29.024 55.536 28.768 55.264C28.528 54.976 28.16 54.72 27.664 54.496C27.168 54.256 26.544 54 25.792 53.728C25.216 53.52 24.632 53.304 24.04 53.08C23.448 52.84 22.912 52.544 22.432 52.192C21.952 51.84 21.56 51.392 21.256 50.848C20.968 50.304 20.824 49.616 20.824 48.784C20.824 47.808 21.056 46.992 21.52 46.336C21.984 45.68 22.608 45.184 23.392 44.848C24.192 44.512 25.088 44.344 26.08 44.344C26.816 44.344 27.496 44.44 28.12 44.632C28.76 44.808 29.312 45.056 29.776 45.376C30.24 45.68 30.608 46.04 30.88 46.456C31.152 46.856 31.304 47.28 31.336 47.728C31.352 48.128 31.24 48.464 31 48.736C30.76 48.992 30.432 49.12 30.016 49.12C29.664 49.12 29.408 49.056 29.248 48.928C29.104 48.784 28.944 48.56 28.768 48.256C28.56 47.84 28.24 47.512 27.808 47.272C27.392 47.032 26.84 46.912 26.152 46.912C25.672 46.912 25.24 46.984 24.856 47.128C24.488 47.256 24.2 47.456 23.992 47.728C23.784 47.984 23.68 48.296 23.68 48.664C23.68 49.16 23.84 49.56 24.16 49.864C24.48 50.168 24.904 50.432 25.432 50.656C25.96 50.864 26.52 51.08 27.112 51.304C27.864 51.576 28.536 51.856 29.128 52.144C29.736 52.432 30.248 52.76 30.664 53.128C31.096 53.48 31.424 53.912 31.648 54.424C31.888 54.92 32.008 55.512 32.008 56.2C32.008 57.224 31.768 58.096 31.288 58.816C30.808 59.52 30.128 60.064 29.248 60.448C28.384 60.816 27.368 61 26.2 61ZM26.272 63.376C26 63.376 25.76 63.272 25.552 63.064C25.36 62.872 25.264 62.64 25.264 62.368V43.072C25.264 42.784 25.36 42.544 25.552 42.352C25.76 42.16 26 42.064 26.272 42.064C26.56 42.064 26.8 42.16 26.992 42.352C27.184 42.544 27.28 42.784 27.28 43.072V62.368C27.28 62.64 27.184 62.872 26.992 63.064C26.8 63.272 26.56 63.376 26.272 63.376ZM39.6648 61.384C38.4968 61.384 37.4728 61.168 36.5928 60.736C35.7288 60.304 35.0488 59.768 34.5527 59.128C34.0567 58.472 33.7768 57.816 33.7128 57.16C33.6968 56.76 33.8088 56.44 34.0488 56.2C34.2888 55.96 34.6008 55.84 34.9848 55.84C35.2888 55.84 35.5288 55.928 35.7048 56.104C35.8968 56.264 36.0648 56.464 36.2088 56.704C36.5288 57.344 36.9688 57.856 37.5288 58.24C38.0888 58.624 38.7608 58.816 39.5448 58.816C40.2488 58.816 40.8648 58.664 41.3928 58.36C41.9368 58.04 42.3528 57.608 42.6408 57.064C42.9448 56.504 43.0968 55.888 43.0968 55.216C43.0968 54.528 42.9448 53.92 42.6408 53.392C42.3528 52.848 41.9368 52.424 41.3928 52.12C40.8648 51.8 40.2328 51.64 39.4968 51.64C39.0328 51.64 38.6408 51.704 38.3208 51.832C38.0168 51.96 37.7448 52.104 37.5048 52.264C37.2808 52.408 37.0568 52.544 36.8328 52.672C36.6088 52.784 36.3528 52.84 36.0648 52.84C35.6648 52.84 35.3608 52.728 35.1528 52.504C34.9448 52.264 34.8648 51.928 34.9128 51.496L35.5848 45.64C35.6328 45.176 35.8248 44.824 36.1608 44.584C36.4968 44.328 36.8568 44.2 37.2408 44.2H43.2168C43.6008 44.2 43.9208 44.336 44.1768 44.608C44.4488 44.864 44.5848 45.176 44.5848 45.544C44.5848 45.896 44.4488 46.216 44.1768 46.504C43.9048 46.776 43.5368 46.904 43.0728 46.888L36.7848 46.768L38.2968 45.832L37.6008 51.4L35.8968 51.04C36.5368 50.496 37.1848 50.088 37.8408 49.816C38.5128 49.544 39.2488 49.408 40.0488 49.408C41.1848 49.408 42.1848 49.648 43.0488 50.128C43.9288 50.608 44.6168 51.288 45.1128 52.168C45.6088 53.032 45.8568 54.048 45.8568 55.216C45.8568 56.384 45.6007 57.44 45.0887 58.384C44.5768 59.312 43.8568 60.048 42.9288 60.592C42.0168 61.12 40.9288 61.384 39.6648 61.384ZM54.7855 61.36C53.4735 61.36 52.2975 60.992 51.2575 60.256C50.2335 59.52 49.4255 58.496 48.8335 57.184C48.2575 55.872 47.9695 54.352 47.9695 52.624C47.9695 50.88 48.2655 49.352 48.8575 48.04C49.4495 46.728 50.2655 45.704 51.3055 44.968C52.3455 44.216 53.5135 43.84 54.8095 43.84C56.1055 43.84 57.2655 44.216 58.2895 44.968C59.3295 45.704 60.1455 46.728 60.7375 48.04C61.3295 49.352 61.6255 50.88 61.6255 52.624C61.6255 54.352 61.3295 55.872 60.7375 57.184C60.1615 58.496 59.3535 59.52 58.3135 60.256C57.2895 60.992 56.1135 61.36 54.7855 61.36ZM54.7855 58.768C55.6335 58.768 56.3535 58.52 56.9455 58.024C57.5535 57.528 58.0255 56.816 58.3615 55.888C58.6975 54.96 58.8655 53.872 58.8655 52.624C58.8655 51.36 58.6975 50.264 58.3615 49.336C58.0255 48.408 57.5535 47.688 56.9455 47.176C56.3535 46.664 55.6335 46.408 54.7855 46.408C53.9695 46.408 53.2495 46.664 52.6255 47.176C52.0175 47.688 51.5455 48.408 51.2095 49.336C50.8895 50.264 50.7295 51.36 50.7295 52.624C50.7295 53.872 50.8895 54.96 51.2095 55.888C51.5455 56.816 52.0175 57.528 52.6255 58.024C53.2495 58.52 53.9695 58.768 54.7855 58.768ZM70.5121 61.36C69.2001 61.36 68.0241 60.992 66.9841 60.256C65.9601 59.52 65.1521 58.496 64.5601 57.184C63.9841 55.872 63.6961 54.352 63.6961 52.624C63.6961 50.88 63.9921 49.352 64.5841 48.04C65.1761 46.728 65.9921 45.704 67.0321 44.968C68.0721 44.216 69.2401 43.84 70.5361 43.84C71.8321 43.84 72.9921 44.216 74.0161 44.968C75.0561 45.704 75.8721 46.728 76.4641 48.04C77.0561 49.352 77.3521 50.88 77.3521 52.624C77.3521 54.352 77.0561 55.872 76.4641 57.184C75.8881 58.496 75.0801 59.52 74.0401 60.256C73.0161 60.992 71.8401 61.36 70.5121 61.36ZM70.5121 58.768C71.3601 58.768 72.0801 58.52 72.6721 58.024C73.2801 57.528 73.7521 56.816 74.0881 55.888C74.4241 54.96 74.5921 53.872 74.5921 52.624C74.5921 51.36 74.4241 50.264 74.0881 49.336C73.7521 48.408 73.2801 47.688 72.6721 47.176C72.0801 46.664 71.3601 46.408 70.5121 46.408C69.6961 46.408 68.9761 46.664 68.3521 47.176C67.7441 47.688 67.2721 48.408 66.9361 49.336C66.6161 50.264 66.4561 51.36 66.4561 52.624C66.4561 53.872 66.6161 54.96 66.9361 55.888C67.2721 56.816 67.7441 57.528 68.3521 58.024C68.9761 58.52 69.6961 58.768 70.5121 58.768Z" fill="#F0742F"/>
<rect x="19" y="70" width="45" height="20" rx="5" fill="#F0742F"/>
<g clip-path="url(#clip0_6007_18134)">
<path d="M31.4932 82.7211L26.0274 76.5746L26.0257 76.5727C25.8392 76.3769 25.6066 76.3032 25.3706 76.3651C25.129 76.4284 24.9254 76.6337 24.8638 76.8761C24.8489 76.9346 24.8424 76.9928 24.8439 77.0502C24.8486 77.2246 24.9282 77.3905 25.0779 77.5309L31.2909 82.9753L31.4932 82.7211Z" fill="white"/>
<path d="M31.3251 83.1184C31.4918 83.1389 31.6257 82.9932 31.5996 82.8273C31.3864 81.484 31.455 80.0131 31.8724 78.7598C31.9039 78.4443 31.6485 78.1664 31.3183 78.1847C31.0562 78.1993 30.8517 78.4215 30.8272 78.6828C30.7322 79.6911 30.7572 81.398 30.7783 82.2724C29.8991 82.2493 28.1849 82.2212 27.1772 82.3163C26.9159 82.341 26.6937 82.5455 26.6791 82.8076C26.6608 83.1378 26.9387 83.3932 27.2542 83.3617C28.9544 82.9052 30.6304 83.0329 31.3251 83.1184Z" fill="white"/>
</g>
<path d="M37.948 81.312C37.82 81.312 37.708 81.268 37.612 81.18C37.524 81.092 37.48 80.984 37.48 80.856C37.48 80.728 37.524 80.62 37.612 80.532C37.708 80.436 37.82 80.388 37.948 80.388H41.128C41.248 80.388 41.352 80.436 41.44 80.532C41.528 80.62 41.572 80.728 41.572 80.856C41.572 80.984 41.528 81.092 41.44 81.18C41.352 81.268 41.248 81.312 41.128 81.312H37.948ZM45.3628 84.192C44.7788 84.192 44.2828 84.08 43.8748 83.856C43.4668 83.624 43.1428 83.344 42.9028 83.016C42.6628 82.68 42.5028 82.356 42.4228 82.044C42.3908 81.892 42.4188 81.768 42.5068 81.672C42.6028 81.568 42.7268 81.516 42.8788 81.516C43.0068 81.516 43.1028 81.556 43.1668 81.636C43.2308 81.708 43.2868 81.792 43.3348 81.888C43.5108 82.28 43.7588 82.612 44.0788 82.884C44.4068 83.148 44.8268 83.28 45.3388 83.28C45.7468 83.28 46.1068 83.188 46.4188 83.004C46.7308 82.82 46.9708 82.568 47.1388 82.248C47.3148 81.928 47.4028 81.568 47.4028 81.168C47.4028 80.768 47.3148 80.412 47.1388 80.1C46.9708 79.788 46.7308 79.544 46.4188 79.368C46.1148 79.184 45.7548 79.092 45.3388 79.092C45.0428 79.092 44.7988 79.132 44.6068 79.212C44.4148 79.292 44.2548 79.384 44.1268 79.488C44.0068 79.584 43.8948 79.672 43.7908 79.752C43.6948 79.832 43.5828 79.872 43.4548 79.872C43.3028 79.872 43.1828 79.824 43.0948 79.728C43.0148 79.624 42.9828 79.508 42.9988 79.38L43.4068 76.236C43.4308 76.028 43.5068 75.872 43.6348 75.768C43.7628 75.656 43.9188 75.6 44.1028 75.6H47.1028C47.2388 75.6 47.3508 75.648 47.4388 75.744C47.5348 75.832 47.5828 75.944 47.5828 76.08C47.5828 76.208 47.5348 76.32 47.4388 76.416C47.3428 76.504 47.2268 76.548 47.0908 76.548L43.8748 76.536L44.3548 76.14L43.9708 79.032L43.6468 78.792C43.9108 78.6 44.1908 78.456 44.4868 78.36C44.7828 78.264 45.0948 78.216 45.4228 78.216C45.9908 78.216 46.4948 78.344 46.9348 78.6C47.3828 78.848 47.7308 79.192 47.9788 79.632C48.2348 80.072 48.3628 80.58 48.3628 81.156C48.3628 81.724 48.2388 82.24 47.9908 82.704C47.7428 83.16 47.3948 83.524 46.9468 83.796C46.4988 84.06 45.9708 84.192 45.3628 84.192ZM50.9703 84.18C50.8503 84.18 50.7463 84.14 50.6583 84.06C50.5783 83.988 50.5303 83.896 50.5143 83.784C50.4983 83.672 50.5263 83.564 50.5983 83.46L56.0943 75.672C56.1343 75.608 56.1863 75.556 56.2503 75.516C56.3223 75.476 56.3983 75.456 56.4783 75.456C56.6063 75.456 56.7103 75.496 56.7903 75.576C56.8703 75.648 56.9183 75.74 56.9343 75.852C56.9503 75.964 56.9223 76.076 56.8503 76.188L51.3543 83.976C51.3143 84.032 51.2583 84.08 51.1863 84.12C51.1223 84.16 51.0503 84.18 50.9703 84.18ZM51.2463 79.536C50.8783 79.536 50.5383 79.444 50.2263 79.26C49.9143 79.068 49.6663 78.816 49.4823 78.504C49.2983 78.192 49.2063 77.852 49.2063 77.484C49.2063 77.108 49.2983 76.764 49.4823 76.452C49.6663 76.14 49.9143 75.892 50.2263 75.708C50.5383 75.524 50.8783 75.432 51.2463 75.432C51.6223 75.432 51.9663 75.524 52.2783 75.708C52.5903 75.892 52.8383 76.14 53.0223 76.452C53.2063 76.764 53.2983 77.108 53.2983 77.484C53.2983 77.852 53.2063 78.192 53.0223 78.504C52.8383 78.816 52.5903 79.068 52.2783 79.26C51.9663 79.444 51.6223 79.536 51.2463 79.536ZM51.2463 78.66C51.4703 78.66 51.6663 78.608 51.8343 78.504C52.0023 78.392 52.1343 78.248 52.2303 78.072C52.3263 77.896 52.3743 77.7 52.3743 77.484C52.3743 77.156 52.2703 76.88 52.0623 76.656C51.8543 76.432 51.5823 76.32 51.2463 76.32C51.0383 76.32 50.8463 76.372 50.6702 76.476C50.5023 76.58 50.3703 76.72 50.2743 76.896C50.1783 77.064 50.1303 77.26 50.1303 77.484C50.1303 77.7 50.1783 77.896 50.2743 78.072C50.3703 78.248 50.5023 78.392 50.6702 78.504C50.8463 78.608 51.0383 78.66 51.2463 78.66ZM56.2623 84.168C55.8943 84.168 55.5543 84.076 55.2422 83.892C54.9303 83.7 54.6823 83.448 54.4983 83.136C54.3143 82.816 54.2223 82.472 54.2223 82.104C54.2223 81.728 54.3143 81.384 54.4983 81.072C54.6823 80.76 54.9303 80.512 55.2422 80.328C55.5543 80.144 55.8943 80.052 56.2623 80.052C56.6383 80.052 56.9823 80.144 57.2943 80.328C57.6063 80.512 57.8543 80.76 58.0383 81.072C58.2223 81.384 58.3143 81.728 58.3143 82.104C58.3143 82.472 58.2223 82.816 58.0383 83.136C57.8543 83.448 57.6063 83.7 57.2943 83.892C56.9823 84.076 56.6383 84.168 56.2623 84.168ZM56.2623 83.268C56.4863 83.268 56.6823 83.216 56.8503 83.112C57.0183 83.008 57.1503 82.868 57.2463 82.692C57.3423 82.516 57.3903 82.32 57.3903 82.104C57.3903 81.776 57.2863 81.5 57.0783 81.276C56.8703 81.052 56.5983 80.94 56.2623 80.94C56.0543 80.94 55.8623 80.992 55.6862 81.096C55.5183 81.2 55.3863 81.34 55.2903 81.516C55.1943 81.684 55.1463 81.88 55.1463 82.104C55.1463 82.32 55.1943 82.516 55.2903 82.692C55.3863 82.868 55.5183 83.008 55.6862 83.112C55.8623 83.216 56.0543 83.268 56.2623 83.268Z" fill="white"/>
<path d="M72.444 85.252C71.8093 85.252 71.282 85.14 70.862 84.916C70.442 84.6827 70.1247 84.412 69.91 84.104C69.6953 83.7867 69.5787 83.502 69.56 83.25C69.5507 83.054 69.5927 82.9047 69.686 82.802C69.7887 82.69 69.9147 82.634 70.064 82.634C70.204 82.634 70.316 82.676 70.4 82.76C70.484 82.8347 70.5447 82.9233 70.582 83.026C70.694 83.3433 70.8993 83.6233 71.198 83.866C71.4967 84.0993 71.9167 84.216 72.458 84.216C72.9527 84.216 73.3307 84.1133 73.592 83.908C73.8533 83.6933 73.984 83.418 73.984 83.082C73.984 82.8207 73.9047 82.6153 73.746 82.466C73.5967 82.3073 73.3867 82.1813 73.116 82.088C72.8453 81.9947 72.5327 81.9013 72.178 81.808C71.9167 81.7333 71.646 81.654 71.366 81.57C71.086 81.4767 70.8247 81.3553 70.582 81.206C70.3393 81.0567 70.1433 80.8653 69.994 80.632C69.8447 80.3987 69.77 80.1047 69.77 79.75C69.77 79.358 69.8727 78.9987 70.078 78.672C70.2833 78.336 70.582 78.07 70.974 77.874C71.366 77.6687 71.8327 77.566 72.374 77.566C72.9247 77.566 73.3867 77.6593 73.76 77.846C74.1333 78.0327 74.418 78.2613 74.614 78.532C74.8193 78.7933 74.9267 79.0453 74.936 79.288C74.9453 79.4653 74.908 79.6053 74.824 79.708C74.74 79.8107 74.6187 79.862 74.46 79.862C74.3573 79.862 74.2547 79.834 74.152 79.778C74.0493 79.722 73.9607 79.6333 73.886 79.512C73.8207 79.3813 73.732 79.246 73.62 79.106C73.5173 78.9567 73.368 78.8353 73.172 78.742C72.976 78.6393 72.7053 78.588 72.36 78.588C71.9213 78.588 71.562 78.686 71.282 78.882C71.002 79.0687 70.862 79.3253 70.862 79.652C70.862 79.904 70.9413 80.1 71.1 80.24C71.268 80.38 71.4827 80.492 71.744 80.576C72.0147 80.66 72.3087 80.7487 72.626 80.842C72.9247 80.926 73.2187 81.0193 73.508 81.122C73.7973 81.2153 74.0587 81.3413 74.292 81.5C74.5347 81.6493 74.726 81.8407 74.866 82.074C75.0153 82.3073 75.09 82.5967 75.09 82.942C75.09 83.2873 75.0013 83.642 74.824 84.006C74.656 84.3607 74.376 84.6593 73.984 84.902C73.6013 85.1353 73.088 85.252 72.444 85.252ZM77.1985 85.14C77.0305 85.14 76.8905 85.0887 76.7785 84.986C76.6759 84.874 76.6245 84.7387 76.6245 84.58V78.21C76.6245 78.0513 76.6759 77.9207 76.7785 77.818C76.8905 77.706 77.0305 77.65 77.1985 77.65C77.3572 77.65 77.4879 77.706 77.5905 77.818C77.7025 77.9207 77.7585 78.0513 77.7585 78.21V84.58C77.7585 84.7387 77.7025 84.874 77.5905 84.986C77.4879 85.0887 77.3572 85.14 77.1985 85.14ZM77.1845 76.796C76.9792 76.796 76.8112 76.7307 76.6805 76.6C76.5499 76.46 76.4845 76.2593 76.4845 75.998C76.4845 75.7553 76.5499 75.564 76.6805 75.424C76.8112 75.284 76.9792 75.214 77.1845 75.214C77.3992 75.214 77.5719 75.284 77.7025 75.424C77.8332 75.564 77.8985 75.7553 77.8985 75.998C77.8985 76.2593 77.8332 76.46 77.7025 76.6C77.5719 76.7307 77.3992 76.796 77.1845 76.796ZM80.2744 85.14C80.1157 85.14 79.9804 85.084 79.8684 84.972C79.7657 84.86 79.7144 84.72 79.7144 84.552V78.224C79.7144 78.056 79.7657 77.9207 79.8684 77.818C79.9804 77.706 80.1157 77.65 80.2744 77.65C80.4424 77.65 80.5777 77.706 80.6804 77.818C80.7924 77.9207 80.8484 78.056 80.8484 78.224V79.162L80.6104 78.91C80.909 78.4527 81.2637 78.1167 81.6744 77.902C82.0944 77.6873 82.5424 77.58 83.0184 77.58C83.5224 77.58 83.975 77.6873 84.3764 77.902C84.7777 78.1073 85.0904 78.4107 85.3144 78.812C85.5477 79.204 85.6644 79.6893 85.6644 80.268V84.552C85.6644 84.72 85.613 84.86 85.5104 84.972C85.4077 85.084 85.2724 85.14 85.1044 85.14C84.927 85.14 84.787 85.084 84.6844 84.972C84.5817 84.86 84.5304 84.72 84.5304 84.552V80.31C84.5304 79.778 84.3717 79.3627 84.0544 79.064C83.7464 78.7653 83.3357 78.616 82.8224 78.616C82.477 78.616 82.155 78.686 81.8564 78.826C81.5577 78.966 81.315 79.1667 81.1284 79.428C80.9417 79.68 80.8484 79.9833 80.8484 80.338V84.552C80.8484 84.72 80.7924 84.86 80.6804 84.972C80.5777 85.084 80.4424 85.14 80.2744 85.14ZM90.3484 85.21C89.695 85.21 89.1257 85.0467 88.6404 84.72C88.155 84.384 87.7817 83.9267 87.5204 83.348C87.259 82.7693 87.1284 82.116 87.1284 81.388C87.1284 80.6507 87.259 79.9973 87.5204 79.428C87.791 78.8587 88.169 78.4107 88.6544 78.084C89.1397 77.748 89.709 77.58 90.3624 77.58C90.9037 77.58 91.361 77.6827 91.7344 77.888C92.117 78.084 92.411 78.3173 92.6164 78.588C92.8217 78.8587 92.9337 79.1107 92.9524 79.344C92.9804 79.54 92.9384 79.6893 92.8264 79.792C92.7237 79.8947 92.5977 79.946 92.4484 79.946C92.299 79.946 92.187 79.9087 92.1124 79.834C92.0377 79.7593 91.977 79.6753 91.9304 79.582C91.809 79.33 91.6224 79.106 91.3704 78.91C91.1184 78.7047 90.7777 78.602 90.3484 78.602C89.9004 78.602 89.5224 78.7233 89.2144 78.966C88.9064 79.1993 88.6684 79.526 88.5004 79.946C88.3417 80.366 88.2624 80.842 88.2624 81.374C88.2624 82.2233 88.449 82.9 88.8224 83.404C89.205 83.908 89.7184 84.16 90.3624 84.16C90.857 84.16 91.2397 84.0293 91.5104 83.768C91.7904 83.5067 91.9864 83.2127 92.0984 82.886C92.145 82.7553 92.2104 82.648 92.2944 82.564C92.3784 82.48 92.4904 82.438 92.6304 82.438C92.789 82.438 92.915 82.494 93.0084 82.606C93.111 82.718 93.153 82.872 93.1344 83.068C93.125 83.2453 93.055 83.4553 92.9244 83.698C92.803 83.9407 92.6257 84.1787 92.3924 84.412C92.1684 84.6453 91.8837 84.8367 91.5384 84.986C91.2024 85.1353 90.8057 85.21 90.3484 85.21ZM97.543 85.21C96.927 85.21 96.3624 85.07 95.849 84.79C95.345 84.51 94.939 84.09 94.631 83.53C94.3324 82.97 94.183 82.2793 94.183 81.458C94.183 80.674 94.323 79.9927 94.603 79.414C94.883 78.8353 95.261 78.3873 95.737 78.07C96.2224 77.7433 96.773 77.58 97.389 77.58C97.865 77.58 98.2944 77.6733 98.677 77.86C99.0597 78.0373 99.3817 78.2847 99.643 78.602C99.9137 78.91 100.119 79.26 100.259 79.652C100.408 80.0347 100.483 80.436 100.483 80.856C100.483 81.1267 100.432 81.346 100.329 81.514C100.226 81.6727 100.016 81.752 99.699 81.752H95.331C95.3684 82.3213 95.4897 82.7833 95.695 83.138C95.9004 83.4927 96.157 83.754 96.465 83.922C96.7824 84.0807 97.1277 84.16 97.501 84.16C98.005 84.16 98.4064 84.0433 98.705 83.81C99.0037 83.5767 99.209 83.3013 99.321 82.984C99.3677 82.872 99.4284 82.7787 99.503 82.704C99.587 82.62 99.699 82.578 99.839 82.578C99.9977 82.578 100.124 82.6387 100.217 82.76C100.31 82.872 100.352 83.0213 100.343 83.208C100.334 83.3947 100.268 83.6047 100.147 83.838C100.026 84.062 99.8484 84.2813 99.615 84.496C99.391 84.7013 99.1064 84.8693 98.761 85C98.4157 85.14 98.0097 85.21 97.543 85.21ZM95.345 80.786H99.405C99.3397 80.1513 99.1344 79.6333 98.789 79.232C98.4437 78.8213 97.9724 78.616 97.375 78.616C96.843 78.616 96.3904 78.798 96.017 79.162C95.653 79.526 95.429 80.0673 95.345 80.786ZM106.442 85.14C106.284 85.14 106.148 85.084 106.036 84.972C105.934 84.8507 105.882 84.7107 105.882 84.552V75.354C105.882 75.1953 105.934 75.06 106.036 74.948C106.148 74.836 106.284 74.78 106.442 74.78C106.601 74.78 106.736 74.836 106.848 74.948C106.96 75.06 107.016 75.1953 107.016 75.354V84.552C107.016 84.7107 106.96 84.8507 106.848 84.972C106.736 85.084 106.601 85.14 106.442 85.14ZM111.072 85.21C110.55 85.21 110.097 85.1167 109.714 84.93C109.341 84.734 109.052 84.4727 108.846 84.146C108.65 83.8193 108.552 83.4553 108.552 83.054C108.552 82.4753 108.767 81.9807 109.196 81.57C109.635 81.15 110.335 80.884 111.296 80.772C111.698 80.7253 112.043 80.674 112.332 80.618C112.622 80.562 112.846 80.4687 113.004 80.338C113.172 80.2073 113.256 80.016 113.256 79.764C113.256 79.568 113.205 79.386 113.102 79.218C113.009 79.0407 112.85 78.896 112.626 78.784C112.412 78.672 112.122 78.616 111.758 78.616C111.273 78.616 110.909 78.714 110.666 78.91C110.424 79.0967 110.256 79.2833 110.162 79.47C110.097 79.5913 110.018 79.6847 109.924 79.75C109.831 79.8153 109.719 79.848 109.588 79.848C109.43 79.848 109.308 79.8013 109.224 79.708C109.14 79.6053 109.098 79.4793 109.098 79.33C109.098 79.1527 109.159 78.966 109.28 78.77C109.402 78.5647 109.579 78.3733 109.812 78.196C110.055 78.0093 110.344 77.86 110.68 77.748C111.026 77.636 111.418 77.58 111.856 77.58C112.491 77.58 112.99 77.7013 113.354 77.944C113.728 78.1773 113.994 78.4993 114.152 78.91C114.311 79.3113 114.39 79.7593 114.39 80.254V83.74C114.39 83.8333 114.4 83.9033 114.418 83.95C114.446 83.9967 114.493 84.0247 114.558 84.034C114.689 84.0433 114.801 84.0993 114.894 84.202C114.988 84.2953 115.034 84.4167 115.034 84.566C115.034 84.7247 114.969 84.86 114.838 84.972C114.717 85.084 114.544 85.14 114.32 85.14C114.04 85.14 113.821 85.0607 113.662 84.902C113.513 84.734 113.438 84.5287 113.438 84.286V84.048H113.396C113.163 84.3933 112.855 84.6733 112.472 84.888C112.099 85.1027 111.632 85.21 111.072 85.21ZM111.086 84.174C111.506 84.174 111.88 84.0853 112.206 83.908C112.542 83.7307 112.804 83.4927 112.99 83.194C113.186 82.8953 113.284 82.564 113.284 82.2V81.248C113.284 81.2293 113.275 81.22 113.256 81.22C113.247 81.2107 113.228 81.2247 113.2 81.262C113.06 81.374 112.869 81.4627 112.626 81.528C112.393 81.584 112.155 81.6307 111.912 81.668C111.67 81.7053 111.469 81.738 111.31 81.766C110.825 81.8407 110.428 81.9713 110.12 82.158C109.822 82.3447 109.672 82.6247 109.672 82.998C109.672 83.278 109.78 83.544 109.994 83.796C110.209 84.048 110.573 84.174 111.086 84.174ZM118.86 85.252C118.225 85.252 117.698 85.14 117.278 84.916C116.858 84.6827 116.541 84.412 116.326 84.104C116.111 83.7867 115.995 83.502 115.976 83.25C115.967 83.054 116.009 82.9047 116.102 82.802C116.205 82.69 116.331 82.634 116.48 82.634C116.62 82.634 116.732 82.676 116.816 82.76C116.9 82.8347 116.961 82.9233 116.998 83.026C117.11 83.3433 117.315 83.6233 117.614 83.866C117.913 84.0993 118.333 84.216 118.874 84.216C119.369 84.216 119.747 84.1133 120.008 83.908C120.269 83.6933 120.4 83.418 120.4 83.082C120.4 82.8207 120.321 82.6153 120.162 82.466C120.013 82.3073 119.803 82.1813 119.532 82.088C119.261 81.9947 118.949 81.9013 118.594 81.808C118.333 81.7333 118.062 81.654 117.782 81.57C117.502 81.4767 117.241 81.3553 116.998 81.206C116.755 81.0567 116.559 80.8653 116.41 80.632C116.261 80.3987 116.186 80.1047 116.186 79.75C116.186 79.358 116.289 78.9987 116.494 78.672C116.699 78.336 116.998 78.07 117.39 77.874C117.782 77.6687 118.249 77.566 118.79 77.566C119.341 77.566 119.803 77.6593 120.176 77.846C120.549 78.0327 120.834 78.2613 121.03 78.532C121.235 78.7933 121.343 79.0453 121.352 79.288C121.361 79.4653 121.324 79.6053 121.24 79.708C121.156 79.8107 121.035 79.862 120.876 79.862C120.773 79.862 120.671 79.834 120.568 79.778C120.465 79.722 120.377 79.6333 120.302 79.512C120.237 79.3813 120.148 79.246 120.036 79.106C119.933 78.9567 119.784 78.8353 119.588 78.742C119.392 78.6393 119.121 78.588 118.776 78.588C118.337 78.588 117.978 78.686 117.698 78.882C117.418 79.0687 117.278 79.3253 117.278 79.652C117.278 79.904 117.357 80.1 117.516 80.24C117.684 80.38 117.899 80.492 118.16 80.576C118.431 80.66 118.725 80.7487 119.042 80.842C119.341 80.926 119.635 81.0193 119.924 81.122C120.213 81.2153 120.475 81.3413 120.708 81.5C120.951 81.6493 121.142 81.8407 121.282 82.074C121.431 82.3073 121.506 82.5967 121.506 82.942C121.506 83.2873 121.417 83.642 121.24 84.006C121.072 84.3607 120.792 84.6593 120.4 84.902C120.017 85.1353 119.504 85.252 118.86 85.252ZM125.001 85.14C124.683 85.14 124.408 85.07 124.175 84.93C123.951 84.7807 123.778 84.5753 123.657 84.314C123.535 84.0433 123.475 83.7353 123.475 83.39V76.81C123.475 76.6513 123.526 76.5207 123.629 76.418C123.741 76.306 123.876 76.25 124.035 76.25C124.193 76.25 124.324 76.306 124.427 76.418C124.539 76.5207 124.595 76.6513 124.595 76.81V83.376C124.595 83.5533 124.623 83.7073 124.679 83.838C124.735 83.9593 124.851 84.02 125.029 84.02C125.15 84.02 125.239 83.992 125.295 83.936C125.36 83.88 125.425 83.8287 125.491 83.782C125.556 83.726 125.649 83.698 125.771 83.698C125.939 83.698 126.074 83.754 126.177 83.866C126.279 83.9687 126.331 84.0993 126.331 84.258C126.331 84.426 126.265 84.58 126.135 84.72C126.013 84.8507 125.85 84.9533 125.645 85.028C125.449 85.1027 125.234 85.14 125.001 85.14ZM123.027 78.812C122.877 78.812 122.747 78.7653 122.635 78.672C122.532 78.5693 122.481 78.4433 122.481 78.294C122.481 78.154 122.532 78.0373 122.635 77.944C122.747 77.8413 122.877 77.79 123.027 77.79H125.981C126.13 77.79 126.256 77.8413 126.359 77.944C126.471 78.0373 126.527 78.154 126.527 78.294C126.527 78.4433 126.471 78.5693 126.359 78.672C126.256 78.7653 126.13 78.812 125.981 78.812H123.027ZM132.487 85.14C132.329 85.14 132.193 85.084 132.081 84.972C131.979 84.86 131.927 84.72 131.927 84.552V78.224C131.927 78.056 131.979 77.9207 132.081 77.818C132.193 77.706 132.329 77.65 132.487 77.65C132.655 77.65 132.791 77.706 132.893 77.818C133.005 77.9207 133.061 78.056 133.061 78.224V79.078L132.823 78.882C133.019 78.574 133.239 78.3267 133.481 78.14C133.733 77.944 134.004 77.804 134.293 77.72C134.583 77.6267 134.877 77.58 135.175 77.58C135.717 77.58 136.193 77.7107 136.603 77.972C137.023 78.2333 137.331 78.6113 137.527 79.106L137.121 79.162C137.364 78.7513 137.63 78.434 137.919 78.21C138.209 77.9767 138.503 77.8133 138.801 77.72C139.109 77.6267 139.413 77.58 139.711 77.58C140.206 77.58 140.649 77.6873 141.041 77.902C141.433 78.1073 141.741 78.4107 141.965 78.812C142.189 79.204 142.301 79.68 142.301 80.24V84.552C142.301 84.72 142.25 84.86 142.147 84.972C142.045 85.084 141.914 85.14 141.755 85.14C141.587 85.14 141.447 85.084 141.335 84.972C141.233 84.86 141.181 84.72 141.181 84.552V80.282C141.181 79.7593 141.027 79.3533 140.719 79.064C140.421 78.7747 140.024 78.63 139.529 78.63C139.212 78.63 138.918 78.6953 138.647 78.826C138.377 78.9473 138.162 79.1293 138.003 79.372C137.845 79.6053 137.765 79.8947 137.765 80.24V84.552C137.765 84.72 137.709 84.86 137.597 84.972C137.495 85.084 137.364 85.14 137.205 85.14C137.037 85.14 136.897 85.084 136.785 84.972C136.683 84.86 136.631 84.72 136.631 84.552V80.282C136.631 79.7593 136.482 79.3533 136.183 79.064C135.885 78.7653 135.488 78.616 134.993 78.616C134.657 78.616 134.34 78.686 134.041 78.826C133.752 78.9567 133.514 79.148 133.327 79.4C133.15 79.6427 133.061 79.932 133.061 80.268V84.552C133.061 84.72 133.005 84.86 132.893 84.972C132.791 85.084 132.655 85.14 132.487 85.14ZM147.047 85.21C146.394 85.21 145.82 85.0513 145.325 84.734C144.84 84.4073 144.457 83.9547 144.177 83.376C143.906 82.7973 143.771 82.13 143.771 81.374C143.771 80.618 143.906 79.9553 144.177 79.386C144.457 78.8167 144.84 78.3733 145.325 78.056C145.82 77.7387 146.394 77.58 147.047 77.58C147.71 77.58 148.288 77.7387 148.783 78.056C149.287 78.3733 149.679 78.8167 149.959 79.386C150.239 79.9553 150.379 80.618 150.379 81.374C150.379 82.13 150.239 82.7973 149.959 83.376C149.679 83.9547 149.287 84.4073 148.783 84.734C148.288 85.0513 147.71 85.21 147.047 85.21ZM147.047 84.16C147.738 84.16 148.274 83.9127 148.657 83.418C149.04 82.9233 149.231 82.242 149.231 81.374C149.231 80.5247 149.04 79.8527 148.657 79.358C148.274 78.8633 147.738 78.616 147.047 78.616C146.366 78.616 145.838 78.8633 145.465 79.358C145.092 79.8527 144.905 80.5247 144.905 81.374C144.905 82.242 145.092 82.9233 145.465 83.418C145.838 83.9127 146.366 84.16 147.047 84.16ZM152.476 85.14C152.317 85.14 152.182 85.084 152.07 84.972C151.967 84.86 151.916 84.72 151.916 84.552V78.224C151.916 78.056 151.967 77.9207 152.07 77.818C152.182 77.706 152.317 77.65 152.476 77.65C152.644 77.65 152.779 77.706 152.882 77.818C152.994 77.9207 153.05 78.056 153.05 78.224V79.162L152.812 78.91C153.11 78.4527 153.465 78.1167 153.876 77.902C154.296 77.6873 154.744 77.58 155.22 77.58C155.724 77.58 156.176 77.6873 156.578 77.902C156.979 78.1073 157.292 78.4107 157.516 78.812C157.749 79.204 157.866 79.6893 157.866 80.268V84.552C157.866 84.72 157.814 84.86 157.712 84.972C157.609 85.084 157.474 85.14 157.306 85.14C157.128 85.14 156.988 85.084 156.886 84.972C156.783 84.86 156.732 84.72 156.732 84.552V80.31C156.732 79.778 156.573 79.3627 156.256 79.064C155.948 78.7653 155.537 78.616 155.024 78.616C154.678 78.616 154.356 78.686 154.058 78.826C153.759 78.966 153.516 79.1667 153.33 79.428C153.143 79.68 153.05 79.9833 153.05 80.338V84.552C153.05 84.72 152.994 84.86 152.882 84.972C152.779 85.084 152.644 85.14 152.476 85.14ZM161.71 85.14C161.392 85.14 161.117 85.07 160.884 84.93C160.66 84.7807 160.487 84.5753 160.366 84.314C160.244 84.0433 160.184 83.7353 160.184 83.39V76.81C160.184 76.6513 160.235 76.5207 160.338 76.418C160.45 76.306 160.585 76.25 160.744 76.25C160.902 76.25 161.033 76.306 161.136 76.418C161.248 76.5207 161.304 76.6513 161.304 76.81V83.376C161.304 83.5533 161.332 83.7073 161.388 83.838C161.444 83.9593 161.56 84.02 161.738 84.02C161.859 84.02 161.948 83.992 162.004 83.936C162.069 83.88 162.134 83.8287 162.2 83.782C162.265 83.726 162.358 83.698 162.48 83.698C162.648 83.698 162.783 83.754 162.886 83.866C162.988 83.9687 163.04 84.0993 163.04 84.258C163.04 84.426 162.974 84.58 162.844 84.72C162.722 84.8507 162.559 84.9533 162.354 85.028C162.158 85.1027 161.943 85.14 161.71 85.14ZM159.736 78.812C159.586 78.812 159.456 78.7653 159.344 78.672C159.241 78.5693 159.19 78.4433 159.19 78.294C159.19 78.154 159.241 78.0373 159.344 77.944C159.456 77.8413 159.586 77.79 159.736 77.79H162.69C162.839 77.79 162.965 77.8413 163.068 77.944C163.18 78.0373 163.236 78.154 163.236 78.294C163.236 78.4433 163.18 78.5693 163.068 78.672C162.965 78.7653 162.839 78.812 162.69 78.812H159.736ZM165.341 85.14C165.182 85.14 165.047 85.084 164.935 84.972C164.832 84.86 164.781 84.72 164.781 84.552V75.354C164.781 75.186 164.832 75.0507 164.935 74.948C165.047 74.836 165.182 74.78 165.341 74.78C165.509 74.78 165.644 74.836 165.747 74.948C165.859 75.0507 165.915 75.186 165.915 75.354V79.162L165.677 78.91C165.975 78.4527 166.325 78.1167 166.727 77.902C167.137 77.6873 167.581 77.58 168.057 77.58C168.551 77.58 168.995 77.6873 169.387 77.902C169.788 78.1073 170.101 78.4107 170.325 78.812C170.558 79.204 170.675 79.6893 170.675 80.268V84.552C170.675 84.72 170.623 84.86 170.521 84.972C170.418 85.084 170.283 85.14 170.115 85.14C169.956 85.14 169.821 85.084 169.709 84.972C169.606 84.86 169.555 84.72 169.555 84.552V80.31C169.555 79.778 169.401 79.3627 169.093 79.064C168.785 78.7653 168.383 78.616 167.889 78.616C167.543 78.616 167.217 78.686 166.909 78.826C166.61 78.966 166.367 79.1667 166.181 79.428C166.003 79.68 165.915 79.9833 165.915 80.338V84.552C165.915 84.72 165.859 84.86 165.747 84.972C165.644 85.084 165.509 85.14 165.341 85.14Z" fill="#2E2C28"/>
</g>
<defs>
<filter id="filter0_d_6007_18134" x="0" y="0" width="191" height="113" filterUnits="userSpaceOnUse" color-interpolation-filters="sRGB">
<feFlood flood-opacity="0" result="BackgroundImageFix"/>
<feColorMatrix in="SourceAlpha" type="matrix" values="0 0 0 0 0 0 0 0 0 0 0 0 0 0 0 0 0 0 127 0" result="hardAlpha"/>
<feOffset dy="4"/>
<feGaussianBlur stdDeviation="2"/>
<feComposite in2="hardAlpha" operator="out"/>
<feColorMatrix type="matrix" values="0 0 0 0 0 0 0 0 0 0 0 0 0 0 0 0 0 0 0.15 0"/>
<feBlend mode="normal" in2="BackgroundImageFix" result="effect1_dropShadow_6007_18134"/>
<feBlend mode="normal" in="SourceGraphic" in2="effect1_dropShadow_6007_18134" result="shape"/>
</filter>
<clipPath id="clip0_6007_18134">
<rect width="7.02056" height="7.03125" fill="white" transform="matrix(0 1 -1 0 31.875 76.3438)"/>
</clipPath>
</defs>
</svg>
