<svg width="220" height="101" viewBox="0 0 220 101" fill="none" xmlns="http://www.w3.org/2000/svg">
<g filter="url(#filter0_d_6007_18076)">
<rect x="4" width="212" height="93" rx="16" fill="#E0F6EB" shape-rendering="crispEdges"/>
<rect x="4.5" y="0.5" width="211" height="92" rx="15.5" stroke="#BED9CB" shape-rendering="crispEdges"/>
<path d="M17.68 25.12C17.472 25.12 17.3 25.052 17.164 24.916C17.028 24.78 16.96 24.608 16.96 24.4L16.996 17.26C16.996 17.012 17.064 16.82 17.2 16.684C17.344 16.548 17.528 16.48 17.752 16.48C17.952 16.48 18.116 16.524 18.244 16.612C18.372 16.7 18.464 16.812 18.52 16.948L21.136 23.152L23.692 16.948C23.748 16.812 23.84 16.7 23.968 16.612C24.096 16.524 24.26 16.48 24.46 16.48C24.684 16.48 24.864 16.548 25 16.684C25.144 16.82 25.216 17.012 25.216 17.26L25.252 24.4C25.252 24.608 25.184 24.78 25.048 24.916C24.912 25.052 24.74 25.12 24.532 25.12C24.324 25.12 24.152 25.052 24.016 24.916C23.88 24.78 23.816 24.608 23.824 24.4L23.896 19.816L21.952 24.448C21.856 24.696 21.736 24.872 21.592 24.976C21.456 25.072 21.304 25.12 21.136 25.12C20.96 25.12 20.804 25.072 20.668 24.976C20.532 24.872 20.412 24.696 20.308 24.448L18.316 19.804L18.4 24.4C18.4 24.608 18.332 24.78 18.196 24.916C18.068 25.052 17.896 25.12 17.68 25.12ZM28.835 25.18C28.435 25.18 28.071 25.104 27.743 24.952C27.423 24.8 27.167 24.588 26.975 24.316C26.783 24.036 26.687 23.704 26.687 23.32C26.687 22.76 26.875 22.312 27.251 21.976C27.627 21.632 28.239 21.404 29.087 21.292C29.375 21.252 29.631 21.212 29.855 21.172C30.087 21.132 30.271 21.068 30.407 20.98C30.543 20.884 30.611 20.748 30.611 20.572C30.611 20.428 30.575 20.3 30.503 20.188C30.431 20.076 30.319 19.988 30.167 19.924C30.023 19.86 29.835 19.828 29.603 19.828C29.291 19.828 29.047 19.888 28.871 20.008C28.703 20.12 28.567 20.248 28.463 20.392C28.383 20.496 28.283 20.58 28.163 20.644C28.051 20.708 27.923 20.74 27.779 20.74C27.587 20.74 27.435 20.688 27.323 20.584C27.211 20.48 27.155 20.34 27.155 20.164C27.155 19.98 27.215 19.8 27.335 19.624C27.455 19.44 27.623 19.276 27.839 19.132C28.055 18.98 28.315 18.86 28.619 18.772C28.923 18.684 29.255 18.64 29.615 18.64C30.159 18.64 30.603 18.74 30.947 18.94C31.299 19.14 31.559 19.416 31.727 19.768C31.903 20.12 31.991 20.52 31.991 20.968V23.548C31.991 23.636 31.999 23.7 32.015 23.74C32.039 23.78 32.087 23.808 32.159 23.824C32.279 23.856 32.391 23.924 32.495 24.028C32.599 24.132 32.651 24.272 32.651 24.448C32.651 24.632 32.579 24.792 32.435 24.928C32.291 25.056 32.091 25.12 31.835 25.12C31.531 25.112 31.295 25.032 31.127 24.88C30.967 24.728 30.871 24.536 30.839 24.304V24.172H30.803C30.587 24.492 30.327 24.74 30.023 24.916C29.719 25.092 29.323 25.18 28.835 25.18ZM29.075 23.98C29.363 23.98 29.623 23.92 29.855 23.8C30.087 23.68 30.271 23.512 30.407 23.296C30.551 23.08 30.623 22.836 30.623 22.564V22C30.623 21.984 30.615 21.976 30.599 21.976C30.591 21.968 30.571 21.976 30.539 22C30.435 22.072 30.303 22.128 30.143 22.168C29.991 22.208 29.831 22.24 29.663 22.264C29.495 22.288 29.335 22.316 29.183 22.348C28.807 22.42 28.527 22.524 28.343 22.66C28.167 22.796 28.079 22.976 28.079 23.2C28.079 23.416 28.155 23.6 28.307 23.752C28.467 23.904 28.723 23.98 29.075 23.98ZM35.7899 25.12C35.4379 25.12 35.1419 25.044 34.9019 24.892C34.6619 24.74 34.4779 24.536 34.3499 24.28C34.2299 24.024 34.1699 23.74 34.1699 23.428V18.184C34.1699 17.992 34.2379 17.832 34.3739 17.704C34.5099 17.568 34.6739 17.5 34.8659 17.5C35.0579 17.5 35.2179 17.568 35.3459 17.704C35.4819 17.832 35.5499 17.992 35.5499 18.184V23.356C35.5499 23.476 35.5659 23.572 35.5979 23.644C35.6379 23.716 35.7099 23.752 35.8139 23.752C35.8939 23.752 35.9619 23.732 36.0179 23.692C36.0819 23.644 36.1499 23.6 36.2219 23.56C36.2939 23.52 36.3819 23.5 36.4859 23.5C36.6859 23.5 36.8499 23.568 36.9779 23.704C37.1139 23.84 37.1819 24.004 37.1819 24.196C37.1819 24.396 37.1099 24.564 36.9659 24.7C36.8299 24.836 36.6539 24.94 36.4379 25.012C36.2299 25.084 36.0139 25.12 35.7899 25.12ZM33.9059 20.032C33.7379 20.032 33.5899 19.976 33.4619 19.864C33.3419 19.744 33.2819 19.596 33.2819 19.42C33.2819 19.252 33.3419 19.112 33.4619 19C33.5899 18.88 33.7379 18.82 33.9059 18.82H36.6779C36.8539 18.82 37.0019 18.88 37.1219 19C37.2419 19.112 37.3019 19.252 37.3019 19.42C37.3019 19.596 37.2419 19.744 37.1219 19.864C37.0019 19.976 36.8539 20.032 36.6779 20.032H33.9059ZM41.2292 25.18C40.6692 25.18 40.1652 25.052 39.7172 24.796C39.2692 24.532 38.9132 24.16 38.6492 23.68C38.3932 23.192 38.2652 22.612 38.2652 21.94C38.2652 21.308 38.3852 20.744 38.6252 20.248C38.8652 19.752 39.1972 19.36 39.6212 19.072C40.0532 18.784 40.5532 18.64 41.1212 18.64C41.5612 18.64 41.9532 18.724 42.2972 18.892C42.6412 19.052 42.9332 19.268 43.1732 19.54C43.4212 19.804 43.6092 20.1 43.7372 20.428C43.8652 20.748 43.9292 21.072 43.9292 21.4C43.9292 21.688 43.8612 21.916 43.7252 22.084C43.5972 22.244 43.3772 22.324 43.0652 22.324H39.7052C39.7532 22.7 39.8532 23.008 40.0052 23.248C40.1572 23.48 40.3452 23.652 40.5692 23.764C40.8012 23.868 41.0492 23.92 41.3132 23.92C41.6332 23.92 41.8892 23.856 42.0812 23.728C42.2812 23.592 42.4372 23.428 42.5492 23.236C42.6212 23.156 42.7012 23.084 42.7892 23.02C42.8772 22.948 42.9932 22.912 43.1372 22.912C43.3212 22.912 43.4732 22.972 43.5932 23.092C43.7132 23.212 43.7692 23.376 43.7612 23.584C43.7612 23.76 43.6972 23.944 43.5692 24.136C43.4492 24.32 43.2772 24.492 43.0532 24.652C42.8372 24.804 42.5732 24.928 42.2612 25.024C41.9572 25.128 41.6132 25.18 41.2292 25.18ZM39.7052 21.304H42.5492C42.4932 20.856 42.3412 20.508 42.0932 20.26C41.8532 20.004 41.5332 19.876 41.1332 19.876C40.7572 19.876 40.4412 19.996 40.1852 20.236C39.9292 20.468 39.7692 20.824 39.7052 21.304ZM45.9423 25.12C45.7503 25.12 45.5863 25.052 45.4503 24.916C45.3143 24.772 45.2463 24.604 45.2463 24.412V19.396C45.2463 19.204 45.3143 19.04 45.4503 18.904C45.5863 18.768 45.7543 18.7 45.9543 18.7C46.1623 18.7 46.3263 18.768 46.4463 18.904C46.5743 19.04 46.6383 19.204 46.6383 19.396V20.044L46.4463 19.864C46.5263 19.68 46.6423 19.496 46.7943 19.312C46.9463 19.12 47.1303 18.96 47.3463 18.832C47.5623 18.704 47.8063 18.64 48.0783 18.64C48.3023 18.64 48.4823 18.704 48.6183 18.832C48.7623 18.952 48.8343 19.116 48.8343 19.324C48.8343 19.516 48.7623 19.68 48.6183 19.816C48.4823 19.952 48.3023 20.02 48.0783 20.02C47.7663 20.02 47.5023 20.08 47.2863 20.2C47.0703 20.32 46.9063 20.484 46.7943 20.692C46.6903 20.892 46.6383 21.12 46.6383 21.376V24.412C46.6383 24.604 46.5703 24.772 46.4343 24.916C46.2983 25.052 46.1343 25.12 45.9423 25.12ZM50.6063 25.12C50.4143 25.12 50.2503 25.052 50.1143 24.916C49.9783 24.78 49.9103 24.616 49.9103 24.424V19.384C49.9103 19.192 49.9783 19.032 50.1143 18.904C50.2503 18.768 50.4143 18.7 50.6063 18.7C50.7983 18.7 50.9623 18.768 51.0983 18.904C51.2343 19.032 51.3023 19.192 51.3023 19.384V24.424C51.3023 24.616 51.2343 24.78 51.0983 24.916C50.9623 25.052 50.7983 25.12 50.6063 25.12ZM50.5943 18.052C50.3703 18.052 50.1863 17.98 50.0423 17.836C49.8983 17.684 49.8263 17.472 49.8263 17.2C49.8263 16.936 49.8983 16.732 50.0423 16.588C50.1863 16.436 50.3703 16.36 50.5943 16.36C50.8343 16.36 51.0263 16.436 51.1703 16.588C51.3143 16.732 51.3863 16.936 51.3863 17.2C51.3863 17.472 51.3143 17.684 51.1703 17.836C51.0263 17.98 50.8343 18.052 50.5943 18.052ZM54.7686 25.18C54.3686 25.18 54.0046 25.104 53.6766 24.952C53.3566 24.8 53.1006 24.588 52.9086 24.316C52.7166 24.036 52.6206 23.704 52.6206 23.32C52.6206 22.76 52.8086 22.312 53.1846 21.976C53.5606 21.632 54.1726 21.404 55.0206 21.292C55.3086 21.252 55.5646 21.212 55.7886 21.172C56.0206 21.132 56.2046 21.068 56.3406 20.98C56.4766 20.884 56.5446 20.748 56.5446 20.572C56.5446 20.428 56.5086 20.3 56.4366 20.188C56.3646 20.076 56.2526 19.988 56.1006 19.924C55.9566 19.86 55.7686 19.828 55.5366 19.828C55.2246 19.828 54.9806 19.888 54.8046 20.008C54.6366 20.12 54.5006 20.248 54.3966 20.392C54.3166 20.496 54.2166 20.58 54.0966 20.644C53.9846 20.708 53.8566 20.74 53.7126 20.74C53.5206 20.74 53.3686 20.688 53.2566 20.584C53.1446 20.48 53.0886 20.34 53.0886 20.164C53.0886 19.98 53.1486 19.8 53.2686 19.624C53.3886 19.44 53.5566 19.276 53.7726 19.132C53.9886 18.98 54.2486 18.86 54.5526 18.772C54.8566 18.684 55.1886 18.64 55.5486 18.64C56.0926 18.64 56.5366 18.74 56.8806 18.94C57.2326 19.14 57.4926 19.416 57.6606 19.768C57.8366 20.12 57.9246 20.52 57.9246 20.968V23.548C57.9246 23.636 57.9326 23.7 57.9486 23.74C57.9726 23.78 58.0206 23.808 58.0926 23.824C58.2126 23.856 58.3246 23.924 58.4286 24.028C58.5326 24.132 58.5846 24.272 58.5846 24.448C58.5846 24.632 58.5126 24.792 58.3686 24.928C58.2246 25.056 58.0246 25.12 57.7686 25.12C57.4646 25.112 57.2286 25.032 57.0606 24.88C56.9006 24.728 56.8046 24.536 56.7726 24.304V24.172H56.7366C56.5206 24.492 56.2606 24.74 55.9566 24.916C55.6526 25.092 55.2566 25.18 54.7686 25.18ZM55.0086 23.98C55.2966 23.98 55.5566 23.92 55.7886 23.8C56.0206 23.68 56.2046 23.512 56.3406 23.296C56.4846 23.08 56.5566 22.836 56.5566 22.564V22C56.5566 21.984 56.5486 21.976 56.5326 21.976C56.5246 21.968 56.5046 21.976 56.4726 22C56.3686 22.072 56.2366 22.128 56.0766 22.168C55.9246 22.208 55.7646 22.24 55.5966 22.264C55.4286 22.288 55.2686 22.316 55.1166 22.348C54.7406 22.42 54.4606 22.524 54.2766 22.66C54.1006 22.796 54.0126 22.976 54.0126 23.2C54.0126 23.416 54.0886 23.6 54.2406 23.752C54.4006 23.904 54.6566 23.98 55.0086 23.98ZM60.3915 25.12C60.1915 25.12 60.0235 25.052 59.8875 24.916C59.7595 24.772 59.6955 24.604 59.6955 24.412V16.936C59.6955 16.736 59.7595 16.572 59.8875 16.444C60.0235 16.308 60.1915 16.24 60.3915 16.24C60.5835 16.24 60.7475 16.308 60.8835 16.444C61.0195 16.572 61.0875 16.736 61.0875 16.936V24.412C61.0875 24.604 61.0195 24.772 60.8835 24.916C60.7475 25.052 60.5835 25.12 60.3915 25.12ZM64.9738 25.216C64.4378 25.216 63.9778 25.128 63.5938 24.952C63.2178 24.768 62.9258 24.552 62.7178 24.304C62.5178 24.048 62.4138 23.808 62.4058 23.584C62.4058 23.408 62.4618 23.256 62.5738 23.128C62.6858 22.992 62.8458 22.924 63.0538 22.924C63.2138 22.924 63.3418 22.96 63.4378 23.032C63.5418 23.104 63.6178 23.176 63.6658 23.248C63.8258 23.48 64.0178 23.668 64.2418 23.812C64.4658 23.948 64.7378 24.016 65.0578 24.016C65.3778 24.016 65.6138 23.952 65.7658 23.824C65.9178 23.696 65.9938 23.536 65.9938 23.344C65.9938 23.184 65.9418 23.052 65.8378 22.948C65.7338 22.836 65.5818 22.744 65.3818 22.672C65.1898 22.592 64.9578 22.512 64.6858 22.432C64.4298 22.352 64.1778 22.268 63.9298 22.18C63.6898 22.084 63.4698 21.968 63.2698 21.832C63.0698 21.688 62.9098 21.512 62.7898 21.304C62.6698 21.096 62.6098 20.836 62.6098 20.524C62.6098 20.172 62.7058 19.852 62.8978 19.564C63.0898 19.276 63.3578 19.048 63.7018 18.88C64.0458 18.704 64.4498 18.616 64.9138 18.616C65.3618 18.616 65.7498 18.692 66.0778 18.844C66.4138 18.996 66.6738 19.188 66.8578 19.42C67.0418 19.644 67.1338 19.876 67.1338 20.116C67.1418 20.292 67.0978 20.44 67.0018 20.56C66.9058 20.672 66.7618 20.728 66.5698 20.728C66.4258 20.728 66.2978 20.696 66.1858 20.632C66.0738 20.56 65.9818 20.48 65.9098 20.392C65.8538 20.304 65.7858 20.216 65.7058 20.128C65.6258 20.04 65.5178 19.964 65.3818 19.9C65.2538 19.836 65.0818 19.804 64.8658 19.804C64.5858 19.804 64.3658 19.864 64.2058 19.984C64.0538 20.104 63.9778 20.256 63.9778 20.44C63.9778 20.608 64.0378 20.74 64.1578 20.836C64.2778 20.932 64.4458 21.02 64.6618 21.1C64.8858 21.172 65.1578 21.264 65.4778 21.376C65.7498 21.464 65.9978 21.56 66.2218 21.664C66.4538 21.768 66.6538 21.892 66.8218 22.036C66.9978 22.172 67.1338 22.336 67.2298 22.528C67.3258 22.712 67.3738 22.936 67.3738 23.2C67.3738 23.56 67.2858 23.896 67.1098 24.208C66.9338 24.512 66.6658 24.756 66.3058 24.94C65.9538 25.124 65.5098 25.216 64.9738 25.216ZM72.8402 25C72.6402 25 72.4682 24.932 72.3242 24.796C72.1882 24.652 72.1202 24.48 72.1202 24.28V17.188C72.1202 16.996 72.1842 16.832 72.3122 16.696C72.4482 16.552 72.6162 16.48 72.8162 16.48C73.0082 16.48 73.1762 16.552 73.3202 16.696C73.4722 16.832 73.5482 16.996 73.5482 17.188V23.668H76.4762C76.6682 23.668 76.8242 23.732 76.9442 23.86C77.0642 23.98 77.1242 24.136 77.1242 24.328C77.1242 24.52 77.0642 24.68 76.9442 24.808C76.8242 24.936 76.6682 25 76.4762 25H72.8402ZM80.5804 25.18C79.9964 25.18 79.4804 25.04 79.0324 24.76C78.5924 24.472 78.2484 24.08 78.0004 23.584C77.7524 23.088 77.6284 22.524 77.6284 21.892C77.6284 21.26 77.7524 20.7 78.0004 20.212C78.2484 19.724 78.5924 19.34 79.0324 19.06C79.4804 18.78 79.9964 18.64 80.5804 18.64C81.1804 18.64 81.7004 18.78 82.1404 19.06C82.5884 19.34 82.9364 19.724 83.1844 20.212C83.4324 20.7 83.5564 21.26 83.5564 21.892C83.5564 22.524 83.4324 23.088 83.1844 23.584C82.9364 24.08 82.5884 24.472 82.1404 24.76C81.7004 25.04 81.1804 25.18 80.5804 25.18ZM80.5804 23.908C81.0764 23.908 81.4604 23.736 81.7324 23.392C82.0044 23.04 82.1404 22.54 82.1404 21.892C82.1404 21.26 82.0044 20.772 81.7324 20.428C81.4604 20.076 81.0764 19.9 80.5804 19.9C80.0924 19.9 79.7124 20.076 79.4404 20.428C79.1764 20.772 79.0444 21.26 79.0444 21.892C79.0444 22.54 79.1764 23.04 79.4404 23.392C79.7124 23.736 80.0924 23.908 80.5804 23.908ZM86.7765 25.12C86.6325 25.12 86.4965 25.08 86.3685 25C86.2405 24.912 86.1445 24.784 86.0805 24.616L84.3885 19.636C84.3565 19.572 84.3405 19.492 84.3405 19.396C84.3405 19.22 84.4005 19.06 84.5205 18.916C84.6405 18.772 84.8085 18.7 85.0245 18.7C85.1765 18.7 85.3125 18.744 85.4325 18.832C85.5525 18.912 85.6365 19.016 85.6845 19.144L86.9325 23.104L86.6085 23.152L87.8085 19.336C87.8645 19.16 87.9565 19.032 88.0845 18.952C88.2205 18.864 88.3565 18.82 88.4925 18.82C88.6365 18.82 88.7725 18.864 88.9005 18.952C89.0285 19.032 89.1205 19.16 89.1765 19.336L90.3525 23.128L90.0285 23.068L91.2645 19.144C91.3125 19.016 91.3965 18.912 91.5165 18.832C91.6365 18.744 91.7725 18.7 91.9245 18.7C92.1325 18.7 92.2925 18.772 92.4045 18.916C92.5245 19.052 92.5845 19.208 92.5845 19.384C92.5845 19.48 92.5685 19.568 92.5365 19.648L90.8565 24.616C90.8005 24.784 90.7085 24.912 90.5805 25C90.4525 25.08 90.3165 25.12 90.1725 25.12C90.0285 25.12 89.8925 25.076 89.7645 24.988C89.6365 24.9 89.5445 24.772 89.4885 24.604L88.3965 21.016H88.5645L87.4605 24.604C87.4125 24.772 87.3205 24.9 87.1845 24.988C87.0565 25.076 86.9205 25.12 86.7765 25.12ZM99.682 25.18C99.098 25.18 98.582 25.04 98.134 24.76C97.694 24.472 97.35 24.08 97.102 23.584C96.854 23.088 96.73 22.524 96.73 21.892C96.73 21.26 96.854 20.7 97.102 20.212C97.35 19.724 97.694 19.34 98.134 19.06C98.582 18.78 99.098 18.64 99.682 18.64C100.282 18.64 100.802 18.78 101.242 19.06C101.69 19.34 102.038 19.724 102.286 20.212C102.534 20.7 102.658 21.26 102.658 21.892C102.658 22.524 102.534 23.088 102.286 23.584C102.038 24.08 101.69 24.472 101.242 24.76C100.802 25.04 100.282 25.18 99.682 25.18ZM99.682 23.908C100.178 23.908 100.562 23.736 100.834 23.392C101.106 23.04 101.242 22.54 101.242 21.892C101.242 21.26 101.106 20.772 100.834 20.428C100.562 20.076 100.178 19.9 99.682 19.9C99.194 19.9 98.814 20.076 98.542 20.428C98.278 20.772 98.146 21.26 98.146 21.892C98.146 22.54 98.278 23.04 98.542 23.392C98.814 23.736 99.194 23.908 99.682 23.908ZM104.677 25.12C104.477 25.12 104.309 25.052 104.173 24.916C104.045 24.78 103.981 24.612 103.981 24.412V19.396C103.981 19.196 104.045 19.032 104.173 18.904C104.309 18.768 104.477 18.7 104.677 18.7C104.869 18.7 105.033 18.768 105.169 18.904C105.305 19.032 105.373 19.196 105.373 19.396V20.152L105.085 19.972C105.341 19.524 105.641 19.192 105.985 18.976C106.337 18.752 106.737 18.64 107.185 18.64C107.617 18.64 108.005 18.732 108.349 18.916C108.693 19.1 108.961 19.372 109.153 19.732C109.345 20.092 109.441 20.532 109.441 21.052V24.412C109.441 24.612 109.377 24.78 109.249 24.916C109.121 25.052 108.957 25.12 108.757 25.12C108.549 25.12 108.381 25.052 108.253 24.916C108.125 24.78 108.061 24.612 108.061 24.412V21.244C108.061 20.836 107.949 20.516 107.725 20.284C107.501 20.044 107.193 19.924 106.801 19.924C106.521 19.924 106.273 19.984 106.057 20.104C105.841 20.224 105.673 20.388 105.553 20.596C105.433 20.796 105.373 21.028 105.373 21.292V24.412C105.373 24.612 105.305 24.78 105.169 24.916C105.041 25.052 104.877 25.12 104.677 25.12ZM117.123 25.18C116.499 25.18 115.951 25.076 115.479 24.868C115.015 24.66 114.651 24.396 114.387 24.076C114.131 23.748 114.003 23.408 114.003 23.056C114.003 22.856 114.063 22.692 114.183 22.564C114.311 22.436 114.479 22.372 114.687 22.372C114.887 22.372 115.035 22.432 115.131 22.552C115.227 22.664 115.311 22.796 115.383 22.948C115.503 23.196 115.695 23.416 115.959 23.608C116.231 23.792 116.603 23.884 117.075 23.884C117.347 23.884 117.599 23.848 117.831 23.776C118.063 23.704 118.247 23.584 118.383 23.416C118.527 23.24 118.599 23.016 118.599 22.744C118.599 22.504 118.535 22.308 118.407 22.156C118.287 22.004 118.103 21.864 117.855 21.736C117.607 21.608 117.295 21.472 116.919 21.328C116.631 21.216 116.339 21.096 116.043 20.968C115.747 20.84 115.479 20.688 115.239 20.512C114.999 20.328 114.803 20.096 114.651 19.816C114.507 19.528 114.435 19.172 114.435 18.748C114.435 18.236 114.551 17.808 114.783 17.464C115.015 17.12 115.327 16.86 115.719 16.684C116.119 16.508 116.567 16.42 117.063 16.42C117.439 16.42 117.783 16.468 118.095 16.564C118.407 16.66 118.679 16.796 118.911 16.972C119.151 17.14 119.335 17.332 119.463 17.548C119.599 17.756 119.675 17.98 119.691 18.22C119.699 18.42 119.643 18.588 119.523 18.724C119.403 18.852 119.239 18.916 119.031 18.916C118.855 18.916 118.727 18.88 118.647 18.808C118.575 18.736 118.499 18.624 118.419 18.472C118.307 18.232 118.143 18.044 117.927 17.908C117.719 17.772 117.443 17.704 117.099 17.704C116.859 17.704 116.643 17.744 116.451 17.824C116.267 17.904 116.123 18.016 116.019 18.16C115.915 18.296 115.863 18.472 115.863 18.688C115.863 18.952 115.943 19.168 116.103 19.336C116.263 19.496 116.471 19.632 116.727 19.744C116.991 19.856 117.275 19.972 117.579 20.092C117.947 20.244 118.279 20.396 118.575 20.548C118.879 20.7 119.139 20.872 119.355 21.064C119.571 21.256 119.735 21.484 119.847 21.748C119.967 22.004 120.027 22.308 120.027 22.66C120.027 23.188 119.907 23.644 119.667 24.028C119.427 24.404 119.087 24.692 118.647 24.892C118.215 25.084 117.707 25.18 117.123 25.18ZM123.376 25.12C123.024 25.12 122.728 25.044 122.488 24.892C122.248 24.74 122.064 24.536 121.936 24.28C121.816 24.024 121.756 23.74 121.756 23.428V18.184C121.756 17.992 121.824 17.832 121.96 17.704C122.096 17.568 122.26 17.5 122.452 17.5C122.644 17.5 122.804 17.568 122.932 17.704C123.068 17.832 123.136 17.992 123.136 18.184V23.356C123.136 23.476 123.152 23.572 123.184 23.644C123.224 23.716 123.296 23.752 123.4 23.752C123.48 23.752 123.548 23.732 123.604 23.692C123.668 23.644 123.736 23.6 123.808 23.56C123.88 23.52 123.968 23.5 124.072 23.5C124.272 23.5 124.436 23.568 124.564 23.704C124.7 23.84 124.768 24.004 124.768 24.196C124.768 24.396 124.696 24.564 124.552 24.7C124.416 24.836 124.24 24.94 124.024 25.012C123.816 25.084 123.6 25.12 123.376 25.12ZM121.492 20.032C121.324 20.032 121.176 19.976 121.048 19.864C120.928 19.744 120.868 19.596 120.868 19.42C120.868 19.252 120.928 19.112 121.048 19C121.176 18.88 121.324 18.82 121.492 18.82H124.264C124.44 18.82 124.588 18.88 124.708 19C124.828 19.112 124.888 19.252 124.888 19.42C124.888 19.596 124.828 19.744 124.708 19.864C124.588 19.976 124.44 20.032 124.264 20.032H121.492ZM128.803 25.18C128.219 25.18 127.703 25.04 127.255 24.76C126.815 24.472 126.471 24.08 126.223 23.584C125.975 23.088 125.851 22.524 125.851 21.892C125.851 21.26 125.975 20.7 126.223 20.212C126.471 19.724 126.815 19.34 127.255 19.06C127.703 18.78 128.219 18.64 128.803 18.64C129.403 18.64 129.923 18.78 130.363 19.06C130.811 19.34 131.159 19.724 131.407 20.212C131.655 20.7 131.779 21.26 131.779 21.892C131.779 22.524 131.655 23.088 131.407 23.584C131.159 24.08 130.811 24.472 130.363 24.76C129.923 25.04 129.403 25.18 128.803 25.18ZM128.803 23.908C129.299 23.908 129.683 23.736 129.955 23.392C130.227 23.04 130.363 22.54 130.363 21.892C130.363 21.26 130.227 20.772 129.955 20.428C129.683 20.076 129.299 19.9 128.803 19.9C128.315 19.9 127.935 20.076 127.663 20.428C127.399 20.772 127.267 21.26 127.267 21.892C127.267 22.54 127.399 23.04 127.663 23.392C127.935 23.736 128.315 23.908 128.803 23.908ZM135.646 25.18C135.07 25.18 134.562 25.036 134.122 24.748C133.69 24.46 133.35 24.068 133.102 23.572C132.862 23.076 132.742 22.52 132.742 21.904C132.742 21.28 132.862 20.724 133.102 20.236C133.35 19.748 133.694 19.36 134.134 19.072C134.574 18.784 135.086 18.64 135.67 18.64C136.102 18.64 136.478 18.712 136.798 18.856C137.118 19 137.366 19.184 137.542 19.408C137.726 19.624 137.822 19.848 137.83 20.08C137.838 20.288 137.778 20.448 137.65 20.56C137.522 20.664 137.37 20.716 137.194 20.716C137.066 20.716 136.958 20.692 136.87 20.644C136.79 20.596 136.722 20.536 136.666 20.464C136.586 20.328 136.466 20.2 136.306 20.08C136.146 19.952 135.922 19.888 135.634 19.888C135.33 19.888 135.066 19.972 134.842 20.14C134.626 20.3 134.458 20.532 134.338 20.836C134.218 21.14 134.158 21.496 134.158 21.904C134.158 22.536 134.294 23.028 134.566 23.38C134.838 23.732 135.206 23.908 135.67 23.908C136.014 23.908 136.278 23.824 136.462 23.656C136.646 23.488 136.782 23.3 136.87 23.092C136.942 22.972 137.018 22.868 137.098 22.78C137.178 22.692 137.294 22.648 137.446 22.648C137.638 22.648 137.794 22.716 137.914 22.852C138.042 22.988 138.102 23.16 138.094 23.368C138.094 23.544 138.034 23.74 137.914 23.956C137.802 24.164 137.638 24.364 137.422 24.556C137.214 24.74 136.958 24.888 136.654 25C136.358 25.12 136.022 25.18 135.646 25.18ZM140.056 25.12C139.864 25.12 139.7 25.052 139.564 24.916C139.428 24.78 139.36 24.612 139.36 24.412V16.936C139.36 16.736 139.428 16.572 139.564 16.444C139.7 16.308 139.864 16.24 140.056 16.24C140.248 16.24 140.412 16.308 140.548 16.444C140.684 16.572 140.752 16.736 140.752 16.936V24.412C140.752 24.612 140.684 24.78 140.548 24.916C140.412 25.052 140.248 25.12 140.056 25.12ZM140.236 21.376L143.284 18.892C143.404 18.788 143.552 18.736 143.728 18.736C143.92 18.736 144.08 18.804 144.208 18.94C144.344 19.068 144.412 19.228 144.412 19.42C144.412 19.644 144.332 19.82 144.172 19.948L140.236 23.14V21.376ZM143.932 25.12C143.82 25.12 143.712 25.092 143.608 25.036C143.504 24.98 143.424 24.904 143.368 24.808L141.196 21.676L142.276 20.836L144.484 24.028C144.572 24.148 144.616 24.28 144.616 24.424C144.616 24.616 144.548 24.78 144.412 24.916C144.276 25.052 144.116 25.12 143.932 25.12Z" fill="#2E2C28"/>
<path d="M20.5 53.2C20.1933 53.2 19.92 53.0867 19.68 52.86C19.4533 52.6333 19.34 52.36 19.34 52.04C19.34 50.9333 19.42 49.8467 19.58 48.78C19.7533 47.7 19.9933 46.6667 20.3 45.68C20.6067 44.6933 20.9733 43.7867 21.4 42.96C21.8267 42.12 22.2933 41.3933 22.8 40.78L23.48 41.26H17.74C17.4333 41.26 17.1667 41.1467 16.94 40.92C16.7133 40.6933 16.6 40.4267 16.6 40.12C16.6 39.8 16.7133 39.5333 16.94 39.32C17.1667 39.0933 17.4333 38.98 17.74 38.98H25.18C25.5 38.98 25.76 39.0867 25.96 39.3C26.1733 39.5 26.28 39.7267 26.28 39.98C26.28 40.18 26.2533 40.3533 26.2 40.5C26.1467 40.6467 26.0467 40.7933 25.9 40.94C25.7533 41.0867 25.5533 41.2667 25.3 41.48C24.78 41.8933 24.2933 42.4533 23.84 43.16C23.4 43.8667 23.0133 44.6867 22.68 45.62C22.36 46.54 22.1067 47.5467 21.92 48.64C21.7467 49.72 21.66 50.8533 21.66 52.04C21.66 52.36 21.5467 52.6333 21.32 52.86C21.1067 53.0867 20.8333 53.2 20.5 53.2ZM35.1867 53.2C34.8401 53.2 34.5534 53.0867 34.3267 52.86C34.1001 52.6333 33.9867 52.3467 33.9867 52L34.0467 40.1C34.0467 39.6867 34.1601 39.3667 34.3867 39.14C34.6267 38.9133 34.9334 38.8 35.3067 38.8C35.6401 38.8 35.9134 38.8733 36.1267 39.02C36.3401 39.1667 36.4934 39.3533 36.5867 39.58L40.9467 49.92L45.2067 39.58C45.3001 39.3533 45.4534 39.1667 45.6667 39.02C45.8801 38.8733 46.1534 38.8 46.4867 38.8C46.8601 38.8 47.1601 38.9133 47.3867 39.14C47.6267 39.3667 47.7467 39.6867 47.7467 40.1L47.8067 52C47.8067 52.3467 47.6934 52.6333 47.4667 52.86C47.2401 53.0867 46.9534 53.2 46.6067 53.2C46.2601 53.2 45.9734 53.0867 45.7467 52.86C45.5201 52.6333 45.4134 52.3467 45.4267 52L45.5467 44.36L42.3067 52.08C42.1467 52.4933 41.9467 52.7867 41.7067 52.96C41.4801 53.12 41.2267 53.2 40.9467 53.2C40.6534 53.2 40.3934 53.12 40.1667 52.96C39.9401 52.7867 39.7401 52.4933 39.5667 52.08L36.2467 44.34L36.3867 52C36.3867 52.3467 36.2734 52.6333 36.0467 52.86C35.8334 53.0867 35.5467 53.2 35.1867 53.2ZM53.7784 53.3C53.1118 53.3 52.5051 53.1733 51.9584 52.92C51.4251 52.6667 50.9984 52.3133 50.6784 51.86C50.3584 51.3933 50.1984 50.84 50.1984 50.2C50.1984 49.2667 50.5118 48.52 51.1384 47.96C51.7651 47.3867 52.7851 47.0067 54.1984 46.82C54.6784 46.7533 55.1051 46.6867 55.4784 46.62C55.8651 46.5533 56.1718 46.4467 56.3984 46.3C56.6251 46.14 56.7384 45.9133 56.7384 45.62C56.7384 45.38 56.6784 45.1667 56.5584 44.98C56.4384 44.7933 56.2518 44.6467 55.9984 44.54C55.7584 44.4333 55.4451 44.38 55.0584 44.38C54.5384 44.38 54.1318 44.48 53.8384 44.68C53.5584 44.8667 53.3318 45.08 53.1584 45.32C53.0251 45.4933 52.8584 45.6333 52.6584 45.74C52.4718 45.8467 52.2584 45.9 52.0184 45.9C51.6984 45.9 51.4451 45.8133 51.2584 45.64C51.0718 45.4667 50.9784 45.2333 50.9784 44.94C50.9784 44.6333 51.0784 44.3333 51.2784 44.04C51.4784 43.7333 51.7584 43.46 52.1184 43.22C52.4784 42.9667 52.9118 42.7667 53.4184 42.62C53.9251 42.4733 54.4784 42.4 55.0784 42.4C55.9851 42.4 56.7251 42.5667 57.2984 42.9C57.8851 43.2333 58.3184 43.6933 58.5984 44.28C58.8918 44.8667 59.0384 45.5333 59.0384 46.28V50.58C59.0384 50.7267 59.0518 50.8333 59.0784 50.9C59.1184 50.9667 59.1984 51.0133 59.3184 51.04C59.5184 51.0933 59.7051 51.2067 59.8784 51.38C60.0518 51.5533 60.1384 51.7867 60.1384 52.08C60.1384 52.3867 60.0184 52.6533 59.7784 52.88C59.5384 53.0933 59.2051 53.2 58.7784 53.2C58.2718 53.1867 57.8784 53.0533 57.5984 52.8C57.3318 52.5467 57.1718 52.2267 57.1184 51.84V51.62H57.0584C56.6984 52.1533 56.2651 52.5667 55.7584 52.86C55.2518 53.1533 54.5918 53.3 53.7784 53.3ZM54.1784 51.3C54.6584 51.3 55.0918 51.2 55.4784 51C55.8651 50.8 56.1718 50.52 56.3984 50.16C56.6384 49.8 56.7584 49.3933 56.7584 48.94V48C56.7584 47.9733 56.7451 47.96 56.7184 47.96C56.7051 47.9467 56.6718 47.96 56.6184 48C56.4451 48.12 56.2251 48.2133 55.9584 48.28C55.7051 48.3467 55.4384 48.4 55.1584 48.44C54.8784 48.48 54.6118 48.5267 54.3584 48.58C53.7318 48.7 53.2651 48.8733 52.9584 49.1C52.6651 49.3267 52.5184 49.6267 52.5184 50C52.5184 50.36 52.6451 50.6667 52.8984 50.92C53.1651 51.1733 53.5918 51.3 54.1784 51.3ZM65.3698 53.2C64.7832 53.2 64.2898 53.0733 63.8898 52.82C63.4898 52.5667 63.1832 52.2267 62.9698 51.8C62.7698 51.3733 62.6698 50.9 62.6698 50.38V41.64C62.6698 41.32 62.7832 41.0533 63.0098 40.84C63.2365 40.6133 63.5098 40.5 63.8298 40.5C64.1498 40.5 64.4165 40.6133 64.6298 40.84C64.8565 41.0533 64.9698 41.32 64.9698 41.64V50.26C64.9698 50.46 64.9965 50.62 65.0498 50.74C65.1165 50.86 65.2365 50.92 65.4098 50.92C65.5432 50.92 65.6565 50.8867 65.7498 50.82C65.8565 50.74 65.9698 50.6667 66.0898 50.6C66.2098 50.5333 66.3565 50.5 66.5298 50.5C66.8632 50.5 67.1365 50.6133 67.3498 50.84C67.5765 51.0667 67.6898 51.34 67.6898 51.66C67.6898 51.9933 67.5698 52.2733 67.3298 52.5C67.1032 52.7267 66.8098 52.9 66.4498 53.02C66.1032 53.14 65.7432 53.2 65.3698 53.2ZM62.2298 44.72C61.9498 44.72 61.7032 44.6267 61.4898 44.44C61.2898 44.24 61.1898 43.9933 61.1898 43.7C61.1898 43.42 61.2898 43.1867 61.4898 43C61.7032 42.8 61.9498 42.7 62.2298 42.7H66.8498C67.1432 42.7 67.3898 42.8 67.5898 43C67.7898 43.1867 67.8898 43.42 67.8898 43.7C67.8898 43.9933 67.7898 44.24 67.5898 44.44C67.3898 44.6267 67.1432 44.72 66.8498 44.72H62.2298ZM74.4353 53.3C73.502 53.3 72.662 53.0867 71.9153 52.66C71.1686 52.22 70.5753 51.6 70.1353 50.8C69.7086 49.9867 69.4953 49.02 69.4953 47.9C69.4953 46.8467 69.6953 45.9067 70.0953 45.08C70.4953 44.2533 71.0486 43.6 71.7553 43.12C72.4753 42.64 73.3086 42.4 74.2553 42.4C74.9886 42.4 75.642 42.54 76.2153 42.82C76.7886 43.0867 77.2753 43.4467 77.6753 43.9C78.0886 44.34 78.402 44.8333 78.6153 45.38C78.8286 45.9133 78.9353 46.4533 78.9353 47C78.9353 47.48 78.822 47.86 78.5953 48.14C78.382 48.4067 78.0153 48.54 77.4953 48.54H71.8953C71.9753 49.1667 72.142 49.68 72.3953 50.08C72.6486 50.4667 72.962 50.7533 73.3353 50.94C73.722 51.1133 74.1353 51.2 74.5753 51.2C75.1086 51.2 75.5353 51.0933 75.8553 50.88C76.1886 50.6533 76.4486 50.38 76.6353 50.06C76.7553 49.9267 76.8886 49.8067 77.0353 49.7C77.182 49.58 77.3753 49.52 77.6153 49.52C77.922 49.52 78.1753 49.62 78.3753 49.82C78.5753 50.02 78.6686 50.2933 78.6553 50.64C78.6553 50.9333 78.5486 51.24 78.3353 51.56C78.1353 51.8667 77.8486 52.1533 77.4753 52.42C77.1153 52.6733 76.6753 52.88 76.1553 53.04C75.6486 53.2133 75.0753 53.3 74.4353 53.3ZM71.8953 46.84H76.6353C76.542 46.0933 76.2886 45.5133 75.8753 45.1C75.4753 44.6733 74.942 44.46 74.2753 44.46C73.6486 44.46 73.122 44.66 72.6953 45.06C72.2686 45.4467 72.002 46.04 71.8953 46.84ZM82.2905 53.2C81.9705 53.2 81.6971 53.0867 81.4705 52.86C81.2438 52.62 81.1305 52.34 81.1305 52.02V43.66C81.1305 43.34 81.2438 43.0667 81.4705 42.84C81.6971 42.6133 81.9771 42.5 82.3105 42.5C82.6571 42.5 82.9305 42.6133 83.1305 42.84C83.3438 43.0667 83.4505 43.34 83.4505 43.66V44.74L83.1305 44.44C83.2638 44.1333 83.4571 43.8267 83.7105 43.52C83.9638 43.2 84.2705 42.9333 84.6305 42.72C84.9905 42.5067 85.3971 42.4 85.8505 42.4C86.2238 42.4 86.5238 42.5067 86.7505 42.72C86.9905 42.92 87.1105 43.1933 87.1105 43.54C87.1105 43.86 86.9905 44.1333 86.7505 44.36C86.5238 44.5867 86.2238 44.7 85.8505 44.7C85.3305 44.7 84.8905 44.8 84.5305 45C84.1705 45.2 83.8971 45.4733 83.7105 45.82C83.5371 46.1533 83.4505 46.5333 83.4505 46.96V52.02C83.4505 52.34 83.3371 52.62 83.1105 52.86C82.8838 53.0867 82.6105 53.2 82.2905 53.2ZM90.0639 53.2C89.7439 53.2 89.4706 53.0867 89.2439 52.86C89.0172 52.6333 88.9039 52.36 88.9039 52.04V43.64C88.9039 43.32 89.0172 43.0533 89.2439 42.84C89.4706 42.6133 89.7439 42.5 90.0639 42.5C90.3839 42.5 90.6572 42.6133 90.8839 42.84C91.1106 43.0533 91.2239 43.32 91.2239 43.64V52.04C91.2239 52.36 91.1106 52.6333 90.8839 52.86C90.6572 53.0867 90.3839 53.2 90.0639 53.2ZM90.0439 41.42C89.6706 41.42 89.3639 41.3 89.1239 41.06C88.8839 40.8067 88.7639 40.4533 88.7639 40C88.7639 39.56 88.8839 39.22 89.1239 38.98C89.3639 38.7267 89.6706 38.6 90.0439 38.6C90.4439 38.6 90.7639 38.7267 91.0039 38.98C91.2439 39.22 91.3639 39.56 91.3639 40C91.3639 40.4533 91.2439 40.8067 91.0039 41.06C90.7639 41.3 90.4439 41.42 90.0439 41.42ZM97.0011 53.3C96.3344 53.3 95.7278 53.1733 95.1811 52.92C94.6478 52.6667 94.2211 52.3133 93.9011 51.86C93.5811 51.3933 93.4211 50.84 93.4211 50.2C93.4211 49.2667 93.7344 48.52 94.3611 47.96C94.9878 47.3867 96.0078 47.0067 97.4211 46.82C97.9011 46.7533 98.3278 46.6867 98.7011 46.62C99.0878 46.5533 99.3944 46.4467 99.6211 46.3C99.8478 46.14 99.9611 45.9133 99.9611 45.62C99.9611 45.38 99.9011 45.1667 99.7811 44.98C99.6611 44.7933 99.4744 44.6467 99.2211 44.54C98.9811 44.4333 98.6678 44.38 98.2811 44.38C97.7611 44.38 97.3544 44.48 97.0611 44.68C96.7811 44.8667 96.5544 45.08 96.3811 45.32C96.2478 45.4933 96.0811 45.6333 95.8811 45.74C95.6944 45.8467 95.4811 45.9 95.2411 45.9C94.9211 45.9 94.6678 45.8133 94.4811 45.64C94.2944 45.4667 94.2011 45.2333 94.2011 44.94C94.2011 44.6333 94.3011 44.3333 94.5011 44.04C94.7011 43.7333 94.9811 43.46 95.3411 43.22C95.7011 42.9667 96.1344 42.7667 96.6411 42.62C97.1478 42.4733 97.7011 42.4 98.3011 42.4C99.2078 42.4 99.9478 42.5667 100.521 42.9C101.108 43.2333 101.541 43.6933 101.821 44.28C102.114 44.8667 102.261 45.5333 102.261 46.28V50.58C102.261 50.7267 102.274 50.8333 102.301 50.9C102.341 50.9667 102.421 51.0133 102.541 51.04C102.741 51.0933 102.928 51.2067 103.101 51.38C103.274 51.5533 103.361 51.7867 103.361 52.08C103.361 52.3867 103.241 52.6533 103.001 52.88C102.761 53.0933 102.428 53.2 102.001 53.2C101.494 53.1867 101.101 53.0533 100.821 52.8C100.554 52.5467 100.394 52.2267 100.341 51.84V51.62H100.281C99.9211 52.1533 99.4878 52.5667 98.9811 52.86C98.4744 53.1533 97.8144 53.3 97.0011 53.3ZM97.4011 51.3C97.8811 51.3 98.3144 51.2 98.7011 51C99.0878 50.8 99.3944 50.52 99.6211 50.16C99.8611 49.8 99.9811 49.3933 99.9811 48.94V48C99.9811 47.9733 99.9678 47.96 99.9411 47.96C99.9278 47.9467 99.8944 47.96 99.8411 48C99.6678 48.12 99.4478 48.2133 99.1811 48.28C98.9278 48.3467 98.6611 48.4 98.3811 48.44C98.1011 48.48 97.8344 48.5267 97.5811 48.58C96.9544 48.7 96.4878 48.8733 96.1811 49.1C95.8878 49.3267 95.7411 49.6267 95.7411 50C95.7411 50.36 95.8678 50.6667 96.1211 50.92C96.3878 51.1733 96.8144 51.3 97.4011 51.3ZM106.373 53.2C106.039 53.2 105.759 53.0867 105.533 52.86C105.319 52.62 105.213 52.34 105.213 52.02V39.56C105.213 39.2267 105.319 38.9533 105.533 38.74C105.759 38.5133 106.039 38.4 106.373 38.4C106.693 38.4 106.966 38.5133 107.193 38.74C107.419 38.9533 107.533 39.2267 107.533 39.56V52.02C107.533 52.34 107.419 52.62 107.193 52.86C106.966 53.0867 106.693 53.2 106.373 53.2ZM114.01 53.36C113.116 53.36 112.35 53.2133 111.71 52.92C111.083 52.6133 110.596 52.2533 110.25 51.84C109.916 51.4133 109.743 51.0133 109.73 50.64C109.73 50.3467 109.823 50.0933 110.01 49.88C110.196 49.6533 110.463 49.54 110.81 49.54C111.076 49.54 111.29 49.6 111.45 49.72C111.623 49.84 111.75 49.96 111.83 50.08C112.096 50.4667 112.416 50.78 112.79 51.02C113.163 51.2467 113.616 51.36 114.15 51.36C114.683 51.36 115.076 51.2533 115.33 51.04C115.583 50.8267 115.71 50.56 115.71 50.24C115.71 49.9733 115.623 49.7533 115.45 49.58C115.276 49.3933 115.023 49.24 114.69 49.12C114.37 48.9867 113.983 48.8533 113.53 48.72C113.103 48.5867 112.683 48.4467 112.27 48.3C111.87 48.14 111.503 47.9467 111.17 47.72C110.836 47.48 110.57 47.1867 110.37 46.84C110.17 46.4933 110.07 46.06 110.07 45.54C110.07 44.9533 110.23 44.42 110.55 43.94C110.87 43.46 111.316 43.08 111.89 42.8C112.463 42.5067 113.136 42.36 113.91 42.36C114.656 42.36 115.303 42.4867 115.85 42.74C116.41 42.9933 116.843 43.3133 117.15 43.7C117.456 44.0733 117.61 44.46 117.61 44.86C117.623 45.1533 117.55 45.4 117.39 45.6C117.23 45.7867 116.99 45.88 116.67 45.88C116.43 45.88 116.216 45.8267 116.03 45.72C115.843 45.6 115.69 45.4667 115.57 45.32C115.476 45.1733 115.363 45.0267 115.23 44.88C115.096 44.7333 114.916 44.6067 114.69 44.5C114.476 44.3933 114.19 44.34 113.83 44.34C113.363 44.34 112.996 44.44 112.73 44.64C112.476 44.84 112.35 45.0933 112.35 45.4C112.35 45.68 112.45 45.9 112.65 46.06C112.85 46.22 113.13 46.3667 113.49 46.5C113.863 46.62 114.316 46.7733 114.85 46.96C115.303 47.1067 115.716 47.2667 116.09 47.44C116.476 47.6133 116.81 47.82 117.09 48.06C117.383 48.2867 117.61 48.56 117.77 48.88C117.93 49.1867 118.01 49.56 118.01 50C118.01 50.6 117.863 51.16 117.57 51.68C117.276 52.1867 116.83 52.5933 116.23 52.9C115.643 53.2067 114.903 53.36 114.01 53.36Z" fill="#267F53"/>
<rect x="16" y="61" width="54" height="20" rx="5" fill="#267F53"/>
<g clip-path="url(#clip0_6007_18076)">
<path d="M28.5023 67.7651L22.3559 73.4073L22.3539 73.409C22.1582 73.6015 22.0845 73.8416 22.1463 74.0852C22.2096 74.3346 22.4149 74.5447 22.6574 74.6083C22.7159 74.6237 22.7741 74.6304 22.8315 74.6289C23.0058 74.624 23.1718 74.5418 23.3121 74.3874L28.7566 67.9739L28.5023 67.7651Z" fill="white"/>
<path d="M28.8996 67.9385C28.9202 67.7664 28.7745 67.6282 28.6085 67.6552C27.2653 67.8752 25.7943 67.8044 24.5411 67.3736C24.2255 67.341 23.9477 67.6047 23.9659 67.9455C23.9806 68.2161 24.2028 68.4271 24.464 68.4524C25.4723 68.5505 27.1792 68.5247 28.0536 68.5029C28.0306 69.4105 28.0024 71.18 28.0975 72.2202C28.1223 72.4899 28.3267 72.7193 28.5888 72.7344C28.919 72.7532 29.1744 72.4664 29.1429 72.1407C28.6864 70.3857 28.8141 68.6556 28.8996 67.9385Z" fill="white"/>
</g>
<path d="M37.336 73.416C37.2 73.416 37.084 73.376 36.988 73.296C36.892 73.208 36.844 73.1 36.844 72.972V68.424C36.844 68.296 36.892 68.188 36.988 68.1C37.084 68.012 37.2 67.968 37.336 67.968C37.472 67.968 37.584 68.012 37.672 68.1C37.768 68.188 37.816 68.296 37.816 68.424V72.972C37.816 73.1 37.768 73.208 37.672 73.296C37.584 73.376 37.472 73.416 37.336 73.416ZM35.176 71.136C35.048 71.136 34.94 71.092 34.852 71.004C34.764 70.916 34.72 70.812 34.72 70.692C34.72 70.564 34.764 70.456 34.852 70.368C34.94 70.28 35.048 70.236 35.176 70.236H39.484C39.612 70.236 39.72 70.28 39.808 70.368C39.896 70.456 39.94 70.564 39.94 70.692C39.94 70.812 39.896 70.916 39.808 71.004C39.72 71.092 39.612 71.136 39.484 71.136H35.176ZM43.9683 75.192C43.3843 75.192 42.8883 75.08 42.4803 74.856C42.0723 74.624 41.7483 74.344 41.5083 74.016C41.2683 73.68 41.1083 73.356 41.0283 73.044C40.9963 72.892 41.0243 72.768 41.1123 72.672C41.2083 72.568 41.3323 72.516 41.4843 72.516C41.6123 72.516 41.7083 72.556 41.7723 72.636C41.8363 72.708 41.8923 72.792 41.9403 72.888C42.1163 73.28 42.3643 73.612 42.6843 73.884C43.0123 74.148 43.4323 74.28 43.9443 74.28C44.3523 74.28 44.7123 74.188 45.0243 74.004C45.3363 73.82 45.5763 73.568 45.7443 73.248C45.9203 72.928 46.0083 72.568 46.0083 72.168C46.0083 71.768 45.9203 71.412 45.7443 71.1C45.5763 70.788 45.3363 70.544 45.0243 70.368C44.7203 70.184 44.3603 70.092 43.9443 70.092C43.6483 70.092 43.4043 70.132 43.2123 70.212C43.0203 70.292 42.8603 70.384 42.7323 70.488C42.6123 70.584 42.5003 70.672 42.3963 70.752C42.3003 70.832 42.1883 70.872 42.0603 70.872C41.9083 70.872 41.7883 70.824 41.7003 70.728C41.6203 70.624 41.5883 70.508 41.6043 70.38L42.0123 67.236C42.0363 67.028 42.1123 66.872 42.2402 66.768C42.3683 66.656 42.5243 66.6 42.7083 66.6H45.7083C45.8443 66.6 45.9563 66.648 46.0443 66.744C46.1403 66.832 46.1883 66.944 46.1883 67.08C46.1883 67.208 46.1403 67.32 46.0443 67.416C45.9483 67.504 45.8323 67.548 45.6963 67.548L42.4803 67.536L42.9603 67.14L42.5763 70.032L42.2523 69.792C42.5163 69.6 42.7963 69.456 43.0923 69.36C43.3883 69.264 43.7003 69.216 44.0283 69.216C44.5963 69.216 45.1003 69.344 45.5403 69.6C45.9883 69.848 46.3363 70.192 46.5843 70.632C46.8403 71.072 46.9683 71.58 46.9683 72.156C46.9683 72.724 46.8443 73.24 46.5963 73.704C46.3483 74.16 46.0003 74.524 45.5523 74.796C45.1043 75.06 44.5763 75.192 43.9683 75.192ZM51.2797 75.18C50.6317 75.18 50.0597 75 49.5637 74.64C49.0677 74.272 48.6797 73.76 48.3997 73.104C48.1277 72.448 47.9917 71.684 47.9917 70.812C47.9917 69.94 48.1317 69.176 48.4117 68.52C48.6997 67.864 49.0917 67.352 49.5877 66.984C50.0917 66.608 50.6597 66.42 51.2917 66.42C51.9317 66.42 52.4997 66.608 52.9957 66.984C53.4917 67.352 53.8797 67.864 54.1597 68.52C54.4397 69.176 54.5797 69.94 54.5797 70.812C54.5797 71.684 54.4397 72.448 54.1597 73.104C53.8877 73.76 53.5037 74.272 53.0077 74.64C52.5117 75 51.9357 75.18 51.2797 75.18ZM51.2797 74.28C51.7437 74.28 52.1477 74.136 52.4917 73.848C52.8357 73.56 53.1037 73.156 53.2957 72.636C53.4957 72.108 53.5957 71.5 53.5957 70.812C53.5957 70.132 53.4957 69.532 53.2957 69.012C53.1037 68.484 52.8357 68.072 52.4917 67.776C52.1477 67.472 51.7437 67.32 51.2797 67.32C50.8237 67.32 50.4197 67.472 50.0677 67.776C49.7237 68.072 49.4557 68.484 49.2637 69.012C49.0717 69.532 48.9757 70.132 48.9757 70.812C48.9757 71.5 49.0717 72.108 49.2637 72.636C49.4557 73.156 49.7237 73.56 50.0677 73.848C50.4197 74.136 50.8237 74.28 51.2797 74.28ZM57.1226 75.18C57.0026 75.18 56.8986 75.14 56.8106 75.06C56.7306 74.988 56.6826 74.896 56.6666 74.784C56.6506 74.672 56.6786 74.564 56.7506 74.46L62.2466 66.672C62.2866 66.608 62.3386 66.556 62.4026 66.516C62.4746 66.476 62.5506 66.456 62.6306 66.456C62.7586 66.456 62.8626 66.496 62.9426 66.576C63.0226 66.648 63.0706 66.74 63.0866 66.852C63.1026 66.964 63.0746 67.076 63.0026 67.188L57.5066 74.976C57.4666 75.032 57.4106 75.08 57.3386 75.12C57.2746 75.16 57.2026 75.18 57.1226 75.18ZM57.3986 70.536C57.0306 70.536 56.6906 70.444 56.3786 70.26C56.0666 70.068 55.8186 69.816 55.6346 69.504C55.4506 69.192 55.3586 68.852 55.3586 68.484C55.3586 68.108 55.4506 67.764 55.6346 67.452C55.8186 67.14 56.0666 66.892 56.3786 66.708C56.6906 66.524 57.0306 66.432 57.3986 66.432C57.7746 66.432 58.1186 66.524 58.4306 66.708C58.7426 66.892 58.9906 67.14 59.1746 67.452C59.3586 67.764 59.4506 68.108 59.4506 68.484C59.4506 68.852 59.3586 69.192 59.1746 69.504C58.9906 69.816 58.7426 70.068 58.4306 70.26C58.1186 70.444 57.7746 70.536 57.3986 70.536ZM57.3986 69.66C57.6226 69.66 57.8186 69.608 57.9866 69.504C58.1546 69.392 58.2866 69.248 58.3826 69.072C58.4786 68.896 58.5266 68.7 58.5266 68.484C58.5266 68.156 58.4226 67.88 58.2146 67.656C58.0066 67.432 57.7346 67.32 57.3986 67.32C57.1906 67.32 56.9986 67.372 56.8226 67.476C56.6546 67.58 56.5226 67.72 56.4266 67.896C56.3306 68.064 56.2826 68.26 56.2826 68.484C56.2826 68.7 56.3306 68.896 56.4266 69.072C56.5226 69.248 56.6546 69.392 56.8226 69.504C56.9986 69.608 57.1906 69.66 57.3986 69.66ZM62.4146 75.168C62.0466 75.168 61.7066 75.076 61.3946 74.892C61.0826 74.7 60.8346 74.448 60.6506 74.136C60.4666 73.816 60.3746 73.472 60.3746 73.104C60.3746 72.728 60.4666 72.384 60.6506 72.072C60.8346 71.76 61.0826 71.512 61.3946 71.328C61.7066 71.144 62.0466 71.052 62.4146 71.052C62.7906 71.052 63.1346 71.144 63.4466 71.328C63.7586 71.512 64.0066 71.76 64.1906 72.072C64.3746 72.384 64.4666 72.728 64.4666 73.104C64.4666 73.472 64.3746 73.816 64.1906 74.136C64.0066 74.448 63.7586 74.7 63.4466 74.892C63.1346 75.076 62.7906 75.168 62.4146 75.168ZM62.4146 74.268C62.6386 74.268 62.8346 74.216 63.0026 74.112C63.1706 74.008 63.3026 73.868 63.3986 73.692C63.4946 73.516 63.5426 73.32 63.5426 73.104C63.5426 72.776 63.4386 72.5 63.2306 72.276C63.0226 72.052 62.7506 71.94 62.4146 71.94C62.2066 71.94 62.0146 71.992 61.8386 72.096C61.6706 72.2 61.5386 72.34 61.4426 72.516C61.3466 72.684 61.2986 72.88 61.2986 73.104C61.2986 73.32 61.3466 73.516 61.4426 73.692C61.5386 73.868 61.6706 74.008 61.8386 74.112C62.0146 74.216 62.2066 74.268 62.4146 74.268Z" fill="white"/>
<path d="M78.24 74.18C77.68 74.18 77.192 74.04 76.776 73.76C76.36 73.472 76.04 73.08 75.816 72.584C75.592 72.088 75.48 71.528 75.48 70.904C75.48 70.272 75.592 69.712 75.816 69.224C76.048 68.736 76.372 68.352 76.788 68.072C77.204 67.784 77.692 67.64 78.252 67.64C78.716 67.64 79.108 67.728 79.428 67.904C79.756 68.072 80.008 68.272 80.184 68.504C80.36 68.736 80.456 68.952 80.472 69.152C80.496 69.32 80.46 69.448 80.364 69.536C80.276 69.624 80.168 69.668 80.04 69.668C79.912 69.668 79.816 69.636 79.752 69.572C79.688 69.508 79.636 69.436 79.596 69.356C79.492 69.14 79.332 68.948 79.116 68.78C78.9 68.604 78.608 68.516 78.24 68.516C77.856 68.516 77.532 68.62 77.268 68.828C77.004 69.028 76.8 69.308 76.656 69.668C76.52 70.028 76.452 70.436 76.452 70.892C76.452 71.62 76.612 72.2 76.932 72.632C77.26 73.064 77.7 73.28 78.252 73.28C78.676 73.28 79.004 73.168 79.236 72.944C79.476 72.72 79.644 72.468 79.74 72.188C79.78 72.076 79.836 71.984 79.908 71.912C79.98 71.84 80.076 71.804 80.196 71.804C80.332 71.804 80.44 71.852 80.52 71.948C80.608 72.044 80.644 72.176 80.628 72.344C80.62 72.496 80.56 72.676 80.448 72.884C80.344 73.092 80.192 73.296 79.992 73.496C79.8 73.696 79.556 73.86 79.26 73.988C78.972 74.116 78.632 74.18 78.24 74.18ZM84.3349 74.18C83.7749 74.18 83.2829 74.044 82.8589 73.772C82.4429 73.492 82.1149 73.104 81.8749 72.608C81.6429 72.112 81.5269 71.54 81.5269 70.892C81.5269 70.244 81.6429 69.676 81.8749 69.188C82.1149 68.7 82.4429 68.32 82.8589 68.048C83.2829 67.776 83.7749 67.64 84.3349 67.64C84.9029 67.64 85.3989 67.776 85.8229 68.048C86.2549 68.32 86.5909 68.7 86.8309 69.188C87.0709 69.676 87.1909 70.244 87.1909 70.892C87.1909 71.54 87.0709 72.112 86.8309 72.608C86.5909 73.104 86.2549 73.492 85.8229 73.772C85.3989 74.044 84.9029 74.18 84.3349 74.18ZM84.3349 73.28C84.9269 73.28 85.3869 73.068 85.7149 72.644C86.0429 72.22 86.2069 71.636 86.2069 70.892C86.2069 70.164 86.0429 69.588 85.7149 69.164C85.3869 68.74 84.9269 68.528 84.3349 68.528C83.7509 68.528 83.2989 68.74 82.9789 69.164C82.6589 69.588 82.4989 70.164 82.4989 70.892C82.4989 71.636 82.6589 72.22 82.9789 72.644C83.2989 73.068 83.7509 73.28 84.3349 73.28ZM88.988 74.12C88.852 74.12 88.736 74.072 88.64 73.976C88.552 73.88 88.508 73.76 88.508 73.616V68.192C88.508 68.048 88.552 67.932 88.64 67.844C88.736 67.748 88.852 67.7 88.988 67.7C89.132 67.7 89.248 67.748 89.336 67.844C89.432 67.932 89.48 68.048 89.48 68.192V68.924L89.276 68.756C89.444 68.492 89.632 68.28 89.84 68.12C90.056 67.952 90.288 67.832 90.536 67.76C90.784 67.68 91.036 67.64 91.292 67.64C91.756 67.64 92.164 67.752 92.516 67.976C92.876 68.2 93.14 68.524 93.308 68.948L92.96 68.996C93.168 68.644 93.396 68.372 93.644 68.18C93.892 67.98 94.144 67.84 94.4 67.76C94.664 67.68 94.924 67.64 95.18 67.64C95.604 67.64 95.984 67.732 96.32 67.916C96.656 68.092 96.92 68.352 97.112 68.696C97.304 69.032 97.4 69.44 97.4 69.92V73.616C97.4 73.76 97.356 73.88 97.268 73.976C97.18 74.072 97.068 74.12 96.932 74.12C96.788 74.12 96.668 74.072 96.572 73.976C96.484 73.88 96.44 73.76 96.44 73.616V69.956C96.44 69.508 96.308 69.16 96.044 68.912C95.788 68.664 95.448 68.54 95.024 68.54C94.752 68.54 94.5 68.596 94.268 68.708C94.036 68.812 93.852 68.968 93.716 69.176C93.58 69.376 93.512 69.624 93.512 69.92V73.616C93.512 73.76 93.464 73.88 93.368 73.976C93.28 74.072 93.168 74.12 93.032 74.12C92.888 74.12 92.768 74.072 92.672 73.976C92.584 73.88 92.54 73.76 92.54 73.616V69.956C92.54 69.508 92.412 69.16 92.156 68.912C91.9 68.656 91.56 68.528 91.136 68.528C90.848 68.528 90.576 68.588 90.32 68.708C90.072 68.82 89.868 68.984 89.708 69.2C89.556 69.408 89.48 69.656 89.48 69.944V73.616C89.48 73.76 89.432 73.88 89.336 73.976C89.248 74.072 89.132 74.12 88.988 74.12ZM101.864 74.18C101.504 74.18 101.196 74.124 100.94 74.012C100.692 73.9 100.484 73.76 100.316 73.592C100.148 73.424 100.016 73.26 99.9197 73.1L99.9917 73.052V76.028C99.9917 76.164 99.9437 76.28 99.8477 76.376C99.7517 76.472 99.6357 76.52 99.4997 76.52C99.3717 76.52 99.2597 76.472 99.1637 76.376C99.0677 76.28 99.0197 76.164 99.0197 76.028V68.216C99.0197 68.08 99.0677 67.96 99.1637 67.856C99.2597 67.752 99.3717 67.7 99.4997 67.7C99.6357 67.7 99.7517 67.748 99.8477 67.844C99.9437 67.932 99.9917 68.052 99.9917 68.204L99.9797 68.744L99.9317 68.732C100.068 68.46 100.308 68.212 100.652 67.988C100.996 67.756 101.416 67.64 101.912 67.64C102.312 67.64 102.672 67.724 102.992 67.892C103.312 68.052 103.584 68.28 103.808 68.576C104.032 68.864 104.204 69.208 104.324 69.608C104.444 70 104.504 70.428 104.504 70.892C104.504 71.356 104.444 71.788 104.324 72.188C104.212 72.58 104.04 72.928 103.808 73.232C103.584 73.528 103.308 73.76 102.98 73.928C102.66 74.096 102.288 74.18 101.864 74.18ZM101.732 73.292C102.292 73.292 102.732 73.08 103.052 72.656C103.372 72.224 103.532 71.636 103.532 70.892C103.532 70.404 103.46 69.984 103.316 69.632C103.18 69.28 102.976 69.008 102.704 68.816C102.44 68.624 102.112 68.528 101.72 68.528C101.144 68.528 100.7 68.736 100.388 69.152C100.076 69.568 99.9197 70.144 99.9197 70.88C99.9197 71.624 100.08 72.212 100.4 72.644C100.72 73.076 101.164 73.292 101.732 73.292ZM107.628 74.18C107.18 74.18 106.792 74.1 106.464 73.94C106.144 73.772 105.896 73.548 105.72 73.268C105.552 72.988 105.468 72.676 105.468 72.332C105.468 71.836 105.652 71.412 106.02 71.06C106.396 70.7 106.996 70.472 107.82 70.376C108.164 70.336 108.46 70.292 108.708 70.244C108.956 70.196 109.148 70.116 109.284 70.004C109.428 69.892 109.5 69.728 109.5 69.512C109.5 69.344 109.456 69.188 109.368 69.044C109.288 68.892 109.152 68.768 108.96 68.672C108.776 68.576 108.528 68.528 108.216 68.528C107.8 68.528 107.488 68.612 107.28 68.78C107.072 68.94 106.928 69.1 106.848 69.26C106.792 69.364 106.724 69.444 106.644 69.5C106.564 69.556 106.468 69.584 106.356 69.584C106.22 69.584 106.116 69.544 106.044 69.464C105.972 69.376 105.936 69.268 105.936 69.14C105.936 68.988 105.988 68.828 106.092 68.66C106.196 68.484 106.348 68.32 106.548 68.168C106.756 68.008 107.004 67.88 107.292 67.784C107.588 67.688 107.924 67.64 108.3 67.64C108.844 67.64 109.272 67.744 109.584 67.952C109.904 68.152 110.132 68.428 110.268 68.78C110.404 69.124 110.472 69.508 110.472 69.932V72.92C110.472 73 110.48 73.06 110.496 73.1C110.52 73.14 110.56 73.164 110.616 73.172C110.728 73.18 110.824 73.228 110.904 73.316C110.984 73.396 111.024 73.5 111.024 73.628C111.024 73.764 110.968 73.88 110.856 73.976C110.752 74.072 110.604 74.12 110.412 74.12C110.172 74.12 109.984 74.052 109.848 73.916C109.72 73.772 109.656 73.596 109.656 73.388V73.184H109.62C109.42 73.48 109.156 73.72 108.828 73.904C108.508 74.088 108.108 74.18 107.628 74.18ZM107.64 73.292C108 73.292 108.32 73.216 108.6 73.064C108.888 72.912 109.112 72.708 109.272 72.452C109.44 72.196 109.524 71.912 109.524 71.6V70.784C109.524 70.768 109.516 70.76 109.5 70.76C109.492 70.752 109.476 70.764 109.452 70.796C109.332 70.892 109.168 70.968 108.96 71.024C108.76 71.072 108.556 71.112 108.348 71.144C108.14 71.176 107.968 71.204 107.832 71.228C107.416 71.292 107.076 71.404 106.812 71.564C106.556 71.724 106.428 71.964 106.428 72.284C106.428 72.524 106.52 72.752 106.704 72.968C106.888 73.184 107.2 73.292 107.64 73.292ZM112.672 74.12C112.536 74.12 112.42 74.072 112.324 73.976C112.236 73.872 112.192 73.752 112.192 73.616V68.192C112.192 68.056 112.236 67.94 112.324 67.844C112.42 67.748 112.536 67.7 112.672 67.7C112.808 67.7 112.924 67.748 113.02 67.844C113.116 67.94 113.164 68.056 113.164 68.192V69.008L113.044 68.768C113.124 68.6 113.244 68.428 113.404 68.252C113.572 68.076 113.772 67.932 114.004 67.82C114.244 67.7 114.52 67.64 114.832 67.64C115 67.64 115.132 67.684 115.228 67.772C115.332 67.86 115.384 67.972 115.384 68.108C115.384 68.244 115.336 68.36 115.24 68.456C115.144 68.552 115.024 68.6 114.88 68.6C114.544 68.6 114.248 68.672 113.992 68.816C113.736 68.952 113.532 69.132 113.38 69.356C113.236 69.572 113.164 69.8 113.164 70.04V73.616C113.164 73.752 113.116 73.872 113.02 73.976C112.924 74.072 112.808 74.12 112.672 74.12ZM118.626 74.18C118.098 74.18 117.614 74.06 117.174 73.82C116.742 73.58 116.394 73.22 116.13 72.74C115.874 72.26 115.746 71.668 115.746 70.964C115.746 70.292 115.866 69.708 116.106 69.212C116.346 68.716 116.67 68.332 117.078 68.06C117.494 67.78 117.966 67.64 118.494 67.64C118.902 67.64 119.27 67.72 119.598 67.88C119.926 68.032 120.202 68.244 120.426 68.516C120.658 68.78 120.834 69.08 120.954 69.416C121.082 69.744 121.146 70.088 121.146 70.448C121.146 70.68 121.102 70.868 121.014 71.012C120.926 71.148 120.746 71.216 120.474 71.216H116.73C116.762 71.704 116.866 72.1 117.042 72.404C117.218 72.708 117.438 72.932 117.702 73.076C117.974 73.212 118.27 73.28 118.59 73.28C119.022 73.28 119.366 73.18 119.622 72.98C119.878 72.78 120.054 72.544 120.15 72.272C120.19 72.176 120.242 72.096 120.306 72.032C120.378 71.96 120.474 71.924 120.594 71.924C120.73 71.924 120.838 71.976 120.918 72.08C120.998 72.176 121.034 72.304 121.026 72.464C121.018 72.624 120.962 72.804 120.858 73.004C120.754 73.196 120.602 73.384 120.402 73.568C120.21 73.744 119.966 73.888 119.67 74C119.374 74.12 119.026 74.18 118.626 74.18ZM116.742 70.388H120.222C120.166 69.844 119.99 69.4 119.694 69.056C119.398 68.704 118.994 68.528 118.482 68.528C118.026 68.528 117.638 68.684 117.318 68.996C117.006 69.308 116.814 69.772 116.742 70.388ZM124.725 74.18C124.149 74.18 123.665 74.028 123.273 73.724C122.889 73.42 122.597 73.02 122.397 72.524C122.205 72.028 122.109 71.496 122.109 70.928C122.109 70.328 122.213 69.78 122.421 69.284C122.629 68.788 122.933 68.392 123.333 68.096C123.741 67.792 124.233 67.64 124.809 67.64C125.145 67.64 125.437 67.692 125.685 67.796C125.941 67.892 126.157 68.02 126.333 68.18C126.509 68.332 126.645 68.496 126.741 68.672L126.645 68.696V65.732C126.645 65.596 126.689 65.48 126.777 65.384C126.873 65.288 126.989 65.24 127.125 65.24C127.261 65.24 127.373 65.288 127.461 65.384C127.557 65.48 127.605 65.596 127.605 65.732V73.592C127.605 73.736 127.557 73.86 127.461 73.964C127.373 74.06 127.261 74.108 127.125 74.108C126.989 74.108 126.873 74.06 126.777 73.964C126.689 73.86 126.645 73.736 126.645 73.592V73.028L126.729 73.04C126.641 73.24 126.501 73.428 126.309 73.604C126.125 73.772 125.897 73.908 125.625 74.012C125.361 74.124 125.061 74.18 124.725 74.18ZM124.917 73.28C125.485 73.264 125.921 73.044 126.225 72.62C126.537 72.196 126.693 71.632 126.693 70.928C126.693 70.192 126.533 69.608 126.213 69.176C125.901 68.744 125.457 68.528 124.881 68.528C124.321 68.528 123.877 68.744 123.549 69.176C123.229 69.6 123.069 70.18 123.069 70.916C123.069 71.652 123.229 72.232 123.549 72.656C123.877 73.08 124.333 73.288 124.917 73.28ZM134.274 74.12C134.002 74.12 133.766 74.06 133.566 73.94C133.374 73.812 133.226 73.636 133.122 73.412C133.018 73.18 132.966 72.916 132.966 72.62V66.98C132.966 66.844 133.01 66.732 133.098 66.644C133.194 66.548 133.31 66.5 133.446 66.5C133.582 66.5 133.694 66.548 133.782 66.644C133.878 66.732 133.926 66.844 133.926 66.98V72.608C133.926 72.76 133.95 72.892 133.998 73.004C134.046 73.108 134.146 73.16 134.298 73.16C134.402 73.16 134.478 73.136 134.526 73.088C134.582 73.04 134.638 72.996 134.694 72.956C134.75 72.908 134.83 72.884 134.934 72.884C135.078 72.884 135.194 72.932 135.282 73.028C135.37 73.116 135.414 73.228 135.414 73.364C135.414 73.508 135.358 73.64 135.246 73.76C135.142 73.872 135.002 73.96 134.826 74.024C134.658 74.088 134.474 74.12 134.274 74.12ZM132.582 68.696C132.454 68.696 132.342 68.656 132.246 68.576C132.158 68.488 132.114 68.38 132.114 68.252C132.114 68.132 132.158 68.032 132.246 67.952C132.342 67.864 132.454 67.82 132.582 67.82H135.114C135.242 67.82 135.35 67.864 135.438 67.952C135.534 68.032 135.582 68.132 135.582 68.252C135.582 68.38 135.534 68.488 135.438 68.576C135.35 68.656 135.242 68.696 135.114 68.696H132.582ZM139.354 74.18C138.794 74.18 138.302 74.044 137.878 73.772C137.462 73.492 137.134 73.104 136.894 72.608C136.662 72.112 136.546 71.54 136.546 70.892C136.546 70.244 136.662 69.676 136.894 69.188C137.134 68.7 137.462 68.32 137.878 68.048C138.302 67.776 138.794 67.64 139.354 67.64C139.922 67.64 140.418 67.776 140.842 68.048C141.274 68.32 141.61 68.7 141.85 69.188C142.09 69.676 142.21 70.244 142.21 70.892C142.21 71.54 142.09 72.112 141.85 72.608C141.61 73.104 141.274 73.492 140.842 73.772C140.418 74.044 139.922 74.18 139.354 74.18ZM139.354 73.28C139.946 73.28 140.406 73.068 140.734 72.644C141.062 72.22 141.226 71.636 141.226 70.892C141.226 70.164 141.062 69.588 140.734 69.164C140.406 68.74 139.946 68.528 139.354 68.528C138.77 68.528 138.318 68.74 137.998 69.164C137.678 69.588 137.518 70.164 137.518 70.892C137.518 71.636 137.678 72.22 137.998 72.644C138.318 73.068 138.77 73.28 139.354 73.28ZM147.312 74.12C147.176 74.12 147.06 74.072 146.964 73.976C146.876 73.872 146.832 73.752 146.832 73.616V65.732C146.832 65.596 146.876 65.48 146.964 65.384C147.06 65.288 147.176 65.24 147.312 65.24C147.448 65.24 147.564 65.288 147.66 65.384C147.756 65.48 147.804 65.596 147.804 65.732V73.616C147.804 73.752 147.756 73.872 147.66 73.976C147.564 74.072 147.448 74.12 147.312 74.12ZM151.281 74.18C150.833 74.18 150.445 74.1 150.117 73.94C149.797 73.772 149.549 73.548 149.373 73.268C149.205 72.988 149.121 72.676 149.121 72.332C149.121 71.836 149.305 71.412 149.673 71.06C150.049 70.7 150.649 70.472 151.473 70.376C151.817 70.336 152.113 70.292 152.361 70.244C152.609 70.196 152.801 70.116 152.937 70.004C153.081 69.892 153.153 69.728 153.153 69.512C153.153 69.344 153.109 69.188 153.021 69.044C152.941 68.892 152.805 68.768 152.613 68.672C152.429 68.576 152.181 68.528 151.869 68.528C151.453 68.528 151.141 68.612 150.933 68.78C150.725 68.94 150.581 69.1 150.501 69.26C150.445 69.364 150.377 69.444 150.297 69.5C150.217 69.556 150.121 69.584 150.009 69.584C149.873 69.584 149.769 69.544 149.697 69.464C149.625 69.376 149.589 69.268 149.589 69.14C149.589 68.988 149.641 68.828 149.745 68.66C149.849 68.484 150.001 68.32 150.201 68.168C150.409 68.008 150.657 67.88 150.945 67.784C151.241 67.688 151.577 67.64 151.953 67.64C152.497 67.64 152.925 67.744 153.237 67.952C153.557 68.152 153.785 68.428 153.921 68.78C154.057 69.124 154.125 69.508 154.125 69.932V72.92C154.125 73 154.133 73.06 154.149 73.1C154.173 73.14 154.213 73.164 154.269 73.172C154.381 73.18 154.477 73.228 154.557 73.316C154.637 73.396 154.677 73.5 154.677 73.628C154.677 73.764 154.621 73.88 154.509 73.976C154.405 74.072 154.257 74.12 154.065 74.12C153.825 74.12 153.637 74.052 153.501 73.916C153.373 73.772 153.309 73.596 153.309 73.388V73.184H153.273C153.073 73.48 152.809 73.72 152.481 73.904C152.161 74.088 151.761 74.18 151.281 74.18ZM151.293 73.292C151.653 73.292 151.973 73.216 152.253 73.064C152.541 72.912 152.765 72.708 152.925 72.452C153.093 72.196 153.177 71.912 153.177 71.6V70.784C153.177 70.768 153.169 70.76 153.153 70.76C153.145 70.752 153.129 70.764 153.105 70.796C152.985 70.892 152.821 70.968 152.613 71.024C152.413 71.072 152.209 71.112 152.001 71.144C151.793 71.176 151.621 71.204 151.485 71.228C151.069 71.292 150.729 71.404 150.465 71.564C150.209 71.724 150.081 71.964 150.081 72.284C150.081 72.524 150.173 72.752 150.357 72.968C150.541 73.184 150.853 73.292 151.293 73.292ZM157.956 74.216C157.412 74.216 156.96 74.12 156.6 73.928C156.24 73.728 155.968 73.496 155.784 73.232C155.6 72.96 155.5 72.716 155.484 72.5C155.476 72.332 155.512 72.204 155.592 72.116C155.68 72.02 155.788 71.972 155.916 71.972C156.036 71.972 156.132 72.008 156.204 72.08C156.276 72.144 156.328 72.22 156.36 72.308C156.456 72.58 156.632 72.82 156.888 73.028C157.144 73.228 157.504 73.328 157.968 73.328C158.392 73.328 158.716 73.24 158.94 73.064C159.164 72.88 159.276 72.644 159.276 72.356C159.276 72.132 159.208 71.956 159.072 71.828C158.944 71.692 158.764 71.584 158.532 71.504C158.3 71.424 158.032 71.344 157.728 71.264C157.504 71.2 157.272 71.132 157.032 71.06C156.792 70.98 156.568 70.876 156.36 70.748C156.152 70.62 155.984 70.456 155.856 70.256C155.728 70.056 155.664 69.804 155.664 69.5C155.664 69.164 155.752 68.856 155.928 68.576C156.104 68.288 156.36 68.06 156.696 67.892C157.032 67.716 157.432 67.628 157.896 67.628C158.368 67.628 158.764 67.708 159.084 67.868C159.404 68.028 159.648 68.224 159.816 68.456C159.992 68.68 160.084 68.896 160.092 69.104C160.1 69.256 160.068 69.376 159.996 69.464C159.924 69.552 159.82 69.596 159.684 69.596C159.596 69.596 159.508 69.572 159.42 69.524C159.332 69.476 159.256 69.4 159.192 69.296C159.136 69.184 159.06 69.068 158.964 68.948C158.876 68.82 158.748 68.716 158.58 68.636C158.412 68.548 158.18 68.504 157.884 68.504C157.508 68.504 157.2 68.588 156.96 68.756C156.72 68.916 156.6 69.136 156.6 69.416C156.6 69.632 156.668 69.8 156.804 69.92C156.948 70.04 157.132 70.136 157.356 70.208C157.588 70.28 157.84 70.356 158.112 70.436C158.368 70.508 158.62 70.588 158.868 70.676C159.116 70.756 159.34 70.864 159.54 71C159.748 71.128 159.912 71.292 160.032 71.492C160.16 71.692 160.224 71.94 160.224 72.236C160.224 72.532 160.148 72.836 159.996 73.148C159.852 73.452 159.612 73.708 159.276 73.916C158.948 74.116 158.508 74.216 157.956 74.216ZM163.219 74.12C162.947 74.12 162.711 74.06 162.511 73.94C162.319 73.812 162.171 73.636 162.067 73.412C161.963 73.18 161.911 72.916 161.911 72.62V66.98C161.911 66.844 161.955 66.732 162.043 66.644C162.139 66.548 162.255 66.5 162.391 66.5C162.527 66.5 162.639 66.548 162.727 66.644C162.823 66.732 162.871 66.844 162.871 66.98V72.608C162.871 72.76 162.895 72.892 162.943 73.004C162.991 73.108 163.091 73.16 163.243 73.16C163.347 73.16 163.423 73.136 163.471 73.088C163.527 73.04 163.583 72.996 163.639 72.956C163.695 72.908 163.775 72.884 163.879 72.884C164.023 72.884 164.139 72.932 164.227 73.028C164.315 73.116 164.359 73.228 164.359 73.364C164.359 73.508 164.303 73.64 164.191 73.76C164.087 73.872 163.947 73.96 163.771 74.024C163.603 74.088 163.419 74.12 163.219 74.12ZM161.527 68.696C161.399 68.696 161.287 68.656 161.191 68.576C161.103 68.488 161.059 68.38 161.059 68.252C161.059 68.132 161.103 68.032 161.191 67.952C161.287 67.864 161.399 67.82 161.527 67.82H164.059C164.187 67.82 164.295 67.864 164.383 67.952C164.479 68.032 164.527 68.132 164.527 68.252C164.527 68.38 164.479 68.488 164.383 68.576C164.295 68.656 164.187 68.696 164.059 68.696H161.527ZM169.636 74.12C169.5 74.12 169.384 74.072 169.288 73.976C169.2 73.88 169.156 73.76 169.156 73.616V68.192C169.156 68.048 169.2 67.932 169.288 67.844C169.384 67.748 169.5 67.7 169.636 67.7C169.78 67.7 169.896 67.748 169.984 67.844C170.08 67.932 170.128 68.048 170.128 68.192V68.924L169.924 68.756C170.092 68.492 170.28 68.28 170.488 68.12C170.704 67.952 170.936 67.832 171.184 67.76C171.432 67.68 171.684 67.64 171.94 67.64C172.404 67.64 172.812 67.752 173.164 67.976C173.524 68.2 173.788 68.524 173.956 68.948L173.608 68.996C173.816 68.644 174.044 68.372 174.292 68.18C174.54 67.98 174.792 67.84 175.048 67.76C175.312 67.68 175.572 67.64 175.828 67.64C176.252 67.64 176.632 67.732 176.968 67.916C177.304 68.092 177.568 68.352 177.76 68.696C177.952 69.032 178.048 69.44 178.048 69.92V73.616C178.048 73.76 178.004 73.88 177.916 73.976C177.828 74.072 177.716 74.12 177.58 74.12C177.436 74.12 177.316 74.072 177.22 73.976C177.132 73.88 177.088 73.76 177.088 73.616V69.956C177.088 69.508 176.956 69.16 176.692 68.912C176.436 68.664 176.096 68.54 175.672 68.54C175.4 68.54 175.148 68.596 174.916 68.708C174.684 68.812 174.5 68.968 174.364 69.176C174.228 69.376 174.16 69.624 174.16 69.92V73.616C174.16 73.76 174.112 73.88 174.016 73.976C173.928 74.072 173.816 74.12 173.68 74.12C173.536 74.12 173.416 74.072 173.32 73.976C173.232 73.88 173.188 73.76 173.188 73.616V69.956C173.188 69.508 173.06 69.16 172.804 68.912C172.548 68.656 172.208 68.528 171.784 68.528C171.496 68.528 171.224 68.588 170.968 68.708C170.72 68.82 170.516 68.984 170.356 69.2C170.204 69.408 170.128 69.656 170.128 69.944V73.616C170.128 73.76 170.08 73.88 169.984 73.976C169.896 74.072 169.78 74.12 169.636 74.12ZM182.116 74.18C181.556 74.18 181.064 74.044 180.64 73.772C180.224 73.492 179.896 73.104 179.656 72.608C179.424 72.112 179.308 71.54 179.308 70.892C179.308 70.244 179.424 69.676 179.656 69.188C179.896 68.7 180.224 68.32 180.64 68.048C181.064 67.776 181.556 67.64 182.116 67.64C182.684 67.64 183.18 67.776 183.604 68.048C184.036 68.32 184.372 68.7 184.612 69.188C184.852 69.676 184.972 70.244 184.972 70.892C184.972 71.54 184.852 72.112 184.612 72.608C184.372 73.104 184.036 73.492 183.604 73.772C183.18 74.044 182.684 74.18 182.116 74.18ZM182.116 73.28C182.708 73.28 183.168 73.068 183.496 72.644C183.824 72.22 183.988 71.636 183.988 70.892C183.988 70.164 183.824 69.588 183.496 69.164C183.168 68.74 182.708 68.528 182.116 68.528C181.532 68.528 181.08 68.74 180.76 69.164C180.44 69.588 180.28 70.164 180.28 70.892C180.28 71.636 180.44 72.22 180.76 72.644C181.08 73.068 181.532 73.28 182.116 73.28ZM186.769 74.12C186.633 74.12 186.517 74.072 186.421 73.976C186.333 73.88 186.289 73.76 186.289 73.616V68.192C186.289 68.048 186.333 67.932 186.421 67.844C186.517 67.748 186.633 67.7 186.769 67.7C186.913 67.7 187.029 67.748 187.117 67.844C187.213 67.932 187.261 68.048 187.261 68.192V68.996L187.057 68.78C187.313 68.388 187.617 68.1 187.969 67.916C188.329 67.732 188.713 67.64 189.121 67.64C189.553 67.64 189.941 67.732 190.285 67.916C190.629 68.092 190.897 68.352 191.089 68.696C191.289 69.032 191.389 69.448 191.389 69.944V73.616C191.389 73.76 191.345 73.88 191.257 73.976C191.169 74.072 191.053 74.12 190.909 74.12C190.757 74.12 190.637 74.072 190.549 73.976C190.461 73.88 190.417 73.76 190.417 73.616V69.98C190.417 69.524 190.281 69.168 190.009 68.912C189.745 68.656 189.393 68.528 188.953 68.528C188.657 68.528 188.381 68.588 188.125 68.708C187.869 68.828 187.661 69 187.501 69.224C187.341 69.44 187.261 69.7 187.261 70.004V73.616C187.261 73.76 187.213 73.88 187.117 73.976C187.029 74.072 186.913 74.12 186.769 74.12ZM194.684 74.12C194.412 74.12 194.176 74.06 193.976 73.94C193.784 73.812 193.636 73.636 193.532 73.412C193.428 73.18 193.376 72.916 193.376 72.62V66.98C193.376 66.844 193.42 66.732 193.508 66.644C193.604 66.548 193.72 66.5 193.856 66.5C193.992 66.5 194.104 66.548 194.192 66.644C194.288 66.732 194.336 66.844 194.336 66.98V72.608C194.336 72.76 194.36 72.892 194.408 73.004C194.456 73.108 194.556 73.16 194.708 73.16C194.812 73.16 194.888 73.136 194.936 73.088C194.992 73.04 195.048 72.996 195.104 72.956C195.16 72.908 195.24 72.884 195.344 72.884C195.488 72.884 195.604 72.932 195.692 73.028C195.78 73.116 195.824 73.228 195.824 73.364C195.824 73.508 195.768 73.64 195.656 73.76C195.552 73.872 195.412 73.96 195.236 74.024C195.068 74.088 194.884 74.12 194.684 74.12ZM192.992 68.696C192.864 68.696 192.752 68.656 192.656 68.576C192.568 68.488 192.524 68.38 192.524 68.252C192.524 68.132 192.568 68.032 192.656 67.952C192.752 67.864 192.864 67.82 192.992 67.82H195.524C195.652 67.82 195.76 67.864 195.848 67.952C195.944 68.032 195.992 68.132 195.992 68.252C195.992 68.38 195.944 68.488 195.848 68.576C195.76 68.656 195.652 68.696 195.524 68.696H192.992ZM197.797 74.12C197.661 74.12 197.545 74.072 197.449 73.976C197.361 73.88 197.317 73.76 197.317 73.616V65.732C197.317 65.588 197.361 65.472 197.449 65.384C197.545 65.288 197.661 65.24 197.797 65.24C197.941 65.24 198.057 65.288 198.145 65.384C198.241 65.472 198.289 65.588 198.289 65.732V68.996L198.085 68.78C198.341 68.388 198.641 68.1 198.985 67.916C199.337 67.732 199.717 67.64 200.125 67.64C200.549 67.64 200.929 67.732 201.265 67.916C201.609 68.092 201.877 68.352 202.069 68.696C202.269 69.032 202.369 69.448 202.369 69.944V73.616C202.369 73.76 202.325 73.88 202.237 73.976C202.149 74.072 202.033 74.12 201.889 74.12C201.753 74.12 201.637 74.072 201.541 73.976C201.453 73.88 201.409 73.76 201.409 73.616V69.98C201.409 69.524 201.277 69.168 201.013 68.912C200.749 68.656 200.405 68.528 199.981 68.528C199.685 68.528 199.405 68.588 199.141 68.708C198.885 68.828 198.677 69 198.517 69.224C198.365 69.44 198.289 69.7 198.289 70.004V73.616C198.289 73.76 198.241 73.88 198.145 73.976C198.057 74.072 197.941 74.12 197.797 74.12Z" fill="#2E2C28"/>
</g>
<defs>
<filter id="filter0_d_6007_18076" x="0" y="0" width="220" height="101" filterUnits="userSpaceOnUse" color-interpolation-filters="sRGB">
<feFlood flood-opacity="0" result="BackgroundImageFix"/>
<feColorMatrix in="SourceAlpha" type="matrix" values="0 0 0 0 0 0 0 0 0 0 0 0 0 0 0 0 0 0 127 0" result="hardAlpha"/>
<feOffset dy="4"/>
<feGaussianBlur stdDeviation="2"/>
<feComposite in2="hardAlpha" operator="out"/>
<feColorMatrix type="matrix" values="0 0 0 0 0 0 0 0 0 0 0 0 0 0 0 0 0 0 0.15 0"/>
<feBlend mode="normal" in2="BackgroundImageFix" result="effect1_dropShadow_6007_18076"/>
<feBlend mode="normal" in="SourceGraphic" in2="effect1_dropShadow_6007_18076" result="shape"/>
</filter>
<clipPath id="clip0_6007_18076">
<rect width="7.02056" height="7.25806" fill="white" transform="translate(22.125 67.3708)"/>
</clipPath>
</defs>
</svg>
