<svg width="235" height="60" viewBox="0 0 235 60" fill="none" xmlns="http://www.w3.org/2000/svg">
<g filter="url(#filter0_d_6007_18148)">
<rect x="6" y="2" width="223" height="48" rx="16" fill="#E0F6EB" shape-rendering="crispEdges"/>
<rect x="5" y="1" width="225" height="50" rx="17" stroke="#267F53" stroke-width="2" shape-rendering="crispEdges"/>
<path d="M24.6 30.18C23.976 30.18 23.428 30.076 22.956 29.868C22.492 29.66 22.128 29.396 21.864 29.076C21.608 28.748 21.48 28.408 21.48 28.056C21.48 27.856 21.54 27.692 21.66 27.564C21.788 27.436 21.956 27.372 22.164 27.372C22.364 27.372 22.512 27.432 22.608 27.552C22.704 27.664 22.788 27.796 22.86 27.948C22.98 28.196 23.172 28.416 23.436 28.608C23.708 28.792 24.08 28.884 24.552 28.884C24.824 28.884 25.076 28.848 25.308 28.776C25.54 28.704 25.724 28.584 25.86 28.416C26.004 28.24 26.076 28.016 26.076 27.744C26.076 27.504 26.012 27.308 25.884 27.156C25.764 27.004 25.58 26.864 25.332 26.736C25.084 26.608 24.772 26.472 24.396 26.328C24.108 26.216 23.816 26.096 23.52 25.968C23.224 25.84 22.956 25.688 22.716 25.512C22.476 25.328 22.28 25.096 22.128 24.816C21.984 24.528 21.912 24.172 21.912 23.748C21.912 23.236 22.028 22.808 22.26 22.464C22.492 22.12 22.804 21.86 23.196 21.684C23.596 21.508 24.044 21.42 24.54 21.42C24.916 21.42 25.26 21.468 25.572 21.564C25.884 21.66 26.156 21.796 26.388 21.972C26.628 22.14 26.812 22.332 26.94 22.548C27.076 22.756 27.152 22.98 27.168 23.22C27.176 23.42 27.12 23.588 27 23.724C26.88 23.852 26.716 23.916 26.508 23.916C26.332 23.916 26.204 23.88 26.124 23.808C26.052 23.736 25.976 23.624 25.896 23.472C25.784 23.232 25.62 23.044 25.404 22.908C25.196 22.772 24.92 22.704 24.576 22.704C24.336 22.704 24.12 22.744 23.928 22.824C23.744 22.904 23.6 23.016 23.496 23.16C23.392 23.296 23.34 23.472 23.34 23.688C23.34 23.952 23.42 24.168 23.58 24.336C23.74 24.496 23.948 24.632 24.204 24.744C24.468 24.856 24.752 24.972 25.056 25.092C25.424 25.244 25.756 25.396 26.052 25.548C26.356 25.7 26.616 25.872 26.832 26.064C27.048 26.256 27.212 26.484 27.324 26.748C27.444 27.004 27.504 27.308 27.504 27.66C27.504 28.188 27.384 28.644 27.144 29.028C26.904 29.404 26.564 29.692 26.124 29.892C25.692 30.084 25.184 30.18 24.6 30.18ZM31.0204 30.12C30.5164 30.12 30.0964 30.032 29.7604 29.856C29.4244 29.672 29.1724 29.404 29.0044 29.052C28.8444 28.7 28.7644 28.272 28.7644 27.768V24.336C28.7644 24.144 28.8284 23.98 28.9564 23.844C29.0924 23.708 29.2564 23.64 29.4484 23.64C29.6484 23.64 29.8124 23.708 29.9404 23.844C30.0764 23.98 30.1444 24.144 30.1444 24.336V27.6C30.1444 28.064 30.2564 28.384 30.4804 28.56C30.7124 28.736 31.0164 28.824 31.3924 28.824C31.6804 28.824 31.9324 28.764 32.1484 28.644C32.3644 28.524 32.5324 28.364 32.6524 28.164C32.7724 27.956 32.8324 27.72 32.8324 27.456V24.336C32.8324 24.144 32.9004 23.98 33.0364 23.844C33.1724 23.708 33.3364 23.64 33.5284 23.64C33.7284 23.64 33.8924 23.708 34.0204 23.844C34.1564 23.98 34.2244 24.144 34.2244 24.336V29.412C34.2244 29.604 34.1564 29.768 34.0204 29.904C33.8924 30.04 33.7284 30.108 33.5284 30.108C33.3364 30.108 33.1724 30.04 33.0364 29.904C32.9004 29.768 32.8324 29.604 32.8324 29.412V28.608L33.1204 28.776C32.8644 29.224 32.5604 29.56 32.2084 29.784C31.8644 30.008 31.4684 30.12 31.0204 30.12ZM38.4465 30.18C37.8705 30.18 37.3625 30.036 36.9225 29.748C36.4905 29.46 36.1505 29.068 35.9025 28.572C35.6625 28.076 35.5425 27.52 35.5425 26.904C35.5425 26.28 35.6625 25.724 35.9025 25.236C36.1505 24.748 36.4945 24.36 36.9345 24.072C37.3745 23.784 37.8865 23.64 38.4705 23.64C38.9025 23.64 39.2785 23.712 39.5985 23.856C39.9185 24 40.1665 24.184 40.3425 24.408C40.5265 24.624 40.6225 24.848 40.6305 25.08C40.6385 25.288 40.5785 25.448 40.4505 25.56C40.3225 25.664 40.1705 25.716 39.9945 25.716C39.8665 25.716 39.7585 25.692 39.6705 25.644C39.5905 25.596 39.5225 25.536 39.4665 25.464C39.3865 25.328 39.2665 25.2 39.1065 25.08C38.9465 24.952 38.7225 24.888 38.4345 24.888C38.1305 24.888 37.8665 24.972 37.6425 25.14C37.4265 25.3 37.2585 25.532 37.1385 25.836C37.0185 26.14 36.9585 26.496 36.9585 26.904C36.9585 27.536 37.0945 28.028 37.3665 28.38C37.6385 28.732 38.0065 28.908 38.4705 28.908C38.8145 28.908 39.0785 28.824 39.2625 28.656C39.4465 28.488 39.5825 28.3 39.6705 28.092C39.7425 27.972 39.8185 27.868 39.8985 27.78C39.9785 27.692 40.0945 27.648 40.2465 27.648C40.4385 27.648 40.5945 27.716 40.7145 27.852C40.8425 27.988 40.9025 28.16 40.8945 28.368C40.8945 28.544 40.8345 28.74 40.7145 28.956C40.6025 29.164 40.4385 29.364 40.2225 29.556C40.0145 29.74 39.7585 29.888 39.4545 30C39.1585 30.12 38.8225 30.18 38.4465 30.18ZM44.7043 30.18C44.1283 30.18 43.6203 30.036 43.1803 29.748C42.7483 29.46 42.4083 29.068 42.1603 28.572C41.9203 28.076 41.8003 27.52 41.8003 26.904C41.8003 26.28 41.9203 25.724 42.1603 25.236C42.4083 24.748 42.7523 24.36 43.1923 24.072C43.6323 23.784 44.1443 23.64 44.7283 23.64C45.1603 23.64 45.5363 23.712 45.8563 23.856C46.1763 24 46.4243 24.184 46.6003 24.408C46.7843 24.624 46.8803 24.848 46.8883 25.08C46.8963 25.288 46.8363 25.448 46.7083 25.56C46.5803 25.664 46.4283 25.716 46.2523 25.716C46.1243 25.716 46.0163 25.692 45.9283 25.644C45.8483 25.596 45.7803 25.536 45.7243 25.464C45.6443 25.328 45.5243 25.2 45.3643 25.08C45.2043 24.952 44.9803 24.888 44.6923 24.888C44.3883 24.888 44.1243 24.972 43.9003 25.14C43.6843 25.3 43.5163 25.532 43.3963 25.836C43.2763 26.14 43.2163 26.496 43.2163 26.904C43.2163 27.536 43.3523 28.028 43.6243 28.38C43.8963 28.732 44.2643 28.908 44.7283 28.908C45.0723 28.908 45.3363 28.824 45.5203 28.656C45.7043 28.488 45.8403 28.3 45.9283 28.092C46.0003 27.972 46.0763 27.868 46.1563 27.78C46.2363 27.692 46.3523 27.648 46.5043 27.648C46.6963 27.648 46.8523 27.716 46.9723 27.852C47.1003 27.988 47.1603 28.16 47.1523 28.368C47.1523 28.544 47.0923 28.74 46.9723 28.956C46.8603 29.164 46.6963 29.364 46.4803 29.556C46.2723 29.74 46.0163 29.888 45.7123 30C45.4163 30.12 45.0803 30.18 44.7043 30.18ZM51.0221 30.18C50.4621 30.18 49.9581 30.052 49.5101 29.796C49.0621 29.532 48.7061 29.16 48.4421 28.68C48.1861 28.192 48.0581 27.612 48.0581 26.94C48.0581 26.308 48.1781 25.744 48.4181 25.248C48.6581 24.752 48.9901 24.36 49.4141 24.072C49.8461 23.784 50.3461 23.64 50.9141 23.64C51.3541 23.64 51.7461 23.724 52.0901 23.892C52.4341 24.052 52.7261 24.268 52.9661 24.54C53.2141 24.804 53.4021 25.1 53.5301 25.428C53.6581 25.748 53.7221 26.072 53.7221 26.4C53.7221 26.688 53.6541 26.916 53.5181 27.084C53.3901 27.244 53.1701 27.324 52.8581 27.324H49.4981C49.5461 27.7 49.6461 28.008 49.7981 28.248C49.9501 28.48 50.1381 28.652 50.3621 28.764C50.5941 28.868 50.8421 28.92 51.1061 28.92C51.4261 28.92 51.6821 28.856 51.8741 28.728C52.0741 28.592 52.2301 28.428 52.3421 28.236C52.4141 28.156 52.4941 28.084 52.5821 28.02C52.6701 27.948 52.7861 27.912 52.9301 27.912C53.1141 27.912 53.2661 27.972 53.3861 28.092C53.5061 28.212 53.5621 28.376 53.5541 28.584C53.5541 28.76 53.4901 28.944 53.3621 29.136C53.2421 29.32 53.0701 29.492 52.8461 29.652C52.6301 29.804 52.3661 29.928 52.0541 30.024C51.7501 30.128 51.4061 30.18 51.0221 30.18ZM49.4981 26.304H52.3421C52.2861 25.856 52.1341 25.508 51.8861 25.26C51.6461 25.004 51.3261 24.876 50.9261 24.876C50.5501 24.876 50.2341 24.996 49.9781 25.236C49.7221 25.468 49.5621 25.824 49.4981 26.304ZM57.2472 30.216C56.7112 30.216 56.2512 30.128 55.8672 29.952C55.4912 29.768 55.1992 29.552 54.9912 29.304C54.7912 29.048 54.6872 28.808 54.6792 28.584C54.6792 28.408 54.7352 28.256 54.8472 28.128C54.9592 27.992 55.1192 27.924 55.3272 27.924C55.4872 27.924 55.6152 27.96 55.7112 28.032C55.8152 28.104 55.8912 28.176 55.9392 28.248C56.0992 28.48 56.2912 28.668 56.5152 28.812C56.7392 28.948 57.0112 29.016 57.3312 29.016C57.6512 29.016 57.8872 28.952 58.0392 28.824C58.1912 28.696 58.2672 28.536 58.2672 28.344C58.2672 28.184 58.2152 28.052 58.1112 27.948C58.0072 27.836 57.8552 27.744 57.6552 27.672C57.4632 27.592 57.2312 27.512 56.9592 27.432C56.7032 27.352 56.4512 27.268 56.2032 27.18C55.9632 27.084 55.7432 26.968 55.5432 26.832C55.3432 26.688 55.1832 26.512 55.0632 26.304C54.9432 26.096 54.8832 25.836 54.8832 25.524C54.8832 25.172 54.9792 24.852 55.1712 24.564C55.3632 24.276 55.6312 24.048 55.9752 23.88C56.3192 23.704 56.7232 23.616 57.1872 23.616C57.6352 23.616 58.0232 23.692 58.3512 23.844C58.6872 23.996 58.9472 24.188 59.1312 24.42C59.3152 24.644 59.4072 24.876 59.4072 25.116C59.4152 25.292 59.3712 25.44 59.2752 25.56C59.1792 25.672 59.0352 25.728 58.8432 25.728C58.6992 25.728 58.5712 25.696 58.4592 25.632C58.3472 25.56 58.2552 25.48 58.1832 25.392C58.1272 25.304 58.0592 25.216 57.9792 25.128C57.8992 25.04 57.7912 24.964 57.6552 24.9C57.5272 24.836 57.3552 24.804 57.1392 24.804C56.8592 24.804 56.6392 24.864 56.4792 24.984C56.3272 25.104 56.2512 25.256 56.2512 25.44C56.2512 25.608 56.3112 25.74 56.4312 25.836C56.5512 25.932 56.7192 26.02 56.9352 26.1C57.1592 26.172 57.4312 26.264 57.7512 26.376C58.0232 26.464 58.2712 26.56 58.4952 26.664C58.7272 26.768 58.9272 26.892 59.0952 27.036C59.2712 27.172 59.4072 27.336 59.5032 27.528C59.5992 27.712 59.6472 27.936 59.6472 28.2C59.6472 28.56 59.5592 28.896 59.3832 29.208C59.2072 29.512 58.9392 29.756 58.5792 29.94C58.2272 30.124 57.7832 30.216 57.2472 30.216ZM63.1769 30.216C62.6409 30.216 62.1809 30.128 61.7969 29.952C61.4209 29.768 61.1289 29.552 60.9209 29.304C60.7209 29.048 60.6169 28.808 60.6089 28.584C60.6089 28.408 60.6649 28.256 60.7769 28.128C60.8889 27.992 61.0489 27.924 61.2569 27.924C61.4169 27.924 61.5449 27.96 61.6409 28.032C61.7449 28.104 61.8209 28.176 61.8689 28.248C62.0289 28.48 62.2209 28.668 62.4449 28.812C62.6689 28.948 62.9409 29.016 63.2609 29.016C63.5809 29.016 63.8169 28.952 63.9689 28.824C64.1209 28.696 64.1969 28.536 64.1969 28.344C64.1969 28.184 64.1449 28.052 64.0409 27.948C63.9369 27.836 63.7849 27.744 63.5849 27.672C63.3929 27.592 63.1609 27.512 62.8889 27.432C62.6329 27.352 62.3809 27.268 62.1329 27.18C61.8929 27.084 61.6729 26.968 61.4729 26.832C61.2729 26.688 61.1129 26.512 60.9929 26.304C60.8729 26.096 60.8129 25.836 60.8129 25.524C60.8129 25.172 60.9089 24.852 61.1009 24.564C61.2929 24.276 61.5609 24.048 61.9049 23.88C62.2489 23.704 62.6529 23.616 63.1169 23.616C63.5649 23.616 63.9529 23.692 64.2809 23.844C64.6169 23.996 64.8769 24.188 65.0609 24.42C65.2449 24.644 65.3369 24.876 65.3369 25.116C65.3449 25.292 65.3009 25.44 65.2049 25.56C65.1089 25.672 64.9649 25.728 64.7729 25.728C64.6289 25.728 64.5009 25.696 64.3889 25.632C64.2769 25.56 64.1849 25.48 64.1129 25.392C64.0569 25.304 63.9889 25.216 63.9089 25.128C63.8289 25.04 63.7209 24.964 63.5849 24.9C63.4569 24.836 63.2849 24.804 63.0689 24.804C62.7889 24.804 62.5689 24.864 62.4089 24.984C62.2569 25.104 62.1809 25.256 62.1809 25.44C62.1809 25.608 62.2409 25.74 62.3609 25.836C62.4809 25.932 62.6489 26.02 62.8649 26.1C63.0889 26.172 63.3609 26.264 63.6809 26.376C63.9529 26.464 64.2009 26.56 64.4249 26.664C64.6569 26.768 64.8569 26.892 65.0249 27.036C65.2009 27.172 65.3369 27.336 65.4329 27.528C65.5289 27.712 65.5769 27.936 65.5769 28.2C65.5769 28.56 65.4889 28.896 65.3129 29.208C65.1369 29.512 64.8689 29.756 64.5089 29.94C64.1569 30.124 63.7129 30.216 63.1769 30.216ZM67.6306 27.636C67.4466 27.636 67.2946 27.576 67.1746 27.456C67.0626 27.328 67.0026 27.172 66.9946 26.988L66.9346 22.032C66.9346 21.824 66.9986 21.656 67.1266 21.528C67.2626 21.392 67.4306 21.324 67.6306 21.324C67.8386 21.324 68.0066 21.392 68.1346 21.528C68.2706 21.656 68.3386 21.824 68.3386 22.032L68.2666 26.988C68.2666 27.172 68.2066 27.328 68.0866 27.456C67.9666 27.576 67.8146 27.636 67.6306 27.636ZM67.6426 30.144C67.3866 30.144 67.1786 30.064 67.0186 29.904C66.8586 29.744 66.7786 29.512 66.7786 29.208C66.7786 28.912 66.8586 28.684 67.0186 28.524C67.1786 28.356 67.3866 28.272 67.6426 28.272C67.8986 28.272 68.1066 28.356 68.2666 28.524C68.4266 28.684 68.5066 28.912 68.5066 29.208C68.5066 29.512 68.4266 29.744 68.2666 29.904C68.1066 30.064 67.8986 30.144 67.6426 30.144ZM74.2073 30.12C73.9993 30.12 73.8273 30.052 73.6913 29.916C73.5553 29.78 73.4873 29.608 73.4873 29.4L73.5233 22.26C73.5233 22.012 73.5913 21.82 73.7273 21.684C73.8713 21.548 74.0553 21.48 74.2793 21.48C74.4793 21.48 74.6433 21.524 74.7713 21.612C74.8993 21.7 74.9913 21.812 75.0473 21.948L77.6633 28.152L80.2193 21.948C80.2753 21.812 80.3673 21.7 80.4953 21.612C80.6233 21.524 80.7873 21.48 80.9873 21.48C81.2113 21.48 81.3913 21.548 81.5273 21.684C81.6713 21.82 81.7433 22.012 81.7433 22.26L81.7793 29.4C81.7793 29.608 81.7113 29.78 81.5753 29.916C81.4393 30.052 81.2673 30.12 81.0593 30.12C80.8513 30.12 80.6793 30.052 80.5433 29.916C80.4073 29.78 80.3433 29.608 80.3513 29.4L80.4233 24.816L78.4793 29.448C78.3833 29.696 78.2633 29.872 78.1193 29.976C77.9833 30.072 77.8313 30.12 77.6633 30.12C77.4873 30.12 77.3313 30.072 77.1953 29.976C77.0593 29.872 76.9393 29.696 76.8353 29.448L74.8433 24.804L74.9273 29.4C74.9273 29.608 74.8593 29.78 74.7233 29.916C74.5953 30.052 74.4233 30.12 74.2073 30.12ZM85.3624 30.18C84.9624 30.18 84.5984 30.104 84.2704 29.952C83.9504 29.8 83.6944 29.588 83.5024 29.316C83.3104 29.036 83.2144 28.704 83.2144 28.32C83.2144 27.76 83.4024 27.312 83.7784 26.976C84.1544 26.632 84.7664 26.404 85.6144 26.292C85.9024 26.252 86.1584 26.212 86.3824 26.172C86.6144 26.132 86.7984 26.068 86.9344 25.98C87.0704 25.884 87.1384 25.748 87.1384 25.572C87.1384 25.428 87.1024 25.3 87.0304 25.188C86.9584 25.076 86.8464 24.988 86.6944 24.924C86.5504 24.86 86.3624 24.828 86.1304 24.828C85.8184 24.828 85.5744 24.888 85.3984 25.008C85.2304 25.12 85.0944 25.248 84.9904 25.392C84.9104 25.496 84.8104 25.58 84.6904 25.644C84.5784 25.708 84.4504 25.74 84.3064 25.74C84.1144 25.74 83.9624 25.688 83.8504 25.584C83.7384 25.48 83.6824 25.34 83.6824 25.164C83.6824 24.98 83.7424 24.8 83.8624 24.624C83.9824 24.44 84.1504 24.276 84.3664 24.132C84.5824 23.98 84.8424 23.86 85.1464 23.772C85.4504 23.684 85.7824 23.64 86.1424 23.64C86.6864 23.64 87.1304 23.74 87.4744 23.94C87.8264 24.14 88.0864 24.416 88.2544 24.768C88.4304 25.12 88.5184 25.52 88.5184 25.968V28.548C88.5184 28.636 88.5264 28.7 88.5424 28.74C88.5664 28.78 88.6144 28.808 88.6864 28.824C88.8064 28.856 88.9184 28.924 89.0224 29.028C89.1264 29.132 89.1784 29.272 89.1784 29.448C89.1784 29.632 89.1064 29.792 88.9624 29.928C88.8184 30.056 88.6184 30.12 88.3624 30.12C88.0584 30.112 87.8224 30.032 87.6544 29.88C87.4944 29.728 87.3984 29.536 87.3664 29.304V29.172H87.3304C87.1144 29.492 86.8544 29.74 86.5504 29.916C86.2464 30.092 85.8504 30.18 85.3624 30.18ZM85.6024 28.98C85.8904 28.98 86.1504 28.92 86.3824 28.8C86.6144 28.68 86.7984 28.512 86.9344 28.296C87.0784 28.08 87.1504 27.836 87.1504 27.564V27C87.1504 26.984 87.1424 26.976 87.1264 26.976C87.1184 26.968 87.0984 26.976 87.0664 27C86.9624 27.072 86.8304 27.128 86.6704 27.168C86.5184 27.208 86.3584 27.24 86.1904 27.264C86.0224 27.288 85.8624 27.316 85.7104 27.348C85.3344 27.42 85.0544 27.524 84.8704 27.66C84.6944 27.796 84.6064 27.976 84.6064 28.2C84.6064 28.416 84.6824 28.6 84.8344 28.752C84.9944 28.904 85.2504 28.98 85.6024 28.98ZM92.3172 30.12C91.9652 30.12 91.6692 30.044 91.4292 29.892C91.1892 29.74 91.0052 29.536 90.8772 29.28C90.7572 29.024 90.6972 28.74 90.6972 28.428V23.184C90.6972 22.992 90.7652 22.832 90.9012 22.704C91.0372 22.568 91.2012 22.5 91.3932 22.5C91.5852 22.5 91.7452 22.568 91.8732 22.704C92.0092 22.832 92.0772 22.992 92.0772 23.184V28.356C92.0772 28.476 92.0932 28.572 92.1252 28.644C92.1652 28.716 92.2372 28.752 92.3412 28.752C92.4212 28.752 92.4892 28.732 92.5452 28.692C92.6092 28.644 92.6772 28.6 92.7492 28.56C92.8212 28.52 92.9092 28.5 93.0132 28.5C93.2132 28.5 93.3772 28.568 93.5052 28.704C93.6412 28.84 93.7092 29.004 93.7092 29.196C93.7092 29.396 93.6372 29.564 93.4932 29.7C93.3572 29.836 93.1812 29.94 92.9652 30.012C92.7572 30.084 92.5412 30.12 92.3172 30.12ZM90.4332 25.032C90.2652 25.032 90.1172 24.976 89.9892 24.864C89.8692 24.744 89.8092 24.596 89.8092 24.42C89.8092 24.252 89.8692 24.112 89.9892 24C90.1172 23.88 90.2652 23.82 90.4332 23.82H93.2052C93.3812 23.82 93.5292 23.88 93.6492 24C93.7692 24.112 93.8292 24.252 93.8292 24.42C93.8292 24.596 93.7692 24.744 93.6492 24.864C93.5292 24.976 93.3812 25.032 93.2052 25.032H90.4332ZM97.7565 30.18C97.1965 30.18 96.6925 30.052 96.2445 29.796C95.7965 29.532 95.4405 29.16 95.1765 28.68C94.9205 28.192 94.7925 27.612 94.7925 26.94C94.7925 26.308 94.9125 25.744 95.1525 25.248C95.3925 24.752 95.7245 24.36 96.1485 24.072C96.5805 23.784 97.0805 23.64 97.6485 23.64C98.0885 23.64 98.4805 23.724 98.8245 23.892C99.1685 24.052 99.4605 24.268 99.7005 24.54C99.9485 24.804 100.137 25.1 100.265 25.428C100.393 25.748 100.457 26.072 100.457 26.4C100.457 26.688 100.389 26.916 100.253 27.084C100.125 27.244 99.9045 27.324 99.5925 27.324H96.2325C96.2805 27.7 96.3805 28.008 96.5325 28.248C96.6845 28.48 96.8725 28.652 97.0965 28.764C97.3285 28.868 97.5765 28.92 97.8405 28.92C98.1605 28.92 98.4165 28.856 98.6085 28.728C98.8085 28.592 98.9645 28.428 99.0765 28.236C99.1485 28.156 99.2285 28.084 99.3165 28.02C99.4045 27.948 99.5205 27.912 99.6645 27.912C99.8485 27.912 100.001 27.972 100.121 28.092C100.241 28.212 100.297 28.376 100.289 28.584C100.289 28.76 100.225 28.944 100.097 29.136C99.9765 29.32 99.8045 29.492 99.5805 29.652C99.3645 29.804 99.1005 29.928 98.7885 30.024C98.4845 30.128 98.1405 30.18 97.7565 30.18ZM96.2325 26.304H99.0765C99.0205 25.856 98.8685 25.508 98.6205 25.26C98.3805 25.004 98.0605 24.876 97.6605 24.876C97.2845 24.876 96.9685 24.996 96.7125 25.236C96.4565 25.468 96.2965 25.824 96.2325 26.304ZM102.47 30.12C102.278 30.12 102.114 30.052 101.978 29.916C101.842 29.772 101.774 29.604 101.774 29.412V24.396C101.774 24.204 101.842 24.04 101.978 23.904C102.114 23.768 102.282 23.7 102.482 23.7C102.69 23.7 102.854 23.768 102.974 23.904C103.102 24.04 103.166 24.204 103.166 24.396V25.044L102.974 24.864C103.054 24.68 103.17 24.496 103.322 24.312C103.474 24.12 103.658 23.96 103.874 23.832C104.09 23.704 104.334 23.64 104.606 23.64C104.83 23.64 105.01 23.704 105.146 23.832C105.29 23.952 105.362 24.116 105.362 24.324C105.362 24.516 105.29 24.68 105.146 24.816C105.01 24.952 104.83 25.02 104.606 25.02C104.294 25.02 104.03 25.08 103.814 25.2C103.598 25.32 103.434 25.484 103.322 25.692C103.218 25.892 103.166 26.12 103.166 26.376V29.412C103.166 29.604 103.098 29.772 102.962 29.916C102.826 30.052 102.662 30.12 102.47 30.12ZM107.134 30.12C106.942 30.12 106.778 30.052 106.642 29.916C106.506 29.78 106.438 29.616 106.438 29.424V24.384C106.438 24.192 106.506 24.032 106.642 23.904C106.778 23.768 106.942 23.7 107.134 23.7C107.326 23.7 107.49 23.768 107.626 23.904C107.762 24.032 107.83 24.192 107.83 24.384V29.424C107.83 29.616 107.762 29.78 107.626 29.916C107.49 30.052 107.326 30.12 107.134 30.12ZM107.122 23.052C106.898 23.052 106.714 22.98 106.57 22.836C106.426 22.684 106.354 22.472 106.354 22.2C106.354 21.936 106.426 21.732 106.57 21.588C106.714 21.436 106.898 21.36 107.122 21.36C107.362 21.36 107.554 21.436 107.698 21.588C107.842 21.732 107.914 21.936 107.914 22.2C107.914 22.472 107.842 22.684 107.698 22.836C107.554 22.98 107.362 23.052 107.122 23.052ZM111.296 30.18C110.896 30.18 110.532 30.104 110.204 29.952C109.884 29.8 109.628 29.588 109.436 29.316C109.244 29.036 109.148 28.704 109.148 28.32C109.148 27.76 109.336 27.312 109.712 26.976C110.088 26.632 110.7 26.404 111.548 26.292C111.836 26.252 112.092 26.212 112.316 26.172C112.548 26.132 112.732 26.068 112.868 25.98C113.004 25.884 113.072 25.748 113.072 25.572C113.072 25.428 113.036 25.3 112.964 25.188C112.892 25.076 112.78 24.988 112.628 24.924C112.484 24.86 112.296 24.828 112.064 24.828C111.752 24.828 111.508 24.888 111.332 25.008C111.164 25.12 111.028 25.248 110.924 25.392C110.844 25.496 110.744 25.58 110.624 25.644C110.512 25.708 110.384 25.74 110.24 25.74C110.048 25.74 109.896 25.688 109.784 25.584C109.672 25.48 109.616 25.34 109.616 25.164C109.616 24.98 109.676 24.8 109.796 24.624C109.916 24.44 110.084 24.276 110.3 24.132C110.516 23.98 110.776 23.86 111.08 23.772C111.384 23.684 111.716 23.64 112.076 23.64C112.62 23.64 113.064 23.74 113.408 23.94C113.76 24.14 114.02 24.416 114.188 24.768C114.364 25.12 114.452 25.52 114.452 25.968V28.548C114.452 28.636 114.46 28.7 114.476 28.74C114.5 28.78 114.548 28.808 114.62 28.824C114.74 28.856 114.852 28.924 114.956 29.028C115.06 29.132 115.112 29.272 115.112 29.448C115.112 29.632 115.04 29.792 114.896 29.928C114.752 30.056 114.552 30.12 114.296 30.12C113.992 30.112 113.756 30.032 113.588 29.88C113.428 29.728 113.332 29.536 113.3 29.304V29.172H113.264C113.048 29.492 112.788 29.74 112.484 29.916C112.18 30.092 111.784 30.18 111.296 30.18ZM111.536 28.98C111.824 28.98 112.084 28.92 112.316 28.8C112.548 28.68 112.732 28.512 112.868 28.296C113.012 28.08 113.084 27.836 113.084 27.564V27C113.084 26.984 113.076 26.976 113.06 26.976C113.052 26.968 113.032 26.976 113 27C112.896 27.072 112.764 27.128 112.604 27.168C112.452 27.208 112.292 27.24 112.124 27.264C111.956 27.288 111.796 27.316 111.644 27.348C111.268 27.42 110.988 27.524 110.804 27.66C110.628 27.796 110.54 27.976 110.54 28.2C110.54 28.416 110.616 28.6 110.768 28.752C110.928 28.904 111.184 28.98 111.536 28.98ZM116.919 30.12C116.719 30.12 116.551 30.052 116.415 29.916C116.287 29.772 116.223 29.604 116.223 29.412V21.936C116.223 21.736 116.287 21.572 116.415 21.444C116.551 21.308 116.719 21.24 116.919 21.24C117.111 21.24 117.275 21.308 117.411 21.444C117.547 21.572 117.615 21.736 117.615 21.936V29.412C117.615 29.604 117.547 29.772 117.411 29.916C117.275 30.052 117.111 30.12 116.919 30.12ZM123.294 30.12C123.102 30.12 122.938 30.052 122.802 29.916C122.666 29.78 122.598 29.612 122.598 29.412V21.936C122.598 21.736 122.666 21.572 122.802 21.444C122.938 21.308 123.102 21.24 123.294 21.24C123.486 21.24 123.65 21.308 123.786 21.444C123.922 21.572 123.99 21.736 123.99 21.936V25.152L123.678 24.972C123.942 24.524 124.246 24.192 124.59 23.976C124.942 23.752 125.342 23.64 125.79 23.64C126.222 23.64 126.606 23.732 126.942 23.916C127.286 24.1 127.554 24.372 127.746 24.732C127.938 25.092 128.034 25.532 128.034 26.052V29.412C128.034 29.612 127.966 29.78 127.83 29.916C127.702 30.052 127.542 30.12 127.35 30.12C127.158 30.12 126.994 30.052 126.858 29.916C126.722 29.78 126.654 29.612 126.654 29.412V26.244C126.654 25.836 126.542 25.516 126.318 25.284C126.102 25.044 125.802 24.924 125.418 24.924C125.138 24.924 124.89 24.984 124.674 25.104C124.458 25.224 124.29 25.388 124.17 25.596C124.05 25.796 123.99 26.028 123.99 26.292V29.412C123.99 29.612 123.922 29.78 123.786 29.916C123.65 30.052 123.486 30.12 123.294 30.12ZM131.441 30.18C131.041 30.18 130.677 30.104 130.349 29.952C130.029 29.8 129.773 29.588 129.581 29.316C129.389 29.036 129.293 28.704 129.293 28.32C129.293 27.76 129.481 27.312 129.857 26.976C130.233 26.632 130.845 26.404 131.693 26.292C131.981 26.252 132.237 26.212 132.461 26.172C132.693 26.132 132.877 26.068 133.013 25.98C133.149 25.884 133.217 25.748 133.217 25.572C133.217 25.428 133.181 25.3 133.109 25.188C133.037 25.076 132.925 24.988 132.773 24.924C132.629 24.86 132.441 24.828 132.209 24.828C131.897 24.828 131.653 24.888 131.477 25.008C131.309 25.12 131.173 25.248 131.069 25.392C130.989 25.496 130.889 25.58 130.769 25.644C130.657 25.708 130.529 25.74 130.385 25.74C130.193 25.74 130.041 25.688 129.929 25.584C129.817 25.48 129.761 25.34 129.761 25.164C129.761 24.98 129.821 24.8 129.941 24.624C130.061 24.44 130.229 24.276 130.445 24.132C130.661 23.98 130.921 23.86 131.225 23.772C131.529 23.684 131.861 23.64 132.221 23.64C132.765 23.64 133.209 23.74 133.553 23.94C133.905 24.14 134.165 24.416 134.333 24.768C134.509 25.12 134.597 25.52 134.597 25.968V28.548C134.597 28.636 134.605 28.7 134.621 28.74C134.645 28.78 134.693 28.808 134.765 28.824C134.885 28.856 134.997 28.924 135.101 29.028C135.205 29.132 135.257 29.272 135.257 29.448C135.257 29.632 135.185 29.792 135.041 29.928C134.897 30.056 134.697 30.12 134.441 30.12C134.137 30.112 133.901 30.032 133.733 29.88C133.573 29.728 133.477 29.536 133.445 29.304V29.172H133.409C133.193 29.492 132.933 29.74 132.629 29.916C132.325 30.092 131.929 30.18 131.441 30.18ZM131.681 28.98C131.969 28.98 132.229 28.92 132.461 28.8C132.693 28.68 132.877 28.512 133.013 28.296C133.157 28.08 133.229 27.836 133.229 27.564V27C133.229 26.984 133.221 26.976 133.205 26.976C133.197 26.968 133.177 26.976 133.145 27C133.041 27.072 132.909 27.128 132.749 27.168C132.597 27.208 132.437 27.24 132.269 27.264C132.101 27.288 131.941 27.316 131.789 27.348C131.413 27.42 131.133 27.524 130.949 27.66C130.773 27.796 130.685 27.976 130.685 28.2C130.685 28.416 130.761 28.6 130.913 28.752C131.073 28.904 131.329 28.98 131.681 28.98ZM138.575 30.216C138.039 30.216 137.579 30.128 137.195 29.952C136.819 29.768 136.527 29.552 136.319 29.304C136.119 29.048 136.015 28.808 136.007 28.584C136.007 28.408 136.063 28.256 136.175 28.128C136.287 27.992 136.447 27.924 136.655 27.924C136.815 27.924 136.943 27.96 137.039 28.032C137.143 28.104 137.219 28.176 137.267 28.248C137.427 28.48 137.619 28.668 137.843 28.812C138.067 28.948 138.339 29.016 138.659 29.016C138.979 29.016 139.215 28.952 139.367 28.824C139.519 28.696 139.595 28.536 139.595 28.344C139.595 28.184 139.543 28.052 139.439 27.948C139.335 27.836 139.183 27.744 138.983 27.672C138.791 27.592 138.559 27.512 138.287 27.432C138.031 27.352 137.779 27.268 137.531 27.18C137.291 27.084 137.071 26.968 136.871 26.832C136.671 26.688 136.511 26.512 136.391 26.304C136.271 26.096 136.211 25.836 136.211 25.524C136.211 25.172 136.307 24.852 136.499 24.564C136.691 24.276 136.959 24.048 137.303 23.88C137.647 23.704 138.051 23.616 138.515 23.616C138.963 23.616 139.351 23.692 139.679 23.844C140.015 23.996 140.275 24.188 140.459 24.42C140.643 24.644 140.735 24.876 140.735 25.116C140.743 25.292 140.699 25.44 140.603 25.56C140.507 25.672 140.363 25.728 140.171 25.728C140.027 25.728 139.899 25.696 139.787 25.632C139.675 25.56 139.583 25.48 139.511 25.392C139.455 25.304 139.387 25.216 139.307 25.128C139.227 25.04 139.119 24.964 138.983 24.9C138.855 24.836 138.683 24.804 138.467 24.804C138.187 24.804 137.967 24.864 137.807 24.984C137.655 25.104 137.579 25.256 137.579 25.44C137.579 25.608 137.639 25.74 137.759 25.836C137.879 25.932 138.047 26.02 138.263 26.1C138.487 26.172 138.759 26.264 139.079 26.376C139.351 26.464 139.599 26.56 139.823 26.664C140.055 26.768 140.255 26.892 140.423 27.036C140.599 27.172 140.735 27.336 140.831 27.528C140.927 27.712 140.975 27.936 140.975 28.2C140.975 28.56 140.887 28.896 140.711 29.208C140.535 29.512 140.267 29.756 139.907 29.94C139.555 30.124 139.111 30.216 138.575 30.216ZM148.758 30.18C148.422 30.18 148.118 30.116 147.846 29.988C147.582 29.852 147.358 29.684 147.174 29.484C146.99 29.276 146.854 29.06 146.766 28.836H146.982V29.292C146.99 29.524 146.926 29.72 146.79 29.88C146.654 30.032 146.49 30.108 146.298 30.108C146.098 30.108 145.93 30.04 145.794 29.904C145.666 29.768 145.602 29.6 145.602 29.4V21.936C145.602 21.736 145.666 21.572 145.794 21.444C145.93 21.308 146.098 21.24 146.298 21.24C146.49 21.24 146.65 21.308 146.778 21.444C146.914 21.572 146.982 21.736 146.982 21.936V24.9L146.778 24.78C146.906 24.556 147.062 24.36 147.246 24.192C147.438 24.024 147.658 23.892 147.906 23.796C148.162 23.692 148.446 23.64 148.758 23.64C149.294 23.64 149.762 23.784 150.162 24.072C150.562 24.352 150.874 24.74 151.098 25.236C151.322 25.724 151.434 26.28 151.434 26.904C151.434 27.528 151.326 28.088 151.11 28.584C150.894 29.08 150.586 29.472 150.186 29.76C149.786 30.04 149.31 30.18 148.758 30.18ZM148.458 28.908C148.954 28.908 149.338 28.732 149.61 28.38C149.882 28.028 150.018 27.54 150.018 26.916C150.018 26.284 149.882 25.788 149.61 25.428C149.338 25.06 148.958 24.876 148.47 24.876C147.99 24.876 147.614 25.06 147.342 25.428C147.07 25.796 146.934 26.288 146.934 26.904C146.934 27.336 146.998 27.7 147.126 27.996C147.254 28.292 147.43 28.516 147.654 28.668C147.886 28.82 148.154 28.9 148.458 28.908ZM155.354 30.18C154.794 30.18 154.29 30.052 153.842 29.796C153.394 29.532 153.038 29.16 152.774 28.68C152.518 28.192 152.39 27.612 152.39 26.94C152.39 26.308 152.51 25.744 152.75 25.248C152.99 24.752 153.322 24.36 153.746 24.072C154.178 23.784 154.678 23.64 155.246 23.64C155.686 23.64 156.078 23.724 156.422 23.892C156.766 24.052 157.058 24.268 157.298 24.54C157.546 24.804 157.734 25.1 157.862 25.428C157.99 25.748 158.054 26.072 158.054 26.4C158.054 26.688 157.986 26.916 157.85 27.084C157.722 27.244 157.502 27.324 157.19 27.324H153.83C153.878 27.7 153.978 28.008 154.13 28.248C154.282 28.48 154.47 28.652 154.694 28.764C154.926 28.868 155.174 28.92 155.438 28.92C155.758 28.92 156.014 28.856 156.206 28.728C156.406 28.592 156.562 28.428 156.674 28.236C156.746 28.156 156.826 28.084 156.914 28.02C157.002 27.948 157.118 27.912 157.262 27.912C157.446 27.912 157.598 27.972 157.718 28.092C157.838 28.212 157.894 28.376 157.886 28.584C157.886 28.76 157.822 28.944 157.694 29.136C157.574 29.32 157.402 29.492 157.178 29.652C156.962 29.804 156.698 29.928 156.386 30.024C156.082 30.128 155.738 30.18 155.354 30.18ZM153.83 26.304H156.674C156.618 25.856 156.466 25.508 156.218 25.26C155.978 25.004 155.658 24.876 155.258 24.876C154.882 24.876 154.566 24.996 154.31 25.236C154.054 25.468 153.894 25.824 153.83 26.304ZM161.975 30.18C161.415 30.18 160.911 30.052 160.463 29.796C160.015 29.532 159.659 29.16 159.395 28.68C159.139 28.192 159.011 27.612 159.011 26.94C159.011 26.308 159.131 25.744 159.371 25.248C159.611 24.752 159.943 24.36 160.367 24.072C160.799 23.784 161.299 23.64 161.867 23.64C162.307 23.64 162.699 23.724 163.043 23.892C163.387 24.052 163.679 24.268 163.919 24.54C164.167 24.804 164.355 25.1 164.483 25.428C164.611 25.748 164.675 26.072 164.675 26.4C164.675 26.688 164.607 26.916 164.471 27.084C164.343 27.244 164.123 27.324 163.811 27.324H160.451C160.499 27.7 160.599 28.008 160.751 28.248C160.903 28.48 161.091 28.652 161.315 28.764C161.547 28.868 161.795 28.92 162.059 28.92C162.379 28.92 162.635 28.856 162.827 28.728C163.027 28.592 163.183 28.428 163.295 28.236C163.367 28.156 163.447 28.084 163.535 28.02C163.623 27.948 163.739 27.912 163.883 27.912C164.067 27.912 164.219 27.972 164.339 28.092C164.459 28.212 164.515 28.376 164.507 28.584C164.507 28.76 164.443 28.944 164.315 29.136C164.195 29.32 164.023 29.492 163.799 29.652C163.583 29.804 163.319 29.928 163.007 30.024C162.703 30.128 162.359 30.18 161.975 30.18ZM160.451 26.304H163.295C163.239 25.856 163.087 25.508 162.839 25.26C162.599 25.004 162.279 24.876 161.879 24.876C161.503 24.876 161.187 24.996 160.931 25.236C160.675 25.468 160.515 25.824 160.451 26.304ZM166.688 30.12C166.488 30.12 166.32 30.052 166.184 29.916C166.056 29.78 165.992 29.612 165.992 29.412V24.396C165.992 24.196 166.056 24.032 166.184 23.904C166.32 23.768 166.488 23.7 166.688 23.7C166.88 23.7 167.044 23.768 167.18 23.904C167.316 24.032 167.384 24.196 167.384 24.396V25.152L167.096 24.972C167.352 24.524 167.652 24.192 167.996 23.976C168.348 23.752 168.748 23.64 169.196 23.64C169.628 23.64 170.016 23.732 170.36 23.916C170.704 24.1 170.972 24.372 171.164 24.732C171.356 25.092 171.452 25.532 171.452 26.052V29.412C171.452 29.612 171.388 29.78 171.26 29.916C171.132 30.052 170.968 30.12 170.768 30.12C170.56 30.12 170.392 30.052 170.264 29.916C170.136 29.78 170.072 29.612 170.072 29.412V26.244C170.072 25.836 169.96 25.516 169.736 25.284C169.512 25.044 169.204 24.924 168.812 24.924C168.532 24.924 168.284 24.984 168.068 25.104C167.852 25.224 167.684 25.388 167.564 25.596C167.444 25.796 167.384 26.028 167.384 26.292V29.412C167.384 29.612 167.316 29.78 167.18 29.916C167.052 30.052 166.888 30.12 166.688 30.12ZM178.163 30.18C177.763 30.18 177.399 30.104 177.071 29.952C176.751 29.8 176.495 29.588 176.303 29.316C176.111 29.036 176.015 28.704 176.015 28.32C176.015 27.76 176.203 27.312 176.579 26.976C176.955 26.632 177.567 26.404 178.415 26.292C178.703 26.252 178.959 26.212 179.183 26.172C179.415 26.132 179.599 26.068 179.735 25.98C179.871 25.884 179.939 25.748 179.939 25.572C179.939 25.428 179.903 25.3 179.831 25.188C179.759 25.076 179.647 24.988 179.495 24.924C179.351 24.86 179.163 24.828 178.931 24.828C178.619 24.828 178.375 24.888 178.199 25.008C178.031 25.12 177.895 25.248 177.791 25.392C177.711 25.496 177.611 25.58 177.491 25.644C177.379 25.708 177.251 25.74 177.107 25.74C176.915 25.74 176.763 25.688 176.651 25.584C176.539 25.48 176.483 25.34 176.483 25.164C176.483 24.98 176.543 24.8 176.663 24.624C176.783 24.44 176.951 24.276 177.167 24.132C177.383 23.98 177.643 23.86 177.947 23.772C178.251 23.684 178.583 23.64 178.943 23.64C179.487 23.64 179.931 23.74 180.275 23.94C180.627 24.14 180.887 24.416 181.055 24.768C181.231 25.12 181.319 25.52 181.319 25.968V28.548C181.319 28.636 181.327 28.7 181.343 28.74C181.367 28.78 181.415 28.808 181.487 28.824C181.607 28.856 181.719 28.924 181.823 29.028C181.927 29.132 181.979 29.272 181.979 29.448C181.979 29.632 181.907 29.792 181.763 29.928C181.619 30.056 181.419 30.12 181.163 30.12C180.859 30.112 180.623 30.032 180.455 29.88C180.295 29.728 180.199 29.536 180.167 29.304V29.172H180.131C179.915 29.492 179.655 29.74 179.351 29.916C179.047 30.092 178.651 30.18 178.163 30.18ZM178.403 28.98C178.691 28.98 178.951 28.92 179.183 28.8C179.415 28.68 179.599 28.512 179.735 28.296C179.879 28.08 179.951 27.836 179.951 27.564V27C179.951 26.984 179.943 26.976 179.927 26.976C179.919 26.968 179.899 26.976 179.867 27C179.763 27.072 179.631 27.128 179.471 27.168C179.319 27.208 179.159 27.24 178.991 27.264C178.823 27.288 178.663 27.316 178.511 27.348C178.135 27.42 177.855 27.524 177.671 27.66C177.495 27.796 177.407 27.976 177.407 28.2C177.407 28.416 177.483 28.6 177.635 28.752C177.795 28.904 178.051 28.98 178.403 28.98ZM185.394 30.18C184.85 30.18 184.378 30.04 183.978 29.76C183.578 29.472 183.27 29.08 183.054 28.584C182.838 28.088 182.73 27.528 182.73 26.904C182.73 26.28 182.842 25.724 183.066 25.236C183.29 24.74 183.602 24.352 184.002 24.072C184.41 23.784 184.882 23.64 185.418 23.64C185.73 23.64 186.006 23.684 186.246 23.772C186.494 23.86 186.71 23.984 186.894 24.144C187.078 24.304 187.238 24.492 187.374 24.708L187.17 24.792V21.936C187.17 21.736 187.234 21.572 187.362 21.444C187.498 21.308 187.666 21.24 187.866 21.24C188.058 21.24 188.218 21.308 188.346 21.444C188.482 21.572 188.55 21.736 188.55 21.936V29.4C188.55 29.6 188.482 29.768 188.346 29.904C188.218 30.04 188.058 30.108 187.866 30.108C187.666 30.108 187.498 30.032 187.362 29.88C187.234 29.72 187.17 29.524 187.17 29.292L187.182 28.836H187.386C187.306 29.06 187.174 29.276 186.99 29.484C186.806 29.684 186.578 29.852 186.306 29.988C186.042 30.116 185.738 30.18 185.394 30.18ZM185.706 28.92C186.17 28.912 186.538 28.732 186.81 28.38C187.082 28.02 187.218 27.532 187.218 26.916C187.218 26.3 187.082 25.808 186.81 25.44C186.546 25.072 186.17 24.888 185.682 24.888C185.21 24.888 184.834 25.072 184.554 25.44C184.282 25.8 184.146 26.296 184.146 26.928C184.146 27.552 184.282 28.04 184.554 28.392C184.826 28.744 185.21 28.92 185.706 28.92ZM192.531 30.18C191.987 30.18 191.515 30.04 191.115 29.76C190.715 29.472 190.407 29.08 190.191 28.584C189.975 28.088 189.867 27.528 189.867 26.904C189.867 26.28 189.979 25.724 190.203 25.236C190.427 24.74 190.739 24.352 191.139 24.072C191.547 23.784 192.019 23.64 192.555 23.64C192.867 23.64 193.143 23.684 193.383 23.772C193.631 23.86 193.847 23.984 194.031 24.144C194.215 24.304 194.375 24.492 194.511 24.708L194.307 24.792V21.936C194.307 21.736 194.371 21.572 194.499 21.444C194.635 21.308 194.803 21.24 195.003 21.24C195.195 21.24 195.355 21.308 195.483 21.444C195.619 21.572 195.687 21.736 195.687 21.936V29.4C195.687 29.6 195.619 29.768 195.483 29.904C195.355 30.04 195.195 30.108 195.003 30.108C194.803 30.108 194.635 30.032 194.499 29.88C194.371 29.72 194.307 29.524 194.307 29.292L194.319 28.836H194.523C194.443 29.06 194.311 29.276 194.127 29.484C193.943 29.684 193.715 29.852 193.443 29.988C193.179 30.116 192.875 30.18 192.531 30.18ZM192.843 28.92C193.307 28.912 193.675 28.732 193.947 28.38C194.219 28.02 194.355 27.532 194.355 26.916C194.355 26.3 194.219 25.808 193.947 25.44C193.683 25.072 193.307 24.888 192.819 24.888C192.347 24.888 191.971 25.072 191.691 25.44C191.419 25.8 191.283 26.296 191.283 26.928C191.283 27.552 191.419 28.04 191.691 28.392C191.963 28.744 192.347 28.92 192.843 28.92ZM199.967 30.18C199.407 30.18 198.903 30.052 198.455 29.796C198.007 29.532 197.651 29.16 197.387 28.68C197.131 28.192 197.003 27.612 197.003 26.94C197.003 26.308 197.123 25.744 197.363 25.248C197.603 24.752 197.935 24.36 198.359 24.072C198.791 23.784 199.291 23.64 199.859 23.64C200.299 23.64 200.691 23.724 201.035 23.892C201.379 24.052 201.671 24.268 201.911 24.54C202.159 24.804 202.347 25.1 202.475 25.428C202.603 25.748 202.667 26.072 202.667 26.4C202.667 26.688 202.599 26.916 202.463 27.084C202.335 27.244 202.115 27.324 201.803 27.324H198.443C198.491 27.7 198.591 28.008 198.743 28.248C198.895 28.48 199.083 28.652 199.307 28.764C199.539 28.868 199.787 28.92 200.051 28.92C200.371 28.92 200.627 28.856 200.819 28.728C201.019 28.592 201.175 28.428 201.287 28.236C201.359 28.156 201.439 28.084 201.527 28.02C201.615 27.948 201.731 27.912 201.875 27.912C202.059 27.912 202.211 27.972 202.331 28.092C202.451 28.212 202.507 28.376 202.499 28.584C202.499 28.76 202.435 28.944 202.307 29.136C202.187 29.32 202.015 29.492 201.791 29.652C201.575 29.804 201.311 29.928 200.999 30.024C200.695 30.128 200.351 30.18 199.967 30.18ZM198.443 26.304H201.287C201.231 25.856 201.079 25.508 200.831 25.26C200.591 25.004 200.271 24.876 199.871 24.876C199.495 24.876 199.179 24.996 198.923 25.236C198.667 25.468 198.507 25.824 198.443 26.304ZM206.289 30.18C205.745 30.18 205.273 30.04 204.873 29.76C204.473 29.472 204.165 29.08 203.949 28.584C203.733 28.088 203.625 27.528 203.625 26.904C203.625 26.28 203.737 25.724 203.961 25.236C204.185 24.74 204.497 24.352 204.897 24.072C205.305 23.784 205.777 23.64 206.313 23.64C206.625 23.64 206.901 23.684 207.141 23.772C207.389 23.86 207.605 23.984 207.789 24.144C207.973 24.304 208.133 24.492 208.269 24.708L208.065 24.792V21.936C208.065 21.736 208.129 21.572 208.257 21.444C208.393 21.308 208.561 21.24 208.761 21.24C208.953 21.24 209.113 21.308 209.241 21.444C209.377 21.572 209.445 21.736 209.445 21.936V29.4C209.445 29.6 209.377 29.768 209.241 29.904C209.113 30.04 208.953 30.108 208.761 30.108C208.561 30.108 208.393 30.032 208.257 29.88C208.129 29.72 208.065 29.524 208.065 29.292L208.077 28.836H208.281C208.201 29.06 208.069 29.276 207.885 29.484C207.701 29.684 207.473 29.852 207.201 29.988C206.937 30.116 206.633 30.18 206.289 30.18ZM206.601 28.92C207.065 28.912 207.433 28.732 207.705 28.38C207.977 28.02 208.113 27.532 208.113 26.916C208.113 26.3 207.977 25.808 207.705 25.44C207.441 25.072 207.065 24.888 206.577 24.888C206.105 24.888 205.729 25.072 205.449 25.44C205.177 25.8 205.041 26.296 205.041 26.928C205.041 27.552 205.177 28.04 205.449 28.392C205.721 28.744 206.105 28.92 206.601 28.92ZM211.865 30.144C211.609 30.144 211.401 30.064 211.241 29.904C211.081 29.744 211.001 29.512 211.001 29.208C211.001 28.912 211.081 28.684 211.241 28.524C211.401 28.356 211.609 28.272 211.865 28.272C212.121 28.272 212.329 28.356 212.489 28.524C212.649 28.684 212.729 28.912 212.729 29.208C212.729 29.512 212.649 29.744 212.489 29.904C212.329 30.064 212.121 30.144 211.865 30.144Z" fill="black"/>
</g>
<defs>
<filter id="filter0_d_6007_18148" x="0" y="0" width="235" height="60" filterUnits="userSpaceOnUse" color-interpolation-filters="sRGB">
<feFlood flood-opacity="0" result="BackgroundImageFix"/>
<feColorMatrix in="SourceAlpha" type="matrix" values="0 0 0 0 0 0 0 0 0 0 0 0 0 0 0 0 0 0 127 0" result="hardAlpha"/>
<feOffset dy="4"/>
<feGaussianBlur stdDeviation="2"/>
<feComposite in2="hardAlpha" operator="out"/>
<feColorMatrix type="matrix" values="0 0 0 0 0 0 0 0 0 0 0 0 0 0 0 0 0 0 0.15 0"/>
<feBlend mode="normal" in2="BackgroundImageFix" result="effect1_dropShadow_6007_18148"/>
<feBlend mode="normal" in="SourceGraphic" in2="effect1_dropShadow_6007_18148" result="shape"/>
</filter>
</defs>
</svg>
