<svg width="240" height="113" viewBox="0 0 240 113" fill="none" xmlns="http://www.w3.org/2000/svg">
<g filter="url(#filter0_d_5990_16513)">
<rect x="4" width="232" height="105" rx="16" fill="#E0F6EB" shape-rendering="crispEdges"/>
<rect x="4.5" y="0.5" width="231" height="104" rx="15.5" stroke="#BED9CB" shape-rendering="crispEdges"/>
<path d="M19.756 21.278C19.6067 21.278 19.476 21.2267 19.364 21.124C19.2613 21.0213 19.21 20.8907 19.21 20.732C19.21 20.5733 19.2613 20.4473 19.364 20.354C19.476 20.2513 19.6067 20.2 19.756 20.2H25.762C25.9207 20.2 26.0513 20.2513 26.154 20.354C26.2567 20.4473 26.308 20.5733 26.308 20.732C26.308 20.8907 26.2567 21.0213 26.154 21.124C26.0513 21.2267 25.9207 21.278 25.762 21.278H19.756ZM22.752 30.14C22.5933 30.14 22.458 30.084 22.346 29.972C22.2433 29.86 22.192 29.7247 22.192 29.566V20.802H23.34V29.566C23.34 29.7247 23.284 29.86 23.172 29.972C23.0693 30.084 22.9293 30.14 22.752 30.14ZM29.084 30.21C28.4307 30.21 27.8567 30.0513 27.362 29.734C26.8767 29.4073 26.494 28.9547 26.214 28.376C25.9434 27.7973 25.808 27.13 25.808 26.374C25.808 25.618 25.9434 24.9553 26.214 24.386C26.494 23.8167 26.8767 23.3733 27.362 23.056C27.8567 22.7387 28.4307 22.58 29.084 22.58C29.7467 22.58 30.3254 22.7387 30.82 23.056C31.324 23.3733 31.716 23.8167 31.996 24.386C32.276 24.9553 32.416 25.618 32.416 26.374C32.416 27.13 32.276 27.7973 31.996 28.376C31.716 28.9547 31.324 29.4073 30.82 29.734C30.3254 30.0513 29.7467 30.21 29.084 30.21ZM29.084 29.16C29.7747 29.16 30.3114 28.9127 30.694 28.418C31.0767 27.9233 31.268 27.242 31.268 26.374C31.268 25.5247 31.0767 24.8527 30.694 24.358C30.3114 23.8633 29.7747 23.616 29.084 23.616C28.4027 23.616 27.8754 23.8633 27.502 24.358C27.1287 24.8527 26.942 25.5247 26.942 26.374C26.942 27.242 27.1287 27.9233 27.502 28.418C27.8754 28.9127 28.4027 29.16 29.084 29.16ZM35.9127 30.14C35.5953 30.14 35.32 30.07 35.0867 29.93C34.8627 29.7807 34.69 29.5753 34.5687 29.314C34.4473 29.0433 34.3867 28.7353 34.3867 28.39V21.81C34.3867 21.6513 34.438 21.5207 34.5407 21.418C34.6527 21.306 34.788 21.25 34.9467 21.25C35.1053 21.25 35.236 21.306 35.3387 21.418C35.4507 21.5207 35.5067 21.6513 35.5067 21.81V28.376C35.5067 28.5533 35.5347 28.7073 35.5907 28.838C35.6467 28.9593 35.7633 29.02 35.9407 29.02C36.062 29.02 36.1507 28.992 36.2067 28.936C36.272 28.88 36.3373 28.8287 36.4027 28.782C36.468 28.726 36.5613 28.698 36.6827 28.698C36.8507 28.698 36.986 28.754 37.0887 28.866C37.1913 28.9687 37.2427 29.0993 37.2427 29.258C37.2427 29.426 37.1773 29.58 37.0467 29.72C36.9253 29.8507 36.762 29.9533 36.5567 30.028C36.3607 30.1027 36.146 30.14 35.9127 30.14ZM33.9387 23.812C33.7893 23.812 33.6587 23.7653 33.5467 23.672C33.444 23.5693 33.3927 23.4433 33.3927 23.294C33.3927 23.154 33.444 23.0373 33.5467 22.944C33.6587 22.8413 33.7893 22.79 33.9387 22.79H36.8927C37.042 22.79 37.168 22.8413 37.2707 22.944C37.3827 23.0373 37.4387 23.154 37.4387 23.294C37.4387 23.4433 37.3827 23.5693 37.2707 23.672C37.168 23.7653 37.042 23.812 36.8927 23.812H33.9387ZM41.0839 30.21C40.5612 30.21 40.1086 30.1167 39.7259 29.93C39.3526 29.734 39.0632 29.4727 38.8579 29.146C38.6619 28.8193 38.5639 28.4553 38.5639 28.054C38.5639 27.4753 38.7786 26.9807 39.2079 26.57C39.6466 26.15 40.3466 25.884 41.3079 25.772C41.7092 25.7253 42.0546 25.674 42.3439 25.618C42.6332 25.562 42.8572 25.4687 43.0159 25.338C43.1839 25.2073 43.2679 25.016 43.2679 24.764C43.2679 24.568 43.2166 24.386 43.1139 24.218C43.0206 24.0407 42.8619 23.896 42.6379 23.784C42.4232 23.672 42.1339 23.616 41.7699 23.616C41.2846 23.616 40.9206 23.714 40.6779 23.91C40.4352 24.0967 40.2672 24.2833 40.1739 24.47C40.1086 24.5913 40.0292 24.6847 39.9359 24.75C39.8426 24.8153 39.7306 24.848 39.5999 24.848C39.4412 24.848 39.3199 24.8013 39.2359 24.708C39.1519 24.6053 39.1099 24.4793 39.1099 24.33C39.1099 24.1527 39.1706 23.966 39.2919 23.77C39.4132 23.5647 39.5906 23.3733 39.8239 23.196C40.0666 23.0093 40.3559 22.86 40.6919 22.748C41.0372 22.636 41.4292 22.58 41.8679 22.58C42.5026 22.58 43.0019 22.7013 43.3659 22.944C43.7392 23.1773 44.0052 23.4993 44.1639 23.91C44.3226 24.3113 44.4019 24.7593 44.4019 25.254V28.74C44.4019 28.8333 44.4112 28.9033 44.4299 28.95C44.4579 28.9967 44.5046 29.0247 44.5699 29.034C44.7006 29.0433 44.8126 29.0993 44.9059 29.202C44.9992 29.2953 45.0459 29.4167 45.0459 29.566C45.0459 29.7247 44.9806 29.86 44.8499 29.972C44.7286 30.084 44.5559 30.14 44.3319 30.14C44.0519 30.14 43.8326 30.0607 43.6739 29.902C43.5246 29.734 43.4499 29.5287 43.4499 29.286V29.048H43.4079C43.1746 29.3933 42.8666 29.6733 42.4839 29.888C42.1106 30.1027 41.6439 30.21 41.0839 30.21ZM41.0979 29.174C41.5179 29.174 41.8912 29.0853 42.2179 28.908C42.5539 28.7307 42.8152 28.4927 43.0019 28.194C43.1979 27.8953 43.2959 27.564 43.2959 27.2V26.248C43.2959 26.2293 43.2866 26.22 43.2679 26.22C43.2586 26.2107 43.2399 26.2247 43.2119 26.262C43.0719 26.374 42.8806 26.4627 42.6379 26.528C42.4046 26.584 42.1666 26.6307 41.9239 26.668C41.6812 26.7053 41.4806 26.738 41.3219 26.766C40.8366 26.8407 40.4399 26.9713 40.1319 27.158C39.8332 27.3447 39.6839 27.6247 39.6839 27.998C39.6839 28.278 39.7912 28.544 40.0059 28.796C40.2206 29.048 40.5846 29.174 41.0979 29.174ZM46.9677 30.14C46.8091 30.14 46.6737 30.084 46.5617 29.972C46.4591 29.8507 46.4077 29.7107 46.4077 29.552V20.354C46.4077 20.1953 46.4591 20.06 46.5617 19.948C46.6737 19.836 46.8091 19.78 46.9677 19.78C47.1264 19.78 47.2617 19.836 47.3737 19.948C47.4857 20.06 47.5417 20.1953 47.5417 20.354V29.552C47.5417 29.7107 47.4857 29.8507 47.3737 29.972C47.2617 30.084 47.1264 30.14 46.9677 30.14ZM54.067 30.14C53.9177 30.14 53.7824 30.084 53.661 29.972C53.549 29.8507 53.493 29.7107 53.493 29.552V20.774C53.493 20.6153 53.549 20.48 53.661 20.368C53.7824 20.256 53.9177 20.2 54.067 20.2H54.641V29.552C54.641 29.7107 54.585 29.8507 54.473 29.972C54.361 30.084 54.2257 30.14 54.067 30.14ZM54.235 25.52V24.456H57.413C57.917 24.456 58.3137 24.316 58.603 24.036C58.8924 23.7467 59.037 23.3687 59.037 22.902C59.037 22.4073 58.8784 22.0153 58.561 21.726C58.2437 21.4273 57.8284 21.278 57.315 21.278H54.207V20.2H57.287C57.847 20.2 58.3417 20.312 58.771 20.536C59.2097 20.76 59.555 21.0773 59.807 21.488C60.059 21.8893 60.185 22.356 60.185 22.888C60.185 23.4107 60.0637 23.8727 59.821 24.274C59.5784 24.666 59.2424 24.974 58.813 25.198C58.393 25.4127 57.9124 25.52 57.371 25.52H54.235ZM59.793 30.14C59.6904 30.14 59.5924 30.1073 59.499 30.042C59.4057 29.986 59.3357 29.9113 59.289 29.818L57.091 25.17L58.239 25.044L60.297 29.314C60.3344 29.3793 60.353 29.4633 60.353 29.566C60.353 29.7153 60.297 29.8507 60.185 29.972C60.0824 30.084 59.9517 30.14 59.793 30.14ZM64.7013 30.21C64.0853 30.21 63.5206 30.07 63.0073 29.79C62.5033 29.51 62.0973 29.09 61.7893 28.53C61.4906 27.97 61.3413 27.2793 61.3413 26.458C61.3413 25.674 61.4813 24.9927 61.7613 24.414C62.0413 23.8353 62.4193 23.3873 62.8953 23.07C63.3806 22.7433 63.9313 22.58 64.5473 22.58C65.0233 22.58 65.4526 22.6733 65.8353 22.86C66.2179 23.0373 66.5399 23.2847 66.8013 23.602C67.0719 23.91 67.2773 24.26 67.4173 24.652C67.5666 25.0347 67.6413 25.436 67.6413 25.856C67.6413 26.1267 67.5899 26.346 67.4873 26.514C67.3846 26.6727 67.1746 26.752 66.8573 26.752H62.4893C62.5266 27.3213 62.6479 27.7833 62.8533 28.138C63.0586 28.4927 63.3153 28.754 63.6233 28.922C63.9406 29.0807 64.2859 29.16 64.6593 29.16C65.1633 29.16 65.5646 29.0433 65.8633 28.81C66.1619 28.5767 66.3673 28.3013 66.4793 27.984C66.5259 27.872 66.5866 27.7787 66.6613 27.704C66.7453 27.62 66.8573 27.578 66.9973 27.578C67.1559 27.578 67.2819 27.6387 67.3753 27.76C67.4686 27.872 67.5106 28.0213 67.5013 28.208C67.4919 28.3947 67.4266 28.6047 67.3053 28.838C67.1839 29.062 67.0066 29.2813 66.7733 29.496C66.5493 29.7013 66.2646 29.8693 65.9193 30C65.5739 30.14 65.1679 30.21 64.7013 30.21ZM62.5033 25.786H66.5633C66.4979 25.1513 66.2926 24.6333 65.9473 24.232C65.6019 23.8213 65.1306 23.616 64.5333 23.616C64.0013 23.616 63.5486 23.798 63.1753 24.162C62.8113 24.526 62.5873 25.0673 62.5033 25.786ZM71.6211 30.14C71.5091 30.14 71.3971 30.1073 71.2851 30.042C71.1824 29.9767 71.1031 29.8693 71.0471 29.72L68.6671 23.434C68.6204 23.3127 68.6111 23.196 68.6391 23.084C68.6671 22.9627 68.7277 22.86 68.8211 22.776C68.9144 22.692 69.0311 22.65 69.1711 22.65C69.3017 22.65 69.4137 22.6827 69.5071 22.748C69.6004 22.8133 69.6657 22.902 69.7031 23.014L71.9151 28.908L71.3551 29.062L73.6791 23.014C73.7257 22.902 73.7957 22.8133 73.8891 22.748C73.9824 22.6827 74.0897 22.65 74.2111 22.65C74.3417 22.65 74.4491 22.692 74.5331 22.776C74.6171 22.8507 74.6731 22.9487 74.7011 23.07C74.7384 23.182 74.7337 23.3033 74.6871 23.434L72.2091 29.706C72.1624 29.846 72.0831 29.9533 71.9711 30.028C71.8591 30.1027 71.7424 30.14 71.6211 30.14ZM78.797 30.21C78.181 30.21 77.6163 30.07 77.103 29.79C76.599 29.51 76.193 29.09 75.885 28.53C75.5863 27.97 75.437 27.2793 75.437 26.458C75.437 25.674 75.577 24.9927 75.857 24.414C76.137 23.8353 76.515 23.3873 76.991 23.07C77.4763 22.7433 78.027 22.58 78.643 22.58C79.119 22.58 79.5483 22.6733 79.931 22.86C80.3136 23.0373 80.6356 23.2847 80.897 23.602C81.1676 23.91 81.373 24.26 81.513 24.652C81.6623 25.0347 81.737 25.436 81.737 25.856C81.737 26.1267 81.6856 26.346 81.583 26.514C81.4803 26.6727 81.2703 26.752 80.953 26.752H76.585C76.6223 27.3213 76.7436 27.7833 76.949 28.138C77.1543 28.4927 77.411 28.754 77.719 28.922C78.0363 29.0807 78.3816 29.16 78.755 29.16C79.259 29.16 79.6603 29.0433 79.959 28.81C80.2576 28.5767 80.463 28.3013 80.575 27.984C80.6216 27.872 80.6823 27.7787 80.757 27.704C80.841 27.62 80.953 27.578 81.093 27.578C81.2516 27.578 81.3776 27.6387 81.471 27.76C81.5643 27.872 81.6063 28.0213 81.597 28.208C81.5876 28.3947 81.5223 28.6047 81.401 28.838C81.2796 29.062 81.1023 29.2813 80.869 29.496C80.645 29.7013 80.3603 29.8693 80.015 30C79.6696 30.14 79.2636 30.21 78.797 30.21ZM76.599 25.786H80.659C80.5936 25.1513 80.3883 24.6333 80.043 24.232C79.6976 23.8213 79.2263 23.616 78.629 23.616C78.097 23.616 77.6443 23.798 77.271 24.162C76.907 24.526 76.683 25.0673 76.599 25.786ZM83.8408 30.14C83.6821 30.14 83.5468 30.084 83.4348 29.972C83.3321 29.86 83.2808 29.72 83.2808 29.552V23.224C83.2808 23.056 83.3321 22.9207 83.4348 22.818C83.5468 22.706 83.6821 22.65 83.8408 22.65C84.0088 22.65 84.1441 22.706 84.2468 22.818C84.3588 22.9207 84.4148 23.056 84.4148 23.224V24.162L84.1768 23.91C84.4754 23.4527 84.8301 23.1167 85.2408 22.902C85.6608 22.6873 86.1088 22.58 86.5848 22.58C87.0888 22.58 87.5414 22.6873 87.9428 22.902C88.3441 23.1073 88.6568 23.4107 88.8808 23.812C89.1141 24.204 89.2308 24.6893 89.2308 25.268V29.552C89.2308 29.72 89.1794 29.86 89.0768 29.972C88.9741 30.084 88.8388 30.14 88.6708 30.14C88.4934 30.14 88.3534 30.084 88.2508 29.972C88.1481 29.86 88.0968 29.72 88.0968 29.552V25.31C88.0968 24.778 87.9381 24.3627 87.6208 24.064C87.3128 23.7653 86.9021 23.616 86.3888 23.616C86.0434 23.616 85.7214 23.686 85.4228 23.826C85.1241 23.966 84.8814 24.1667 84.6948 24.428C84.5081 24.68 84.4148 24.9833 84.4148 25.338V29.552C84.4148 29.72 84.3588 29.86 84.2468 29.972C84.1441 30.084 84.0088 30.14 83.8408 30.14ZM93.6768 30.14C93.0888 30.14 92.5988 30.042 92.2068 29.846C91.8148 29.65 91.5208 29.356 91.3248 28.964C91.1381 28.5627 91.0448 28.0587 91.0448 27.452V23.154C91.0448 22.9953 91.0961 22.86 91.1988 22.748C91.3014 22.636 91.4321 22.58 91.5908 22.58C91.7588 22.58 91.8941 22.636 91.9968 22.748C92.0994 22.86 92.1508 22.9953 92.1508 23.154V27.466C92.1508 28.0633 92.3048 28.4833 92.6128 28.726C92.9208 28.9687 93.3314 29.09 93.8448 29.09C94.1994 29.09 94.5261 29.02 94.8248 28.88C95.1328 28.74 95.3801 28.544 95.5668 28.292C95.7534 28.0307 95.8468 27.7227 95.8468 27.368V23.154C95.8468 22.9953 95.8981 22.86 96.0008 22.748C96.1128 22.636 96.2528 22.58 96.4208 22.58C96.5794 22.58 96.7101 22.636 96.8128 22.748C96.9248 22.86 96.9808 22.9953 96.9808 23.154V29.566C96.9808 29.7247 96.9248 29.86 96.8128 29.972C96.7101 30.084 96.5794 30.14 96.4208 30.14C96.2528 30.14 96.1128 30.084 96.0008 29.972C95.8981 29.86 95.8468 29.7247 95.8468 29.566V28.558L96.0848 28.796C95.7861 29.2533 95.4268 29.594 95.0068 29.818C94.5961 30.0327 94.1528 30.14 93.6768 30.14ZM101.875 30.21C101.259 30.21 100.694 30.07 100.181 29.79C99.6771 29.51 99.2711 29.09 98.9631 28.53C98.6644 27.97 98.5151 27.2793 98.5151 26.458C98.5151 25.674 98.6551 24.9927 98.9351 24.414C99.2151 23.8353 99.5931 23.3873 100.069 23.07C100.554 22.7433 101.105 22.58 101.721 22.58C102.197 22.58 102.626 22.6733 103.009 22.86C103.392 23.0373 103.714 23.2847 103.975 23.602C104.246 23.91 104.451 24.26 104.591 24.652C104.74 25.0347 104.815 25.436 104.815 25.856C104.815 26.1267 104.764 26.346 104.661 26.514C104.558 26.6727 104.348 26.752 104.031 26.752H99.6631C99.7004 27.3213 99.8217 27.7833 100.027 28.138C100.232 28.4927 100.489 28.754 100.797 28.922C101.114 29.0807 101.46 29.16 101.833 29.16C102.337 29.16 102.738 29.0433 103.037 28.81C103.336 28.5767 103.541 28.3013 103.653 27.984C103.7 27.872 103.76 27.7787 103.835 27.704C103.919 27.62 104.031 27.578 104.171 27.578C104.33 27.578 104.456 27.6387 104.549 27.76C104.642 27.872 104.684 28.0213 104.675 28.208C104.666 28.3947 104.6 28.6047 104.479 28.838C104.358 29.062 104.18 29.2813 103.947 29.496C103.723 29.7013 103.438 29.8693 103.093 30C102.748 30.14 102.342 30.21 101.875 30.21ZM99.6771 25.786H103.737C103.672 25.1513 103.466 24.6333 103.121 24.232C102.776 23.8213 102.304 23.616 101.707 23.616C101.175 23.616 100.722 23.798 100.349 24.162C99.9851 24.526 99.7611 25.0673 99.6771 25.786ZM109.99 21.278C109.841 21.278 109.71 21.2267 109.598 21.124C109.496 21.0213 109.444 20.8907 109.444 20.732C109.444 20.5733 109.496 20.4473 109.598 20.354C109.71 20.2513 109.841 20.2 109.99 20.2H115.996C116.155 20.2 116.286 20.2513 116.388 20.354C116.491 20.4473 116.542 20.5733 116.542 20.732C116.542 20.8907 116.491 21.0213 116.388 21.124C116.286 21.2267 116.155 21.278 115.996 21.278H109.99ZM112.986 30.14C112.828 30.14 112.692 30.084 112.58 29.972C112.478 29.86 112.426 29.7247 112.426 29.566V20.802H113.574V29.566C113.574 29.7247 113.518 29.86 113.406 29.972C113.304 30.084 113.164 30.14 112.986 30.14ZM118.28 30.14C118.122 30.14 117.986 30.084 117.874 29.972C117.772 29.86 117.72 29.72 117.72 29.552V20.354C117.72 20.186 117.772 20.0507 117.874 19.948C117.986 19.836 118.122 19.78 118.28 19.78C118.448 19.78 118.584 19.836 118.686 19.948C118.798 20.0507 118.854 20.186 118.854 20.354V24.162L118.616 23.91C118.915 23.4527 119.265 23.1167 119.666 22.902C120.077 22.6873 120.52 22.58 120.996 22.58C121.491 22.58 121.934 22.6873 122.326 22.902C122.728 23.1073 123.04 23.4107 123.264 23.812C123.498 24.204 123.614 24.6893 123.614 25.268V29.552C123.614 29.72 123.563 29.86 123.46 29.972C123.358 30.084 123.222 30.14 123.054 30.14C122.896 30.14 122.76 30.084 122.648 29.972C122.546 29.86 122.494 29.72 122.494 29.552V25.31C122.494 24.778 122.34 24.3627 122.032 24.064C121.724 23.7653 121.323 23.616 120.828 23.616C120.483 23.616 120.156 23.686 119.848 23.826C119.55 23.966 119.307 24.1667 119.12 24.428C118.943 24.68 118.854 24.9833 118.854 25.338V29.552C118.854 29.72 118.798 29.86 118.686 29.972C118.584 30.084 118.448 30.14 118.28 30.14ZM126.074 30.14C125.906 30.14 125.766 30.0887 125.654 29.986C125.551 29.874 125.5 29.7387 125.5 29.58V23.21C125.5 23.0513 125.551 22.9207 125.654 22.818C125.766 22.706 125.906 22.65 126.074 22.65C126.232 22.65 126.363 22.706 126.466 22.818C126.578 22.9207 126.634 23.0513 126.634 23.21V29.58C126.634 29.7387 126.578 29.874 126.466 29.986C126.363 30.0887 126.232 30.14 126.074 30.14ZM126.06 21.796C125.854 21.796 125.686 21.7307 125.556 21.6C125.425 21.46 125.36 21.2593 125.36 20.998C125.36 20.7553 125.425 20.564 125.556 20.424C125.686 20.284 125.854 20.214 126.06 20.214C126.274 20.214 126.447 20.284 126.578 20.424C126.708 20.564 126.774 20.7553 126.774 20.998C126.774 21.2593 126.708 21.46 126.578 21.6C126.447 21.7307 126.274 21.796 126.06 21.796ZM131.053 30.252C130.419 30.252 129.891 30.14 129.471 29.916C129.051 29.6827 128.734 29.412 128.519 29.104C128.305 28.7867 128.188 28.502 128.169 28.25C128.16 28.054 128.202 27.9047 128.295 27.802C128.398 27.69 128.524 27.634 128.673 27.634C128.813 27.634 128.925 27.676 129.009 27.76C129.093 27.8347 129.154 27.9233 129.191 28.026C129.303 28.3433 129.509 28.6233 129.807 28.866C130.106 29.0993 130.526 29.216 131.067 29.216C131.562 29.216 131.94 29.1133 132.201 28.908C132.463 28.6933 132.593 28.418 132.593 28.082C132.593 27.8207 132.514 27.6153 132.355 27.466C132.206 27.3073 131.996 27.1813 131.725 27.088C131.455 26.9947 131.142 26.9013 130.787 26.808C130.526 26.7333 130.255 26.654 129.975 26.57C129.695 26.4767 129.434 26.3553 129.191 26.206C128.949 26.0567 128.753 25.8653 128.603 25.632C128.454 25.3987 128.379 25.1047 128.379 24.75C128.379 24.358 128.482 23.9987 128.687 23.672C128.893 23.336 129.191 23.07 129.583 22.874C129.975 22.6687 130.442 22.566 130.983 22.566C131.534 22.566 131.996 22.6593 132.369 22.846C132.743 23.0327 133.027 23.2613 133.223 23.532C133.429 23.7933 133.536 24.0453 133.545 24.288C133.555 24.4653 133.517 24.6053 133.433 24.708C133.349 24.8107 133.228 24.862 133.069 24.862C132.967 24.862 132.864 24.834 132.761 24.778C132.659 24.722 132.57 24.6333 132.495 24.512C132.43 24.3813 132.341 24.246 132.229 24.106C132.127 23.9567 131.977 23.8353 131.781 23.742C131.585 23.6393 131.315 23.588 130.969 23.588C130.531 23.588 130.171 23.686 129.891 23.882C129.611 24.0687 129.471 24.3253 129.471 24.652C129.471 24.904 129.551 25.1 129.709 25.24C129.877 25.38 130.092 25.492 130.353 25.576C130.624 25.66 130.918 25.7487 131.235 25.842C131.534 25.926 131.828 26.0193 132.117 26.122C132.407 26.2153 132.668 26.3413 132.901 26.5C133.144 26.6493 133.335 26.8407 133.475 27.074C133.625 27.3073 133.699 27.5967 133.699 27.942C133.699 28.2873 133.611 28.642 133.433 29.006C133.265 29.3607 132.985 29.6593 132.593 29.902C132.211 30.1353 131.697 30.252 131.053 30.252ZM139.803 30.14C139.645 30.14 139.509 30.084 139.397 29.972C139.285 29.86 139.229 29.7247 139.229 29.566L139.243 20.676C139.243 20.4987 139.299 20.354 139.411 20.242C139.533 20.1207 139.682 20.06 139.859 20.06C139.999 20.06 140.116 20.0927 140.209 20.158C140.312 20.2233 140.387 20.312 140.433 20.424L143.933 28.39L147.293 20.424C147.34 20.312 147.41 20.2233 147.503 20.158C147.606 20.0927 147.732 20.06 147.881 20.06C148.059 20.06 148.203 20.1207 148.315 20.242C148.427 20.3633 148.483 20.5033 148.483 20.662L148.511 29.566C148.511 29.7247 148.455 29.86 148.343 29.972C148.241 30.084 148.105 30.14 147.937 30.14C147.769 30.14 147.629 30.084 147.517 29.972C147.415 29.86 147.363 29.7247 147.363 29.566L147.419 22.86L144.591 29.538C144.498 29.762 144.395 29.916 144.283 30C144.181 30.0933 144.064 30.14 143.933 30.14C143.793 30.14 143.672 30.0933 143.569 30C143.467 29.916 143.364 29.762 143.261 29.538L140.321 22.818L140.391 29.566C140.391 29.7247 140.335 29.86 140.223 29.972C140.121 30.084 139.981 30.14 139.803 30.14ZM153.471 30.21C152.817 30.21 152.243 30.0513 151.749 29.734C151.263 29.4073 150.881 28.9547 150.601 28.376C150.33 27.7973 150.195 27.13 150.195 26.374C150.195 25.618 150.33 24.9553 150.601 24.386C150.881 23.8167 151.263 23.3733 151.749 23.056C152.243 22.7387 152.817 22.58 153.471 22.58C154.133 22.58 154.712 22.7387 155.207 23.056C155.711 23.3733 156.103 23.8167 156.383 24.386C156.663 24.9553 156.803 25.618 156.803 26.374C156.803 27.13 156.663 27.7973 156.383 28.376C156.103 28.9547 155.711 29.4073 155.207 29.734C154.712 30.0513 154.133 30.21 153.471 30.21ZM153.471 29.16C154.161 29.16 154.698 28.9127 155.081 28.418C155.463 27.9233 155.655 27.242 155.655 26.374C155.655 25.5247 155.463 24.8527 155.081 24.358C154.698 23.8633 154.161 23.616 153.471 23.616C152.789 23.616 152.262 23.8633 151.889 24.358C151.515 24.8527 151.329 25.5247 151.329 26.374C151.329 27.242 151.515 27.9233 151.889 28.418C152.262 28.9127 152.789 29.16 153.471 29.16ZM158.899 30.14C158.741 30.14 158.605 30.084 158.493 29.972C158.391 29.86 158.339 29.72 158.339 29.552V23.224C158.339 23.056 158.391 22.9207 158.493 22.818C158.605 22.706 158.741 22.65 158.899 22.65C159.067 22.65 159.203 22.706 159.305 22.818C159.417 22.9207 159.473 23.056 159.473 23.224V24.162L159.235 23.91C159.534 23.4527 159.889 23.1167 160.299 22.902C160.719 22.6873 161.167 22.58 161.643 22.58C162.147 22.58 162.6 22.6873 163.001 22.902C163.403 23.1073 163.715 23.4107 163.939 23.812C164.173 24.204 164.289 24.6893 164.289 25.268V29.552C164.289 29.72 164.238 29.86 164.135 29.972C164.033 30.084 163.897 30.14 163.729 30.14C163.552 30.14 163.412 30.084 163.309 29.972C163.207 29.86 163.155 29.72 163.155 29.552V25.31C163.155 24.778 162.997 24.3627 162.679 24.064C162.371 23.7653 161.961 23.616 161.447 23.616C161.102 23.616 160.78 23.686 160.481 23.826C160.183 23.966 159.94 24.1667 159.753 24.428C159.567 24.68 159.473 24.9833 159.473 25.338V29.552C159.473 29.72 159.417 29.86 159.305 29.972C159.203 30.084 159.067 30.14 158.899 30.14ZM168.133 30.14C167.816 30.14 167.541 30.07 167.307 29.93C167.083 29.7807 166.911 29.5753 166.789 29.314C166.668 29.0433 166.607 28.7353 166.607 28.39V21.81C166.607 21.6513 166.659 21.5207 166.761 21.418C166.873 21.306 167.009 21.25 167.167 21.25C167.326 21.25 167.457 21.306 167.559 21.418C167.671 21.5207 167.727 21.6513 167.727 21.81V28.376C167.727 28.5533 167.755 28.7073 167.811 28.838C167.867 28.9593 167.984 29.02 168.161 29.02C168.283 29.02 168.371 28.992 168.427 28.936C168.493 28.88 168.558 28.8287 168.623 28.782C168.689 28.726 168.782 28.698 168.903 28.698C169.071 28.698 169.207 28.754 169.309 28.866C169.412 28.9687 169.463 29.0993 169.463 29.258C169.463 29.426 169.398 29.58 169.267 29.72C169.146 29.8507 168.983 29.9533 168.777 30.028C168.581 30.1027 168.367 30.14 168.133 30.14ZM166.159 23.812C166.01 23.812 165.879 23.7653 165.767 23.672C165.665 23.5693 165.613 23.4433 165.613 23.294C165.613 23.154 165.665 23.0373 165.767 22.944C165.879 22.8413 166.01 22.79 166.159 22.79H169.113C169.263 22.79 169.389 22.8413 169.491 22.944C169.603 23.0373 169.659 23.154 169.659 23.294C169.659 23.4433 169.603 23.5693 169.491 23.672C169.389 23.7653 169.263 23.812 169.113 23.812H166.159ZM171.765 30.14C171.606 30.14 171.471 30.084 171.359 29.972C171.256 29.86 171.205 29.72 171.205 29.552V20.354C171.205 20.186 171.256 20.0507 171.359 19.948C171.471 19.836 171.606 19.78 171.765 19.78C171.933 19.78 172.068 19.836 172.171 19.948C172.283 20.0507 172.339 20.186 172.339 20.354V24.162L172.101 23.91C172.399 23.4527 172.749 23.1167 173.151 22.902C173.561 22.6873 174.005 22.58 174.481 22.58C174.975 22.58 175.419 22.6873 175.811 22.902C176.212 23.1073 176.525 23.4107 176.749 23.812C176.982 24.204 177.099 24.6893 177.099 25.268V29.552C177.099 29.72 177.047 29.86 176.945 29.972C176.842 30.084 176.707 30.14 176.539 30.14C176.38 30.14 176.245 30.084 176.133 29.972C176.03 29.86 175.979 29.72 175.979 29.552V25.31C175.979 24.778 175.825 24.3627 175.517 24.064C175.209 23.7653 174.807 23.616 174.313 23.616C173.967 23.616 173.641 23.686 173.333 23.826C173.034 23.966 172.791 24.1667 172.605 24.428C172.427 24.68 172.339 24.9833 172.339 25.338V29.552C172.339 29.72 172.283 29.86 172.171 29.972C172.068 30.084 171.933 30.14 171.765 30.14Z" fill="#2E2C28"/>
<path d="M26.2 61C24.952 61 23.856 60.808 22.912 60.424C21.984 60.024 21.256 59.52 20.728 58.912C20.216 58.288 19.96 57.648 19.96 56.992C19.96 56.592 20.08 56.264 20.32 56.008C20.576 55.736 20.912 55.6 21.328 55.6C21.728 55.6 22.016 55.712 22.192 55.936C22.384 56.144 22.56 56.4 22.72 56.704C22.944 57.152 23.32 57.552 23.848 57.904C24.392 58.256 25.144 58.432 26.104 58.432C26.648 58.432 27.152 58.368 27.616 58.24C28.08 58.096 28.448 57.872 28.72 57.568C29.008 57.264 29.152 56.856 29.152 56.344C29.152 55.896 29.024 55.536 28.768 55.264C28.528 54.976 28.16 54.72 27.664 54.496C27.168 54.256 26.544 54 25.792 53.728C25.216 53.52 24.632 53.304 24.04 53.08C23.448 52.84 22.912 52.544 22.432 52.192C21.952 51.84 21.56 51.392 21.256 50.848C20.968 50.304 20.824 49.616 20.824 48.784C20.824 47.808 21.056 46.992 21.52 46.336C21.984 45.68 22.608 45.184 23.392 44.848C24.192 44.512 25.088 44.344 26.08 44.344C26.816 44.344 27.496 44.44 28.12 44.632C28.76 44.808 29.312 45.056 29.776 45.376C30.24 45.68 30.608 46.04 30.88 46.456C31.152 46.856 31.304 47.28 31.336 47.728C31.352 48.128 31.24 48.464 31 48.736C30.76 48.992 30.432 49.12 30.016 49.12C29.664 49.12 29.408 49.056 29.248 48.928C29.104 48.784 28.944 48.56 28.768 48.256C28.56 47.84 28.24 47.512 27.808 47.272C27.392 47.032 26.84 46.912 26.152 46.912C25.672 46.912 25.24 46.984 24.856 47.128C24.488 47.256 24.2 47.456 23.992 47.728C23.784 47.984 23.68 48.296 23.68 48.664C23.68 49.16 23.84 49.56 24.16 49.864C24.48 50.168 24.904 50.432 25.432 50.656C25.96 50.864 26.52 51.08 27.112 51.304C27.864 51.576 28.536 51.856 29.128 52.144C29.736 52.432 30.248 52.76 30.664 53.128C31.096 53.48 31.424 53.912 31.648 54.424C31.888 54.92 32.008 55.512 32.008 56.2C32.008 57.224 31.768 58.096 31.288 58.816C30.808 59.52 30.128 60.064 29.248 60.448C28.384 60.816 27.368 61 26.2 61ZM26.272 63.376C26 63.376 25.76 63.272 25.552 63.064C25.36 62.872 25.264 62.64 25.264 62.368V43.072C25.264 42.784 25.36 42.544 25.552 42.352C25.76 42.16 26 42.064 26.272 42.064C26.56 42.064 26.8 42.16 26.992 42.352C27.184 42.544 27.28 42.784 27.28 43.072V62.368C27.28 62.64 27.184 62.872 26.992 63.064C26.8 63.272 26.56 63.376 26.272 63.376ZM46.4901 61.36C45.5941 61.36 44.7781 61.224 44.0421 60.952C43.3061 60.68 42.6741 60.336 42.1461 59.92C41.6181 59.488 41.2021 59.04 40.8981 58.576C40.6101 58.096 40.4581 57.656 40.4421 57.256C40.4101 56.808 40.5301 56.464 40.8021 56.224C41.0741 55.984 41.3781 55.864 41.7141 55.864C42.0181 55.864 42.2581 55.952 42.4341 56.128C42.6261 56.288 42.7941 56.496 42.9381 56.752C43.2421 57.376 43.6741 57.872 44.2341 58.24C44.8101 58.608 45.4741 58.792 46.2261 58.792C46.9461 58.792 47.5701 58.64 48.0981 58.336C48.6421 58.032 49.0661 57.616 49.3701 57.088C49.6741 56.544 49.8261 55.944 49.8261 55.288C49.8261 54.616 49.6741 54.024 49.3701 53.512C49.0661 53 48.6581 52.592 48.1461 52.288C47.6341 51.984 47.0501 51.832 46.3941 51.832C45.9781 51.832 45.6421 51.888 45.3861 52C45.1301 52.096 44.8981 52.2 44.6901 52.312C44.4981 52.424 44.2741 52.48 44.0181 52.48C43.6981 52.48 43.4421 52.376 43.2501 52.168C43.0581 51.96 42.9621 51.728 42.9621 51.472C42.9621 51.264 43.0261 51.08 43.1541 50.92C43.2981 50.744 43.4581 50.568 43.6341 50.392L48.1461 46.024L48.3141 46.744L42.8421 46.792C42.3941 46.808 42.0581 46.68 41.8341 46.408C41.6101 46.136 41.4981 45.84 41.4981 45.52C41.4981 45.168 41.6341 44.864 41.9061 44.608C42.1781 44.336 42.4901 44.2 42.8421 44.2H50.0901C50.5381 44.2 50.8661 44.312 51.0741 44.536C51.2981 44.744 51.4101 45.016 51.4101 45.352C51.4101 45.592 51.3381 45.848 51.1941 46.12C51.0501 46.376 50.8021 46.688 50.4501 47.056C50.0981 47.424 49.6101 47.872 48.9861 48.4L46.4901 50.488L46.8261 49.816C47.7061 49.768 48.4981 49.88 49.2021 50.152C49.9061 50.424 50.5061 50.816 51.0021 51.328C51.5141 51.84 51.8981 52.44 52.1541 53.128C52.4261 53.816 52.5621 54.552 52.5621 55.336C52.5621 56.472 52.3061 57.496 51.7941 58.408C51.2821 59.32 50.5701 60.04 49.6581 60.568C48.7461 61.096 47.6901 61.36 46.4901 61.36ZM56.6886 61C56.1926 61 55.7686 60.856 55.4166 60.568C55.0806 60.264 54.9126 59.824 54.9126 59.248C54.9126 58.416 55.0566 57.664 55.3446 56.992C55.6486 56.32 56.0486 55.712 56.5446 55.168C57.0566 54.624 57.6086 54.128 58.2006 53.68C58.8086 53.216 59.4006 52.776 59.9766 52.36C60.5846 51.944 61.1446 51.536 61.6566 51.136C62.1846 50.72 62.6086 50.296 62.9286 49.864C63.2486 49.416 63.4086 48.944 63.4086 48.448C63.4086 48.016 63.2966 47.648 63.0726 47.344C62.8486 47.04 62.5366 46.808 62.1366 46.648C61.7366 46.472 61.2566 46.384 60.6966 46.384C60.0886 46.384 59.5766 46.472 59.1606 46.648C58.7606 46.824 58.4326 47.064 58.1766 47.368C57.9366 47.672 57.7446 48.016 57.6006 48.4C57.4726 48.736 57.3046 48.992 57.0966 49.168C56.8886 49.328 56.6326 49.408 56.3286 49.408C55.9606 49.408 55.6566 49.28 55.4166 49.024C55.1766 48.768 55.0566 48.448 55.0566 48.064C55.0726 47.536 55.2326 47.024 55.5366 46.528C55.8406 46.032 56.2566 45.584 56.7846 45.184C57.3126 44.784 57.9286 44.464 58.6326 44.224C59.3526 43.984 60.1286 43.864 60.9606 43.864C61.9686 43.864 62.8646 44.056 63.6486 44.44C64.4326 44.808 65.0486 45.336 65.4966 46.024C65.9606 46.712 66.2006 47.512 66.2166 48.424C66.2326 49.16 66.1046 49.824 65.8326 50.416C65.5766 50.992 65.2246 51.528 64.7766 52.024C64.3286 52.504 63.8326 52.952 63.2886 53.368C62.7446 53.768 62.1926 54.152 61.6326 54.52C61.0726 54.904 60.5286 55.296 60.0006 55.696C59.4726 56.08 59.0326 56.48 58.6806 56.896C58.3446 57.312 58.1766 57.784 58.1766 58.312V58.36L65.2566 58.336C65.6406 58.336 65.9606 58.472 66.2166 58.744C66.4726 59 66.6006 59.312 66.6006 59.68C66.6006 60.048 66.4726 60.36 66.2166 60.616C65.9606 60.872 65.6406 61 65.2566 61H56.6886ZM74.5705 61.336C73.8345 61.336 73.1385 61.224 72.4825 61C71.8425 60.76 71.2745 60.448 70.7785 60.064C70.2825 59.68 69.8905 59.264 69.6025 58.816C69.3305 58.368 69.1865 57.944 69.1705 57.544C69.1705 57.176 69.2745 56.864 69.4825 56.608C69.7065 56.352 70.0185 56.224 70.4185 56.224C70.7385 56.224 70.9945 56.304 71.1865 56.464C71.3785 56.624 71.5385 56.816 71.6665 57.04C71.9385 57.552 72.3225 57.968 72.8185 58.288C73.3305 58.608 73.8905 58.768 74.4985 58.768C75.2185 58.768 75.8505 58.568 76.3945 58.168C76.9385 57.752 77.3785 57.152 77.7145 56.368C78.0665 55.584 78.2905 54.624 78.3865 53.488C77.7785 53.968 77.1145 54.352 76.3945 54.64C75.6745 54.912 74.9305 55.048 74.1625 55.048C73.1865 55.048 72.2745 54.824 71.4265 54.376C70.5945 53.912 69.9225 53.272 69.4105 52.456C68.9145 51.624 68.6665 50.656 68.6665 49.552C68.6665 48.528 68.9065 47.592 69.3865 46.744C69.8825 45.88 70.5705 45.184 71.4505 44.656C72.3465 44.128 73.3785 43.864 74.5465 43.864C75.9545 43.864 77.1465 44.2 78.1225 44.872C79.1145 45.544 79.8665 46.504 80.3785 47.752C80.8905 49 81.1465 50.504 81.1465 52.264C81.1465 54.104 80.8745 55.704 80.3305 57.064C79.7865 58.424 79.0185 59.48 78.0265 60.232C77.0505 60.968 75.8985 61.336 74.5705 61.336ZM71.4265 49.624C71.4265 50.232 71.5625 50.76 71.8345 51.208C72.1065 51.64 72.4665 51.976 72.9145 52.216C73.3625 52.44 73.8585 52.552 74.4025 52.552C75.0745 52.552 75.7385 52.376 76.3945 52.024C77.0505 51.672 77.6825 51.176 78.2905 50.536C78.1145 49.16 77.7065 48.128 77.0665 47.44C76.4425 46.752 75.6185 46.408 74.5945 46.408C73.9705 46.408 73.4185 46.552 72.9385 46.84C72.4745 47.128 72.1065 47.52 71.8345 48.016C71.5625 48.496 71.4265 49.032 71.4265 49.624ZM89.0241 61.384C87.8561 61.384 86.8321 61.168 85.9521 60.736C85.0881 60.304 84.4081 59.768 83.9121 59.128C83.4161 58.472 83.1361 57.816 83.0721 57.16C83.0561 56.76 83.1681 56.44 83.4081 56.2C83.6481 55.96 83.9601 55.84 84.3441 55.84C84.6481 55.84 84.8881 55.928 85.0641 56.104C85.2561 56.264 85.4241 56.464 85.5681 56.704C85.8881 57.344 86.3281 57.856 86.8881 58.24C87.4481 58.624 88.1201 58.816 88.9041 58.816C89.6081 58.816 90.2241 58.664 90.7521 58.36C91.2961 58.04 91.7121 57.608 92.0001 57.064C92.3041 56.504 92.4561 55.888 92.4561 55.216C92.4561 54.528 92.3041 53.92 92.0001 53.392C91.7121 52.848 91.2961 52.424 90.7521 52.12C90.2241 51.8 89.5921 51.64 88.8561 51.64C88.3921 51.64 88.0001 51.704 87.6801 51.832C87.3761 51.96 87.1041 52.104 86.8641 52.264C86.6401 52.408 86.4161 52.544 86.1921 52.672C85.9681 52.784 85.7121 52.84 85.4241 52.84C85.0241 52.84 84.7201 52.728 84.5121 52.504C84.3041 52.264 84.2241 51.928 84.2721 51.496L84.9441 45.64C84.9921 45.176 85.1841 44.824 85.5201 44.584C85.8561 44.328 86.2161 44.2 86.6001 44.2H92.5761C92.9601 44.2 93.2801 44.336 93.5361 44.608C93.8081 44.864 93.9441 45.176 93.9441 45.544C93.9441 45.896 93.8081 46.216 93.5361 46.504C93.2641 46.776 92.8961 46.904 92.4321 46.888L86.1441 46.768L87.6561 45.832L86.9601 51.4L85.2561 51.04C85.8961 50.496 86.5441 50.088 87.2001 49.816C87.8721 49.544 88.6081 49.408 89.4081 49.408C90.5441 49.408 91.5441 49.648 92.4081 50.128C93.2881 50.608 93.9761 51.288 94.4721 52.168C94.9681 53.032 95.2161 54.048 95.2161 55.216C95.2161 56.384 94.9601 57.44 94.4481 58.384C93.9361 59.312 93.2161 60.048 92.2881 60.592C91.3761 61.12 90.2881 61.384 89.0241 61.384ZM99.4649 61.288C98.9529 61.288 98.5369 61.128 98.2169 60.808C97.8969 60.488 97.7369 60.024 97.7369 59.416C97.7369 58.824 97.8969 58.368 98.2169 58.048C98.5369 57.712 98.9529 57.544 99.4649 57.544C99.9769 57.544 100.393 57.712 100.713 58.048C101.033 58.368 101.193 58.824 101.193 59.416C101.193 60.024 101.033 60.488 100.713 60.808C100.393 61.128 99.9769 61.288 99.4649 61.288ZM110.065 61.36C109.201 61.36 108.393 61.232 107.641 60.976C106.889 60.704 106.225 60.328 105.649 59.848C105.089 59.368 104.641 58.8 104.305 58.144C103.985 57.488 103.825 56.768 103.825 55.984C103.825 55.408 103.913 54.888 104.089 54.424C104.281 53.944 104.521 53.512 104.809 53.128C105.097 52.728 105.425 52.384 105.793 52.096C105.377 51.76 105.041 51.336 104.785 50.824C104.529 50.296 104.417 49.64 104.449 48.856C104.481 47.736 104.769 46.816 105.313 46.096C105.873 45.36 106.569 44.816 107.401 44.464C108.249 44.096 109.137 43.912 110.065 43.912C110.737 43.912 111.393 44.008 112.033 44.2C112.689 44.392 113.281 44.688 113.809 45.088C114.353 45.472 114.785 45.952 115.105 46.528C115.425 47.104 115.585 47.784 115.585 48.568C115.585 49.352 115.417 50.04 115.081 50.632C114.761 51.224 114.345 51.744 113.833 52.192C114.457 52.544 114.977 53.032 115.393 53.656C115.809 54.264 116.017 55.056 116.017 56.032C116.017 57.104 115.753 58.04 115.225 58.84C114.697 59.64 113.985 60.264 113.089 60.712C112.193 61.144 111.185 61.36 110.065 61.36ZM110.041 58.792C110.665 58.792 111.225 58.672 111.721 58.432C112.217 58.176 112.601 57.832 112.873 57.4C113.161 56.968 113.289 56.472 113.257 55.912C113.241 55.416 113.065 54.992 112.729 54.64C112.409 54.272 111.873 53.968 111.121 53.728C110.369 53.472 109.361 53.28 108.097 53.152C107.809 53.344 107.545 53.56 107.305 53.8C107.065 54.04 106.873 54.312 106.729 54.616C106.585 54.92 106.513 55.28 106.513 55.696C106.513 56.304 106.665 56.84 106.969 57.304C107.289 57.768 107.713 58.136 108.241 58.408C108.785 58.664 109.385 58.792 110.041 58.792ZM111.313 51.232C111.809 50.848 112.185 50.44 112.441 50.008C112.697 49.576 112.825 49.136 112.825 48.688C112.825 48.192 112.697 47.784 112.441 47.464C112.185 47.128 111.841 46.88 111.409 46.72C110.977 46.544 110.505 46.456 109.993 46.456C109.481 46.456 109.009 46.544 108.577 46.72C108.161 46.88 107.825 47.136 107.569 47.488C107.329 47.84 107.209 48.28 107.209 48.808C107.209 49.304 107.337 49.704 107.593 50.008C107.849 50.312 108.273 50.552 108.865 50.728C109.473 50.904 110.289 51.072 111.313 51.232ZM123.923 61.384C122.755 61.384 121.731 61.168 120.851 60.736C119.987 60.304 119.307 59.768 118.811 59.128C118.315 58.472 118.035 57.816 117.971 57.16C117.955 56.76 118.067 56.44 118.307 56.2C118.547 55.96 118.859 55.84 119.243 55.84C119.547 55.84 119.787 55.928 119.963 56.104C120.155 56.264 120.323 56.464 120.467 56.704C120.787 57.344 121.227 57.856 121.787 58.24C122.347 58.624 123.019 58.816 123.803 58.816C124.507 58.816 125.123 58.664 125.651 58.36C126.195 58.04 126.611 57.608 126.899 57.064C127.203 56.504 127.355 55.888 127.355 55.216C127.355 54.528 127.203 53.92 126.899 53.392C126.611 52.848 126.195 52.424 125.651 52.12C125.123 51.8 124.491 51.64 123.755 51.64C123.291 51.64 122.899 51.704 122.579 51.832C122.275 51.96 122.003 52.104 121.763 52.264C121.539 52.408 121.315 52.544 121.091 52.672C120.867 52.784 120.611 52.84 120.323 52.84C119.923 52.84 119.619 52.728 119.411 52.504C119.203 52.264 119.123 51.928 119.171 51.496L119.843 45.64C119.891 45.176 120.083 44.824 120.419 44.584C120.755 44.328 121.115 44.2 121.499 44.2H127.475C127.859 44.2 128.179 44.336 128.435 44.608C128.707 44.864 128.843 45.176 128.843 45.544C128.843 45.896 128.707 46.216 128.435 46.504C128.163 46.776 127.795 46.904 127.331 46.888L121.043 46.768L122.555 45.832L121.859 51.4L120.155 51.04C120.795 50.496 121.443 50.088 122.099 49.816C122.771 49.544 123.507 49.408 124.307 49.408C125.443 49.408 126.443 49.648 127.307 50.128C128.187 50.608 128.875 51.288 129.371 52.168C129.867 53.032 130.115 54.048 130.115 55.216C130.115 56.384 129.859 57.44 129.347 58.384C128.835 59.312 128.115 60.048 127.187 60.592C126.275 61.12 125.187 61.384 123.923 61.384Z" fill="#267F53"/>
<rect x="19" y="70" width="46" height="20" rx="5" fill="#267F53"/>
<g clip-path="url(#clip0_5990_16513)">
<path d="M32.3079 76.0176L24.3106 82.9379L24.3083 82.9402C24.0534 83.1765 23.9514 83.4781 24.0222 83.788C24.0941 84.1056 24.3479 84.3791 24.6539 84.4679C24.7277 84.4894 24.8015 84.5 24.8742 84.5C25.0961 84.5 25.3096 84.4018 25.4926 84.2117L32.6237 76.2906L32.3079 76.0176Z" fill="white"/>
<path d="M32.6877 76.2182C32.7135 76.0003 32.5286 75.8254 32.3178 75.8598C30.6106 76.138 28.7414 76.0484 27.1484 75.5034C26.7473 75.4623 26.3941 75.7957 26.4173 76.2272C26.436 76.5695 26.7184 76.8367 27.0502 76.8688C28.3315 76.9932 30.501 76.9603 31.6122 76.9326C31.5829 78.0812 31.5472 80.3205 31.6682 81.6374C31.6994 81.9785 31.9593 82.2688 32.2923 82.288C32.712 82.3118 33.0362 81.9488 32.9963 81.5364C32.4159 79.3151 32.5784 77.1258 32.6873 76.2182H32.6877Z" fill="white"/>
</g>
<path d="M40.336 82.416C40.2 82.416 40.084 82.376 39.988 82.296C39.892 82.208 39.844 82.1 39.844 81.972V77.424C39.844 77.296 39.892 77.188 39.988 77.1C40.084 77.012 40.2 76.968 40.336 76.968C40.472 76.968 40.584 77.012 40.672 77.1C40.768 77.188 40.816 77.296 40.816 77.424V81.972C40.816 82.1 40.768 82.208 40.672 82.296C40.584 82.376 40.472 82.416 40.336 82.416ZM38.176 80.136C38.048 80.136 37.94 80.092 37.852 80.004C37.764 79.916 37.72 79.812 37.72 79.692C37.72 79.564 37.764 79.456 37.852 79.368C37.94 79.28 38.048 79.236 38.176 79.236H42.484C42.612 79.236 42.72 79.28 42.808 79.368C42.896 79.456 42.94 79.564 42.94 79.692C42.94 79.812 42.896 79.916 42.808 80.004C42.72 80.092 42.612 80.136 42.484 80.136H38.176ZM45.0483 84C44.8243 84 44.6363 83.936 44.4843 83.808C44.3323 83.672 44.2563 83.48 44.2563 83.232C44.2563 82.848 44.3283 82.496 44.4723 82.176C44.6243 81.848 44.8243 81.548 45.0723 81.276C45.3203 81.004 45.5923 80.748 45.8883 80.508C46.1923 80.268 46.4923 80.04 46.7883 79.824C47.1163 79.584 47.4203 79.348 47.7003 79.116C47.9803 78.884 48.2083 78.648 48.3843 78.408C48.5603 78.16 48.6483 77.896 48.6483 77.616C48.6483 77.36 48.5803 77.14 48.4443 76.956C48.3083 76.764 48.1163 76.616 47.8683 76.512C47.6283 76.408 47.3483 76.356 47.0283 76.356C46.6283 76.356 46.3083 76.42 46.0683 76.548C45.8363 76.668 45.6603 76.828 45.5403 77.028C45.4203 77.22 45.3363 77.428 45.2883 77.652C45.2483 77.844 45.1843 77.98 45.0963 78.06C45.0163 78.132 44.9083 78.168 44.7723 78.168C44.6203 78.168 44.5083 78.116 44.4363 78.012C44.3643 77.908 44.3323 77.788 44.3403 77.652C44.3643 77.396 44.4403 77.14 44.5683 76.884C44.7043 76.628 44.8883 76.396 45.1203 76.188C45.3523 75.972 45.6323 75.8 45.9603 75.672C46.2883 75.544 46.6563 75.48 47.0643 75.48C47.5043 75.48 47.9163 75.572 48.3003 75.756C48.6923 75.932 49.0083 76.184 49.2483 76.512C49.4963 76.832 49.6203 77.204 49.6203 77.628C49.6203 77.94 49.5563 78.232 49.4283 78.504C49.3003 78.768 49.1243 79.02 48.9003 79.26C48.6843 79.492 48.4403 79.716 48.1683 79.932C47.9043 80.14 47.6323 80.344 47.3523 80.544C47.0083 80.792 46.6843 81.044 46.3803 81.3C46.0843 81.556 45.8443 81.824 45.6603 82.104C45.4763 82.376 45.3843 82.68 45.3843 83.016V83.04H49.2483C49.3843 83.04 49.4923 83.088 49.5723 83.184C49.6603 83.272 49.7043 83.384 49.7043 83.52C49.7043 83.656 49.6603 83.772 49.5723 83.868C49.4923 83.956 49.3843 84 49.2483 84H45.0483ZM52.3062 84.18C52.1862 84.18 52.0822 84.14 51.9942 84.06C51.9142 83.988 51.8662 83.896 51.8502 83.784C51.8342 83.672 51.8622 83.564 51.9342 83.46L57.4302 75.672C57.4702 75.608 57.5222 75.556 57.5862 75.516C57.6582 75.476 57.7342 75.456 57.8142 75.456C57.9422 75.456 58.0462 75.496 58.1262 75.576C58.2062 75.648 58.2542 75.74 58.2702 75.852C58.2862 75.964 58.2582 76.076 58.1862 76.188L52.6902 83.976C52.6502 84.032 52.5942 84.08 52.5222 84.12C52.4582 84.16 52.3862 84.18 52.3062 84.18ZM52.5822 79.536C52.2142 79.536 51.8742 79.444 51.5622 79.26C51.2502 79.068 51.0022 78.816 50.8182 78.504C50.6342 78.192 50.5422 77.852 50.5422 77.484C50.5422 77.108 50.6342 76.764 50.8182 76.452C51.0022 76.14 51.2502 75.892 51.5622 75.708C51.8742 75.524 52.2142 75.432 52.5822 75.432C52.9582 75.432 53.3022 75.524 53.6142 75.708C53.9262 75.892 54.1742 76.14 54.3582 76.452C54.5422 76.764 54.6342 77.108 54.6342 77.484C54.6342 77.852 54.5422 78.192 54.3582 78.504C54.1742 78.816 53.9262 79.068 53.6142 79.26C53.3022 79.444 52.9582 79.536 52.5822 79.536ZM52.5822 78.66C52.8062 78.66 53.0022 78.608 53.1702 78.504C53.3382 78.392 53.4702 78.248 53.5662 78.072C53.6622 77.896 53.7102 77.7 53.7102 77.484C53.7102 77.156 53.6062 76.88 53.3982 76.656C53.1902 76.432 52.9182 76.32 52.5822 76.32C52.3742 76.32 52.1822 76.372 52.0062 76.476C51.8382 76.58 51.7062 76.72 51.6102 76.896C51.5142 77.064 51.4662 77.26 51.4662 77.484C51.4662 77.7 51.5142 77.896 51.6102 78.072C51.7062 78.248 51.8382 78.392 52.0062 78.504C52.1822 78.608 52.3742 78.66 52.5822 78.66ZM57.5982 84.168C57.2302 84.168 56.8902 84.076 56.5782 83.892C56.2662 83.7 56.0182 83.448 55.8342 83.136C55.6502 82.816 55.5582 82.472 55.5582 82.104C55.5582 81.728 55.6502 81.384 55.8342 81.072C56.0182 80.76 56.2662 80.512 56.5782 80.328C56.8902 80.144 57.2302 80.052 57.5982 80.052C57.9742 80.052 58.3182 80.144 58.6302 80.328C58.9422 80.512 59.1902 80.76 59.3742 81.072C59.5582 81.384 59.6502 81.728 59.6502 82.104C59.6502 82.472 59.5582 82.816 59.3742 83.136C59.1902 83.448 58.9422 83.7 58.6302 83.892C58.3182 84.076 57.9742 84.168 57.5982 84.168ZM57.5982 83.268C57.8222 83.268 58.0182 83.216 58.1862 83.112C58.3542 83.008 58.4862 82.868 58.5822 82.692C58.6782 82.516 58.7262 82.32 58.7262 82.104C58.7262 81.776 58.6222 81.5 58.4142 81.276C58.2062 81.052 57.9342 80.94 57.5982 80.94C57.3902 80.94 57.1982 80.992 57.0222 81.096C56.8542 81.2 56.7222 81.34 56.6262 81.516C56.5302 81.684 56.4822 81.88 56.4822 82.104C56.4822 82.32 56.5302 82.516 56.6262 82.692C56.7222 82.868 56.8542 83.008 57.0222 83.112C57.1982 83.216 57.3902 83.268 57.5982 83.268Z" fill="white"/>
<path d="M73.78 85.21C73.1267 85.21 72.5573 85.0467 72.072 84.72C71.5867 84.384 71.2133 83.9267 70.952 83.348C70.6907 82.7693 70.56 82.116 70.56 81.388C70.56 80.6507 70.6907 79.9973 70.952 79.428C71.2227 78.8587 71.6007 78.4107 72.086 78.084C72.5713 77.748 73.1407 77.58 73.794 77.58C74.3353 77.58 74.7927 77.6827 75.166 77.888C75.5487 78.084 75.8427 78.3173 76.048 78.588C76.2533 78.8587 76.3653 79.1107 76.384 79.344C76.412 79.54 76.37 79.6893 76.258 79.792C76.1553 79.8947 76.0293 79.946 75.88 79.946C75.7307 79.946 75.6187 79.9087 75.544 79.834C75.4693 79.7593 75.4087 79.6753 75.362 79.582C75.2407 79.33 75.054 79.106 74.802 78.91C74.55 78.7047 74.2093 78.602 73.78 78.602C73.332 78.602 72.954 78.7233 72.646 78.966C72.338 79.1993 72.1 79.526 71.932 79.946C71.7733 80.366 71.694 80.842 71.694 81.374C71.694 82.2233 71.8807 82.9 72.254 83.404C72.6367 83.908 73.15 84.16 73.794 84.16C74.2887 84.16 74.6713 84.0293 74.942 83.768C75.222 83.5067 75.418 83.2127 75.53 82.886C75.5767 82.7553 75.642 82.648 75.726 82.564C75.81 82.48 75.922 82.438 76.062 82.438C76.2207 82.438 76.3467 82.494 76.44 82.606C76.5427 82.718 76.5847 82.872 76.566 83.068C76.5567 83.2453 76.4867 83.4553 76.356 83.698C76.2347 83.9407 76.0573 84.1787 75.824 84.412C75.6 84.6453 75.3153 84.8367 74.97 84.986C74.634 85.1353 74.2373 85.21 73.78 85.21ZM80.8907 85.21C80.2374 85.21 79.6634 85.0513 79.1687 84.734C78.6834 84.4073 78.3007 83.9547 78.0207 83.376C77.75 82.7973 77.6147 82.13 77.6147 81.374C77.6147 80.618 77.75 79.9553 78.0207 79.386C78.3007 78.8167 78.6834 78.3733 79.1687 78.056C79.6634 77.7387 80.2374 77.58 80.8907 77.58C81.5534 77.58 82.132 77.7387 82.6267 78.056C83.1307 78.3733 83.5227 78.8167 83.8027 79.386C84.0827 79.9553 84.2227 80.618 84.2227 81.374C84.2227 82.13 84.0827 82.7973 83.8027 83.376C83.5227 83.9547 83.1307 84.4073 82.6267 84.734C82.132 85.0513 81.5534 85.21 80.8907 85.21ZM80.8907 84.16C81.5814 84.16 82.118 83.9127 82.5007 83.418C82.8834 82.9233 83.0747 82.242 83.0747 81.374C83.0747 80.5247 82.8834 79.8527 82.5007 79.358C82.118 78.8633 81.5814 78.616 80.8907 78.616C80.2094 78.616 79.682 78.8633 79.3087 79.358C78.9354 79.8527 78.7487 80.5247 78.7487 81.374C78.7487 82.242 78.9354 82.9233 79.3087 83.418C79.682 83.9127 80.2094 84.16 80.8907 84.16ZM86.3193 85.14C86.1606 85.14 86.0253 85.084 85.9133 84.972C85.8106 84.86 85.7593 84.72 85.7593 84.552V78.224C85.7593 78.056 85.8106 77.9207 85.9133 77.818C86.0253 77.706 86.1606 77.65 86.3193 77.65C86.4873 77.65 86.6226 77.706 86.7253 77.818C86.8373 77.9207 86.8933 78.056 86.8933 78.224V79.078L86.6553 78.882C86.8513 78.574 87.0706 78.3267 87.3133 78.14C87.5653 77.944 87.836 77.804 88.1253 77.72C88.4146 77.6267 88.7086 77.58 89.0073 77.58C89.5486 77.58 90.0246 77.7107 90.4353 77.972C90.8553 78.2333 91.1633 78.6113 91.3593 79.106L90.9533 79.162C91.196 78.7513 91.462 78.434 91.7513 78.21C92.0406 77.9767 92.3346 77.8133 92.6333 77.72C92.9413 77.6267 93.2446 77.58 93.5433 77.58C94.038 77.58 94.4813 77.6873 94.8733 77.902C95.2653 78.1073 95.5733 78.4107 95.7973 78.812C96.0213 79.204 96.1333 79.68 96.1333 80.24V84.552C96.1333 84.72 96.082 84.86 95.9793 84.972C95.8766 85.084 95.746 85.14 95.5873 85.14C95.4193 85.14 95.2793 85.084 95.1673 84.972C95.0646 84.86 95.0133 84.72 95.0133 84.552V80.282C95.0133 79.7593 94.8593 79.3533 94.5513 79.064C94.2526 78.7747 93.856 78.63 93.3613 78.63C93.044 78.63 92.75 78.6953 92.4793 78.826C92.2086 78.9473 91.994 79.1293 91.8353 79.372C91.6766 79.6053 91.5973 79.8947 91.5973 80.24V84.552C91.5973 84.72 91.5413 84.86 91.4293 84.972C91.3266 85.084 91.196 85.14 91.0373 85.14C90.8693 85.14 90.7293 85.084 90.6173 84.972C90.5146 84.86 90.4633 84.72 90.4633 84.552V80.282C90.4633 79.7593 90.314 79.3533 90.0153 79.064C89.7166 78.7653 89.32 78.616 88.8253 78.616C88.4893 78.616 88.172 78.686 87.8733 78.826C87.584 78.9567 87.346 79.148 87.1593 79.4C86.982 79.6427 86.8933 79.932 86.8933 80.268V84.552C86.8933 84.72 86.8373 84.86 86.7253 84.972C86.6226 85.084 86.4873 85.14 86.3193 85.14ZM101.341 85.21C100.921 85.21 100.562 85.1447 100.263 85.014C99.9736 84.8833 99.731 84.72 99.535 84.524C99.339 84.328 99.185 84.1367 99.073 83.95L99.157 83.894V87.366C99.157 87.5247 99.101 87.66 98.989 87.772C98.877 87.884 98.7416 87.94 98.583 87.94C98.4336 87.94 98.303 87.884 98.191 87.772C98.079 87.66 98.023 87.5247 98.023 87.366V78.252C98.023 78.0933 98.079 77.9533 98.191 77.832C98.303 77.7107 98.4336 77.65 98.583 77.65C98.7416 77.65 98.877 77.706 98.989 77.818C99.101 77.9207 99.157 78.0607 99.157 78.238L99.143 78.868L99.087 78.854C99.2456 78.5367 99.5256 78.2473 99.927 77.986C100.328 77.7153 100.818 77.58 101.397 77.58C101.864 77.58 102.284 77.678 102.657 77.874C103.03 78.0607 103.348 78.3267 103.609 78.672C103.87 79.008 104.071 79.4093 104.211 79.876C104.351 80.3333 104.421 80.8327 104.421 81.374C104.421 81.9153 104.351 82.4193 104.211 82.886C104.08 83.3433 103.88 83.7493 103.609 84.104C103.348 84.4493 103.026 84.72 102.643 84.916C102.27 85.112 101.836 85.21 101.341 85.21ZM101.187 84.174C101.84 84.174 102.354 83.9267 102.727 83.432C103.1 82.928 103.287 82.242 103.287 81.374C103.287 80.8047 103.203 80.3147 103.035 79.904C102.876 79.4933 102.638 79.176 102.321 78.952C102.013 78.728 101.63 78.616 101.173 78.616C100.501 78.616 99.983 78.8587 99.619 79.344C99.255 79.8293 99.073 80.5013 99.073 81.36C99.073 82.228 99.2596 82.914 99.633 83.418C100.006 83.922 100.524 84.174 101.187 84.174ZM108.066 85.21C107.544 85.21 107.091 85.1167 106.708 84.93C106.335 84.734 106.046 84.4727 105.84 84.146C105.644 83.8193 105.546 83.4553 105.546 83.054C105.546 82.4753 105.761 81.9807 106.19 81.57C106.629 81.15 107.329 80.884 108.29 80.772C108.692 80.7253 109.037 80.674 109.326 80.618C109.616 80.562 109.84 80.4687 109.998 80.338C110.166 80.2073 110.25 80.016 110.25 79.764C110.25 79.568 110.199 79.386 110.096 79.218C110.003 79.0407 109.844 78.896 109.62 78.784C109.406 78.672 109.116 78.616 108.752 78.616C108.267 78.616 107.903 78.714 107.66 78.91C107.418 79.0967 107.25 79.2833 107.156 79.47C107.091 79.5913 107.012 79.6847 106.918 79.75C106.825 79.8153 106.713 79.848 106.582 79.848C106.424 79.848 106.302 79.8013 106.218 79.708C106.134 79.6053 106.092 79.4793 106.092 79.33C106.092 79.1527 106.153 78.966 106.274 78.77C106.396 78.5647 106.573 78.3733 106.806 78.196C107.049 78.0093 107.338 77.86 107.674 77.748C108.02 77.636 108.412 77.58 108.85 77.58C109.485 77.58 109.984 77.7013 110.348 77.944C110.722 78.1773 110.988 78.4993 111.146 78.91C111.305 79.3113 111.384 79.7593 111.384 80.254V83.74C111.384 83.8333 111.394 83.9033 111.412 83.95C111.44 83.9967 111.487 84.0247 111.552 84.034C111.683 84.0433 111.795 84.0993 111.888 84.202C111.982 84.2953 112.028 84.4167 112.028 84.566C112.028 84.7247 111.963 84.86 111.832 84.972C111.711 85.084 111.538 85.14 111.314 85.14C111.034 85.14 110.815 85.0607 110.656 84.902C110.507 84.734 110.432 84.5287 110.432 84.286V84.048H110.39C110.157 84.3933 109.849 84.6733 109.466 84.888C109.093 85.1027 108.626 85.21 108.066 85.21ZM108.08 84.174C108.5 84.174 108.874 84.0853 109.2 83.908C109.536 83.7307 109.798 83.4927 109.984 83.194C110.18 82.8953 110.278 82.564 110.278 82.2V81.248C110.278 81.2293 110.269 81.22 110.25 81.22C110.241 81.2107 110.222 81.2247 110.194 81.262C110.054 81.374 109.863 81.4627 109.62 81.528C109.387 81.584 109.149 81.6307 108.906 81.668C108.664 81.7053 108.463 81.738 108.304 81.766C107.819 81.8407 107.422 81.9713 107.114 82.158C106.816 82.3447 106.666 82.6247 106.666 82.998C106.666 83.278 106.774 83.544 106.988 83.796C107.203 84.048 107.567 84.174 108.08 84.174ZM113.95 85.14C113.791 85.14 113.656 85.084 113.544 84.972C113.441 84.8507 113.39 84.7107 113.39 84.552V78.224C113.39 78.0653 113.441 77.93 113.544 77.818C113.656 77.706 113.791 77.65 113.95 77.65C114.109 77.65 114.244 77.706 114.356 77.818C114.468 77.93 114.524 78.0653 114.524 78.224V79.176L114.384 78.896C114.477 78.7 114.617 78.4993 114.804 78.294C115 78.0887 115.233 77.9207 115.504 77.79C115.784 77.65 116.106 77.58 116.47 77.58C116.666 77.58 116.82 77.6313 116.932 77.734C117.053 77.8367 117.114 77.9673 117.114 78.126C117.114 78.2847 117.058 78.42 116.946 78.532C116.834 78.644 116.694 78.7 116.526 78.7C116.134 78.7 115.789 78.784 115.49 78.952C115.191 79.1107 114.953 79.3207 114.776 79.582C114.608 79.834 114.524 80.1 114.524 80.38V84.552C114.524 84.7107 114.468 84.8507 114.356 84.972C114.244 85.084 114.109 85.14 113.95 85.14ZM120.897 85.21C120.281 85.21 119.716 85.07 119.203 84.79C118.699 84.51 118.293 84.09 117.985 83.53C117.686 82.97 117.537 82.2793 117.537 81.458C117.537 80.674 117.677 79.9927 117.957 79.414C118.237 78.8353 118.615 78.3873 119.091 78.07C119.576 77.7433 120.127 77.58 120.743 77.58C121.219 77.58 121.648 77.6733 122.031 77.86C122.413 78.0373 122.735 78.2847 122.997 78.602C123.267 78.91 123.473 79.26 123.613 79.652C123.762 80.0347 123.837 80.436 123.837 80.856C123.837 81.1267 123.785 81.346 123.683 81.514C123.58 81.6727 123.37 81.752 123.053 81.752H118.685C118.722 82.3213 118.843 82.7833 119.049 83.138C119.254 83.4927 119.511 83.754 119.819 83.922C120.136 84.0807 120.481 84.16 120.855 84.16C121.359 84.16 121.76 84.0433 122.059 83.81C122.357 83.5767 122.563 83.3013 122.675 82.984C122.721 82.872 122.782 82.7787 122.857 82.704C122.941 82.62 123.053 82.578 123.193 82.578C123.351 82.578 123.477 82.6387 123.571 82.76C123.664 82.872 123.706 83.0213 123.697 83.208C123.687 83.3947 123.622 83.6047 123.501 83.838C123.379 84.062 123.202 84.2813 122.969 84.496C122.745 84.7013 122.46 84.8693 122.115 85C121.769 85.14 121.363 85.21 120.897 85.21ZM118.699 80.786H122.759C122.693 80.1513 122.488 79.6333 122.143 79.232C121.797 78.8213 121.326 78.616 120.729 78.616C120.197 78.616 119.744 78.798 119.371 79.162C119.007 79.526 118.783 80.0673 118.699 80.786ZM128.012 85.21C127.34 85.21 126.776 85.0327 126.318 84.678C125.87 84.3233 125.53 83.8567 125.296 83.278C125.072 82.6993 124.96 82.0787 124.96 81.416C124.96 80.716 125.082 80.0767 125.324 79.498C125.567 78.9193 125.922 78.4573 126.388 78.112C126.864 77.7573 127.438 77.58 128.11 77.58C128.502 77.58 128.843 77.6407 129.132 77.762C129.431 77.874 129.683 78.0233 129.888 78.21C130.094 78.3873 130.252 78.5787 130.364 78.784L130.252 78.812V75.354C130.252 75.1953 130.304 75.06 130.406 74.948C130.518 74.836 130.654 74.78 130.812 74.78C130.971 74.78 131.102 74.836 131.204 74.948C131.316 75.06 131.372 75.1953 131.372 75.354V84.524C131.372 84.692 131.316 84.8367 131.204 84.958C131.102 85.07 130.971 85.126 130.812 85.126C130.654 85.126 130.518 85.07 130.406 84.958C130.304 84.8367 130.252 84.692 130.252 84.524V83.866L130.35 83.88C130.248 84.1133 130.084 84.3327 129.86 84.538C129.646 84.734 129.38 84.8927 129.062 85.014C128.754 85.1447 128.404 85.21 128.012 85.21ZM128.236 84.16C128.899 84.1413 129.408 83.8847 129.762 83.39C130.126 82.8953 130.308 82.2373 130.308 81.416C130.308 80.5573 130.122 79.876 129.748 79.372C129.384 78.868 128.866 78.616 128.194 78.616C127.541 78.616 127.023 78.868 126.64 79.372C126.267 79.8667 126.08 80.5433 126.08 81.402C126.08 82.2607 126.267 82.9373 126.64 83.432C127.023 83.9267 127.555 84.1693 128.236 84.16ZM139.153 85.14C138.836 85.14 138.56 85.07 138.327 84.93C138.103 84.7807 137.93 84.5753 137.809 84.314C137.688 84.0433 137.627 83.7353 137.627 83.39V76.81C137.627 76.6513 137.678 76.5207 137.781 76.418C137.893 76.306 138.028 76.25 138.187 76.25C138.346 76.25 138.476 76.306 138.579 76.418C138.691 76.5207 138.747 76.6513 138.747 76.81V83.376C138.747 83.5533 138.775 83.7073 138.831 83.838C138.887 83.9593 139.004 84.02 139.181 84.02C139.302 84.02 139.391 83.992 139.447 83.936C139.512 83.88 139.578 83.8287 139.643 83.782C139.708 83.726 139.802 83.698 139.923 83.698C140.091 83.698 140.226 83.754 140.329 83.866C140.432 83.9687 140.483 84.0993 140.483 84.258C140.483 84.426 140.418 84.58 140.287 84.72C140.166 84.8507 140.002 84.9533 139.797 85.028C139.601 85.1027 139.386 85.14 139.153 85.14ZM137.179 78.812C137.03 78.812 136.899 78.7653 136.787 78.672C136.684 78.5693 136.633 78.4433 136.633 78.294C136.633 78.154 136.684 78.0373 136.787 77.944C136.899 77.8413 137.03 77.79 137.179 77.79H140.133C140.282 77.79 140.408 77.8413 140.511 77.944C140.623 78.0373 140.679 78.154 140.679 78.294C140.679 78.4433 140.623 78.5693 140.511 78.672C140.408 78.7653 140.282 78.812 140.133 78.812H137.179ZM145.08 85.21C144.427 85.21 143.853 85.0513 143.358 84.734C142.873 84.4073 142.49 83.9547 142.21 83.376C141.939 82.7973 141.804 82.13 141.804 81.374C141.804 80.618 141.939 79.9553 142.21 79.386C142.49 78.8167 142.873 78.3733 143.358 78.056C143.853 77.7387 144.427 77.58 145.08 77.58C145.743 77.58 146.321 77.7387 146.816 78.056C147.32 78.3733 147.712 78.8167 147.992 79.386C148.272 79.9553 148.412 80.618 148.412 81.374C148.412 82.13 148.272 82.7973 147.992 83.376C147.712 83.9547 147.32 84.4073 146.816 84.734C146.321 85.0513 145.743 85.21 145.08 85.21ZM145.08 84.16C145.771 84.16 146.307 83.9127 146.69 83.418C147.073 82.9233 147.264 82.242 147.264 81.374C147.264 80.5247 147.073 79.8527 146.69 79.358C146.307 78.8633 145.771 78.616 145.08 78.616C144.399 78.616 143.871 78.8633 143.498 79.358C143.125 79.8527 142.938 80.5247 142.938 81.374C142.938 82.242 143.125 82.9233 143.498 83.418C143.871 83.9127 144.399 84.16 145.08 84.16ZM154.364 85.14C154.206 85.14 154.07 85.084 153.958 84.972C153.856 84.8507 153.804 84.7107 153.804 84.552V75.354C153.804 75.1953 153.856 75.06 153.958 74.948C154.07 74.836 154.206 74.78 154.364 74.78C154.523 74.78 154.658 74.836 154.77 74.948C154.882 75.06 154.938 75.1953 154.938 75.354V84.552C154.938 84.7107 154.882 84.8507 154.77 84.972C154.658 85.084 154.523 85.14 154.364 85.14ZM158.994 85.21C158.471 85.21 158.019 85.1167 157.636 84.93C157.263 84.734 156.973 84.4727 156.768 84.146C156.572 83.8193 156.474 83.4553 156.474 83.054C156.474 82.4753 156.689 81.9807 157.118 81.57C157.557 81.15 158.257 80.884 159.218 80.772C159.619 80.7253 159.965 80.674 160.254 80.618C160.543 80.562 160.767 80.4687 160.926 80.338C161.094 80.2073 161.178 80.016 161.178 79.764C161.178 79.568 161.127 79.386 161.024 79.218C160.931 79.0407 160.772 78.896 160.548 78.784C160.333 78.672 160.044 78.616 159.68 78.616C159.195 78.616 158.831 78.714 158.588 78.91C158.345 79.0967 158.177 79.2833 158.084 79.47C158.019 79.5913 157.939 79.6847 157.846 79.75C157.753 79.8153 157.641 79.848 157.51 79.848C157.351 79.848 157.23 79.8013 157.146 79.708C157.062 79.6053 157.02 79.4793 157.02 79.33C157.02 79.1527 157.081 78.966 157.202 78.77C157.323 78.5647 157.501 78.3733 157.734 78.196C157.977 78.0093 158.266 77.86 158.602 77.748C158.947 77.636 159.339 77.58 159.778 77.58C160.413 77.58 160.912 77.7013 161.276 77.944C161.649 78.1773 161.915 78.4993 162.074 78.91C162.233 79.3113 162.312 79.7593 162.312 80.254V83.74C162.312 83.8333 162.321 83.9033 162.34 83.95C162.368 83.9967 162.415 84.0247 162.48 84.034C162.611 84.0433 162.723 84.0993 162.816 84.202C162.909 84.2953 162.956 84.4167 162.956 84.566C162.956 84.7247 162.891 84.86 162.76 84.972C162.639 85.084 162.466 85.14 162.242 85.14C161.962 85.14 161.743 85.0607 161.584 84.902C161.435 84.734 161.36 84.5287 161.36 84.286V84.048H161.318C161.085 84.3933 160.777 84.6733 160.394 84.888C160.021 85.1027 159.554 85.21 158.994 85.21ZM159.008 84.174C159.428 84.174 159.801 84.0853 160.128 83.908C160.464 83.7307 160.725 83.4927 160.912 83.194C161.108 82.8953 161.206 82.564 161.206 82.2V81.248C161.206 81.2293 161.197 81.22 161.178 81.22C161.169 81.2107 161.15 81.2247 161.122 81.262C160.982 81.374 160.791 81.4627 160.548 81.528C160.315 81.584 160.077 81.6307 159.834 81.668C159.591 81.7053 159.391 81.738 159.232 81.766C158.747 81.8407 158.35 81.9713 158.042 82.158C157.743 82.3447 157.594 82.6247 157.594 82.998C157.594 83.278 157.701 83.544 157.916 83.796C158.131 84.048 158.495 84.174 159.008 84.174ZM166.782 85.252C166.147 85.252 165.62 85.14 165.2 84.916C164.78 84.6827 164.463 84.412 164.248 84.104C164.033 83.7867 163.917 83.502 163.898 83.25C163.889 83.054 163.931 82.9047 164.024 82.802C164.127 82.69 164.253 82.634 164.402 82.634C164.542 82.634 164.654 82.676 164.738 82.76C164.822 82.8347 164.883 82.9233 164.92 83.026C165.032 83.3433 165.237 83.6233 165.536 83.866C165.835 84.0993 166.255 84.216 166.796 84.216C167.291 84.216 167.669 84.1133 167.93 83.908C168.191 83.6933 168.322 83.418 168.322 83.082C168.322 82.8207 168.243 82.6153 168.084 82.466C167.935 82.3073 167.725 82.1813 167.454 82.088C167.183 81.9947 166.871 81.9013 166.516 81.808C166.255 81.7333 165.984 81.654 165.704 81.57C165.424 81.4767 165.163 81.3553 164.92 81.206C164.677 81.0567 164.481 80.8653 164.332 80.632C164.183 80.3987 164.108 80.1047 164.108 79.75C164.108 79.358 164.211 78.9987 164.416 78.672C164.621 78.336 164.92 78.07 165.312 77.874C165.704 77.6687 166.171 77.566 166.712 77.566C167.263 77.566 167.725 77.6593 168.098 77.846C168.471 78.0327 168.756 78.2613 168.952 78.532C169.157 78.7933 169.265 79.0453 169.274 79.288C169.283 79.4653 169.246 79.6053 169.162 79.708C169.078 79.8107 168.957 79.862 168.798 79.862C168.695 79.862 168.593 79.834 168.49 79.778C168.387 79.722 168.299 79.6333 168.224 79.512C168.159 79.3813 168.07 79.246 167.958 79.106C167.855 78.9567 167.706 78.8353 167.51 78.742C167.314 78.6393 167.043 78.588 166.698 78.588C166.259 78.588 165.9 78.686 165.62 78.882C165.34 79.0687 165.2 79.3253 165.2 79.652C165.2 79.904 165.279 80.1 165.438 80.24C165.606 80.38 165.821 80.492 166.082 80.576C166.353 80.66 166.647 80.7487 166.964 80.842C167.263 80.926 167.557 81.0193 167.846 81.122C168.135 81.2153 168.397 81.3413 168.63 81.5C168.873 81.6493 169.064 81.8407 169.204 82.074C169.353 82.3073 169.428 82.5967 169.428 82.942C169.428 83.2873 169.339 83.642 169.162 84.006C168.994 84.3607 168.714 84.6593 168.322 84.902C167.939 85.1353 167.426 85.252 166.782 85.252ZM172.922 85.14C172.605 85.14 172.33 85.07 172.096 84.93C171.872 84.7807 171.7 84.5753 171.578 84.314C171.457 84.0433 171.396 83.7353 171.396 83.39V76.81C171.396 76.6513 171.448 76.5207 171.55 76.418C171.662 76.306 171.798 76.25 171.956 76.25C172.115 76.25 172.246 76.306 172.348 76.418C172.46 76.5207 172.516 76.6513 172.516 76.81V83.376C172.516 83.5533 172.544 83.7073 172.6 83.838C172.656 83.9593 172.773 84.02 172.95 84.02C173.072 84.02 173.16 83.992 173.216 83.936C173.282 83.88 173.347 83.8287 173.412 83.782C173.478 83.726 173.571 83.698 173.692 83.698C173.86 83.698 173.996 83.754 174.098 83.866C174.201 83.9687 174.252 84.0993 174.252 84.258C174.252 84.426 174.187 84.58 174.056 84.72C173.935 84.8507 173.772 84.9533 173.566 85.028C173.37 85.1027 173.156 85.14 172.922 85.14ZM170.948 78.812C170.799 78.812 170.668 78.7653 170.556 78.672C170.454 78.5693 170.402 78.4433 170.402 78.294C170.402 78.154 170.454 78.0373 170.556 77.944C170.668 77.8413 170.799 77.79 170.948 77.79H173.902C174.052 77.79 174.178 77.8413 174.28 77.944C174.392 78.0373 174.448 78.154 174.448 78.294C174.448 78.4433 174.392 78.5693 174.28 78.672C174.178 78.7653 174.052 78.812 173.902 78.812H170.948ZM180.409 85.14C180.25 85.14 180.115 85.084 180.003 84.972C179.9 84.86 179.849 84.72 179.849 84.552V78.224C179.849 78.056 179.9 77.9207 180.003 77.818C180.115 77.706 180.25 77.65 180.409 77.65C180.577 77.65 180.712 77.706 180.815 77.818C180.927 77.9207 180.983 78.056 180.983 78.224V79.078L180.745 78.882C180.941 78.574 181.16 78.3267 181.403 78.14C181.655 77.944 181.926 77.804 182.215 77.72C182.504 77.6267 182.798 77.58 183.097 77.58C183.638 77.58 184.114 77.7107 184.525 77.972C184.945 78.2333 185.253 78.6113 185.449 79.106L185.043 79.162C185.286 78.7513 185.552 78.434 185.841 78.21C186.13 77.9767 186.424 77.8133 186.723 77.72C187.031 77.6267 187.334 77.58 187.633 77.58C188.128 77.58 188.571 77.6873 188.963 77.902C189.355 78.1073 189.663 78.4107 189.887 78.812C190.111 79.204 190.223 79.68 190.223 80.24V84.552C190.223 84.72 190.172 84.86 190.069 84.972C189.966 85.084 189.836 85.14 189.677 85.14C189.509 85.14 189.369 85.084 189.257 84.972C189.154 84.86 189.103 84.72 189.103 84.552V80.282C189.103 79.7593 188.949 79.3533 188.641 79.064C188.342 78.7747 187.946 78.63 187.451 78.63C187.134 78.63 186.84 78.6953 186.569 78.826C186.298 78.9473 186.084 79.1293 185.925 79.372C185.766 79.6053 185.687 79.8947 185.687 80.24V84.552C185.687 84.72 185.631 84.86 185.519 84.972C185.416 85.084 185.286 85.14 185.127 85.14C184.959 85.14 184.819 85.084 184.707 84.972C184.604 84.86 184.553 84.72 184.553 84.552V80.282C184.553 79.7593 184.404 79.3533 184.105 79.064C183.806 78.7653 183.41 78.616 182.915 78.616C182.579 78.616 182.262 78.686 181.963 78.826C181.674 78.9567 181.436 79.148 181.249 79.4C181.072 79.6427 180.983 79.932 180.983 80.268V84.552C180.983 84.72 180.927 84.86 180.815 84.972C180.712 85.084 180.577 85.14 180.409 85.14ZM194.969 85.21C194.315 85.21 193.741 85.0513 193.247 84.734C192.761 84.4073 192.379 83.9547 192.099 83.376C191.828 82.7973 191.693 82.13 191.693 81.374C191.693 80.618 191.828 79.9553 192.099 79.386C192.379 78.8167 192.761 78.3733 193.247 78.056C193.741 77.7387 194.315 77.58 194.969 77.58C195.631 77.58 196.21 77.7387 196.705 78.056C197.209 78.3733 197.601 78.8167 197.881 79.386C198.161 79.9553 198.301 80.618 198.301 81.374C198.301 82.13 198.161 82.7973 197.881 83.376C197.601 83.9547 197.209 84.4073 196.705 84.734C196.21 85.0513 195.631 85.21 194.969 85.21ZM194.969 84.16C195.659 84.16 196.196 83.9127 196.579 83.418C196.961 82.9233 197.153 82.242 197.153 81.374C197.153 80.5247 196.961 79.8527 196.579 79.358C196.196 78.8633 195.659 78.616 194.969 78.616C194.287 78.616 193.76 78.8633 193.387 79.358C193.013 79.8527 192.827 80.5247 192.827 81.374C192.827 82.242 193.013 82.9233 193.387 83.418C193.76 83.9127 194.287 84.16 194.969 84.16ZM200.397 85.14C200.239 85.14 200.103 85.084 199.991 84.972C199.889 84.86 199.837 84.72 199.837 84.552V78.224C199.837 78.056 199.889 77.9207 199.991 77.818C200.103 77.706 200.239 77.65 200.397 77.65C200.565 77.65 200.701 77.706 200.803 77.818C200.915 77.9207 200.971 78.056 200.971 78.224V79.162L200.733 78.91C201.032 78.4527 201.387 78.1167 201.797 77.902C202.217 77.6873 202.665 77.58 203.141 77.58C203.645 77.58 204.098 77.6873 204.499 77.902C204.901 78.1073 205.213 78.4107 205.437 78.812C205.671 79.204 205.787 79.6893 205.787 80.268V84.552C205.787 84.72 205.736 84.86 205.633 84.972C205.531 85.084 205.395 85.14 205.227 85.14C205.05 85.14 204.91 85.084 204.807 84.972C204.705 84.86 204.653 84.72 204.653 84.552V80.31C204.653 79.778 204.495 79.3627 204.177 79.064C203.869 78.7653 203.459 78.616 202.945 78.616C202.6 78.616 202.278 78.686 201.979 78.826C201.681 78.966 201.438 79.1667 201.251 79.428C201.065 79.68 200.971 79.9833 200.971 80.338V84.552C200.971 84.72 200.915 84.86 200.803 84.972C200.701 85.084 200.565 85.14 200.397 85.14ZM209.631 85.14C209.314 85.14 209.039 85.07 208.805 84.93C208.581 84.7807 208.409 84.5753 208.287 84.314C208.166 84.0433 208.105 83.7353 208.105 83.39V76.81C208.105 76.6513 208.157 76.5207 208.259 76.418C208.371 76.306 208.507 76.25 208.665 76.25C208.824 76.25 208.955 76.306 209.057 76.418C209.169 76.5207 209.225 76.6513 209.225 76.81V83.376C209.225 83.5533 209.253 83.7073 209.309 83.838C209.365 83.9593 209.482 84.02 209.659 84.02C209.781 84.02 209.869 83.992 209.925 83.936C209.991 83.88 210.056 83.8287 210.121 83.782C210.187 83.726 210.28 83.698 210.401 83.698C210.569 83.698 210.705 83.754 210.807 83.866C210.91 83.9687 210.961 84.0993 210.961 84.258C210.961 84.426 210.896 84.58 210.765 84.72C210.644 84.8507 210.481 84.9533 210.275 85.028C210.079 85.1027 209.865 85.14 209.631 85.14ZM207.657 78.812C207.508 78.812 207.377 78.7653 207.265 78.672C207.163 78.5693 207.111 78.4433 207.111 78.294C207.111 78.154 207.163 78.0373 207.265 77.944C207.377 77.8413 207.508 77.79 207.657 77.79H210.611C210.761 77.79 210.887 77.8413 210.989 77.944C211.101 78.0373 211.157 78.154 211.157 78.294C211.157 78.4433 211.101 78.5693 210.989 78.672C210.887 78.7653 210.761 78.812 210.611 78.812H207.657ZM213.263 85.14C213.104 85.14 212.969 85.084 212.857 84.972C212.754 84.86 212.703 84.72 212.703 84.552V75.354C212.703 75.186 212.754 75.0507 212.857 74.948C212.969 74.836 213.104 74.78 213.263 74.78C213.431 74.78 213.566 74.836 213.669 74.948C213.781 75.0507 213.837 75.186 213.837 75.354V79.162L213.599 78.91C213.897 78.4527 214.247 78.1167 214.649 77.902C215.059 77.6873 215.503 77.58 215.979 77.58C216.473 77.58 216.917 77.6873 217.309 77.902C217.71 78.1073 218.023 78.4107 218.247 78.812C218.48 79.204 218.597 79.6893 218.597 80.268V84.552C218.597 84.72 218.545 84.86 218.443 84.972C218.34 85.084 218.205 85.14 218.037 85.14C217.878 85.14 217.743 85.084 217.631 84.972C217.528 84.86 217.477 84.72 217.477 84.552V80.31C217.477 79.778 217.323 79.3627 217.015 79.064C216.707 78.7653 216.305 78.616 215.811 78.616C215.465 78.616 215.139 78.686 214.831 78.826C214.532 78.966 214.289 79.1667 214.103 79.428C213.925 79.68 213.837 79.9833 213.837 80.338V84.552C213.837 84.72 213.781 84.86 213.669 84.972C213.566 85.084 213.431 85.14 213.263 85.14Z" fill="#2E2C28"/>
</g>
<defs>
<filter id="filter0_d_5990_16513" x="0" y="0" width="240" height="113" filterUnits="userSpaceOnUse" color-interpolation-filters="sRGB">
<feFlood flood-opacity="0" result="BackgroundImageFix"/>
<feColorMatrix in="SourceAlpha" type="matrix" values="0 0 0 0 0 0 0 0 0 0 0 0 0 0 0 0 0 0 127 0" result="hardAlpha"/>
<feOffset dy="4"/>
<feGaussianBlur stdDeviation="2"/>
<feComposite in2="hardAlpha" operator="out"/>
<feColorMatrix type="matrix" values="0 0 0 0 0 0 0 0 0 0 0 0 0 0 0 0 0 0 0.15 0"/>
<feBlend mode="normal" in2="BackgroundImageFix" result="effect1_dropShadow_5990_16513"/>
<feBlend mode="normal" in="SourceGraphic" in2="effect1_dropShadow_5990_16513" result="shape"/>
</filter>
<clipPath id="clip0_5990_16513">
<rect width="9" height="9" fill="white" transform="translate(24 75.5)"/>
</clipPath>
</defs>
</svg>
