<svg width="238" height="113" viewBox="0 0 238 113" fill="none" xmlns="http://www.w3.org/2000/svg">
<g filter="url(#filter0_d_5990_16500)">
<rect x="4" width="230" height="105" rx="16" fill="#E0F6EB" shape-rendering="crispEdges"/>
<rect x="4.5" y="0.5" width="229" height="104" rx="15.5" stroke="#BED9CB" shape-rendering="crispEdges"/>
<path d="M19.756 21.278C19.6067 21.278 19.476 21.2267 19.364 21.124C19.2613 21.0213 19.21 20.8907 19.21 20.732C19.21 20.5733 19.2613 20.4473 19.364 20.354C19.476 20.2513 19.6067 20.2 19.756 20.2H25.762C25.9207 20.2 26.0513 20.2513 26.154 20.354C26.2567 20.4473 26.308 20.5733 26.308 20.732C26.308 20.8907 26.2567 21.0213 26.154 21.124C26.0513 21.2267 25.9207 21.278 25.762 21.278H19.756ZM22.752 30.14C22.5933 30.14 22.458 30.084 22.346 29.972C22.2433 29.86 22.192 29.7247 22.192 29.566V20.802H23.34V29.566C23.34 29.7247 23.284 29.86 23.172 29.972C23.0693 30.084 22.9293 30.14 22.752 30.14ZM29.084 30.21C28.4307 30.21 27.8567 30.0513 27.362 29.734C26.8767 29.4073 26.494 28.9547 26.214 28.376C25.9434 27.7973 25.808 27.13 25.808 26.374C25.808 25.618 25.9434 24.9553 26.214 24.386C26.494 23.8167 26.8767 23.3733 27.362 23.056C27.8567 22.7387 28.4307 22.58 29.084 22.58C29.7467 22.58 30.3254 22.7387 30.82 23.056C31.324 23.3733 31.716 23.8167 31.996 24.386C32.276 24.9553 32.416 25.618 32.416 26.374C32.416 27.13 32.276 27.7973 31.996 28.376C31.716 28.9547 31.324 29.4073 30.82 29.734C30.3254 30.0513 29.7467 30.21 29.084 30.21ZM29.084 29.16C29.7747 29.16 30.3114 28.9127 30.694 28.418C31.0767 27.9233 31.268 27.242 31.268 26.374C31.268 25.5247 31.0767 24.8527 30.694 24.358C30.3114 23.8633 29.7747 23.616 29.084 23.616C28.4027 23.616 27.8754 23.8633 27.502 24.358C27.1287 24.8527 26.942 25.5247 26.942 26.374C26.942 27.242 27.1287 27.9233 27.502 28.418C27.8754 28.9127 28.4027 29.16 29.084 29.16ZM35.9127 30.14C35.5953 30.14 35.32 30.07 35.0867 29.93C34.8627 29.7807 34.69 29.5753 34.5687 29.314C34.4473 29.0433 34.3867 28.7353 34.3867 28.39V21.81C34.3867 21.6513 34.438 21.5207 34.5407 21.418C34.6527 21.306 34.788 21.25 34.9467 21.25C35.1053 21.25 35.236 21.306 35.3387 21.418C35.4507 21.5207 35.5067 21.6513 35.5067 21.81V28.376C35.5067 28.5533 35.5347 28.7073 35.5907 28.838C35.6467 28.9593 35.7633 29.02 35.9407 29.02C36.062 29.02 36.1507 28.992 36.2067 28.936C36.272 28.88 36.3373 28.8287 36.4027 28.782C36.468 28.726 36.5613 28.698 36.6827 28.698C36.8507 28.698 36.986 28.754 37.0887 28.866C37.1913 28.9687 37.2427 29.0993 37.2427 29.258C37.2427 29.426 37.1773 29.58 37.0467 29.72C36.9253 29.8507 36.762 29.9533 36.5567 30.028C36.3607 30.1027 36.146 30.14 35.9127 30.14ZM33.9387 23.812C33.7893 23.812 33.6587 23.7653 33.5467 23.672C33.444 23.5693 33.3927 23.4433 33.3927 23.294C33.3927 23.154 33.444 23.0373 33.5467 22.944C33.6587 22.8413 33.7893 22.79 33.9387 22.79H36.8927C37.042 22.79 37.168 22.8413 37.2707 22.944C37.3827 23.0373 37.4387 23.154 37.4387 23.294C37.4387 23.4433 37.3827 23.5693 37.2707 23.672C37.168 23.7653 37.042 23.812 36.8927 23.812H33.9387ZM41.0839 30.21C40.5612 30.21 40.1086 30.1167 39.7259 29.93C39.3526 29.734 39.0632 29.4727 38.8579 29.146C38.6619 28.8193 38.5639 28.4553 38.5639 28.054C38.5639 27.4753 38.7786 26.9807 39.2079 26.57C39.6466 26.15 40.3466 25.884 41.3079 25.772C41.7092 25.7253 42.0546 25.674 42.3439 25.618C42.6332 25.562 42.8572 25.4687 43.0159 25.338C43.1839 25.2073 43.2679 25.016 43.2679 24.764C43.2679 24.568 43.2166 24.386 43.1139 24.218C43.0206 24.0407 42.8619 23.896 42.6379 23.784C42.4232 23.672 42.1339 23.616 41.7699 23.616C41.2846 23.616 40.9206 23.714 40.6779 23.91C40.4352 24.0967 40.2672 24.2833 40.1739 24.47C40.1086 24.5913 40.0292 24.6847 39.9359 24.75C39.8426 24.8153 39.7306 24.848 39.5999 24.848C39.4412 24.848 39.3199 24.8013 39.2359 24.708C39.1519 24.6053 39.1099 24.4793 39.1099 24.33C39.1099 24.1527 39.1706 23.966 39.2919 23.77C39.4132 23.5647 39.5906 23.3733 39.8239 23.196C40.0666 23.0093 40.3559 22.86 40.6919 22.748C41.0372 22.636 41.4292 22.58 41.8679 22.58C42.5026 22.58 43.0019 22.7013 43.3659 22.944C43.7392 23.1773 44.0052 23.4993 44.1639 23.91C44.3226 24.3113 44.4019 24.7593 44.4019 25.254V28.74C44.4019 28.8333 44.4112 28.9033 44.4299 28.95C44.4579 28.9967 44.5046 29.0247 44.5699 29.034C44.7006 29.0433 44.8126 29.0993 44.9059 29.202C44.9992 29.2953 45.0459 29.4167 45.0459 29.566C45.0459 29.7247 44.9806 29.86 44.8499 29.972C44.7286 30.084 44.5559 30.14 44.3319 30.14C44.0519 30.14 43.8326 30.0607 43.6739 29.902C43.5246 29.734 43.4499 29.5287 43.4499 29.286V29.048H43.4079C43.1746 29.3933 42.8666 29.6733 42.4839 29.888C42.1106 30.1027 41.6439 30.21 41.0839 30.21ZM41.0979 29.174C41.5179 29.174 41.8912 29.0853 42.2179 28.908C42.5539 28.7307 42.8152 28.4927 43.0019 28.194C43.1979 27.8953 43.2959 27.564 43.2959 27.2V26.248C43.2959 26.2293 43.2866 26.22 43.2679 26.22C43.2586 26.2107 43.2399 26.2247 43.2119 26.262C43.0719 26.374 42.8806 26.4627 42.6379 26.528C42.4046 26.584 42.1666 26.6307 41.9239 26.668C41.6812 26.7053 41.4806 26.738 41.3219 26.766C40.8366 26.8407 40.4399 26.9713 40.1319 27.158C39.8332 27.3447 39.6839 27.6247 39.6839 27.998C39.6839 28.278 39.7912 28.544 40.0059 28.796C40.2206 29.048 40.5846 29.174 41.0979 29.174ZM46.9677 30.14C46.8091 30.14 46.6737 30.084 46.5617 29.972C46.4591 29.8507 46.4077 29.7107 46.4077 29.552V20.354C46.4077 20.1953 46.4591 20.06 46.5617 19.948C46.6737 19.836 46.8091 19.78 46.9677 19.78C47.1264 19.78 47.2617 19.836 47.3737 19.948C47.4857 20.06 47.5417 20.1953 47.5417 20.354V29.552C47.5417 29.7107 47.4857 29.8507 47.3737 29.972C47.2617 30.084 47.1264 30.14 46.9677 30.14ZM54.067 30C53.899 30 53.759 29.944 53.647 29.832C53.5444 29.72 53.493 29.5847 53.493 29.426V20.774C53.493 20.606 53.5444 20.4707 53.647 20.368C53.759 20.256 53.899 20.2 54.067 20.2H54.641V30H54.067ZM54.305 21.264V20.2H58.715C58.8737 20.2 58.9997 20.2513 59.093 20.354C59.1957 20.4473 59.247 20.5733 59.247 20.732C59.247 20.8813 59.1957 21.0073 59.093 21.11C58.9997 21.2127 58.8737 21.264 58.715 21.264H54.305ZM54.137 25.45V24.372H58.225C58.3837 24.372 58.5097 24.4233 58.603 24.526C58.7057 24.6287 58.757 24.7593 58.757 24.918C58.757 25.0673 58.7057 25.1933 58.603 25.296C58.5097 25.3987 58.3837 25.45 58.225 25.45H54.137ZM54.403 30V28.922H58.827C58.9857 28.922 59.1117 28.9733 59.205 29.076C59.3077 29.1693 59.359 29.2953 59.359 29.454C59.359 29.6127 59.3077 29.7433 59.205 29.846C59.1117 29.9487 58.9857 30 58.827 30H54.403ZM65.7693 30.14C65.564 30.14 65.4146 30.0653 65.3213 29.916L60.7013 23.546C60.6266 23.4433 60.5893 23.3313 60.5893 23.21C60.5893 23.0513 60.6453 22.9207 60.7573 22.818C60.8693 22.706 61 22.65 61.1493 22.65C61.3453 22.65 61.4946 22.7247 61.5973 22.874L66.2173 29.244C66.2826 29.3373 66.3153 29.4493 66.3153 29.58C66.3153 29.7293 66.2593 29.86 66.1473 29.972C66.0446 30.084 65.9186 30.14 65.7693 30.14ZM63.1093 25.898L65.2373 22.874C65.34 22.7247 65.4893 22.65 65.6853 22.65C65.844 22.65 65.9793 22.706 66.0913 22.818C66.2033 22.9207 66.2593 23.0513 66.2593 23.21C66.2593 23.2753 66.2453 23.336 66.2173 23.392C66.1986 23.448 66.1706 23.4993 66.1333 23.546L63.8373 26.794L63.1093 25.898ZM61.0793 30.14C60.93 30.14 60.7993 30.084 60.6873 29.972C60.5753 29.86 60.5193 29.7293 60.5193 29.58C60.5193 29.5147 60.5286 29.454 60.5473 29.398C60.5753 29.3327 60.6033 29.2813 60.6313 29.244L63.0533 25.898L63.7673 26.794L61.5273 29.916C61.4246 30.0653 61.2753 30.14 61.0793 30.14ZM71.1085 30.21C70.6885 30.21 70.3292 30.1447 70.0305 30.014C69.7412 29.8833 69.4985 29.72 69.3025 29.524C69.1065 29.328 68.9525 29.1367 68.8405 28.95L68.9245 28.894V32.366C68.9245 32.5247 68.8685 32.66 68.7565 32.772C68.6445 32.884 68.5092 32.94 68.3505 32.94C68.2012 32.94 68.0705 32.884 67.9585 32.772C67.8465 32.66 67.7905 32.5247 67.7905 32.366V23.252C67.7905 23.0933 67.8465 22.9533 67.9585 22.832C68.0705 22.7107 68.2012 22.65 68.3505 22.65C68.5092 22.65 68.6445 22.706 68.7565 22.818C68.8685 22.9207 68.9245 23.0607 68.9245 23.238L68.9105 23.868L68.8545 23.854C69.0132 23.5367 69.2932 23.2473 69.6945 22.986C70.0959 22.7153 70.5859 22.58 71.1645 22.58C71.6312 22.58 72.0512 22.678 72.4245 22.874C72.7979 23.0607 73.1152 23.3267 73.3765 23.672C73.6379 24.008 73.8385 24.4093 73.9785 24.876C74.1185 25.3333 74.1885 25.8327 74.1885 26.374C74.1885 26.9153 74.1185 27.4193 73.9785 27.886C73.8479 28.3433 73.6472 28.7493 73.3765 29.104C73.1152 29.4493 72.7932 29.72 72.4105 29.916C72.0372 30.112 71.6032 30.21 71.1085 30.21ZM70.9545 29.174C71.6079 29.174 72.1212 28.9267 72.4945 28.432C72.8679 27.928 73.0545 27.242 73.0545 26.374C73.0545 25.8047 72.9705 25.3147 72.8025 24.904C72.6439 24.4933 72.4059 24.176 72.0885 23.952C71.7805 23.728 71.3979 23.616 70.9405 23.616C70.2685 23.616 69.7505 23.8587 69.3865 24.344C69.0225 24.8293 68.8405 25.5013 68.8405 26.36C68.8405 27.228 69.0272 27.914 69.4005 28.418C69.7739 28.922 70.2919 29.174 70.9545 29.174ZM78.6739 30.21C78.0579 30.21 77.4932 30.07 76.9799 29.79C76.4759 29.51 76.0699 29.09 75.7619 28.53C75.4632 27.97 75.3139 27.2793 75.3139 26.458C75.3139 25.674 75.4539 24.9927 75.7339 24.414C76.0139 23.8353 76.3919 23.3873 76.8679 23.07C77.3532 22.7433 77.9039 22.58 78.5199 22.58C78.9959 22.58 79.4252 22.6733 79.8079 22.86C80.1906 23.0373 80.5126 23.2847 80.7739 23.602C81.0446 23.91 81.2499 24.26 81.3899 24.652C81.5392 25.0347 81.6139 25.436 81.6139 25.856C81.6139 26.1267 81.5626 26.346 81.4599 26.514C81.3572 26.6727 81.1472 26.752 80.8299 26.752H76.4619C76.4992 27.3213 76.6206 27.7833 76.8259 28.138C77.0312 28.4927 77.2879 28.754 77.5959 28.922C77.9132 29.0807 78.2586 29.16 78.6319 29.16C79.1359 29.16 79.5372 29.0433 79.8359 28.81C80.1346 28.5767 80.3399 28.3013 80.4519 27.984C80.4986 27.872 80.5592 27.7787 80.6339 27.704C80.7179 27.62 80.8299 27.578 80.9699 27.578C81.1286 27.578 81.2546 27.6387 81.3479 27.76C81.4412 27.872 81.4832 28.0213 81.4739 28.208C81.4646 28.3947 81.3992 28.6047 81.2779 28.838C81.1566 29.062 80.9792 29.2813 80.7459 29.496C80.5219 29.7013 80.2372 29.8693 79.8919 30C79.5466 30.14 79.1406 30.21 78.6739 30.21ZM76.4759 25.786H80.5359C80.4706 25.1513 80.2652 24.6333 79.9199 24.232C79.5746 23.8213 79.1032 23.616 78.5059 23.616C77.9739 23.616 77.5212 23.798 77.1479 24.162C76.7839 24.526 76.5599 25.0673 76.4759 25.786ZM83.7177 30.14C83.5591 30.14 83.4237 30.084 83.3117 29.972C83.2091 29.86 83.1577 29.72 83.1577 29.552V23.224C83.1577 23.056 83.2091 22.9207 83.3117 22.818C83.4237 22.706 83.5591 22.65 83.7177 22.65C83.8857 22.65 84.0211 22.706 84.1237 22.818C84.2357 22.9207 84.2917 23.056 84.2917 23.224V24.162L84.0537 23.91C84.3524 23.4527 84.7071 23.1167 85.1177 22.902C85.5377 22.6873 85.9857 22.58 86.4617 22.58C86.9657 22.58 87.4184 22.6873 87.8197 22.902C88.2211 23.1073 88.5337 23.4107 88.7577 23.812C88.9911 24.204 89.1077 24.6893 89.1077 25.268V29.552C89.1077 29.72 89.0564 29.86 88.9537 29.972C88.8511 30.084 88.7157 30.14 88.5477 30.14C88.3704 30.14 88.2304 30.084 88.1277 29.972C88.0251 29.86 87.9737 29.72 87.9737 29.552V25.31C87.9737 24.778 87.8151 24.3627 87.4977 24.064C87.1897 23.7653 86.7791 23.616 86.2657 23.616C85.9204 23.616 85.5984 23.686 85.2997 23.826C85.0011 23.966 84.7584 24.1667 84.5717 24.428C84.3851 24.68 84.2917 24.9833 84.2917 25.338V29.552C84.2917 29.72 84.2357 29.86 84.1237 29.972C84.0211 30.084 83.8857 30.14 83.7177 30.14ZM93.4557 30.252C92.8211 30.252 92.2937 30.14 91.8737 29.916C91.4537 29.6827 91.1364 29.412 90.9217 29.104C90.7071 28.7867 90.5904 28.502 90.5717 28.25C90.5624 28.054 90.6044 27.9047 90.6977 27.802C90.8004 27.69 90.9264 27.634 91.0757 27.634C91.2157 27.634 91.3277 27.676 91.4117 27.76C91.4957 27.8347 91.5564 27.9233 91.5937 28.026C91.7057 28.3433 91.9111 28.6233 92.2097 28.866C92.5084 29.0993 92.9284 29.216 93.4697 29.216C93.9644 29.216 94.3424 29.1133 94.6037 28.908C94.8651 28.6933 94.9957 28.418 94.9957 28.082C94.9957 27.8207 94.9164 27.6153 94.7577 27.466C94.6084 27.3073 94.3984 27.1813 94.1277 27.088C93.8571 26.9947 93.5444 26.9013 93.1897 26.808C92.9284 26.7333 92.6577 26.654 92.3777 26.57C92.0977 26.4767 91.8364 26.3553 91.5937 26.206C91.3511 26.0567 91.1551 25.8653 91.0057 25.632C90.8564 25.3987 90.7817 25.1047 90.7817 24.75C90.7817 24.358 90.8844 23.9987 91.0897 23.672C91.2951 23.336 91.5937 23.07 91.9857 22.874C92.3777 22.6687 92.8444 22.566 93.3857 22.566C93.9364 22.566 94.3984 22.6593 94.7717 22.846C95.1451 23.0327 95.4297 23.2613 95.6257 23.532C95.8311 23.7933 95.9384 24.0453 95.9477 24.288C95.9571 24.4653 95.9197 24.6053 95.8357 24.708C95.7517 24.8107 95.6304 24.862 95.4717 24.862C95.3691 24.862 95.2664 24.834 95.1637 24.778C95.0611 24.722 94.9724 24.6333 94.8977 24.512C94.8324 24.3813 94.7437 24.246 94.6317 24.106C94.5291 23.9567 94.3797 23.8353 94.1837 23.742C93.9877 23.6393 93.7171 23.588 93.3717 23.588C92.9331 23.588 92.5737 23.686 92.2937 23.882C92.0137 24.0687 91.8737 24.3253 91.8737 24.652C91.8737 24.904 91.9531 25.1 92.1117 25.24C92.2797 25.38 92.4944 25.492 92.7557 25.576C93.0264 25.66 93.3204 25.7487 93.6377 25.842C93.9364 25.926 94.2304 26.0193 94.5197 26.122C94.8091 26.2153 95.0704 26.3413 95.3037 26.5C95.5464 26.6493 95.7377 26.8407 95.8777 27.074C96.0271 27.3073 96.1017 27.5967 96.1017 27.942C96.1017 28.2873 96.0131 28.642 95.8357 29.006C95.6677 29.3607 95.3877 29.6593 94.9957 29.902C94.6131 30.1353 94.0997 30.252 93.4557 30.252ZM100.576 30.21C99.9603 30.21 99.3956 30.07 98.8823 29.79C98.3783 29.51 97.9723 29.09 97.6643 28.53C97.3656 27.97 97.2163 27.2793 97.2163 26.458C97.2163 25.674 97.3563 24.9927 97.6363 24.414C97.9163 23.8353 98.2943 23.3873 98.7703 23.07C99.2556 22.7433 99.8063 22.58 100.422 22.58C100.898 22.58 101.328 22.6733 101.71 22.86C102.093 23.0373 102.415 23.2847 102.676 23.602C102.947 23.91 103.152 24.26 103.292 24.652C103.442 25.0347 103.516 25.436 103.516 25.856C103.516 26.1267 103.465 26.346 103.362 26.514C103.26 26.6727 103.05 26.752 102.732 26.752H98.3643C98.4016 27.3213 98.5229 27.7833 98.7283 28.138C98.9336 28.4927 99.1903 28.754 99.4983 28.922C99.8156 29.0807 100.161 29.16 100.534 29.16C101.038 29.16 101.44 29.0433 101.738 28.81C102.037 28.5767 102.242 28.3013 102.354 27.984C102.401 27.872 102.462 27.7787 102.536 27.704C102.62 27.62 102.732 27.578 102.872 27.578C103.031 27.578 103.157 27.6387 103.25 27.76C103.344 27.872 103.386 28.0213 103.376 28.208C103.367 28.3947 103.302 28.6047 103.18 28.838C103.059 29.062 102.882 29.2813 102.648 29.496C102.424 29.7013 102.14 29.8693 101.794 30C101.449 30.14 101.043 30.21 100.576 30.21ZM98.3783 25.786H102.438C102.373 25.1513 102.168 24.6333 101.822 24.232C101.477 23.8213 101.006 23.616 100.408 23.616C99.8763 23.616 99.4236 23.798 99.0503 24.162C98.6863 24.526 98.4623 25.0673 98.3783 25.786ZM107.524 30.252C106.889 30.252 106.362 30.14 105.942 29.916C105.522 29.6827 105.205 29.412 104.99 29.104C104.775 28.7867 104.659 28.502 104.64 28.25C104.631 28.054 104.673 27.9047 104.766 27.802C104.869 27.69 104.995 27.634 105.144 27.634C105.284 27.634 105.396 27.676 105.48 27.76C105.564 27.8347 105.625 27.9233 105.662 28.026C105.774 28.3433 105.979 28.6233 106.278 28.866C106.577 29.0993 106.997 29.216 107.538 29.216C108.033 29.216 108.411 29.1133 108.672 28.908C108.933 28.6933 109.064 28.418 109.064 28.082C109.064 27.8207 108.985 27.6153 108.826 27.466C108.677 27.3073 108.467 27.1813 108.196 27.088C107.925 26.9947 107.613 26.9013 107.258 26.808C106.997 26.7333 106.726 26.654 106.446 26.57C106.166 26.4767 105.905 26.3553 105.662 26.206C105.419 26.0567 105.223 25.8653 105.074 25.632C104.925 25.3987 104.85 25.1047 104.85 24.75C104.85 24.358 104.953 23.9987 105.158 23.672C105.363 23.336 105.662 23.07 106.054 22.874C106.446 22.6687 106.913 22.566 107.454 22.566C108.005 22.566 108.467 22.6593 108.84 22.846C109.213 23.0327 109.498 23.2613 109.694 23.532C109.899 23.7933 110.007 24.0453 110.016 24.288C110.025 24.4653 109.988 24.6053 109.904 24.708C109.82 24.8107 109.699 24.862 109.54 24.862C109.437 24.862 109.335 24.834 109.232 24.778C109.129 24.722 109.041 24.6333 108.966 24.512C108.901 24.3813 108.812 24.246 108.7 24.106C108.597 23.9567 108.448 23.8353 108.252 23.742C108.056 23.6393 107.785 23.588 107.44 23.588C107.001 23.588 106.642 23.686 106.362 23.882C106.082 24.0687 105.942 24.3253 105.942 24.652C105.942 24.904 106.021 25.1 106.18 25.24C106.348 25.38 106.563 25.492 106.824 25.576C107.095 25.66 107.389 25.7487 107.706 25.842C108.005 25.926 108.299 26.0193 108.588 26.122C108.877 26.2153 109.139 26.3413 109.372 26.5C109.615 26.6493 109.806 26.8407 109.946 27.074C110.095 27.3073 110.17 27.5967 110.17 27.942C110.17 28.2873 110.081 28.642 109.904 29.006C109.736 29.3607 109.456 29.6593 109.064 29.902C108.681 30.1353 108.168 30.252 107.524 30.252Z" fill="#2E2C28"/>
<path d="M26.2 61C24.952 61 23.856 60.808 22.912 60.424C21.984 60.024 21.256 59.52 20.728 58.912C20.216 58.288 19.96 57.648 19.96 56.992C19.96 56.592 20.08 56.264 20.32 56.008C20.576 55.736 20.912 55.6 21.328 55.6C21.728 55.6 22.016 55.712 22.192 55.936C22.384 56.144 22.56 56.4 22.72 56.704C22.944 57.152 23.32 57.552 23.848 57.904C24.392 58.256 25.144 58.432 26.104 58.432C26.648 58.432 27.152 58.368 27.616 58.24C28.08 58.096 28.448 57.872 28.72 57.568C29.008 57.264 29.152 56.856 29.152 56.344C29.152 55.896 29.024 55.536 28.768 55.264C28.528 54.976 28.16 54.72 27.664 54.496C27.168 54.256 26.544 54 25.792 53.728C25.216 53.52 24.632 53.304 24.04 53.08C23.448 52.84 22.912 52.544 22.432 52.192C21.952 51.84 21.56 51.392 21.256 50.848C20.968 50.304 20.824 49.616 20.824 48.784C20.824 47.808 21.056 46.992 21.52 46.336C21.984 45.68 22.608 45.184 23.392 44.848C24.192 44.512 25.088 44.344 26.08 44.344C26.816 44.344 27.496 44.44 28.12 44.632C28.76 44.808 29.312 45.056 29.776 45.376C30.24 45.68 30.608 46.04 30.88 46.456C31.152 46.856 31.304 47.28 31.336 47.728C31.352 48.128 31.24 48.464 31 48.736C30.76 48.992 30.432 49.12 30.016 49.12C29.664 49.12 29.408 49.056 29.248 48.928C29.104 48.784 28.944 48.56 28.768 48.256C28.56 47.84 28.24 47.512 27.808 47.272C27.392 47.032 26.84 46.912 26.152 46.912C25.672 46.912 25.24 46.984 24.856 47.128C24.488 47.256 24.2 47.456 23.992 47.728C23.784 47.984 23.68 48.296 23.68 48.664C23.68 49.16 23.84 49.56 24.16 49.864C24.48 50.168 24.904 50.432 25.432 50.656C25.96 50.864 26.52 51.08 27.112 51.304C27.864 51.576 28.536 51.856 29.128 52.144C29.736 52.432 30.248 52.76 30.664 53.128C31.096 53.48 31.424 53.912 31.648 54.424C31.888 54.92 32.008 55.512 32.008 56.2C32.008 57.224 31.768 58.096 31.288 58.816C30.808 59.52 30.128 60.064 29.248 60.448C28.384 60.816 27.368 61 26.2 61ZM26.272 63.376C26 63.376 25.76 63.272 25.552 63.064C25.36 62.872 25.264 62.64 25.264 62.368V43.072C25.264 42.784 25.36 42.544 25.552 42.352C25.76 42.16 26 42.064 26.272 42.064C26.56 42.064 26.8 42.16 26.992 42.352C27.184 42.544 27.28 42.784 27.28 43.072V62.368C27.28 62.64 27.184 62.872 26.992 63.064C26.8 63.272 26.56 63.376 26.272 63.376ZM36.0168 61C35.5208 61 35.0968 60.856 34.7448 60.568C34.4088 60.264 34.2408 59.824 34.2408 59.248C34.2408 58.416 34.3848 57.664 34.6728 56.992C34.9768 56.32 35.3768 55.712 35.8728 55.168C36.3848 54.624 36.9368 54.128 37.5288 53.68C38.1368 53.216 38.7288 52.776 39.3047 52.36C39.9128 51.944 40.4728 51.536 40.9848 51.136C41.5128 50.72 41.9368 50.296 42.2568 49.864C42.5768 49.416 42.7368 48.944 42.7368 48.448C42.7368 48.016 42.6248 47.648 42.4008 47.344C42.1768 47.04 41.8648 46.808 41.4648 46.648C41.0648 46.472 40.5848 46.384 40.0247 46.384C39.4168 46.384 38.9048 46.472 38.4888 46.648C38.0888 46.824 37.7608 47.064 37.5048 47.368C37.2648 47.672 37.0728 48.016 36.9288 48.4C36.8008 48.736 36.6328 48.992 36.4248 49.168C36.2168 49.328 35.9608 49.408 35.6568 49.408C35.2888 49.408 34.9848 49.28 34.7448 49.024C34.5048 48.768 34.3848 48.448 34.3848 48.064C34.4008 47.536 34.5608 47.024 34.8648 46.528C35.1688 46.032 35.5848 45.584 36.1128 45.184C36.6408 44.784 37.2568 44.464 37.9608 44.224C38.6808 43.984 39.4568 43.864 40.2888 43.864C41.2968 43.864 42.1928 44.056 42.9768 44.44C43.7608 44.808 44.3768 45.336 44.8248 46.024C45.2888 46.712 45.5288 47.512 45.5448 48.424C45.5608 49.16 45.4328 49.824 45.1608 50.416C44.9048 50.992 44.5528 51.528 44.1048 52.024C43.6568 52.504 43.1608 52.952 42.6168 53.368C42.0728 53.768 41.5208 54.152 40.9608 54.52C40.4008 54.904 39.8568 55.296 39.3288 55.696C38.8008 56.08 38.3608 56.48 38.0088 56.896C37.6728 57.312 37.5048 57.784 37.5048 58.312V58.36L44.5848 58.336C44.9688 58.336 45.2888 58.472 45.5448 58.744C45.8008 59 45.9288 59.312 45.9288 59.68C45.9288 60.048 45.8008 60.36 45.5448 60.616C45.2888 60.872 44.9688 61 44.5848 61H36.0168ZM52.2906 61.24C51.9226 61.24 51.5946 61.104 51.3066 60.832C51.0346 60.56 50.8986 60.232 50.8986 59.848C50.8986 58.52 50.9946 57.216 51.1866 55.936C51.3946 54.64 51.6826 53.4 52.0506 52.216C52.4186 51.032 52.8586 49.944 53.3706 48.952C53.8826 47.944 54.4426 47.072 55.0506 46.336L55.8666 46.912H48.9786C48.6106 46.912 48.2906 46.776 48.0186 46.504C47.7466 46.232 47.6106 45.912 47.6106 45.544C47.6106 45.16 47.7466 44.84 48.0186 44.584C48.2906 44.312 48.6106 44.176 48.9786 44.176H57.9066C58.2906 44.176 58.6026 44.304 58.8426 44.56C59.0986 44.8 59.2266 45.072 59.2266 45.376C59.2266 45.616 59.1946 45.824 59.1306 46C59.0666 46.176 58.9466 46.352 58.7706 46.528C58.5946 46.704 58.3546 46.92 58.0506 47.176C57.4266 47.672 56.8426 48.344 56.2986 49.192C55.7706 50.04 55.3066 51.024 54.9066 52.144C54.5226 53.248 54.2186 54.456 53.9946 55.768C53.7866 57.064 53.6826 58.424 53.6826 59.848C53.6826 60.232 53.5466 60.56 53.2746 60.832C53.0186 61.104 52.6906 61.24 52.2906 61.24ZM66.6413 61.384C65.4733 61.384 64.4493 61.168 63.5693 60.736C62.7053 60.304 62.0253 59.768 61.5293 59.128C61.0333 58.472 60.7533 57.816 60.6893 57.16C60.6733 56.76 60.7853 56.44 61.0253 56.2C61.2653 55.96 61.5773 55.84 61.9613 55.84C62.2653 55.84 62.5053 55.928 62.6813 56.104C62.8733 56.264 63.0413 56.464 63.1853 56.704C63.5053 57.344 63.9453 57.856 64.5053 58.24C65.0653 58.624 65.7373 58.816 66.5213 58.816C67.2253 58.816 67.8413 58.664 68.3693 58.36C68.9133 58.04 69.3293 57.608 69.6173 57.064C69.9213 56.504 70.0733 55.888 70.0733 55.216C70.0733 54.528 69.9213 53.92 69.6173 53.392C69.3293 52.848 68.9133 52.424 68.3693 52.12C67.8413 51.8 67.2093 51.64 66.4733 51.64C66.0093 51.64 65.6173 51.704 65.2973 51.832C64.9933 51.96 64.7213 52.104 64.4813 52.264C64.2573 52.408 64.0333 52.544 63.8093 52.672C63.5853 52.784 63.3293 52.84 63.0413 52.84C62.6413 52.84 62.3373 52.728 62.1293 52.504C61.9213 52.264 61.8413 51.928 61.8893 51.496L62.5613 45.64C62.6093 45.176 62.8013 44.824 63.1373 44.584C63.4733 44.328 63.8333 44.2 64.2173 44.2H70.1933C70.5773 44.2 70.8973 44.336 71.1533 44.608C71.4253 44.864 71.5613 45.176 71.5613 45.544C71.5613 45.896 71.4253 46.216 71.1533 46.504C70.8813 46.776 70.5133 46.904 70.0493 46.888L63.7613 46.768L65.2733 45.832L64.5773 51.4L62.8733 51.04C63.5133 50.496 64.1613 50.088 64.8173 49.816C65.4893 49.544 66.2253 49.408 67.0253 49.408C68.1613 49.408 69.1613 49.648 70.0253 50.128C70.9053 50.608 71.5933 51.288 72.0893 52.168C72.5853 53.032 72.8333 54.048 72.8333 55.216C72.8333 56.384 72.5773 57.44 72.0653 58.384C71.5533 59.312 70.8333 60.048 69.9053 60.592C68.9933 61.12 67.9053 61.384 66.6413 61.384ZM81.5221 61.336C80.1781 61.336 79.0261 61 78.0661 60.328C77.1221 59.656 76.3941 58.704 75.8821 57.472C75.3701 56.224 75.1141 54.752 75.1141 53.056C75.1141 51.248 75.3941 49.656 75.9541 48.28C76.5301 46.888 77.3141 45.808 78.3061 45.04C79.3141 44.256 80.4741 43.864 81.7861 43.864C82.5061 43.864 83.1781 43.976 83.8021 44.2C84.4421 44.424 85.0021 44.728 85.4821 45.112C85.9621 45.48 86.3301 45.88 86.5861 46.312C86.8581 46.744 87.0021 47.176 87.0181 47.608C87.0341 47.976 86.9221 48.296 86.6821 48.568C86.4581 48.824 86.1541 48.952 85.7701 48.952C85.4341 48.952 85.1621 48.872 84.9541 48.712C84.7621 48.536 84.6021 48.344 84.4741 48.136C84.2341 47.64 83.8901 47.232 83.4421 46.912C83.0101 46.576 82.4661 46.408 81.8101 46.408C81.1221 46.408 80.5061 46.608 79.9621 47.008C79.4181 47.392 78.9781 47.952 78.6421 48.688C78.3061 49.408 78.0901 50.288 77.9941 51.328C78.5701 50.88 79.1861 50.528 79.8421 50.272C80.4981 50 81.1781 49.864 81.8821 49.864C82.9221 49.864 83.8661 50.096 84.7141 50.56C85.5621 51.024 86.2421 51.68 86.7541 52.528C87.2661 53.376 87.5221 54.376 87.5221 55.528C87.5221 56.584 87.2821 57.552 86.8021 58.432C86.3381 59.312 85.6581 60.016 84.7621 60.544C83.8821 61.072 82.8021 61.336 81.5221 61.336ZM77.9941 54.376C78.1541 55.784 78.5381 56.872 79.1461 57.64C79.7541 58.392 80.5381 58.768 81.4981 58.768C82.1381 58.768 82.7061 58.616 83.2021 58.312C83.7141 58.008 84.1061 57.6 84.3781 57.088C84.6661 56.576 84.8101 56.016 84.8101 55.408C84.8101 54.8 84.6741 54.272 84.4021 53.824C84.1301 53.36 83.7541 53 83.2741 52.744C82.8101 52.472 82.2901 52.336 81.7141 52.336C81.2981 52.336 80.8821 52.416 80.4661 52.576C80.0661 52.736 79.6581 52.968 79.2421 53.272C78.8421 53.56 78.4261 53.928 77.9941 54.376Z" fill="#267F53"/>
<rect x="19" y="70" width="45" height="20" rx="5" fill="#267F53"/>
<path d="M32.4824 83.8082L25.5621 75.8104L25.5598 75.8081C25.3235 75.5531 25.0218 75.4511 24.712 75.5219C24.3943 75.5939 24.1208 75.8477 24.032 76.1537C24.0105 76.2275 24 76.3013 24 76.374C24 76.5959 24.0982 76.8094 24.2883 76.9925L32.2093 84.124L32.4824 83.8082Z" fill="white"/>
<path d="M32.2818 84.1881C32.4997 84.2139 32.6746 84.029 32.6402 83.8181C32.362 82.1109 32.4516 80.2415 32.9966 78.6484C33.0377 78.2473 32.7043 77.8941 32.2728 77.9173C31.9305 77.936 31.6633 78.2184 31.6312 78.5502C31.5068 79.8316 31.5397 82.0013 31.5674 83.1126C30.4188 83.0833 28.1795 83.0475 26.8626 83.1685C26.5215 83.1997 26.2312 83.4596 26.212 83.7926C26.1881 84.2124 26.5512 84.5367 26.9635 84.4967C29.1849 83.9163 31.3742 84.0788 32.2818 84.1877V84.1881Z" fill="white"/>
<path d="M37.948 81.312C37.82 81.312 37.708 81.268 37.612 81.18C37.524 81.092 37.48 80.984 37.48 80.856C37.48 80.728 37.524 80.62 37.612 80.532C37.708 80.436 37.82 80.388 37.948 80.388H41.128C41.248 80.388 41.352 80.436 41.44 80.532C41.528 80.62 41.572 80.728 41.572 80.856C41.572 80.984 41.528 81.092 41.44 81.18C41.352 81.268 41.248 81.312 41.128 81.312H37.948ZM45.3628 84.192C44.7788 84.192 44.2828 84.08 43.8748 83.856C43.4668 83.624 43.1428 83.344 42.9028 83.016C42.6628 82.68 42.5028 82.356 42.4228 82.044C42.3908 81.892 42.4188 81.768 42.5068 81.672C42.6028 81.568 42.7268 81.516 42.8788 81.516C43.0068 81.516 43.1028 81.556 43.1668 81.636C43.2308 81.708 43.2868 81.792 43.3348 81.888C43.5108 82.28 43.7588 82.612 44.0788 82.884C44.4068 83.148 44.8268 83.28 45.3388 83.28C45.7468 83.28 46.1068 83.188 46.4188 83.004C46.7308 82.82 46.9708 82.568 47.1388 82.248C47.3148 81.928 47.4028 81.568 47.4028 81.168C47.4028 80.768 47.3148 80.412 47.1388 80.1C46.9708 79.788 46.7308 79.544 46.4188 79.368C46.1148 79.184 45.7548 79.092 45.3388 79.092C45.0428 79.092 44.7988 79.132 44.6068 79.212C44.4148 79.292 44.2548 79.384 44.1268 79.488C44.0068 79.584 43.8948 79.672 43.7908 79.752C43.6948 79.832 43.5828 79.872 43.4548 79.872C43.3028 79.872 43.1828 79.824 43.0948 79.728C43.0148 79.624 42.9828 79.508 42.9988 79.38L43.4068 76.236C43.4308 76.028 43.5068 75.872 43.6348 75.768C43.7628 75.656 43.9188 75.6 44.1028 75.6H47.1028C47.2388 75.6 47.3508 75.648 47.4388 75.744C47.5348 75.832 47.5828 75.944 47.5828 76.08C47.5828 76.208 47.5348 76.32 47.4388 76.416C47.3428 76.504 47.2268 76.548 47.0908 76.548L43.8748 76.536L44.3548 76.14L43.9708 79.032L43.6468 78.792C43.9108 78.6 44.1908 78.456 44.4868 78.36C44.7828 78.264 45.0948 78.216 45.4228 78.216C45.9908 78.216 46.4948 78.344 46.9348 78.6C47.3828 78.848 47.7308 79.192 47.9788 79.632C48.2348 80.072 48.3628 80.58 48.3628 81.156C48.3628 81.724 48.2388 82.24 47.9908 82.704C47.7428 83.16 47.3948 83.524 46.9468 83.796C46.4988 84.06 45.9708 84.192 45.3628 84.192ZM50.9703 84.18C50.8503 84.18 50.7463 84.14 50.6583 84.06C50.5783 83.988 50.5303 83.896 50.5143 83.784C50.4983 83.672 50.5263 83.564 50.5983 83.46L56.0943 75.672C56.1343 75.608 56.1863 75.556 56.2503 75.516C56.3223 75.476 56.3983 75.456 56.4783 75.456C56.6063 75.456 56.7103 75.496 56.7903 75.576C56.8703 75.648 56.9183 75.74 56.9343 75.852C56.9503 75.964 56.9223 76.076 56.8503 76.188L51.3543 83.976C51.3143 84.032 51.2583 84.08 51.1863 84.12C51.1223 84.16 51.0503 84.18 50.9703 84.18ZM51.2463 79.536C50.8783 79.536 50.5383 79.444 50.2263 79.26C49.9143 79.068 49.6663 78.816 49.4823 78.504C49.2983 78.192 49.2063 77.852 49.2063 77.484C49.2063 77.108 49.2983 76.764 49.4823 76.452C49.6663 76.14 49.9143 75.892 50.2263 75.708C50.5383 75.524 50.8783 75.432 51.2463 75.432C51.6223 75.432 51.9663 75.524 52.2783 75.708C52.5903 75.892 52.8383 76.14 53.0223 76.452C53.2063 76.764 53.2983 77.108 53.2983 77.484C53.2983 77.852 53.2063 78.192 53.0223 78.504C52.8383 78.816 52.5903 79.068 52.2783 79.26C51.9663 79.444 51.6223 79.536 51.2463 79.536ZM51.2463 78.66C51.4703 78.66 51.6663 78.608 51.8343 78.504C52.0023 78.392 52.1343 78.248 52.2303 78.072C52.3263 77.896 52.3743 77.7 52.3743 77.484C52.3743 77.156 52.2703 76.88 52.0623 76.656C51.8543 76.432 51.5823 76.32 51.2463 76.32C51.0383 76.32 50.8463 76.372 50.6702 76.476C50.5023 76.58 50.3703 76.72 50.2743 76.896C50.1783 77.064 50.1303 77.26 50.1303 77.484C50.1303 77.7 50.1783 77.896 50.2743 78.072C50.3703 78.248 50.5023 78.392 50.6702 78.504C50.8463 78.608 51.0383 78.66 51.2463 78.66ZM56.2623 84.168C55.8943 84.168 55.5543 84.076 55.2422 83.892C54.9303 83.7 54.6823 83.448 54.4983 83.136C54.3143 82.816 54.2223 82.472 54.2223 82.104C54.2223 81.728 54.3143 81.384 54.4983 81.072C54.6823 80.76 54.9303 80.512 55.2422 80.328C55.5543 80.144 55.8943 80.052 56.2623 80.052C56.6383 80.052 56.9823 80.144 57.2943 80.328C57.6063 80.512 57.8543 80.76 58.0383 81.072C58.2223 81.384 58.3143 81.728 58.3143 82.104C58.3143 82.472 58.2223 82.816 58.0383 83.136C57.8543 83.448 57.6063 83.7 57.2943 83.892C56.9823 84.076 56.6383 84.168 56.2623 84.168ZM56.2623 83.268C56.4863 83.268 56.6823 83.216 56.8503 83.112C57.0183 83.008 57.1503 82.868 57.2463 82.692C57.3423 82.516 57.3903 82.32 57.3903 82.104C57.3903 81.776 57.2863 81.5 57.0783 81.276C56.8703 81.052 56.5983 80.94 56.2623 80.94C56.0543 80.94 55.8623 80.992 55.6862 81.096C55.5183 81.2 55.3863 81.34 55.2903 81.516C55.1943 81.684 55.1463 81.88 55.1463 82.104C55.1463 82.32 55.1943 82.516 55.2903 82.692C55.3863 82.868 55.5183 83.008 55.6862 83.112C55.8623 83.216 56.0543 83.268 56.2623 83.268Z" fill="white"/>
<path d="M72.78 85.21C72.1267 85.21 71.5573 85.0467 71.072 84.72C70.5867 84.384 70.2133 83.9267 69.952 83.348C69.6907 82.7693 69.56 82.116 69.56 81.388C69.56 80.6507 69.6907 79.9973 69.952 79.428C70.2227 78.8587 70.6007 78.4107 71.086 78.084C71.5713 77.748 72.1407 77.58 72.794 77.58C73.3353 77.58 73.7927 77.6827 74.166 77.888C74.5487 78.084 74.8427 78.3173 75.048 78.588C75.2533 78.8587 75.3653 79.1107 75.384 79.344C75.412 79.54 75.37 79.6893 75.258 79.792C75.1553 79.8947 75.0293 79.946 74.88 79.946C74.7307 79.946 74.6187 79.9087 74.544 79.834C74.4693 79.7593 74.4087 79.6753 74.362 79.582C74.2407 79.33 74.054 79.106 73.802 78.91C73.55 78.7047 73.2093 78.602 72.78 78.602C72.332 78.602 71.954 78.7233 71.646 78.966C71.338 79.1993 71.1 79.526 70.932 79.946C70.7733 80.366 70.694 80.842 70.694 81.374C70.694 82.2233 70.8807 82.9 71.254 83.404C71.6367 83.908 72.15 84.16 72.794 84.16C73.2887 84.16 73.6713 84.0293 73.942 83.768C74.222 83.5067 74.418 83.2127 74.53 82.886C74.5767 82.7553 74.642 82.648 74.726 82.564C74.81 82.48 74.922 82.438 75.062 82.438C75.2207 82.438 75.3467 82.494 75.44 82.606C75.5427 82.718 75.5847 82.872 75.566 83.068C75.5567 83.2453 75.4867 83.4553 75.356 83.698C75.2347 83.9407 75.0573 84.1787 74.824 84.412C74.6 84.6453 74.3153 84.8367 73.97 84.986C73.634 85.1353 73.2373 85.21 72.78 85.21ZM79.8907 85.21C79.2374 85.21 78.6634 85.0513 78.1687 84.734C77.6834 84.4073 77.3007 83.9547 77.0207 83.376C76.75 82.7973 76.6147 82.13 76.6147 81.374C76.6147 80.618 76.75 79.9553 77.0207 79.386C77.3007 78.8167 77.6834 78.3733 78.1687 78.056C78.6634 77.7387 79.2374 77.58 79.8907 77.58C80.5534 77.58 81.132 77.7387 81.6267 78.056C82.1307 78.3733 82.5227 78.8167 82.8027 79.386C83.0827 79.9553 83.2227 80.618 83.2227 81.374C83.2227 82.13 83.0827 82.7973 82.8027 83.376C82.5227 83.9547 82.1307 84.4073 81.6267 84.734C81.132 85.0513 80.5534 85.21 79.8907 85.21ZM79.8907 84.16C80.5814 84.16 81.118 83.9127 81.5007 83.418C81.8834 82.9233 82.0747 82.242 82.0747 81.374C82.0747 80.5247 81.8834 79.8527 81.5007 79.358C81.118 78.8633 80.5814 78.616 79.8907 78.616C79.2094 78.616 78.682 78.8633 78.3087 79.358C77.9354 79.8527 77.7487 80.5247 77.7487 81.374C77.7487 82.242 77.9354 82.9233 78.3087 83.418C78.682 83.9127 79.2094 84.16 79.8907 84.16ZM85.3193 85.14C85.1606 85.14 85.0253 85.084 84.9133 84.972C84.8106 84.86 84.7593 84.72 84.7593 84.552V78.224C84.7593 78.056 84.8106 77.9207 84.9133 77.818C85.0253 77.706 85.1606 77.65 85.3193 77.65C85.4873 77.65 85.6226 77.706 85.7253 77.818C85.8373 77.9207 85.8933 78.056 85.8933 78.224V79.078L85.6553 78.882C85.8513 78.574 86.0706 78.3267 86.3133 78.14C86.5653 77.944 86.836 77.804 87.1253 77.72C87.4146 77.6267 87.7086 77.58 88.0073 77.58C88.5486 77.58 89.0246 77.7107 89.4353 77.972C89.8553 78.2333 90.1633 78.6113 90.3593 79.106L89.9533 79.162C90.196 78.7513 90.462 78.434 90.7513 78.21C91.0406 77.9767 91.3346 77.8133 91.6333 77.72C91.9413 77.6267 92.2446 77.58 92.5433 77.58C93.038 77.58 93.4813 77.6873 93.8733 77.902C94.2653 78.1073 94.5733 78.4107 94.7973 78.812C95.0213 79.204 95.1333 79.68 95.1333 80.24V84.552C95.1333 84.72 95.082 84.86 94.9793 84.972C94.8766 85.084 94.746 85.14 94.5873 85.14C94.4193 85.14 94.2793 85.084 94.1673 84.972C94.0646 84.86 94.0133 84.72 94.0133 84.552V80.282C94.0133 79.7593 93.8593 79.3533 93.5513 79.064C93.2526 78.7747 92.856 78.63 92.3613 78.63C92.044 78.63 91.75 78.6953 91.4793 78.826C91.2086 78.9473 90.994 79.1293 90.8353 79.372C90.6766 79.6053 90.5973 79.8947 90.5973 80.24V84.552C90.5973 84.72 90.5413 84.86 90.4293 84.972C90.3266 85.084 90.196 85.14 90.0373 85.14C89.8693 85.14 89.7293 85.084 89.6173 84.972C89.5146 84.86 89.4633 84.72 89.4633 84.552V80.282C89.4633 79.7593 89.314 79.3533 89.0153 79.064C88.7166 78.7653 88.32 78.616 87.8253 78.616C87.4893 78.616 87.172 78.686 86.8733 78.826C86.584 78.9567 86.346 79.148 86.1593 79.4C85.982 79.6427 85.8933 79.932 85.8933 80.268V84.552C85.8933 84.72 85.8373 84.86 85.7253 84.972C85.6226 85.084 85.4873 85.14 85.3193 85.14ZM100.341 85.21C99.921 85.21 99.5616 85.1447 99.263 85.014C98.9736 84.8833 98.731 84.72 98.535 84.524C98.339 84.328 98.185 84.1367 98.073 83.95L98.157 83.894V87.366C98.157 87.5247 98.101 87.66 97.989 87.772C97.877 87.884 97.7416 87.94 97.583 87.94C97.4336 87.94 97.303 87.884 97.191 87.772C97.079 87.66 97.023 87.5247 97.023 87.366V78.252C97.023 78.0933 97.079 77.9533 97.191 77.832C97.303 77.7107 97.4336 77.65 97.583 77.65C97.7416 77.65 97.877 77.706 97.989 77.818C98.101 77.9207 98.157 78.0607 98.157 78.238L98.143 78.868L98.087 78.854C98.2456 78.5367 98.5256 78.2473 98.927 77.986C99.3283 77.7153 99.8183 77.58 100.397 77.58C100.864 77.58 101.284 77.678 101.657 77.874C102.03 78.0607 102.348 78.3267 102.609 78.672C102.87 79.008 103.071 79.4093 103.211 79.876C103.351 80.3333 103.421 80.8327 103.421 81.374C103.421 81.9153 103.351 82.4193 103.211 82.886C103.08 83.3433 102.88 83.7493 102.609 84.104C102.348 84.4493 102.026 84.72 101.643 84.916C101.27 85.112 100.836 85.21 100.341 85.21ZM100.187 84.174C100.84 84.174 101.354 83.9267 101.727 83.432C102.1 82.928 102.287 82.242 102.287 81.374C102.287 80.8047 102.203 80.3147 102.035 79.904C101.876 79.4933 101.638 79.176 101.321 78.952C101.013 78.728 100.63 78.616 100.173 78.616C99.501 78.616 98.983 78.8587 98.619 79.344C98.255 79.8293 98.073 80.5013 98.073 81.36C98.073 82.228 98.2596 82.914 98.633 83.418C99.0063 83.922 99.5243 84.174 100.187 84.174ZM107.066 85.21C106.544 85.21 106.091 85.1167 105.708 84.93C105.335 84.734 105.046 84.4727 104.84 84.146C104.644 83.8193 104.546 83.4553 104.546 83.054C104.546 82.4753 104.761 81.9807 105.19 81.57C105.629 81.15 106.329 80.884 107.29 80.772C107.692 80.7253 108.037 80.674 108.326 80.618C108.616 80.562 108.84 80.4687 108.998 80.338C109.166 80.2073 109.25 80.016 109.25 79.764C109.25 79.568 109.199 79.386 109.096 79.218C109.003 79.0407 108.844 78.896 108.62 78.784C108.406 78.672 108.116 78.616 107.752 78.616C107.267 78.616 106.903 78.714 106.66 78.91C106.418 79.0967 106.25 79.2833 106.156 79.47C106.091 79.5913 106.012 79.6847 105.918 79.75C105.825 79.8153 105.713 79.848 105.582 79.848C105.424 79.848 105.302 79.8013 105.218 79.708C105.134 79.6053 105.092 79.4793 105.092 79.33C105.092 79.1527 105.153 78.966 105.274 78.77C105.396 78.5647 105.573 78.3733 105.806 78.196C106.049 78.0093 106.338 77.86 106.674 77.748C107.02 77.636 107.412 77.58 107.85 77.58C108.485 77.58 108.984 77.7013 109.348 77.944C109.722 78.1773 109.988 78.4993 110.146 78.91C110.305 79.3113 110.384 79.7593 110.384 80.254V83.74C110.384 83.8333 110.394 83.9033 110.412 83.95C110.44 83.9967 110.487 84.0247 110.552 84.034C110.683 84.0433 110.795 84.0993 110.888 84.202C110.982 84.2953 111.028 84.4167 111.028 84.566C111.028 84.7247 110.963 84.86 110.832 84.972C110.711 85.084 110.538 85.14 110.314 85.14C110.034 85.14 109.815 85.0607 109.656 84.902C109.507 84.734 109.432 84.5287 109.432 84.286V84.048H109.39C109.157 84.3933 108.849 84.6733 108.466 84.888C108.093 85.1027 107.626 85.21 107.066 85.21ZM107.08 84.174C107.5 84.174 107.874 84.0853 108.2 83.908C108.536 83.7307 108.798 83.4927 108.984 83.194C109.18 82.8953 109.278 82.564 109.278 82.2V81.248C109.278 81.2293 109.269 81.22 109.25 81.22C109.241 81.2107 109.222 81.2247 109.194 81.262C109.054 81.374 108.863 81.4627 108.62 81.528C108.387 81.584 108.149 81.6307 107.906 81.668C107.664 81.7053 107.463 81.738 107.304 81.766C106.819 81.8407 106.422 81.9713 106.114 82.158C105.816 82.3447 105.666 82.6247 105.666 82.998C105.666 83.278 105.774 83.544 105.988 83.796C106.203 84.048 106.567 84.174 107.08 84.174ZM112.95 85.14C112.791 85.14 112.656 85.084 112.544 84.972C112.441 84.8507 112.39 84.7107 112.39 84.552V78.224C112.39 78.0653 112.441 77.93 112.544 77.818C112.656 77.706 112.791 77.65 112.95 77.65C113.109 77.65 113.244 77.706 113.356 77.818C113.468 77.93 113.524 78.0653 113.524 78.224V79.176L113.384 78.896C113.477 78.7 113.617 78.4993 113.804 78.294C114 78.0887 114.233 77.9207 114.504 77.79C114.784 77.65 115.106 77.58 115.47 77.58C115.666 77.58 115.82 77.6313 115.932 77.734C116.053 77.8367 116.114 77.9673 116.114 78.126C116.114 78.2847 116.058 78.42 115.946 78.532C115.834 78.644 115.694 78.7 115.526 78.7C115.134 78.7 114.789 78.784 114.49 78.952C114.191 79.1107 113.953 79.3207 113.776 79.582C113.608 79.834 113.524 80.1 113.524 80.38V84.552C113.524 84.7107 113.468 84.8507 113.356 84.972C113.244 85.084 113.109 85.14 112.95 85.14ZM119.897 85.21C119.281 85.21 118.716 85.07 118.203 84.79C117.699 84.51 117.293 84.09 116.985 83.53C116.686 82.97 116.537 82.2793 116.537 81.458C116.537 80.674 116.677 79.9927 116.957 79.414C117.237 78.8353 117.615 78.3873 118.091 78.07C118.576 77.7433 119.127 77.58 119.743 77.58C120.219 77.58 120.648 77.6733 121.031 77.86C121.413 78.0373 121.735 78.2847 121.997 78.602C122.267 78.91 122.473 79.26 122.613 79.652C122.762 80.0347 122.837 80.436 122.837 80.856C122.837 81.1267 122.785 81.346 122.683 81.514C122.58 81.6727 122.37 81.752 122.053 81.752H117.685C117.722 82.3213 117.843 82.7833 118.049 83.138C118.254 83.4927 118.511 83.754 118.819 83.922C119.136 84.0807 119.481 84.16 119.855 84.16C120.359 84.16 120.76 84.0433 121.059 83.81C121.357 83.5767 121.563 83.3013 121.675 82.984C121.721 82.872 121.782 82.7787 121.857 82.704C121.941 82.62 122.053 82.578 122.193 82.578C122.351 82.578 122.477 82.6387 122.571 82.76C122.664 82.872 122.706 83.0213 122.697 83.208C122.687 83.3947 122.622 83.6047 122.501 83.838C122.379 84.062 122.202 84.2813 121.969 84.496C121.745 84.7013 121.46 84.8693 121.115 85C120.769 85.14 120.363 85.21 119.897 85.21ZM117.699 80.786H121.759C121.693 80.1513 121.488 79.6333 121.143 79.232C120.797 78.8213 120.326 78.616 119.729 78.616C119.197 78.616 118.744 78.798 118.371 79.162C118.007 79.526 117.783 80.0673 117.699 80.786ZM127.012 85.21C126.34 85.21 125.776 85.0327 125.318 84.678C124.87 84.3233 124.53 83.8567 124.296 83.278C124.072 82.6993 123.96 82.0787 123.96 81.416C123.96 80.716 124.082 80.0767 124.324 79.498C124.567 78.9193 124.922 78.4573 125.388 78.112C125.864 77.7573 126.438 77.58 127.11 77.58C127.502 77.58 127.843 77.6407 128.132 77.762C128.431 77.874 128.683 78.0233 128.888 78.21C129.094 78.3873 129.252 78.5787 129.364 78.784L129.252 78.812V75.354C129.252 75.1953 129.304 75.06 129.406 74.948C129.518 74.836 129.654 74.78 129.812 74.78C129.971 74.78 130.102 74.836 130.204 74.948C130.316 75.06 130.372 75.1953 130.372 75.354V84.524C130.372 84.692 130.316 84.8367 130.204 84.958C130.102 85.07 129.971 85.126 129.812 85.126C129.654 85.126 129.518 85.07 129.406 84.958C129.304 84.8367 129.252 84.692 129.252 84.524V83.866L129.35 83.88C129.248 84.1133 129.084 84.3327 128.86 84.538C128.646 84.734 128.38 84.8927 128.062 85.014C127.754 85.1447 127.404 85.21 127.012 85.21ZM127.236 84.16C127.899 84.1413 128.408 83.8847 128.762 83.39C129.126 82.8953 129.308 82.2373 129.308 81.416C129.308 80.5573 129.122 79.876 128.748 79.372C128.384 78.868 127.866 78.616 127.194 78.616C126.541 78.616 126.023 78.868 125.64 79.372C125.267 79.8667 125.08 80.5433 125.08 81.402C125.08 82.2607 125.267 82.9373 125.64 83.432C126.023 83.9267 126.555 84.1693 127.236 84.16ZM138.153 85.14C137.836 85.14 137.56 85.07 137.327 84.93C137.103 84.7807 136.93 84.5753 136.809 84.314C136.688 84.0433 136.627 83.7353 136.627 83.39V76.81C136.627 76.6513 136.678 76.5207 136.781 76.418C136.893 76.306 137.028 76.25 137.187 76.25C137.346 76.25 137.476 76.306 137.579 76.418C137.691 76.5207 137.747 76.6513 137.747 76.81V83.376C137.747 83.5533 137.775 83.7073 137.831 83.838C137.887 83.9593 138.004 84.02 138.181 84.02C138.302 84.02 138.391 83.992 138.447 83.936C138.512 83.88 138.578 83.8287 138.643 83.782C138.708 83.726 138.802 83.698 138.923 83.698C139.091 83.698 139.226 83.754 139.329 83.866C139.432 83.9687 139.483 84.0993 139.483 84.258C139.483 84.426 139.418 84.58 139.287 84.72C139.166 84.8507 139.002 84.9533 138.797 85.028C138.601 85.1027 138.386 85.14 138.153 85.14ZM136.179 78.812C136.03 78.812 135.899 78.7653 135.787 78.672C135.684 78.5693 135.633 78.4433 135.633 78.294C135.633 78.154 135.684 78.0373 135.787 77.944C135.899 77.8413 136.03 77.79 136.179 77.79H139.133C139.282 77.79 139.408 77.8413 139.511 77.944C139.623 78.0373 139.679 78.154 139.679 78.294C139.679 78.4433 139.623 78.5693 139.511 78.672C139.408 78.7653 139.282 78.812 139.133 78.812H136.179ZM144.08 85.21C143.427 85.21 142.853 85.0513 142.358 84.734C141.873 84.4073 141.49 83.9547 141.21 83.376C140.939 82.7973 140.804 82.13 140.804 81.374C140.804 80.618 140.939 79.9553 141.21 79.386C141.49 78.8167 141.873 78.3733 142.358 78.056C142.853 77.7387 143.427 77.58 144.08 77.58C144.743 77.58 145.321 77.7387 145.816 78.056C146.32 78.3733 146.712 78.8167 146.992 79.386C147.272 79.9553 147.412 80.618 147.412 81.374C147.412 82.13 147.272 82.7973 146.992 83.376C146.712 83.9547 146.32 84.4073 145.816 84.734C145.321 85.0513 144.743 85.21 144.08 85.21ZM144.08 84.16C144.771 84.16 145.307 83.9127 145.69 83.418C146.073 82.9233 146.264 82.242 146.264 81.374C146.264 80.5247 146.073 79.8527 145.69 79.358C145.307 78.8633 144.771 78.616 144.08 78.616C143.399 78.616 142.871 78.8633 142.498 79.358C142.125 79.8527 141.938 80.5247 141.938 81.374C141.938 82.242 142.125 82.9233 142.498 83.418C142.871 83.9127 143.399 84.16 144.08 84.16ZM153.364 85.14C153.206 85.14 153.07 85.084 152.958 84.972C152.856 84.8507 152.804 84.7107 152.804 84.552V75.354C152.804 75.1953 152.856 75.06 152.958 74.948C153.07 74.836 153.206 74.78 153.364 74.78C153.523 74.78 153.658 74.836 153.77 74.948C153.882 75.06 153.938 75.1953 153.938 75.354V84.552C153.938 84.7107 153.882 84.8507 153.77 84.972C153.658 85.084 153.523 85.14 153.364 85.14ZM157.994 85.21C157.471 85.21 157.019 85.1167 156.636 84.93C156.263 84.734 155.973 84.4727 155.768 84.146C155.572 83.8193 155.474 83.4553 155.474 83.054C155.474 82.4753 155.689 81.9807 156.118 81.57C156.557 81.15 157.257 80.884 158.218 80.772C158.619 80.7253 158.965 80.674 159.254 80.618C159.543 80.562 159.767 80.4687 159.926 80.338C160.094 80.2073 160.178 80.016 160.178 79.764C160.178 79.568 160.127 79.386 160.024 79.218C159.931 79.0407 159.772 78.896 159.548 78.784C159.333 78.672 159.044 78.616 158.68 78.616C158.195 78.616 157.831 78.714 157.588 78.91C157.345 79.0967 157.177 79.2833 157.084 79.47C157.019 79.5913 156.939 79.6847 156.846 79.75C156.753 79.8153 156.641 79.848 156.51 79.848C156.351 79.848 156.23 79.8013 156.146 79.708C156.062 79.6053 156.02 79.4793 156.02 79.33C156.02 79.1527 156.081 78.966 156.202 78.77C156.323 78.5647 156.501 78.3733 156.734 78.196C156.977 78.0093 157.266 77.86 157.602 77.748C157.947 77.636 158.339 77.58 158.778 77.58C159.413 77.58 159.912 77.7013 160.276 77.944C160.649 78.1773 160.915 78.4993 161.074 78.91C161.233 79.3113 161.312 79.7593 161.312 80.254V83.74C161.312 83.8333 161.321 83.9033 161.34 83.95C161.368 83.9967 161.415 84.0247 161.48 84.034C161.611 84.0433 161.723 84.0993 161.816 84.202C161.909 84.2953 161.956 84.4167 161.956 84.566C161.956 84.7247 161.891 84.86 161.76 84.972C161.639 85.084 161.466 85.14 161.242 85.14C160.962 85.14 160.743 85.0607 160.584 84.902C160.435 84.734 160.36 84.5287 160.36 84.286V84.048H160.318C160.085 84.3933 159.777 84.6733 159.394 84.888C159.021 85.1027 158.554 85.21 157.994 85.21ZM158.008 84.174C158.428 84.174 158.801 84.0853 159.128 83.908C159.464 83.7307 159.725 83.4927 159.912 83.194C160.108 82.8953 160.206 82.564 160.206 82.2V81.248C160.206 81.2293 160.197 81.22 160.178 81.22C160.169 81.2107 160.15 81.2247 160.122 81.262C159.982 81.374 159.791 81.4627 159.548 81.528C159.315 81.584 159.077 81.6307 158.834 81.668C158.591 81.7053 158.391 81.738 158.232 81.766C157.747 81.8407 157.35 81.9713 157.042 82.158C156.743 82.3447 156.594 82.6247 156.594 82.998C156.594 83.278 156.701 83.544 156.916 83.796C157.131 84.048 157.495 84.174 158.008 84.174ZM165.782 85.252C165.147 85.252 164.62 85.14 164.2 84.916C163.78 84.6827 163.463 84.412 163.248 84.104C163.033 83.7867 162.917 83.502 162.898 83.25C162.889 83.054 162.931 82.9047 163.024 82.802C163.127 82.69 163.253 82.634 163.402 82.634C163.542 82.634 163.654 82.676 163.738 82.76C163.822 82.8347 163.883 82.9233 163.92 83.026C164.032 83.3433 164.237 83.6233 164.536 83.866C164.835 84.0993 165.255 84.216 165.796 84.216C166.291 84.216 166.669 84.1133 166.93 83.908C167.191 83.6933 167.322 83.418 167.322 83.082C167.322 82.8207 167.243 82.6153 167.084 82.466C166.935 82.3073 166.725 82.1813 166.454 82.088C166.183 81.9947 165.871 81.9013 165.516 81.808C165.255 81.7333 164.984 81.654 164.704 81.57C164.424 81.4767 164.163 81.3553 163.92 81.206C163.677 81.0567 163.481 80.8653 163.332 80.632C163.183 80.3987 163.108 80.1047 163.108 79.75C163.108 79.358 163.211 78.9987 163.416 78.672C163.621 78.336 163.92 78.07 164.312 77.874C164.704 77.6687 165.171 77.566 165.712 77.566C166.263 77.566 166.725 77.6593 167.098 77.846C167.471 78.0327 167.756 78.2613 167.952 78.532C168.157 78.7933 168.265 79.0453 168.274 79.288C168.283 79.4653 168.246 79.6053 168.162 79.708C168.078 79.8107 167.957 79.862 167.798 79.862C167.695 79.862 167.593 79.834 167.49 79.778C167.387 79.722 167.299 79.6333 167.224 79.512C167.159 79.3813 167.07 79.246 166.958 79.106C166.855 78.9567 166.706 78.8353 166.51 78.742C166.314 78.6393 166.043 78.588 165.698 78.588C165.259 78.588 164.9 78.686 164.62 78.882C164.34 79.0687 164.2 79.3253 164.2 79.652C164.2 79.904 164.279 80.1 164.438 80.24C164.606 80.38 164.821 80.492 165.082 80.576C165.353 80.66 165.647 80.7487 165.964 80.842C166.263 80.926 166.557 81.0193 166.846 81.122C167.135 81.2153 167.397 81.3413 167.63 81.5C167.873 81.6493 168.064 81.8407 168.204 82.074C168.353 82.3073 168.428 82.5967 168.428 82.942C168.428 83.2873 168.339 83.642 168.162 84.006C167.994 84.3607 167.714 84.6593 167.322 84.902C166.939 85.1353 166.426 85.252 165.782 85.252ZM171.922 85.14C171.605 85.14 171.33 85.07 171.096 84.93C170.872 84.7807 170.7 84.5753 170.578 84.314C170.457 84.0433 170.396 83.7353 170.396 83.39V76.81C170.396 76.6513 170.448 76.5207 170.55 76.418C170.662 76.306 170.798 76.25 170.956 76.25C171.115 76.25 171.246 76.306 171.348 76.418C171.46 76.5207 171.516 76.6513 171.516 76.81V83.376C171.516 83.5533 171.544 83.7073 171.6 83.838C171.656 83.9593 171.773 84.02 171.95 84.02C172.072 84.02 172.16 83.992 172.216 83.936C172.282 83.88 172.347 83.8287 172.412 83.782C172.478 83.726 172.571 83.698 172.692 83.698C172.86 83.698 172.996 83.754 173.098 83.866C173.201 83.9687 173.252 84.0993 173.252 84.258C173.252 84.426 173.187 84.58 173.056 84.72C172.935 84.8507 172.772 84.9533 172.566 85.028C172.37 85.1027 172.156 85.14 171.922 85.14ZM169.948 78.812C169.799 78.812 169.668 78.7653 169.556 78.672C169.454 78.5693 169.402 78.4433 169.402 78.294C169.402 78.154 169.454 78.0373 169.556 77.944C169.668 77.8413 169.799 77.79 169.948 77.79H172.902C173.052 77.79 173.178 77.8413 173.28 77.944C173.392 78.0373 173.448 78.154 173.448 78.294C173.448 78.4433 173.392 78.5693 173.28 78.672C173.178 78.7653 173.052 78.812 172.902 78.812H169.948ZM179.409 85.14C179.25 85.14 179.115 85.084 179.003 84.972C178.9 84.86 178.849 84.72 178.849 84.552V78.224C178.849 78.056 178.9 77.9207 179.003 77.818C179.115 77.706 179.25 77.65 179.409 77.65C179.577 77.65 179.712 77.706 179.815 77.818C179.927 77.9207 179.983 78.056 179.983 78.224V79.078L179.745 78.882C179.941 78.574 180.16 78.3267 180.403 78.14C180.655 77.944 180.926 77.804 181.215 77.72C181.504 77.6267 181.798 77.58 182.097 77.58C182.638 77.58 183.114 77.7107 183.525 77.972C183.945 78.2333 184.253 78.6113 184.449 79.106L184.043 79.162C184.286 78.7513 184.552 78.434 184.841 78.21C185.13 77.9767 185.424 77.8133 185.723 77.72C186.031 77.6267 186.334 77.58 186.633 77.58C187.128 77.58 187.571 77.6873 187.963 77.902C188.355 78.1073 188.663 78.4107 188.887 78.812C189.111 79.204 189.223 79.68 189.223 80.24V84.552C189.223 84.72 189.172 84.86 189.069 84.972C188.966 85.084 188.836 85.14 188.677 85.14C188.509 85.14 188.369 85.084 188.257 84.972C188.154 84.86 188.103 84.72 188.103 84.552V80.282C188.103 79.7593 187.949 79.3533 187.641 79.064C187.342 78.7747 186.946 78.63 186.451 78.63C186.134 78.63 185.84 78.6953 185.569 78.826C185.298 78.9473 185.084 79.1293 184.925 79.372C184.766 79.6053 184.687 79.8947 184.687 80.24V84.552C184.687 84.72 184.631 84.86 184.519 84.972C184.416 85.084 184.286 85.14 184.127 85.14C183.959 85.14 183.819 85.084 183.707 84.972C183.604 84.86 183.553 84.72 183.553 84.552V80.282C183.553 79.7593 183.404 79.3533 183.105 79.064C182.806 78.7653 182.41 78.616 181.915 78.616C181.579 78.616 181.262 78.686 180.963 78.826C180.674 78.9567 180.436 79.148 180.249 79.4C180.072 79.6427 179.983 79.932 179.983 80.268V84.552C179.983 84.72 179.927 84.86 179.815 84.972C179.712 85.084 179.577 85.14 179.409 85.14ZM193.969 85.21C193.315 85.21 192.741 85.0513 192.247 84.734C191.761 84.4073 191.379 83.9547 191.099 83.376C190.828 82.7973 190.693 82.13 190.693 81.374C190.693 80.618 190.828 79.9553 191.099 79.386C191.379 78.8167 191.761 78.3733 192.247 78.056C192.741 77.7387 193.315 77.58 193.969 77.58C194.631 77.58 195.21 77.7387 195.705 78.056C196.209 78.3733 196.601 78.8167 196.881 79.386C197.161 79.9553 197.301 80.618 197.301 81.374C197.301 82.13 197.161 82.7973 196.881 83.376C196.601 83.9547 196.209 84.4073 195.705 84.734C195.21 85.0513 194.631 85.21 193.969 85.21ZM193.969 84.16C194.659 84.16 195.196 83.9127 195.579 83.418C195.961 82.9233 196.153 82.242 196.153 81.374C196.153 80.5247 195.961 79.8527 195.579 79.358C195.196 78.8633 194.659 78.616 193.969 78.616C193.287 78.616 192.76 78.8633 192.387 79.358C192.013 79.8527 191.827 80.5247 191.827 81.374C191.827 82.242 192.013 82.9233 192.387 83.418C192.76 83.9127 193.287 84.16 193.969 84.16ZM199.397 85.14C199.239 85.14 199.103 85.084 198.991 84.972C198.889 84.86 198.837 84.72 198.837 84.552V78.224C198.837 78.056 198.889 77.9207 198.991 77.818C199.103 77.706 199.239 77.65 199.397 77.65C199.565 77.65 199.701 77.706 199.803 77.818C199.915 77.9207 199.971 78.056 199.971 78.224V79.162L199.733 78.91C200.032 78.4527 200.387 78.1167 200.797 77.902C201.217 77.6873 201.665 77.58 202.141 77.58C202.645 77.58 203.098 77.6873 203.499 77.902C203.901 78.1073 204.213 78.4107 204.437 78.812C204.671 79.204 204.787 79.6893 204.787 80.268V84.552C204.787 84.72 204.736 84.86 204.633 84.972C204.531 85.084 204.395 85.14 204.227 85.14C204.05 85.14 203.91 85.084 203.807 84.972C203.705 84.86 203.653 84.72 203.653 84.552V80.31C203.653 79.778 203.495 79.3627 203.177 79.064C202.869 78.7653 202.459 78.616 201.945 78.616C201.6 78.616 201.278 78.686 200.979 78.826C200.681 78.966 200.438 79.1667 200.251 79.428C200.065 79.68 199.971 79.9833 199.971 80.338V84.552C199.971 84.72 199.915 84.86 199.803 84.972C199.701 85.084 199.565 85.14 199.397 85.14ZM208.631 85.14C208.314 85.14 208.039 85.07 207.805 84.93C207.581 84.7807 207.409 84.5753 207.287 84.314C207.166 84.0433 207.105 83.7353 207.105 83.39V76.81C207.105 76.6513 207.157 76.5207 207.259 76.418C207.371 76.306 207.507 76.25 207.665 76.25C207.824 76.25 207.955 76.306 208.057 76.418C208.169 76.5207 208.225 76.6513 208.225 76.81V83.376C208.225 83.5533 208.253 83.7073 208.309 83.838C208.365 83.9593 208.482 84.02 208.659 84.02C208.781 84.02 208.869 83.992 208.925 83.936C208.991 83.88 209.056 83.8287 209.121 83.782C209.187 83.726 209.28 83.698 209.401 83.698C209.569 83.698 209.705 83.754 209.807 83.866C209.91 83.9687 209.961 84.0993 209.961 84.258C209.961 84.426 209.896 84.58 209.765 84.72C209.644 84.8507 209.481 84.9533 209.275 85.028C209.079 85.1027 208.865 85.14 208.631 85.14ZM206.657 78.812C206.508 78.812 206.377 78.7653 206.265 78.672C206.163 78.5693 206.111 78.4433 206.111 78.294C206.111 78.154 206.163 78.0373 206.265 77.944C206.377 77.8413 206.508 77.79 206.657 77.79H209.611C209.761 77.79 209.887 77.8413 209.989 77.944C210.101 78.0373 210.157 78.154 210.157 78.294C210.157 78.4433 210.101 78.5693 209.989 78.672C209.887 78.7653 209.761 78.812 209.611 78.812H206.657ZM212.263 85.14C212.104 85.14 211.969 85.084 211.857 84.972C211.754 84.86 211.703 84.72 211.703 84.552V75.354C211.703 75.186 211.754 75.0507 211.857 74.948C211.969 74.836 212.104 74.78 212.263 74.78C212.431 74.78 212.566 74.836 212.669 74.948C212.781 75.0507 212.837 75.186 212.837 75.354V79.162L212.599 78.91C212.897 78.4527 213.247 78.1167 213.649 77.902C214.059 77.6873 214.503 77.58 214.979 77.58C215.473 77.58 215.917 77.6873 216.309 77.902C216.71 78.1073 217.023 78.4107 217.247 78.812C217.48 79.204 217.597 79.6893 217.597 80.268V84.552C217.597 84.72 217.545 84.86 217.443 84.972C217.34 85.084 217.205 85.14 217.037 85.14C216.878 85.14 216.743 85.084 216.631 84.972C216.528 84.86 216.477 84.72 216.477 84.552V80.31C216.477 79.778 216.323 79.3627 216.015 79.064C215.707 78.7653 215.305 78.616 214.811 78.616C214.465 78.616 214.139 78.686 213.831 78.826C213.532 78.966 213.289 79.1667 213.103 79.428C212.925 79.68 212.837 79.9833 212.837 80.338V84.552C212.837 84.72 212.781 84.86 212.669 84.972C212.566 85.084 212.431 85.14 212.263 85.14Z" fill="#2E2C28"/>
</g>
<defs>
<filter id="filter0_d_5990_16500" x="0" y="0" width="238" height="113" filterUnits="userSpaceOnUse" color-interpolation-filters="sRGB">
<feFlood flood-opacity="0" result="BackgroundImageFix"/>
<feColorMatrix in="SourceAlpha" type="matrix" values="0 0 0 0 0 0 0 0 0 0 0 0 0 0 0 0 0 0 127 0" result="hardAlpha"/>
<feOffset dy="4"/>
<feGaussianBlur stdDeviation="2"/>
<feComposite in2="hardAlpha" operator="out"/>
<feColorMatrix type="matrix" values="0 0 0 0 0 0 0 0 0 0 0 0 0 0 0 0 0 0 0.15 0"/>
<feBlend mode="normal" in2="BackgroundImageFix" result="effect1_dropShadow_5990_16500"/>
<feBlend mode="normal" in="SourceGraphic" in2="effect1_dropShadow_5990_16500" result="shape"/>
</filter>
</defs>
</svg>
