<svg width="191" height="113" viewBox="0 0 191 113" fill="none" xmlns="http://www.w3.org/2000/svg">
<g filter="url(#filter0_d_5990_16514)">
<rect x="4" width="183" height="105" rx="16" fill="#FFF4D9" shape-rendering="crispEdges"/>
<rect x="4.5" y="0.5" width="182" height="104" rx="15.5" stroke="#FCE3D5" shape-rendering="crispEdges"/>
<path d="M19.756 21.278C19.6067 21.278 19.476 21.2267 19.364 21.124C19.2613 21.0213 19.21 20.8907 19.21 20.732C19.21 20.5733 19.2613 20.4473 19.364 20.354C19.476 20.2513 19.6067 20.2 19.756 20.2H25.762C25.9207 20.2 26.0513 20.2513 26.154 20.354C26.2567 20.4473 26.308 20.5733 26.308 20.732C26.308 20.8907 26.2567 21.0213 26.154 21.124C26.0513 21.2267 25.9207 21.278 25.762 21.278H19.756ZM22.752 30.14C22.5933 30.14 22.458 30.084 22.346 29.972C22.2433 29.86 22.192 29.7247 22.192 29.566V20.802H23.34V29.566C23.34 29.7247 23.284 29.86 23.172 29.972C23.0693 30.084 22.9293 30.14 22.752 30.14ZM29.084 30.21C28.4307 30.21 27.8567 30.0513 27.362 29.734C26.8767 29.4073 26.494 28.9547 26.214 28.376C25.9434 27.7973 25.808 27.13 25.808 26.374C25.808 25.618 25.9434 24.9553 26.214 24.386C26.494 23.8167 26.8767 23.3733 27.362 23.056C27.8567 22.7387 28.4307 22.58 29.084 22.58C29.7467 22.58 30.3254 22.7387 30.82 23.056C31.324 23.3733 31.716 23.8167 31.996 24.386C32.276 24.9553 32.416 25.618 32.416 26.374C32.416 27.13 32.276 27.7973 31.996 28.376C31.716 28.9547 31.324 29.4073 30.82 29.734C30.3254 30.0513 29.7467 30.21 29.084 30.21ZM29.084 29.16C29.7747 29.16 30.3114 28.9127 30.694 28.418C31.0767 27.9233 31.268 27.242 31.268 26.374C31.268 25.5247 31.0767 24.8527 30.694 24.358C30.3114 23.8633 29.7747 23.616 29.084 23.616C28.4027 23.616 27.8754 23.8633 27.502 24.358C27.1287 24.8527 26.942 25.5247 26.942 26.374C26.942 27.242 27.1287 27.9233 27.502 28.418C27.8754 28.9127 28.4027 29.16 29.084 29.16ZM35.9127 30.14C35.5953 30.14 35.32 30.07 35.0867 29.93C34.8627 29.7807 34.69 29.5753 34.5687 29.314C34.4473 29.0433 34.3867 28.7353 34.3867 28.39V21.81C34.3867 21.6513 34.438 21.5207 34.5407 21.418C34.6527 21.306 34.788 21.25 34.9467 21.25C35.1053 21.25 35.236 21.306 35.3387 21.418C35.4507 21.5207 35.5067 21.6513 35.5067 21.81V28.376C35.5067 28.5533 35.5347 28.7073 35.5907 28.838C35.6467 28.9593 35.7633 29.02 35.9407 29.02C36.062 29.02 36.1507 28.992 36.2067 28.936C36.272 28.88 36.3373 28.8287 36.4027 28.782C36.468 28.726 36.5613 28.698 36.6827 28.698C36.8507 28.698 36.986 28.754 37.0887 28.866C37.1913 28.9687 37.2427 29.0993 37.2427 29.258C37.2427 29.426 37.1773 29.58 37.0467 29.72C36.9253 29.8507 36.762 29.9533 36.5567 30.028C36.3607 30.1027 36.146 30.14 35.9127 30.14ZM33.9387 23.812C33.7893 23.812 33.6587 23.7653 33.5467 23.672C33.444 23.5693 33.3927 23.4433 33.3927 23.294C33.3927 23.154 33.444 23.0373 33.5467 22.944C33.6587 22.8413 33.7893 22.79 33.9387 22.79H36.8927C37.042 22.79 37.168 22.8413 37.2707 22.944C37.3827 23.0373 37.4387 23.154 37.4387 23.294C37.4387 23.4433 37.3827 23.5693 37.2707 23.672C37.168 23.7653 37.042 23.812 36.8927 23.812H33.9387ZM41.0839 30.21C40.5612 30.21 40.1086 30.1167 39.7259 29.93C39.3526 29.734 39.0632 29.4727 38.8579 29.146C38.6619 28.8193 38.5639 28.4553 38.5639 28.054C38.5639 27.4753 38.7786 26.9807 39.2079 26.57C39.6466 26.15 40.3466 25.884 41.3079 25.772C41.7092 25.7253 42.0546 25.674 42.3439 25.618C42.6332 25.562 42.8572 25.4687 43.0159 25.338C43.1839 25.2073 43.2679 25.016 43.2679 24.764C43.2679 24.568 43.2166 24.386 43.1139 24.218C43.0206 24.0407 42.8619 23.896 42.6379 23.784C42.4232 23.672 42.1339 23.616 41.7699 23.616C41.2846 23.616 40.9206 23.714 40.6779 23.91C40.4352 24.0967 40.2672 24.2833 40.1739 24.47C40.1086 24.5913 40.0292 24.6847 39.9359 24.75C39.8426 24.8153 39.7306 24.848 39.5999 24.848C39.4412 24.848 39.3199 24.8013 39.2359 24.708C39.1519 24.6053 39.1099 24.4793 39.1099 24.33C39.1099 24.1527 39.1706 23.966 39.2919 23.77C39.4132 23.5647 39.5906 23.3733 39.8239 23.196C40.0666 23.0093 40.3559 22.86 40.6919 22.748C41.0372 22.636 41.4292 22.58 41.8679 22.58C42.5026 22.58 43.0019 22.7013 43.3659 22.944C43.7392 23.1773 44.0052 23.4993 44.1639 23.91C44.3226 24.3113 44.4019 24.7593 44.4019 25.254V28.74C44.4019 28.8333 44.4112 28.9033 44.4299 28.95C44.4579 28.9967 44.5046 29.0247 44.5699 29.034C44.7006 29.0433 44.8126 29.0993 44.9059 29.202C44.9992 29.2953 45.0459 29.4167 45.0459 29.566C45.0459 29.7247 44.9806 29.86 44.8499 29.972C44.7286 30.084 44.5559 30.14 44.3319 30.14C44.0519 30.14 43.8326 30.0607 43.6739 29.902C43.5246 29.734 43.4499 29.5287 43.4499 29.286V29.048H43.4079C43.1746 29.3933 42.8666 29.6733 42.4839 29.888C42.1106 30.1027 41.6439 30.21 41.0839 30.21ZM41.0979 29.174C41.5179 29.174 41.8912 29.0853 42.2179 28.908C42.5539 28.7307 42.8152 28.4927 43.0019 28.194C43.1979 27.8953 43.2959 27.564 43.2959 27.2V26.248C43.2959 26.2293 43.2866 26.22 43.2679 26.22C43.2586 26.2107 43.2399 26.2247 43.2119 26.262C43.0719 26.374 42.8806 26.4627 42.6379 26.528C42.4046 26.584 42.1666 26.6307 41.9239 26.668C41.6812 26.7053 41.4806 26.738 41.3219 26.766C40.8366 26.8407 40.4399 26.9713 40.1319 27.158C39.8332 27.3447 39.6839 27.6247 39.6839 27.998C39.6839 28.278 39.7912 28.544 40.0059 28.796C40.2206 29.048 40.5846 29.174 41.0979 29.174ZM46.9677 30.14C46.8091 30.14 46.6737 30.084 46.5617 29.972C46.4591 29.8507 46.4077 29.7107 46.4077 29.552V20.354C46.4077 20.1953 46.4591 20.06 46.5617 19.948C46.6737 19.836 46.8091 19.78 46.9677 19.78C47.1264 19.78 47.2617 19.836 47.3737 19.948C47.4857 20.06 47.5417 20.1953 47.5417 20.354V29.552C47.5417 29.7107 47.4857 29.8507 47.3737 29.972C47.2617 30.084 47.1264 30.14 46.9677 30.14ZM56.503 30.224C55.7377 30.224 55.0937 30.0887 54.571 29.818C54.0484 29.5473 53.6564 29.2207 53.395 28.838C53.1337 28.446 53.003 28.0633 53.003 27.69C53.003 27.5127 53.0497 27.368 53.143 27.256C53.2364 27.1347 53.3717 27.074 53.549 27.074C53.745 27.074 53.885 27.1393 53.969 27.27C54.0624 27.3913 54.1324 27.5407 54.179 27.718C54.291 28.0913 54.5244 28.4273 54.879 28.726C55.243 29.0153 55.7657 29.16 56.447 29.16C56.839 29.16 57.203 29.104 57.539 28.992C57.875 28.8707 58.1457 28.6793 58.351 28.418C58.5564 28.1567 58.659 27.8113 58.659 27.382C58.659 27.074 58.5937 26.822 58.463 26.626C58.3324 26.43 58.1037 26.2433 57.777 26.066C57.4504 25.8887 56.9977 25.6833 56.419 25.45C56.0644 25.31 55.7097 25.17 55.355 25.03C55.0097 24.8807 54.6924 24.708 54.403 24.512C54.123 24.316 53.8944 24.064 53.717 23.756C53.549 23.448 53.465 23.0607 53.465 22.594C53.465 22.0153 53.5957 21.5347 53.857 21.152C54.1277 20.7693 54.4824 20.48 54.921 20.284C55.3597 20.088 55.845 19.99 56.377 19.99C56.825 19.99 57.231 20.0553 57.595 20.186C57.9684 20.3167 58.2904 20.494 58.561 20.718C58.841 20.9327 59.0604 21.1753 59.219 21.446C59.3777 21.7073 59.471 21.9733 59.499 22.244C59.5177 22.4213 59.4757 22.5707 59.373 22.692C59.2797 22.804 59.1397 22.86 58.953 22.86C58.757 22.86 58.631 22.804 58.575 22.692C58.519 22.58 58.4584 22.44 58.393 22.272C58.225 21.8613 57.9777 21.5533 57.651 21.348C57.3337 21.1427 56.937 21.04 56.461 21.04C56.097 21.04 55.775 21.1007 55.495 21.222C55.215 21.3433 54.9957 21.516 54.837 21.74C54.6877 21.9547 54.613 22.2207 54.613 22.538C54.613 22.9113 54.7204 23.2053 54.935 23.42C55.1497 23.6347 55.4297 23.812 55.775 23.952C56.1297 24.092 56.503 24.2413 56.895 24.4C57.4457 24.624 57.9077 24.8387 58.281 25.044C58.6544 25.2493 58.953 25.464 59.177 25.688C59.401 25.912 59.5597 26.1547 59.653 26.416C59.7557 26.6773 59.807 26.976 59.807 27.312C59.8164 27.8813 59.695 28.3853 59.443 28.824C59.191 29.2627 58.8177 29.608 58.323 29.86C57.8284 30.1027 57.2217 30.224 56.503 30.224ZM63.5195 30.21C62.9968 30.21 62.5441 30.1167 62.1615 29.93C61.7881 29.734 61.4988 29.4727 61.2935 29.146C61.0975 28.8193 60.9995 28.4553 60.9995 28.054C60.9995 27.4753 61.2141 26.9807 61.6435 26.57C62.0821 26.15 62.7821 25.884 63.7435 25.772C64.1448 25.7253 64.4901 25.674 64.7795 25.618C65.0688 25.562 65.2928 25.4687 65.4515 25.338C65.6195 25.2073 65.7035 25.016 65.7035 24.764C65.7035 24.568 65.6521 24.386 65.5495 24.218C65.4561 24.0407 65.2975 23.896 65.0735 23.784C64.8588 23.672 64.5695 23.616 64.2055 23.616C63.7201 23.616 63.3561 23.714 63.1135 23.91C62.8708 24.0967 62.7028 24.2833 62.6095 24.47C62.5441 24.5913 62.4648 24.6847 62.3715 24.75C62.2781 24.8153 62.1661 24.848 62.0355 24.848C61.8768 24.848 61.7555 24.8013 61.6715 24.708C61.5875 24.6053 61.5455 24.4793 61.5455 24.33C61.5455 24.1527 61.6061 23.966 61.7275 23.77C61.8488 23.5647 62.0261 23.3733 62.2595 23.196C62.5021 23.0093 62.7915 22.86 63.1275 22.748C63.4728 22.636 63.8648 22.58 64.3035 22.58C64.9381 22.58 65.4375 22.7013 65.8015 22.944C66.1748 23.1773 66.4408 23.4993 66.5995 23.91C66.7581 24.3113 66.8375 24.7593 66.8375 25.254V28.74C66.8375 28.8333 66.8468 28.9033 66.8655 28.95C66.8935 28.9967 66.9401 29.0247 67.0055 29.034C67.1361 29.0433 67.2481 29.0993 67.3415 29.202C67.4348 29.2953 67.4815 29.4167 67.4815 29.566C67.4815 29.7247 67.4161 29.86 67.2855 29.972C67.1641 30.084 66.9915 30.14 66.7675 30.14C66.4875 30.14 66.2681 30.0607 66.1095 29.902C65.9601 29.734 65.8855 29.5287 65.8855 29.286V29.048H65.8435C65.6101 29.3933 65.3021 29.6733 64.9195 29.888C64.5461 30.1027 64.0795 30.21 63.5195 30.21ZM63.5335 29.174C63.9535 29.174 64.3268 29.0853 64.6535 28.908C64.9895 28.7307 65.2508 28.4927 65.4375 28.194C65.6335 27.8953 65.7315 27.564 65.7315 27.2V26.248C65.7315 26.2293 65.7221 26.22 65.7035 26.22C65.6941 26.2107 65.6755 26.2247 65.6475 26.262C65.5075 26.374 65.3161 26.4627 65.0735 26.528C64.8401 26.584 64.6021 26.6307 64.3595 26.668C64.1168 26.7053 63.9161 26.738 63.7575 26.766C63.2721 26.8407 62.8755 26.9713 62.5675 27.158C62.2688 27.3447 62.1195 27.6247 62.1195 27.998C62.1195 28.278 62.2268 28.544 62.4415 28.796C62.6561 29.048 63.0201 29.174 63.5335 29.174ZM69.4033 30.14C69.2446 30.14 69.1093 30.084 68.9973 29.972C68.8946 29.8507 68.8433 29.7107 68.8433 29.552V20.354C68.8433 20.1953 68.8946 20.06 68.9973 19.948C69.1093 19.836 69.2446 19.78 69.4033 19.78C69.5619 19.78 69.6973 19.836 69.8093 19.948C69.9213 20.06 69.9773 20.1953 69.9773 20.354V29.552C69.9773 29.7107 69.9213 29.8507 69.8093 29.972C69.6973 30.084 69.5619 30.14 69.4033 30.14ZM74.8731 30.21C74.2571 30.21 73.6925 30.07 73.1791 29.79C72.6751 29.51 72.2691 29.09 71.9611 28.53C71.6625 27.97 71.5131 27.2793 71.5131 26.458C71.5131 25.674 71.6531 24.9927 71.9331 24.414C72.2131 23.8353 72.5911 23.3873 73.0671 23.07C73.5525 22.7433 74.1031 22.58 74.7191 22.58C75.1951 22.58 75.6245 22.6733 76.0071 22.86C76.3898 23.0373 76.7118 23.2847 76.9731 23.602C77.2438 23.91 77.4491 24.26 77.5891 24.652C77.7385 25.0347 77.8131 25.436 77.8131 25.856C77.8131 26.1267 77.7618 26.346 77.6591 26.514C77.5565 26.6727 77.3465 26.752 77.0291 26.752H72.6611C72.6985 27.3213 72.8198 27.7833 73.0251 28.138C73.2305 28.4927 73.4871 28.754 73.7951 28.922C74.1125 29.0807 74.4578 29.16 74.8311 29.16C75.3351 29.16 75.7365 29.0433 76.0351 28.81C76.3338 28.5767 76.5391 28.3013 76.6511 27.984C76.6978 27.872 76.7585 27.7787 76.8331 27.704C76.9171 27.62 77.0291 27.578 77.1691 27.578C77.3278 27.578 77.4538 27.6387 77.5471 27.76C77.6405 27.872 77.6825 28.0213 77.6731 28.208C77.6638 28.3947 77.5985 28.6047 77.4771 28.838C77.3558 29.062 77.1785 29.2813 76.9451 29.496C76.7211 29.7013 76.4365 29.8693 76.0911 30C75.7458 30.14 75.3398 30.21 74.8731 30.21ZM72.6751 25.786H76.7351C76.6698 25.1513 76.4645 24.6333 76.1191 24.232C75.7738 23.8213 75.3025 23.616 74.7051 23.616C74.1731 23.616 73.7205 23.798 73.3471 24.162C72.9831 24.526 72.7591 25.0673 72.6751 25.786ZM81.821 30.252C81.1863 30.252 80.659 30.14 80.239 29.916C79.819 29.6827 79.5016 29.412 79.287 29.104C79.0723 28.7867 78.9556 28.502 78.937 28.25C78.9276 28.054 78.9696 27.9047 79.063 27.802C79.1656 27.69 79.2916 27.634 79.441 27.634C79.581 27.634 79.693 27.676 79.777 27.76C79.861 27.8347 79.9216 27.9233 79.959 28.026C80.071 28.3433 80.2763 28.6233 80.575 28.866C80.8736 29.0993 81.2936 29.216 81.835 29.216C82.3296 29.216 82.7076 29.1133 82.969 28.908C83.2303 28.6933 83.361 28.418 83.361 28.082C83.361 27.8207 83.2816 27.6153 83.123 27.466C82.9736 27.3073 82.7636 27.1813 82.493 27.088C82.2223 26.9947 81.9096 26.9013 81.555 26.808C81.2936 26.7333 81.023 26.654 80.743 26.57C80.463 26.4767 80.2016 26.3553 79.959 26.206C79.7163 26.0567 79.5203 25.8653 79.371 25.632C79.2216 25.3987 79.147 25.1047 79.147 24.75C79.147 24.358 79.2496 23.9987 79.455 23.672C79.6603 23.336 79.959 23.07 80.351 22.874C80.743 22.6687 81.2096 22.566 81.751 22.566C82.3016 22.566 82.7636 22.6593 83.137 22.846C83.5103 23.0327 83.795 23.2613 83.991 23.532C84.1963 23.7933 84.3036 24.0453 84.313 24.288C84.3223 24.4653 84.285 24.6053 84.201 24.708C84.117 24.8107 83.9956 24.862 83.837 24.862C83.7343 24.862 83.6316 24.834 83.529 24.778C83.4263 24.722 83.3376 24.6333 83.263 24.512C83.1976 24.3813 83.109 24.246 82.997 24.106C82.8943 23.9567 82.745 23.8353 82.549 23.742C82.353 23.6393 82.0823 23.588 81.737 23.588C81.2983 23.588 80.939 23.686 80.659 23.882C80.379 24.0687 80.239 24.3253 80.239 24.652C80.239 24.904 80.3183 25.1 80.477 25.24C80.645 25.38 80.8596 25.492 81.121 25.576C81.3916 25.66 81.6856 25.7487 82.003 25.842C82.3016 25.926 82.5956 26.0193 82.885 26.122C83.1743 26.2153 83.4356 26.3413 83.669 26.5C83.9116 26.6493 84.103 26.8407 84.243 27.074C84.3923 27.3073 84.467 27.5967 84.467 27.942C84.467 28.2873 84.3783 28.642 84.201 29.006C84.033 29.3607 83.753 29.6593 83.361 29.902C82.9783 30.1353 82.465 30.252 81.821 30.252ZM89.633 21.278C89.4836 21.278 89.353 21.2267 89.241 21.124C89.1383 21.0213 89.087 20.8907 89.087 20.732C89.087 20.5733 89.1383 20.4473 89.241 20.354C89.353 20.2513 89.4836 20.2 89.633 20.2H95.639C95.7976 20.2 95.9283 20.2513 96.031 20.354C96.1336 20.4473 96.185 20.5733 96.185 20.732C96.185 20.8907 96.1336 21.0213 96.031 21.124C95.9283 21.2267 95.7976 21.278 95.639 21.278H89.633ZM92.629 30.14C92.4703 30.14 92.335 30.084 92.223 29.972C92.1203 29.86 92.069 29.7247 92.069 29.566V20.802H93.217V29.566C93.217 29.7247 93.161 29.86 93.049 29.972C92.9463 30.084 92.8063 30.14 92.629 30.14ZM97.9228 30.14C97.7641 30.14 97.6288 30.084 97.5168 29.972C97.4141 29.86 97.3628 29.72 97.3628 29.552V20.354C97.3628 20.186 97.4141 20.0507 97.5168 19.948C97.6288 19.836 97.7641 19.78 97.9228 19.78C98.0908 19.78 98.2261 19.836 98.3288 19.948C98.4408 20.0507 98.4968 20.186 98.4968 20.354V24.162L98.2588 23.91C98.5575 23.4527 98.9075 23.1167 99.3088 22.902C99.7195 22.6873 100.163 22.58 100.639 22.58C101.133 22.58 101.577 22.6873 101.969 22.902C102.37 23.1073 102.683 23.4107 102.907 23.812C103.14 24.204 103.257 24.6893 103.257 25.268V29.552C103.257 29.72 103.205 29.86 103.103 29.972C103 30.084 102.865 30.14 102.697 30.14C102.538 30.14 102.403 30.084 102.291 29.972C102.188 29.86 102.137 29.72 102.137 29.552V25.31C102.137 24.778 101.983 24.3627 101.675 24.064C101.367 23.7653 100.965 23.616 100.471 23.616C100.125 23.616 99.7988 23.686 99.4908 23.826C99.1921 23.966 98.9495 24.1667 98.7628 24.428C98.5855 24.68 98.4968 24.9833 98.4968 25.338V29.552C98.4968 29.72 98.4408 29.86 98.3288 29.972C98.2261 30.084 98.0908 30.14 97.9228 30.14ZM105.716 30.14C105.548 30.14 105.408 30.0887 105.296 29.986C105.193 29.874 105.142 29.7387 105.142 29.58V23.21C105.142 23.0513 105.193 22.9207 105.296 22.818C105.408 22.706 105.548 22.65 105.716 22.65C105.875 22.65 106.005 22.706 106.108 22.818C106.22 22.9207 106.276 23.0513 106.276 23.21V29.58C106.276 29.7387 106.22 29.874 106.108 29.986C106.005 30.0887 105.875 30.14 105.716 30.14ZM105.702 21.796C105.497 21.796 105.329 21.7307 105.198 21.6C105.067 21.46 105.002 21.2593 105.002 20.998C105.002 20.7553 105.067 20.564 105.198 20.424C105.329 20.284 105.497 20.214 105.702 20.214C105.917 20.214 106.089 20.284 106.22 20.424C106.351 20.564 106.416 20.7553 106.416 20.998C106.416 21.2593 106.351 21.46 106.22 21.6C106.089 21.7307 105.917 21.796 105.702 21.796ZM110.696 30.252C110.061 30.252 109.534 30.14 109.114 29.916C108.694 29.6827 108.377 29.412 108.162 29.104C107.947 28.7867 107.831 28.502 107.812 28.25C107.803 28.054 107.845 27.9047 107.938 27.802C108.041 27.69 108.167 27.634 108.316 27.634C108.456 27.634 108.568 27.676 108.652 27.76C108.736 27.8347 108.797 27.9233 108.834 28.026C108.946 28.3433 109.151 28.6233 109.45 28.866C109.749 29.0993 110.169 29.216 110.71 29.216C111.205 29.216 111.583 29.1133 111.844 28.908C112.105 28.6933 112.236 28.418 112.236 28.082C112.236 27.8207 112.157 27.6153 111.998 27.466C111.849 27.3073 111.639 27.1813 111.368 27.088C111.097 26.9947 110.785 26.9013 110.43 26.808C110.169 26.7333 109.898 26.654 109.618 26.57C109.338 26.4767 109.077 26.3553 108.834 26.206C108.591 26.0567 108.395 25.8653 108.246 25.632C108.097 25.3987 108.022 25.1047 108.022 24.75C108.022 24.358 108.125 23.9987 108.33 23.672C108.535 23.336 108.834 23.07 109.226 22.874C109.618 22.6687 110.085 22.566 110.626 22.566C111.177 22.566 111.639 22.6593 112.012 22.846C112.385 23.0327 112.67 23.2613 112.866 23.532C113.071 23.7933 113.179 24.0453 113.188 24.288C113.197 24.4653 113.16 24.6053 113.076 24.708C112.992 24.8107 112.871 24.862 112.712 24.862C112.609 24.862 112.507 24.834 112.404 24.778C112.301 24.722 112.213 24.6333 112.138 24.512C112.073 24.3813 111.984 24.246 111.872 24.106C111.769 23.9567 111.62 23.8353 111.424 23.742C111.228 23.6393 110.957 23.588 110.612 23.588C110.173 23.588 109.814 23.686 109.534 23.882C109.254 24.0687 109.114 24.3253 109.114 24.652C109.114 24.904 109.193 25.1 109.352 25.24C109.52 25.38 109.735 25.492 109.996 25.576C110.267 25.66 110.561 25.7487 110.878 25.842C111.177 25.926 111.471 26.0193 111.76 26.122C112.049 26.2153 112.311 26.3413 112.544 26.5C112.787 26.6493 112.978 26.8407 113.118 27.074C113.267 27.3073 113.342 27.5967 113.342 27.942C113.342 28.2873 113.253 28.642 113.076 29.006C112.908 29.3607 112.628 29.6593 112.236 29.902C111.853 30.1353 111.34 30.252 110.696 30.252ZM119.446 30.14C119.287 30.14 119.152 30.084 119.04 29.972C118.928 29.86 118.872 29.7247 118.872 29.566L118.886 20.676C118.886 20.4987 118.942 20.354 119.054 20.242C119.175 20.1207 119.325 20.06 119.502 20.06C119.642 20.06 119.759 20.0927 119.852 20.158C119.955 20.2233 120.029 20.312 120.076 20.424L123.576 28.39L126.936 20.424C126.983 20.312 127.053 20.2233 127.146 20.158C127.249 20.0927 127.375 20.06 127.524 20.06C127.701 20.06 127.846 20.1207 127.958 20.242C128.07 20.3633 128.126 20.5033 128.126 20.662L128.154 29.566C128.154 29.7247 128.098 29.86 127.986 29.972C127.883 30.084 127.748 30.14 127.58 30.14C127.412 30.14 127.272 30.084 127.16 29.972C127.057 29.86 127.006 29.7247 127.006 29.566L127.062 22.86L124.234 29.538C124.141 29.762 124.038 29.916 123.926 30C123.823 30.0933 123.707 30.14 123.576 30.14C123.436 30.14 123.315 30.0933 123.212 30C123.109 29.916 123.007 29.762 122.904 29.538L119.964 22.818L120.034 29.566C120.034 29.7247 119.978 29.86 119.866 29.972C119.763 30.084 119.623 30.14 119.446 30.14ZM133.113 30.21C132.46 30.21 131.886 30.0513 131.391 29.734C130.906 29.4073 130.523 28.9547 130.243 28.376C129.973 27.7973 129.837 27.13 129.837 26.374C129.837 25.618 129.973 24.9553 130.243 24.386C130.523 23.8167 130.906 23.3733 131.391 23.056C131.886 22.7387 132.46 22.58 133.113 22.58C133.776 22.58 134.355 22.7387 134.849 23.056C135.353 23.3733 135.745 23.8167 136.025 24.386C136.305 24.9553 136.445 25.618 136.445 26.374C136.445 27.13 136.305 27.7973 136.025 28.376C135.745 28.9547 135.353 29.4073 134.849 29.734C134.355 30.0513 133.776 30.21 133.113 30.21ZM133.113 29.16C133.804 29.16 134.341 28.9127 134.723 28.418C135.106 27.9233 135.297 27.242 135.297 26.374C135.297 25.5247 135.106 24.8527 134.723 24.358C134.341 23.8633 133.804 23.616 133.113 23.616C132.432 23.616 131.905 23.8633 131.531 24.358C131.158 24.8527 130.971 25.5247 130.971 26.374C130.971 27.242 131.158 27.9233 131.531 28.418C131.905 28.9127 132.432 29.16 133.113 29.16ZM138.542 30.14C138.383 30.14 138.248 30.084 138.136 29.972C138.033 29.86 137.982 29.72 137.982 29.552V23.224C137.982 23.056 138.033 22.9207 138.136 22.818C138.248 22.706 138.383 22.65 138.542 22.65C138.71 22.65 138.845 22.706 138.948 22.818C139.06 22.9207 139.116 23.056 139.116 23.224V24.162L138.878 23.91C139.177 23.4527 139.531 23.1167 139.942 22.902C140.362 22.6873 140.81 22.58 141.286 22.58C141.79 22.58 142.243 22.6873 142.644 22.902C143.045 23.1073 143.358 23.4107 143.582 23.812C143.815 24.204 143.932 24.6893 143.932 25.268V29.552C143.932 29.72 143.881 29.86 143.778 29.972C143.675 30.084 143.54 30.14 143.372 30.14C143.195 30.14 143.055 30.084 142.952 29.972C142.849 29.86 142.798 29.72 142.798 29.552V25.31C142.798 24.778 142.639 24.3627 142.322 24.064C142.014 23.7653 141.603 23.616 141.09 23.616C140.745 23.616 140.423 23.686 140.124 23.826C139.825 23.966 139.583 24.1667 139.396 24.428C139.209 24.68 139.116 24.9833 139.116 25.338V29.552C139.116 29.72 139.06 29.86 138.948 29.972C138.845 30.084 138.71 30.14 138.542 30.14ZM147.776 30.14C147.459 30.14 147.183 30.07 146.95 29.93C146.726 29.7807 146.553 29.5753 146.432 29.314C146.311 29.0433 146.25 28.7353 146.25 28.39V21.81C146.25 21.6513 146.301 21.5207 146.404 21.418C146.516 21.306 146.651 21.25 146.81 21.25C146.969 21.25 147.099 21.306 147.202 21.418C147.314 21.5207 147.37 21.6513 147.37 21.81V28.376C147.37 28.5533 147.398 28.7073 147.454 28.838C147.51 28.9593 147.627 29.02 147.804 29.02C147.925 29.02 148.014 28.992 148.07 28.936C148.135 28.88 148.201 28.8287 148.266 28.782C148.331 28.726 148.425 28.698 148.546 28.698C148.714 28.698 148.849 28.754 148.952 28.866C149.055 28.9687 149.106 29.0993 149.106 29.258C149.106 29.426 149.041 29.58 148.91 29.72C148.789 29.8507 148.625 29.9533 148.42 30.028C148.224 30.1027 148.009 30.14 147.776 30.14ZM145.802 23.812C145.653 23.812 145.522 23.7653 145.41 23.672C145.307 23.5693 145.256 23.4433 145.256 23.294C145.256 23.154 145.307 23.0373 145.41 22.944C145.522 22.8413 145.653 22.79 145.802 22.79H148.756C148.905 22.79 149.031 22.8413 149.134 22.944C149.246 23.0373 149.302 23.154 149.302 23.294C149.302 23.4433 149.246 23.5693 149.134 23.672C149.031 23.7653 148.905 23.812 148.756 23.812H145.802ZM151.407 30.14C151.249 30.14 151.113 30.084 151.001 29.972C150.899 29.86 150.847 29.72 150.847 29.552V20.354C150.847 20.186 150.899 20.0507 151.001 19.948C151.113 19.836 151.249 19.78 151.407 19.78C151.575 19.78 151.711 19.836 151.813 19.948C151.925 20.0507 151.981 20.186 151.981 20.354V24.162L151.743 23.91C152.042 23.4527 152.392 23.1167 152.793 22.902C153.204 22.6873 153.647 22.58 154.123 22.58C154.618 22.58 155.061 22.6873 155.453 22.902C155.855 23.1073 156.167 23.4107 156.391 23.812C156.625 24.204 156.741 24.6893 156.741 25.268V29.552C156.741 29.72 156.69 29.86 156.587 29.972C156.485 30.084 156.349 30.14 156.181 30.14C156.023 30.14 155.887 30.084 155.775 29.972C155.673 29.86 155.621 29.72 155.621 29.552V25.31C155.621 24.778 155.467 24.3627 155.159 24.064C154.851 23.7653 154.45 23.616 153.955 23.616C153.61 23.616 153.283 23.686 152.975 23.826C152.677 23.966 152.434 24.1667 152.247 24.428C152.07 24.68 151.981 24.9833 151.981 25.338V29.552C151.981 29.72 151.925 29.86 151.813 29.972C151.711 30.084 151.575 30.14 151.407 30.14Z" fill="#2E2C28"/>
<path d="M25.696 61.384C24.528 61.384 23.504 61.168 22.624 60.736C21.76 60.304 21.08 59.768 20.584 59.128C20.088 58.472 19.808 57.816 19.744 57.16C19.728 56.76 19.84 56.44 20.08 56.2C20.32 55.96 20.632 55.84 21.016 55.84C21.32 55.84 21.56 55.928 21.736 56.104C21.928 56.264 22.096 56.464 22.24 56.704C22.56 57.344 23 57.856 23.56 58.24C24.12 58.624 24.792 58.816 25.576 58.816C26.28 58.816 26.896 58.664 27.424 58.36C27.968 58.04 28.384 57.608 28.672 57.064C28.976 56.504 29.128 55.888 29.128 55.216C29.128 54.528 28.976 53.92 28.672 53.392C28.384 52.848 27.968 52.424 27.424 52.12C26.896 51.8 26.264 51.64 25.528 51.64C25.064 51.64 24.672 51.704 24.352 51.832C24.048 51.96 23.776 52.104 23.536 52.264C23.312 52.408 23.088 52.544 22.864 52.672C22.64 52.784 22.384 52.84 22.096 52.84C21.696 52.84 21.392 52.728 21.184 52.504C20.976 52.264 20.896 51.928 20.944 51.496L21.616 45.64C21.664 45.176 21.856 44.824 22.192 44.584C22.528 44.328 22.888 44.2 23.272 44.2H29.248C29.632 44.2 29.952 44.336 30.208 44.608C30.48 44.864 30.616 45.176 30.616 45.544C30.616 45.896 30.48 46.216 30.208 46.504C29.936 46.776 29.568 46.904 29.104 46.888L22.816 46.768L24.328 45.832L23.632 51.4L21.928 51.04C22.568 50.496 23.216 50.088 23.872 49.816C24.544 49.544 25.28 49.408 26.08 49.408C27.216 49.408 28.216 49.648 29.08 50.128C29.96 50.608 30.648 51.288 31.144 52.168C31.64 53.032 31.888 54.048 31.888 55.216C31.888 56.384 31.632 57.44 31.12 58.384C30.608 59.312 29.888 60.048 28.96 60.592C28.048 61.12 26.96 61.384 25.696 61.384ZM45.6741 61.432C44.6021 61.432 43.6821 61.256 42.9141 60.904C42.1621 60.536 41.5781 60.104 41.1621 59.608C40.7621 59.096 40.5541 58.616 40.5381 58.168C40.5381 57.816 40.6501 57.512 40.8741 57.256C41.0981 56.984 41.4181 56.848 41.8341 56.848C42.1541 56.848 42.4101 56.92 42.6021 57.064C42.8101 57.208 42.9621 57.352 43.0581 57.496C43.3781 57.96 43.7621 58.336 44.2101 58.624C44.6581 58.896 45.2021 59.032 45.8421 59.032C46.4821 59.032 46.9541 58.904 47.2581 58.648C47.5621 58.392 47.7141 58.072 47.7141 57.688C47.7141 57.368 47.6101 57.104 47.4021 56.896C47.1941 56.672 46.8901 56.488 46.4901 56.344C46.1061 56.184 45.6421 56.024 45.0981 55.864C44.5861 55.704 44.0821 55.536 43.5861 55.36C43.1061 55.168 42.6661 54.936 42.2661 54.664C41.8661 54.376 41.5461 54.024 41.3061 53.608C41.0661 53.192 40.9461 52.672 40.9461 52.048C40.9461 51.344 41.1381 50.704 41.5221 50.128C41.9061 49.552 42.4421 49.096 43.1301 48.76C43.8181 48.408 44.6261 48.232 45.5541 48.232C46.4501 48.232 47.2261 48.384 47.8821 48.688C48.5541 48.992 49.0741 49.376 49.4421 49.84C49.8101 50.288 49.9941 50.752 49.9941 51.232C50.0101 51.584 49.9221 51.88 49.7301 52.12C49.5381 52.344 49.2501 52.456 48.8661 52.456C48.5781 52.456 48.3221 52.392 48.0981 52.264C47.8741 52.12 47.6901 51.96 47.5461 51.784C47.4341 51.608 47.2981 51.432 47.1381 51.256C46.9781 51.08 46.7621 50.928 46.4901 50.8C46.2341 50.672 45.8901 50.608 45.4581 50.608C44.8981 50.608 44.4581 50.728 44.1381 50.968C43.8341 51.208 43.6821 51.512 43.6821 51.88C43.6821 52.216 43.8021 52.48 44.0421 52.672C44.2821 52.864 44.6181 53.04 45.0501 53.2C45.4981 53.344 46.0421 53.528 46.6821 53.752C47.2261 53.928 47.7221 54.12 48.1701 54.328C48.6341 54.536 49.0341 54.784 49.3701 55.072C49.7221 55.344 49.9941 55.672 50.1861 56.056C50.3781 56.424 50.4741 56.872 50.4741 57.4C50.4741 58.12 50.2981 58.792 49.9461 59.416C49.5941 60.024 49.0581 60.512 48.3381 60.88C47.6341 61.248 46.7461 61.432 45.6741 61.432ZM56.6935 61.36C55.8935 61.36 55.1655 61.208 54.5095 60.904C53.8695 60.6 53.3575 60.176 52.9735 59.632C52.5895 59.072 52.3975 58.408 52.3975 57.64C52.3975 56.52 52.7735 55.624 53.5255 54.952C54.2775 54.264 55.5015 53.808 57.1975 53.584C57.7735 53.504 58.2855 53.424 58.7335 53.344C59.1975 53.264 59.5655 53.136 59.8375 52.96C60.1095 52.768 60.2455 52.496 60.2455 52.144C60.2455 51.856 60.1735 51.6 60.0295 51.376C59.8855 51.152 59.6615 50.976 59.3575 50.848C59.0695 50.72 58.6935 50.656 58.2295 50.656C57.6055 50.656 57.1175 50.776 56.7655 51.016C56.4295 51.24 56.1575 51.496 55.9495 51.784C55.7895 51.992 55.5895 52.16 55.3495 52.288C55.1255 52.416 54.8695 52.48 54.5815 52.48C54.1975 52.48 53.8935 52.376 53.6695 52.168C53.4455 51.96 53.3335 51.68 53.3335 51.328C53.3335 50.96 53.4535 50.6 53.6935 50.248C53.9335 49.88 54.2695 49.552 54.7015 49.264C55.1335 48.96 55.6535 48.72 56.2615 48.544C56.8695 48.368 57.5335 48.28 58.2535 48.28C59.3415 48.28 60.2295 48.48 60.9175 48.88C61.6215 49.28 62.1415 49.832 62.4775 50.536C62.8295 51.24 63.0055 52.04 63.0055 52.936V58.096C63.0055 58.272 63.0215 58.4 63.0535 58.48C63.1015 58.56 63.1975 58.616 63.3415 58.648C63.5815 58.712 63.8055 58.848 64.0135 59.056C64.2215 59.264 64.3255 59.544 64.3255 59.896C64.3255 60.264 64.1815 60.584 63.8935 60.856C63.6055 61.112 63.2055 61.24 62.6935 61.24C62.0855 61.224 61.6135 61.064 61.2775 60.76C60.9575 60.456 60.7655 60.072 60.7015 59.608V59.344H60.6295C60.1975 59.984 59.6775 60.48 59.0695 60.832C58.4615 61.184 57.6695 61.36 56.6935 61.36ZM57.1735 58.96C57.7495 58.96 58.2695 58.84 58.7335 58.6C59.1975 58.36 59.5655 58.024 59.8375 57.592C60.1255 57.16 60.2695 56.672 60.2695 56.128V55C60.2695 54.968 60.2535 54.952 60.2215 54.952C60.2055 54.936 60.1655 54.952 60.1015 55C59.8935 55.144 59.6295 55.256 59.3095 55.336C59.0055 55.416 58.6855 55.48 58.3495 55.528C58.0135 55.576 57.6935 55.632 57.3895 55.696C56.6375 55.84 56.0775 56.048 55.7095 56.32C55.3575 56.592 55.1815 56.952 55.1815 57.4C55.1815 57.832 55.3335 58.2 55.6375 58.504C55.9575 58.808 56.4695 58.96 57.1735 58.96ZM67.9392 61.24C67.5392 61.24 67.2032 61.104 66.9312 60.832C66.6752 60.544 66.5472 60.208 66.5472 59.824V44.872C66.5472 44.472 66.6752 44.144 66.9312 43.888C67.2032 43.616 67.5392 43.48 67.9392 43.48C68.3232 43.48 68.6512 43.616 68.9232 43.888C69.1952 44.144 69.3312 44.472 69.3312 44.872V59.824C69.3312 60.208 69.1952 60.544 68.9232 60.832C68.6512 61.104 68.3232 61.24 67.9392 61.24ZM77.8958 61.36C76.7758 61.36 75.7678 61.104 74.8718 60.592C73.9758 60.064 73.2638 59.32 72.7358 58.36C72.2238 57.384 71.9678 56.224 71.9678 54.88C71.9678 53.616 72.2078 52.488 72.6878 51.496C73.1678 50.504 73.8318 49.72 74.6798 49.144C75.5438 48.568 76.5438 48.28 77.6798 48.28C78.5598 48.28 79.3438 48.448 80.0318 48.784C80.7198 49.104 81.3038 49.536 81.7838 50.08C82.2798 50.608 82.6558 51.2 82.9118 51.856C83.1678 52.496 83.2958 53.144 83.2958 53.8C83.2958 54.376 83.1598 54.832 82.8878 55.168C82.6318 55.488 82.1918 55.648 81.5678 55.648H74.8478C74.9438 56.4 75.1438 57.016 75.4478 57.496C75.7518 57.96 76.1278 58.304 76.5758 58.528C77.0398 58.736 77.5358 58.84 78.0638 58.84C78.7038 58.84 79.2158 58.712 79.5998 58.456C79.9998 58.184 80.3118 57.856 80.5358 57.472C80.6798 57.312 80.8398 57.168 81.0158 57.04C81.1918 56.896 81.4238 56.824 81.7118 56.824C82.0798 56.824 82.3838 56.944 82.6238 57.184C82.8638 57.424 82.9758 57.752 82.9598 58.168C82.9598 58.52 82.8318 58.888 82.5758 59.272C82.3358 59.64 81.9918 59.984 81.5438 60.304C81.1118 60.608 80.5838 60.856 79.9598 61.048C79.3518 61.256 78.6638 61.36 77.8958 61.36ZM74.8478 53.608H80.5358C80.4238 52.712 80.1198 52.016 79.6238 51.52C79.1438 51.008 78.5038 50.752 77.7038 50.752C76.9518 50.752 76.3198 50.992 75.8078 51.472C75.2958 51.936 74.9758 52.648 74.8478 53.608ZM90.346 61.432C89.274 61.432 88.354 61.256 87.586 60.904C86.834 60.536 86.25 60.104 85.834 59.608C85.434 59.096 85.226 58.616 85.21 58.168C85.21 57.816 85.322 57.512 85.546 57.256C85.77 56.984 86.09 56.848 86.506 56.848C86.826 56.848 87.082 56.92 87.274 57.064C87.482 57.208 87.634 57.352 87.73 57.496C88.05 57.96 88.434 58.336 88.882 58.624C89.33 58.896 89.874 59.032 90.514 59.032C91.154 59.032 91.626 58.904 91.93 58.648C92.234 58.392 92.386 58.072 92.386 57.688C92.386 57.368 92.282 57.104 92.074 56.896C91.866 56.672 91.562 56.488 91.162 56.344C90.778 56.184 90.314 56.024 89.77 55.864C89.258 55.704 88.754 55.536 88.258 55.36C87.778 55.168 87.338 54.936 86.938 54.664C86.538 54.376 86.218 54.024 85.978 53.608C85.738 53.192 85.618 52.672 85.618 52.048C85.618 51.344 85.81 50.704 86.194 50.128C86.578 49.552 87.114 49.096 87.802 48.76C88.49 48.408 89.298 48.232 90.226 48.232C91.122 48.232 91.898 48.384 92.554 48.688C93.226 48.992 93.746 49.376 94.114 49.84C94.482 50.288 94.666 50.752 94.666 51.232C94.682 51.584 94.594 51.88 94.402 52.12C94.21 52.344 93.922 52.456 93.538 52.456C93.25 52.456 92.994 52.392 92.77 52.264C92.546 52.12 92.362 51.96 92.218 51.784C92.106 51.608 91.97 51.432 91.81 51.256C91.65 51.08 91.434 50.928 91.162 50.8C90.906 50.672 90.562 50.608 90.13 50.608C89.57 50.608 89.13 50.728 88.81 50.968C88.506 51.208 88.354 51.512 88.354 51.88C88.354 52.216 88.474 52.48 88.714 52.672C88.954 52.864 89.29 53.04 89.722 53.2C90.17 53.344 90.714 53.528 91.354 53.752C91.898 53.928 92.394 54.12 92.842 54.328C93.306 54.536 93.706 54.784 94.042 55.072C94.394 55.344 94.666 55.672 94.858 56.056C95.05 56.424 95.146 56.872 95.146 57.4C95.146 58.12 94.97 58.792 94.618 59.416C94.266 60.024 93.73 60.512 93.01 60.88C92.306 61.248 91.418 61.432 90.346 61.432Z" fill="#F0742F"/>
<rect x="19" y="70" width="45" height="20" rx="5" fill="#F0742F"/>
<path d="M32.4824 83.8082L25.5621 75.8104L25.5598 75.8081C25.3235 75.5531 25.0218 75.4511 24.712 75.5219C24.3943 75.5939 24.1208 75.8477 24.032 76.1537C24.0105 76.2275 24 76.3013 24 76.374C24 76.5959 24.0982 76.8094 24.2883 76.9925L32.2093 84.124L32.4824 83.8082Z" fill="white"/>
<path d="M32.2818 84.1881C32.4997 84.2139 32.6746 84.029 32.6402 83.8181C32.362 82.1109 32.4516 80.2415 32.9966 78.6484C33.0377 78.2473 32.7043 77.8941 32.2728 77.9173C31.9305 77.936 31.6633 78.2184 31.6312 78.5502C31.5068 79.8316 31.5397 82.0013 31.5674 83.1126C30.4188 83.0833 28.1795 83.0475 26.8626 83.1685C26.5215 83.1997 26.2312 83.4596 26.212 83.7926C26.1881 84.2124 26.5512 84.5367 26.9635 84.4967C29.1849 83.9163 31.3742 84.0788 32.2818 84.1877V84.1881Z" fill="white"/>
<path d="M37.948 81.312C37.82 81.312 37.708 81.268 37.612 81.18C37.524 81.092 37.48 80.984 37.48 80.856C37.48 80.728 37.524 80.62 37.612 80.532C37.708 80.436 37.82 80.388 37.948 80.388H41.128C41.248 80.388 41.352 80.436 41.44 80.532C41.528 80.62 41.572 80.728 41.572 80.856C41.572 80.984 41.528 81.092 41.44 81.18C41.352 81.268 41.248 81.312 41.128 81.312H37.948ZM45.3628 84.192C44.7788 84.192 44.2828 84.08 43.8748 83.856C43.4668 83.624 43.1428 83.344 42.9028 83.016C42.6628 82.68 42.5028 82.356 42.4228 82.044C42.3908 81.892 42.4188 81.768 42.5068 81.672C42.6028 81.568 42.7268 81.516 42.8788 81.516C43.0068 81.516 43.1028 81.556 43.1668 81.636C43.2308 81.708 43.2868 81.792 43.3348 81.888C43.5108 82.28 43.7588 82.612 44.0788 82.884C44.4068 83.148 44.8268 83.28 45.3388 83.28C45.7468 83.28 46.1068 83.188 46.4188 83.004C46.7308 82.82 46.9708 82.568 47.1388 82.248C47.3148 81.928 47.4028 81.568 47.4028 81.168C47.4028 80.768 47.3148 80.412 47.1388 80.1C46.9708 79.788 46.7308 79.544 46.4188 79.368C46.1148 79.184 45.7548 79.092 45.3388 79.092C45.0428 79.092 44.7988 79.132 44.6068 79.212C44.4148 79.292 44.2548 79.384 44.1268 79.488C44.0068 79.584 43.8948 79.672 43.7908 79.752C43.6948 79.832 43.5828 79.872 43.4548 79.872C43.3028 79.872 43.1828 79.824 43.0948 79.728C43.0148 79.624 42.9828 79.508 42.9988 79.38L43.4068 76.236C43.4308 76.028 43.5068 75.872 43.6348 75.768C43.7628 75.656 43.9188 75.6 44.1028 75.6H47.1028C47.2388 75.6 47.3508 75.648 47.4388 75.744C47.5348 75.832 47.5828 75.944 47.5828 76.08C47.5828 76.208 47.5348 76.32 47.4388 76.416C47.3428 76.504 47.2268 76.548 47.0908 76.548L43.8748 76.536L44.3548 76.14L43.9708 79.032L43.6468 78.792C43.9108 78.6 44.1908 78.456 44.4868 78.36C44.7828 78.264 45.0948 78.216 45.4228 78.216C45.9908 78.216 46.4948 78.344 46.9348 78.6C47.3828 78.848 47.7308 79.192 47.9788 79.632C48.2348 80.072 48.3628 80.58 48.3628 81.156C48.3628 81.724 48.2388 82.24 47.9908 82.704C47.7428 83.16 47.3948 83.524 46.9468 83.796C46.4988 84.06 45.9708 84.192 45.3628 84.192ZM50.9703 84.18C50.8503 84.18 50.7463 84.14 50.6583 84.06C50.5783 83.988 50.5303 83.896 50.5143 83.784C50.4983 83.672 50.5263 83.564 50.5983 83.46L56.0943 75.672C56.1343 75.608 56.1863 75.556 56.2503 75.516C56.3223 75.476 56.3983 75.456 56.4783 75.456C56.6063 75.456 56.7103 75.496 56.7903 75.576C56.8703 75.648 56.9183 75.74 56.9343 75.852C56.9503 75.964 56.9223 76.076 56.8503 76.188L51.3543 83.976C51.3143 84.032 51.2583 84.08 51.1863 84.12C51.1223 84.16 51.0503 84.18 50.9703 84.18ZM51.2463 79.536C50.8783 79.536 50.5383 79.444 50.2263 79.26C49.9143 79.068 49.6663 78.816 49.4823 78.504C49.2983 78.192 49.2063 77.852 49.2063 77.484C49.2063 77.108 49.2983 76.764 49.4823 76.452C49.6663 76.14 49.9143 75.892 50.2263 75.708C50.5383 75.524 50.8783 75.432 51.2463 75.432C51.6223 75.432 51.9663 75.524 52.2783 75.708C52.5903 75.892 52.8383 76.14 53.0223 76.452C53.2063 76.764 53.2983 77.108 53.2983 77.484C53.2983 77.852 53.2063 78.192 53.0223 78.504C52.8383 78.816 52.5903 79.068 52.2783 79.26C51.9663 79.444 51.6223 79.536 51.2463 79.536ZM51.2463 78.66C51.4703 78.66 51.6663 78.608 51.8343 78.504C52.0023 78.392 52.1343 78.248 52.2303 78.072C52.3263 77.896 52.3743 77.7 52.3743 77.484C52.3743 77.156 52.2703 76.88 52.0623 76.656C51.8543 76.432 51.5823 76.32 51.2463 76.32C51.0383 76.32 50.8463 76.372 50.6702 76.476C50.5023 76.58 50.3703 76.72 50.2743 76.896C50.1783 77.064 50.1303 77.26 50.1303 77.484C50.1303 77.7 50.1783 77.896 50.2743 78.072C50.3703 78.248 50.5023 78.392 50.6702 78.504C50.8463 78.608 51.0383 78.66 51.2463 78.66ZM56.2623 84.168C55.8943 84.168 55.5543 84.076 55.2422 83.892C54.9303 83.7 54.6823 83.448 54.4983 83.136C54.3143 82.816 54.2223 82.472 54.2223 82.104C54.2223 81.728 54.3143 81.384 54.4983 81.072C54.6823 80.76 54.9303 80.512 55.2422 80.328C55.5543 80.144 55.8943 80.052 56.2623 80.052C56.6383 80.052 56.9823 80.144 57.2943 80.328C57.6063 80.512 57.8543 80.76 58.0383 81.072C58.2223 81.384 58.3143 81.728 58.3143 82.104C58.3143 82.472 58.2223 82.816 58.0383 83.136C57.8543 83.448 57.6063 83.7 57.2943 83.892C56.9823 84.076 56.6383 84.168 56.2623 84.168ZM56.2623 83.268C56.4863 83.268 56.6823 83.216 56.8503 83.112C57.0183 83.008 57.1503 82.868 57.2463 82.692C57.3423 82.516 57.3903 82.32 57.3903 82.104C57.3903 81.776 57.2863 81.5 57.0783 81.276C56.8703 81.052 56.5983 80.94 56.2623 80.94C56.0543 80.94 55.8623 80.992 55.6862 81.096C55.5183 81.2 55.3863 81.34 55.2903 81.516C55.1943 81.684 55.1463 81.88 55.1463 82.104C55.1463 82.32 55.1943 82.516 55.2903 82.692C55.3863 82.868 55.5183 83.008 55.6862 83.112C55.8623 83.216 56.0543 83.268 56.2623 83.268Z" fill="white"/>
<path d="M72.444 85.252C71.8093 85.252 71.282 85.14 70.862 84.916C70.442 84.6827 70.1247 84.412 69.91 84.104C69.6953 83.7867 69.5787 83.502 69.56 83.25C69.5507 83.054 69.5927 82.9047 69.686 82.802C69.7887 82.69 69.9147 82.634 70.064 82.634C70.204 82.634 70.316 82.676 70.4 82.76C70.484 82.8347 70.5447 82.9233 70.582 83.026C70.694 83.3433 70.8993 83.6233 71.198 83.866C71.4967 84.0993 71.9167 84.216 72.458 84.216C72.9527 84.216 73.3307 84.1133 73.592 83.908C73.8533 83.6933 73.984 83.418 73.984 83.082C73.984 82.8207 73.9047 82.6153 73.746 82.466C73.5967 82.3073 73.3867 82.1813 73.116 82.088C72.8453 81.9947 72.5327 81.9013 72.178 81.808C71.9167 81.7333 71.646 81.654 71.366 81.57C71.086 81.4767 70.8247 81.3553 70.582 81.206C70.3393 81.0567 70.1433 80.8653 69.994 80.632C69.8447 80.3987 69.77 80.1047 69.77 79.75C69.77 79.358 69.8727 78.9987 70.078 78.672C70.2833 78.336 70.582 78.07 70.974 77.874C71.366 77.6687 71.8327 77.566 72.374 77.566C72.9247 77.566 73.3867 77.6593 73.76 77.846C74.1333 78.0327 74.418 78.2613 74.614 78.532C74.8193 78.7933 74.9267 79.0453 74.936 79.288C74.9453 79.4653 74.908 79.6053 74.824 79.708C74.74 79.8107 74.6187 79.862 74.46 79.862C74.3573 79.862 74.2547 79.834 74.152 79.778C74.0493 79.722 73.9607 79.6333 73.886 79.512C73.8207 79.3813 73.732 79.246 73.62 79.106C73.5173 78.9567 73.368 78.8353 73.172 78.742C72.976 78.6393 72.7053 78.588 72.36 78.588C71.9213 78.588 71.562 78.686 71.282 78.882C71.002 79.0687 70.862 79.3253 70.862 79.652C70.862 79.904 70.9413 80.1 71.1 80.24C71.268 80.38 71.4827 80.492 71.744 80.576C72.0147 80.66 72.3087 80.7487 72.626 80.842C72.9247 80.926 73.2187 81.0193 73.508 81.122C73.7973 81.2153 74.0587 81.3413 74.292 81.5C74.5347 81.6493 74.726 81.8407 74.866 82.074C75.0153 82.3073 75.09 82.5967 75.09 82.942C75.09 83.2873 75.0013 83.642 74.824 84.006C74.656 84.3607 74.376 84.6593 73.984 84.902C73.6013 85.1353 73.088 85.252 72.444 85.252ZM77.1985 85.14C77.0305 85.14 76.8905 85.0887 76.7785 84.986C76.6759 84.874 76.6245 84.7387 76.6245 84.58V78.21C76.6245 78.0513 76.6759 77.9207 76.7785 77.818C76.8905 77.706 77.0305 77.65 77.1985 77.65C77.3572 77.65 77.4879 77.706 77.5905 77.818C77.7025 77.9207 77.7585 78.0513 77.7585 78.21V84.58C77.7585 84.7387 77.7025 84.874 77.5905 84.986C77.4879 85.0887 77.3572 85.14 77.1985 85.14ZM77.1845 76.796C76.9792 76.796 76.8112 76.7307 76.6805 76.6C76.5499 76.46 76.4845 76.2593 76.4845 75.998C76.4845 75.7553 76.5499 75.564 76.6805 75.424C76.8112 75.284 76.9792 75.214 77.1845 75.214C77.3992 75.214 77.5719 75.284 77.7025 75.424C77.8332 75.564 77.8985 75.7553 77.8985 75.998C77.8985 76.2593 77.8332 76.46 77.7025 76.6C77.5719 76.7307 77.3992 76.796 77.1845 76.796ZM80.2744 85.14C80.1157 85.14 79.9804 85.084 79.8684 84.972C79.7657 84.86 79.7144 84.72 79.7144 84.552V78.224C79.7144 78.056 79.7657 77.9207 79.8684 77.818C79.9804 77.706 80.1157 77.65 80.2744 77.65C80.4424 77.65 80.5777 77.706 80.6804 77.818C80.7924 77.9207 80.8484 78.056 80.8484 78.224V79.162L80.6104 78.91C80.909 78.4527 81.2637 78.1167 81.6744 77.902C82.0944 77.6873 82.5424 77.58 83.0184 77.58C83.5224 77.58 83.975 77.6873 84.3764 77.902C84.7777 78.1073 85.0904 78.4107 85.3144 78.812C85.5477 79.204 85.6644 79.6893 85.6644 80.268V84.552C85.6644 84.72 85.613 84.86 85.5104 84.972C85.4077 85.084 85.2724 85.14 85.1044 85.14C84.927 85.14 84.787 85.084 84.6844 84.972C84.5817 84.86 84.5304 84.72 84.5304 84.552V80.31C84.5304 79.778 84.3717 79.3627 84.0544 79.064C83.7464 78.7653 83.3357 78.616 82.8224 78.616C82.477 78.616 82.155 78.686 81.8564 78.826C81.5577 78.966 81.315 79.1667 81.1284 79.428C80.9417 79.68 80.8484 79.9833 80.8484 80.338V84.552C80.8484 84.72 80.7924 84.86 80.6804 84.972C80.5777 85.084 80.4424 85.14 80.2744 85.14ZM90.3484 85.21C89.695 85.21 89.1257 85.0467 88.6404 84.72C88.155 84.384 87.7817 83.9267 87.5204 83.348C87.259 82.7693 87.1284 82.116 87.1284 81.388C87.1284 80.6507 87.259 79.9973 87.5204 79.428C87.791 78.8587 88.169 78.4107 88.6544 78.084C89.1397 77.748 89.709 77.58 90.3624 77.58C90.9037 77.58 91.361 77.6827 91.7344 77.888C92.117 78.084 92.411 78.3173 92.6164 78.588C92.8217 78.8587 92.9337 79.1107 92.9524 79.344C92.9804 79.54 92.9384 79.6893 92.8264 79.792C92.7237 79.8947 92.5977 79.946 92.4484 79.946C92.299 79.946 92.187 79.9087 92.1124 79.834C92.0377 79.7593 91.977 79.6753 91.9304 79.582C91.809 79.33 91.6224 79.106 91.3704 78.91C91.1184 78.7047 90.7777 78.602 90.3484 78.602C89.9004 78.602 89.5224 78.7233 89.2144 78.966C88.9064 79.1993 88.6684 79.526 88.5004 79.946C88.3417 80.366 88.2624 80.842 88.2624 81.374C88.2624 82.2233 88.449 82.9 88.8224 83.404C89.205 83.908 89.7184 84.16 90.3624 84.16C90.857 84.16 91.2397 84.0293 91.5104 83.768C91.7904 83.5067 91.9864 83.2127 92.0984 82.886C92.145 82.7553 92.2104 82.648 92.2944 82.564C92.3784 82.48 92.4904 82.438 92.6304 82.438C92.789 82.438 92.915 82.494 93.0084 82.606C93.111 82.718 93.153 82.872 93.1344 83.068C93.125 83.2453 93.055 83.4553 92.9244 83.698C92.803 83.9407 92.6257 84.1787 92.3924 84.412C92.1684 84.6453 91.8837 84.8367 91.5384 84.986C91.2024 85.1353 90.8057 85.21 90.3484 85.21ZM97.543 85.21C96.927 85.21 96.3624 85.07 95.849 84.79C95.345 84.51 94.939 84.09 94.631 83.53C94.3324 82.97 94.183 82.2793 94.183 81.458C94.183 80.674 94.323 79.9927 94.603 79.414C94.883 78.8353 95.261 78.3873 95.737 78.07C96.2224 77.7433 96.773 77.58 97.389 77.58C97.865 77.58 98.2944 77.6733 98.677 77.86C99.0597 78.0373 99.3817 78.2847 99.643 78.602C99.9137 78.91 100.119 79.26 100.259 79.652C100.408 80.0347 100.483 80.436 100.483 80.856C100.483 81.1267 100.432 81.346 100.329 81.514C100.226 81.6727 100.016 81.752 99.699 81.752H95.331C95.3684 82.3213 95.4897 82.7833 95.695 83.138C95.9004 83.4927 96.157 83.754 96.465 83.922C96.7824 84.0807 97.1277 84.16 97.501 84.16C98.005 84.16 98.4064 84.0433 98.705 83.81C99.0037 83.5767 99.209 83.3013 99.321 82.984C99.3677 82.872 99.4284 82.7787 99.503 82.704C99.587 82.62 99.699 82.578 99.839 82.578C99.9977 82.578 100.124 82.6387 100.217 82.76C100.31 82.872 100.352 83.0213 100.343 83.208C100.334 83.3947 100.268 83.6047 100.147 83.838C100.026 84.062 99.8484 84.2813 99.615 84.496C99.391 84.7013 99.1064 84.8693 98.761 85C98.4157 85.14 98.0097 85.21 97.543 85.21ZM95.345 80.786H99.405C99.3397 80.1513 99.1344 79.6333 98.789 79.232C98.4437 78.8213 97.9724 78.616 97.375 78.616C96.843 78.616 96.3904 78.798 96.017 79.162C95.653 79.526 95.429 80.0673 95.345 80.786ZM106.442 85.14C106.284 85.14 106.148 85.084 106.036 84.972C105.934 84.8507 105.882 84.7107 105.882 84.552V75.354C105.882 75.1953 105.934 75.06 106.036 74.948C106.148 74.836 106.284 74.78 106.442 74.78C106.601 74.78 106.736 74.836 106.848 74.948C106.96 75.06 107.016 75.1953 107.016 75.354V84.552C107.016 84.7107 106.96 84.8507 106.848 84.972C106.736 85.084 106.601 85.14 106.442 85.14ZM111.072 85.21C110.55 85.21 110.097 85.1167 109.714 84.93C109.341 84.734 109.052 84.4727 108.846 84.146C108.65 83.8193 108.552 83.4553 108.552 83.054C108.552 82.4753 108.767 81.9807 109.196 81.57C109.635 81.15 110.335 80.884 111.296 80.772C111.698 80.7253 112.043 80.674 112.332 80.618C112.622 80.562 112.846 80.4687 113.004 80.338C113.172 80.2073 113.256 80.016 113.256 79.764C113.256 79.568 113.205 79.386 113.102 79.218C113.009 79.0407 112.85 78.896 112.626 78.784C112.412 78.672 112.122 78.616 111.758 78.616C111.273 78.616 110.909 78.714 110.666 78.91C110.424 79.0967 110.256 79.2833 110.162 79.47C110.097 79.5913 110.018 79.6847 109.924 79.75C109.831 79.8153 109.719 79.848 109.588 79.848C109.43 79.848 109.308 79.8013 109.224 79.708C109.14 79.6053 109.098 79.4793 109.098 79.33C109.098 79.1527 109.159 78.966 109.28 78.77C109.402 78.5647 109.579 78.3733 109.812 78.196C110.055 78.0093 110.344 77.86 110.68 77.748C111.026 77.636 111.418 77.58 111.856 77.58C112.491 77.58 112.99 77.7013 113.354 77.944C113.728 78.1773 113.994 78.4993 114.152 78.91C114.311 79.3113 114.39 79.7593 114.39 80.254V83.74C114.39 83.8333 114.4 83.9033 114.418 83.95C114.446 83.9967 114.493 84.0247 114.558 84.034C114.689 84.0433 114.801 84.0993 114.894 84.202C114.988 84.2953 115.034 84.4167 115.034 84.566C115.034 84.7247 114.969 84.86 114.838 84.972C114.717 85.084 114.544 85.14 114.32 85.14C114.04 85.14 113.821 85.0607 113.662 84.902C113.513 84.734 113.438 84.5287 113.438 84.286V84.048H113.396C113.163 84.3933 112.855 84.6733 112.472 84.888C112.099 85.1027 111.632 85.21 111.072 85.21ZM111.086 84.174C111.506 84.174 111.88 84.0853 112.206 83.908C112.542 83.7307 112.804 83.4927 112.99 83.194C113.186 82.8953 113.284 82.564 113.284 82.2V81.248C113.284 81.2293 113.275 81.22 113.256 81.22C113.247 81.2107 113.228 81.2247 113.2 81.262C113.06 81.374 112.869 81.4627 112.626 81.528C112.393 81.584 112.155 81.6307 111.912 81.668C111.67 81.7053 111.469 81.738 111.31 81.766C110.825 81.8407 110.428 81.9713 110.12 82.158C109.822 82.3447 109.672 82.6247 109.672 82.998C109.672 83.278 109.78 83.544 109.994 83.796C110.209 84.048 110.573 84.174 111.086 84.174ZM118.86 85.252C118.225 85.252 117.698 85.14 117.278 84.916C116.858 84.6827 116.541 84.412 116.326 84.104C116.111 83.7867 115.995 83.502 115.976 83.25C115.967 83.054 116.009 82.9047 116.102 82.802C116.205 82.69 116.331 82.634 116.48 82.634C116.62 82.634 116.732 82.676 116.816 82.76C116.9 82.8347 116.961 82.9233 116.998 83.026C117.11 83.3433 117.315 83.6233 117.614 83.866C117.913 84.0993 118.333 84.216 118.874 84.216C119.369 84.216 119.747 84.1133 120.008 83.908C120.269 83.6933 120.4 83.418 120.4 83.082C120.4 82.8207 120.321 82.6153 120.162 82.466C120.013 82.3073 119.803 82.1813 119.532 82.088C119.261 81.9947 118.949 81.9013 118.594 81.808C118.333 81.7333 118.062 81.654 117.782 81.57C117.502 81.4767 117.241 81.3553 116.998 81.206C116.755 81.0567 116.559 80.8653 116.41 80.632C116.261 80.3987 116.186 80.1047 116.186 79.75C116.186 79.358 116.289 78.9987 116.494 78.672C116.699 78.336 116.998 78.07 117.39 77.874C117.782 77.6687 118.249 77.566 118.79 77.566C119.341 77.566 119.803 77.6593 120.176 77.846C120.549 78.0327 120.834 78.2613 121.03 78.532C121.235 78.7933 121.343 79.0453 121.352 79.288C121.361 79.4653 121.324 79.6053 121.24 79.708C121.156 79.8107 121.035 79.862 120.876 79.862C120.773 79.862 120.671 79.834 120.568 79.778C120.465 79.722 120.377 79.6333 120.302 79.512C120.237 79.3813 120.148 79.246 120.036 79.106C119.933 78.9567 119.784 78.8353 119.588 78.742C119.392 78.6393 119.121 78.588 118.776 78.588C118.337 78.588 117.978 78.686 117.698 78.882C117.418 79.0687 117.278 79.3253 117.278 79.652C117.278 79.904 117.357 80.1 117.516 80.24C117.684 80.38 117.899 80.492 118.16 80.576C118.431 80.66 118.725 80.7487 119.042 80.842C119.341 80.926 119.635 81.0193 119.924 81.122C120.213 81.2153 120.475 81.3413 120.708 81.5C120.951 81.6493 121.142 81.8407 121.282 82.074C121.431 82.3073 121.506 82.5967 121.506 82.942C121.506 83.2873 121.417 83.642 121.24 84.006C121.072 84.3607 120.792 84.6593 120.4 84.902C120.017 85.1353 119.504 85.252 118.86 85.252ZM125.001 85.14C124.683 85.14 124.408 85.07 124.175 84.93C123.951 84.7807 123.778 84.5753 123.657 84.314C123.535 84.0433 123.475 83.7353 123.475 83.39V76.81C123.475 76.6513 123.526 76.5207 123.629 76.418C123.741 76.306 123.876 76.25 124.035 76.25C124.193 76.25 124.324 76.306 124.427 76.418C124.539 76.5207 124.595 76.6513 124.595 76.81V83.376C124.595 83.5533 124.623 83.7073 124.679 83.838C124.735 83.9593 124.851 84.02 125.029 84.02C125.15 84.02 125.239 83.992 125.295 83.936C125.36 83.88 125.425 83.8287 125.491 83.782C125.556 83.726 125.649 83.698 125.771 83.698C125.939 83.698 126.074 83.754 126.177 83.866C126.279 83.9687 126.331 84.0993 126.331 84.258C126.331 84.426 126.265 84.58 126.135 84.72C126.013 84.8507 125.85 84.9533 125.645 85.028C125.449 85.1027 125.234 85.14 125.001 85.14ZM123.027 78.812C122.877 78.812 122.747 78.7653 122.635 78.672C122.532 78.5693 122.481 78.4433 122.481 78.294C122.481 78.154 122.532 78.0373 122.635 77.944C122.747 77.8413 122.877 77.79 123.027 77.79H125.981C126.13 77.79 126.256 77.8413 126.359 77.944C126.471 78.0373 126.527 78.154 126.527 78.294C126.527 78.4433 126.471 78.5693 126.359 78.672C126.256 78.7653 126.13 78.812 125.981 78.812H123.027ZM132.487 85.14C132.329 85.14 132.193 85.084 132.081 84.972C131.979 84.86 131.927 84.72 131.927 84.552V78.224C131.927 78.056 131.979 77.9207 132.081 77.818C132.193 77.706 132.329 77.65 132.487 77.65C132.655 77.65 132.791 77.706 132.893 77.818C133.005 77.9207 133.061 78.056 133.061 78.224V79.078L132.823 78.882C133.019 78.574 133.239 78.3267 133.481 78.14C133.733 77.944 134.004 77.804 134.293 77.72C134.583 77.6267 134.877 77.58 135.175 77.58C135.717 77.58 136.193 77.7107 136.603 77.972C137.023 78.2333 137.331 78.6113 137.527 79.106L137.121 79.162C137.364 78.7513 137.63 78.434 137.919 78.21C138.209 77.9767 138.503 77.8133 138.801 77.72C139.109 77.6267 139.413 77.58 139.711 77.58C140.206 77.58 140.649 77.6873 141.041 77.902C141.433 78.1073 141.741 78.4107 141.965 78.812C142.189 79.204 142.301 79.68 142.301 80.24V84.552C142.301 84.72 142.25 84.86 142.147 84.972C142.045 85.084 141.914 85.14 141.755 85.14C141.587 85.14 141.447 85.084 141.335 84.972C141.233 84.86 141.181 84.72 141.181 84.552V80.282C141.181 79.7593 141.027 79.3533 140.719 79.064C140.421 78.7747 140.024 78.63 139.529 78.63C139.212 78.63 138.918 78.6953 138.647 78.826C138.377 78.9473 138.162 79.1293 138.003 79.372C137.845 79.6053 137.765 79.8947 137.765 80.24V84.552C137.765 84.72 137.709 84.86 137.597 84.972C137.495 85.084 137.364 85.14 137.205 85.14C137.037 85.14 136.897 85.084 136.785 84.972C136.683 84.86 136.631 84.72 136.631 84.552V80.282C136.631 79.7593 136.482 79.3533 136.183 79.064C135.885 78.7653 135.488 78.616 134.993 78.616C134.657 78.616 134.34 78.686 134.041 78.826C133.752 78.9567 133.514 79.148 133.327 79.4C133.15 79.6427 133.061 79.932 133.061 80.268V84.552C133.061 84.72 133.005 84.86 132.893 84.972C132.791 85.084 132.655 85.14 132.487 85.14ZM147.047 85.21C146.394 85.21 145.82 85.0513 145.325 84.734C144.84 84.4073 144.457 83.9547 144.177 83.376C143.906 82.7973 143.771 82.13 143.771 81.374C143.771 80.618 143.906 79.9553 144.177 79.386C144.457 78.8167 144.84 78.3733 145.325 78.056C145.82 77.7387 146.394 77.58 147.047 77.58C147.71 77.58 148.288 77.7387 148.783 78.056C149.287 78.3733 149.679 78.8167 149.959 79.386C150.239 79.9553 150.379 80.618 150.379 81.374C150.379 82.13 150.239 82.7973 149.959 83.376C149.679 83.9547 149.287 84.4073 148.783 84.734C148.288 85.0513 147.71 85.21 147.047 85.21ZM147.047 84.16C147.738 84.16 148.274 83.9127 148.657 83.418C149.04 82.9233 149.231 82.242 149.231 81.374C149.231 80.5247 149.04 79.8527 148.657 79.358C148.274 78.8633 147.738 78.616 147.047 78.616C146.366 78.616 145.838 78.8633 145.465 79.358C145.092 79.8527 144.905 80.5247 144.905 81.374C144.905 82.242 145.092 82.9233 145.465 83.418C145.838 83.9127 146.366 84.16 147.047 84.16ZM152.476 85.14C152.317 85.14 152.182 85.084 152.07 84.972C151.967 84.86 151.916 84.72 151.916 84.552V78.224C151.916 78.056 151.967 77.9207 152.07 77.818C152.182 77.706 152.317 77.65 152.476 77.65C152.644 77.65 152.779 77.706 152.882 77.818C152.994 77.9207 153.05 78.056 153.05 78.224V79.162L152.812 78.91C153.11 78.4527 153.465 78.1167 153.876 77.902C154.296 77.6873 154.744 77.58 155.22 77.58C155.724 77.58 156.176 77.6873 156.578 77.902C156.979 78.1073 157.292 78.4107 157.516 78.812C157.749 79.204 157.866 79.6893 157.866 80.268V84.552C157.866 84.72 157.814 84.86 157.712 84.972C157.609 85.084 157.474 85.14 157.306 85.14C157.128 85.14 156.988 85.084 156.886 84.972C156.783 84.86 156.732 84.72 156.732 84.552V80.31C156.732 79.778 156.573 79.3627 156.256 79.064C155.948 78.7653 155.537 78.616 155.024 78.616C154.678 78.616 154.356 78.686 154.058 78.826C153.759 78.966 153.516 79.1667 153.33 79.428C153.143 79.68 153.05 79.9833 153.05 80.338V84.552C153.05 84.72 152.994 84.86 152.882 84.972C152.779 85.084 152.644 85.14 152.476 85.14ZM161.71 85.14C161.392 85.14 161.117 85.07 160.884 84.93C160.66 84.7807 160.487 84.5753 160.366 84.314C160.244 84.0433 160.184 83.7353 160.184 83.39V76.81C160.184 76.6513 160.235 76.5207 160.338 76.418C160.45 76.306 160.585 76.25 160.744 76.25C160.902 76.25 161.033 76.306 161.136 76.418C161.248 76.5207 161.304 76.6513 161.304 76.81V83.376C161.304 83.5533 161.332 83.7073 161.388 83.838C161.444 83.9593 161.56 84.02 161.738 84.02C161.859 84.02 161.948 83.992 162.004 83.936C162.069 83.88 162.134 83.8287 162.2 83.782C162.265 83.726 162.358 83.698 162.48 83.698C162.648 83.698 162.783 83.754 162.886 83.866C162.988 83.9687 163.04 84.0993 163.04 84.258C163.04 84.426 162.974 84.58 162.844 84.72C162.722 84.8507 162.559 84.9533 162.354 85.028C162.158 85.1027 161.943 85.14 161.71 85.14ZM159.736 78.812C159.586 78.812 159.456 78.7653 159.344 78.672C159.241 78.5693 159.19 78.4433 159.19 78.294C159.19 78.154 159.241 78.0373 159.344 77.944C159.456 77.8413 159.586 77.79 159.736 77.79H162.69C162.839 77.79 162.965 77.8413 163.068 77.944C163.18 78.0373 163.236 78.154 163.236 78.294C163.236 78.4433 163.18 78.5693 163.068 78.672C162.965 78.7653 162.839 78.812 162.69 78.812H159.736ZM165.341 85.14C165.182 85.14 165.047 85.084 164.935 84.972C164.832 84.86 164.781 84.72 164.781 84.552V75.354C164.781 75.186 164.832 75.0507 164.935 74.948C165.047 74.836 165.182 74.78 165.341 74.78C165.509 74.78 165.644 74.836 165.747 74.948C165.859 75.0507 165.915 75.186 165.915 75.354V79.162L165.677 78.91C165.975 78.4527 166.325 78.1167 166.727 77.902C167.137 77.6873 167.581 77.58 168.057 77.58C168.551 77.58 168.995 77.6873 169.387 77.902C169.788 78.1073 170.101 78.4107 170.325 78.812C170.558 79.204 170.675 79.6893 170.675 80.268V84.552C170.675 84.72 170.623 84.86 170.521 84.972C170.418 85.084 170.283 85.14 170.115 85.14C169.956 85.14 169.821 85.084 169.709 84.972C169.606 84.86 169.555 84.72 169.555 84.552V80.31C169.555 79.778 169.401 79.3627 169.093 79.064C168.785 78.7653 168.383 78.616 167.889 78.616C167.543 78.616 167.217 78.686 166.909 78.826C166.61 78.966 166.367 79.1667 166.181 79.428C166.003 79.68 165.915 79.9833 165.915 80.338V84.552C165.915 84.72 165.859 84.86 165.747 84.972C165.644 85.084 165.509 85.14 165.341 85.14Z" fill="#2E2C28"/>
</g>
<defs>
<filter id="filter0_d_5990_16514" x="0" y="0" width="191" height="113" filterUnits="userSpaceOnUse" color-interpolation-filters="sRGB">
<feFlood flood-opacity="0" result="BackgroundImageFix"/>
<feColorMatrix in="SourceAlpha" type="matrix" values="0 0 0 0 0 0 0 0 0 0 0 0 0 0 0 0 0 0 127 0" result="hardAlpha"/>
<feOffset dy="4"/>
<feGaussianBlur stdDeviation="2"/>
<feComposite in2="hardAlpha" operator="out"/>
<feColorMatrix type="matrix" values="0 0 0 0 0 0 0 0 0 0 0 0 0 0 0 0 0 0 0.15 0"/>
<feBlend mode="normal" in2="BackgroundImageFix" result="effect1_dropShadow_5990_16514"/>
<feBlend mode="normal" in="SourceGraphic" in2="effect1_dropShadow_5990_16514" result="shape"/>
</filter>
</defs>
</svg>
