<svg width="253" height="60" viewBox="0 0 253 60" fill="none" xmlns="http://www.w3.org/2000/svg">
<g filter="url(#filter0_d_6007_18024)">
<rect x="6" y="2" width="241" height="48" rx="16" fill="#E0F6EB"/>
<rect x="5" y="1" width="243" height="50" rx="17" stroke="#267F53" stroke-width="2"/>
<path d="M24.6 30.18C23.976 30.18 23.428 30.076 22.956 29.868C22.492 29.66 22.128 29.396 21.864 29.076C21.608 28.748 21.48 28.408 21.48 28.056C21.48 27.856 21.54 27.692 21.66 27.564C21.788 27.436 21.956 27.372 22.164 27.372C22.364 27.372 22.512 27.432 22.608 27.552C22.704 27.664 22.788 27.796 22.86 27.948C22.98 28.196 23.172 28.416 23.436 28.608C23.708 28.792 24.08 28.884 24.552 28.884C24.824 28.884 25.076 28.848 25.308 28.776C25.54 28.704 25.724 28.584 25.86 28.416C26.004 28.24 26.076 28.016 26.076 27.744C26.076 27.504 26.012 27.308 25.884 27.156C25.764 27.004 25.58 26.864 25.332 26.736C25.084 26.608 24.772 26.472 24.396 26.328C24.108 26.216 23.816 26.096 23.52 25.968C23.224 25.84 22.956 25.688 22.716 25.512C22.476 25.328 22.28 25.096 22.128 24.816C21.984 24.528 21.912 24.172 21.912 23.748C21.912 23.236 22.028 22.808 22.26 22.464C22.492 22.12 22.804 21.86 23.196 21.684C23.596 21.508 24.044 21.42 24.54 21.42C24.916 21.42 25.26 21.468 25.572 21.564C25.884 21.66 26.156 21.796 26.388 21.972C26.628 22.14 26.812 22.332 26.94 22.548C27.076 22.756 27.152 22.98 27.168 23.22C27.176 23.42 27.12 23.588 27 23.724C26.88 23.852 26.716 23.916 26.508 23.916C26.332 23.916 26.204 23.88 26.124 23.808C26.052 23.736 25.976 23.624 25.896 23.472C25.784 23.232 25.62 23.044 25.404 22.908C25.196 22.772 24.92 22.704 24.576 22.704C24.336 22.704 24.12 22.744 23.928 22.824C23.744 22.904 23.6 23.016 23.496 23.16C23.392 23.296 23.34 23.472 23.34 23.688C23.34 23.952 23.42 24.168 23.58 24.336C23.74 24.496 23.948 24.632 24.204 24.744C24.468 24.856 24.752 24.972 25.056 25.092C25.424 25.244 25.756 25.396 26.052 25.548C26.356 25.7 26.616 25.872 26.832 26.064C27.048 26.256 27.212 26.484 27.324 26.748C27.444 27.004 27.504 27.308 27.504 27.66C27.504 28.188 27.384 28.644 27.144 29.028C26.904 29.404 26.564 29.692 26.124 29.892C25.692 30.084 25.184 30.18 24.6 30.18ZM30.6124 30.18C30.2124 30.18 29.8484 30.104 29.5204 29.952C29.2004 29.8 28.9444 29.588 28.7524 29.316C28.5604 29.036 28.4644 28.704 28.4644 28.32C28.4644 27.76 28.6524 27.312 29.0284 26.976C29.4044 26.632 30.0164 26.404 30.8644 26.292C31.1524 26.252 31.4084 26.212 31.6324 26.172C31.8644 26.132 32.0484 26.068 32.1844 25.98C32.3204 25.884 32.3884 25.748 32.3884 25.572C32.3884 25.428 32.3524 25.3 32.2804 25.188C32.2084 25.076 32.0964 24.988 31.9444 24.924C31.8004 24.86 31.6124 24.828 31.3804 24.828C31.0684 24.828 30.8244 24.888 30.6484 25.008C30.4804 25.12 30.3444 25.248 30.2404 25.392C30.1604 25.496 30.0604 25.58 29.9404 25.644C29.8284 25.708 29.7004 25.74 29.5564 25.74C29.3644 25.74 29.2124 25.688 29.1004 25.584C28.9884 25.48 28.9324 25.34 28.9324 25.164C28.9324 24.98 28.9924 24.8 29.1124 24.624C29.2324 24.44 29.4004 24.276 29.6164 24.132C29.8324 23.98 30.0924 23.86 30.3964 23.772C30.7004 23.684 31.0324 23.64 31.3924 23.64C31.9364 23.64 32.3804 23.74 32.7244 23.94C33.0764 24.14 33.3364 24.416 33.5044 24.768C33.6804 25.12 33.7684 25.52 33.7684 25.968V28.548C33.7684 28.636 33.7764 28.7 33.7924 28.74C33.8164 28.78 33.8644 28.808 33.9364 28.824C34.0564 28.856 34.1684 28.924 34.2724 29.028C34.3764 29.132 34.4284 29.272 34.4284 29.448C34.4284 29.632 34.3564 29.792 34.2124 29.928C34.0684 30.056 33.8684 30.12 33.6124 30.12C33.3084 30.112 33.0724 30.032 32.9044 29.88C32.7444 29.728 32.6484 29.536 32.6164 29.304V29.172H32.5804C32.3644 29.492 32.1044 29.74 31.8004 29.916C31.4964 30.092 31.1004 30.18 30.6124 30.18ZM30.8524 28.98C31.1404 28.98 31.4004 28.92 31.6324 28.8C31.8644 28.68 32.0484 28.512 32.1844 28.296C32.3284 28.08 32.4004 27.836 32.4004 27.564V27C32.4004 26.984 32.3924 26.976 32.3764 26.976C32.3684 26.968 32.3484 26.976 32.3164 27C32.2124 27.072 32.0804 27.128 31.9204 27.168C31.7684 27.208 31.6084 27.24 31.4404 27.264C31.2724 27.288 31.1124 27.316 30.9604 27.348C30.5844 27.42 30.3044 27.524 30.1204 27.66C29.9444 27.796 29.8564 27.976 29.8564 28.2C29.8564 28.416 29.9324 28.6 30.0844 28.752C30.2444 28.904 30.5004 28.98 30.8524 28.98ZM36.2352 30.12C36.0352 30.12 35.8672 30.052 35.7312 29.916C35.6032 29.772 35.5392 29.604 35.5392 29.412V21.936C35.5392 21.736 35.6032 21.572 35.7312 21.444C35.8672 21.308 36.0352 21.24 36.2352 21.24C36.4272 21.24 36.5912 21.308 36.7272 21.444C36.8632 21.572 36.9312 21.736 36.9312 21.936V29.412C36.9312 29.604 36.8632 29.772 36.7272 29.916C36.5912 30.052 36.4272 30.12 36.2352 30.12ZM41.2135 30.18C40.6535 30.18 40.1495 30.052 39.7015 29.796C39.2535 29.532 38.8975 29.16 38.6335 28.68C38.3775 28.192 38.2495 27.612 38.2495 26.94C38.2495 26.308 38.3695 25.744 38.6095 25.248C38.8495 24.752 39.1815 24.36 39.6055 24.072C40.0375 23.784 40.5375 23.64 41.1055 23.64C41.5455 23.64 41.9375 23.724 42.2815 23.892C42.6255 24.052 42.9175 24.268 43.1575 24.54C43.4055 24.804 43.5935 25.1 43.7215 25.428C43.8495 25.748 43.9135 26.072 43.9135 26.4C43.9135 26.688 43.8455 26.916 43.7095 27.084C43.5815 27.244 43.3615 27.324 43.0495 27.324H39.6895C39.7375 27.7 39.8375 28.008 39.9895 28.248C40.1415 28.48 40.3295 28.652 40.5535 28.764C40.7855 28.868 41.0335 28.92 41.2975 28.92C41.6175 28.92 41.8735 28.856 42.0655 28.728C42.2655 28.592 42.4215 28.428 42.5335 28.236C42.6055 28.156 42.6855 28.084 42.7735 28.02C42.8615 27.948 42.9775 27.912 43.1215 27.912C43.3055 27.912 43.4575 27.972 43.5775 28.092C43.6975 28.212 43.7535 28.376 43.7455 28.584C43.7455 28.76 43.6815 28.944 43.5535 29.136C43.4335 29.32 43.2615 29.492 43.0375 29.652C42.8215 29.804 42.5575 29.928 42.2455 30.024C41.9415 30.128 41.5975 30.18 41.2135 30.18ZM39.6895 26.304H42.5335C42.4775 25.856 42.3255 25.508 42.0775 25.26C41.8375 25.004 41.5175 24.876 41.1175 24.876C40.7415 24.876 40.4255 24.996 40.1695 25.236C39.9135 25.468 39.7535 25.824 39.6895 26.304ZM47.4386 30.216C46.9026 30.216 46.4426 30.128 46.0586 29.952C45.6826 29.768 45.3906 29.552 45.1826 29.304C44.9826 29.048 44.8786 28.808 44.8706 28.584C44.8706 28.408 44.9266 28.256 45.0386 28.128C45.1506 27.992 45.3106 27.924 45.5186 27.924C45.6786 27.924 45.8066 27.96 45.9026 28.032C46.0066 28.104 46.0826 28.176 46.1306 28.248C46.2906 28.48 46.4826 28.668 46.7066 28.812C46.9306 28.948 47.2026 29.016 47.5226 29.016C47.8426 29.016 48.0786 28.952 48.2306 28.824C48.3826 28.696 48.4586 28.536 48.4586 28.344C48.4586 28.184 48.4066 28.052 48.3026 27.948C48.1986 27.836 48.0466 27.744 47.8466 27.672C47.6546 27.592 47.4226 27.512 47.1506 27.432C46.8946 27.352 46.6426 27.268 46.3946 27.18C46.1546 27.084 45.9346 26.968 45.7346 26.832C45.5346 26.688 45.3746 26.512 45.2546 26.304C45.1346 26.096 45.0746 25.836 45.0746 25.524C45.0746 25.172 45.1706 24.852 45.3626 24.564C45.5546 24.276 45.8226 24.048 46.1666 23.88C46.5106 23.704 46.9146 23.616 47.3786 23.616C47.8266 23.616 48.2146 23.692 48.5426 23.844C48.8786 23.996 49.1386 24.188 49.3226 24.42C49.5066 24.644 49.5986 24.876 49.5986 25.116C49.6066 25.292 49.5626 25.44 49.4666 25.56C49.3706 25.672 49.2266 25.728 49.0346 25.728C48.8906 25.728 48.7626 25.696 48.6506 25.632C48.5386 25.56 48.4466 25.48 48.3746 25.392C48.3186 25.304 48.2506 25.216 48.1706 25.128C48.0906 25.04 47.9826 24.964 47.8466 24.9C47.7186 24.836 47.5466 24.804 47.3306 24.804C47.0506 24.804 46.8306 24.864 46.6706 24.984C46.5186 25.104 46.4426 25.256 46.4426 25.44C46.4426 25.608 46.5026 25.74 46.6226 25.836C46.7426 25.932 46.9106 26.02 47.1266 26.1C47.3506 26.172 47.6226 26.264 47.9426 26.376C48.2146 26.464 48.4626 26.56 48.6866 26.664C48.9186 26.768 49.1186 26.892 49.2866 27.036C49.4626 27.172 49.5986 27.336 49.6946 27.528C49.7906 27.712 49.8386 27.936 49.8386 28.2C49.8386 28.56 49.7506 28.896 49.5746 29.208C49.3986 29.512 49.1306 29.756 48.7706 29.94C48.4186 30.124 47.9746 30.216 47.4386 30.216ZM55.161 30.12C54.969 30.12 54.805 30.052 54.669 29.916C54.533 29.78 54.465 29.612 54.465 29.412V21.936C54.465 21.736 54.533 21.572 54.669 21.444C54.805 21.308 54.969 21.24 55.161 21.24C55.353 21.24 55.517 21.308 55.653 21.444C55.789 21.572 55.857 21.736 55.857 21.936V25.152L55.545 24.972C55.809 24.524 56.113 24.192 56.457 23.976C56.809 23.752 57.209 23.64 57.657 23.64C58.089 23.64 58.473 23.732 58.809 23.916C59.153 24.1 59.421 24.372 59.613 24.732C59.805 25.092 59.901 25.532 59.901 26.052V29.412C59.901 29.612 59.833 29.78 59.697 29.916C59.569 30.052 59.409 30.12 59.217 30.12C59.025 30.12 58.861 30.052 58.725 29.916C58.589 29.78 58.521 29.612 58.521 29.412V26.244C58.521 25.836 58.409 25.516 58.185 25.284C57.969 25.044 57.669 24.924 57.285 24.924C57.005 24.924 56.757 24.984 56.541 25.104C56.325 25.224 56.157 25.388 56.037 25.596C55.917 25.796 55.857 26.028 55.857 26.292V29.412C55.857 29.612 55.789 29.78 55.653 29.916C55.517 30.052 55.353 30.12 55.161 30.12ZM63.3077 30.18C62.9077 30.18 62.5437 30.104 62.2157 29.952C61.8957 29.8 61.6397 29.588 61.4477 29.316C61.2557 29.036 61.1597 28.704 61.1597 28.32C61.1597 27.76 61.3477 27.312 61.7237 26.976C62.0997 26.632 62.7117 26.404 63.5597 26.292C63.8477 26.252 64.1037 26.212 64.3277 26.172C64.5597 26.132 64.7437 26.068 64.8797 25.98C65.0157 25.884 65.0837 25.748 65.0837 25.572C65.0837 25.428 65.0477 25.3 64.9757 25.188C64.9037 25.076 64.7917 24.988 64.6397 24.924C64.4957 24.86 64.3077 24.828 64.0757 24.828C63.7637 24.828 63.5197 24.888 63.3437 25.008C63.1757 25.12 63.0397 25.248 62.9357 25.392C62.8557 25.496 62.7557 25.58 62.6357 25.644C62.5237 25.708 62.3957 25.74 62.2517 25.74C62.0597 25.74 61.9077 25.688 61.7957 25.584C61.6837 25.48 61.6277 25.34 61.6277 25.164C61.6277 24.98 61.6877 24.8 61.8077 24.624C61.9277 24.44 62.0957 24.276 62.3117 24.132C62.5277 23.98 62.7877 23.86 63.0917 23.772C63.3957 23.684 63.7277 23.64 64.0877 23.64C64.6317 23.64 65.0757 23.74 65.4197 23.94C65.7717 24.14 66.0317 24.416 66.1997 24.768C66.3757 25.12 66.4637 25.52 66.4637 25.968V28.548C66.4637 28.636 66.4717 28.7 66.4877 28.74C66.5117 28.78 66.5597 28.808 66.6317 28.824C66.7517 28.856 66.8637 28.924 66.9677 29.028C67.0717 29.132 67.1237 29.272 67.1237 29.448C67.1237 29.632 67.0517 29.792 66.9077 29.928C66.7637 30.056 66.5637 30.12 66.3077 30.12C66.0037 30.112 65.7677 30.032 65.5997 29.88C65.4397 29.728 65.3437 29.536 65.3117 29.304V29.172H65.2757C65.0597 29.492 64.7997 29.74 64.4957 29.916C64.1917 30.092 63.7957 30.18 63.3077 30.18ZM63.5477 28.98C63.8357 28.98 64.0957 28.92 64.3277 28.8C64.5597 28.68 64.7437 28.512 64.8797 28.296C65.0237 28.08 65.0957 27.836 65.0957 27.564V27C65.0957 26.984 65.0877 26.976 65.0717 26.976C65.0637 26.968 65.0437 26.976 65.0117 27C64.9077 27.072 64.7757 27.128 64.6157 27.168C64.4637 27.208 64.3037 27.24 64.1357 27.264C63.9677 27.288 63.8077 27.316 63.6557 27.348C63.2797 27.42 62.9997 27.524 62.8157 27.66C62.6397 27.796 62.5517 27.976 62.5517 28.2C62.5517 28.416 62.6277 28.6 62.7797 28.752C62.9397 28.904 63.1957 28.98 63.5477 28.98ZM70.4425 30.216C69.9065 30.216 69.4465 30.128 69.0625 29.952C68.6865 29.768 68.3945 29.552 68.1865 29.304C67.9865 29.048 67.8825 28.808 67.8745 28.584C67.8745 28.408 67.9305 28.256 68.0425 28.128C68.1545 27.992 68.3145 27.924 68.5225 27.924C68.6825 27.924 68.8105 27.96 68.9065 28.032C69.0105 28.104 69.0865 28.176 69.1345 28.248C69.2945 28.48 69.4865 28.668 69.7105 28.812C69.9345 28.948 70.2065 29.016 70.5265 29.016C70.8465 29.016 71.0825 28.952 71.2345 28.824C71.3865 28.696 71.4625 28.536 71.4625 28.344C71.4625 28.184 71.4105 28.052 71.3065 27.948C71.2025 27.836 71.0505 27.744 70.8505 27.672C70.6585 27.592 70.4265 27.512 70.1545 27.432C69.8985 27.352 69.6465 27.268 69.3985 27.18C69.1585 27.084 68.9385 26.968 68.7385 26.832C68.5385 26.688 68.3785 26.512 68.2585 26.304C68.1385 26.096 68.0785 25.836 68.0785 25.524C68.0785 25.172 68.1745 24.852 68.3665 24.564C68.5585 24.276 68.8265 24.048 69.1705 23.88C69.5145 23.704 69.9185 23.616 70.3825 23.616C70.8305 23.616 71.2185 23.692 71.5465 23.844C71.8825 23.996 72.1425 24.188 72.3265 24.42C72.5105 24.644 72.6025 24.876 72.6025 25.116C72.6105 25.292 72.5665 25.44 72.4705 25.56C72.3745 25.672 72.2305 25.728 72.0385 25.728C71.8945 25.728 71.7665 25.696 71.6545 25.632C71.5425 25.56 71.4505 25.48 71.3785 25.392C71.3225 25.304 71.2545 25.216 71.1745 25.128C71.0945 25.04 70.9865 24.964 70.8505 24.9C70.7225 24.836 70.5505 24.804 70.3345 24.804C70.0545 24.804 69.8345 24.864 69.6745 24.984C69.5225 25.104 69.4465 25.256 69.4465 25.44C69.4465 25.608 69.5065 25.74 69.6265 25.836C69.7465 25.932 69.9145 26.02 70.1305 26.1C70.3545 26.172 70.6265 26.264 70.9465 26.376C71.2185 26.464 71.4665 26.56 71.6905 26.664C71.9225 26.768 72.1225 26.892 72.2905 27.036C72.4665 27.172 72.6025 27.336 72.6985 27.528C72.7945 27.712 72.8425 27.936 72.8425 28.2C72.8425 28.56 72.7545 28.896 72.5785 29.208C72.4025 29.512 72.1345 29.756 71.7745 29.94C71.4225 30.124 70.9785 30.216 70.4425 30.216ZM80.6249 30.18C80.2889 30.18 79.9849 30.116 79.7129 29.988C79.4489 29.852 79.2249 29.684 79.0409 29.484C78.8569 29.276 78.7209 29.06 78.6329 28.836H78.8489V29.292C78.8569 29.524 78.7929 29.72 78.6569 29.88C78.5209 30.032 78.3569 30.108 78.1649 30.108C77.9649 30.108 77.7969 30.04 77.6609 29.904C77.5329 29.768 77.4689 29.6 77.4689 29.4V21.936C77.4689 21.736 77.5329 21.572 77.6609 21.444C77.7969 21.308 77.9649 21.24 78.1649 21.24C78.3569 21.24 78.5169 21.308 78.6449 21.444C78.7809 21.572 78.8489 21.736 78.8489 21.936V24.9L78.6449 24.78C78.7729 24.556 78.9289 24.36 79.1129 24.192C79.3049 24.024 79.5249 23.892 79.7729 23.796C80.0289 23.692 80.3129 23.64 80.6249 23.64C81.1609 23.64 81.6289 23.784 82.0289 24.072C82.4289 24.352 82.7409 24.74 82.9649 25.236C83.1889 25.724 83.3009 26.28 83.3009 26.904C83.3009 27.528 83.1929 28.088 82.9769 28.584C82.7609 29.08 82.4529 29.472 82.0529 29.76C81.6529 30.04 81.1769 30.18 80.6249 30.18ZM80.3249 28.908C80.8209 28.908 81.2049 28.732 81.4769 28.38C81.7489 28.028 81.8849 27.54 81.8849 26.916C81.8849 26.284 81.7489 25.788 81.4769 25.428C81.2049 25.06 80.8249 24.876 80.3369 24.876C79.8569 24.876 79.4809 25.06 79.2089 25.428C78.9369 25.796 78.8009 26.288 78.8009 26.904C78.8009 27.336 78.8649 27.7 78.9929 27.996C79.1209 28.292 79.2969 28.516 79.5209 28.668C79.7529 28.82 80.0209 28.9 80.3249 28.908ZM87.2213 30.18C86.6613 30.18 86.1573 30.052 85.7093 29.796C85.2613 29.532 84.9053 29.16 84.6413 28.68C84.3853 28.192 84.2573 27.612 84.2573 26.94C84.2573 26.308 84.3773 25.744 84.6173 25.248C84.8573 24.752 85.1893 24.36 85.6133 24.072C86.0453 23.784 86.5453 23.64 87.1133 23.64C87.5533 23.64 87.9453 23.724 88.2893 23.892C88.6333 24.052 88.9253 24.268 89.1653 24.54C89.4133 24.804 89.6013 25.1 89.7293 25.428C89.8573 25.748 89.9213 26.072 89.9213 26.4C89.9213 26.688 89.8533 26.916 89.7173 27.084C89.5893 27.244 89.3693 27.324 89.0573 27.324H85.6973C85.7453 27.7 85.8453 28.008 85.9973 28.248C86.1493 28.48 86.3373 28.652 86.5613 28.764C86.7933 28.868 87.0413 28.92 87.3053 28.92C87.6253 28.92 87.8813 28.856 88.0733 28.728C88.2733 28.592 88.4293 28.428 88.5413 28.236C88.6133 28.156 88.6933 28.084 88.7813 28.02C88.8693 27.948 88.9853 27.912 89.1293 27.912C89.3133 27.912 89.4653 27.972 89.5853 28.092C89.7053 28.212 89.7613 28.376 89.7533 28.584C89.7533 28.76 89.6893 28.944 89.5613 29.136C89.4413 29.32 89.2693 29.492 89.0453 29.652C88.8293 29.804 88.5653 29.928 88.2533 30.024C87.9493 30.128 87.6053 30.18 87.2213 30.18ZM85.6973 26.304H88.5413C88.4853 25.856 88.3333 25.508 88.0853 25.26C87.8453 25.004 87.5253 24.876 87.1253 24.876C86.7493 24.876 86.4333 24.996 86.1773 25.236C85.9213 25.468 85.7613 25.824 85.6973 26.304ZM93.8424 30.18C93.2824 30.18 92.7784 30.052 92.3304 29.796C91.8824 29.532 91.5264 29.16 91.2624 28.68C91.0064 28.192 90.8784 27.612 90.8784 26.94C90.8784 26.308 90.9984 25.744 91.2384 25.248C91.4784 24.752 91.8104 24.36 92.2344 24.072C92.6664 23.784 93.1664 23.64 93.7344 23.64C94.1744 23.64 94.5664 23.724 94.9104 23.892C95.2544 24.052 95.5464 24.268 95.7864 24.54C96.0344 24.804 96.2224 25.1 96.3504 25.428C96.4784 25.748 96.5424 26.072 96.5424 26.4C96.5424 26.688 96.4744 26.916 96.3384 27.084C96.2104 27.244 95.9904 27.324 95.6784 27.324H92.3184C92.3664 27.7 92.4664 28.008 92.6184 28.248C92.7704 28.48 92.9584 28.652 93.1824 28.764C93.4144 28.868 93.6624 28.92 93.9264 28.92C94.2464 28.92 94.5024 28.856 94.6944 28.728C94.8944 28.592 95.0504 28.428 95.1624 28.236C95.2344 28.156 95.3144 28.084 95.4024 28.02C95.4904 27.948 95.6064 27.912 95.7504 27.912C95.9344 27.912 96.0864 27.972 96.2064 28.092C96.3264 28.212 96.3824 28.376 96.3744 28.584C96.3744 28.76 96.3104 28.944 96.1824 29.136C96.0624 29.32 95.8904 29.492 95.6664 29.652C95.4504 29.804 95.1864 29.928 94.8744 30.024C94.5704 30.128 94.2264 30.18 93.8424 30.18ZM92.3184 26.304H95.1624C95.1064 25.856 94.9544 25.508 94.7064 25.26C94.4664 25.004 94.1464 24.876 93.7464 24.876C93.3704 24.876 93.0544 24.996 92.7984 25.236C92.5424 25.468 92.3824 25.824 92.3184 26.304ZM98.5555 30.12C98.3555 30.12 98.1875 30.052 98.0515 29.916C97.9235 29.78 97.8595 29.612 97.8595 29.412V24.396C97.8595 24.196 97.9235 24.032 98.0515 23.904C98.1875 23.768 98.3555 23.7 98.5555 23.7C98.7475 23.7 98.9115 23.768 99.0475 23.904C99.1835 24.032 99.2515 24.196 99.2515 24.396V25.152L98.9635 24.972C99.2195 24.524 99.5195 24.192 99.8635 23.976C100.216 23.752 100.616 23.64 101.064 23.64C101.496 23.64 101.884 23.732 102.228 23.916C102.572 24.1 102.84 24.372 103.032 24.732C103.224 25.092 103.32 25.532 103.32 26.052V29.412C103.32 29.612 103.256 29.78 103.128 29.916C103 30.052 102.836 30.12 102.636 30.12C102.428 30.12 102.26 30.052 102.132 29.916C102.004 29.78 101.94 29.612 101.94 29.412V26.244C101.94 25.836 101.828 25.516 101.604 25.284C101.38 25.044 101.072 24.924 100.68 24.924C100.4 24.924 100.152 24.984 99.9355 25.104C99.7195 25.224 99.5515 25.388 99.4315 25.596C99.3115 25.796 99.2515 26.028 99.2515 26.292V29.412C99.2515 29.612 99.1835 29.78 99.0475 29.916C98.9195 30.052 98.7555 30.12 98.5555 30.12ZM108.938 30.12C108.746 30.12 108.582 30.052 108.446 29.916C108.31 29.772 108.242 29.604 108.242 29.412V24.396C108.242 24.204 108.31 24.04 108.446 23.904C108.582 23.768 108.75 23.7 108.95 23.7C109.158 23.7 109.322 23.768 109.442 23.904C109.57 24.04 109.634 24.204 109.634 24.396V25.044L109.442 24.864C109.522 24.68 109.638 24.496 109.79 24.312C109.942 24.12 110.126 23.96 110.342 23.832C110.558 23.704 110.802 23.64 111.074 23.64C111.298 23.64 111.478 23.704 111.614 23.832C111.758 23.952 111.83 24.116 111.83 24.324C111.83 24.516 111.758 24.68 111.614 24.816C111.478 24.952 111.298 25.02 111.074 25.02C110.762 25.02 110.498 25.08 110.282 25.2C110.066 25.32 109.902 25.484 109.79 25.692C109.686 25.892 109.634 26.12 109.634 26.376V29.412C109.634 29.604 109.566 29.772 109.43 29.916C109.294 30.052 109.13 30.12 108.938 30.12ZM115.147 30.18C114.587 30.18 114.083 30.052 113.635 29.796C113.187 29.532 112.831 29.16 112.567 28.68C112.311 28.192 112.183 27.612 112.183 26.94C112.183 26.308 112.303 25.744 112.543 25.248C112.783 24.752 113.115 24.36 113.539 24.072C113.971 23.784 114.471 23.64 115.039 23.64C115.479 23.64 115.871 23.724 116.215 23.892C116.559 24.052 116.851 24.268 117.091 24.54C117.339 24.804 117.527 25.1 117.655 25.428C117.783 25.748 117.847 26.072 117.847 26.4C117.847 26.688 117.779 26.916 117.643 27.084C117.515 27.244 117.295 27.324 116.983 27.324H113.623C113.671 27.7 113.771 28.008 113.923 28.248C114.075 28.48 114.263 28.652 114.487 28.764C114.719 28.868 114.967 28.92 115.231 28.92C115.551 28.92 115.807 28.856 115.999 28.728C116.199 28.592 116.355 28.428 116.467 28.236C116.539 28.156 116.619 28.084 116.707 28.02C116.795 27.948 116.911 27.912 117.055 27.912C117.239 27.912 117.391 27.972 117.511 28.092C117.631 28.212 117.687 28.376 117.679 28.584C117.679 28.76 117.615 28.944 117.487 29.136C117.367 29.32 117.195 29.492 116.971 29.652C116.755 29.804 116.491 29.928 116.179 30.024C115.875 30.128 115.531 30.18 115.147 30.18ZM113.623 26.304H116.467C116.411 25.856 116.259 25.508 116.011 25.26C115.771 25.004 115.451 24.876 115.051 24.876C114.675 24.876 114.359 24.996 114.103 25.236C113.847 25.468 113.687 25.824 113.623 26.304ZM121.708 30.18C121.132 30.18 120.624 30.036 120.184 29.748C119.752 29.46 119.412 29.068 119.164 28.572C118.924 28.076 118.804 27.52 118.804 26.904C118.804 26.28 118.924 25.724 119.164 25.236C119.412 24.748 119.756 24.36 120.196 24.072C120.636 23.784 121.148 23.64 121.732 23.64C122.164 23.64 122.54 23.712 122.86 23.856C123.18 24 123.428 24.184 123.604 24.408C123.788 24.624 123.884 24.848 123.892 25.08C123.9 25.288 123.84 25.448 123.712 25.56C123.584 25.664 123.432 25.716 123.256 25.716C123.128 25.716 123.02 25.692 122.932 25.644C122.852 25.596 122.784 25.536 122.728 25.464C122.648 25.328 122.528 25.2 122.368 25.08C122.208 24.952 121.984 24.888 121.696 24.888C121.392 24.888 121.128 24.972 120.904 25.14C120.688 25.3 120.52 25.532 120.4 25.836C120.28 26.14 120.22 26.496 120.22 26.904C120.22 27.536 120.356 28.028 120.628 28.38C120.9 28.732 121.268 28.908 121.732 28.908C122.076 28.908 122.34 28.824 122.524 28.656C122.708 28.488 122.844 28.3 122.932 28.092C123.004 27.972 123.08 27.868 123.16 27.78C123.24 27.692 123.356 27.648 123.508 27.648C123.7 27.648 123.856 27.716 123.976 27.852C124.104 27.988 124.164 28.16 124.156 28.368C124.156 28.544 124.096 28.74 123.976 28.956C123.864 29.164 123.7 29.364 123.484 29.556C123.276 29.74 123.02 29.888 122.716 30C122.42 30.12 122.084 30.18 121.708 30.18ZM128.014 30.18C127.43 30.18 126.914 30.04 126.466 29.76C126.026 29.472 125.682 29.08 125.434 28.584C125.186 28.088 125.062 27.524 125.062 26.892C125.062 26.26 125.186 25.7 125.434 25.212C125.682 24.724 126.026 24.34 126.466 24.06C126.914 23.78 127.43 23.64 128.014 23.64C128.614 23.64 129.134 23.78 129.574 24.06C130.022 24.34 130.37 24.724 130.618 25.212C130.866 25.7 130.99 26.26 130.99 26.892C130.99 27.524 130.866 28.088 130.618 28.584C130.37 29.08 130.022 29.472 129.574 29.76C129.134 30.04 128.614 30.18 128.014 30.18ZM128.014 28.908C128.51 28.908 128.894 28.736 129.166 28.392C129.438 28.04 129.574 27.54 129.574 26.892C129.574 26.26 129.438 25.772 129.166 25.428C128.894 25.076 128.51 24.9 128.014 24.9C127.526 24.9 127.146 25.076 126.874 25.428C126.61 25.772 126.478 26.26 126.478 26.892C126.478 27.54 126.61 28.04 126.874 28.392C127.146 28.736 127.526 28.908 128.014 28.908ZM133.009 30.12C132.817 30.12 132.653 30.052 132.517 29.916C132.381 29.772 132.313 29.604 132.313 29.412V24.396C132.313 24.204 132.381 24.04 132.517 23.904C132.653 23.768 132.821 23.7 133.021 23.7C133.229 23.7 133.393 23.768 133.513 23.904C133.641 24.04 133.705 24.204 133.705 24.396V25.044L133.513 24.864C133.593 24.68 133.709 24.496 133.861 24.312C134.013 24.12 134.197 23.96 134.413 23.832C134.629 23.704 134.873 23.64 135.145 23.64C135.369 23.64 135.549 23.704 135.685 23.832C135.829 23.952 135.901 24.116 135.901 24.324C135.901 24.516 135.829 24.68 135.685 24.816C135.549 24.952 135.369 25.02 135.145 25.02C134.833 25.02 134.569 25.08 134.353 25.2C134.137 25.32 133.973 25.484 133.861 25.692C133.757 25.892 133.705 26.12 133.705 26.376V29.412C133.705 29.604 133.637 29.772 133.501 29.916C133.365 30.052 133.201 30.12 133.009 30.12ZM138.917 30.18C138.373 30.18 137.901 30.04 137.501 29.76C137.101 29.472 136.793 29.08 136.577 28.584C136.361 28.088 136.253 27.528 136.253 26.904C136.253 26.28 136.365 25.724 136.589 25.236C136.813 24.74 137.125 24.352 137.525 24.072C137.933 23.784 138.405 23.64 138.941 23.64C139.253 23.64 139.529 23.684 139.769 23.772C140.017 23.86 140.233 23.984 140.417 24.144C140.601 24.304 140.761 24.492 140.897 24.708L140.693 24.792V21.936C140.693 21.736 140.757 21.572 140.885 21.444C141.021 21.308 141.189 21.24 141.389 21.24C141.581 21.24 141.741 21.308 141.869 21.444C142.005 21.572 142.073 21.736 142.073 21.936V29.4C142.073 29.6 142.005 29.768 141.869 29.904C141.741 30.04 141.581 30.108 141.389 30.108C141.189 30.108 141.021 30.032 140.885 29.88C140.757 29.72 140.693 29.524 140.693 29.292L140.705 28.836H140.909C140.829 29.06 140.697 29.276 140.513 29.484C140.329 29.684 140.101 29.852 139.829 29.988C139.565 30.116 139.261 30.18 138.917 30.18ZM139.229 28.92C139.693 28.912 140.061 28.732 140.333 28.38C140.605 28.02 140.741 27.532 140.741 26.916C140.741 26.3 140.605 25.808 140.333 25.44C140.069 25.072 139.693 24.888 139.205 24.888C138.733 24.888 138.357 25.072 138.077 25.44C137.805 25.8 137.669 26.296 137.669 26.928C137.669 27.552 137.805 28.04 138.077 28.392C138.349 28.744 138.733 28.92 139.229 28.92ZM146.354 30.18C145.794 30.18 145.29 30.052 144.842 29.796C144.394 29.532 144.038 29.16 143.774 28.68C143.518 28.192 143.39 27.612 143.39 26.94C143.39 26.308 143.51 25.744 143.75 25.248C143.99 24.752 144.322 24.36 144.746 24.072C145.178 23.784 145.678 23.64 146.246 23.64C146.686 23.64 147.078 23.724 147.422 23.892C147.766 24.052 148.058 24.268 148.298 24.54C148.546 24.804 148.734 25.1 148.862 25.428C148.99 25.748 149.054 26.072 149.054 26.4C149.054 26.688 148.986 26.916 148.85 27.084C148.722 27.244 148.502 27.324 148.19 27.324H144.83C144.878 27.7 144.978 28.008 145.13 28.248C145.282 28.48 145.47 28.652 145.694 28.764C145.926 28.868 146.174 28.92 146.438 28.92C146.758 28.92 147.014 28.856 147.206 28.728C147.406 28.592 147.562 28.428 147.674 28.236C147.746 28.156 147.826 28.084 147.914 28.02C148.002 27.948 148.118 27.912 148.262 27.912C148.446 27.912 148.598 27.972 148.718 28.092C148.838 28.212 148.894 28.376 148.886 28.584C148.886 28.76 148.822 28.944 148.694 29.136C148.574 29.32 148.402 29.492 148.178 29.652C147.962 29.804 147.698 29.928 147.386 30.024C147.082 30.128 146.738 30.18 146.354 30.18ZM144.83 26.304H147.674C147.618 25.856 147.466 25.508 147.218 25.26C146.978 25.004 146.658 24.876 146.258 24.876C145.882 24.876 145.566 24.996 145.31 25.236C145.054 25.468 144.894 25.824 144.83 26.304ZM152.675 30.18C152.131 30.18 151.659 30.04 151.259 29.76C150.859 29.472 150.551 29.08 150.335 28.584C150.119 28.088 150.011 27.528 150.011 26.904C150.011 26.28 150.123 25.724 150.347 25.236C150.571 24.74 150.883 24.352 151.283 24.072C151.691 23.784 152.163 23.64 152.699 23.64C153.011 23.64 153.287 23.684 153.527 23.772C153.775 23.86 153.991 23.984 154.175 24.144C154.359 24.304 154.519 24.492 154.655 24.708L154.451 24.792V21.936C154.451 21.736 154.515 21.572 154.643 21.444C154.779 21.308 154.947 21.24 155.147 21.24C155.339 21.24 155.499 21.308 155.627 21.444C155.763 21.572 155.831 21.736 155.831 21.936V29.4C155.831 29.6 155.763 29.768 155.627 29.904C155.499 30.04 155.339 30.108 155.147 30.108C154.947 30.108 154.779 30.032 154.643 29.88C154.515 29.72 154.451 29.524 154.451 29.292L154.463 28.836H154.667C154.587 29.06 154.455 29.276 154.271 29.484C154.087 29.684 153.859 29.852 153.587 29.988C153.323 30.116 153.019 30.18 152.675 30.18ZM152.987 28.92C153.451 28.912 153.819 28.732 154.091 28.38C154.363 28.02 154.499 27.532 154.499 26.916C154.499 26.3 154.363 25.808 154.091 25.44C153.827 25.072 153.451 24.888 152.963 24.888C152.491 24.888 152.115 25.072 151.835 25.44C151.563 25.8 151.427 26.296 151.427 26.928C151.427 27.552 151.563 28.04 151.835 28.392C152.107 28.744 152.491 28.92 152.987 28.92ZM163.021 30.216C162.485 30.216 162.025 30.128 161.641 29.952C161.265 29.768 160.973 29.552 160.765 29.304C160.565 29.048 160.461 28.808 160.453 28.584C160.453 28.408 160.509 28.256 160.621 28.128C160.733 27.992 160.893 27.924 161.101 27.924C161.261 27.924 161.389 27.96 161.485 28.032C161.589 28.104 161.665 28.176 161.713 28.248C161.873 28.48 162.065 28.668 162.289 28.812C162.513 28.948 162.785 29.016 163.105 29.016C163.425 29.016 163.661 28.952 163.813 28.824C163.965 28.696 164.041 28.536 164.041 28.344C164.041 28.184 163.989 28.052 163.885 27.948C163.781 27.836 163.629 27.744 163.429 27.672C163.237 27.592 163.005 27.512 162.733 27.432C162.477 27.352 162.225 27.268 161.977 27.18C161.737 27.084 161.517 26.968 161.317 26.832C161.117 26.688 160.957 26.512 160.837 26.304C160.717 26.096 160.657 25.836 160.657 25.524C160.657 25.172 160.753 24.852 160.945 24.564C161.137 24.276 161.405 24.048 161.749 23.88C162.093 23.704 162.497 23.616 162.961 23.616C163.409 23.616 163.797 23.692 164.125 23.844C164.461 23.996 164.721 24.188 164.905 24.42C165.089 24.644 165.181 24.876 165.181 25.116C165.189 25.292 165.145 25.44 165.049 25.56C164.953 25.672 164.809 25.728 164.617 25.728C164.473 25.728 164.345 25.696 164.233 25.632C164.121 25.56 164.029 25.48 163.957 25.392C163.901 25.304 163.833 25.216 163.753 25.128C163.673 25.04 163.565 24.964 163.429 24.9C163.301 24.836 163.129 24.804 162.913 24.804C162.633 24.804 162.413 24.864 162.253 24.984C162.101 25.104 162.025 25.256 162.025 25.44C162.025 25.608 162.085 25.74 162.205 25.836C162.325 25.932 162.493 26.02 162.709 26.1C162.933 26.172 163.205 26.264 163.525 26.376C163.797 26.464 164.045 26.56 164.269 26.664C164.501 26.768 164.701 26.892 164.869 27.036C165.045 27.172 165.181 27.336 165.277 27.528C165.373 27.712 165.421 27.936 165.421 28.2C165.421 28.56 165.333 28.896 165.157 29.208C164.981 29.512 164.713 29.756 164.353 29.94C164.001 30.124 163.557 30.216 163.021 30.216ZM168.938 30.12C168.434 30.12 168.014 30.032 167.678 29.856C167.342 29.672 167.09 29.404 166.922 29.052C166.762 28.7 166.682 28.272 166.682 27.768V24.336C166.682 24.144 166.746 23.98 166.874 23.844C167.01 23.708 167.174 23.64 167.366 23.64C167.566 23.64 167.73 23.708 167.858 23.844C167.994 23.98 168.062 24.144 168.062 24.336V27.6C168.062 28.064 168.174 28.384 168.398 28.56C168.63 28.736 168.934 28.824 169.31 28.824C169.598 28.824 169.85 28.764 170.066 28.644C170.282 28.524 170.45 28.364 170.57 28.164C170.69 27.956 170.75 27.72 170.75 27.456V24.336C170.75 24.144 170.818 23.98 170.954 23.844C171.09 23.708 171.254 23.64 171.446 23.64C171.646 23.64 171.81 23.708 171.938 23.844C172.074 23.98 172.142 24.144 172.142 24.336V29.412C172.142 29.604 172.074 29.768 171.938 29.904C171.81 30.04 171.646 30.108 171.446 30.108C171.254 30.108 171.09 30.04 170.954 29.904C170.818 29.768 170.75 29.604 170.75 29.412V28.608L171.038 28.776C170.782 29.224 170.478 29.56 170.126 29.784C169.782 30.008 169.386 30.12 168.938 30.12ZM176.364 30.18C175.788 30.18 175.28 30.036 174.84 29.748C174.408 29.46 174.068 29.068 173.82 28.572C173.58 28.076 173.46 27.52 173.46 26.904C173.46 26.28 173.58 25.724 173.82 25.236C174.068 24.748 174.412 24.36 174.852 24.072C175.292 23.784 175.804 23.64 176.388 23.64C176.82 23.64 177.196 23.712 177.516 23.856C177.836 24 178.084 24.184 178.26 24.408C178.444 24.624 178.54 24.848 178.548 25.08C178.556 25.288 178.496 25.448 178.368 25.56C178.24 25.664 178.088 25.716 177.912 25.716C177.784 25.716 177.676 25.692 177.588 25.644C177.508 25.596 177.44 25.536 177.384 25.464C177.304 25.328 177.184 25.2 177.024 25.08C176.864 24.952 176.64 24.888 176.352 24.888C176.048 24.888 175.784 24.972 175.56 25.14C175.344 25.3 175.176 25.532 175.056 25.836C174.936 26.14 174.876 26.496 174.876 26.904C174.876 27.536 175.012 28.028 175.284 28.38C175.556 28.732 175.924 28.908 176.388 28.908C176.732 28.908 176.996 28.824 177.18 28.656C177.364 28.488 177.5 28.3 177.588 28.092C177.66 27.972 177.736 27.868 177.816 27.78C177.896 27.692 178.012 27.648 178.164 27.648C178.356 27.648 178.512 27.716 178.632 27.852C178.76 27.988 178.82 28.16 178.812 28.368C178.812 28.544 178.752 28.74 178.632 28.956C178.52 29.164 178.356 29.364 178.14 29.556C177.932 29.74 177.676 29.888 177.372 30C177.076 30.12 176.74 30.18 176.364 30.18ZM182.622 30.18C182.046 30.18 181.538 30.036 181.098 29.748C180.666 29.46 180.326 29.068 180.078 28.572C179.838 28.076 179.718 27.52 179.718 26.904C179.718 26.28 179.838 25.724 180.078 25.236C180.326 24.748 180.67 24.36 181.11 24.072C181.55 23.784 182.062 23.64 182.646 23.64C183.078 23.64 183.454 23.712 183.774 23.856C184.094 24 184.342 24.184 184.518 24.408C184.702 24.624 184.798 24.848 184.806 25.08C184.814 25.288 184.754 25.448 184.626 25.56C184.498 25.664 184.346 25.716 184.17 25.716C184.042 25.716 183.934 25.692 183.846 25.644C183.766 25.596 183.698 25.536 183.642 25.464C183.562 25.328 183.442 25.2 183.282 25.08C183.122 24.952 182.898 24.888 182.61 24.888C182.306 24.888 182.042 24.972 181.818 25.14C181.602 25.3 181.434 25.532 181.314 25.836C181.194 26.14 181.134 26.496 181.134 26.904C181.134 27.536 181.27 28.028 181.542 28.38C181.814 28.732 182.182 28.908 182.646 28.908C182.99 28.908 183.254 28.824 183.438 28.656C183.622 28.488 183.758 28.3 183.846 28.092C183.918 27.972 183.994 27.868 184.074 27.78C184.154 27.692 184.27 27.648 184.422 27.648C184.614 27.648 184.77 27.716 184.89 27.852C185.018 27.988 185.078 28.16 185.07 28.368C185.07 28.544 185.01 28.74 184.89 28.956C184.778 29.164 184.614 29.364 184.398 29.556C184.19 29.74 183.934 29.888 183.63 30C183.334 30.12 182.998 30.18 182.622 30.18ZM188.94 30.18C188.38 30.18 187.876 30.052 187.428 29.796C186.98 29.532 186.624 29.16 186.36 28.68C186.104 28.192 185.976 27.612 185.976 26.94C185.976 26.308 186.096 25.744 186.336 25.248C186.576 24.752 186.908 24.36 187.332 24.072C187.764 23.784 188.264 23.64 188.832 23.64C189.272 23.64 189.664 23.724 190.008 23.892C190.352 24.052 190.644 24.268 190.884 24.54C191.132 24.804 191.32 25.1 191.448 25.428C191.576 25.748 191.64 26.072 191.64 26.4C191.64 26.688 191.572 26.916 191.436 27.084C191.308 27.244 191.088 27.324 190.776 27.324H187.416C187.464 27.7 187.564 28.008 187.716 28.248C187.868 28.48 188.056 28.652 188.28 28.764C188.512 28.868 188.76 28.92 189.024 28.92C189.344 28.92 189.6 28.856 189.792 28.728C189.992 28.592 190.148 28.428 190.26 28.236C190.332 28.156 190.412 28.084 190.5 28.02C190.588 27.948 190.704 27.912 190.848 27.912C191.032 27.912 191.184 27.972 191.304 28.092C191.424 28.212 191.48 28.376 191.472 28.584C191.472 28.76 191.408 28.944 191.28 29.136C191.16 29.32 190.988 29.492 190.764 29.652C190.548 29.804 190.284 29.928 189.972 30.024C189.668 30.128 189.324 30.18 188.94 30.18ZM187.416 26.304H190.26C190.204 25.856 190.052 25.508 189.804 25.26C189.564 25.004 189.244 24.876 188.844 24.876C188.468 24.876 188.152 24.996 187.896 25.236C187.64 25.468 187.48 25.824 187.416 26.304ZM195.165 30.216C194.629 30.216 194.169 30.128 193.785 29.952C193.409 29.768 193.117 29.552 192.909 29.304C192.709 29.048 192.605 28.808 192.597 28.584C192.597 28.408 192.653 28.256 192.765 28.128C192.877 27.992 193.037 27.924 193.245 27.924C193.405 27.924 193.533 27.96 193.629 28.032C193.733 28.104 193.809 28.176 193.857 28.248C194.017 28.48 194.209 28.668 194.433 28.812C194.657 28.948 194.929 29.016 195.249 29.016C195.569 29.016 195.805 28.952 195.957 28.824C196.109 28.696 196.185 28.536 196.185 28.344C196.185 28.184 196.133 28.052 196.029 27.948C195.925 27.836 195.773 27.744 195.573 27.672C195.381 27.592 195.149 27.512 194.877 27.432C194.621 27.352 194.369 27.268 194.121 27.18C193.881 27.084 193.661 26.968 193.461 26.832C193.261 26.688 193.101 26.512 192.981 26.304C192.861 26.096 192.801 25.836 192.801 25.524C192.801 25.172 192.897 24.852 193.089 24.564C193.281 24.276 193.549 24.048 193.893 23.88C194.237 23.704 194.641 23.616 195.105 23.616C195.553 23.616 195.941 23.692 196.269 23.844C196.605 23.996 196.865 24.188 197.049 24.42C197.233 24.644 197.325 24.876 197.325 25.116C197.333 25.292 197.289 25.44 197.193 25.56C197.097 25.672 196.953 25.728 196.761 25.728C196.617 25.728 196.489 25.696 196.377 25.632C196.265 25.56 196.173 25.48 196.101 25.392C196.045 25.304 195.977 25.216 195.897 25.128C195.817 25.04 195.709 24.964 195.573 24.9C195.445 24.836 195.273 24.804 195.057 24.804C194.777 24.804 194.557 24.864 194.397 24.984C194.245 25.104 194.169 25.256 194.169 25.44C194.169 25.608 194.229 25.74 194.349 25.836C194.469 25.932 194.637 26.02 194.853 26.1C195.077 26.172 195.349 26.264 195.669 26.376C195.941 26.464 196.189 26.56 196.413 26.664C196.645 26.768 196.845 26.892 197.013 27.036C197.189 27.172 197.325 27.336 197.421 27.528C197.517 27.712 197.565 27.936 197.565 28.2C197.565 28.56 197.477 28.896 197.301 29.208C197.125 29.512 196.857 29.756 196.497 29.94C196.145 30.124 195.701 30.216 195.165 30.216ZM201.095 30.216C200.559 30.216 200.099 30.128 199.715 29.952C199.339 29.768 199.047 29.552 198.839 29.304C198.639 29.048 198.535 28.808 198.527 28.584C198.527 28.408 198.583 28.256 198.695 28.128C198.807 27.992 198.967 27.924 199.175 27.924C199.335 27.924 199.463 27.96 199.559 28.032C199.663 28.104 199.739 28.176 199.787 28.248C199.947 28.48 200.139 28.668 200.363 28.812C200.587 28.948 200.859 29.016 201.179 29.016C201.499 29.016 201.735 28.952 201.887 28.824C202.039 28.696 202.115 28.536 202.115 28.344C202.115 28.184 202.063 28.052 201.959 27.948C201.855 27.836 201.703 27.744 201.503 27.672C201.311 27.592 201.079 27.512 200.807 27.432C200.551 27.352 200.299 27.268 200.051 27.18C199.811 27.084 199.591 26.968 199.391 26.832C199.191 26.688 199.031 26.512 198.911 26.304C198.791 26.096 198.731 25.836 198.731 25.524C198.731 25.172 198.827 24.852 199.019 24.564C199.211 24.276 199.479 24.048 199.823 23.88C200.167 23.704 200.571 23.616 201.035 23.616C201.483 23.616 201.871 23.692 202.199 23.844C202.535 23.996 202.795 24.188 202.979 24.42C203.163 24.644 203.255 24.876 203.255 25.116C203.263 25.292 203.219 25.44 203.123 25.56C203.027 25.672 202.883 25.728 202.691 25.728C202.547 25.728 202.419 25.696 202.307 25.632C202.195 25.56 202.103 25.48 202.031 25.392C201.975 25.304 201.907 25.216 201.827 25.128C201.747 25.04 201.639 24.964 201.503 24.9C201.375 24.836 201.203 24.804 200.987 24.804C200.707 24.804 200.487 24.864 200.327 24.984C200.175 25.104 200.099 25.256 200.099 25.44C200.099 25.608 200.159 25.74 200.279 25.836C200.399 25.932 200.567 26.02 200.783 26.1C201.007 26.172 201.279 26.264 201.599 26.376C201.871 26.464 202.119 26.56 202.343 26.664C202.575 26.768 202.775 26.892 202.943 27.036C203.119 27.172 203.255 27.336 203.351 27.528C203.447 27.712 203.495 27.936 203.495 28.2C203.495 28.56 203.407 28.896 203.231 29.208C203.055 29.512 202.787 29.756 202.427 29.94C202.075 30.124 201.631 30.216 201.095 30.216ZM205.873 30.12C205.681 30.12 205.517 30.052 205.381 29.916C205.245 29.78 205.177 29.616 205.177 29.424V22.968C205.177 22.616 205.241 22.308 205.369 22.044C205.497 21.772 205.685 21.56 205.933 21.408C206.181 21.256 206.477 21.18 206.821 21.18C207.045 21.18 207.265 21.216 207.481 21.288C207.697 21.36 207.873 21.464 208.009 21.6C208.153 21.736 208.225 21.908 208.225 22.116C208.225 22.308 208.165 22.464 208.045 22.584C207.925 22.704 207.769 22.764 207.577 22.764C207.457 22.764 207.357 22.744 207.277 22.704C207.205 22.664 207.137 22.624 207.073 22.584C207.009 22.544 206.937 22.524 206.857 22.524C206.745 22.524 206.665 22.576 206.617 22.68C206.577 22.776 206.557 22.912 206.557 23.088V29.424C206.557 29.616 206.489 29.78 206.353 29.916C206.225 30.052 206.065 30.12 205.873 30.12ZM204.793 25.032C204.625 25.032 204.477 24.976 204.349 24.864C204.229 24.744 204.169 24.6 204.169 24.432C204.169 24.256 204.229 24.112 204.349 24C204.477 23.88 204.625 23.82 204.793 23.82H207.541C207.709 23.82 207.853 23.88 207.973 24C208.101 24.12 208.165 24.264 208.165 24.432C208.165 24.6 208.101 24.744 207.973 24.864C207.853 24.976 207.709 25.032 207.541 25.032H204.793ZM211.325 30.12C210.821 30.12 210.401 30.032 210.065 29.856C209.729 29.672 209.477 29.404 209.309 29.052C209.149 28.7 209.069 28.272 209.069 27.768V24.336C209.069 24.144 209.133 23.98 209.261 23.844C209.397 23.708 209.561 23.64 209.753 23.64C209.953 23.64 210.117 23.708 210.245 23.844C210.381 23.98 210.449 24.144 210.449 24.336V27.6C210.449 28.064 210.561 28.384 210.785 28.56C211.017 28.736 211.321 28.824 211.697 28.824C211.985 28.824 212.237 28.764 212.453 28.644C212.669 28.524 212.837 28.364 212.957 28.164C213.077 27.956 213.137 27.72 213.137 27.456V24.336C213.137 24.144 213.205 23.98 213.341 23.844C213.477 23.708 213.641 23.64 213.833 23.64C214.033 23.64 214.197 23.708 214.325 23.844C214.461 23.98 214.529 24.144 214.529 24.336V29.412C214.529 29.604 214.461 29.768 214.325 29.904C214.197 30.04 214.033 30.108 213.833 30.108C213.641 30.108 213.477 30.04 213.341 29.904C213.205 29.768 213.137 29.604 213.137 29.412V28.608L213.425 28.776C213.169 29.224 212.865 29.56 212.513 29.784C212.169 30.008 211.773 30.12 211.325 30.12ZM216.903 30.12C216.703 30.12 216.535 30.052 216.399 29.916C216.271 29.772 216.207 29.604 216.207 29.412V21.936C216.207 21.736 216.271 21.572 216.399 21.444C216.535 21.308 216.703 21.24 216.903 21.24C217.095 21.24 217.259 21.308 217.395 21.444C217.531 21.572 217.599 21.736 217.599 21.936V29.412C217.599 29.604 217.531 29.772 217.395 29.916C217.259 30.052 217.095 30.12 216.903 30.12ZM219.974 30.12C219.774 30.12 219.606 30.052 219.47 29.916C219.342 29.772 219.278 29.604 219.278 29.412V21.936C219.278 21.736 219.342 21.572 219.47 21.444C219.606 21.308 219.774 21.24 219.974 21.24C220.166 21.24 220.33 21.308 220.466 21.444C220.602 21.572 220.67 21.736 220.67 21.936V29.412C220.67 29.604 220.602 29.772 220.466 29.916C220.33 30.052 220.166 30.12 219.974 30.12ZM223.416 32.568C223.112 32.568 222.844 32.512 222.612 32.4C222.38 32.296 222.196 32.156 222.06 31.98C221.932 31.804 221.868 31.624 221.868 31.44C221.868 31.264 221.928 31.116 222.048 30.996C222.168 30.884 222.324 30.828 222.516 30.828C222.668 30.828 222.78 30.856 222.852 30.912C222.924 30.976 222.988 31.036 223.044 31.092C223.092 31.14 223.14 31.18 223.188 31.212C223.236 31.244 223.288 31.26 223.344 31.26C223.416 31.26 223.476 31.232 223.524 31.176C223.572 31.12 223.612 31.044 223.644 30.948L224.076 29.784L222.06 24.66C222.012 24.524 222.004 24.384 222.036 24.24C222.076 24.088 222.152 23.96 222.264 23.856C222.384 23.752 222.528 23.7 222.696 23.7C222.856 23.7 222.992 23.748 223.104 23.844C223.216 23.932 223.296 24.044 223.344 24.18L225.012 28.548L224.544 28.704L226.224 24.132C226.272 24.004 226.352 23.9 226.464 23.82C226.584 23.74 226.724 23.7 226.884 23.7C227.06 23.7 227.2 23.752 227.304 23.856C227.416 23.952 227.488 24.072 227.52 24.216C227.56 24.352 227.552 24.492 227.496 24.636L224.988 31.2C224.804 31.68 224.588 32.028 224.34 32.244C224.1 32.46 223.792 32.568 223.416 32.568ZM229.478 27.636C229.294 27.636 229.142 27.576 229.022 27.456C228.91 27.328 228.85 27.172 228.842 26.988L228.782 22.032C228.782 21.824 228.846 21.656 228.974 21.528C229.11 21.392 229.278 21.324 229.478 21.324C229.686 21.324 229.854 21.392 229.982 21.528C230.118 21.656 230.186 21.824 230.186 22.032L230.114 26.988C230.114 27.172 230.054 27.328 229.934 27.456C229.814 27.576 229.662 27.636 229.478 27.636ZM229.49 30.144C229.234 30.144 229.026 30.064 228.866 29.904C228.706 29.744 228.626 29.512 228.626 29.208C228.626 28.912 228.706 28.684 228.866 28.524C229.026 28.356 229.234 28.272 229.49 28.272C229.746 28.272 229.954 28.356 230.114 28.524C230.274 28.684 230.354 28.912 230.354 29.208C230.354 29.512 230.274 29.744 230.114 29.904C229.954 30.064 229.746 30.144 229.49 30.144Z" fill="black"/>
</g>
<defs>
<filter id="filter0_d_6007_18024" x="0" y="0" width="253" height="60" filterUnits="userSpaceOnUse" color-interpolation-filters="sRGB">
<feFlood flood-opacity="0" result="BackgroundImageFix"/>
<feColorMatrix in="SourceAlpha" type="matrix" values="0 0 0 0 0 0 0 0 0 0 0 0 0 0 0 0 0 0 127 0" result="hardAlpha"/>
<feOffset dy="4"/>
<feGaussianBlur stdDeviation="2"/>
<feColorMatrix type="matrix" values="0 0 0 0 0 0 0 0 0 0 0 0 0 0 0 0 0 0 0.15 0"/>
<feBlend mode="normal" in2="BackgroundImageFix" result="effect1_dropShadow_6007_18024"/>
<feBlend mode="normal" in="SourceGraphic" in2="effect1_dropShadow_6007_18024" result="shape"/>
</filter>
</defs>
</svg>
