<svg width="32" height="32" viewBox="0 0 32 32" fill="none" xmlns="http://www.w3.org/2000/svg">
<g clip-path="url(#clip0_1451_2380)">
<path d="M15.96 3.93052L18.071 9.28152C18.221 9.66052 18.521 9.96052 18.9 10.1105L24.251 12.2215C25.493 12.7115 25.493 14.4685 24.251 14.9585L18.9 17.0695C18.521 17.2195 18.221 17.5195 18.071 17.8985L15.96 23.2495C15.47 24.4915 13.713 24.4915 13.223 23.2495L11.112 17.8985C10.962 17.5195 10.662 17.2195 10.283 17.0695L4.931 14.9595C3.689 14.4695 3.689 12.7125 4.931 12.2225L10.282 10.1115C10.661 9.96152 10.961 9.66152 11.111 9.28252L13.222 3.93052C13.712 2.68852 15.469 2.68852 15.959 3.93052H15.96Z" fill="#2E2C28"/>
<path d="M24.666 18.5366L25.652 21.0376C25.722 21.2146 25.862 21.3546 26.039 21.4246L28.54 22.4106C29.12 22.6396 29.12 23.4606 28.54 23.6896L26.039 24.6756C25.862 24.7456 25.722 24.8856 25.652 25.0626L24.666 27.5636C24.437 28.1436 23.616 28.1436 23.387 27.5636L22.401 25.0626C22.331 24.8856 22.191 24.7456 22.014 24.6756L19.513 23.6896C18.933 23.4606 18.933 22.6396 19.513 22.4106L22.014 21.4246C22.191 21.3546 22.331 21.2146 22.401 21.0376L23.387 18.5366C23.616 17.9566 24.437 17.9566 24.666 18.5366Z" fill="#2E2C28"/>
</g>
<defs>
<clipPath id="clip0_1451_2380">
<rect width="24.976" height="25" fill="white" transform="translate(4 3)"/>
</clipPath>
</defs>
</svg>
