<svg width="25" height="25" viewBox="0 0 25 25" fill="none" xmlns="http://www.w3.org/2000/svg">
<g clip-path="url(#clip0_940_1048)">
<path d="M11.96 0.930523L14.071 6.28152C14.221 6.66052 14.521 6.96052 14.9 7.11052L20.251 9.22152C21.493 9.71152 21.493 11.4685 20.251 11.9585L14.9 14.0695C14.521 14.2195 14.221 14.5195 14.071 14.8985L11.96 20.2495C11.47 21.4915 9.713 21.4915 9.223 20.2495L7.112 14.8985C6.962 14.5195 6.662 14.2195 6.283 14.0695L0.930996 11.9595C-0.311004 11.4695 -0.311004 9.71252 0.930996 9.22252L6.282 7.11152C6.661 6.96152 6.961 6.66152 7.111 6.28252L9.222 0.930523C9.712 -0.311477 11.469 -0.311477 11.959 0.930523H11.96Z" fill="#2D42C9"/>
<path d="M20.666 15.5366L21.652 18.0376C21.722 18.2146 21.862 18.3546 22.039 18.4246L24.54 19.4106C25.12 19.6396 25.12 20.4606 24.54 20.6896L22.039 21.6756C21.862 21.7456 21.722 21.8856 21.652 22.0626L20.666 24.5636C20.437 25.1436 19.616 25.1436 19.387 24.5636L18.401 22.0626C18.331 21.8856 18.191 21.7456 18.014 21.6756L15.513 20.6896C14.933 20.4606 14.933 19.6396 15.513 19.4106L18.014 18.4246C18.191 18.3546 18.331 18.2146 18.401 18.0376L19.387 15.5366C19.616 14.9566 20.437 14.9566 20.666 15.5366Z" fill="#2D42C9"/>
</g>
<defs>
<clipPath id="clip0_940_1048">
<rect width="24.976" height="25" fill="white"/>
</clipPath>
</defs>
</svg>
