<svg width="25" height="14" viewBox="0 0 25 14" fill="none" xmlns="http://www.w3.org/2000/svg">
<g clip-path="url(#clip0_833_3683)">
<path d="M13.124 13.0055C12.76 13.4795 12.057 13.4565 11.701 12.9765C8.822 9.08648 4.918 5.59348 0.696002 3.52748C-0.182998 2.82049 -0.251998 1.47948 0.618002 0.687485C1.308 0.058485 2.382 0.0934849 3.107 0.682485C5.903 2.95448 10.174 7.27448 12.34 9.50848C14.474 7.21948 18.676 2.79848 21.43 0.477485C22.144 -0.124516 23.217 -0.178515 23.918 0.438484C24.802 1.21548 24.757 2.55748 23.89 3.27948C18.493 6.45748 14.639 11.0295 13.124 13.0055Z" fill="#807B6F"/>
</g>
<defs>
<clipPath id="clip0_833_3683">
<rect width="24.561" height="13.349" fill="white" transform="matrix(1 0 0 -1 0 13.349)"/>
</clipPath>
</defs>
</svg>
