<svg width="31" height="30" viewBox="0 0 31 30" fill="none" xmlns="http://www.w3.org/2000/svg">
<g clip-path="url(#clip0_117_354)">
<path d="M28.6157 1.72534L1.0696 24.7929L1.06174 24.8008C0.183513 25.5884 -0.167776 26.5938 0.0760291 27.6267C0.323767 28.6856 1.19806 29.5971 2.25193 29.8931C2.50622 29.9649 2.76051 30.0001 3.01087 30.0001C3.77506 30.0001 4.51041 29.6727 5.14089 29.039L29.7036 2.63558L28.6157 1.72534Z" fill="#4A4640"/>
<path d="M29.9238 2.39419C30.013 1.66783 29.3759 1.08491 28.6498 1.19967C22.7696 2.12686 16.331 1.82823 10.8441 0.0116684C9.46254 -0.125258 8.24613 0.985804 8.32609 2.42419C8.39032 3.56524 9.36292 4.45592 10.5059 4.56285C14.9193 4.97755 22.3921 4.868 26.2196 4.77542C26.1186 8.60415 25.9954 16.0686 26.4123 20.4581C26.5197 21.5952 27.415 22.5629 28.5619 22.6268C30.0077 22.7063 31.1245 21.4961 30.9869 20.1216C28.9879 12.7172 29.5477 5.41962 29.9225 2.39419H29.9238Z" fill="#4A4640"/>
</g>
<defs>
<clipPath id="clip0_117_354">
<rect width="31" height="30" fill="white"/>
</clipPath>
</defs>
</svg>
