<svg width="30" height="31" viewBox="0 0 30 31" fill="none" xmlns="http://www.w3.org/2000/svg">
<path d="M28.2747 28.6152L5.20712 1.06908L5.1993 1.06122C4.41165 0.182994 3.40621 -0.168295 2.37339 0.0755103C1.31449 0.323248 0.40295 1.19754 0.106928 2.25141C0.0352039 2.5057 -3.8147e-06 2.75999 -3.8147e-06 3.01035C-3.8147e-06 3.77454 0.327316 4.50989 0.96109 5.14037L27.3645 29.7031L28.2747 28.6152Z" fill="#4A4640"/>
<path d="M27.6059 29.9235C28.3322 30.0126 28.9151 29.3756 28.8004 28.6494C27.8732 22.7693 28.1718 16.3307 29.9884 10.8438C30.1253 9.4622 29.0143 8.2458 27.5759 8.32575C26.4348 8.38998 25.5441 9.36258 25.4372 10.5056C25.0225 14.919 25.1321 22.3918 25.2246 26.2192C21.3959 26.1183 13.9314 25.9951 9.54197 26.4119C8.40482 26.5194 7.43721 27.4147 7.37331 28.5616C7.29376 30.0074 8.50393 31.1242 9.87841 30.9866C17.2829 28.9876 24.5804 29.5473 27.6059 29.9222V29.9235Z" fill="#4A4640"/>
</svg>
