<svg width="32" height="32" viewBox="0 0 32 32" fill="none" xmlns="http://www.w3.org/2000/svg">
<g clip-path="url(#clip0_131_597)">
<path d="M22.207 15.9101C18.248 12.9791 14.692 9.00507 12.59 4.70907C11.871 3.81407 10.505 3.74307 9.69899 4.62907C9.05899 5.33207 9.09499 6.42507 9.69399 7.16207C12.007 10.0081 16.404 14.3551 18.678 16.5601C16.348 18.7321 11.848 23.0091 9.48599 25.8131C8.87399 26.5401 8.81899 27.6321 9.44599 28.3461C10.237 29.2461 11.603 29.2001 12.338 28.3181C15.572 22.8241 20.226 18.9011 22.238 17.3591C22.721 16.9891 22.697 16.2731 22.208 15.9111L22.207 15.9101Z" fill="#807B6F"/>
</g>
<defs>
<clipPath id="clip0_131_597">
<rect width="13.587" height="25" fill="white" transform="translate(9 4)"/>
</clipPath>
</defs>
</svg>
