<svg width="32" height="32" viewBox="0 0 32 32" fill="none" xmlns="http://www.w3.org/2000/svg">
<g clip-path="url(#clip0_117_372)">
<path d="M17.124 22.0051C16.76 22.4791 16.057 22.4561 15.701 21.9761C12.822 18.0861 8.918 14.5931 4.696 12.5271C3.817 11.8201 3.748 10.4791 4.618 9.68712C5.308 9.05812 6.382 9.09312 7.107 9.68212C9.903 11.9541 14.174 16.2741 16.34 18.5081C18.474 16.2191 22.676 11.7981 25.43 9.47712C26.144 8.87512 27.217 8.82112 27.918 9.43812C28.802 10.2151 28.757 11.5571 27.89 12.2791C22.493 15.4571 18.639 20.0291 17.124 22.0051Z" fill="#807B6F"/>
</g>
<defs>
<clipPath id="clip0_117_372">
<rect width="24.561" height="13.349" fill="white" transform="matrix(1 0 0 -1 4 22.3486)"/>
</clipPath>
</defs>
</svg>
