<svg width="30" height="30" viewBox="0 0 30 30" fill="none" xmlns="http://www.w3.org/2000/svg">
<path d="M20.45 17.7995L15.66 19.6395C15.51 19.6995 15.41 19.8395 15.41 19.9995V25.9195C15.41 26.1995 15.69 26.3795 15.94 26.2795L20.73 24.3795C20.88 24.3195 20.98 24.1795 20.98 24.0195V18.1595C20.98 17.8895 20.71 17.6995 20.45 17.7995Z" fill="#656158"/>
<path d="M20.06 16.6398L18.58 16.0098C18.52 15.9798 18.45 15.9798 18.39 16.0098L13.34 18.0698C13.13 18.1598 13.14 18.4598 13.34 18.5298L14.93 19.0998C15.02 19.1298 15.11 19.1298 15.19 19.0998L20.03 17.3598C20.36 17.2398 20.38 16.7698 20.05 16.6298L20.06 16.6398Z" fill="#656158"/>
<path d="M10.1 17.3696L11.07 17.7196C11.13 17.7396 11.19 17.7396 11.25 17.7196L16.92 15.3096L15.23 14.5896C15.13 14.5496 15.02 14.5496 14.92 14.5896L10.08 16.6496C9.75001 16.7896 9.77001 17.2596 10.1 17.3796V17.3696Z" fill="#656158"/>
<path d="M14.48 19.6395L13.08 19.0995C12.92 19.0395 12.74 19.1595 12.74 19.3295V21.0895C12.74 21.3395 12.49 21.5095 12.26 21.4195L11.39 21.0895C11.25 21.0395 11.16 20.8995 11.16 20.7595V18.5295C11.16 18.4295 11.1 18.3295 11 18.2995L9.69 17.7995C9.43 17.6995 9.16 17.8895 9.16 18.1595V24.0195C9.16 24.1795 9.26 24.3195 9.41 24.3795L14.2 26.2795C14.46 26.3795 14.73 26.1895 14.73 25.9195V19.9995C14.73 19.8395 14.63 19.6895 14.48 19.6395Z" fill="#656158"/>
<path d="M9.35999 15.4201L14.15 13.5201C14.3 13.4601 14.4 13.3201 14.4 13.1601V7.30014C14.4 7.03014 14.13 6.84014 13.87 6.94014L9.07999 8.78014C8.92999 8.84014 8.82999 8.98014 8.82999 9.14014V15.0601C8.82999 15.3401 9.10999 15.5201 9.35999 15.4201Z" fill="#656158"/>
<path d="M13.48 5.76969L12 5.13969C11.94 5.10969 11.87 5.10969 11.81 5.13969L6.76 7.19969C6.55 7.28969 6.56 7.58969 6.76 7.65969L8.35 8.22969C8.44 8.25969 8.53 8.25969 8.61 8.22969L13.45 6.48969C13.78 6.36969 13.8 5.89969 13.47 5.75969L13.48 5.76969Z" fill="#656158"/>
<path d="M3.50999 6.50043L4.47999 6.85043C4.53999 6.87043 4.59999 6.87043 4.65999 6.85043L10.33 4.44043L8.63999 3.72043C8.53999 3.68043 8.42999 3.68043 8.32999 3.72043L3.48999 5.78043C3.15999 5.92043 3.17999 6.39043 3.50999 6.51043V6.50043Z" fill="#656158"/>
<path d="M7.89001 8.76963L6.49001 8.22963C6.33001 8.16963 6.15001 8.28963 6.15001 8.45963V10.2096C6.15001 10.4596 5.90001 10.6296 5.67001 10.5396L4.80001 10.2096C4.66001 10.1596 4.57001 10.0196 4.57001 9.87963V7.64963C4.57001 7.54963 4.51001 7.44963 4.41001 7.41963L3.10001 6.91963C2.84001 6.81963 2.57001 7.00963 2.57001 7.27963V13.1396C2.57001 13.2996 2.67001 13.4396 2.82001 13.4996L7.61001 15.3996C7.87001 15.4996 8.14001 15.3096 8.14001 15.0396V9.11963C8.14001 8.95963 8.04001 8.80963 7.89001 8.75963V8.76963Z" fill="#656158"/>
<path d="M26.9 6.93037L22.11 8.77037C21.96 8.83037 21.86 8.97037 21.86 9.13037V15.0504C21.86 15.3304 22.14 15.5104 22.39 15.4104L27.18 13.5104C27.33 13.4504 27.43 13.3104 27.43 13.1504V7.29037C27.43 7.02037 27.16 6.83037 26.9 6.93037Z" fill="#656158"/>
<path d="M26.51 5.76969L25.03 5.13969C24.97 5.10969 24.9 5.10969 24.84 5.13969L19.79 7.19969C19.58 7.28969 19.59 7.58969 19.79 7.65969L21.38 8.22969C21.47 8.25969 21.56 8.25969 21.64 8.22969L26.48 6.48969C26.81 6.36969 26.83 5.89969 26.5 5.75969L26.51 5.76969Z" fill="#656158"/>
<path d="M16.54 6.50043L17.51 6.85043C17.57 6.87043 17.63 6.87043 17.69 6.85043L23.36 4.44043L21.67 3.72043C21.57 3.68043 21.46 3.68043 21.36 3.72043L16.52 5.78043C16.19 5.92043 16.21 6.39043 16.54 6.51043V6.50043Z" fill="#656158"/>
<path d="M20.92 8.76963L19.52 8.22963C19.36 8.16963 19.18 8.28963 19.18 8.45963V10.2096C19.18 10.4596 18.93 10.6296 18.7 10.5396L17.83 10.2096C17.69 10.1596 17.6 10.0196 17.6 9.87963V7.64963C17.6 7.54963 17.54 7.44963 17.44 7.41963L16.13 6.91963C15.87 6.81963 15.6 7.00963 15.6 7.27963V13.1396C15.6 13.2996 15.7 13.4396 15.85 13.4996L20.64 15.3996C20.9 15.4996 21.17 15.3096 21.17 15.0396V9.11963C21.17 8.95963 21.07 8.80963 20.92 8.75963V8.76963Z" fill="#656158"/>
</svg>
