<svg width="25" height="23" viewBox="0 0 25 23" fill="none" xmlns="http://www.w3.org/2000/svg">
<g clip-path="url(#clip0_1135_2771)">
<path d="M13.453 11.8039L18.267 9.89289C18.417 9.83389 18.515 9.68889 18.515 9.52789V3.62989C18.515 3.35389 18.238 3.16389 17.981 3.26289L13.167 5.11489C13.015 5.17289 12.915 5.31889 12.915 5.48189V11.4379C12.915 11.7149 13.195 11.9059 13.453 11.8039Z" fill="#807B6F"/>
<path d="M17.593 2.0998L16.006 1.4248L10.226 3.7868L12.438 4.5828C12.524 4.6138 12.618 4.6138 12.704 4.5828L17.573 2.8308C17.909 2.7098 17.921 2.2398 17.593 2.0998Z" fill="#807B6F"/>
<path d="M12.725 0.0305234C12.627 -0.0114766 12.516 -0.0114766 12.418 0.0305234L7.549 2.09952C7.22 2.23952 7.234 2.70952 7.57 2.83052L8.635 3.21352L14.424 0.753523L12.725 0.0305234Z" fill="#807B6F"/>
<path d="M11.974 5.11586L10.225 4.44286V6.57186C10.225 6.82286 9.974 6.99586 9.739 6.90786L8.865 6.57986C8.725 6.52686 8.632 6.39286 8.632 6.24386V3.83086L7.159 3.26386C6.902 3.16486 6.625 3.35486 6.625 3.63086V9.52887C6.625 9.68987 6.723 9.83487 6.873 9.89387L11.687 11.8049C11.945 11.9069 12.225 11.7169 12.225 11.4399V5.48387C12.225 5.32187 12.125 5.17586 11.973 5.11686L11.974 5.11586Z" fill="#807B6F"/>
<path d="M6.827 22.6027L11.641 20.6917C11.791 20.6327 11.889 20.4877 11.889 20.3267V14.4287C11.889 14.1527 11.612 13.9627 11.355 14.0617L6.541 15.9137C6.389 15.9717 6.289 16.1177 6.289 16.2807V22.2367C6.289 22.5137 6.569 22.7037 6.827 22.6017V22.6027Z" fill="#807B6F"/>
<path d="M10.966 12.8986L9.379 12.2236L3.599 14.5856L5.811 15.3816C5.897 15.4126 5.991 15.4126 6.077 15.3816L10.946 13.6296C11.282 13.5086 11.295 13.0386 10.967 12.8986H10.966Z" fill="#807B6F"/>
<path d="M6.098 10.8303C6 10.7883 5.889 10.7883 5.791 10.8303L0.922001 12.8993C0.593001 13.0393 0.607001 13.5093 0.943001 13.6303L2.008 14.0133L7.799 11.5523L6.098 10.8303Z" fill="#807B6F"/>
<path d="M5.34799 15.9147L3.59899 15.2417V17.3707C3.59899 17.6217 3.34799 17.7947 3.11299 17.7067L2.23899 17.3787C2.09899 17.3257 2.00599 17.1917 2.00599 17.0427V14.6297L0.532993 14.0627C0.275993 13.9637 -0.00100708 14.1537 -0.00100708 14.4297V20.3277C-0.00100708 20.4887 0.0969929 20.6337 0.246993 20.6927L5.06099 22.6037C5.31899 22.7057 5.59899 22.5157 5.59899 22.2387V16.2827C5.59899 16.1207 5.49899 15.9747 5.34699 15.9157L5.34799 15.9147Z" fill="#807B6F"/>
<path d="M19.938 22.6027L24.752 20.6917C24.902 20.6327 25 20.4877 25 20.3267V14.4287C25 14.1527 24.723 13.9627 24.466 14.0617L19.652 15.9137C19.5 15.9717 19.4 16.1177 19.4 16.2807V22.2367C19.4 22.5137 19.68 22.7037 19.938 22.6017V22.6027Z" fill="#807B6F"/>
<path d="M24.078 12.8986L22.491 12.2236L16.711 14.5856L18.923 15.3816C19.009 15.4126 19.103 15.4126 19.189 15.3816L24.058 13.6296C24.394 13.5086 24.407 13.0386 24.079 12.8986H24.078Z" fill="#807B6F"/>
<path d="M19.209 10.8303C19.111 10.7883 19 10.7883 18.902 10.8303L14.033 12.8993C13.704 13.0393 13.718 13.5093 14.054 13.6303L15.119 14.0133L20.91 11.5523L19.209 10.8303Z" fill="#807B6F"/>
<path d="M18.459 15.9147L16.71 15.2417V17.3707C16.71 17.6217 16.459 17.7947 16.224 17.7067L15.35 17.3787C15.21 17.3257 15.117 17.1917 15.117 17.0427V14.6297L13.644 14.0627C13.387 13.9637 13.11 14.1537 13.11 14.4297V20.3277C13.11 20.4887 13.208 20.6337 13.358 20.6927L18.172 22.6037C18.43 22.7057 18.71 22.5157 18.71 22.2387V16.2827C18.71 16.1207 18.61 15.9747 18.458 15.9157L18.459 15.9147Z" fill="#807B6F"/>
</g>
<defs>
<clipPath id="clip0_1135_2771">
<rect width="25" height="22.631" fill="white"/>
</clipPath>
</defs>
</svg>
