<svg width="30" height="30" viewBox="0 0 30 30" fill="none" xmlns="http://www.w3.org/2000/svg">
<g clip-path="url(#clip0_628_1658)">
<path d="M7.8 9.18041L10.75 8.95041C11.03 8.93041 11.3 8.93041 11.58 8.95041L14.53 9.18041C15.46 9.22041 15.48 7.85041 14.55 7.86041L11.42 8.01041C11.25 8.01041 11.08 8.01041 10.92 8.01041L7.79 7.86041C6.86 7.85041 6.88 9.22041 7.81 9.18041H7.8Z" fill="#656158"/>
<path d="M14.55 12.6299L11.42 12.7799C11.25 12.7799 11.08 12.7799 10.92 12.7799L7.79 12.6299C6.86 12.6199 6.88 13.9899 7.81 13.9499L10.76 13.7199C11.04 13.6999 11.31 13.6999 11.59 13.7199L14.54 13.9499C15.47 13.9899 15.49 12.6199 14.56 12.6299H14.55Z" fill="#656158"/>
<path d="M22.16 12.2798H25.53C25.97 12.2798 26.33 11.9198 26.33 11.4798V5.6098C26.26 4.5498 25.51 2.5498 23.17 2.5498H6.78C5.59 2.5498 4.89 3.0198 4.51 3.4198C3.64 4.3198 3.67 5.5498 3.67 5.6498V25.3998C3.67 25.9798 3.97 26.5098 4.48 26.7998C4.99 27.0898 5.59 27.0898 6.1 26.7998L8.38 25.4898L11.64 27.2898C11.88 27.4298 12.15 27.4898 12.42 27.4898C12.67 27.4898 12.91 27.4298 13.14 27.3198L16.92 25.4298L19.45 26.8298C19.96 27.1098 20.56 27.0998 21.05 26.8098C21.55 26.5198 21.85 25.9998 21.85 25.4198V24.2498C24.24 23.9098 26.08 21.8698 26.08 19.3798C26.08 16.8898 24.23 14.8598 21.85 14.5098V12.5698C21.85 12.3998 21.98 12.2698 22.15 12.2698L22.16 12.2798ZM22.26 4.4798C22.47 4.2698 22.77 4.1598 23.17 4.1598C24.52 4.1598 24.69 5.4498 24.71 5.6498V10.3598C24.71 10.5298 24.58 10.6598 24.41 10.6598H22.15C21.98 10.6598 21.85 10.5298 21.85 10.3598V5.6298C21.85 5.4298 21.91 4.8198 22.25 4.4698L22.26 4.4798ZM17.71 24.0198C17.24 23.7598 16.68 23.7498 16.2 23.9898L12.42 25.8798L9.16 24.0798C8.92 23.9398 8.65 23.8798 8.38 23.8798C8.11 23.8798 7.82 23.9498 7.57 24.0898L5.29 25.3998V5.6298C5.29 5.6298 5.28 4.94981 5.68 4.5298C5.92 4.2798 6.28 4.1598 6.78 4.1598H20.56C20.24 4.8798 20.24 5.5698 20.25 5.6498V14.5398C17.96 14.9698 16.23 16.9798 16.23 19.3798C16.23 21.7798 17.97 23.7898 20.25 24.2198V25.4098L17.72 24.0098L17.71 24.0198ZM24.5 19.3798C24.5 21.2198 23 22.7198 21.16 22.7198C19.32 22.7198 17.82 21.2198 17.82 19.3798C17.82 17.5398 19.32 16.0398 21.16 16.0398C23 16.0398 24.5 17.5398 24.5 19.3798Z" fill="#656158"/>
<path d="M14.55 17.3604L11.42 17.5104C11.25 17.5104 11.08 17.5104 10.92 17.5104L7.79 17.3604C6.86 17.3504 6.88 18.7204 7.81 18.6804L10.76 18.4504C11.04 18.4304 11.31 18.4304 11.59 18.4504L14.54 18.6804C15.47 18.7204 15.49 17.3504 14.56 17.3604H14.55Z" fill="#656158"/>
<path d="M20.99 17.1097V17.4297C20.83 17.4497 20.68 17.4797 20.55 17.5297C20.36 17.6097 20.21 17.7297 20.11 17.8797C20 18.0297 19.95 18.2297 19.95 18.4597C19.95 18.6597 19.98 18.8197 20.05 18.9497C20.12 19.0797 20.21 19.1797 20.32 19.2697C20.43 19.3497 20.56 19.4197 20.7 19.4797C20.8 19.5197 20.89 19.5497 20.99 19.5897V20.7297C20.86 20.7097 20.74 20.6797 20.66 20.6297C20.53 20.5497 20.44 20.4497 20.39 20.3497C20.35 20.2797 20.31 20.2197 20.27 20.1697C20.23 20.1197 20.16 20.0897 20.06 20.0897C19.96 20.0897 19.88 20.1197 19.83 20.1797C19.77 20.2397 19.74 20.3197 19.74 20.4097C19.74 20.5597 19.8 20.7097 19.92 20.8597C20.04 21.0097 20.21 21.1197 20.43 21.2197C20.59 21.2897 20.78 21.3197 20.98 21.3397V21.6797C20.98 21.7397 21 21.7997 21.05 21.8497C21.1 21.8997 21.15 21.9197 21.22 21.9197C21.29 21.9197 21.34 21.8997 21.39 21.8497C21.44 21.7997 21.46 21.7497 21.46 21.6797V21.3397C21.63 21.3197 21.79 21.2897 21.93 21.2297C22.14 21.1397 22.29 21.0097 22.41 20.8497C22.52 20.6797 22.58 20.4797 22.58 20.2397C22.58 20.0797 22.55 19.9397 22.5 19.8197C22.45 19.6997 22.37 19.5997 22.27 19.5097C22.17 19.4297 22.05 19.3497 21.91 19.2797C21.78 19.2197 21.63 19.1597 21.47 19.0997V18.1097C21.47 18.1097 21.56 18.1097 21.6 18.1397C21.7 18.1997 21.77 18.2697 21.82 18.3697C21.86 18.4397 21.9 18.4897 21.94 18.5297C21.98 18.5597 22.04 18.5797 22.12 18.5797C22.22 18.5797 22.3 18.5497 22.35 18.4897C22.41 18.4297 22.43 18.3497 22.43 18.2597C22.43 18.1497 22.39 18.0497 22.32 17.9597C22.26 17.8597 22.17 17.7797 22.06 17.7097C21.95 17.6397 21.82 17.5797 21.67 17.5397C21.61 17.5197 21.53 17.5197 21.47 17.5097V17.1697C21.47 17.0997 21.45 17.0497 21.4 16.9997C21.36 16.9597 21.3 16.9297 21.23 16.9297C21.17 16.9297 21.11 16.9497 21.06 16.9997C21.01 17.0497 20.99 17.0997 20.99 17.1697V17.1097ZM20.73 18.7097C20.65 18.6397 20.62 18.5397 20.62 18.4297C20.62 18.3397 20.64 18.2697 20.69 18.2097C20.74 18.1497 20.81 18.0997 20.9 18.0697C20.93 18.0697 20.96 18.0697 20.99 18.0597V18.8797C20.89 18.8297 20.8 18.7797 20.73 18.7197V18.7097ZM21.55 19.7997C21.67 19.8497 21.75 19.9197 21.81 19.9797C21.87 20.0497 21.9 20.1297 21.9 20.2397C21.9 20.3597 21.87 20.4597 21.8 20.5297C21.73 20.5997 21.65 20.6497 21.54 20.6897C21.52 20.6897 21.49 20.6897 21.46 20.6997V19.7697C21.46 19.7697 21.53 19.7997 21.55 19.8097V19.7997Z" fill="#656158"/>
</g>
<defs>
<clipPath id="clip0_628_1658">
<rect width="30" height="30" fill="white"/>
</clipPath>
</defs>
</svg>
