<svg width="32" height="32" viewBox="0 0 32 32" fill="none" xmlns="http://www.w3.org/2000/svg">
<g clip-path="url(#clip0_135_1121)">
<path d="M11.851 15.6689H10.487C10.0678 15.6689 9.728 16.0088 9.728 16.4279V17.7919C9.728 18.2111 10.0678 18.5509 10.487 18.5509H11.851C12.2702 18.5509 12.61 18.2111 12.61 17.7919V16.4279C12.61 16.0088 12.2702 15.6689 11.851 15.6689Z" fill="#807B6F"/>
<path d="M17.067 15.6689H15.703C15.2838 15.6689 14.944 16.0088 14.944 16.4279V17.7919C14.944 18.2111 15.2838 18.5509 15.703 18.5509H17.067C17.4862 18.5509 17.826 18.2111 17.826 17.7919V16.4279C17.826 16.0088 17.4862 15.6689 17.067 15.6689Z" fill="#807B6F"/>
<path d="M22.193 15.6689H20.829C20.4098 15.6689 20.07 16.0088 20.07 16.4279V17.7919C20.07 18.2111 20.4098 18.5509 20.829 18.5509H22.193C22.6122 18.5509 22.952 18.2111 22.952 17.7919V16.4279C22.952 16.0088 22.6122 15.6689 22.193 15.6689Z" fill="#807B6F"/>
<path d="M11.851 20.082H10.487C10.0678 20.082 9.728 20.4218 9.728 20.841V22.205C9.728 22.6242 10.0678 22.964 10.487 22.964H11.851C12.2702 22.964 12.61 22.6242 12.61 22.205V20.841C12.61 20.4218 12.2702 20.082 11.851 20.082Z" fill="#807B6F"/>
<path d="M17.067 20.082H15.703C15.2838 20.082 14.944 20.4218 14.944 20.841V22.205C14.944 22.6242 15.2838 22.964 15.703 22.964H17.067C17.4862 22.964 17.826 22.6242 17.826 22.205V20.841C17.826 20.4218 17.4862 20.082 17.067 20.082Z" fill="#807B6F"/>
<path d="M22.193 20.082H20.829C20.4098 20.082 20.07 20.4218 20.07 20.841V22.205C20.07 22.6242 20.4098 22.964 20.829 22.964H22.193C22.6122 22.964 22.952 22.6242 22.952 22.205V20.841C22.952 20.4218 22.6122 20.082 22.193 20.082Z" fill="#807B6F"/>
<path d="M24.924 8.638H22.934V6.423C22.934 5.637 22.297 5 21.511 5C20.725 5 20.088 5.637 20.088 6.423V8.638H12.593V6.423C12.593 5.637 11.956 5 11.17 5C10.384 5 9.74701 5.637 9.74701 6.423V8.638H7.84801C6.27601 8.638 5.00201 9.912 5.00201 11.484V24.653C5.00201 26.225 6.27601 27.499 7.84801 27.499H24.925C26.497 27.499 27.771 26.225 27.771 24.653V11.484C27.771 9.912 26.496 8.638 24.924 8.638ZM24.924 24.654H7.84601V13.889H24.923L24.924 24.654Z" fill="#807B6F"/>
</g>
<defs>
<clipPath id="clip0_135_1121">
<rect width="22.77" height="22.5" fill="white" transform="translate(5 5)"/>
</clipPath>
</defs>
</svg>
