<svg width="30" height="30" viewBox="0 0 30 30" fill="none" xmlns="http://www.w3.org/2000/svg">
<g clip-path="url(#clip0_117_351)">
<path d="M16.799 15.002L29.152 4.30995C29.86 3.65295 30.144 2.78195 29.931 1.92195C29.71 1.03195 29.01 0.306955 28.146 0.0759546C27.332 -0.144045 26.519 0.112955 25.858 0.799955L15 12.862L4.135 0.793955C3.48 0.111955 2.67 -0.141045 1.855 0.0769546C0.991002 0.306955 0.290002 1.03195 0.0690017 1.92295C-0.143998 2.78295 0.140002 3.65395 0.856002 4.31895L13.201 15.003L0.848002 25.694C0.140002 26.351 -0.143998 27.222 0.0690017 28.082C0.290002 28.972 0.990002 29.697 1.854 29.928C2.671 30.15 3.481 29.891 4.142 29.204L15 17.142L25.865 29.212C26.366 29.734 26.96 30.005 27.577 30.005C27.765 30.005 27.955 29.98 28.146 29.929C29.01 29.698 29.711 28.973 29.931 28.083C30.144 27.223 29.86 26.352 29.144 25.687L16.799 15.003V15.002Z" fill="#4A4640"/>
</g>
<defs>
<clipPath id="clip0_117_351">
<rect width="30" height="30.006" fill="white"/>
</clipPath>
</defs>
</svg>
