<svg width="30" height="30" viewBox="0 0 30 30" fill="none" xmlns="http://www.w3.org/2000/svg">
<path d="M16.7992 15.0027L29.1522 4.31069C29.8602 3.65369 30.1442 2.78269 29.9312 1.92269C29.7102 1.03269 29.0102 0.307687 28.1462 0.0766871C27.3322 -0.143313 26.5192 0.113687 25.8582 0.800687L15.0002 12.8627L4.1352 0.794687C3.4802 0.112687 2.6702 -0.140313 1.8552 0.0776871C0.9912 0.307687 0.2902 1.03269 0.0692001 1.92369C-0.1438 2.78369 0.1402 3.65469 0.8562 4.31969L13.2012 15.0037L0.8482 25.6947C0.1402 26.3517 -0.1438 27.2227 0.0692001 28.0827C0.2902 28.9727 0.9902 29.6977 1.8542 29.9287C2.6712 30.1507 3.4812 29.8917 4.1422 29.2047L15.0002 17.1427L25.8652 29.2127C26.3662 29.7347 26.9602 30.0057 27.5772 30.0057C27.7652 30.0057 27.9552 29.9807 28.1462 29.9297C29.0102 29.6987 29.7112 28.9737 29.9312 28.0837C30.1442 27.2237 29.8602 26.3527 29.1442 25.6877L16.7992 15.0037V15.0027Z" fill="#2E2C28"/>
</svg>
