<svg width="30" height="30" viewBox="0 0 30 30" fill="none" xmlns="http://www.w3.org/2000/svg">
<path fill-rule="evenodd" clip-rule="evenodd" d="M9.98998 21.53C6.57998 21.87 8.33998 19.29 8.24998 17.26C8.24998 15.7 6.79998 13.13 9.54998 13.3C11.96 13.21 10.79 15.6 10.72 17.03C10.65 17.94 10.88 18.8 11.02 19.74C11.25 20.53 10.98 21.36 10.13 21.51L9.99998 21.53H9.98998Z" fill="#656158"/>
<path fill-rule="evenodd" clip-rule="evenodd" d="M14.98 9.4102C17.06 9.1802 17.34 10.1902 16.99 12.1002C16.9 13.0202 16.78 13.8802 16.73 14.8002C16.58 16.6102 17.13 18.6402 17.09 20.5602C16.79 21.9702 13.84 21.8502 13.86 20.3102C13.93 18.7102 14.35 16.4402 14.23 14.7302C14.2 13.9902 14.05 12.7902 13.96 11.8102C13.82 10.8602 13.68 9.7102 14.84 9.4402L14.99 9.4102H14.98Z" fill="#656158"/>
<path fill-rule="evenodd" clip-rule="evenodd" d="M21.89 21.3704C21.11 21.4304 19.98 21.3704 19.84 20.3704C19.84 19.7004 20.18 19.0304 20.14 18.3304C20.27 17.2004 19.22 15.8804 20.52 15.2504C21.38 15.0104 22.72 14.9304 23.05 15.9804C23.18 16.7304 22.72 17.4504 22.8 18.2504C22.74 19.4604 23.8 21.0404 21.99 21.3704H21.89Z" fill="#656158"/>
<path d="M24.43 5.01C25.26 5.01 25.94 5.69 25.94 6.52V24.44C25.94 25.27 25.26 25.95 24.43 25.95H6.51C5.68 25.95 5 25.27 5 24.44V6.51C5 5.68 5.68 5 6.51 5H24.43M24.43 3.01H6.51C4.57 3.01 3 4.58 3 6.52V24.44C3 26.38 4.57 27.95 6.51 27.95H24.43C26.37 27.95 27.94 26.38 27.94 24.44V6.51C27.94 4.57 26.37 3 24.43 3V3.01Z" fill="#656158"/>
</svg>
