<svg width="32" height="32" viewBox="0 0 32 32" fill="none" xmlns="http://www.w3.org/2000/svg">
<path d="M19.8598 6.52626V6.1483C19.8598 5.79044 19.5446 5.5 19.1561 5.5H12.8446C12.4561 5.5 12.1409 5.79044 12.1409 6.1483V6.52626C12.1409 6.88412 11.8256 7.17455 11.4372 7.17455H7.2037C6.81526 7.17455 6.5 7.46499 6.5 7.82285V8.8517C6.5 9.20956 6.81526 9.5 7.2037 9.5H24.7963C25.1847 9.5 25.5 9.20956 25.5 8.8517V7.82285C25.5 7.46499 25.1847 7.17455 24.7963 7.17455H20.5635C20.1751 7.17455 19.8598 6.88412 19.8598 6.52626Z" fill="#780606"/>
<path d="M21.4931 12.6414V23.6448C21.4931 24.0381 21.1926 24.3586 20.8239 24.3586H11.1768C10.8081 24.3586 10.5076 24.0381 10.5076 23.6448V12.6414H21.4931ZM22.1616 10.5H9.83839C9.09893 10.5 8.5 11.1389 8.5 11.9276V23.6448C8.5 25.2216 9.69853 26.5 11.1768 26.5H20.8232C22.3015 26.5 23.5 25.2216 23.5 23.6448V11.9276C23.5 11.1389 22.9011 10.5 22.1616 10.5Z" fill="#780606"/>
</svg>
