<svg width="27" height="30" viewBox="0 0 27 30" fill="none" xmlns="http://www.w3.org/2000/svg">
<g clip-path="url(#clip0_135_667)">
<path d="M21.851 10.585V26C21.851 26.551 21.402 27 20.851 27H6.435C5.884 27 5.435 26.551 5.435 26V10.585H21.851ZM22.85 7.58496H4.435C3.33 7.58496 2.435 8.47996 2.435 9.58496V26C2.435 28.209 4.226 30 6.435 30H20.85C23.059 30 24.85 28.209 24.85 26V9.58496C24.85 8.47996 23.955 7.58496 22.85 7.58496Z" fill="#4A4640"/>
<path d="M18.985 1.583V1C18.985 0.448 18.537 0 17.985 0H9.016C8.464 0 8.016 0.448 8.016 1V1.583C8.016 2.135 7.568 2.583 7.016 2.583H1C0.448 2.583 0 3.031 0 3.583V5.17C0 5.722 0.448 6.17 1 6.17H26C26.552 6.17 27 5.722 27 5.17V3.583C27 3.031 26.552 2.583 26 2.583H19.985C19.433 2.583 18.985 2.135 18.985 1.583Z" fill="#4A4640"/>
</g>
<defs>
<clipPath id="clip0_135_667">
<rect width="27" height="30" fill="white"/>
</clipPath>
</defs>
</svg>
