<svg width="30" height="30" viewBox="0 0 30 30" fill="none" xmlns="http://www.w3.org/2000/svg">
<path d="M23.0201 15.9798C22.1101 16.6498 18.2501 18.6098 16.3901 19.5398C14.5401 18.5398 11.2401 16.8998 10.3001 16.7398C9.21006 16.5598 7.46006 16.4098 6.08006 16.9698V16.8898C6.08006 16.5198 5.78006 16.2298 5.42006 16.2298H3.22006C2.85006 16.2298 2.56006 16.5298 2.56006 16.8898V24.9698C2.56006 25.3398 2.86006 25.6298 3.22006 25.6298H5.42006C5.79006 25.6298 6.08006 25.3298 6.08006 24.9698V24.8098C6.46006 24.7498 7.09006 24.6798 7.68006 24.6798C8.36006 24.7098 12.3701 26.2098 13.6901 26.7098C14.5301 27.0198 14.8201 27.1298 14.9501 27.1698C15.2601 27.2598 15.7701 27.3398 16.3501 27.3398C17.0901 27.3398 17.9601 27.2098 18.7401 26.7898C19.7001 26.2698 22.0501 24.0798 26.3801 19.6898C26.6201 19.4498 26.7901 19.2798 26.8601 19.2098C27.2301 18.8498 27.4501 18.2798 27.4501 17.6598C27.4501 17.0198 27.2401 16.4498 26.8701 16.0698C26.0401 15.2298 24.5201 14.8798 23.0201 15.9798ZM25.6101 17.9398C25.5501 17.9998 25.3701 18.1798 25.1201 18.4298C20.1101 23.5198 18.4301 24.9298 17.9101 25.2098C17.0601 25.6698 15.8801 25.5598 15.4401 25.4398C15.3201 25.3998 14.9001 25.2498 14.3201 25.0298C10.7001 23.6798 8.45006 22.8898 7.68006 22.8898C7.21006 22.8898 6.73006 22.9298 6.33006 22.9798C6.10006 21.0898 6.06006 19.2998 6.26006 18.8998C6.77006 18.3798 8.22006 18.1998 10.0101 18.4898C10.7901 18.6198 15.5101 20.9898 16.5501 21.6698C17.1201 22.0398 17.1901 22.2698 17.1901 22.2698C16.8601 22.6898 16.4801 22.5698 16.4801 22.5698C14.7301 21.8498 12.2601 20.6198 11.1501 20.0598C10.8201 19.8998 10.4301 20.0198 10.2601 20.3498L10.0501 20.7598C9.88006 21.0898 10.0101 21.4898 10.3301 21.6498C11.4601 22.2198 13.9701 23.4798 15.8501 24.2498C16.4601 24.4598 17.7701 24.4998 18.6501 23.2598C18.9301 22.8698 19.0301 22.4098 18.9401 21.9498C18.8501 21.4998 18.5801 21.0598 18.1401 20.6598C20.0001 19.7198 23.1401 18.1098 24.0701 17.4198C24.4301 17.1598 24.7201 17.0698 24.9601 17.0698C25.3001 17.0698 25.5101 17.2498 25.6001 17.3298C25.6801 17.4398 25.6801 17.8298 25.6001 17.9398H25.6101Z" fill="#656158"/>
<path d="M10.42 11.42C10.64 11.51 10.89 11.56 11.17 11.58V12.04C11.17 12.13 11.2 12.2 11.27 12.27C11.33 12.33 11.41 12.37 11.5 12.37C11.59 12.37 11.67 12.34 11.73 12.27C11.79 12.21 11.82 12.13 11.82 12.04V11.57C12.05 11.54 12.27 11.5 12.45 11.42C12.73 11.3 12.94 11.13 13.1 10.9C13.25 10.67 13.33 10.4 13.33 10.07C13.33 9.85004 13.29 9.66004 13.22 9.50004C13.15 9.34004 13.04 9.20004 12.91 9.09004C12.77 8.98004 12.61 8.87004 12.42 8.78004C12.24 8.70004 12.04 8.61004 11.83 8.53004V7.16004C11.89 7.18004 11.95 7.19004 12 7.22004C12.14 7.30004 12.24 7.40004 12.3 7.53004C12.36 7.63004 12.41 7.70004 12.46 7.74004C12.51 7.78004 12.59 7.80004 12.7 7.80004C12.83 7.80004 12.94 7.76004 13.01 7.67004C13.09 7.59004 13.12 7.48004 13.12 7.35004C13.11 7.21004 13.06 7.07004 12.97 6.94004C12.88 6.81004 12.77 6.70004 12.62 6.60004C12.47 6.50004 12.3 6.42004 12.1 6.36004C12.02 6.34004 11.92 6.34004 11.83 6.32004V5.86004C11.83 5.77004 11.8 5.69004 11.74 5.63004C11.68 5.57004 11.6 5.54004 11.51 5.54004C11.42 5.54004 11.35 5.57004 11.28 5.63004C11.22 5.69004 11.18 5.77004 11.18 5.86004V6.29004C10.97 6.31004 10.77 6.35004 10.59 6.43004C10.34 6.54004 10.14 6.70004 9.98999 6.91004C9.83999 7.12004 9.76999 7.38004 9.76999 7.69004C9.76999 7.96004 9.81999 8.18004 9.90999 8.35004C9.99999 8.52004 10.13 8.67004 10.28 8.78004C10.43 8.89004 10.6 8.99004 10.79 9.06004C10.92 9.11004 11.05 9.16004 11.18 9.21004V10.75C11 10.73 10.85 10.68 10.73 10.61C10.56 10.5 10.44 10.37 10.37 10.23C10.32 10.13 10.26 10.05 10.21 9.98004C10.15 9.91004 10.06 9.88004 9.92999 9.88004C9.79999 9.88004 9.68999 9.92004 9.60999 10.01C9.52999 10.09 9.48999 10.2 9.48999 10.33C9.48999 10.54 9.56999 10.74 9.73999 10.94C9.90999 11.14 10.14 11.3 10.44 11.42H10.42ZM11.94 9.53004C12.1 9.60004 12.22 9.69004 12.3 9.77004C12.38 9.86004 12.42 9.98004 12.42 10.12C12.42 10.28 12.38 10.41 12.29 10.51C12.2 10.61 12.08 10.68 11.93 10.72C11.9 10.72 11.86 10.72 11.82 10.73V9.47004C11.82 9.47004 11.91 9.51004 11.94 9.52004V9.53004ZM10.82 8.05004C10.72 7.95004 10.67 7.83004 10.67 7.67004C10.67 7.55004 10.7 7.45004 10.77 7.37004C10.84 7.29004 10.93 7.22004 11.05 7.18004C11.09 7.17004 11.14 7.17004 11.18 7.16004V8.28004C11.04 8.22004 10.92 8.14004 10.83 8.06004L10.82 8.05004Z" fill="#656158"/>
<path d="M11.4001 15.3099C14.9001 15.3099 17.7401 12.4599 17.7401 8.96988C17.7401 5.47988 14.8901 2.62988 11.4001 2.62988C7.91006 2.62988 5.06006 5.47988 5.06006 8.96988C5.06006 12.4599 7.91006 15.3099 11.4001 15.3099ZM11.4001 4.10988C14.0801 4.10988 16.2601 6.28988 16.2601 8.96988C16.2601 11.6499 14.0801 13.8299 11.4001 13.8299C8.72006 13.8299 6.54006 11.6499 6.54006 8.96988C6.54006 6.28988 8.72006 4.10988 11.4001 4.10988Z" fill="#656158"/>
<path d="M19.5899 7.81981C20.3699 7.17981 21.4999 6.02981 22.2299 5.26981L21.7599 13.1798C21.7599 13.4898 21.8799 13.7298 22.1199 13.8698C22.3599 14.0098 22.6899 14.0098 22.9399 13.8698C22.9999 13.8398 23.0499 13.7898 23.0999 13.7498C23.2399 13.6098 23.3099 13.4098 23.2999 13.1798L22.7799 5.24981C23.5099 6.00981 24.6599 7.17981 25.4399 7.82981C25.6699 8.01981 26.0099 8.02981 26.2299 7.82981C26.5099 7.57981 26.4899 7.14981 26.2099 6.91981C24.4799 5.91981 23.2399 4.47981 22.7499 3.84981C22.6299 3.69981 22.4099 3.70981 22.2999 3.85981C21.3899 5.10981 20.1599 6.22981 18.8199 6.89981C18.5399 7.12981 18.5199 7.55981 18.7999 7.80981C19.0199 8.00981 19.3599 7.98981 19.5899 7.80981V7.81981Z" fill="#656158"/>
</svg>
