<svg width="32" height="32" viewBox="0 0 32 32" fill="none" xmlns="http://www.w3.org/2000/svg">
<g clip-path="url(#clip0_135_1807)">
<path fill-rule="evenodd" clip-rule="evenodd" d="M28 4H4C2.343 4 1 5.343 1 7V24.064C1 25.721 2.343 27.064 4 27.064H28C29.657 27.064 31 25.721 31 24.064V7C31 5.343 29.657 4 28 4ZM28 7V19.88L26.277 18.441C25.578 17.858 24.574 17.819 23.833 18.348L21.989 19.664C21.234 20.203 20.208 20.152 19.51 19.541L13.153 13.976C12.401 13.318 11.28 13.316 10.525 13.97L4 19.63V7H28Z" fill="#807B6F"/>
<path fill-rule="evenodd" clip-rule="evenodd" d="M21.013 15.3224C22.441 15.3224 23.599 14.1644 23.599 12.7364C23.599 11.3084 22.441 10.1504 21.013 10.1504C19.585 10.1504 18.427 11.3084 18.427 12.7364C18.427 14.1644 19.585 15.3224 21.013 15.3224Z" fill="#807B6F"/>
</g>
<defs>
<clipPath id="clip0_135_1807">
<rect width="30" height="23.064" fill="white" transform="translate(1 4)"/>
</clipPath>
</defs>
</svg>
