<svg width="25" height="25" viewBox="0 0 25 25" fill="none" xmlns="http://www.w3.org/2000/svg">
<rect x="1.5" y="1.5" width="22" height="22" rx="11" stroke="#4A4640" stroke-width="3"/>
<path d="M12.5 17.4201C12.2518 17.4201 12.039 17.3314 11.8617 17.1541C11.6933 16.9768 11.6091 16.7685 11.6091 16.5292V11.1836C11.6091 10.9443 11.6933 10.7404 11.8617 10.572C12.039 10.3947 12.2518 10.306 12.5 10.306C12.7394 10.306 12.9432 10.3947 13.1117 10.572C13.289 10.7404 13.3776 10.9443 13.3776 11.1836V16.5292C13.3776 16.7685 13.289 16.9768 13.1117 17.1541C12.9432 17.3314 12.7394 17.4201 12.5 17.4201ZM12.4867 9.62786C12.2119 9.62786 11.9858 9.53921 11.8085 9.36192C11.6312 9.18462 11.5426 8.93197 11.5426 8.60397C11.5426 8.28483 11.6312 8.03662 11.8085 7.85932C11.9858 7.67316 12.2119 7.58008 12.4867 7.58008C12.7792 7.58008 13.0142 7.67316 13.1915 7.85932C13.3688 8.03662 13.4574 8.28483 13.4574 8.60397C13.4574 8.93197 13.3688 9.18462 13.1915 9.36192C13.0142 9.53921 12.7792 9.62786 12.4867 9.62786Z" fill="#4A4640"/>
</svg>
