<svg width="32" height="32" viewBox="0 0 32 32" fill="none" xmlns="http://www.w3.org/2000/svg">
<g clip-path="url(#clip0_131_288)">
<path d="M27.606 14.6319L10.319 13.6509H10.314C9.74499 13.6379 9.28999 13.8759 9.03099 14.3189C8.76599 14.7729 8.76999 15.3819 9.03999 15.8339C9.10499 15.9429 9.18199 16.0389 9.26999 16.1219C9.53699 16.3739 9.90299 16.5019 10.334 16.4869L27.684 15.3109L27.605 14.6319H27.606Z" fill="#807B6F"/>
<path d="M15.778 17.792V23.559C15.778 24.644 14.896 25.526 13.811 25.526H7.471C6.386 25.526 5.504 24.644 5.504 23.559V7.47C5.504 6.385 6.386 5.503 7.471 5.503H13.811C14.896 5.503 15.778 6.385 15.778 7.47V12.288L18.281 12.43V7.47C18.281 5.001 16.28 3 13.811 3H7.471C5.001 3 3 5.001 3 7.47V23.559C3 26.028 5.001 28.029 7.47 28.029H13.81C16.279 28.029 18.28 26.028 18.28 23.559V17.622L15.778 17.792Z" fill="#807B6F"/>
<path d="M18.28 14.102L15.778 13.96V16.12L18.28 15.95V14.102Z" fill="#807B6F"/>
<path d="M27.83 15.3515C28.109 15.1335 28.091 14.7175 27.805 14.5095C25.489 12.8265 23.401 10.5355 22.157 8.04952C21.734 7.53352 20.94 7.49952 20.476 8.01852C20.108 8.43052 20.134 9.06552 20.486 9.49052C21.845 11.1325 24.423 13.6365 25.757 14.9065C24.414 16.1815 21.821 18.6905 20.462 20.3325C20.11 20.7585 20.084 21.3935 20.452 21.8045C20.916 22.3235 21.71 22.2895 22.133 21.7735C23.984 18.5635 26.669 16.2585 27.83 15.3515Z" fill="#807B6F"/>
</g>
<defs>
<clipPath id="clip0_131_288">
<rect width="25.202" height="25.029" fill="white" transform="translate(3 3)"/>
</clipPath>
</defs>
</svg>
