<svg width="26" height="26" viewBox="0 0 26 26" fill="none" xmlns="http://www.w3.org/2000/svg">
<g clip-path="url(#clip0_131_288)">
<path d="M25.3846 12.083L7.5503 11.0638H7.54428C6.95726 11.0499 6.4873 11.2969 6.22134 11.758C5.94849 12.2303 5.95193 12.8621 6.23081 13.331C6.29794 13.4445 6.37799 13.5442 6.46837 13.63C6.7438 13.8917 7.12166 14.0243 7.56666 14.0096L25.4663 12.7885L25.3846 12.083Z" fill="#4A4640"/>
<path d="M13.182 15.366V21.3564C13.182 22.4831 12.2714 23.4 11.1524 23.4H4.61178C3.49283 23.4 2.58218 22.4831 2.58218 21.3564V4.6436C2.58218 3.51693 3.49283 2.6 4.61178 2.6H11.1524C12.2714 2.6 13.182 3.51693 13.182 4.6436V9.6486L15.7642 9.79593V4.6436C15.7642 2.07913 13.6993 0 11.1524 0H4.61178C2.06489 0 0 2.07913 0 4.6436V21.3564C0 23.9209 2.06489 26 4.61178 26H11.1524C13.6993 26 15.7642 23.9209 15.7642 21.3564V15.1892L13.182 15.366Z" fill="#4A4640"/>
<path d="M15.7642 11.5319L13.182 11.3845V13.6283L15.7642 13.4524V11.5319Z" fill="#4A4640"/>
<path d="M25.6161 12.831C25.9036 12.6048 25.8855 12.1723 25.5903 11.9565C23.2009 10.2084 21.0474 7.82855 19.7632 5.24588C19.3268 4.70942 18.5082 4.67388 18.0288 5.21295C17.6492 5.64022 17.6759 6.30062 18.0391 6.74262C19.4413 8.44822 22.1009 11.0491 23.4763 12.3682C22.0906 13.6924 19.4154 16.2985 18.0142 18.0041C17.6509 18.4461 17.6234 19.1056 18.0038 19.5338C18.4824 20.0728 19.3018 20.0373 19.7382 19.5008C21.6482 16.1659 24.4188 13.7722 25.6161 12.831Z" fill="#4A4640"/>
</g>
<defs>
<clipPath id="clip0_131_288">
<rect width="26" height="26" fill="white"/>
</clipPath>
</defs>
</svg>
