<svg width="30" height="30" viewBox="0 0 30 30" fill="none" xmlns="http://www.w3.org/2000/svg">
<path d="M14.64 12.4804C15.42 12.5404 16.14 12.5704 16.82 12.5704C21.92 12.5704 23.98 10.9604 24.07 10.8804L24.33 10.6704L24.6 7.32037C24.6 6.92037 24.35 3.43037 15.43 2.71037C6.53 1.99037 5.66 5.38037 5.59 5.77037L5.31 9.14037L5.54 9.39037C5.63 9.49037 7.94 11.9404 14.64 12.4804ZM14.76 10.9204C9.88 10.5304 7.61 9.07037 6.92 8.54037L7.02 7.35037C7.61 7.71037 8.44 8.13037 9.5 8.52037L9.45 8.89037C9.42 9.16037 9.52 9.38037 9.71 9.52037C9.91 9.66037 10.2 9.68037 10.42 9.57037C10.47 9.54037 10.52 9.51037 10.56 9.47037C10.69 9.36037 10.76 9.19037 10.77 8.99037V8.93037C11.76 9.21037 12.9 9.44037 14.2 9.58037L14.17 9.77037C14.14 10.0404 14.24 10.2604 14.43 10.4004C14.63 10.5404 14.92 10.5604 15.14 10.4504C15.19 10.4204 15.24 10.3904 15.28 10.3504C15.41 10.2404 15.48 10.0704 15.49 9.87037V9.69037C15.91 9.71037 16.32 9.73037 16.71 9.73037C17.55 9.73037 18.3 9.68037 18.99 9.60037V9.66037C18.96 9.93037 19.06 10.1504 19.25 10.2904C19.45 10.4304 19.74 10.4504 19.96 10.3404C20.01 10.3104 20.06 10.2804 20.1 10.2404C20.23 10.1204 20.3 9.96037 20.31 9.76037V9.38037C21.44 9.15037 22.31 8.85037 22.91 8.58037L22.81 9.82037C22.06 10.2404 19.62 11.3104 14.75 10.9104L14.76 10.9204ZM15.3 4.28037C20.78 4.72037 22.38 6.18037 22.84 6.88037C22.08 7.30037 19.55 8.47037 14.99 8.10037C10.79 7.76037 8.32 6.37037 7.36 5.70037C7.92 5.05037 9.74 3.82037 15.3 4.27037V4.28037Z" fill="#656158"/>
<path d="M22.63 14.65C22.11 14.65 21.62 14.75 21.15 14.9V13.93C21.15 13.43 20.74 13.04 20.27 13.04C20.18 13.04 20.09 13.05 20 13.08C18.44 13.59 15.42 14.38 11.8 14.38C8.18 14.38 5.16 13.59 3.6 13.08C3.51 13.05 3.42 13.04 3.33 13.04C2.86 13.04 2.45 13.42 2.45 13.93V24.89C2.45 25.22 2.65 25.52 2.95 25.65C4.19 26.19 7.63 27.5 11.74 27.5C15.85 27.5 19.45 25.99 20.69 25.4C20.98 25.26 21.15 24.97 21.15 24.66V24.28C21.62 24.43 22.11 24.53 22.63 24.53C25.35 24.53 27.57 22.32 27.57 19.59C27.57 16.86 25.36 14.65 22.63 14.65ZM19.38 24.05C18.02 24.64 15.06 25.73 11.74 25.73C8.42 25.73 5.67 24.83 4.22 24.26V15.11C4.58 15.21 4.99 15.31 5.42 15.41C5.42 15.43 5.42 15.44 5.42 15.47V20.41C5.42 21.15 6.03 21.7 6.75 21.74C7.47 21.77 8.08 21.11 8.08 20.41V18.23C8.08 17.36 8.17 16.51 9.26 16.51C10.1 16.51 10.29 17.04 10.33 17.38V17.99C10.33 17.99 10.33 18 10.33 18.01V18.06C10.37 18.77 10.95 19.29 11.65 19.32C11.98 19.33 12.36 19.16 12.59 18.93C12.82 18.7 12.98 18.33 12.98 17.99V16.27C12.98 16.22 12.98 16.17 12.96 16.12C15.58 16.01 17.84 15.53 19.39 15.11V15.65C18.22 16.61 17.53 18.03 17.53 19.58C17.53 21.13 18.22 22.56 19.39 23.51V24.04L19.38 24.05ZM22.63 22.93C22.08 22.93 21.58 22.79 21.12 22.55C20.88 22.43 20.66 22.28 20.46 22.11C20.43 22.09 20.4 22.07 20.38 22.04C20.3 21.96 20.22 21.88 20.14 21.8C20.08 21.74 20.03 21.67 19.98 21.61C19.92 21.54 19.87 21.47 19.82 21.39C19.73 21.24 19.64 21.09 19.57 20.93C19.55 20.88 19.53 20.82 19.51 20.77C19.46 20.64 19.41 20.5 19.38 20.36C19.37 20.3 19.35 20.25 19.34 20.19C19.3 19.99 19.28 19.8 19.28 19.59C19.28 19.39 19.3 19.19 19.34 18.99C19.35 18.93 19.36 18.87 19.38 18.82C19.41 18.68 19.46 18.54 19.51 18.41C19.53 18.36 19.55 18.3 19.57 18.25C19.64 18.09 19.72 17.94 19.82 17.8C19.87 17.72 19.93 17.65 19.99 17.58C20.04 17.52 20.09 17.45 20.15 17.39C20.23 17.31 20.3 17.22 20.39 17.15C20.42 17.13 20.44 17.11 20.47 17.09C20.67 16.92 20.89 16.77 21.13 16.65C21.59 16.42 22.09 16.27 22.64 16.27C24.48 16.27 25.98 17.77 25.98 19.61C25.98 21.45 24.48 22.95 22.64 22.95L22.63 22.93Z" fill="#656158"/>
<path d="M23.74 19.6798C23.64 19.5998 23.52 19.5198 23.38 19.4498C23.25 19.3898 23.1 19.3298 22.94 19.2698V18.2798C22.94 18.2798 23.03 18.2798 23.07 18.3098C23.17 18.3698 23.24 18.4398 23.29 18.5398C23.33 18.6098 23.37 18.6598 23.41 18.6998C23.45 18.7298 23.51 18.7498 23.59 18.7498C23.69 18.7498 23.77 18.7198 23.82 18.6598C23.88 18.5998 23.9 18.5198 23.9 18.4298C23.9 18.3198 23.86 18.2198 23.79 18.1298C23.73 18.0298 23.64 17.9498 23.53 17.8798C23.42 17.8098 23.29 17.7498 23.14 17.6998C23.08 17.6798 23 17.6798 22.94 17.6698V17.3298C22.94 17.2598 22.92 17.2098 22.87 17.1598C22.83 17.1198 22.77 17.0898 22.7 17.0898C22.64 17.0898 22.58 17.1098 22.53 17.1598C22.48 17.2098 22.46 17.2598 22.46 17.3298V17.6498C22.3 17.6698 22.15 17.6998 22.02 17.7498C21.83 17.8298 21.68 17.9498 21.58 18.0998C21.47 18.2498 21.42 18.4498 21.42 18.6798C21.42 18.8798 21.45 19.0398 21.52 19.1698C21.59 19.2998 21.68 19.3998 21.79 19.4898C21.9 19.5698 22.03 19.6398 22.17 19.6998C22.27 19.7398 22.36 19.7698 22.46 19.8098V20.9498C22.33 20.9298 22.21 20.8998 22.13 20.8498C22 20.7698 21.91 20.6698 21.86 20.5698C21.82 20.4998 21.78 20.4398 21.74 20.3898C21.7 20.3398 21.63 20.3098 21.53 20.3098C21.43 20.3098 21.35 20.3398 21.3 20.3998C21.25 20.4598 21.21 20.5398 21.21 20.6298C21.21 20.7798 21.27 20.9298 21.39 21.0798C21.51 21.2298 21.68 21.3398 21.9 21.4398C22.06 21.5098 22.25 21.5398 22.45 21.5598V21.8998C22.45 21.9598 22.47 22.0198 22.52 22.0698C22.57 22.1198 22.62 22.1398 22.69 22.1398C22.76 22.1398 22.81 22.1198 22.86 22.0698C22.91 22.0198 22.93 21.9698 22.93 21.8998V21.5598C23.1 21.5398 23.26 21.5098 23.4 21.4498C23.61 21.3598 23.76 21.2298 23.88 21.0698C23.99 20.8998 24.05 20.6998 24.05 20.4598C24.05 20.2998 24.02 20.1598 23.97 20.0398C23.92 19.9198 23.84 19.8198 23.74 19.7298V19.6798ZM22.2 18.9098C22.12 18.8398 22.09 18.7398 22.09 18.6298C22.09 18.5398 22.11 18.4698 22.16 18.4098C22.21 18.3498 22.28 18.2998 22.37 18.2698C22.4 18.2698 22.43 18.2698 22.46 18.2598V19.0798C22.36 19.0298 22.27 18.9798 22.2 18.9198V18.9098ZM23.28 20.7298C23.21 20.7998 23.13 20.8498 23.02 20.8898C23 20.8898 22.97 20.8898 22.94 20.8998V19.9698C22.94 19.9698 23.01 19.9998 23.03 20.0098C23.15 20.0598 23.23 20.1298 23.29 20.1898C23.35 20.2598 23.38 20.3398 23.38 20.4498C23.38 20.5698 23.35 20.6698 23.28 20.7398V20.7298Z" fill="#656158"/>
</svg>
