<svg width="25" height="22" viewBox="0 0 25 22" fill="none" xmlns="http://www.w3.org/2000/svg">
<g clip-path="url(#clip0_131_575)">
<path d="M22.791 1.46927e-05L13.318 0.445015C12.811 0.469015 12.303 0.469015 11.795 0.445015L2.323 1.46927e-05C-0.479 -0.0379853 -0.422 4.12101 2.384 4.00001L11.301 3.30801C12.137 3.24301 12.977 3.24301 13.814 3.30801L22.731 4.00001C25.537 4.12201 25.593 -0.0369853 22.791 1.46927e-05Z" fill="#4A4640"/>
<path d="M22.541 8.88405L13.068 9.32905C12.561 9.35305 12.053 9.35305 11.545 9.32905L2.072 8.88405C-0.73 8.84605 -0.673 13.005 2.133 12.884L11.05 12.192C11.886 12.127 12.726 12.127 13.563 12.192L22.48 12.884C25.286 13.006 25.343 8.84705 22.541 8.88405Z" fill="#4A4640"/>
<path d="M22.541 17.7671L13.068 18.2121C12.561 18.2361 12.053 18.2361 11.545 18.2121L2.072 17.7671C-0.73 17.7291 -0.673 21.8881 2.133 21.7671L11.05 21.0751C11.886 21.0101 12.726 21.0101 13.563 21.0751L22.48 21.7671C25.286 21.8891 25.343 17.7301 22.541 17.7671Z" fill="#4A4640"/>
</g>
<defs>
<clipPath id="clip0_131_575">
<rect width="24.864" height="21.769" fill="white"/>
</clipPath>
</defs>
</svg>
