<svg width="6" height="23" viewBox="0 0 6 23" fill="none" xmlns="http://www.w3.org/2000/svg">
<g clip-path="url(#clip0_559_3657)">
<path d="M2.586 5.172C4.01421 5.172 5.172 4.01421 5.172 2.586C5.172 1.15779 4.01421 0 2.586 0C1.15779 0 0 1.15779 0 2.586C0 4.01421 1.15779 5.172 2.586 5.172Z" fill="#807B6F"/>
<path d="M2.586 14.0558C4.01421 14.0558 5.172 12.898 5.172 11.4698C5.172 10.0416 4.01421 8.88379 2.586 8.88379C1.15779 8.88379 0 10.0416 0 11.4698C0 12.898 1.15779 14.0558 2.586 14.0558Z" fill="#807B6F"/>
<path d="M2.586 22.9386C4.01421 22.9386 5.172 21.7808 5.172 20.3526C5.172 18.9244 4.01421 17.7666 2.586 17.7666C1.15779 17.7666 0 18.9244 0 20.3526C0 21.7808 1.15779 22.9386 2.586 22.9386Z" fill="#807B6F"/>
</g>
<defs>
<clipPath id="clip0_559_3657">
<rect width="5.173" height="22.94" fill="white"/>
</clipPath>
</defs>
</svg>
