<svg width="30" height="30" viewBox="0 0 30 30" fill="none" xmlns="http://www.w3.org/2000/svg">
<g clip-path="url(#clip0_673_2266)">
<path d="M20.931 15.0584V23.9914C19.566 24.5854 16.612 25.6734 13.292 25.6734C10.027 25.6734 7.223 24.7754 5.769 24.2044V15.0584C7.544 15.5434 10.243 16.0954 13.35 16.0954C16.457 16.0954 19.157 15.5444 20.931 15.0584ZM21.822 12.9854C21.733 12.9854 21.641 12.9994 21.55 13.0294C19.987 13.5364 16.968 14.3264 13.35 14.3264C9.732 14.3264 6.713 13.5354 5.15 13.0294C5.059 12.9994 4.967 12.9854 4.878 12.9854C4.409 12.9854 4.001 13.3674 4.001 13.8714V24.8334C4.001 25.1644 4.197 25.4614 4.5 25.5924C5.745 26.1324 9.183 27.4414 13.292 27.4414C17.455 27.4414 21.006 25.9304 22.237 25.3384C22.523 25.2014 22.7 24.9124 22.7 24.5954V13.8714C22.7 13.3674 22.29 12.9854 21.822 12.9854Z" fill="#656158"/>
<path d="M7.902 5.85417L7.664 8.80617C7.664 8.80617 9.78 11.1192 16.249 11.6422C22.718 12.1652 25.121 10.2162 25.121 10.2162L25.359 7.26417C25.359 7.26417 25.362 4.12117 16.911 3.43817C8.461 2.75517 7.902 5.85417 7.902 5.85417Z" stroke="#656158" stroke-width="1.563" stroke-miterlimit="10"/>
<path d="M7.902 5.85449C7.902 5.85449 10.538 8.34049 16.477 8.82049C22.416 9.30049 25.104 7.29949 25.104 7.29949" stroke="#656158" stroke-width="1.563" stroke-miterlimit="10"/>
<path d="M15.897 8.52246L15.729 9.71846V9.72146C15.701 9.98646 15.794 10.2085 15.991 10.3465C16.193 10.4875 16.478 10.5095 16.699 10.4015C16.753 10.3755 16.8 10.3425 16.843 10.3055C16.971 10.1905 17.045 10.0245 17.055 9.82246L17.073 8.60746C16.7 8.59446 16.269 8.54946 15.897 8.52246Z" fill="#656158"/>
<path d="M20.712 8.4082L20.544 9.6042V9.6072C20.516 9.8722 20.609 10.0942 20.806 10.2322C21.008 10.3732 21.293 10.3952 21.514 10.2872C21.568 10.2612 21.615 10.2282 21.658 10.1912C21.786 10.0762 21.86 9.9102 21.87 9.7082L21.888 8.4932C21.515 8.4802 21.084 8.4352 20.712 8.4082Z" fill="#656158"/>
<path d="M11.164 7.6377L10.996 8.8337V8.8367C10.968 9.1017 11.061 9.3237 11.258 9.4617C11.46 9.6027 11.745 9.6247 11.966 9.5167C12.02 9.4907 12.067 9.4577 12.11 9.4207C12.238 9.3057 12.312 9.1397 12.322 8.9377L12.34 7.7227C11.967 7.7097 11.536 7.6647 11.164 7.6377Z" fill="#656158"/>
<path d="M18.099 15.1315C17.38 15.1635 16.773 14.6695 16.773 15.4135V20.3505C16.773 21.0445 17.383 21.7085 18.099 21.6765C18.818 21.6445 19.425 21.0935 19.425 20.3505V15.4135C19.425 14.7195 18.815 15.0995 18.099 15.1315Z" fill="#656158"/>
<path d="M11.869 16.7146C11.869 17.6526 11.869 17.0016 11.869 17.9396C11.869 18.2796 12.017 18.6366 12.257 18.8776C12.487 19.1076 12.864 19.2806 13.195 19.2656C13.914 19.2336 14.521 18.6826 14.521 17.9396C14.521 17.1966 14.521 17.0346 14.521 16.0966C14.521 15.7566 14.373 16.0176 14.133 15.7776C13.903 15.5476 13.526 15.3746 13.195 15.3896C12.476 15.4216 11.869 15.4726 11.869 16.2166V16.7166V16.7146Z" fill="#656158"/>
<path d="M16.773 18.1693C16.773 17.2993 16.686 16.4543 15.59 16.4543C14.337 16.4543 14.52 17.6323 14.52 17.6323V18.0083L14.203 17.9503L14.4 15.7163L17.155 15.5303L16.937 18.1693H16.774H16.773Z" fill="#656158"/>
</g>
<defs>
<clipPath id="clip0_673_2266">
<rect width="22.14" height="24.883" fill="white" transform="translate(4 2.55859)"/>
</clipPath>
</defs>
</svg>
