<svg width="30" height="30" viewBox="0 0 30 30" fill="none" xmlns="http://www.w3.org/2000/svg">
<path d="M26.31 9.46021L16.25 13.3302C15.93 13.4502 15.72 13.7602 15.72 14.1002V26.5502C15.72 27.1302 16.3 27.5302 16.84 27.3102L26.9 23.3202C27.21 23.2002 27.42 22.8902 27.42 22.5602V10.2302C27.42 9.65021 26.84 9.26021 26.3 9.46021H26.31Z" fill="#656158"/>
<path d="M25.5 7.02039L22.34 5.68039C22.24 5.64039 22.12 5.64039 22.02 5.68039L11.1 10.1404C10.75 10.2804 10.76 10.7804 11.12 10.9104L14.73 12.2104C14.91 12.2704 15.11 12.2704 15.29 12.2104L25.47 8.55039C26.17 8.30039 26.2 7.31039 25.51 7.02039H25.5Z" fill="#656158"/>
<path d="M4.53999 8.55008L6.60999 9.30008C6.70999 9.34008 6.81999 9.33008 6.90999 9.30008L17.97 4.60008C18.31 4.46008 18.31 3.98008 17.97 3.84008L15.31 2.71008C15.1 2.62008 14.87 2.62008 14.67 2.71008L4.49999 7.02008C3.80999 7.31008 3.83999 8.30008 4.53999 8.55008Z" fill="#656158"/>
<path d="M13.75 13.33L10.66 12.14C10.39 12.04 10.1 12.24 10.1 12.53V16.38C10.1 16.9 9.58001 17.27 9.09001 17.08L7.26001 16.39C6.97001 16.28 6.77001 16 6.77001 15.69V10.93C6.77001 10.76 6.66001 10.6 6.50001 10.54L3.69001 9.45996C3.15001 9.24996 2.57001 9.64996 2.57001 10.23V22.56C2.57001 22.9 2.78001 23.2 3.09001 23.32L13.15 27.31C13.69 27.52 14.27 27.13 14.27 26.55V14.1C14.27 13.76 14.06 13.46 13.74 13.33H13.75Z" fill="#656158"/>
</svg>
