<svg width="24" height="26" viewBox="0 0 24 26" fill="none" xmlns="http://www.w3.org/2000/svg">
<g clip-path="url(#clip0_132_218)">
<path d="M15.0496 21.752C15.0496 23.3649 13.7085 24.6716 12.0549 24.6716C10.4014 24.6716 9.06027 23.3641 9.06027 21.752" stroke="#656158" stroke-width="3" stroke-miterlimit="10"/>
<path d="M20.9291 15.2072V12.1698C20.9291 7.36179 16.931 3.46387 11.9995 3.46387C7.06897 3.46387 3.07094 7.36179 3.07094 12.1698V15.564C3.07094 16.1368 2.75041 16.6529 2.24736 16.9486C0.988839 17.6878 0 18.8103 0 20.1852V20.8226C0 21.7079 0.736408 22.4258 1.64443 22.4258H22.3565C23.2645 22.4258 24.0009 21.7079 24.0009 20.8226V20.1852C24.0009 18.6049 23.0983 17.2381 21.7726 16.5219C21.2714 16.251 20.9291 15.7667 20.9291 15.2072ZM2.93655 19.77C3.248 19.4256 3.86092 19.0511 4.50834 18.828C5.15304 18.6058 5.57073 17.9976 5.57073 17.331V12.1698C5.57073 8.70831 8.44917 5.90195 11.9995 5.90195C15.5499 5.90195 18.4284 8.70831 18.4284 12.1698V17.3726C18.4284 18.0826 18.906 18.7085 19.6052 18.9086C20.3216 19.114 21.1179 19.4167 21.2178 19.77H2.93655Z" fill="#656158"/>
<path d="M10.2198 4.4667V2.95905C10.2198 1.98081 11.0325 1.18848 12.0359 1.18848H12.0749C13.0783 1.18848 13.891 1.98081 13.891 2.95905V4.4667" stroke="#656158" stroke-width="2.686" stroke-miterlimit="10"/>
<path d="M18.7913 3.42676C22.1755 3.42676 24.9632 6.10825 24.9632 9.46875C24.963 12.8291 22.1754 15.5098 18.7913 15.5098C15.4073 15.5096 12.6205 12.829 12.6204 9.46875C12.6204 6.10835 15.4072 3.42692 18.7913 3.42676Z" fill="#2D42C9" stroke="#F7F8FD" stroke-width="2"/>
</g>
<defs>
<clipPath id="clip0_132_218">
<rect width="24" height="26" fill="white"/>
</clipPath>
</defs>
</svg>
