<svg width="32" height="32" viewBox="0 0 32 32" fill="none" xmlns="http://www.w3.org/2000/svg">
<g clip-path="url(#clip0_799_2321)">
<path d="M25.409 19.886C24.939 19.625 24.619 19.16 24.619 18.622V15.702C24.619 12.087 22.323 9.016 19.112 7.845V6.846C19.112 5.277 17.835 4 16.23 4C14.661 4 13.384 5.276 13.384 6.846V7.845C10.174 9.016 7.877 12.087 7.877 15.702V18.965C7.877 19.515 7.576 20.012 7.105 20.296C5.925 21.007 4.998 22.086 4.998 23.408V24.021C4.998 24.872 5.688 25.562 6.539 25.562H12.228C12.541 27.506 14.216 28.999 16.247 28.999C18.278 28.999 19.953 27.505 20.266 25.562H25.955C26.806 25.562 27.496 24.872 27.496 24.021V23.408C27.496 21.889 26.65 20.575 25.407 19.886H25.409Z" fill="#807B6F"/>
</g>
<defs>
<clipPath id="clip0_799_2321">
<rect width="22.498" height="25" fill="white" transform="translate(5 4)"/>
</clipPath>
</defs>
</svg>
