<svg width="32" height="32" viewBox="0 0 32 32" fill="none" xmlns="http://www.w3.org/2000/svg">
<g clip-path="url(#clip0_805_2550)">
<path d="M25.409 18.886C24.939 18.625 24.619 18.16 24.619 17.622V14.702C24.619 11.087 22.323 8.016 19.112 6.845V5.846C19.112 4.277 17.835 3 16.23 3C14.661 3 13.384 4.276 13.384 5.846V6.845C10.174 8.016 7.877 11.087 7.877 14.702V17.965C7.877 18.515 7.576 19.012 7.105 19.296C5.925 20.007 4.998 21.086 4.998 22.408V23.021C4.998 23.872 5.688 24.562 6.539 24.562H12.228C12.541 26.506 14.216 27.999 16.247 27.999C18.278 27.999 19.953 26.505 20.266 24.562H25.955C26.806 24.562 27.496 23.872 27.496 23.021V22.408C27.496 20.889 26.65 19.575 25.407 18.886H25.409Z" fill="#807B6F"/>
</g>
<path d="M23.5 6C27.0899 6 30 8.91015 30 12.5C30 16.0898 27.0899 19 23.5 19C19.9101 19 17 16.0899 17 12.5C17 8.91015 19.9101 6 23.5 6Z" fill="#2D42C9" stroke="#F7F8FD" stroke-width="2"/>
<defs>
<clipPath id="clip0_805_2550">
<rect width="22.498" height="25" fill="white" transform="translate(5 3)"/>
</clipPath>
</defs>
</svg>
