<svg width="27" height="30" viewBox="0 0 27 30" fill="none" xmlns="http://www.w3.org/2000/svg">
<g clip-path="url(#clip0_132_204)">
<path d="M16.574 24.571C16.574 26.393 15.097 27.869 13.276 27.869C11.455 27.869 9.978 26.392 9.978 24.571" stroke="#4A4640" stroke-width="3" stroke-miterlimit="10"/>
<path d="M23.049 17.178V13.747C23.049 8.31596 18.646 3.91296 13.215 3.91296C7.785 3.91296 3.382 8.31596 3.382 13.747V17.581C3.382 18.228 3.029 18.811 2.475 19.145C1.089 19.98 0 21.248 0 22.801V23.521C0 24.521 0.811 25.332 1.811 25.332H24.621C25.621 25.332 26.432 24.521 26.432 23.521V22.801C26.432 21.016 25.438 19.472 23.978 18.663C23.426 18.357 23.049 17.81 23.049 17.178ZM3.234 22.332C3.577 21.943 4.252 21.52 4.965 21.268C5.675 21.017 6.135 20.33 6.135 19.577V13.747C6.135 9.83696 9.305 6.66696 13.215 6.66696C17.125 6.66696 20.295 9.83696 20.295 13.747V19.624C20.295 20.426 20.821 21.133 21.591 21.359C22.38 21.591 23.257 21.933 23.367 22.332H3.234Z" fill="#4A4640"/>
<path d="M11.255 5.04602V3.34302C11.255 2.23802 12.15 1.34302 13.255 1.34302H13.298C14.403 1.34302 15.298 2.23802 15.298 3.34302V5.04602" stroke="#4A4640" stroke-width="2.686" stroke-miterlimit="10"/>
</g>
<defs>
<clipPath id="clip0_132_204">
<rect width="26.431" height="29.369" fill="white"/>
</clipPath>
</defs>
</svg>
