<svg width="23" height="26" viewBox="0 0 23 26" fill="none" xmlns="http://www.w3.org/2000/svg">
<g clip-path="url(#clip0_799_2321)">
<path d="M14.4225 21.7524C14.4225 23.3654 13.1373 24.6721 11.5526 24.6721C9.96803 24.6721 8.68275 23.3645 8.68275 21.7524" stroke="#656158" stroke-width="3" stroke-miterlimit="10"/>
<path d="M20.057 15.2077V12.1703C20.057 7.36227 16.2256 3.46436 11.4996 3.46436C6.77443 3.46436 2.94298 7.36227 2.94298 12.1703V15.5645C2.94298 16.1372 2.63581 16.6534 2.15372 16.9491C0.947637 17.6883 0 18.8108 0 20.1857V20.8231C0 21.7084 0.705724 22.4263 1.57591 22.4263H21.425C22.2951 22.4263 23.0009 21.7084 23.0009 20.8231V20.1857C23.0009 18.6054 22.1359 17.2385 20.8654 16.5223C20.3851 16.2514 20.057 15.7672 20.057 15.2077ZM2.8142 19.7705C3.11267 19.4261 3.70005 19.0516 4.3205 18.8285C4.93833 18.6063 5.33862 17.9981 5.33862 17.3315V12.1703C5.33862 8.7088 8.09712 5.90244 11.4996 5.90244C14.902 5.90244 17.6605 8.7088 17.6605 12.1703V17.3731C17.6605 18.0831 18.1182 18.709 18.7883 18.9091C19.4749 19.1145 20.238 19.4172 20.3337 19.7705H2.8142Z" fill="#656158"/>
<path d="M9.79399 4.46718V2.95954C9.79399 1.9813 10.5728 1.18896 11.5344 1.18896H11.5718C12.5334 1.18896 13.3122 1.9813 13.3122 2.95954V4.46718" stroke="#656158" stroke-width="2.686" stroke-miterlimit="10"/>
<g clip-path="url(#clip1_799_2321)">
<path d="M20.0499 16.6151C19.6112 16.375 19.3125 15.9472 19.3125 15.4522V12.7658C19.3125 9.44004 17.1694 6.61472 14.1722 5.5374V4.61832C14.1722 3.17484 12.9803 2 11.4821 2C10.0176 2 8.82562 3.17392 8.82562 4.61832V5.5374C5.82935 6.61472 3.68529 9.44004 3.68529 12.7658V15.7678C3.68529 16.2738 3.40433 16.731 2.96469 16.9923C1.86326 17.6464 0.997986 18.6391 0.997986 19.8554V20.4193C0.997986 21.2022 1.64204 21.837 2.43638 21.837H7.74659C8.03875 23.6255 9.60222 24.9991 11.498 24.9991C13.3938 24.9991 14.9572 23.6246 15.2494 21.837H20.5596C21.3539 21.837 21.998 21.2022 21.998 20.4193V19.8554C21.998 18.4579 21.2083 17.249 20.0481 16.6151H20.0499Z" fill="#656158"/>
</g>
</g>
<defs>
<clipPath id="clip0_799_2321">
<rect width="23" height="26" fill="white"/>
</clipPath>
<clipPath id="clip1_799_2321">
<rect width="21" height="23" fill="white" transform="translate(1 2)"/>
</clipPath>
</defs>
</svg>
