<svg width="11" height="7" viewBox="0 0 11 7" fill="none" xmlns="http://www.w3.org/2000/svg">
<g clip-path="url(#clip0_1511_1647)">
<path d="M2.60916 6.81429C2.40531 6.81429 2.21201 6.71419 2.0957 6.54277C1.25155 5.29579 0.320264 4.74829 0.310943 4.74302C0.0155107 4.57241 -0.0878299 4.19349 0.0819729 3.89725C0.251776 3.6002 0.62826 3.49645 0.924908 3.66504C0.962597 3.68652 1.67463 4.09623 2.47259 5.00482C3.01361 3.97749 4.11874 2.23772 6.19528 0.180228C6.43884 -0.0613054 6.83113 -0.0588738 7.07266 0.184281C7.31379 0.427435 7.31217 0.820535 7.06861 1.06166C4.01621 4.08651 3.20448 6.37297 3.19678 6.39526C3.12019 6.61734 2.92445 6.77823 2.69102 6.80903C2.66346 6.81267 2.63631 6.81429 2.60916 6.81429Z" fill="#4A4640"/>
<path d="M3.86253 3.6642C3.67976 3.56045 3.467 3.56086 3.29071 3.64515C3.16265 3.83643 3.04634 4.01718 2.94098 4.1886C2.93571 4.40865 3.04513 4.62466 3.24857 4.74218C3.25303 4.74461 3.48038 4.87956 3.80823 5.16C3.98492 4.85484 4.2066 4.50105 4.48096 4.10593C4.1296 3.82022 3.88442 3.67595 3.86294 3.66379L3.86253 3.6642Z" fill="#4A4640"/>
<path d="M10.0098 0.183639C9.76832 -0.059515 9.37603 -0.0615413 9.13247 0.179587C7.05593 2.23708 5.95079 3.97685 5.40977 5.00418C5.19255 4.75697 4.98385 4.54988 4.79135 4.37441C4.51172 4.78007 4.28923 5.13913 4.11578 5.44267C4.39987 5.71986 4.72205 6.08297 5.03288 6.54213C5.14919 6.71396 5.3425 6.81365 5.54634 6.81365C5.57349 6.81365 5.60065 6.81203 5.6282 6.80838C5.86123 6.77758 6.05697 6.6167 6.13397 6.39462C6.14207 6.37192 6.9534 4.08546 10.0058 1.06102C10.2494 0.819894 10.251 0.426794 10.0098 0.183639Z" fill="#4A4640"/>
</g>
<defs>
<clipPath id="clip0_1511_1647">
<rect width="10.1898" height="6.814" fill="white"/>
</clipPath>
</defs>
</svg>
