<svg width="24" height="24" viewBox="0 0 24 24" fill="none" xmlns="http://www.w3.org/2000/svg">
<g clip-path="url(#clip0_940_1097)">
<path d="M23.7475 11.097C23.4287 10.567 22.8843 10.278 22.1892 10.303L13.1737 10.8263L13.6979 1.80118C13.7219 1.13582 13.433 0.571268 12.903 0.25251C12.3634 -0.072969 11.6663 -0.0854505 11.1306 0.224667C10.6217 0.518462 10.3366 1.05709 10.35 1.71669L10.8291 10.8291L1.70226 10.3491C1.05802 10.3433 0.51844 10.6218 0.224644 11.1306C-0.0845126 11.6654 -0.0739514 12.3615 0.252488 12.903C0.571246 13.433 1.13195 13.7364 1.81075 13.697L10.8262 13.1737L10.302 22.1988C10.278 22.8642 10.567 23.4287 11.097 23.7475C11.3754 23.9155 11.6951 24 12.0139 24C12.3135 24 12.6101 23.9251 12.8694 23.7753C13.3782 23.4815 13.6634 22.9429 13.6499 22.2833L13.1708 13.1709L22.2977 13.6509C22.9439 13.6509 23.4815 13.3782 23.7753 12.8694C24.0845 12.3346 24.0739 11.6385 23.7475 11.097Z" fill="#2D42C9"/>
</g>
<defs>
<clipPath id="clip0_940_1097">
<rect width="24" height="24" fill="white"/>
</clipPath>
</defs>
</svg>
