<svg width="30" height="30" viewBox="0 0 30 30" fill="none" xmlns="http://www.w3.org/2000/svg">
<g clip-path="url(#clip0_117_353)">
<path d="M29.6836 13.8707C29.2846 13.2077 28.6046 12.8467 27.7356 12.8777L16.4666 13.5317L17.1226 2.25068C17.1526 1.41868 16.7916 0.713675 16.1286 0.314676C15.4536 -0.0923243 14.5826 -0.107324 13.9136 0.280676C13.2766 0.647676 12.9206 1.32068 12.9376 2.14568L13.5356 13.5357L2.12665 12.9357C1.32065 12.9287 0.647652 13.2757 0.279652 13.9127C-0.106348 14.5817 -0.0933477 15.4517 0.314652 16.1277C0.713652 16.7907 1.41465 17.1697 2.26265 17.1207L13.5316 16.4667L12.8757 27.7477C12.8456 28.5797 13.2066 29.2847 13.8696 29.6837C14.2176 29.8937 14.6176 29.9987 15.0156 29.9987C15.3896 29.9987 15.7606 29.9047 16.0846 29.7177C16.7216 29.3507 17.0777 28.6777 17.0606 27.8527L16.4626 16.4627L27.8716 17.0627C28.6796 17.0627 29.3506 16.7227 29.7186 16.0857C30.1046 15.4167 30.0916 14.5467 29.6836 13.8707Z" fill="#4A4640"/>
</g>
<defs>
<clipPath id="clip0_117_353">
<rect width="30" height="30" fill="white"/>
</clipPath>
</defs>
</svg>
