<svg width="30" height="30" viewBox="0 0 30 30" fill="none" xmlns="http://www.w3.org/2000/svg">
<path d="M10.29 7.44004C10.09 7.24004 9.78 7.24004 9.58 7.44004C8.98 8.03004 8.6 8.56004 8.35 8.95004C8.15 8.77004 8 8.68004 7.98 8.67004C7.74 8.54004 7.44 8.62004 7.3 8.85004C7.16 9.09004 7.24 9.39004 7.48 9.53004C7.48 9.53004 7.78 9.71004 8.05 10.11C8.14 10.25 8.3 10.33 8.46 10.33C8.48 10.33 8.5 10.33 8.52 10.33C8.71 10.31 8.87 10.18 8.93 10C8.93 10 9.22 9.20004 10.28 8.15004C10.48 7.95004 10.48 7.64004 10.28 7.44004H10.29Z" fill="#656158"/>
<path d="M10.29 12.1197C10.09 11.9197 9.78 11.9197 9.58 12.1197C8.98 12.7097 8.6 13.2397 8.35 13.6297C8.15 13.4497 8 13.3597 7.98 13.3497C7.74 13.2197 7.44 13.2997 7.3 13.5297C7.16 13.7697 7.24 14.0697 7.48 14.2097C7.48 14.2097 7.78 14.3897 8.05 14.7897C8.14 14.9297 8.3 15.0097 8.46 15.0097C8.48 15.0097 8.5 15.0097 8.52 15.0097C8.71 14.9897 8.87 14.8597 8.93 14.6797C8.93 14.6797 9.22 13.8797 10.28 12.8297C10.48 12.6297 10.48 12.3197 10.28 12.1197H10.29Z" fill="#656158"/>
<path d="M9.59 17.2103C8.99 17.8003 8.61 18.3303 8.36 18.7203C8.16 18.5403 8.01 18.4503 7.98 18.4403C7.74 18.3103 7.44 18.3903 7.3 18.6303C7.16 18.8703 7.24 19.1703 7.48 19.3103C7.48 19.3103 7.78 19.4903 8.04 19.8903C8.13 20.0303 8.29 20.1103 8.45 20.1103C8.47 20.1103 8.49 20.1103 8.51 20.1103C8.7 20.0903 8.86 19.9603 8.92 19.7803C8.92 19.7803 9.21 18.9803 10.27 17.9303C10.47 17.7403 10.47 17.4203 10.27 17.2203C10.08 17.0203 9.76 17.0203 9.56 17.2203L9.59 17.2103Z" fill="#656158"/>
<path d="M13.62 25.3998H6.66C6.22 25.3998 5.86 25.0398 5.86 24.5998V5.48984C5.86 5.04984 6.22 4.68984 6.66 4.68984H20.85C21.29 4.68984 21.65 5.04984 21.65 5.48984V15.2398C21.65 15.5498 21.83 15.8298 22.11 15.9698L22.61 16.1998C23.14 16.4498 23.75 16.0598 23.75 15.4698V4.68984C23.75 3.52984 22.81 2.58984 21.65 2.58984H5.85C4.69 2.58984 3.75 3.52984 3.75 4.68984V25.3898C3.75 26.5498 4.69 27.4898 5.85 27.4898H13.61C14.05 27.4898 14.41 27.1298 14.41 26.6898V26.1898C14.41 25.7498 14.05 25.3898 13.61 25.3898L13.62 25.3998Z" fill="#656158"/>
<path d="M24.26 21.5703C24.33 21.5403 24.38 21.4703 24.38 21.3903V18.5203C24.38 18.3903 24.25 18.2903 24.12 18.3403L21.78 19.2403C21.71 19.2703 21.66 19.3403 21.66 19.4203V22.3203C21.66 22.4503 21.8 22.5503 21.92 22.5003L24.26 21.5703Z" fill="#656158"/>
<path d="M23.93 17.7802L23.16 17.4502L20.35 18.6002L21.43 18.9902C21.43 18.9902 21.52 19.0102 21.56 18.9902L23.93 18.1402C24.09 18.0802 24.1 17.8502 23.94 17.7802H23.93Z" fill="#656158"/>
<path d="M19.05 18.1404L19.57 18.3304L22.39 17.1304L21.56 16.7804C21.56 16.7804 21.46 16.7604 21.41 16.7804L19.04 17.7904C18.88 17.8604 18.89 18.0904 19.05 18.1504V18.1404Z" fill="#656158"/>
<path d="M21.2 19.2499L20.35 18.9199V19.9599C20.35 20.0799 20.23 20.1699 20.11 20.1199L19.68 19.9599C19.61 19.9299 19.57 19.8699 19.57 19.7999V18.6299L18.85 18.3499C18.72 18.2999 18.59 18.3899 18.59 18.5299V21.3999C18.59 21.4799 18.64 21.5499 18.71 21.5799L21.05 22.5099C21.18 22.5599 21.31 22.4699 21.31 22.3299V19.4299C21.31 19.3499 21.26 19.2799 21.19 19.2499H21.2Z" fill="#656158"/>
<path d="M20.89 23.4096L18.55 24.3096C18.48 24.3396 18.43 24.4096 18.43 24.4896V27.3896C18.43 27.5196 18.57 27.6196 18.69 27.5696L21.03 26.6396C21.1 26.6096 21.15 26.5396 21.15 26.4596V23.5896C21.15 23.4596 21.02 23.3596 20.89 23.4096Z" fill="#656158"/>
<path d="M20.71 22.8398L19.94 22.5098L17.13 23.6598L18.21 24.0498C18.21 24.0498 18.3 24.0698 18.34 24.0498L20.71 23.1998C20.87 23.1398 20.88 22.9098 20.72 22.8398H20.71Z" fill="#656158"/>
<path d="M15.83 23.1999L16.35 23.3899L19.17 22.1899L18.34 21.8399C18.34 21.8399 18.24 21.8199 18.19 21.8399L15.82 22.8499C15.66 22.9199 15.67 23.1499 15.83 23.2099V23.1999Z" fill="#656158"/>
<path d="M17.97 24.3104L17.12 23.9804V25.0204C17.12 25.1404 17 25.2304 16.88 25.1804L16.45 25.0204C16.38 24.9904 16.34 24.9304 16.34 24.8604V23.6904L15.62 23.4104C15.49 23.3604 15.36 23.4504 15.36 23.5904V26.4604C15.36 26.5404 15.41 26.6104 15.48 26.6404L17.82 27.5704C17.95 27.6204 18.08 27.5304 18.08 27.3904V24.4904C18.08 24.4104 18.03 24.3404 17.96 24.3104H17.97Z" fill="#656158"/>
<path d="M27.28 23.4096L24.94 24.3096C24.87 24.3396 24.82 24.4096 24.82 24.4896V27.3896C24.82 27.5196 24.96 27.6196 25.08 27.5696L27.42 26.6396C27.49 26.6096 27.54 26.5396 27.54 26.4596V23.5896C27.54 23.4596 27.41 23.3596 27.28 23.4096Z" fill="#656158"/>
<path d="M27.09 22.8398L26.32 22.5098L23.51 23.6598L24.59 24.0498C24.59 24.0498 24.68 24.0698 24.72 24.0498L27.09 23.1998C27.25 23.1398 27.26 22.9098 27.1 22.8398H27.09Z" fill="#656158"/>
<path d="M22.21 23.1999L22.73 23.3899L25.55 22.1899L24.72 21.8399C24.72 21.8399 24.62 21.8199 24.57 21.8399L22.2 22.8499C22.04 22.9199 22.05 23.1499 22.21 23.2099V23.1999Z" fill="#656158"/>
<path d="M24.35 24.3104L23.5 23.9804V25.0204C23.5 25.1404 23.38 25.2304 23.26 25.1804L22.83 25.0204C22.76 24.9904 22.72 24.9304 22.72 24.8604V23.6904L22 23.4104C21.87 23.3604 21.74 23.4504 21.74 23.5904V26.4604C21.74 26.5404 21.79 26.6104 21.86 26.6404L24.2 27.5704C24.33 27.6204 24.46 27.5304 24.46 27.3904V24.4904C24.46 24.4104 24.41 24.3404 24.34 24.3104H24.35Z" fill="#656158"/>
<path d="M19.55 8.41998L15.93 8.56998C15.74 8.56998 15.54 8.56998 15.35 8.56998L11.73 8.41998C10.66 8.40998 10.68 9.77998 11.75 9.73998L15.16 9.50998C15.48 9.48998 15.8 9.48998 16.12 9.50998L19.53 9.73998C20.6 9.77998 20.62 8.40998 19.55 8.41998Z" fill="#656158"/>
<path d="M18.05 13.1905L15.06 13.3405C14.9 13.3405 14.74 13.3405 14.58 13.3405L11.59 13.1905C10.71 13.1805 10.72 14.5505 11.61 14.5105L14.42 14.2805C14.68 14.2605 14.95 14.2605 15.21 14.2805L18.02 14.5105C18.91 14.5505 18.92 13.1805 18.04 13.1905H18.05Z" fill="#656158"/>
<path d="M15.69 17.9297L13.69 18.0797C13.58 18.0797 13.48 18.0797 13.37 18.0797L11.37 17.9297C10.78 17.9197 10.79 19.2897 11.38 19.2497L13.26 19.0197C13.44 18.9997 13.61 18.9997 13.79 19.0197L15.67 19.2497C16.26 19.2897 16.27 17.9197 15.68 17.9297H15.69Z" fill="#656158"/>
</svg>
