<svg width="30" height="30" viewBox="0 0 30 30" fill="none" xmlns="http://www.w3.org/2000/svg">
<path d="M4.61 10.1401C6.51 11.5201 8.07 13.3001 8.99 15.1401L9.03 15.2101L9.08 15.2701C9.39 15.6401 9.84 15.8601 10.32 15.8601C10.78 15.8601 11.21 15.6601 11.52 15.3201C12.04 14.7401 12.05 13.8201 11.52 13.2001C10.96 12.5201 10.15 11.6701 9.34 10.8601H19.87C21.38 10.8601 22.61 12.0801 22.61 13.6001C22.61 14.5001 23.34 15.2401 24.25 15.2401C25.16 15.2401 25.89 14.5001 25.89 13.6001C25.89 10.2801 23.2 7.58012 19.87 7.58012H9.4C10.2 6.78012 10.98 5.95012 11.53 5.28012C12.05 4.66012 12.04 3.74012 11.53 3.16012C11.22 2.82012 10.79 2.62012 10.33 2.62012C9.85 2.62012 9.39 2.83012 9.09 3.21012L9.05 3.25012L9.02 3.30012C7.56 5.83012 5.42 7.65012 4.56 8.32012C4.28 8.54012 4.12 8.87012 4.13 9.23012C4.13 9.59012 4.31 9.93012 4.6 10.1401H4.61Z" fill="#99948A"/>
<path d="M25.42 19.8099C23.51 18.4399 21.94 16.6799 21 14.8399L20.96 14.7699L20.91 14.7099C20.6 14.3399 20.15 14.1299 19.66 14.1299C19.2 14.1299 18.77 14.3299 18.46 14.6799C17.94 15.2699 17.95 16.1799 18.46 16.7999C19.03 17.4699 19.84 18.3199 20.65 19.1299L10.12 19.2099C8.61 19.2199 7.38 18.0099 7.36 16.4999C7.36 15.5999 6.61 14.8699 5.71 14.8699C4.81 14.8699 4.08 15.6199 4.08 16.5199C4.11 19.8399 6.82 22.5099 10.14 22.4899L20.61 22.4099C19.82 23.2199 19.04 24.0499 18.49 24.7199C17.98 25.3499 17.99 26.2599 18.52 26.8399C18.83 27.1799 19.27 27.3699 19.72 27.3699C20.2 27.3699 20.65 27.1499 20.96 26.7699L21 26.7299L21.03 26.6799C22.47 24.1399 24.6 22.2999 25.45 21.6199C25.73 21.3999 25.89 21.0699 25.88 20.7099C25.88 20.3499 25.69 20.0199 25.4 19.8099H25.42Z" fill="#99948A"/>
</svg>
