<svg width="30" height="30" viewBox="0 0 30 30" fill="none" xmlns="http://www.w3.org/2000/svg">
<path d="M22.98 15.9798C22.07 16.6498 18.21 18.6098 16.35 19.5398C14.5 18.5398 11.2 16.8998 10.26 16.7398C9.17 16.5598 7.42 16.4098 6.04 16.9698V16.8898C6.04 16.5198 5.74 16.2298 5.38 16.2298H3.18C2.81 16.2298 2.52 16.5298 2.52 16.8898V24.9698C2.52 25.3398 2.82 25.6298 3.18 25.6298H5.38C5.75 25.6298 6.04 25.3298 6.04 24.9698V24.8098C6.42 24.7498 7.05 24.6798 7.64 24.6798C8.32 24.7098 12.33 26.2098 13.65 26.7098C14.49 27.0198 14.78 27.1298 14.91 27.1698C15.22 27.2598 15.73 27.3398 16.31 27.3398C17.05 27.3398 17.92 27.2098 18.7 26.7898C19.66 26.2698 22.01 24.0798 26.34 19.6898C26.58 19.4498 26.75 19.2798 26.82 19.2098C27.19 18.8498 27.41 18.2798 27.41 17.6598C27.41 17.0198 27.2 16.4498 26.83 16.0698C26 15.2298 24.48 14.8798 22.98 15.9798ZM25.56 17.9398C25.5 17.9998 25.32 18.1798 25.07 18.4298C20.06 23.5198 18.38 24.9298 17.86 25.2098C17.01 25.6698 15.83 25.5598 15.39 25.4398C15.27 25.3998 14.85 25.2498 14.27 25.0298C10.65 23.6798 8.4 22.8898 7.63 22.8898C7.16 22.8898 6.68 22.9298 6.28 22.9798C6.05 21.0898 6.01 19.2998 6.21 18.8998C6.72 18.3798 8.17 18.1998 9.96 18.4898C10.74 18.6198 15.46 20.9898 16.5 21.6698C17.07 22.0398 17.14 22.2698 17.14 22.2698C16.81 22.6898 16.43 22.5698 16.43 22.5698C14.68 21.8498 12.21 20.6198 11.1 20.0598C10.77 19.8998 10.38 20.0198 10.21 20.3498L10 20.7598C9.83 21.0898 9.96 21.4898 10.28 21.6498C11.41 22.2198 13.92 23.4798 15.8 24.2498C16.41 24.4598 17.72 24.4998 18.6 23.2598C18.88 22.8698 18.98 22.4098 18.89 21.9498C18.8 21.4998 18.53 21.0598 18.09 20.6598C19.95 19.7198 23.09 18.1098 24.02 17.4198C24.38 17.1598 24.67 17.0698 24.91 17.0698C25.25 17.0698 25.46 17.2498 25.55 17.3298C25.63 17.4398 25.63 17.8298 25.55 17.9398H25.56Z" fill="#656158"/>
<path d="M10.38 11.42C10.6 11.51 10.85 11.56 11.13 11.58V12.04C11.13 12.13 11.16 12.2 11.23 12.27C11.29 12.33 11.37 12.37 11.46 12.37C11.55 12.37 11.63 12.34 11.69 12.27C11.75 12.21 11.78 12.13 11.78 12.04V11.57C12.01 11.54 12.23 11.5 12.41 11.42C12.69 11.3 12.9 11.13 13.06 10.9C13.21 10.67 13.29 10.4 13.29 10.07C13.29 9.85004 13.25 9.66004 13.18 9.50004C13.11 9.34004 13 9.20004 12.87 9.09004C12.73 8.98004 12.57 8.87004 12.38 8.78004C12.2 8.70004 12 8.61004 11.79 8.53004V7.16004C11.85 7.18004 11.91 7.19004 11.96 7.22004C12.1 7.30004 12.2 7.40004 12.26 7.53004C12.32 7.63004 12.37 7.70004 12.42 7.74004C12.47 7.78004 12.55 7.80004 12.66 7.80004C12.79 7.80004 12.9 7.76004 12.97 7.67004C13.05 7.59004 13.08 7.48004 13.08 7.35004C13.07 7.21004 13.02 7.07004 12.93 6.94004C12.84 6.81004 12.73 6.70004 12.58 6.60004C12.43 6.50004 12.26 6.42004 12.06 6.36004C11.98 6.34004 11.88 6.34004 11.79 6.32004V5.86004C11.79 5.77004 11.76 5.69004 11.7 5.63004C11.64 5.57004 11.56 5.54004 11.47 5.54004C11.38 5.54004 11.31 5.57004 11.24 5.63004C11.18 5.69004 11.14 5.77004 11.14 5.86004V6.29004C10.93 6.31004 10.73 6.35004 10.55 6.43004C10.3 6.54004 10.1 6.70004 9.95 6.91004C9.8 7.12004 9.73 7.38004 9.73 7.69004C9.73 7.96004 9.78 8.18004 9.87 8.35004C9.96 8.52004 10.09 8.67004 10.24 8.78004C10.39 8.89004 10.56 8.99004 10.75 9.06004C10.88 9.11004 11.01 9.16004 11.14 9.21004V10.75C10.96 10.73 10.81 10.68 10.69 10.61C10.52 10.5 10.4 10.37 10.33 10.23C10.28 10.13 10.22 10.05 10.17 9.98004C10.11 9.91004 10.02 9.88004 9.89 9.88004C9.76 9.88004 9.65 9.92004 9.57 10.01C9.49 10.09 9.45 10.2 9.45 10.33C9.45 10.54 9.53 10.74 9.7 10.94C9.87 11.14 10.1 11.3 10.4 11.42H10.38ZM11.89 9.53004C12.05 9.60004 12.17 9.69004 12.25 9.77004C12.33 9.86004 12.37 9.98004 12.37 10.12C12.37 10.28 12.33 10.41 12.24 10.51C12.15 10.61 12.03 10.68 11.88 10.72C11.85 10.72 11.81 10.72 11.77 10.73V9.47004C11.77 9.47004 11.86 9.51004 11.89 9.52004V9.53004ZM10.77 8.05004C10.67 7.95004 10.62 7.83004 10.62 7.67004C10.62 7.55004 10.65 7.45004 10.72 7.37004C10.79 7.29004 10.88 7.22004 11 7.18004C11.04 7.17004 11.09 7.17004 11.13 7.16004V8.28004C10.99 8.22004 10.87 8.14004 10.78 8.06004L10.77 8.05004Z" fill="#656158"/>
<path d="M11.35 15.3099C14.85 15.3099 17.69 12.4599 17.69 8.96988C17.69 5.47988 14.84 2.62988 11.35 2.62988C7.85999 2.62988 5.00999 5.47988 5.00999 8.96988C5.00999 12.4599 7.85999 15.3099 11.35 15.3099ZM11.35 4.10988C14.03 4.10988 16.21 6.28988 16.21 8.96988C16.21 11.6499 14.03 13.8299 11.35 13.8299C8.66999 13.8299 6.48999 11.6499 6.48999 8.96988C6.48999 6.28988 8.66999 4.10988 11.35 4.10988Z" fill="#656158"/>
<path d="M25.38 9.93039C24.6 10.5704 23.47 11.7204 22.74 12.4804L23.21 4.57039C23.21 4.26039 23.09 4.02039 22.85 3.88039C22.61 3.74039 22.28 3.74039 22.03 3.88039C21.97 3.91039 21.92 3.96039 21.87 4.00039C21.73 4.14039 21.66 4.34039 21.67 4.57039L22.19 12.5004C21.46 11.7404 20.31 10.5704 19.53 9.92039C19.3 9.73039 18.96 9.72039 18.74 9.92039C18.46 10.1704 18.48 10.6004 18.76 10.8304C20.49 11.8304 21.73 13.2704 22.22 13.9004C22.34 14.0504 22.56 14.0404 22.67 13.8904C23.58 12.6404 24.81 11.5204 26.15 10.8504C26.43 10.6204 26.45 10.1904 26.17 9.94039C25.95 9.74039 25.61 9.76039 25.38 9.94039V9.93039Z" fill="#656158"/>
</svg>
