<svg width="31" height="31" viewBox="0 0 31 31" fill="none" xmlns="http://www.w3.org/2000/svg">
<path d="M10.166 0C15.7717 0 20.3321 4.56138 20.3321 10.1682C20.3321 12.6242 19.4564 14.8795 18.0028 16.6385L30.1561 26.8709L30.1623 26.8771C30.855 27.5017 31.1321 28.299 30.9398 29.118C30.7444 29.9576 30.0548 30.6805 29.2236 30.9152C29.023 30.9721 28.8224 31 28.6249 31C28.0222 31 27.4422 30.7404 26.9449 30.2379L16.0395 18.4534C14.378 19.6353 12.3547 20.3375 10.1649 20.3375C4.5592 20.3375 -0.00126266 15.7761 -0.00126266 10.1693C-0.00126266 4.56241 4.56024 0 10.166 0ZM10.166 16.7471C13.7928 16.7471 16.7435 13.7958 16.7435 10.1682C16.7435 6.54063 13.7928 3.58933 10.1649 3.58933C6.53702 3.58933 3.58735 6.54063 3.58735 10.1682C3.58735 13.7958 6.53806 16.7471 10.1649 16.7471H10.166Z" fill="#4A4640"/>
</svg>
