<svg width="28" height="28" viewBox="0 0 28 28" fill="none" xmlns="http://www.w3.org/2000/svg">
<g clip-path="url(#clip0_598_4067)">
<path d="M13.94 26.6704C12.36 26.6704 10.95 25.8504 10.17 24.4804C9.56997 23.4104 8.41997 22.7604 7.19997 22.7704C7.18997 22.7704 7.17997 22.7704 7.15997 22.7704C5.59997 22.7704 4.19997 21.9604 3.40997 20.6104C2.61997 19.2404 2.62997 17.6104 3.42997 16.2504C4.04997 15.1904 4.04997 13.8804 3.42997 12.8204C2.62997 11.4604 2.61997 9.83039 3.40997 8.46039C4.19997 7.09039 5.63997 6.26039 7.18997 6.30039H7.21997C8.42997 6.30039 9.55997 5.64039 10.16 4.59039C10.94 3.22039 12.35 2.40039 13.93 2.40039C15.51 2.40039 16.92 3.22039 17.7 4.59039C18.3 5.65039 19.42 6.30039 20.64 6.30039H20.67C22.22 6.32039 23.66 7.10039 24.45 8.46039C25.24 9.83039 25.23 11.4604 24.43 12.8204C23.81 13.8804 23.81 15.1904 24.43 16.2504C25.23 17.6104 25.24 19.2404 24.45 20.6104C23.67 21.9704 22.27 22.7704 20.7 22.7704C20.68 22.7704 20.66 22.7704 20.64 22.7704C19.43 22.7704 18.3 23.4304 17.7 24.4804C16.92 25.8504 15.51 26.6704 13.93 26.6704H13.94ZM7.22997 20.5604C9.23997 20.5604 11.09 21.6404 12.08 23.3904C12.46 24.0704 13.16 24.4704 13.93 24.4704C14.7 24.4704 15.4 24.0704 15.78 23.3904C16.78 21.6304 18.63 20.5504 20.68 20.5604C21.45 20.5804 22.15 20.1704 22.54 19.5004C22.93 18.8304 22.92 18.0304 22.54 17.3604C21.51 15.6204 21.51 13.4504 22.54 11.7004C22.93 11.0304 22.94 10.2304 22.54 9.56039C22.15 8.89039 21.43 8.46039 20.68 8.50039C20.68 8.50039 20.65 8.50039 20.64 8.50039C18.63 8.50039 16.78 7.42039 15.79 5.67039C15.41 4.99039 14.71 4.59039 13.94 4.59039C13.17 4.59039 12.47 4.99039 12.09 5.67039C11.09 7.43039 9.20997 8.50039 7.18997 8.50039C6.40997 8.50039 5.71997 8.89039 5.32997 9.56039C4.93997 10.2304 4.94997 11.0304 5.32997 11.7004C6.35997 13.4404 6.35997 15.6104 5.32997 17.3604C4.93997 18.0304 4.92997 18.8304 5.32997 19.5004C5.71997 20.1704 6.40997 20.5704 7.18997 20.5604C7.19997 20.5604 7.21997 20.5604 7.22997 20.5604Z" fill="#807B6F"/>
<path d="M13.94 20.9606C10.39 20.9606 7.51001 18.0706 7.51001 14.5306C7.51001 10.9906 10.4 8.10059 13.94 8.10059C17.48 8.10059 20.37 10.9906 20.37 14.5306C20.37 18.0706 17.48 20.9606 13.94 20.9606ZM13.94 10.2906C11.61 10.2906 9.71001 12.1906 9.71001 14.5206C9.71001 16.8506 11.61 18.7506 13.94 18.7506C16.27 18.7506 18.17 16.8506 18.17 14.5206C18.17 12.1906 16.27 10.2906 13.94 10.2906Z" fill="#807B6F"/>
</g>
<defs>
<clipPath id="clip0_598_4067">
<rect width="27.376" height="27.376" fill="white"/>
</clipPath>
</defs>
</svg>
