<svg width="20" height="20" viewBox="0 0 20 20" fill="none" xmlns="http://www.w3.org/2000/svg">
<path d="M19.7288 9.64333C14.6621 8.24444 13.6084 7.18982 12.2092 2.12472C12.1648 1.96363 12.0185 1.85254 11.8518 1.85254C11.6851 1.85254 11.5388 1.96364 11.4944 2.12472C10.0953 7.19077 9.04058 8.24427 3.97484 9.64333C3.81373 9.68777 3.70355 9.83405 3.70355 10.0007C3.70355 10.1673 3.81466 10.3136 3.97484 10.3581C9.04153 11.757 10.0952 12.8116 11.4944 17.8767C11.5388 18.0378 11.6851 18.1489 11.8518 18.1489C12.0185 18.1489 12.1648 18.0378 12.2092 17.8767C13.6083 12.8106 14.663 11.7571 19.7288 10.3581C19.8899 10.3136 20.0001 10.1673 20.0001 10.0007C20.0001 9.83405 19.8889 9.68777 19.7288 9.64333Z" fill="#807B6F"/>
<path d="M3.71664 7.87674C3.76108 8.03783 3.90738 8.14892 4.07404 8.14892C4.24071 8.14892 4.387 8.03782 4.43145 7.87674C5.07961 5.53073 5.53052 5.0798 7.8768 4.43182C8.03791 4.38738 8.14809 4.2411 8.14809 4.07446C8.14809 3.90782 8.03697 3.76154 7.8768 3.7171C5.5305 3.06902 5.07951 2.61908 4.43145 0.27218C4.387 0.111088 4.24071 0 4.07404 0C3.90738 0 3.76108 0.111098 3.71664 0.27218C3.06848 2.61818 2.61756 3.06912 0.27129 3.7171C0.110178 3.76154 0 3.90782 0 4.07446C0 4.2411 0.111112 4.38738 0.27129 4.43182C2.61759 5.0799 3.06858 5.52983 3.71664 7.87674Z" fill="#807B6F"/>
<path d="M8.43249 16.1235C6.46396 15.58 6.0862 15.2023 5.54276 13.2341C5.49832 13.073 5.35202 12.9619 5.18536 12.9619C5.01869 12.9619 4.8724 13.073 4.82795 13.2341C4.28442 15.2024 3.90666 15.5801 1.93822 16.1235C1.77711 16.1679 1.66693 16.3142 1.66693 16.4808C1.66693 16.6475 1.77804 16.7937 1.93822 16.8382C3.90675 17.3816 4.28452 17.7594 4.82795 19.7276C4.8724 19.8886 5.01869 19.9997 5.18536 19.9997C5.35202 19.9997 5.49832 19.8886 5.54276 19.7276C6.08629 17.7593 6.46406 17.3816 8.43249 16.8382C8.59361 16.7937 8.70378 16.6475 8.70378 16.4808C8.70378 16.3142 8.59267 16.1679 8.43249 16.1235Z" fill="#807B6F"/>
</svg>
