<svg width="14" height="14" viewBox="0 0 14 14" fill="none" xmlns="http://www.w3.org/2000/svg">
<g clip-path="url(#clip0_4011_13029)">
<path d="M12.1114 1.4L8.51527 5.57107C8.092 6.062 7.89133 6.68173 7.9492 7.31687L8.2936 11.0824L5.87953 12.3975L6.1614 7.2534C6.195 6.63927 5.98593 6.0424 5.5734 5.5734L1.90073 1.4H12.1114ZM12.8847 0H1.11487C0.182466 0 -0.336467 0.976733 0.245 1.63707L4.522 6.49787C4.69093 6.69013 4.7768 6.9314 4.76327 7.1764L4.44733 12.9393C4.41373 13.5506 4.9616 13.9995 5.5608 13.9995C5.75167 13.9995 5.94767 13.9538 6.132 13.8535L9.1784 12.194C9.54146 11.9961 9.74913 11.6289 9.71413 11.2462L9.34313 7.18853C9.3198 6.9356 9.40287 6.68407 9.57507 6.48433L13.762 1.6296C14.3327 0.9674 13.8119 0 12.8847 0Z" fill="#2E2C28"/>
</g>
<defs>
<clipPath id="clip0_4011_13029">
<rect width="14" height="14" fill="white"/>
</clipPath>
</defs>
</svg>
