<svg width="6" height="14" viewBox="0 0 6 14" fill="none" xmlns="http://www.w3.org/2000/svg">
<g clip-path="url(#clip0_520_1679)">
<path d="M0.466675 5.20913L3.00027 0.5L5.53343 5.20913H0.466675Z" fill="white"/>
<path d="M2.99978 1.49987L4.72624 4.70867H1.27375L3.00021 1.49987M3.00021 0C2.84322 0 2.68623 0.0835334 2.59665 0.250133L0.0630529 4.9588C-0.116116 5.292 0.107845 5.70874 0.466619 5.70874H5.53337C5.89215 5.70874 6.11611 5.292 5.93694 4.9588L3.40334 0.250133C3.31376 0.0835334 3.15677 0 2.99978 0L3.00021 0Z" fill="white"/>
<path d="M2.9981 13.4997L0.466675 8.79102H5.53343L3.00027 13.5002L2.9981 13.4997Z" fill="white"/>
<path d="M4.72624 9.29157L2.99978 12.5004L1.27332 9.29157H4.72581M5.53294 8.2915H0.466619C0.107845 8.2915 -0.116116 8.70824 0.0630529 9.04144L2.59621 13.7501C2.6858 13.9167 2.84279 14.0002 2.99978 14.0002C3.15677 14.0002 3.31376 13.9167 3.40334 13.7501L5.9365 9.04144C6.11567 8.70824 5.89171 8.2915 5.53294 8.2915Z" fill="white"/>
</g>
<defs>
<clipPath id="clip0_520_1679">
<rect width="6" height="14" fill="white"/>
</clipPath>
</defs>
</svg>
