<svg width="6" height="14" viewBox="0 0 6 14" fill="none" xmlns="http://www.w3.org/2000/svg">
<g clip-path="url(#clip0_4955_9632)">
<path d="M0.466614 5.20889L3.00021 0.499756L5.53337 5.20889H0.466614Z" fill="#2E2C28"/>
<path d="M2.99978 1.49987L4.72624 4.70867H1.27375L3.00021 1.49987M3.00021 0C2.84322 0 2.68623 0.0835334 2.59665 0.250133L0.0630529 4.9588C-0.116116 5.292 0.107845 5.70874 0.466619 5.70874H5.53337C5.89215 5.70874 6.11611 5.292 5.93694 4.9588L3.40334 0.250133C3.31376 0.0835334 3.15677 0 2.99978 0L3.00021 0Z" fill="#2E2C28"/>
<path d="M2.99803 13.4997L0.466614 8.79102H5.53337L3.00021 13.5002L2.99803 13.4997Z" fill="#2E2C28"/>
<path d="M4.72624 9.29133L2.99978 12.5001L1.27332 9.29133H4.72581M5.53294 8.29126H0.466619C0.107845 8.29126 -0.116116 8.70799 0.0630529 9.04119L2.59621 13.7499C2.6858 13.9165 2.84279 14 2.99978 14C3.15677 14 3.31376 13.9165 3.40334 13.7499L5.9365 9.04119C6.11567 8.70799 5.89171 8.29126 5.53294 8.29126Z" fill="#2E2C28"/>
</g>
<defs>
<clipPath id="clip0_4955_9632">
<rect width="6" height="14" fill="white"/>
</clipPath>
</defs>
</svg>
