<svg width="32" height="32" viewBox="0 0 32 32" fill="none" xmlns="http://www.w3.org/2000/svg">
<g clip-path="url(#clip0_833_2548)">
<path d="M25.551 6.491L19.151 13.913C18.398 14.786 18.04 15.89 18.144 17.02L18.757 23.721L14.461 26.061L14.963 16.907C15.023 15.814 14.651 14.752 13.916 13.917L7.38305 6.491H25.551ZM26.929 4H5.98405C4.32505 4 3.40105 5.738 4.43605 6.913L12.047 15.563C12.348 15.905 12.5 16.334 12.477 16.771L11.915 27.026C11.855 28.113 12.83 28.913 13.896 28.913C14.236 28.913 14.585 28.832 14.913 28.653L20.334 25.7C20.98 25.348 21.35 24.694 21.287 24.014L20.626 16.794C20.585 16.344 20.732 15.897 21.039 15.541L28.489 6.9C29.505 5.722 28.578 4.001 26.929 4.001V4Z" fill="#807B6F"/>
</g>
<g clip-path="url(#clip1_833_2548)">
<path d="M13.93 28.0989C13.599 28.0989 13.276 27.9659 13.065 27.7439C12.905 27.5749 12.83 27.3769 12.841 27.1559L13.405 16.8649C13.442 16.1889 13.21 15.5299 12.751 15.0089L5.113 6.32788C4.814 5.98888 4.896 5.65888 4.971 5.49188C5.1 5.20588 5.436 4.90088 5.99 4.90088H27.009C27.561 4.90088 27.896 5.20388 28.027 5.48788C28.103 5.65388 28.186 5.98188 27.893 6.32188L20.417 14.9929C19.947 15.5369 19.723 16.2219 19.788 16.9209L20.451 24.1659C20.48 24.4909 20.293 24.8039 19.961 24.9849L14.521 27.9479C14.337 28.0479 14.139 28.0989 13.932 28.0989H13.93Z" fill="#807B6F"/>
</g>
<defs>
<clipPath id="clip0_833_2548">
<rect width="24.912" height="24.912" fill="white" transform="translate(4 4)"/>
</clipPath>
<clipPath id="clip1_833_2548">
<rect width="25" height="25" fill="white" transform="translate(4 4)"/>
</clipPath>
</defs>
</svg>
